<svg xmlns="http://www.w3.org/2000/svg" width="920" height="620" viewBox="0 0 920 620" role="img">
  <style>
    .background { fill: #f6f7f8; }
    .shadow { fill: #d8dde2; opacity: 0.7; }
    .title { font: 700 26px Arial, sans-serif; fill: #202a33; }
    .subtitle, .label { font: 16px Arial, sans-serif; fill: #4f5d68; }
    .box-top-0 { fill: #c1cbd3; stroke: #38434c; stroke-width: 1.1; }.box-side-0, .box-front-0 { fill: #8d99a4; stroke: #38434c; stroke-width: 1; }<polygon class="box-side-0" points="637.8,78.3 378.6,193.5 378.6,186.9 637.8,71.7" />.box-top-1 { fill: #2d3942; stroke: #38434c; stroke-width: 1.1; }.box-side-1, .box-front-1 { fill: #1c252b; stroke: #38434c; stroke-width: 1; }<polygon class="box-side-1" points="598.9,72.5 382.9,168.5 382.9,161.9 598.9,65.9" />.box-top-2 { fill: #202a33; stroke: #38434c; stroke-width: 1.1; }.box-side-2, .box-front-2 { fill: #11181e; stroke: #38434c; stroke-width: 1; }<polygon class="box-side-2" points="514.0,20.1 467.9,40.6 467.9,-289.4 514.0,-309.9" />.box-top-3 { fill: #2d3942; stroke: #38434c; stroke-width: 1.1; }.box-side-3, .box-front-3 { fill: #1c252b; stroke: #38434c; stroke-width: 1; }<polygon class="box-side-3" points="516.1,14.6 510.4,17.2 510.4,-297.4 516.1,-300.0" />.box-top-4 { fill: #202a33; stroke: #38434c; stroke-width: 1.1; }.box-side-4, .box-front-4 { fill: #11181e; stroke: #38434c; stroke-width: 1; }<polygon class="box-side-4" points="506.4,7.4 502.8,9.0 502.8,-266.0 506.4,-267.6" />.box-top-5 { fill: #c51f1f; stroke: #38434c; stroke-width: 1.1; }.box-side-5, .box-front-5 { fill: #8c1515; stroke: #38434c; stroke-width: 1; }<polygon class="box-side-5" points="461.8,-209.8 431.5,-196.3 431.5,-246.9 461.8,-260.4" />.box-top-6 { fill: #c51f1f; stroke: #38434c; stroke-width: 1.1; }.box-side-6, .box-front-6 { fill: #8c1515; stroke: #38434c; stroke-width: 1; }<polygon class="box-side-6" points="522.2,-182.9 492.0,-169.4 492.0,-220.0 522.2,-233.5" />.box-top-7 { fill: #161a1d; stroke: #38434c; stroke-width: 1.1; }.box-side-7, .box-front-7 { fill: #080a0c; stroke: #38434c; stroke-width: 1; }<polygon class="box-side-7" points="557.5,112.6 540.2,120.2 540.2,82.8 557.5,75.2" />.box-top-8 { fill: #161a1d; stroke: #38434c; stroke-width: 1.1; }.box-side-8, .box-front-8 { fill: #080a0c; stroke: #38434c; stroke-width: 1; }<polygon class="box-side-8" points="518.6,-232.9 488.4,-219.4 488.4,-265.6 518.6,-279.1" />.box-top-9 { fill: #d4d8dc; stroke: #38434c; stroke-width: 1.1; }.box-side-9, .box-front-9 { fill: #9aa3aa; stroke: #38434c; stroke-width: 1; }<polygon class="box-side-9" points="604.3,57.1 594.2,61.6 594.2,57.2 604.3,52.7" />.box-top-10 { fill: #d4d8dc; stroke: #38434c; stroke-width: 1.1; }.box-side-10, .box-front-10 { fill: #9aa3aa; stroke: #38434c; stroke-width: 1; }<polygon class="box-side-10" points="368.2,162.0 358.1,166.5 358.1,162.1 368.2,157.6" />
  </style>
  <text class="title" x="34" y="46">Relay Mount Rev D</text><text class="subtitle" x="34" y="74">Simplified relay-box support: exact-footprint insulating sheet on a flat aluminium base plate.</text><text class="label" x="34" y="556">Static assembly visual. Open the HTML file for rotate/zoom interaction.</text>
  <rect class="background" width="920" height="620" /><ellipse class="shadow" cx="455" cy="430" rx="330" ry="74" /><polygon class="box-front-0" points="202.2,115.1 378.6,193.5 378.6,186.9 202.2,108.5" /><polygon class="box-top-0" points="461.4,-6.7 637.8,71.7 378.6,186.9 202.2,108.5" /><polygon class="box-front-1" points="241.1,105.5 382.9,168.5 382.9,161.9 241.1,98.9" /><polygon class="box-top-1" points="457.1,2.9 598.9,65.9 382.9,161.9 241.1,98.9" /><polygon class="box-front-2" points="326.0,-22.5 467.9,40.6 467.9,-289.4 326.0,-352.5" /><polygon class="box-top-2" points="372.1,-373.0 514.0,-309.9 467.9,-289.4 326.0,-352.5" /><polygon class="box-front-3" points="378.6,-41.4 510.4,17.2 510.4,-297.4 378.6,-356.0" /><polygon class="box-top-3" points="384.4,-358.5 516.1,-300.0 510.4,-297.4 378.6,-356.0" /><polygon class="box-front-4" points="397.0,-38.0 502.8,9.0 502.8,-266.0 397.0,-313.0" /><polygon class="box-top-4" points="400.6,-314.6 506.4,-267.6 502.8,-266.0 397.0,-313.0" /><polygon class="box-front-5" points="392.6,-213.6 431.5,-196.3 431.5,-246.9 392.6,-264.2" /><polygon class="box-top-5" points="422.9,-277.6 461.8,-260.4 431.5,-246.9 392.6,-264.2" /><polygon class="box-front-6" points="453.1,-186.7 492.0,-169.4 492.0,-220.0 453.1,-237.3" /><polygon class="box-top-6" points="483.4,-250.8 522.2,-233.5 492.0,-220.0 453.1,-237.3" /><polygon class="box-front-7" points="417.8,65.8 540.2,120.2 540.2,82.8 417.8,28.4" /><polygon class="box-top-7" points="435.1,20.8 557.5,75.2 540.2,82.8 417.8,28.4" /><polygon class="box-front-8" points="396.2,-260.4 488.4,-219.4 488.4,-265.6 396.2,-306.6" /><polygon class="box-top-8" points="426.5,-320.0 518.6,-279.1 488.4,-265.6 396.2,-306.6" /><polygon class="box-front-9" points="471.8,7.2 594.2,61.6 594.2,57.2 471.8,2.8" /><polygon class="box-top-9" points="481.9,-1.7 604.3,52.7 594.2,57.2 471.8,2.8" /><polygon class="box-front-10" points="235.7,112.1 358.1,166.5 358.1,162.1 235.7,107.7" /><polygon class="box-top-10" points="245.8,103.2 368.2,157.6 358.1,162.1 235.7,107.7" />
</svg>
