<svg xmlns="http://www.w3.org/2000/svg" width="920" height="620" viewBox="0 0 920 620" role="img">
  <style>
    .background { fill: #f6f7f8; }
    .shadow { fill: #d8dde2; opacity: 0.7; }
    .title { font: 700 26px Arial, sans-serif; fill: #202a33; }
    .subtitle, .label { font: 16px Arial, sans-serif; fill: #4f5d68; }
    .box-top-0 { fill: #c1cbd3; stroke: #38434c; stroke-width: 1.1; }.box-side-0, .box-front-0 { fill: #8d99a4; stroke: #38434c; stroke-width: 1; }<polygon class="box-side-0" points="637.8,115.1 461.4,193.5 461.4,186.9 637.8,108.5" />.box-top-1 { fill: #2d3942; stroke: #38434c; stroke-width: 1.1; }.box-side-1, .box-front-1 { fill: #1c252b; stroke: #38434c; stroke-width: 1; }<polygon class="box-side-1" points="598.9,105.5 457.1,168.5 457.1,161.9 598.9,98.9" />.box-top-2 { fill: #111820; stroke: #38434c; stroke-width: 1.1; }.box-side-2, .box-front-2 { fill: #080c10; stroke: #38434c; stroke-width: 1; }<polygon class="box-side-2" points="598.9,100.0 457.1,163.0 457.1,158.6 598.9,95.6" />.box-top-3 { fill: #202a33; stroke: #38434c; stroke-width: 1.1; }.box-side-3, .box-front-3 { fill: #11181e; stroke: #38434c; stroke-width: 1; }<polygon class="box-side-3" points="598.9,56.0 457.1,119.0 457.1,35.4 598.9,-27.6" />.box-top-4 { fill: #2d3942; stroke: #38434c; stroke-width: 1.1; }.box-side-4, .box-front-4 { fill: #1c252b; stroke: #38434c; stroke-width: 1; }<polygon class="box-side-4" points="588.8,12.0 457.1,70.5 457.1,61.7 588.8,3.2" />.box-top-5 { fill: #202a33; stroke: #38434c; stroke-width: 1.1; }.box-side-5, .box-front-5 { fill: #11181e; stroke: #38434c; stroke-width: 1; }<polygon class="box-side-5" points="562.9,4.3 457.1,51.3 457.1,45.8 562.9,-1.2" />.box-top-6 { fill: #d4d8dc; stroke: #38434c; stroke-width: 1.1; }.box-side-6, .box-front-6 { fill: #9aa3aa; stroke: #38434c; stroke-width: 1; }<polygon class="box-side-6" points="578.4,81.4 568.3,85.9 568.3,81.5 578.4,77.0" />.box-top-7 { fill: #d4d8dc; stroke: #38434c; stroke-width: 1.1; }.box-side-7, .box-front-7 { fill: #9aa3aa; stroke: #38434c; stroke-width: 1; }<polygon class="box-side-7" points="422.9,150.5 412.8,155.0 412.8,150.6 422.9,146.1" />
  </style>
  <text class="title" x="34" y="46">Relay Mount Rev D</text><text class="subtitle" x="34" y="74">Simplified relay-box support: flat base and insulating sheet under the relay's uncovered bottom face.</text><text class="label" x="34" y="556">Static assembly visual. Open the HTML file for rotate/zoom interaction.</text>
  <rect class="background" width="920" height="620" /><ellipse class="shadow" cx="455" cy="430" rx="330" ry="74" /><polygon class="box-front-0" points="202.2,78.3 461.4,193.5 461.4,186.9 202.2,71.7" /><polygon class="box-top-0" points="378.6,-6.7 637.8,108.5 461.4,186.9 202.2,71.7" /><polygon class="box-front-1" points="241.1,72.5 457.1,168.5 457.1,161.9 241.1,65.9" /><polygon class="box-top-1" points="382.9,2.9 598.9,98.9 457.1,161.9 241.1,65.9" /><polygon class="box-front-2" points="241.1,67.0 457.1,163.0 457.1,158.6 241.1,62.6" /><polygon class="box-top-2" points="382.9,-0.4 598.9,95.6 457.1,158.6 241.1,62.6" /><polygon class="box-front-3" points="241.1,23.0 457.1,119.0 457.1,35.4 241.1,-60.6" /><polygon class="box-top-3" points="382.9,-123.6 598.9,-27.6 457.1,35.4 241.1,-60.6" /><polygon class="box-front-4" points="251.2,-21.0 457.1,70.5 457.1,61.7 251.2,-29.8" /><polygon class="box-top-4" points="382.9,-88.3 588.8,3.2 457.1,61.7 251.2,-29.8" /><polygon class="box-front-5" points="277.1,-28.7 457.1,51.3 457.1,45.8 277.1,-34.2" /><polygon class="box-top-5" points="382.9,-81.2 562.9,-1.2 457.1,45.8 277.1,-34.2" /><polygon class="box-front-6" points="417.1,18.7 568.3,85.9 568.3,81.5 417.1,14.3" /><polygon class="box-top-6" points="427.2,9.8 578.4,77.0 568.3,81.5 417.1,14.3" /><polygon class="box-front-7" points="261.6,87.8 412.8,155.0 412.8,150.6 261.6,83.4" /><polygon class="box-top-7" points="271.7,78.9 422.9,146.1 412.8,150.6 261.6,83.4" />
</svg>
