<svg xmlns="http://www.w3.org/2000/svg" width="410mm" height="373mm" viewBox="0 0 410 373">
  <style>
    .cut { fill: none; stroke: #111; stroke-width: 0.6; }
    .aux { fill: none; stroke: #666; stroke-width: 0.35; }
    .bend { stroke: #0b5fff; stroke-width: 0.4; stroke-dasharray: 3 2; }
    .title { font: 700 9px monospace; fill: #111; }
    .note { font: 6px monospace; fill: #111; }
  </style>
  <text x="25" y="14" class="title">relay_base_plate_rev_d  |  units: mm</text>
  <g transform="translate(25,25)">
  <polygon class="cut" points="0,0 360,0 360,245 0,245" />
  <polygon class="cut" points="50,12 50.1,11.02 50.38,10.09 50.84,9.22 51.46,8.46 52.22,7.84 53.09,7.38 54.02,7.1 55,7 79,7 79.98,7.1 80.91,7.38 81.78,7.84 82.54,8.46 83.16,9.22 83.62,10.09 83.9,11.02 84,12 84,12 83.9,12.98 83.62,13.91 83.16,14.78 82.54,15.54 81.78,16.16 80.91,16.62 79.98,16.9 79,17 55,17 54.02,16.9 53.09,16.62 52.22,16.16 51.46,15.54 50.84,14.78 50.38,13.91 50.1,12.98 50,12" />
  <polygon class="cut" points="276,12 276.1,11.02 276.38,10.09 276.84,9.22 277.46,8.46 278.22,7.84 279.09,7.38 280.02,7.1 281,7 305,7 305.98,7.1 306.91,7.38 307.78,7.84 308.54,8.46 309.16,9.22 309.62,10.09 309.9,11.02 310,12 310,12 309.9,12.98 309.62,13.91 309.16,14.78 308.54,15.54 307.78,16.16 306.91,16.62 305.98,16.9 305,17 281,17 280.02,16.9 279.09,16.62 278.22,16.16 277.46,15.54 276.84,14.78 276.38,13.91 276.1,12.98 276,12" />
  <polygon class="cut" points="50,233 50.1,232.02 50.38,231.09 50.84,230.22 51.46,229.46 52.22,228.84 53.09,228.38 54.02,228.1 55,228 79,228 79.98,228.1 80.91,228.38 81.78,228.84 82.54,229.46 83.16,230.22 83.62,231.09 83.9,232.02 84,233 84,233 83.9,233.98 83.62,234.91 83.16,235.78 82.54,236.54 81.78,237.16 80.91,237.62 79.98,237.9 79,238 55,238 54.02,237.9 53.09,237.62 52.22,237.16 51.46,236.54 50.84,235.78 50.38,234.91 50.1,233.98 50,233" />
  <polygon class="cut" points="276,233 276.1,232.02 276.38,231.09 276.84,230.22 277.46,229.46 278.22,228.84 279.09,228.38 280.02,228.1 281,228 305,228 305.98,228.1 306.91,228.38 307.78,228.84 308.54,229.46 309.16,230.22 309.62,231.09 309.9,232.02 310,233 310,233 309.9,233.98 309.62,234.91 309.16,235.78 308.54,236.54 307.78,237.16 306.91,237.62 305.98,237.9 305,238 281,238 280.02,237.9 279.09,237.62 278.22,237.16 277.46,236.54 276.84,235.78 276.38,234.91 276.1,233.98 276,233" />
  <polygon class="cut" points="8,91 8.1,90.02 8.38,89.09 8.84,88.22 9.46,87.46 10.22,86.84 11.09,86.38 12.02,86.1 13,86 13,86 13.98,86.1 14.91,86.38 15.78,86.84 16.54,87.46 17.16,88.22 17.62,89.09 17.9,90.02 18,91 18,115 17.9,115.98 17.62,116.91 17.16,117.78 16.54,118.54 15.78,119.16 14.91,119.62 13.98,119.9 13,120 13,120 12.02,119.9 11.09,119.62 10.22,119.16 9.46,118.54 8.84,117.78 8.38,116.91 8.1,115.98 8,115" />
  <polygon class="cut" points="342,91 342.1,90.02 342.38,89.09 342.84,88.22 343.46,87.46 344.22,86.84 345.09,86.38 346.02,86.1 347,86 347,86 347.98,86.1 348.91,86.38 349.78,86.84 350.54,87.46 351.16,88.22 351.62,89.09 351.9,90.02 352,91 352,115 351.9,115.98 351.62,116.91 351.16,117.78 350.54,118.54 349.78,119.16 348.91,119.62 347.98,119.9 347,120 347,120 346.02,119.9 345.09,119.62 344.22,119.16 343.46,118.54 342.84,117.78 342.38,116.91 342.1,115.98 342,115" />
  <polygon class="cut" points="8,148 8.1,147.02 8.38,146.09 8.84,145.22 9.46,144.46 10.22,143.84 11.09,143.38 12.02,143.1 13,143 13,143 13.98,143.1 14.91,143.38 15.78,143.84 16.54,144.46 17.16,145.22 17.62,146.09 17.9,147.02 18,148 18,172 17.9,172.98 17.62,173.91 17.16,174.78 16.54,175.54 15.78,176.16 14.91,176.62 13.98,176.9 13,177 13,177 12.02,176.9 11.09,176.62 10.22,176.16 9.46,175.54 8.84,174.78 8.38,173.91 8.1,172.98 8,172" />
  <polygon class="cut" points="342,148 342.1,147.02 342.38,146.09 342.84,145.22 343.46,144.46 344.22,143.84 345.09,143.38 346.02,143.1 347,143 347,143 347.98,143.1 348.91,143.38 349.78,143.84 350.54,144.46 351.16,145.22 351.62,146.09 351.9,147.02 352,148 352,172 351.9,172.98 351.62,173.91 351.16,174.78 350.54,175.54 349.78,176.16 348.91,176.62 347.98,176.9 347,177 347,177 346.02,176.9 345.09,176.62 344.22,176.16 343.46,175.54 342.84,174.78 342.38,173.91 342.1,172.98 342,172" />
  </g>
  <text x="25" y="315" class="note">Relay Rev D base plate: flat 3.0 mm 5052-H32 aluminium. No folded box or rear tray is required because the relay unit is already a covered plastic enclosure.</text>
  <text x="25" y="327" class="note">Base plate is 360 x 245 mm, giving exposed mounting margins around the 300 x 197 mm relay-box footprint.</text>
  <text x="25" y="339" class="note">The slotted holes are only for attaching this base plate to the battery stand / access ladder; final slot selection and bolt size are site-fit.</text>
  <text x="25" y="351" class="note">Transfer any relay-box fixing holes from the actual relay box after placing the exact-size insulating sheet. Do not pre-drill relay housing holes from this drawing.</text>
</svg>
