0
SECTION
2
HEADER
9
$INSUNITS
70
4
0
ENDSEC
0
SECTION
2
ENTITIES
0
LINE
8
CUT
10
0
20
0
11
360
21
0
0
LINE
8
CUT
10
360
20
0
11
360
21
245
0
LINE
8
CUT
10
360
20
245
11
0
21
245
0
LINE
8
CUT
10
0
20
245
11
0
21
0
0
LINE
8
CUT
10
50
20
12
11
50.1
21
11.02
0
LINE
8
CUT
10
50.1
20
11.02
11
50.38
21
10.09
0
LINE
8
CUT
10
50.38
20
10.09
11
50.84
21
9.22
0
LINE
8
CUT
10
50.84
20
9.22
11
51.46
21
8.46
0
LINE
8
CUT
10
51.46
20
8.46
11
52.22
21
7.84
0
LINE
8
CUT
10
52.22
20
7.84
11
53.09
21
7.38
0
LINE
8
CUT
10
53.09
20
7.38
11
54.02
21
7.1
0
LINE
8
CUT
10
54.02
20
7.1
11
55
21
7
0
LINE
8
CUT
10
55
20
7
11
79
21
7
0
LINE
8
CUT
10
79
20
7
11
79.98
21
7.1
0
LINE
8
CUT
10
79.98
20
7.1
11
80.91
21
7.38
0
LINE
8
CUT
10
80.91
20
7.38
11
81.78
21
7.84
0
LINE
8
CUT
10
81.78
20
7.84
11
82.54
21
8.46
0
LINE
8
CUT
10
82.54
20
8.46
11
83.16
21
9.22
0
LINE
8
CUT
10
83.16
20
9.22
11
83.62
21
10.09
0
LINE
8
CUT
10
83.62
20
10.09
11
83.9
21
11.02
0
LINE
8
CUT
10
83.9
20
11.02
11
84
21
12
0
LINE
8
CUT
10
84
20
12
11
84
21
12
0
LINE
8
CUT
10
84
20
12
11
83.9
21
12.98
0
LINE
8
CUT
10
83.9
20
12.98
11
83.62
21
13.91
0
LINE
8
CUT
10
83.62
20
13.91
11
83.16
21
14.78
0
LINE
8
CUT
10
83.16
20
14.78
11
82.54
21
15.54
0
LINE
8
CUT
10
82.54
20
15.54
11
81.78
21
16.16
0
LINE
8
CUT
10
81.78
20
16.16
11
80.91
21
16.62
0
LINE
8
CUT
10
80.91
20
16.62
11
79.98
21
16.9
0
LINE
8
CUT
10
79.98
20
16.9
11
79
21
17
0
LINE
8
CUT
10
79
20
17
11
55
21
17
0
LINE
8
CUT
10
55
20
17
11
54.02
21
16.9
0
LINE
8
CUT
10
54.02
20
16.9
11
53.09
21
16.62
0
LINE
8
CUT
10
53.09
20
16.62
11
52.22
21
16.16
0
LINE
8
CUT
10
52.22
20
16.16
11
51.46
21
15.54
0
LINE
8
CUT
10
51.46
20
15.54
11
50.84
21
14.78
0
LINE
8
CUT
10
50.84
20
14.78
11
50.38
21
13.91
0
LINE
8
CUT
10
50.38
20
13.91
11
50.1
21
12.98
0
LINE
8
CUT
10
50.1
20
12.98
11
50
21
12
0
LINE
8
CUT
10
50
20
12
11
50
21
12
0
LINE
8
CUT
10
276
20
12
11
276.1
21
11.02
0
LINE
8
CUT
10
276.1
20
11.02
11
276.38
21
10.09
0
LINE
8
CUT
10
276.38
20
10.09
11
276.84
21
9.22
0
LINE
8
CUT
10
276.84
20
9.22
11
277.46
21
8.46
0
LINE
8
CUT
10
277.46
20
8.46
11
278.22
21
7.84
0
LINE
8
CUT
10
278.22
20
7.84
11
279.09
21
7.38
0
LINE
8
CUT
10
279.09
20
7.38
11
280.02
21
7.1
0
LINE
8
CUT
10
280.02
20
7.1
11
281
21
7
0
LINE
8
CUT
10
281
20
7
11
305
21
7
0
LINE
8
CUT
10
305
20
7
11
305.98
21
7.1
0
LINE
8
CUT
10
305.98
20
7.1
11
306.91
21
7.38
0
LINE
8
CUT
10
306.91
20
7.38
11
307.78
21
7.84
0
LINE
8
CUT
10
307.78
20
7.84
11
308.54
21
8.46
0
LINE
8
CUT
10
308.54
20
8.46
11
309.16
21
9.22
0
LINE
8
CUT
10
309.16
20
9.22
11
309.62
21
10.09
0
LINE
8
CUT
10
309.62
20
10.09
11
309.9
21
11.02
0
LINE
8
CUT
10
309.9
20
11.02
11
310
21
12
0
LINE
8
CUT
10
310
20
12
11
310
21
12
0
LINE
8
CUT
10
310
20
12
11
309.9
21
12.98
0
LINE
8
CUT
10
309.9
20
12.98
11
309.62
21
13.91
0
LINE
8
CUT
10
309.62
20
13.91
11
309.16
21
14.78
0
LINE
8
CUT
10
309.16
20
14.78
11
308.54
21
15.54
0
LINE
8
CUT
10
308.54
20
15.54
11
307.78
21
16.16
0
LINE
8
CUT
10
307.78
20
16.16
11
306.91
21
16.62
0
LINE
8
CUT
10
306.91
20
16.62
11
305.98
21
16.9
0
LINE
8
CUT
10
305.98
20
16.9
11
305
21
17
0
LINE
8
CUT
10
305
20
17
11
281
21
17
0
LINE
8
CUT
10
281
20
17
11
280.02
21
16.9
0
LINE
8
CUT
10
280.02
20
16.9
11
279.09
21
16.62
0
LINE
8
CUT
10
279.09
20
16.62
11
278.22
21
16.16
0
LINE
8
CUT
10
278.22
20
16.16
11
277.46
21
15.54
0
LINE
8
CUT
10
277.46
20
15.54
11
276.84
21
14.78
0
LINE
8
CUT
10
276.84
20
14.78
11
276.38
21
13.91
0
LINE
8
CUT
10
276.38
20
13.91
11
276.1
21
12.98
0
LINE
8
CUT
10
276.1
20
12.98
11
276
21
12
0
LINE
8
CUT
10
276
20
12
11
276
21
12
0
LINE
8
CUT
10
50
20
233
11
50.1
21
232.02
0
LINE
8
CUT
10
50.1
20
232.02
11
50.38
21
231.09
0
LINE
8
CUT
10
50.38
20
231.09
11
50.84
21
230.22
0
LINE
8
CUT
10
50.84
20
230.22
11
51.46
21
229.46
0
LINE
8
CUT
10
51.46
20
229.46
11
52.22
21
228.84
0
LINE
8
CUT
10
52.22
20
228.84
11
53.09
21
228.38
0
LINE
8
CUT
10
53.09
20
228.38
11
54.02
21
228.1
0
LINE
8
CUT
10
54.02
20
228.1
11
55
21
228
0
LINE
8
CUT
10
55
20
228
11
79
21
228
0
LINE
8
CUT
10
79
20
228
11
79.98
21
228.1
0
LINE
8
CUT
10
79.98
20
228.1
11
80.91
21
228.38
0
LINE
8
CUT
10
80.91
20
228.38
11
81.78
21
228.84
0
LINE
8
CUT
10
81.78
20
228.84
11
82.54
21
229.46
0
LINE
8
CUT
10
82.54
20
229.46
11
83.16
21
230.22
0
LINE
8
CUT
10
83.16
20
230.22
11
83.62
21
231.09
0
LINE
8
CUT
10
83.62
20
231.09
11
83.9
21
232.02
0
LINE
8
CUT
10
83.9
20
232.02
11
84
21
233
0
LINE
8
CUT
10
84
20
233
11
84
21
233
0
LINE
8
CUT
10
84
20
233
11
83.9
21
233.98
0
LINE
8
CUT
10
83.9
20
233.98
11
83.62
21
234.91
0
LINE
8
CUT
10
83.62
20
234.91
11
83.16
21
235.78
0
LINE
8
CUT
10
83.16
20
235.78
11
82.54
21
236.54
0
LINE
8
CUT
10
82.54
20
236.54
11
81.78
21
237.16
0
LINE
8
CUT
10
81.78
20
237.16
11
80.91
21
237.62
0
LINE
8
CUT
10
80.91
20
237.62
11
79.98
21
237.9
0
LINE
8
CUT
10
79.98
20
237.9
11
79
21
238
0
LINE
8
CUT
10
79
20
238
11
55
21
238
0
LINE
8
CUT
10
55
20
238
11
54.02
21
237.9
0
LINE
8
CUT
10
54.02
20
237.9
11
53.09
21
237.62
0
LINE
8
CUT
10
53.09
20
237.62
11
52.22
21
237.16
0
LINE
8
CUT
10
52.22
20
237.16
11
51.46
21
236.54
0
LINE
8
CUT
10
51.46
20
236.54
11
50.84
21
235.78
0
LINE
8
CUT
10
50.84
20
235.78
11
50.38
21
234.91
0
LINE
8
CUT
10
50.38
20
234.91
11
50.1
21
233.98
0
LINE
8
CUT
10
50.1
20
233.98
11
50
21
233
0
LINE
8
CUT
10
50
20
233
11
50
21
233
0
LINE
8
CUT
10
276
20
233
11
276.1
21
232.02
0
LINE
8
CUT
10
276.1
20
232.02
11
276.38
21
231.09
0
LINE
8
CUT
10
276.38
20
231.09
11
276.84
21
230.22
0
LINE
8
CUT
10
276.84
20
230.22
11
277.46
21
229.46
0
LINE
8
CUT
10
277.46
20
229.46
11
278.22
21
228.84
0
LINE
8
CUT
10
278.22
20
228.84
11
279.09
21
228.38
0
LINE
8
CUT
10
279.09
20
228.38
11
280.02
21
228.1
0
LINE
8
CUT
10
280.02
20
228.1
11
281
21
228
0
LINE
8
CUT
10
281
20
228
11
305
21
228
0
LINE
8
CUT
10
305
20
228
11
305.98
21
228.1
0
LINE
8
CUT
10
305.98
20
228.1
11
306.91
21
228.38
0
LINE
8
CUT
10
306.91
20
228.38
11
307.78
21
228.84
0
LINE
8
CUT
10
307.78
20
228.84
11
308.54
21
229.46
0
LINE
8
CUT
10
308.54
20
229.46
11
309.16
21
230.22
0
LINE
8
CUT
10
309.16
20
230.22
11
309.62
21
231.09
0
LINE
8
CUT
10
309.62
20
231.09
11
309.9
21
232.02
0
LINE
8
CUT
10
309.9
20
232.02
11
310
21
233
0
LINE
8
CUT
10
310
20
233
11
310
21
233
0
LINE
8
CUT
10
310
20
233
11
309.9
21
233.98
0
LINE
8
CUT
10
309.9
20
233.98
11
309.62
21
234.91
0
LINE
8
CUT
10
309.62
20
234.91
11
309.16
21
235.78
0
LINE
8
CUT
10
309.16
20
235.78
11
308.54
21
236.54
0
LINE
8
CUT
10
308.54
20
236.54
11
307.78
21
237.16
0
LINE
8
CUT
10
307.78
20
237.16
11
306.91
21
237.62
0
LINE
8
CUT
10
306.91
20
237.62
11
305.98
21
237.9
0
LINE
8
CUT
10
305.98
20
237.9
11
305
21
238
0
LINE
8
CUT
10
305
20
238
11
281
21
238
0
LINE
8
CUT
10
281
20
238
11
280.02
21
237.9
0
LINE
8
CUT
10
280.02
20
237.9
11
279.09
21
237.62
0
LINE
8
CUT
10
279.09
20
237.62
11
278.22
21
237.16
0
LINE
8
CUT
10
278.22
20
237.16
11
277.46
21
236.54
0
LINE
8
CUT
10
277.46
20
236.54
11
276.84
21
235.78
0
LINE
8
CUT
10
276.84
20
235.78
11
276.38
21
234.91
0
LINE
8
CUT
10
276.38
20
234.91
11
276.1
21
233.98
0
LINE
8
CUT
10
276.1
20
233.98
11
276
21
233
0
LINE
8
CUT
10
276
20
233
11
276
21
233
0
LINE
8
CUT
10
8
20
91
11
8.1
21
90.02
0
LINE
8
CUT
10
8.1
20
90.02
11
8.38
21
89.09
0
LINE
8
CUT
10
8.38
20
89.09
11
8.84
21
88.22
0
LINE
8
CUT
10
8.84
20
88.22
11
9.46
21
87.46
0
LINE
8
CUT
10
9.46
20
87.46
11
10.22
21
86.84
0
LINE
8
CUT
10
10.22
20
86.84
11
11.09
21
86.38
0
LINE
8
CUT
10
11.09
20
86.38
11
12.02
21
86.1
0
LINE
8
CUT
10
12.02
20
86.1
11
13
21
86
0
LINE
8
CUT
10
13
20
86
11
13
21
86
0
LINE
8
CUT
10
13
20
86
11
13.98
21
86.1
0
LINE
8
CUT
10
13.98
20
86.1
11
14.91
21
86.38
0
LINE
8
CUT
10
14.91
20
86.38
11
15.78
21
86.84
0
LINE
8
CUT
10
15.78
20
86.84
11
16.54
21
87.46
0
LINE
8
CUT
10
16.54
20
87.46
11
17.16
21
88.22
0
LINE
8
CUT
10
17.16
20
88.22
11
17.62
21
89.09
0
LINE
8
CUT
10
17.62
20
89.09
11
17.9
21
90.02
0
LINE
8
CUT
10
17.9
20
90.02
11
18
21
91
0
LINE
8
CUT
10
18
20
91
11
18
21
115
0
LINE
8
CUT
10
18
20
115
11
17.9
21
115.98
0
LINE
8
CUT
10
17.9
20
115.98
11
17.62
21
116.91
0
LINE
8
CUT
10
17.62
20
116.91
11
17.16
21
117.78
0
LINE
8
CUT
10
17.16
20
117.78
11
16.54
21
118.54
0
LINE
8
CUT
10
16.54
20
118.54
11
15.78
21
119.16
0
LINE
8
CUT
10
15.78
20
119.16
11
14.91
21
119.62
0
LINE
8
CUT
10
14.91
20
119.62
11
13.98
21
119.9
0
LINE
8
CUT
10
13.98
20
119.9
11
13
21
120
0
LINE
8
CUT
10
13
20
120
11
13
21
120
0
LINE
8
CUT
10
13
20
120
11
12.02
21
119.9
0
LINE
8
CUT
10
12.02
20
119.9
11
11.09
21
119.62
0
LINE
8
CUT
10
11.09
20
119.62
11
10.22
21
119.16
0
LINE
8
CUT
10
10.22
20
119.16
11
9.46
21
118.54
0
LINE
8
CUT
10
9.46
20
118.54
11
8.84
21
117.78
0
LINE
8
CUT
10
8.84
20
117.78
11
8.38
21
116.91
0
LINE
8
CUT
10
8.38
20
116.91
11
8.1
21
115.98
0
LINE
8
CUT
10
8.1
20
115.98
11
8
21
115
0
LINE
8
CUT
10
8
20
115
11
8
21
91
0
LINE
8
CUT
10
342
20
91
11
342.1
21
90.02
0
LINE
8
CUT
10
342.1
20
90.02
11
342.38
21
89.09
0
LINE
8
CUT
10
342.38
20
89.09
11
342.84
21
88.22
0
LINE
8
CUT
10
342.84
20
88.22
11
343.46
21
87.46
0
LINE
8
CUT
10
343.46
20
87.46
11
344.22
21
86.84
0
LINE
8
CUT
10
344.22
20
86.84
11
345.09
21
86.38
0
LINE
8
CUT
10
345.09
20
86.38
11
346.02
21
86.1
0
LINE
8
CUT
10
346.02
20
86.1
11
347
21
86
0
LINE
8
CUT
10
347
20
86
11
347
21
86
0
LINE
8
CUT
10
347
20
86
11
347.98
21
86.1
0
LINE
8
CUT
10
347.98
20
86.1
11
348.91
21
86.38
0
LINE
8
CUT
10
348.91
20
86.38
11
349.78
21
86.84
0
LINE
8
CUT
10
349.78
20
86.84
11
350.54
21
87.46
0
LINE
8
CUT
10
350.54
20
87.46
11
351.16
21
88.22
0
LINE
8
CUT
10
351.16
20
88.22
11
351.62
21
89.09
0
LINE
8
CUT
10
351.62
20
89.09
11
351.9
21
90.02
0
LINE
8
CUT
10
351.9
20
90.02
11
352
21
91
0
LINE
8
CUT
10
352
20
91
11
352
21
115
0
LINE
8
CUT
10
352
20
115
11
351.9
21
115.98
0
LINE
8
CUT
10
351.9
20
115.98
11
351.62
21
116.91
0
LINE
8
CUT
10
351.62
20
116.91
11
351.16
21
117.78
0
LINE
8
CUT
10
351.16
20
117.78
11
350.54
21
118.54
0
LINE
8
CUT
10
350.54
20
118.54
11
349.78
21
119.16
0
LINE
8
CUT
10
349.78
20
119.16
11
348.91
21
119.62
0
LINE
8
CUT
10
348.91
20
119.62
11
347.98
21
119.9
0
LINE
8
CUT
10
347.98
20
119.9
11
347
21
120
0
LINE
8
CUT
10
347
20
120
11
347
21
120
0
LINE
8
CUT
10
347
20
120
11
346.02
21
119.9
0
LINE
8
CUT
10
346.02
20
119.9
11
345.09
21
119.62
0
LINE
8
CUT
10
345.09
20
119.62
11
344.22
21
119.16
0
LINE
8
CUT
10
344.22
20
119.16
11
343.46
21
118.54
0
LINE
8
CUT
10
343.46
20
118.54
11
342.84
21
117.78
0
LINE
8
CUT
10
342.84
20
117.78
11
342.38
21
116.91
0
LINE
8
CUT
10
342.38
20
116.91
11
342.1
21
115.98
0
LINE
8
CUT
10
342.1
20
115.98
11
342
21
115
0
LINE
8
CUT
10
342
20
115
11
342
21
91
0
LINE
8
CUT
10
8
20
148
11
8.1
21
147.02
0
LINE
8
CUT
10
8.1
20
147.02
11
8.38
21
146.09
0
LINE
8
CUT
10
8.38
20
146.09
11
8.84
21
145.22
0
LINE
8
CUT
10
8.84
20
145.22
11
9.46
21
144.46
0
LINE
8
CUT
10
9.46
20
144.46
11
10.22
21
143.84
0
LINE
8
CUT
10
10.22
20
143.84
11
11.09
21
143.38
0
LINE
8
CUT
10
11.09
20
143.38
11
12.02
21
143.1
0
LINE
8
CUT
10
12.02
20
143.1
11
13
21
143
0
LINE
8
CUT
10
13
20
143
11
13
21
143
0
LINE
8
CUT
10
13
20
143
11
13.98
21
143.1
0
LINE
8
CUT
10
13.98
20
143.1
11
14.91
21
143.38
0
LINE
8
CUT
10
14.91
20
143.38
11
15.78
21
143.84
0
LINE
8
CUT
10
15.78
20
143.84
11
16.54
21
144.46
0
LINE
8
CUT
10
16.54
20
144.46
11
17.16
21
145.22
0
LINE
8
CUT
10
17.16
20
145.22
11
17.62
21
146.09
0
LINE
8
CUT
10
17.62
20
146.09
11
17.9
21
147.02
0
LINE
8
CUT
10
17.9
20
147.02
11
18
21
148
0
LINE
8
CUT
10
18
20
148
11
18
21
172
0
LINE
8
CUT
10
18
20
172
11
17.9
21
172.98
0
LINE
8
CUT
10
17.9
20
172.98
11
17.62
21
173.91
0
LINE
8
CUT
10
17.62
20
173.91
11
17.16
21
174.78
0
LINE
8
CUT
10
17.16
20
174.78
11
16.54
21
175.54
0
LINE
8
CUT
10
16.54
20
175.54
11
15.78
21
176.16
0
LINE
8
CUT
10
15.78
20
176.16
11
14.91
21
176.62
0
LINE
8
CUT
10
14.91
20
176.62
11
13.98
21
176.9
0
LINE
8
CUT
10
13.98
20
176.9
11
13
21
177
0
LINE
8
CUT
10
13
20
177
11
13
21
177
0
LINE
8
CUT
10
13
20
177
11
12.02
21
176.9
0
LINE
8
CUT
10
12.02
20
176.9
11
11.09
21
176.62
0
LINE
8
CUT
10
11.09
20
176.62
11
10.22
21
176.16
0
LINE
8
CUT
10
10.22
20
176.16
11
9.46
21
175.54
0
LINE
8
CUT
10
9.46
20
175.54
11
8.84
21
174.78
0
LINE
8
CUT
10
8.84
20
174.78
11
8.38
21
173.91
0
LINE
8
CUT
10
8.38
20
173.91
11
8.1
21
172.98
0
LINE
8
CUT
10
8.1
20
172.98
11
8
21
172
0
LINE
8
CUT
10
8
20
172
11
8
21
148
0
LINE
8
CUT
10
342
20
148
11
342.1
21
147.02
0
LINE
8
CUT
10
342.1
20
147.02
11
342.38
21
146.09
0
LINE
8
CUT
10
342.38
20
146.09
11
342.84
21
145.22
0
LINE
8
CUT
10
342.84
20
145.22
11
343.46
21
144.46
0
LINE
8
CUT
10
343.46
20
144.46
11
344.22
21
143.84
0
LINE
8
CUT
10
344.22
20
143.84
11
345.09
21
143.38
0
LINE
8
CUT
10
345.09
20
143.38
11
346.02
21
143.1
0
LINE
8
CUT
10
346.02
20
143.1
11
347
21
143
0
LINE
8
CUT
10
347
20
143
11
347
21
143
0
LINE
8
CUT
10
347
20
143
11
347.98
21
143.1
0
LINE
8
CUT
10
347.98
20
143.1
11
348.91
21
143.38
0
LINE
8
CUT
10
348.91
20
143.38
11
349.78
21
143.84
0
LINE
8
CUT
10
349.78
20
143.84
11
350.54
21
144.46
0
LINE
8
CUT
10
350.54
20
144.46
11
351.16
21
145.22
0
LINE
8
CUT
10
351.16
20
145.22
11
351.62
21
146.09
0
LINE
8
CUT
10
351.62
20
146.09
11
351.9
21
147.02
0
LINE
8
CUT
10
351.9
20
147.02
11
352
21
148
0
LINE
8
CUT
10
352
20
148
11
352
21
172
0
LINE
8
CUT
10
352
20
172
11
351.9
21
172.98
0
LINE
8
CUT
10
351.9
20
172.98
11
351.62
21
173.91
0
LINE
8
CUT
10
351.62
20
173.91
11
351.16
21
174.78
0
LINE
8
CUT
10
351.16
20
174.78
11
350.54
21
175.54
0
LINE
8
CUT
10
350.54
20
175.54
11
349.78
21
176.16
0
LINE
8
CUT
10
349.78
20
176.16
11
348.91
21
176.62
0
LINE
8
CUT
10
348.91
20
176.62
11
347.98
21
176.9
0
LINE
8
CUT
10
347.98
20
176.9
11
347
21
177
0
LINE
8
CUT
10
347
20
177
11
347
21
177
0
LINE
8
CUT
10
347
20
177
11
346.02
21
176.9
0
LINE
8
CUT
10
346.02
20
176.9
11
345.09
21
176.62
0
LINE
8
CUT
10
345.09
20
176.62
11
344.22
21
176.16
0
LINE
8
CUT
10
344.22
20
176.16
11
343.46
21
175.54
0
LINE
8
CUT
10
343.46
20
175.54
11
342.84
21
174.78
0
LINE
8
CUT
10
342.84
20
174.78
11
342.38
21
173.91
0
LINE
8
CUT
10
342.38
20
173.91
11
342.1
21
172.98
0
LINE
8
CUT
10
342.1
20
172.98
11
342
21
172
0
LINE
8
CUT
10
342
20
172
11
342
21
148
0
ENDSEC
0
EOF
