<svg xmlns="http://www.w3.org/2000/svg" width="920" height="620" viewBox="0 0 920 620" role="img">
  <style>
    .background { fill: #f6f7f8; }
    .shadow { fill: #d8dde2; opacity: 0.7; }
    .title { font: 700 26px Arial, sans-serif; fill: #202a33; }
    .subtitle, .label { font: 16px Arial, sans-serif; fill: #4f5d68; }
    .box-top-0 { fill: #c1cbd3; stroke: #38434c; stroke-width: 1.1; }.box-side-0, .box-front-0 { fill: #8d99a4; stroke: #38434c; stroke-width: 1; }<polygon class="box-side-0" points="555.0,97.3 436.2,150.1 436.2,143.5 555.0,90.7" />.box-top-1 { fill: #c1cbd3; stroke: #38434c; stroke-width: 1.1; }.box-side-1, .box-front-1 { fill: #8d99a4; stroke: #38434c; stroke-width: 1; }<polygon class="box-side-1" points="558.2,60.7 553.9,62.6 553.9,-8.9 558.2,-10.8" />.box-top-2 { fill: #c1cbd3; stroke: #38434c; stroke-width: 1.1; }.box-side-2, .box-front-2 { fill: #8d99a4; stroke: #38434c; stroke-width: 1; }<polygon class="box-side-2" points="437.3,114.4 433.0,116.3 433.0,44.8 437.3,42.9" />.box-top-3 { fill: #c1cbd3; stroke: #38434c; stroke-width: 1.1; }.box-side-3, .box-front-3 { fill: #8d99a4; stroke: #38434c; stroke-width: 1; }<polygon class="box-side-3" points="403.8,-5.1 285.0,47.7 285.0,-23.8 403.8,-76.6" />.box-top-4 { fill: #c1cbd3; stroke: #38434c; stroke-width: 1.1; }.box-side-4, .box-front-4 { fill: #8d99a4; stroke: #38434c; stroke-width: 1; }<polygon class="box-side-4" points="559.3,64.0 440.5,116.8 440.5,45.3 559.3,-7.5" />.box-top-5 { fill: #c1cbd3; stroke: #38434c; stroke-width: 1.1; }.box-side-5, .box-front-5 { fill: #8d99a4; stroke: #38434c; stroke-width: 1; }<polygon class="box-side-5" points="654.4,-60.4 521.2,-1.2 521.2,-7.8 654.4,-67.0" />.box-top-6 { fill: #d4d8dc; stroke: #38434c; stroke-width: 1.1; }.box-side-6, .box-front-6 { fill: #9aa3aa; stroke: #38434c; stroke-width: 1; }<polygon class="box-side-6" points="553.2,12.6 547.4,15.2 547.4,6.4 553.2,3.8" />.box-top-7 { fill: #d4d8dc; stroke: #38434c; stroke-width: 1.1; }.box-side-7, .box-front-7 { fill: #9aa3aa; stroke: #38434c; stroke-width: 1; }<polygon class="box-side-7" points="389.8,56.4 384.0,59.0 384.0,50.2 389.8,47.6" />.box-top-8 { fill: #161a1d; stroke: #38434c; stroke-width: 1.1; }.box-side-8, .box-front-8 { fill: #080a0c; stroke: #38434c; stroke-width: 1; }<polygon class="box-side-8" points="515.8,29.1 510.0,31.7 510.0,9.7 515.8,7.1" />.box-top-9 { fill: #161a1d; stroke: #38434c; stroke-width: 1.1; }.box-side-9, .box-front-9 { fill: #080a0c; stroke: #38434c; stroke-width: 1; }<polygon class="box-side-9" points="409.9,96.0 404.2,98.6 404.2,72.2 409.9,69.6" />.box-top-10 { fill: #161a1d; stroke: #38434c; stroke-width: 1.1; }.box-side-10, .box-front-10 { fill: #080a0c; stroke: #38434c; stroke-width: 1; }<polygon class="box-side-10" points="327.8,59.5 322.1,62.1 322.1,42.3 327.8,39.7" />.box-top-11 { fill: #161a1d; stroke: #38434c; stroke-width: 1.1; }.box-side-11, .box-front-11 { fill: #080a0c; stroke: #38434c; stroke-width: 1; }<polygon class="box-side-11" points="347.3,68.2 341.5,70.7 341.5,50.9 347.3,48.4" />.box-top-12 { fill: #161a1d; stroke: #38434c; stroke-width: 1.1; }.box-side-12, .box-front-12 { fill: #080a0c; stroke: #38434c; stroke-width: 1; }<polygon class="box-side-12" points="366.7,76.8 361.0,79.4 361.0,59.6 366.7,57.0" />.box-top-13 { fill: #161a1d; stroke: #38434c; stroke-width: 1.1; }.box-side-13, .box-front-13 { fill: #080a0c; stroke: #38434c; stroke-width: 1; }<polygon class="box-side-13" points="386.2,85.5 380.4,88.0 380.4,68.2 386.2,65.7" />.box-top-14 { fill: #111820; stroke: #38434c; stroke-width: 1.1; }.box-side-14, .box-front-14 { fill: #080c10; stroke: #38434c; stroke-width: 1; }<polygon class="box-side-14" points="501.0,86.8 439.8,114.0 439.8,100.8 501.0,73.6" />.box-top-15 { fill: #c8a451; stroke: #38434c; stroke-width: 1.1; }.box-side-15, .box-front-15 { fill: #8c6d2a; stroke: #38434c; stroke-width: 1; }<polygon class="box-side-15" points="503.5,22.4 494.9,26.3 494.9,15.3 503.5,11.4" />.box-top-16 { fill: #111820; stroke: #38434c; stroke-width: 1.1; }.box-side-16, .box-front-16 { fill: #080c10; stroke: #38434c; stroke-width: 1; }<polygon class="box-side-16" points="419.6,36.2 360.6,62.4 360.6,42.6 419.6,16.4" />.box-top-17 { fill: #b7302a; stroke: #38434c; stroke-width: 1.1; }.box-side-17, .box-front-17 { fill: #7e1e1a; stroke: #38434c; stroke-width: 1; }<polygon class="box-side-17" points="415.7,15.6 363.8,38.7 363.8,10.1 415.7,-13.0" />.box-top-18 { fill: #111820; stroke: #38434c; stroke-width: 1.1; }.box-side-18, .box-front-18 { fill: #080c10; stroke: #38434c; stroke-width: 1; }<polygon class="box-side-18" points="409.9,31.0 397.0,36.7 397.0,27.9 409.9,22.2" />.box-top-19 { fill: #111820; stroke: #38434c; stroke-width: 1.1; }.box-side-19, .box-front-19 { fill: #080c10; stroke: #38434c; stroke-width: 1; }<polygon class="box-side-19" points="373.9,68.7 361.0,74.5 361.0,65.7 373.9,59.9" />.box-top-20 { fill: #111820; stroke: #38434c; stroke-width: 1.1; }.box-side-20, .box-front-20 { fill: #080c10; stroke: #38434c; stroke-width: 1; }<polygon class="box-side-20" points="439.1,44.8 380.0,71.1 380.0,51.3 439.1,25.0" />.box-top-21 { fill: #b7302a; stroke: #38434c; stroke-width: 1.1; }.box-side-21, .box-front-21 { fill: #7e1e1a; stroke: #38434c; stroke-width: 1; }<polygon class="box-side-21" points="435.1,24.3 383.3,47.3 383.3,18.7 435.1,-4.3" />.box-top-22 { fill: #111820; stroke: #38434c; stroke-width: 1.1; }.box-side-22, .box-front-22 { fill: #080c10; stroke: #38434c; stroke-width: 1; }<polygon class="box-side-22" points="429.4,39.6 416.4,45.4 416.4,36.6 429.4,30.8" />.box-top-23 { fill: #111820; stroke: #38434c; stroke-width: 1.1; }.box-side-23, .box-front-23 { fill: #080c10; stroke: #38434c; stroke-width: 1; }<polygon class="box-side-23" points="393.4,77.4 380.4,83.1 380.4,74.3 393.4,68.6" />.box-top-24 { fill: #111820; stroke: #38434c; stroke-width: 1.1; }.box-side-24, .box-front-24 { fill: #080c10; stroke: #38434c; stroke-width: 1; }<polygon class="box-side-24" points="458.5,53.5 399.5,79.7 399.5,59.9 458.5,33.7" />.box-top-25 { fill: #b7302a; stroke: #38434c; stroke-width: 1.1; }.box-side-25, .box-front-25 { fill: #7e1e1a; stroke: #38434c; stroke-width: 1; }<polygon class="box-side-25" points="454.6,32.9 402.7,56.0 402.7,27.4 454.6,4.3" />.box-top-26 { fill: #111820; stroke: #38434c; stroke-width: 1.1; }.box-side-26, .box-front-26 { fill: #080c10; stroke: #38434c; stroke-width: 1; }<polygon class="box-side-26" points="448.8,48.3 435.8,54.0 435.8,45.2 448.8,39.5" />.box-top-27 { fill: #111820; stroke: #38434c; stroke-width: 1.1; }.box-side-27, .box-front-27 { fill: #080c10; stroke: #38434c; stroke-width: 1; }<polygon class="box-side-27" points="412.8,86.0 399.8,91.8 399.8,83.0 412.8,77.2" />.box-top-28 { fill: #111820; stroke: #38434c; stroke-width: 1.1; }.box-side-28, .box-front-28 { fill: #080c10; stroke: #38434c; stroke-width: 1; }<polygon class="box-side-28" points="478.0,62.1 418.9,88.4 418.9,68.6 478.0,42.3" />.box-top-29 { fill: #b7302a; stroke: #38434c; stroke-width: 1.1; }.box-side-29, .box-front-29 { fill: #7e1e1a; stroke: #38434c; stroke-width: 1; }<polygon class="box-side-29" points="474.0,41.6 422.2,64.6 422.2,36.0 474.0,13.0" />.box-top-30 { fill: #111820; stroke: #38434c; stroke-width: 1.1; }.box-side-30, .box-front-30 { fill: #080c10; stroke: #38434c; stroke-width: 1; }<polygon class="box-side-30" points="468.2,56.9 455.3,62.7 455.3,53.9 468.2,48.1" />.box-top-31 { fill: #111820; stroke: #38434c; stroke-width: 1.1; }.box-side-31, .box-front-31 { fill: #080c10; stroke: #38434c; stroke-width: 1; }<polygon class="box-side-31" points="432.2,94.7 419.3,100.4 419.3,91.6 432.2,85.9" />.box-top-32 { fill: #111820; stroke: #38434c; stroke-width: 1.1; }.box-side-32, .box-front-32 { fill: #080c10; stroke: #38434c; stroke-width: 1; }<polygon class="box-side-32" points="497.4,70.8 438.4,97.0 438.4,77.2 497.4,51.0" />.box-top-33 { fill: #b7302a; stroke: #38434c; stroke-width: 1.1; }.box-side-33, .box-front-33 { fill: #7e1e1a; stroke: #38434c; stroke-width: 1; }<polygon class="box-side-33" points="493.4,50.2 441.6,73.2 441.6,44.6 493.4,21.6" />.box-top-34 { fill: #111820; stroke: #38434c; stroke-width: 1.1; }.box-side-34, .box-front-34 { fill: #080c10; stroke: #38434c; stroke-width: 1; }<polygon class="box-side-34" points="487.7,65.5 474.7,71.3 474.7,62.5 487.7,56.7" />.box-top-35 { fill: #111820; stroke: #38434c; stroke-width: 1.1; }.box-side-35, .box-front-35 { fill: #080c10; stroke: #38434c; stroke-width: 1; }<polygon class="box-side-35" points="451.7,103.3 438.7,109.1 438.7,100.3 451.7,94.5" />
  </style>
  <text class="title" x="34" y="46">MIDI 5-Way Hinged Enclosure Rev D</text><text class="subtitle" x="34" y="74">Folded aluminium box around the full five-holder MIDI bank, with hinged lid and grommeted input/output sides.</text><text class="label" x="34" y="556">Static assembly visual. Open the HTML file for rotate/zoom interaction.</text>
  <rect class="background" width="920" height="620" /><ellipse class="shadow" cx="455" cy="430" rx="330" ry="74" /><polygon class="box-front-0" points="285.0,82.9 436.2,150.1 436.2,143.5 285.0,76.3" /><polygon class="box-top-0" points="403.8,23.5 555.0,90.7 436.2,143.5 285.0,76.3" /><polygon class="box-front-1" points="402.7,-4.6 553.9,62.6 553.9,-8.9 402.7,-76.1" /><polygon class="box-top-1" points="407.0,-78.0 558.2,-10.8 553.9,-8.9 402.7,-76.1" /><polygon class="box-front-2" points="281.8,49.1 433.0,116.3 433.0,44.8 281.8,-22.4" /><polygon class="box-top-2" points="286.1,-24.3 437.3,42.9 433.0,44.8 281.8,-22.4" /><polygon class="box-front-3" points="280.7,45.8 285.0,47.7 285.0,-23.8 280.7,-25.7" /><polygon class="box-top-3" points="399.5,-78.5 403.8,-76.6 285.0,-23.8 280.7,-25.7" /><polygon class="box-front-4" points="436.2,114.9 440.5,116.8 440.5,45.3 436.2,43.4" /><polygon class="box-top-4" points="555.0,-9.4 559.3,-7.5 440.5,45.3 436.2,43.4" /><polygon class="box-front-5" points="355.6,-74.8 521.2,-1.2 521.2,-7.8 355.6,-81.4" /><polygon class="box-top-5" points="488.8,-140.6 654.4,-67.0 521.2,-7.8 355.6,-81.4" /><polygon class="box-front-6" points="417.8,-42.4 547.4,15.2 547.4,6.4 417.8,-51.2" /><polygon class="box-top-6" points="423.6,-53.8 553.2,3.8 547.4,6.4 417.8,-51.2" /><polygon class="box-front-7" points="319.2,30.2 384.0,59.0 384.0,50.2 319.2,21.4" /><polygon class="box-top-7" points="325.0,18.8 389.8,47.6 384.0,50.2 319.2,21.4" /><polygon class="box-front-8" points="491.3,23.4 510.0,31.7 510.0,9.7 491.3,1.4" /><polygon class="box-top-8" points="497.0,-1.2 515.8,7.1 510.0,9.7 491.3,1.4" /><polygon class="box-front-9" points="379.7,87.7 404.2,98.6 404.2,72.2 379.7,61.3" /><polygon class="box-top-9" points="385.4,58.7 409.9,69.6 404.2,72.2 379.7,61.3" /><polygon class="box-front-10" points="306.2,55.1 322.1,62.1 322.1,42.3 306.2,35.3" /><polygon class="box-top-10" points="312.0,32.7 327.8,39.7 322.1,42.3 306.2,35.3" /><polygon class="box-front-11" points="325.7,63.7 341.5,70.7 341.5,50.9 325.7,43.9" /><polygon class="box-top-11" points="331.4,41.3 347.3,48.4 341.5,50.9 325.7,43.9" /><polygon class="box-front-12" points="345.1,72.3 361.0,79.4 361.0,59.6 345.1,52.5" /><polygon class="box-top-12" points="350.9,50.0 366.7,57.0 361.0,59.6 345.1,52.5" /><polygon class="box-front-13" points="364.6,81.0 380.4,88.0 380.4,68.2 364.6,61.2" /><polygon class="box-top-13" points="370.3,58.6 386.2,65.7 380.4,68.2 364.6,61.2" /><polygon class="box-front-14" points="339.0,69.2 439.8,114.0 439.8,100.8 339.0,56.0" /><polygon class="box-top-14" points="400.2,28.8 501.0,73.6 439.8,100.8 339.0,56.0" /><polygon class="box-front-15" points="402.7,-14.7 494.9,26.3 494.9,15.3 402.7,-25.7" /><polygon class="box-top-15" points="411.4,-29.5 503.5,11.4 494.9,15.3 402.7,-25.7" /><polygon class="box-front-16" points="342.6,54.4 360.6,62.4 360.6,42.6 342.6,34.6" /><polygon class="box-top-16" points="401.6,8.4 419.6,16.4 360.6,42.6 342.6,34.6" /><polygon class="box-front-17" points="346.6,31.0 363.8,38.7 363.8,10.1 346.6,2.4" /><polygon class="box-top-17" points="398.4,-20.6 415.7,-13.0 363.8,10.1 346.6,2.4" /><polygon class="box-front-18" points="388.3,32.9 397.0,36.7 397.0,27.9 388.3,24.1" /><polygon class="box-top-18" points="401.3,18.3 409.9,22.2 397.0,27.9 388.3,24.1" /><polygon class="box-front-19" points="352.3,70.7 361.0,74.5 361.0,65.7 352.3,61.9" /><polygon class="box-top-19" points="365.3,56.1 373.9,59.9 361.0,65.7 352.3,61.9" /><polygon class="box-front-20" points="362.0,63.1 380.0,71.1 380.0,51.3 362.0,43.3" /><polygon class="box-top-20" points="421.1,17.0 439.1,25.0 380.0,51.3 362.0,43.3" /><polygon class="box-front-21" points="366.0,39.6 383.3,47.3 383.3,18.7 366.0,11.0" /><polygon class="box-top-21" points="417.8,-12.0 435.1,-4.3 383.3,18.7 366.0,11.0" /><polygon class="box-front-22" points="407.8,41.5 416.4,45.4 416.4,36.6 407.8,32.7" /><polygon class="box-top-22" points="420.7,27.0 429.4,30.8 416.4,36.6 407.8,32.7" /><polygon class="box-front-23" points="371.8,79.3 380.4,83.1 380.4,74.3 371.8,70.5" /><polygon class="box-top-23" points="384.7,64.7 393.4,68.6 380.4,74.3 371.8,70.5" /><polygon class="box-front-24" points="381.5,71.7 399.5,79.7 399.5,59.9 381.5,51.9" /><polygon class="box-top-24" points="440.5,25.7 458.5,33.7 399.5,59.9 381.5,51.9" /><polygon class="box-front-25" points="385.4,48.3 402.7,56.0 402.7,27.4 385.4,19.7" /><polygon class="box-top-25" points="437.3,-3.4 454.6,4.3 402.7,27.4 385.4,19.7" /><polygon class="box-front-26" points="427.2,50.2 435.8,54.0 435.8,45.2 427.2,41.4" /><polygon class="box-top-26" points="440.2,35.6 448.8,39.5 435.8,45.2 427.2,41.4" /><polygon class="box-front-27" points="391.2,87.9 399.8,91.8 399.8,83.0 391.2,79.1" /><polygon class="box-top-27" points="404.2,73.4 412.8,77.2 399.8,83.0 391.2,79.1" /><polygon class="box-front-28" points="400.9,80.4 418.9,88.4 418.9,68.6 400.9,60.6" /><polygon class="box-top-28" points="460.0,34.3 478.0,42.3 418.9,68.6 400.9,60.6" /><polygon class="box-front-29" points="404.9,56.9 422.2,64.6 422.2,36.0 404.9,28.3" /><polygon class="box-top-29" points="456.7,5.3 474.0,13.0 422.2,36.0 404.9,28.3" /><polygon class="box-front-30" points="446.6,58.8 455.3,62.7 455.3,53.9 446.6,50.0" /><polygon class="box-top-30" points="459.6,44.3 468.2,48.1 455.3,53.9 446.6,50.0" /><polygon class="box-front-31" points="410.6,96.6 419.3,100.4 419.3,91.6 410.6,87.8" /><polygon class="box-top-31" points="423.6,82.0 432.2,85.9 419.3,91.6 410.6,87.8" /><polygon class="box-front-32" points="420.4,89.0 438.4,97.0 438.4,77.2 420.4,69.2" /><polygon class="box-top-32" points="479.4,43.0 497.4,51.0 438.4,77.2 420.4,69.2" /><polygon class="box-front-33" points="424.3,65.6 441.6,73.2 441.6,44.6 424.3,37.0" /><polygon class="box-top-33" points="476.2,13.9 493.4,21.6 441.6,44.6 424.3,37.0" /><polygon class="box-front-34" points="466.1,67.5 474.7,71.3 474.7,62.5 466.1,58.7" /><polygon class="box-top-34" points="479.0,52.9 487.7,56.7 474.7,62.5 466.1,58.7" /><polygon class="box-front-35" points="430.1,105.2 438.7,109.1 438.7,100.3 430.1,96.4" /><polygon class="box-top-35" points="443.0,90.7 451.7,94.5 438.7,100.3 430.1,96.4" />
</svg>
