0
SECTION
2
HEADER
9
$INSUNITS
70
4
0
ENDSEC
0
SECTION
2
ENTITIES
0
LINE
8
CUT
10
65
20
0
11
275
21
0
0
LINE
8
CUT
10
275
20
0
11
275
21
65
0
LINE
8
CUT
10
275
20
65
11
340
21
65
0
LINE
8
CUT
10
340
20
65
11
340
21
230
0
LINE
8
CUT
10
340
20
230
11
275
21
230
0
LINE
8
CUT
10
275
20
230
11
275
21
295
0
LINE
8
CUT
10
275
20
295
11
65
21
295
0
LINE
8
CUT
10
65
20
295
11
65
21
230
0
LINE
8
CUT
10
65
20
230
11
0
21
230
0
LINE
8
CUT
10
0
20
230
11
0
21
65
0
LINE
8
CUT
10
0
20
65
11
65
21
65
0
LINE
8
CUT
10
65
20
65
11
65
21
0
0
LINE
8
CUT
10
83
20
88
11
83.1
21
87.02
0
LINE
8
CUT
10
83.1
20
87.02
11
83.38
21
86.09
0
LINE
8
CUT
10
83.38
20
86.09
11
83.84
21
85.22
0
LINE
8
CUT
10
83.84
20
85.22
11
84.46
21
84.46
0
LINE
8
CUT
10
84.46
20
84.46
11
85.22
21
83.84
0
LINE
8
CUT
10
85.22
20
83.84
11
86.09
21
83.38
0
LINE
8
CUT
10
86.09
20
83.38
11
87.02
21
83.1
0
LINE
8
CUT
10
87.02
20
83.1
11
88
21
83
0
LINE
8
CUT
10
88
20
83
11
106
21
83
0
LINE
8
CUT
10
106
20
83
11
106.98
21
83.1
0
LINE
8
CUT
10
106.98
20
83.1
11
107.91
21
83.38
0
LINE
8
CUT
10
107.91
20
83.38
11
108.78
21
83.84
0
LINE
8
CUT
10
108.78
20
83.84
11
109.54
21
84.46
0
LINE
8
CUT
10
109.54
20
84.46
11
110.16
21
85.22
0
LINE
8
CUT
10
110.16
20
85.22
11
110.62
21
86.09
0
LINE
8
CUT
10
110.62
20
86.09
11
110.9
21
87.02
0
LINE
8
CUT
10
110.9
20
87.02
11
111
21
88
0
LINE
8
CUT
10
111
20
88
11
111
21
88
0
LINE
8
CUT
10
111
20
88
11
110.9
21
88.98
0
LINE
8
CUT
10
110.9
20
88.98
11
110.62
21
89.91
0
LINE
8
CUT
10
110.62
20
89.91
11
110.16
21
90.78
0
LINE
8
CUT
10
110.16
20
90.78
11
109.54
21
91.54
0
LINE
8
CUT
10
109.54
20
91.54
11
108.78
21
92.16
0
LINE
8
CUT
10
108.78
20
92.16
11
107.91
21
92.62
0
LINE
8
CUT
10
107.91
20
92.62
11
106.98
21
92.9
0
LINE
8
CUT
10
106.98
20
92.9
11
106
21
93
0
LINE
8
CUT
10
106
20
93
11
88
21
93
0
LINE
8
CUT
10
88
20
93
11
87.02
21
92.9
0
LINE
8
CUT
10
87.02
20
92.9
11
86.09
21
92.62
0
LINE
8
CUT
10
86.09
20
92.62
11
85.22
21
92.16
0
LINE
8
CUT
10
85.22
20
92.16
11
84.46
21
91.54
0
LINE
8
CUT
10
84.46
20
91.54
11
83.84
21
90.78
0
LINE
8
CUT
10
83.84
20
90.78
11
83.38
21
89.91
0
LINE
8
CUT
10
83.38
20
89.91
11
83.1
21
88.98
0
LINE
8
CUT
10
83.1
20
88.98
11
83
21
88
0
LINE
8
CUT
10
83
20
88
11
83
21
88
0
LINE
8
CUT
10
229
20
88
11
229.1
21
87.02
0
LINE
8
CUT
10
229.1
20
87.02
11
229.38
21
86.09
0
LINE
8
CUT
10
229.38
20
86.09
11
229.84
21
85.22
0
LINE
8
CUT
10
229.84
20
85.22
11
230.46
21
84.46
0
LINE
8
CUT
10
230.46
20
84.46
11
231.22
21
83.84
0
LINE
8
CUT
10
231.22
20
83.84
11
232.09
21
83.38
0
LINE
8
CUT
10
232.09
20
83.38
11
233.02
21
83.1
0
LINE
8
CUT
10
233.02
20
83.1
11
234
21
83
0
LINE
8
CUT
10
234
20
83
11
252
21
83
0
LINE
8
CUT
10
252
20
83
11
252.98
21
83.1
0
LINE
8
CUT
10
252.98
20
83.1
11
253.91
21
83.38
0
LINE
8
CUT
10
253.91
20
83.38
11
254.78
21
83.84
0
LINE
8
CUT
10
254.78
20
83.84
11
255.54
21
84.46
0
LINE
8
CUT
10
255.54
20
84.46
11
256.16
21
85.22
0
LINE
8
CUT
10
256.16
20
85.22
11
256.62
21
86.09
0
LINE
8
CUT
10
256.62
20
86.09
11
256.9
21
87.02
0
LINE
8
CUT
10
256.9
20
87.02
11
257
21
88
0
LINE
8
CUT
10
257
20
88
11
257
21
88
0
LINE
8
CUT
10
257
20
88
11
256.9
21
88.98
0
LINE
8
CUT
10
256.9
20
88.98
11
256.62
21
89.91
0
LINE
8
CUT
10
256.62
20
89.91
11
256.16
21
90.78
0
LINE
8
CUT
10
256.16
20
90.78
11
255.54
21
91.54
0
LINE
8
CUT
10
255.54
20
91.54
11
254.78
21
92.16
0
LINE
8
CUT
10
254.78
20
92.16
11
253.91
21
92.62
0
LINE
8
CUT
10
253.91
20
92.62
11
252.98
21
92.9
0
LINE
8
CUT
10
252.98
20
92.9
11
252
21
93
0
LINE
8
CUT
10
252
20
93
11
234
21
93
0
LINE
8
CUT
10
234
20
93
11
233.02
21
92.9
0
LINE
8
CUT
10
233.02
20
92.9
11
232.09
21
92.62
0
LINE
8
CUT
10
232.09
20
92.62
11
231.22
21
92.16
0
LINE
8
CUT
10
231.22
20
92.16
11
230.46
21
91.54
0
LINE
8
CUT
10
230.46
20
91.54
11
229.84
21
90.78
0
LINE
8
CUT
10
229.84
20
90.78
11
229.38
21
89.91
0
LINE
8
CUT
10
229.38
20
89.91
11
229.1
21
88.98
0
LINE
8
CUT
10
229.1
20
88.98
11
229
21
88
0
LINE
8
CUT
10
229
20
88
11
229
21
88
0
LINE
8
CUT
10
83
20
207
11
83.1
21
206.02
0
LINE
8
CUT
10
83.1
20
206.02
11
83.38
21
205.09
0
LINE
8
CUT
10
83.38
20
205.09
11
83.84
21
204.22
0
LINE
8
CUT
10
83.84
20
204.22
11
84.46
21
203.46
0
LINE
8
CUT
10
84.46
20
203.46
11
85.22
21
202.84
0
LINE
8
CUT
10
85.22
20
202.84
11
86.09
21
202.38
0
LINE
8
CUT
10
86.09
20
202.38
11
87.02
21
202.1
0
LINE
8
CUT
10
87.02
20
202.1
11
88
21
202
0
LINE
8
CUT
10
88
20
202
11
106
21
202
0
LINE
8
CUT
10
106
20
202
11
106.98
21
202.1
0
LINE
8
CUT
10
106.98
20
202.1
11
107.91
21
202.38
0
LINE
8
CUT
10
107.91
20
202.38
11
108.78
21
202.84
0
LINE
8
CUT
10
108.78
20
202.84
11
109.54
21
203.46
0
LINE
8
CUT
10
109.54
20
203.46
11
110.16
21
204.22
0
LINE
8
CUT
10
110.16
20
204.22
11
110.62
21
205.09
0
LINE
8
CUT
10
110.62
20
205.09
11
110.9
21
206.02
0
LINE
8
CUT
10
110.9
20
206.02
11
111
21
207
0
LINE
8
CUT
10
111
20
207
11
111
21
207
0
LINE
8
CUT
10
111
20
207
11
110.9
21
207.98
0
LINE
8
CUT
10
110.9
20
207.98
11
110.62
21
208.91
0
LINE
8
CUT
10
110.62
20
208.91
11
110.16
21
209.78
0
LINE
8
CUT
10
110.16
20
209.78
11
109.54
21
210.54
0
LINE
8
CUT
10
109.54
20
210.54
11
108.78
21
211.16
0
LINE
8
CUT
10
108.78
20
211.16
11
107.91
21
211.62
0
LINE
8
CUT
10
107.91
20
211.62
11
106.98
21
211.9
0
LINE
8
CUT
10
106.98
20
211.9
11
106
21
212
0
LINE
8
CUT
10
106
20
212
11
88
21
212
0
LINE
8
CUT
10
88
20
212
11
87.02
21
211.9
0
LINE
8
CUT
10
87.02
20
211.9
11
86.09
21
211.62
0
LINE
8
CUT
10
86.09
20
211.62
11
85.22
21
211.16
0
LINE
8
CUT
10
85.22
20
211.16
11
84.46
21
210.54
0
LINE
8
CUT
10
84.46
20
210.54
11
83.84
21
209.78
0
LINE
8
CUT
10
83.84
20
209.78
11
83.38
21
208.91
0
LINE
8
CUT
10
83.38
20
208.91
11
83.1
21
207.98
0
LINE
8
CUT
10
83.1
20
207.98
11
83
21
207
0
LINE
8
CUT
10
83
20
207
11
83
21
207
0
LINE
8
CUT
10
229
20
207
11
229.1
21
206.02
0
LINE
8
CUT
10
229.1
20
206.02
11
229.38
21
205.09
0
LINE
8
CUT
10
229.38
20
205.09
11
229.84
21
204.22
0
LINE
8
CUT
10
229.84
20
204.22
11
230.46
21
203.46
0
LINE
8
CUT
10
230.46
20
203.46
11
231.22
21
202.84
0
LINE
8
CUT
10
231.22
20
202.84
11
232.09
21
202.38
0
LINE
8
CUT
10
232.09
20
202.38
11
233.02
21
202.1
0
LINE
8
CUT
10
233.02
20
202.1
11
234
21
202
0
LINE
8
CUT
10
234
20
202
11
252
21
202
0
LINE
8
CUT
10
252
20
202
11
252.98
21
202.1
0
LINE
8
CUT
10
252.98
20
202.1
11
253.91
21
202.38
0
LINE
8
CUT
10
253.91
20
202.38
11
254.78
21
202.84
0
LINE
8
CUT
10
254.78
20
202.84
11
255.54
21
203.46
0
LINE
8
CUT
10
255.54
20
203.46
11
256.16
21
204.22
0
LINE
8
CUT
10
256.16
20
204.22
11
256.62
21
205.09
0
LINE
8
CUT
10
256.62
20
205.09
11
256.9
21
206.02
0
LINE
8
CUT
10
256.9
20
206.02
11
257
21
207
0
LINE
8
CUT
10
257
20
207
11
257
21
207
0
LINE
8
CUT
10
257
20
207
11
256.9
21
207.98
0
LINE
8
CUT
10
256.9
20
207.98
11
256.62
21
208.91
0
LINE
8
CUT
10
256.62
20
208.91
11
256.16
21
209.78
0
LINE
8
CUT
10
256.16
20
209.78
11
255.54
21
210.54
0
LINE
8
CUT
10
255.54
20
210.54
11
254.78
21
211.16
0
LINE
8
CUT
10
254.78
20
211.16
11
253.91
21
211.62
0
LINE
8
CUT
10
253.91
20
211.62
11
252.98
21
211.9
0
LINE
8
CUT
10
252.98
20
211.9
11
252
21
212
0
LINE
8
CUT
10
252
20
212
11
234
21
212
0
LINE
8
CUT
10
234
20
212
11
233.02
21
211.9
0
LINE
8
CUT
10
233.02
20
211.9
11
232.09
21
211.62
0
LINE
8
CUT
10
232.09
20
211.62
11
231.22
21
211.16
0
LINE
8
CUT
10
231.22
20
211.16
11
230.46
21
210.54
0
LINE
8
CUT
10
230.46
20
210.54
11
229.84
21
209.78
0
LINE
8
CUT
10
229.84
20
209.78
11
229.38
21
208.91
0
LINE
8
CUT
10
229.38
20
208.91
11
229.1
21
207.98
0
LINE
8
CUT
10
229.1
20
207.98
11
229
21
207
0
LINE
8
CUT
10
229
20
207
11
229
21
207
0
CIRCLE
8
CUT
10
115
20
115
40
2.75
0
CIRCLE
8
CUT
10
170
20
115
40
2.75
0
CIRCLE
8
CUT
10
225
20
115
40
2.75
0
CIRCLE
8
CUT
10
115
20
180
40
2.75
0
CIRCLE
8
CUT
10
170
20
180
40
2.75
0
CIRCLE
8
CUT
10
225
20
180
40
2.75
0
CIRCLE
8
CUT
10
110
20
12
40
2.25
0
CIRCLE
8
CUT
10
170
20
12
40
2.25
0
CIRCLE
8
CUT
10
230
20
12
40
2.25
0
CIRCLE
8
CUT
10
137
20
283
40
2.25
0
CIRCLE
8
CUT
10
203
20
283
40
2.25
0
CIRCLE
8
CUT
10
197
20
32.5
40
10
0
CIRCLE
8
CUT
10
116
20
262.5
40
8
0
CIRCLE
8
CUT
10
143
20
262.5
40
8
0
CIRCLE
8
CUT
10
170
20
262.5
40
8
0
CIRCLE
8
CUT
10
197
20
262.5
40
8
0
CIRCLE
8
CUT
10
224
20
262.5
40
14
0
LINE
8
BEND
10
65
20
65
11
275
21
65
0
LINE
8
BEND
10
65
20
230
11
275
21
230
0
LINE
8
BEND
10
65
20
65
11
65
21
230
0
LINE
8
BEND
10
275
20
65
11
275
21
230
0
ENDSEC
0
EOF
