0
SECTION
2
HEADER
9
$INSUNITS
70
4
0
ENDSEC
0
SECTION
2
ENTITIES
0
LWPOLYLINE
8
CUT_FASCIA_OUTER
90
36
70
1
10
404.000
20
0.000
10
405.171
20
0.115
10
406.296
20
0.457
10
407.333
20
1.011
10
408.243
20
1.757
10
408.989
20
2.667
10
409.543
20
3.704
10
409.885
20
4.829
10
410.000
20
6.000
10
410.000
20
219.000
10
409.885
20
220.171
10
409.543
20
221.296
10
408.989
20
222.333
10
408.243
20
223.243
10
407.333
20
223.989
10
406.296
20
224.543
10
405.171
20
224.885
10
404.000
20
225.000
10
6.000
20
225.000
10
4.829
20
224.885
10
3.704
20
224.543
10
2.667
20
223.989
10
1.757
20
223.243
10
1.011
20
222.333
10
0.457
20
221.296
10
0.115
20
220.171
10
0.000
20
219.000
10
0.000
20
6.000
10
0.115
20
4.829
10
0.457
20
3.704
10
1.011
20
2.667
10
1.757
20
1.757
10
2.667
20
1.011
10
3.704
20
0.457
10
4.829
20
0.115
10
6.000
20
0.000
0
LWPOLYLINE
8
MARK_PROPOSED_VEHICLE_CUT
90
36
70
1
10
389.000
20
18.000
10
389.585
20
18.058
10
390.148
20
18.228
10
390.667
20
18.506
10
391.121
20
18.879
10
391.494
20
19.333
10
391.772
20
19.852
10
391.942
20
20.415
10
392.000
20
21.000
10
392.000
20
204.000
10
391.942
20
204.585
10
391.772
20
205.148
10
391.494
20
205.667
10
391.121
20
206.121
10
390.667
20
206.494
10
390.148
20
206.772
10
389.585
20
206.942
10
389.000
20
207.000
10
21.000
20
207.000
10
20.415
20
206.942
10
19.852
20
206.772
10
19.333
20
206.494
10
18.879
20
206.121
10
18.506
20
205.667
10
18.228
20
205.148
10
18.058
20
204.585
10
18.000
20
204.000
10
18.000
20
21.000
10
18.058
20
20.415
10
18.228
20
19.852
10
18.506
20
19.333
10
18.879
20
18.879
10
19.333
20
18.506
10
19.852
20
18.228
10
20.415
20
18.058
10
21.000
20
18.000
0
LWPOLYLINE
8
HOLD_LCD_BEZEL_ENVELOPE
90
36
70
1
10
317.000
20
72.000
10
317.585
20
72.058
10
318.148
20
72.228
10
318.667
20
72.506
10
319.121
20
72.879
10
319.494
20
73.333
10
319.772
20
73.852
10
319.942
20
74.415
10
320.000
20
75.000
10
320.000
20
201.000
10
319.942
20
201.585
10
319.772
20
202.148
10
319.494
20
202.667
10
319.121
20
203.121
10
318.667
20
203.494
10
318.148
20
203.772
10
317.585
20
203.942
10
317.000
20
204.000
10
93.000
20
204.000
10
92.415
20
203.942
10
91.852
20
203.772
10
91.333
20
203.494
10
90.879
20
203.121
10
90.506
20
202.667
10
90.228
20
202.148
10
90.058
20
201.585
10
90.000
20
201.000
10
90.000
20
75.000
10
90.058
20
74.415
10
90.228
20
73.852
10
90.506
20
73.333
10
90.879
20
72.879
10
91.333
20
72.506
10
91.852
20
72.228
10
92.415
20
72.058
10
93.000
20
72.000
0
LWPOLYLINE
8
HOLD_LCD_APERTURE
90
36
70
1
10
303.000
20
80.500
10
303.585
20
80.558
10
304.148
20
80.728
10
304.667
20
81.006
10
305.121
20
81.379
10
305.494
20
81.833
10
305.772
20
82.352
10
305.942
20
82.915
10
306.000
20
83.500
10
306.000
20
192.500
10
305.942
20
193.085
10
305.772
20
193.648
10
305.494
20
194.167
10
305.121
20
194.621
10
304.667
20
194.994
10
304.148
20
195.272
10
303.585
20
195.442
10
303.000
20
195.500
10
107.000
20
195.500
10
106.415
20
195.442
10
105.852
20
195.272
10
105.333
20
194.994
10
104.879
20
194.621
10
104.506
20
194.167
10
104.228
20
193.648
10
104.058
20
193.085
10
104.000
20
192.500
10
104.000
20
83.500
10
104.058
20
82.915
10
104.228
20
82.352
10
104.506
20
81.833
10
104.879
20
81.379
10
105.333
20
81.006
10
105.852
20
80.728
10
106.415
20
80.558
10
107.000
20
80.500
0
LWPOLYLINE
8
HOLD_CONTROL_STRIP_APERTURE
90
36
70
1
10
317.000
20
20.000
10
317.585
20
20.058
10
318.148
20
20.228
10
318.667
20
20.506
10
319.121
20
20.879
10
319.494
20
21.333
10
319.772
20
21.852
10
319.942
20
22.415
10
320.000
20
23.000
10
320.000
20
57.000
10
319.942
20
57.585
10
319.772
20
58.148
10
319.494
20
58.667
10
319.121
20
59.121
10
318.667
20
59.494
10
318.148
20
59.772
10
317.585
20
59.942
10
317.000
20
60.000
10
93.000
20
60.000
10
92.415
20
59.942
10
91.852
20
59.772
10
91.333
20
59.494
10
90.879
20
59.121
10
90.506
20
58.667
10
90.228
20
58.148
10
90.058
20
57.585
10
90.000
20
57.000
10
90.000
20
23.000
10
90.058
20
22.415
10
90.228
20
21.852
10
90.506
20
21.333
10
90.879
20
20.879
10
91.333
20
20.506
10
91.852
20
20.228
10
92.415
20
20.058
10
93.000
20
20.000
0
CIRCLE
8
HOLD_VENT_FACE_ENVELOPE
10
52.000
20
51.000
30
0
40
35.000
0
CIRCLE
8
HOLD_VENT_NECK_CUTOUT
10
52.000
20
51.000
30
0
40
33.000
0
LINE
8
HOLD_CENTRELINES
10
47.000
20
51.000
30
0
11
57.000
21
51.000
31
0
0
LINE
8
HOLD_CENTRELINES
10
52.000
20
46.000
30
0
11
52.000
21
56.000
31
0
0
CIRCLE
8
HOLD_VENT_FACE_ENVELOPE
10
358.000
20
51.000
30
0
40
35.000
0
CIRCLE
8
HOLD_VENT_NECK_CUTOUT
10
358.000
20
51.000
30
0
40
33.000
0
LINE
8
HOLD_CENTRELINES
10
353.000
20
51.000
30
0
11
363.000
21
51.000
31
0
0
LINE
8
HOLD_CENTRELINES
10
358.000
20
46.000
30
0
11
358.000
21
56.000
31
0
0
CIRCLE
8
HOLD_MOUNTING_HOLES
10
9.000
20
9.000
30
0
40
2.250
0
CIRCLE
8
HOLD_MOUNTING_HOLES
10
205.000
20
9.000
30
0
40
2.250
0
CIRCLE
8
HOLD_MOUNTING_HOLES
10
401.000
20
9.000
30
0
40
2.250
0
CIRCLE
8
HOLD_MOUNTING_HOLES
10
9.000
20
216.000
30
0
40
2.250
0
CIRCLE
8
HOLD_MOUNTING_HOLES
10
205.000
20
216.000
30
0
40
2.250
0
CIRCLE
8
HOLD_MOUNTING_HOLES
10
401.000
20
216.000
30
0
40
2.250
0
ENDSEC
0
EOF
