<svg xmlns="http://www.w3.org/2000/svg" width="1180" height="760" viewBox="0 0 1180 760">
<defs><linearGradient id="silver" x1="0" y1="0" x2="1" y2="1"><stop offset="0" stop-color="#f4f5f5"/><stop offset="0.45" stop-color="#b8bec1"/><stop offset="1" stop-color="#72797d"/></linearGradient></defs>
<style>.cut{fill:none;stroke:#111;stroke-width:2}.hold{fill:#fff4df;stroke:#a85f00;stroke-width:2;stroke-dasharray:7 5}.txt{font:15px Arial;fill:#20262b}.bold{font:700 18px Arial;fill:#20262b}.small{font:13px Arial;fill:#53606a}.label{font:700 8px Arial;fill:#20262b}.dim{stroke:#aa2020;stroke-width:1.5}</style>
<rect width="1180" height="760" fill="#f7f8f9"/><text x="55" y="42" class="bold">J40 RHD CENTRE LCD / INTEGRATED A/C FASCIA - REV E</text><text x="55" y="68" class="small">One flat centre face over the deleted ashtray/radio zone. OEM glovebox and speedometer pressing remain unchanged.</text>
<rect x="55.0" y="112.0" width="705.2" height="387.0" rx="10.32" fill="#e8e2cc" stroke="#111" stroke-width="2"/>
<rect x="85.96000000000001" y="142.96" width="643.28" height="325.08" rx="5.16" fill="none" stroke="#aa2020" stroke-width="2" stroke-dasharray="10 6"/>
<rect x="209.8" y="148.12" width="395.59999999999997" height="227.04" rx="7" fill="#11161a" stroke="#a85f00" stroke-width="2" stroke-dasharray="7 5"/>
<rect x="233.88" y="162.74" width="347.44" height="197.79999999999998" rx="5" fill="#253846" stroke="#e8edf0" stroke-width="1"/>
<rect x="209.8" y="395.8" width="395.59999999999997" height="68.8" rx="6" fill="#e8e2cc" stroke="#111" stroke-width="2"/><circle cx="144.44" cy="411.28" r="60.199999999999996" fill="url(#silver)" stroke="#6d7377" stroke-width="2"/><circle cx="144.44" cy="411.28" r="44.72" fill="#292e31" stroke="#101315" stroke-width="2"/><ellipse cx="144.44" cy="411.28" rx="34.4" ry="13.76" fill="#4a5155" stroke="#111" stroke-width="2"/><circle cx="670.76" cy="411.28" r="60.199999999999996" fill="url(#silver)" stroke="#6d7377" stroke-width="2"/><circle cx="670.76" cy="411.28" r="44.72" fill="#292e31" stroke="#101315" stroke-width="2"/><ellipse cx="670.76" cy="411.28" rx="34.4" ry="13.76" fill="#4a5155" stroke="#111" stroke-width="2"/><circle cx="261.4" cy="425.04" r="13" fill="#b8bec2" stroke="#161b1f" stroke-width="2"/><line x1="255.39999999999998" y1="431.04" x2="270.4" y2="416.04" stroke="#111" stroke-width="6" stroke-linecap="round"/><circle cx="373.2" cy="425.04" r="13" fill="#b8bec2" stroke="#161b1f" stroke-width="2"/><line x1="367.2" y1="431.04" x2="382.2" y2="416.04" stroke="#111" stroke-width="6" stroke-linecap="round"/><circle cx="485.0" cy="425.04" r="13" fill="#b8bec2" stroke="#161b1f" stroke-width="2"/><line x1="479.0" y1="431.04" x2="494.0" y2="416.04" stroke="#111" stroke-width="6" stroke-linecap="round"/><text x="261.4" y="456.0" text-anchor="middle" class="label">BLOWER</text><text x="373.2" y="456.0" text-anchor="middle" class="label">A/C REQUEST</text><text x="485.0" y="456.0" text-anchor="middle" class="label">FUEL STOP / CONTROL</text><circle cx="571.0" cy="425.04" r="10" fill="#b51e23" stroke="#161b1f" stroke-width="2"/><text x="571.0" y="456.0" text-anchor="middle" class="label">HAZARD</text><circle cx="70.48" cy="483.52" r="4" class="hold"/><circle cx="407.6" cy="483.52" r="4" class="hold"/><circle cx="744.72" cy="483.52" r="4" class="hold"/><circle cx="70.48" cy="127.48" r="4" class="hold"/><circle cx="407.6" cy="127.48" r="4" class="hold"/><circle cx="744.72" cy="127.48" r="4" class="hold"/>
<line x1="55.0" y1="531.0" x2="760.2" y2="531.0" class="dim"/><text x="313.0" y="557.0" class="bold">410 RELEASED OUTER BLANK</text>
<line x1="780.2" y1="112.0" x2="780.2" y2="499.0" class="dim"/><text x="790.2" y="318.4" class="bold">225</text>
<text x="247.64" y="259.91999999999996" fill="#fff" font-family="Arial" font-size="14">TRUE 9-INCH ACTIVE IMAGE 199.2 x 112.1 mm</text>
<text x="288.91999999999996" y="282.28" fill="#d7e0e5" font-family="Arial" font-size="11">202 x 115 aperture | 230 x 132 bezel envelope | HOLD</text>
<text x="247.64" y="130.92" fill="#8b1e1e" font-family="Arial" font-size="12" font-weight="700">PROPOSED DASH OPENING 374 x 189 - OWNER AUTHORISES CENTRE CUT</text>
<rect x="805" y="100" width="335" height="520" rx="8" fill="#fff" stroke="#cbd2d7"/><text x="828" y="135" class="bold">REV E SCOPE</text>
<text x="828" y="168" class="txt">Ashtray fully deleted; radio zone flattened.</text><text x="828" y="195" class="txt">One wider body-colour CNC fascia.</text><text x="828" y="222" class="txt">Glovebox and speedometer pressing untouched.</text><text x="828" y="245" class="small">Outer blank released; dash opening located by template.</text>
<text x="828" y="267" class="bold">INTEGRATED A/C OUTLETS</text><text x="828" y="300" class="txt">Two circular satin-silver directional vents.</text><text x="828" y="327" class="txt">Flush to +0.5 mm; hidden rear retention.</text><text x="828" y="354" class="txt">Face Ø70 MAX | cutout Ø66 REF.</text><text x="828" y="381" class="txt">Hose neck target Ø63.5 (2.5 inch).</text><text x="828" y="408" class="small">Both vent circles remain HOLD until measured.</text>
<text x="828" y="453" class="bold">CONTROLS</text><text x="828" y="485" class="txt">Under LCD: BLOWER | A/C | FUEL CONTROL</text><text x="828" y="512" class="txt">Separate red HAZARD at far right.</text><text x="828" y="539" class="small">Right of speedometer: WIPERS / LIGHTS</text><text x="828" y="562" class="small">over SPOTS / AUX in original 2 x 2 zone.</text>
<text x="55" y="695" class="small">Finish: low-gloss body-colour fascia; brushed/satin-silver vent bezels; black directional cores permitted.</text>
<text x="55" y="720" class="small">Black outer profile is released. Red dash-opening mark is fitted by template. HOLD_* LCD, selector, vent and mounting geometry awaits actual-part measurement.</text></svg>