0
SECTION
2
HEADER
9
$INSUNITS
70
4
0
ENDSEC
0
SECTION
2
ENTITIES
0
LINE
8
CUT
10
20
20
0
11
200
21
0
0
LINE
8
CUT
10
200
20
0
11
200
21
20
0
LINE
8
CUT
10
200
20
20
11
220
21
20
0
LINE
8
CUT
10
220
20
20
11
220
21
140
0
LINE
8
CUT
10
220
20
140
11
200
21
140
0
LINE
8
CUT
10
200
20
140
11
200
21
160
0
LINE
8
CUT
10
200
20
160
11
20
21
160
0
LINE
8
CUT
10
20
20
160
11
20
21
140
0
LINE
8
CUT
10
20
20
140
11
0
21
140
0
LINE
8
CUT
10
0
20
140
11
0
21
20
0
LINE
8
CUT
10
0
20
20
11
20
21
20
0
LINE
8
CUT
10
20
20
20
11
20
21
0
0
LINE
8
CUT
10
54
20
10
11
54.08
21
9.22
0
LINE
8
CUT
10
54.08
20
9.22
11
54.3
21
8.47
0
LINE
8
CUT
10
54.3
20
8.47
11
54.67
21
7.78
0
LINE
8
CUT
10
54.67
20
7.78
11
55.17
21
7.17
0
LINE
8
CUT
10
55.17
20
7.17
11
55.78
21
6.67
0
LINE
8
CUT
10
55.78
20
6.67
11
56.47
21
6.3
0
LINE
8
CUT
10
56.47
20
6.3
11
57.22
21
6.08
0
LINE
8
CUT
10
57.22
20
6.08
11
58
21
6
0
LINE
8
CUT
10
58
20
6
11
66
21
6
0
LINE
8
CUT
10
66
20
6
11
66.78
21
6.08
0
LINE
8
CUT
10
66.78
20
6.08
11
67.53
21
6.3
0
LINE
8
CUT
10
67.53
20
6.3
11
68.22
21
6.67
0
LINE
8
CUT
10
68.22
20
6.67
11
68.83
21
7.17
0
LINE
8
CUT
10
68.83
20
7.17
11
69.33
21
7.78
0
LINE
8
CUT
10
69.33
20
7.78
11
69.7
21
8.47
0
LINE
8
CUT
10
69.7
20
8.47
11
69.92
21
9.22
0
LINE
8
CUT
10
69.92
20
9.22
11
70
21
10
0
LINE
8
CUT
10
70
20
10
11
70
21
10
0
LINE
8
CUT
10
70
20
10
11
69.92
21
10.78
0
LINE
8
CUT
10
69.92
20
10.78
11
69.7
21
11.53
0
LINE
8
CUT
10
69.7
20
11.53
11
69.33
21
12.22
0
LINE
8
CUT
10
69.33
20
12.22
11
68.83
21
12.83
0
LINE
8
CUT
10
68.83
20
12.83
11
68.22
21
13.33
0
LINE
8
CUT
10
68.22
20
13.33
11
67.53
21
13.7
0
LINE
8
CUT
10
67.53
20
13.7
11
66.78
21
13.92
0
LINE
8
CUT
10
66.78
20
13.92
11
66
21
14
0
LINE
8
CUT
10
66
20
14
11
58
21
14
0
LINE
8
CUT
10
58
20
14
11
57.22
21
13.92
0
LINE
8
CUT
10
57.22
20
13.92
11
56.47
21
13.7
0
LINE
8
CUT
10
56.47
20
13.7
11
55.78
21
13.33
0
LINE
8
CUT
10
55.78
20
13.33
11
55.17
21
12.83
0
LINE
8
CUT
10
55.17
20
12.83
11
54.67
21
12.22
0
LINE
8
CUT
10
54.67
20
12.22
11
54.3
21
11.53
0
LINE
8
CUT
10
54.3
20
11.53
11
54.08
21
10.78
0
LINE
8
CUT
10
54.08
20
10.78
11
54
21
10
0
LINE
8
CUT
10
54
20
10
11
54
21
10
0
LINE
8
CUT
10
150
20
10
11
150.08
21
9.22
0
LINE
8
CUT
10
150.08
20
9.22
11
150.3
21
8.47
0
LINE
8
CUT
10
150.3
20
8.47
11
150.67
21
7.78
0
LINE
8
CUT
10
150.67
20
7.78
11
151.17
21
7.17
0
LINE
8
CUT
10
151.17
20
7.17
11
151.78
21
6.67
0
LINE
8
CUT
10
151.78
20
6.67
11
152.47
21
6.3
0
LINE
8
CUT
10
152.47
20
6.3
11
153.22
21
6.08
0
LINE
8
CUT
10
153.22
20
6.08
11
154
21
6
0
LINE
8
CUT
10
154
20
6
11
162
21
6
0
LINE
8
CUT
10
162
20
6
11
162.78
21
6.08
0
LINE
8
CUT
10
162.78
20
6.08
11
163.53
21
6.3
0
LINE
8
CUT
10
163.53
20
6.3
11
164.22
21
6.67
0
LINE
8
CUT
10
164.22
20
6.67
11
164.83
21
7.17
0
LINE
8
CUT
10
164.83
20
7.17
11
165.33
21
7.78
0
LINE
8
CUT
10
165.33
20
7.78
11
165.7
21
8.47
0
LINE
8
CUT
10
165.7
20
8.47
11
165.92
21
9.22
0
LINE
8
CUT
10
165.92
20
9.22
11
166
21
10
0
LINE
8
CUT
10
166
20
10
11
166
21
10
0
LINE
8
CUT
10
166
20
10
11
165.92
21
10.78
0
LINE
8
CUT
10
165.92
20
10.78
11
165.7
21
11.53
0
LINE
8
CUT
10
165.7
20
11.53
11
165.33
21
12.22
0
LINE
8
CUT
10
165.33
20
12.22
11
164.83
21
12.83
0
LINE
8
CUT
10
164.83
20
12.83
11
164.22
21
13.33
0
LINE
8
CUT
10
164.22
20
13.33
11
163.53
21
13.7
0
LINE
8
CUT
10
163.53
20
13.7
11
162.78
21
13.92
0
LINE
8
CUT
10
162.78
20
13.92
11
162
21
14
0
LINE
8
CUT
10
162
20
14
11
154
21
14
0
LINE
8
CUT
10
154
20
14
11
153.22
21
13.92
0
LINE
8
CUT
10
153.22
20
13.92
11
152.47
21
13.7
0
LINE
8
CUT
10
152.47
20
13.7
11
151.78
21
13.33
0
LINE
8
CUT
10
151.78
20
13.33
11
151.17
21
12.83
0
LINE
8
CUT
10
151.17
20
12.83
11
150.67
21
12.22
0
LINE
8
CUT
10
150.67
20
12.22
11
150.3
21
11.53
0
LINE
8
CUT
10
150.3
20
11.53
11
150.08
21
10.78
0
LINE
8
CUT
10
150.08
20
10.78
11
150
21
10
0
LINE
8
CUT
10
150
20
10
11
150
21
10
0
LINE
8
CUT
10
54
20
150
11
54.08
21
149.22
0
LINE
8
CUT
10
54.08
20
149.22
11
54.3
21
148.47
0
LINE
8
CUT
10
54.3
20
148.47
11
54.67
21
147.78
0
LINE
8
CUT
10
54.67
20
147.78
11
55.17
21
147.17
0
LINE
8
CUT
10
55.17
20
147.17
11
55.78
21
146.67
0
LINE
8
CUT
10
55.78
20
146.67
11
56.47
21
146.3
0
LINE
8
CUT
10
56.47
20
146.3
11
57.22
21
146.08
0
LINE
8
CUT
10
57.22
20
146.08
11
58
21
146
0
LINE
8
CUT
10
58
20
146
11
66
21
146
0
LINE
8
CUT
10
66
20
146
11
66.78
21
146.08
0
LINE
8
CUT
10
66.78
20
146.08
11
67.53
21
146.3
0
LINE
8
CUT
10
67.53
20
146.3
11
68.22
21
146.67
0
LINE
8
CUT
10
68.22
20
146.67
11
68.83
21
147.17
0
LINE
8
CUT
10
68.83
20
147.17
11
69.33
21
147.78
0
LINE
8
CUT
10
69.33
20
147.78
11
69.7
21
148.47
0
LINE
8
CUT
10
69.7
20
148.47
11
69.92
21
149.22
0
LINE
8
CUT
10
69.92
20
149.22
11
70
21
150
0
LINE
8
CUT
10
70
20
150
11
70
21
150
0
LINE
8
CUT
10
70
20
150
11
69.92
21
150.78
0
LINE
8
CUT
10
69.92
20
150.78
11
69.7
21
151.53
0
LINE
8
CUT
10
69.7
20
151.53
11
69.33
21
152.22
0
LINE
8
CUT
10
69.33
20
152.22
11
68.83
21
152.83
0
LINE
8
CUT
10
68.83
20
152.83
11
68.22
21
153.33
0
LINE
8
CUT
10
68.22
20
153.33
11
67.53
21
153.7
0
LINE
8
CUT
10
67.53
20
153.7
11
66.78
21
153.92
0
LINE
8
CUT
10
66.78
20
153.92
11
66
21
154
0
LINE
8
CUT
10
66
20
154
11
58
21
154
0
LINE
8
CUT
10
58
20
154
11
57.22
21
153.92
0
LINE
8
CUT
10
57.22
20
153.92
11
56.47
21
153.7
0
LINE
8
CUT
10
56.47
20
153.7
11
55.78
21
153.33
0
LINE
8
CUT
10
55.78
20
153.33
11
55.17
21
152.83
0
LINE
8
CUT
10
55.17
20
152.83
11
54.67
21
152.22
0
LINE
8
CUT
10
54.67
20
152.22
11
54.3
21
151.53
0
LINE
8
CUT
10
54.3
20
151.53
11
54.08
21
150.78
0
LINE
8
CUT
10
54.08
20
150.78
11
54
21
150
0
LINE
8
CUT
10
54
20
150
11
54
21
150
0
LINE
8
CUT
10
150
20
150
11
150.08
21
149.22
0
LINE
8
CUT
10
150.08
20
149.22
11
150.3
21
148.47
0
LINE
8
CUT
10
150.3
20
148.47
11
150.67
21
147.78
0
LINE
8
CUT
10
150.67
20
147.78
11
151.17
21
147.17
0
LINE
8
CUT
10
151.17
20
147.17
11
151.78
21
146.67
0
LINE
8
CUT
10
151.78
20
146.67
11
152.47
21
146.3
0
LINE
8
CUT
10
152.47
20
146.3
11
153.22
21
146.08
0
LINE
8
CUT
10
153.22
20
146.08
11
154
21
146
0
LINE
8
CUT
10
154
20
146
11
162
21
146
0
LINE
8
CUT
10
162
20
146
11
162.78
21
146.08
0
LINE
8
CUT
10
162.78
20
146.08
11
163.53
21
146.3
0
LINE
8
CUT
10
163.53
20
146.3
11
164.22
21
146.67
0
LINE
8
CUT
10
164.22
20
146.67
11
164.83
21
147.17
0
LINE
8
CUT
10
164.83
20
147.17
11
165.33
21
147.78
0
LINE
8
CUT
10
165.33
20
147.78
11
165.7
21
148.47
0
LINE
8
CUT
10
165.7
20
148.47
11
165.92
21
149.22
0
LINE
8
CUT
10
165.92
20
149.22
11
166
21
150
0
LINE
8
CUT
10
166
20
150
11
166
21
150
0
LINE
8
CUT
10
166
20
150
11
165.92
21
150.78
0
LINE
8
CUT
10
165.92
20
150.78
11
165.7
21
151.53
0
LINE
8
CUT
10
165.7
20
151.53
11
165.33
21
152.22
0
LINE
8
CUT
10
165.33
20
152.22
11
164.83
21
152.83
0
LINE
8
CUT
10
164.83
20
152.83
11
164.22
21
153.33
0
LINE
8
CUT
10
164.22
20
153.33
11
163.53
21
153.7
0
LINE
8
CUT
10
163.53
20
153.7
11
162.78
21
153.92
0
LINE
8
CUT
10
162.78
20
153.92
11
162
21
154
0
LINE
8
CUT
10
162
20
154
11
154
21
154
0
LINE
8
CUT
10
154
20
154
11
153.22
21
153.92
0
LINE
8
CUT
10
153.22
20
153.92
11
152.47
21
153.7
0
LINE
8
CUT
10
152.47
20
153.7
11
151.78
21
153.33
0
LINE
8
CUT
10
151.78
20
153.33
11
151.17
21
152.83
0
LINE
8
CUT
10
151.17
20
152.83
11
150.67
21
152.22
0
LINE
8
CUT
10
150.67
20
152.22
11
150.3
21
151.53
0
LINE
8
CUT
10
150.3
20
151.53
11
150.08
21
150.78
0
LINE
8
CUT
10
150.08
20
150.78
11
150
21
150
0
LINE
8
CUT
10
150
20
150
11
150
21
150
0
LINE
8
CUT
10
6
20
76
11
6.08
21
75.22
0
LINE
8
CUT
10
6.08
20
75.22
11
6.3
21
74.47
0
LINE
8
CUT
10
6.3
20
74.47
11
6.67
21
73.78
0
LINE
8
CUT
10
6.67
20
73.78
11
7.17
21
73.17
0
LINE
8
CUT
10
7.17
20
73.17
11
7.78
21
72.67
0
LINE
8
CUT
10
7.78
20
72.67
11
8.47
21
72.3
0
LINE
8
CUT
10
8.47
20
72.3
11
9.22
21
72.08
0
LINE
8
CUT
10
9.22
20
72.08
11
10
21
72
0
LINE
8
CUT
10
10
20
72
11
10
21
72
0
LINE
8
CUT
10
10
20
72
11
10.78
21
72.08
0
LINE
8
CUT
10
10.78
20
72.08
11
11.53
21
72.3
0
LINE
8
CUT
10
11.53
20
72.3
11
12.22
21
72.67
0
LINE
8
CUT
10
12.22
20
72.67
11
12.83
21
73.17
0
LINE
8
CUT
10
12.83
20
73.17
11
13.33
21
73.78
0
LINE
8
CUT
10
13.33
20
73.78
11
13.7
21
74.47
0
LINE
8
CUT
10
13.7
20
74.47
11
13.92
21
75.22
0
LINE
8
CUT
10
13.92
20
75.22
11
14
21
76
0
LINE
8
CUT
10
14
20
76
11
14
21
84
0
LINE
8
CUT
10
14
20
84
11
13.92
21
84.78
0
LINE
8
CUT
10
13.92
20
84.78
11
13.7
21
85.53
0
LINE
8
CUT
10
13.7
20
85.53
11
13.33
21
86.22
0
LINE
8
CUT
10
13.33
20
86.22
11
12.83
21
86.83
0
LINE
8
CUT
10
12.83
20
86.83
11
12.22
21
87.33
0
LINE
8
CUT
10
12.22
20
87.33
11
11.53
21
87.7
0
LINE
8
CUT
10
11.53
20
87.7
11
10.78
21
87.92
0
LINE
8
CUT
10
10.78
20
87.92
11
10
21
88
0
LINE
8
CUT
10
10
20
88
11
10
21
88
0
LINE
8
CUT
10
10
20
88
11
9.22
21
87.92
0
LINE
8
CUT
10
9.22
20
87.92
11
8.47
21
87.7
0
LINE
8
CUT
10
8.47
20
87.7
11
7.78
21
87.33
0
LINE
8
CUT
10
7.78
20
87.33
11
7.17
21
86.83
0
LINE
8
CUT
10
7.17
20
86.83
11
6.67
21
86.22
0
LINE
8
CUT
10
6.67
20
86.22
11
6.3
21
85.53
0
LINE
8
CUT
10
6.3
20
85.53
11
6.08
21
84.78
0
LINE
8
CUT
10
6.08
20
84.78
11
6
21
84
0
LINE
8
CUT
10
6
20
84
11
6
21
76
0
LINE
8
CUT
10
206
20
76
11
206.08
21
75.22
0
LINE
8
CUT
10
206.08
20
75.22
11
206.3
21
74.47
0
LINE
8
CUT
10
206.3
20
74.47
11
206.67
21
73.78
0
LINE
8
CUT
10
206.67
20
73.78
11
207.17
21
73.17
0
LINE
8
CUT
10
207.17
20
73.17
11
207.78
21
72.67
0
LINE
8
CUT
10
207.78
20
72.67
11
208.47
21
72.3
0
LINE
8
CUT
10
208.47
20
72.3
11
209.22
21
72.08
0
LINE
8
CUT
10
209.22
20
72.08
11
210
21
72
0
LINE
8
CUT
10
210
20
72
11
210
21
72
0
LINE
8
CUT
10
210
20
72
11
210.78
21
72.08
0
LINE
8
CUT
10
210.78
20
72.08
11
211.53
21
72.3
0
LINE
8
CUT
10
211.53
20
72.3
11
212.22
21
72.67
0
LINE
8
CUT
10
212.22
20
72.67
11
212.83
21
73.17
0
LINE
8
CUT
10
212.83
20
73.17
11
213.33
21
73.78
0
LINE
8
CUT
10
213.33
20
73.78
11
213.7
21
74.47
0
LINE
8
CUT
10
213.7
20
74.47
11
213.92
21
75.22
0
LINE
8
CUT
10
213.92
20
75.22
11
214
21
76
0
LINE
8
CUT
10
214
20
76
11
214
21
84
0
LINE
8
CUT
10
214
20
84
11
213.92
21
84.78
0
LINE
8
CUT
10
213.92
20
84.78
11
213.7
21
85.53
0
LINE
8
CUT
10
213.7
20
85.53
11
213.33
21
86.22
0
LINE
8
CUT
10
213.33
20
86.22
11
212.83
21
86.83
0
LINE
8
CUT
10
212.83
20
86.83
11
212.22
21
87.33
0
LINE
8
CUT
10
212.22
20
87.33
11
211.53
21
87.7
0
LINE
8
CUT
10
211.53
20
87.7
11
210.78
21
87.92
0
LINE
8
CUT
10
210.78
20
87.92
11
210
21
88
0
LINE
8
CUT
10
210
20
88
11
210
21
88
0
LINE
8
CUT
10
210
20
88
11
209.22
21
87.92
0
LINE
8
CUT
10
209.22
20
87.92
11
208.47
21
87.7
0
LINE
8
CUT
10
208.47
20
87.7
11
207.78
21
87.33
0
LINE
8
CUT
10
207.78
20
87.33
11
207.17
21
86.83
0
LINE
8
CUT
10
207.17
20
86.83
11
206.67
21
86.22
0
LINE
8
CUT
10
206.67
20
86.22
11
206.3
21
85.53
0
LINE
8
CUT
10
206.3
20
85.53
11
206.08
21
84.78
0
LINE
8
CUT
10
206.08
20
84.78
11
206
21
84
0
LINE
8
CUT
10
206
20
84
11
206
21
76
0
CIRCLE
8
CUT
10
35
20
30
40
2.25
0
CIRCLE
8
CUT
10
90
20
30
40
2.25
0
CIRCLE
8
CUT
10
145
20
30
40
2.25
0
CIRCLE
8
CUT
10
35
20
110
40
2.25
0
CIRCLE
8
CUT
10
90
20
110
40
2.25
0
CIRCLE
8
CUT
10
145
20
110
40
2.25
0
CIRCLE
8
CUT
10
30
20
10
40
2.25
0
CIRCLE
8
CUT
10
110
20
10
40
2.25
0
CIRCLE
8
CUT
10
190
20
10
40
2.25
0
CIRCLE
8
CUT
10
30
20
150
40
2.25
0
CIRCLE
8
CUT
10
110
20
150
40
2.25
0
CIRCLE
8
CUT
10
190
20
150
40
2.25
0
LINE
8
BEND
10
20
20
20
11
200
21
20
0
LINE
8
BEND
10
20
20
140
11
200
21
140
0
LINE
8
BEND
10
20
20
20
11
20
21
140
0
LINE
8
BEND
10
200
20
20
11
200
21
140
0
ENDSEC
0
EOF
