0
SECTION
2
HEADER
9
$INSUNITS
70
4
0
ENDSEC
0
SECTION
2
ENTITIES
0
LINE
8
CHASSIS
10
360
20
-432.5
11
3500
21
-432.5
0
LINE
8
CHASSIS
10
3500
20
-432.5
11
3500
21
-347.5
0
LINE
8
CHASSIS
10
3500
20
-347.5
11
360
21
-347.5
0
LINE
8
CHASSIS
10
360
20
-347.5
11
360
21
-432.5
0
LINE
8
CHASSIS
10
360
20
347.5
11
3500
21
347.5
0
LINE
8
CHASSIS
10
3500
20
347.5
11
3500
21
432.5
0
LINE
8
CHASSIS
10
3500
20
432.5
11
360
21
432.5
0
LINE
8
CHASSIS
10
360
20
432.5
11
360
21
347.5
0
LINE
8
CHASSIS
10
450
20
-440
11
535
21
-440
0
LINE
8
CHASSIS
10
535
20
-440
11
535
21
440
0
LINE
8
CHASSIS
10
535
20
440
11
450
21
440
0
LINE
8
CHASSIS
10
450
20
440
11
450
21
-440
0
LINE
8
CHASSIS
10
980
20
-440
11
1065
21
-440
0
LINE
8
CHASSIS
10
1065
20
-440
11
1065
21
440
0
LINE
8
CHASSIS
10
1065
20
440
11
980
21
440
0
LINE
8
CHASSIS
10
980
20
440
11
980
21
-440
0
LINE
8
CHASSIS
10
1660
20
-440
11
1745
21
-440
0
LINE
8
CHASSIS
10
1745
20
-440
11
1745
21
440
0
LINE
8
CHASSIS
10
1745
20
440
11
1660
21
440
0
LINE
8
CHASSIS
10
1660
20
440
11
1660
21
-440
0
LINE
8
CHASSIS
10
2420
20
-440
11
2505
21
-440
0
LINE
8
CHASSIS
10
2505
20
-440
11
2505
21
440
0
LINE
8
CHASSIS
10
2505
20
440
11
2420
21
440
0
LINE
8
CHASSIS
10
2420
20
440
11
2420
21
-440
0
LINE
8
CHASSIS
10
3230
20
-440
11
3315
21
-440
0
LINE
8
CHASSIS
10
3315
20
-440
11
3315
21
440
0
LINE
8
CHASSIS
10
3315
20
440
11
3230
21
440
0
LINE
8
CHASSIS
10
3230
20
440
11
3230
21
-440
0
LINE
8
CHASSIS
10
20
20
-810
11
185
21
-810
0
LINE
8
CHASSIS
10
185
20
-810
11
185
21
810
0
LINE
8
CHASSIS
10
185
20
810
11
20
21
810
0
LINE
8
CHASSIS
10
20
20
810
11
20
21
-810
0
LINE
8
CHASSIS
10
3665
20
-775
11
3810
21
-775
0
LINE
8
CHASSIS
10
3810
20
-775
11
3810
21
775
0
LINE
8
CHASSIS
10
3810
20
775
11
3665
21
775
0
LINE
8
CHASSIS
10
3665
20
775
11
3665
21
-775
0
LINE
8
CHASSIS
10
61
20
-487.5
11
89
21
-487.5
0
LINE
8
CHASSIS
10
89
20
-487.5
11
89
21
-372.5
0
LINE
8
CHASSIS
10
89
20
-372.5
11
61
21
-372.5
0
LINE
8
CHASSIS
10
61
20
-372.5
11
61
21
-487.5
0
LINE
8
CHASSIS
10
61
20
372.5
11
89
21
372.5
0
LINE
8
CHASSIS
10
89
20
372.5
11
89
21
487.5
0
LINE
8
CHASSIS
10
89
20
487.5
11
61
21
487.5
0
LINE
8
CHASSIS
10
61
20
487.5
11
61
21
372.5
0
LINE
8
RUNNING_GEAR
10
735
20
-780
11
825
21
-780
0
LINE
8
RUNNING_GEAR
10
825
20
-780
11
825
21
780
0
LINE
8
RUNNING_GEAR
10
825
20
780
11
735
21
780
0
LINE
8
RUNNING_GEAR
10
735
20
780
11
735
21
-780
0
LINE
8
RUNNING_GEAR
10
3020
20
-780
11
3110
21
-780
0
LINE
8
RUNNING_GEAR
10
3110
20
-780
11
3110
21
780
0
LINE
8
RUNNING_GEAR
10
3110
20
780
11
3020
21
780
0
LINE
8
RUNNING_GEAR
10
3020
20
780
11
3020
21
-780
0
LINE
8
RUNNING_GEAR
10
215
20
-462.5
11
1265
21
-462.5
0
LINE
8
RUNNING_GEAR
10
1265
20
-462.5
11
1265
21
-397.5
0
LINE
8
RUNNING_GEAR
10
1265
20
-397.5
11
215
21
-397.5
0
LINE
8
RUNNING_GEAR
10
215
20
-397.5
11
215
21
-462.5
0
LINE
8
RUNNING_GEAR
10
215
20
397.5
11
1265
21
397.5
0
LINE
8
RUNNING_GEAR
10
1265
20
397.5
11
1265
21
462.5
0
LINE
8
RUNNING_GEAR
10
1265
20
462.5
11
215
21
462.5
0
LINE
8
RUNNING_GEAR
10
215
20
462.5
11
215
21
397.5
0
LINE
8
RUNNING_GEAR
10
2500
20
-462.5
11
3550
21
-462.5
0
LINE
8
RUNNING_GEAR
10
3550
20
-462.5
11
3550
21
-397.5
0
LINE
8
RUNNING_GEAR
10
3550
20
-397.5
11
2500
21
-397.5
0
LINE
8
RUNNING_GEAR
10
2500
20
-397.5
11
2500
21
-462.5
0
LINE
8
RUNNING_GEAR
10
2500
20
397.5
11
3550
21
397.5
0
LINE
8
RUNNING_GEAR
10
3550
20
397.5
11
3550
21
462.5
0
LINE
8
RUNNING_GEAR
10
3550
20
462.5
11
2500
21
462.5
0
LINE
8
RUNNING_GEAR
10
2500
20
462.5
11
2500
21
397.5
0
LINE
8
RUNNING_GEAR
10
340
20
-830
11
1130
21
-830
0
LINE
8
RUNNING_GEAR
10
1130
20
-830
11
1130
21
-580
0
LINE
8
RUNNING_GEAR
10
1130
20
-580
11
340
21
-580
0
LINE
8
RUNNING_GEAR
10
340
20
-580
11
340
21
-830
0
LINE
8
RUNNING_GEAR
10
340
20
580
11
1130
21
580
0
LINE
8
RUNNING_GEAR
10
1130
20
580
11
1130
21
830
0
LINE
8
RUNNING_GEAR
10
1130
20
830
11
340
21
830
0
LINE
8
RUNNING_GEAR
10
340
20
830
11
340
21
580
0
LINE
8
RUNNING_GEAR
10
2625
20
-830
11
3415
21
-830
0
LINE
8
RUNNING_GEAR
10
3415
20
-830
11
3415
21
-580
0
LINE
8
RUNNING_GEAR
10
3415
20
-580
11
2625
21
-580
0
LINE
8
RUNNING_GEAR
10
2625
20
-580
11
2625
21
-830
0
LINE
8
RUNNING_GEAR
10
2625
20
580
11
3415
21
580
0
LINE
8
RUNNING_GEAR
10
3415
20
580
11
3415
21
830
0
LINE
8
RUNNING_GEAR
10
3415
20
830
11
2625
21
830
0
LINE
8
RUNNING_GEAR
10
2625
20
830
11
2625
21
580
0
LINE
8
RUNNING_GEAR
10
891
20
-549
11
949
21
-549
0
LINE
8
RUNNING_GEAR
10
949
20
-549
11
949
21
-491
0
LINE
8
RUNNING_GEAR
10
949
20
-491
11
891
21
-491
0
LINE
8
RUNNING_GEAR
10
891
20
-491
11
891
21
-549
0
LINE
8
RUNNING_GEAR
10
891
20
491
11
949
21
491
0
LINE
8
RUNNING_GEAR
10
949
20
491
11
949
21
549
0
LINE
8
RUNNING_GEAR
10
949
20
549
11
891
21
549
0
LINE
8
RUNNING_GEAR
10
891
20
549
11
891
21
491
0
LINE
8
RUNNING_GEAR
10
625
20
-880
11
845
21
-880
0
LINE
8
RUNNING_GEAR
10
845
20
-880
11
845
21
-800
0
LINE
8
RUNNING_GEAR
10
845
20
-800
11
625
21
-800
0
LINE
8
RUNNING_GEAR
10
625
20
-800
11
625
21
-880
0
LINE
8
RUNNING_GEAR
10
625
20
800
11
845
21
800
0
LINE
8
RUNNING_GEAR
10
845
20
800
11
845
21
880
0
LINE
8
RUNNING_GEAR
10
845
20
880
11
625
21
880
0
LINE
8
RUNNING_GEAR
10
625
20
880
11
625
21
800
0
LINE
8
RUNNING_GEAR
10
3176
20
-549
11
3234
21
-549
0
LINE
8
RUNNING_GEAR
10
3234
20
-549
11
3234
21
-491
0
LINE
8
RUNNING_GEAR
10
3234
20
-491
11
3176
21
-491
0
LINE
8
RUNNING_GEAR
10
3176
20
-491
11
3176
21
-549
0
LINE
8
RUNNING_GEAR
10
3176
20
491
11
3234
21
491
0
LINE
8
RUNNING_GEAR
10
3234
20
491
11
3234
21
549
0
LINE
8
RUNNING_GEAR
10
3234
20
549
11
3176
21
549
0
LINE
8
RUNNING_GEAR
10
3176
20
549
11
3176
21
491
0
LINE
8
RUNNING_GEAR
10
2910
20
-880
11
3130
21
-880
0
LINE
8
RUNNING_GEAR
10
3130
20
-880
11
3130
21
-800
0
LINE
8
RUNNING_GEAR
10
3130
20
-800
11
2910
21
-800
0
LINE
8
RUNNING_GEAR
10
2910
20
-800
11
2910
21
-880
0
LINE
8
RUNNING_GEAR
10
2910
20
800
11
3130
21
800
0
LINE
8
RUNNING_GEAR
10
3130
20
800
11
3130
21
880
0
LINE
8
RUNNING_GEAR
10
3130
20
880
11
2910
21
880
0
LINE
8
RUNNING_GEAR
10
2910
20
880
11
2910
21
800
0
LINE
8
BODY
10
890
20
-665
11
3440
21
-665
0
LINE
8
BODY
10
3440
20
-665
11
3440
21
665
0
LINE
8
BODY
10
3440
20
665
11
890
21
665
0
LINE
8
BODY
10
890
20
665
11
890
21
-665
0
LINE
8
BODY
10
1000
20
-767.5
11
3050
21
-767.5
0
LINE
8
BODY
10
3050
20
-767.5
11
3050
21
-672.5
0
LINE
8
BODY
10
3050
20
-672.5
11
1000
21
-672.5
0
LINE
8
BODY
10
1000
20
-672.5
11
1000
21
-767.5
0
LINE
8
BODY
10
1000
20
672.5
11
3050
21
672.5
0
LINE
8
BODY
10
3050
20
672.5
11
3050
21
767.5
0
LINE
8
BODY
10
3050
20
767.5
11
1000
21
767.5
0
LINE
8
BODY
10
1000
20
767.5
11
1000
21
672.5
0
LINE
8
BODY
10
2140
20
-795
11
3410
21
-795
0
LINE
8
BODY
10
3410
20
-795
11
3410
21
-725
0
LINE
8
BODY
10
3410
20
-725
11
2140
21
-725
0
LINE
8
BODY
10
2140
20
-725
11
2140
21
-795
0
LINE
8
BODY
10
2140
20
725
11
3410
21
725
0
LINE
8
BODY
10
3410
20
725
11
3410
21
795
0
LINE
8
BODY
10
3410
20
795
11
2140
21
795
0
LINE
8
BODY
10
2140
20
795
11
2140
21
725
0
LINE
8
BODY
10
3400
20
-715
11
3470
21
-715
0
LINE
8
BODY
10
3470
20
-715
11
3470
21
715
0
LINE
8
BODY
10
3470
20
715
11
3400
21
715
0
LINE
8
BODY
10
3400
20
715
11
3400
21
-715
0
LINE
8
BODY
10
1135
20
-710
11
1215
21
-710
0
LINE
8
BODY
10
1215
20
-710
11
1215
21
710
0
LINE
8
BODY
10
1215
20
710
11
1135
21
710
0
LINE
8
BODY
10
1135
20
710
11
1135
21
-710
0
LINE
8
BODY
10
1085
20
-730
11
1275
21
-730
0
LINE
8
BODY
10
1275
20
-730
11
1275
21
730
0
LINE
8
BODY
10
1275
20
730
11
1085
21
730
0
LINE
8
BODY
10
1085
20
730
11
1085
21
-730
0
LINE
8
BODY
10
170
20
-705
11
250
21
-705
0
LINE
8
BODY
10
250
20
-705
11
250
21
705
0
LINE
8
BODY
10
250
20
705
11
170
21
705
0
LINE
8
BODY
10
170
20
705
11
170
21
-705
0
LINE
8
FRONT_DETAIL
10
125
20
-560
11
160
21
-560
0
LINE
8
FRONT_DETAIL
10
160
20
-560
11
160
21
560
0
LINE
8
FRONT_DETAIL
10
160
20
560
11
125
21
560
0
LINE
8
FRONT_DETAIL
10
125
20
560
11
125
21
-560
0
LINE
8
FRONT_DETAIL
10
105
20
-320
11
135
21
-320
0
LINE
8
FRONT_DETAIL
10
135
20
-320
11
135
21
320
0
LINE
8
FRONT_DETAIL
10
135
20
320
11
105
21
320
0
LINE
8
FRONT_DETAIL
10
105
20
320
11
105
21
-320
0
LINE
8
FRONT_DETAIL
10
73
20
-557.5
11
111
21
-557.5
0
LINE
8
FRONT_DETAIL
10
111
20
-557.5
11
111
21
-332.5
0
LINE
8
FRONT_DETAIL
10
111
20
-332.5
11
73
21
-332.5
0
LINE
8
FRONT_DETAIL
10
73
20
-332.5
11
73
21
-557.5
0
LINE
8
FRONT_DETAIL
10
73
20
332.5
11
111
21
332.5
0
LINE
8
FRONT_DETAIL
10
111
20
332.5
11
111
21
557.5
0
LINE
8
FRONT_DETAIL
10
111
20
557.5
11
73
21
557.5
0
LINE
8
FRONT_DETAIL
10
73
20
557.5
11
73
21
332.5
0
LINE
8
FRONT_DETAIL
10
69
20
-772.5
11
99
21
-772.5
0
LINE
8
FRONT_DETAIL
10
99
20
-772.5
11
99
21
-667.5
0
LINE
8
FRONT_DETAIL
10
99
20
-667.5
11
69
21
-667.5
0
LINE
8
FRONT_DETAIL
10
69
20
-667.5
11
69
21
-772.5
0
LINE
8
FRONT_DETAIL
10
69
20
667.5
11
99
21
667.5
0
LINE
8
FRONT_DETAIL
10
99
20
667.5
11
99
21
772.5
0
LINE
8
FRONT_DETAIL
10
99
20
772.5
11
69
21
772.5
0
LINE
8
FRONT_DETAIL
10
69
20
772.5
11
69
21
667.5
0
LINE
8
FRONT_DETAIL
10
7
20
-442.5
11
43
21
-442.5
0
LINE
8
FRONT_DETAIL
10
43
20
-442.5
11
43
21
-277.5
0
LINE
8
FRONT_DETAIL
10
43
20
-277.5
11
7
21
-277.5
0
LINE
8
FRONT_DETAIL
10
7
20
-277.5
11
7
21
-442.5
0
LINE
8
FRONT_DETAIL
10
7
20
277.5
11
43
21
277.5
0
LINE
8
FRONT_DETAIL
10
43
20
277.5
11
43
21
442.5
0
LINE
8
FRONT_DETAIL
10
43
20
442.5
11
7
21
442.5
0
LINE
8
FRONT_DETAIL
10
7
20
442.5
11
7
21
277.5
0
LINE
8
BODY
10
230
20
-695
11
1150
21
-695
0
LINE
8
BODY
10
1150
20
-695
11
1150
21
695
0
LINE
8
BODY
10
1150
20
695
11
230
21
695
0
LINE
8
BODY
10
230
20
695
11
230
21
-695
0
LINE
8
BODY
10
420
20
-695
11
1600
21
-695
0
LINE
8
BODY
10
1600
20
-695
11
1600
21
695
0
LINE
8
BODY
10
1600
20
695
11
420
21
695
0
LINE
8
BODY
10
420
20
695
11
420
21
-695
0
LINE
8
BODY
10
1016
20
-655
11
1044
21
-655
0
LINE
8
BODY
10
1044
20
-655
11
1044
21
-425
0
LINE
8
BODY
10
1044
20
-425
11
1016
21
-425
0
LINE
8
BODY
10
1016
20
-425
11
1016
21
-655
0
LINE
8
BODY
10
1016
20
425
11
1044
21
425
0
LINE
8
BODY
10
1044
20
425
11
1044
21
655
0
LINE
8
BODY
10
1044
20
655
11
1016
21
655
0
LINE
8
BODY
10
1016
20
655
11
1016
21
425
0
LINE
8
BODY
10
270
20
-855
11
1130
21
-855
0
LINE
8
BODY
10
1130
20
-855
11
1130
21
-585
0
LINE
8
BODY
10
1130
20
-585
11
270
21
-585
0
LINE
8
BODY
10
270
20
-585
11
270
21
-855
0
LINE
8
BODY
10
270
20
585
11
1130
21
585
0
LINE
8
BODY
10
1130
20
585
11
1130
21
855
0
LINE
8
BODY
10
1130
20
855
11
270
21
855
0
LINE
8
BODY
10
270
20
855
11
270
21
585
0
LINE
8
BODY
10
290
20
-555
11
1090
21
-555
0
LINE
8
BODY
10
1090
20
-555
11
1090
21
-485
0
LINE
8
BODY
10
1090
20
-485
11
290
21
-485
0
LINE
8
BODY
10
290
20
-485
11
290
21
-555
0
LINE
8
BODY
10
290
20
485
11
1090
21
485
0
LINE
8
BODY
10
1090
20
485
11
1090
21
555
0
LINE
8
BODY
10
1090
20
555
11
290
21
555
0
LINE
8
BODY
10
290
20
555
11
290
21
485
0
LINE
8
BODY
10
1155
20
-740
11
1235
21
-740
0
LINE
8
BODY
10
1235
20
-740
11
1235
21
740
0
LINE
8
BODY
10
1235
20
740
11
1155
21
740
0
LINE
8
BODY
10
1155
20
740
11
1155
21
-740
0
LINE
8
BODY
10
1160
20
-650
11
1195
21
-650
0
LINE
8
BODY
10
1195
20
-650
11
1195
21
650
0
LINE
8
BODY
10
1195
20
650
11
1160
21
650
0
LINE
8
BODY
10
1160
20
650
11
1160
21
-650
0
LINE
8
BODY
10
1098
20
-465
11
1122
21
-465
0
LINE
8
BODY
10
1122
20
-465
11
1122
21
-35
0
LINE
8
BODY
10
1122
20
-35
11
1098
21
-35
0
LINE
8
BODY
10
1098
20
-35
11
1098
21
-465
0
LINE
8
BODY
10
1098
20
35
11
1122
21
35
0
LINE
8
BODY
10
1122
20
35
11
1122
21
465
0
LINE
8
BODY
10
1122
20
465
11
1098
21
465
0
LINE
8
BODY
10
1098
20
465
11
1098
21
35
0
LINE
8
SOFT_TOP
10
1210
20
-770
11
3500
21
-770
0
LINE
8
SOFT_TOP
10
3500
20
-770
11
3500
21
770
0
LINE
8
SOFT_TOP
10
3500
20
770
11
1210
21
770
0
LINE
8
SOFT_TOP
10
1210
20
770
11
1210
21
-770
0
LINE
8
SOFT_TOP
10
1240
20
-817.5
11
3440
21
-817.5
0
LINE
8
SOFT_TOP
10
3440
20
-817.5
11
3440
21
-762.5
0
LINE
8
SOFT_TOP
10
3440
20
-762.5
11
1240
21
-762.5
0
LINE
8
SOFT_TOP
10
1240
20
-762.5
11
1240
21
-817.5
0
LINE
8
SOFT_TOP
10
1240
20
762.5
11
3440
21
762.5
0
LINE
8
SOFT_TOP
10
3440
20
762.5
11
3440
21
817.5
0
LINE
8
SOFT_TOP
10
3440
20
817.5
11
1240
21
817.5
0
LINE
8
SOFT_TOP
10
1240
20
817.5
11
1240
21
762.5
0
LINE
8
SOFT_TOP
10
1370
20
-832
11
1870
21
-832
0
LINE
8
SOFT_TOP
10
1870
20
-832
11
1870
21
-814
0
LINE
8
SOFT_TOP
10
1870
20
-814
11
1370
21
-814
0
LINE
8
SOFT_TOP
10
1370
20
-814
11
1370
21
-832
0
LINE
8
SOFT_TOP
10
2120
20
-832
11
2730
21
-832
0
LINE
8
SOFT_TOP
10
2730
20
-832
11
2730
21
-814
0
LINE
8
SOFT_TOP
10
2730
20
-814
11
2120
21
-814
0
LINE
8
SOFT_TOP
10
2120
20
-814
11
2120
21
-832
0
LINE
8
SOFT_TOP
10
1370
20
814
11
1870
21
814
0
LINE
8
SOFT_TOP
10
1870
20
814
11
1870
21
832
0
LINE
8
SOFT_TOP
10
1870
20
832
11
1370
21
832
0
LINE
8
SOFT_TOP
10
1370
20
832
11
1370
21
814
0
LINE
8
SOFT_TOP
10
2120
20
814
11
2730
21
814
0
LINE
8
SOFT_TOP
10
2730
20
814
11
2730
21
832
0
LINE
8
SOFT_TOP
10
2730
20
832
11
2120
21
832
0
LINE
8
SOFT_TOP
10
2120
20
832
11
2120
21
814
0
LINE
8
SOFT_TOP
10
3440
20
-770
11
3495
21
-770
0
LINE
8
SOFT_TOP
10
3495
20
-770
11
3495
21
770
0
LINE
8
SOFT_TOP
10
3495
20
770
11
3440
21
770
0
LINE
8
SOFT_TOP
10
3440
20
770
11
3440
21
-770
0
LINE
8
SOFT_TOP
10
1290
20
-755
11
1335
21
-755
0
LINE
8
SOFT_TOP
10
1335
20
-755
11
1335
21
755
0
LINE
8
SOFT_TOP
10
1335
20
755
11
1290
21
755
0
LINE
8
SOFT_TOP
10
1290
20
755
11
1290
21
-755
0
LINE
8
SOFT_TOP
10
1960
20
-755
11
2005
21
-755
0
LINE
8
SOFT_TOP
10
2005
20
-755
11
2005
21
755
0
LINE
8
SOFT_TOP
10
2005
20
755
11
1960
21
755
0
LINE
8
SOFT_TOP
10
1960
20
755
11
1960
21
-755
0
LINE
8
SOFT_TOP
10
2640
20
-755
11
2685
21
-755
0
LINE
8
SOFT_TOP
10
2685
20
-755
11
2685
21
755
0
LINE
8
SOFT_TOP
10
2685
20
755
11
2640
21
755
0
LINE
8
SOFT_TOP
10
2640
20
755
11
2640
21
-755
0
LINE
8
SOFT_TOP
10
1460
20
-848
11
1495
21
-848
0
LINE
8
SOFT_TOP
10
1495
20
-848
11
1495
21
-822
0
LINE
8
SOFT_TOP
10
1495
20
-822
11
1460
21
-822
0
LINE
8
SOFT_TOP
10
1460
20
-822
11
1460
21
-848
0
LINE
8
SOFT_TOP
10
1460
20
822
11
1495
21
822
0
LINE
8
SOFT_TOP
10
1495
20
822
11
1495
21
848
0
LINE
8
SOFT_TOP
10
1495
20
848
11
1460
21
848
0
LINE
8
SOFT_TOP
10
1460
20
848
11
1460
21
822
0
LINE
8
SOFT_TOP
10
1740
20
-848
11
1775
21
-848
0
LINE
8
SOFT_TOP
10
1775
20
-848
11
1775
21
-822
0
LINE
8
SOFT_TOP
10
1775
20
-822
11
1740
21
-822
0
LINE
8
SOFT_TOP
10
1740
20
-822
11
1740
21
-848
0
LINE
8
SOFT_TOP
10
1740
20
822
11
1775
21
822
0
LINE
8
SOFT_TOP
10
1775
20
822
11
1775
21
848
0
LINE
8
SOFT_TOP
10
1775
20
848
11
1740
21
848
0
LINE
8
SOFT_TOP
10
1740
20
848
11
1740
21
822
0
LINE
8
SOFT_TOP
10
2020
20
-848
11
2055
21
-848
0
LINE
8
SOFT_TOP
10
2055
20
-848
11
2055
21
-822
0
LINE
8
SOFT_TOP
10
2055
20
-822
11
2020
21
-822
0
LINE
8
SOFT_TOP
10
2020
20
-822
11
2020
21
-848
0
LINE
8
SOFT_TOP
10
2020
20
822
11
2055
21
822
0
LINE
8
SOFT_TOP
10
2055
20
822
11
2055
21
848
0
LINE
8
SOFT_TOP
10
2055
20
848
11
2020
21
848
0
LINE
8
SOFT_TOP
10
2020
20
848
11
2020
21
822
0
LINE
8
SOFT_TOP
10
2300
20
-848
11
2335
21
-848
0
LINE
8
SOFT_TOP
10
2335
20
-848
11
2335
21
-822
0
LINE
8
SOFT_TOP
10
2335
20
-822
11
2300
21
-822
0
LINE
8
SOFT_TOP
10
2300
20
-822
11
2300
21
-848
0
LINE
8
SOFT_TOP
10
2300
20
822
11
2335
21
822
0
LINE
8
SOFT_TOP
10
2335
20
822
11
2335
21
848
0
LINE
8
SOFT_TOP
10
2335
20
848
11
2300
21
848
0
LINE
8
SOFT_TOP
10
2300
20
848
11
2300
21
822
0
LINE
8
SOFT_TOP
10
2580
20
-848
11
2615
21
-848
0
LINE
8
SOFT_TOP
10
2615
20
-848
11
2615
21
-822
0
LINE
8
SOFT_TOP
10
2615
20
-822
11
2580
21
-822
0
LINE
8
SOFT_TOP
10
2580
20
-822
11
2580
21
-848
0
LINE
8
SOFT_TOP
10
2580
20
822
11
2615
21
822
0
LINE
8
SOFT_TOP
10
2615
20
822
11
2615
21
848
0
LINE
8
SOFT_TOP
10
2615
20
848
11
2580
21
848
0
LINE
8
SOFT_TOP
10
2580
20
848
11
2580
21
822
0
LINE
8
SOFT_TOP
10
2860
20
-848
11
2895
21
-848
0
LINE
8
SOFT_TOP
10
2895
20
-848
11
2895
21
-822
0
LINE
8
SOFT_TOP
10
2895
20
-822
11
2860
21
-822
0
LINE
8
SOFT_TOP
10
2860
20
-822
11
2860
21
-848
0
LINE
8
SOFT_TOP
10
2860
20
822
11
2895
21
822
0
LINE
8
SOFT_TOP
10
2895
20
822
11
2895
21
848
0
LINE
8
SOFT_TOP
10
2895
20
848
11
2860
21
848
0
LINE
8
SOFT_TOP
10
2860
20
848
11
2860
21
822
0
LINE
8
SOFT_TOP
10
3140
20
-848
11
3175
21
-848
0
LINE
8
SOFT_TOP
10
3175
20
-848
11
3175
21
-822
0
LINE
8
SOFT_TOP
10
3175
20
-822
11
3140
21
-822
0
LINE
8
SOFT_TOP
10
3140
20
-822
11
3140
21
-848
0
LINE
8
SOFT_TOP
10
3140
20
822
11
3175
21
822
0
LINE
8
SOFT_TOP
10
3175
20
822
11
3175
21
848
0
LINE
8
SOFT_TOP
10
3175
20
848
11
3140
21
848
0
LINE
8
SOFT_TOP
10
3140
20
848
11
3140
21
822
0
LINE
8
BODY
10
1180
20
-945
11
1980
21
-945
0
LINE
8
BODY
10
1980
20
-945
11
1980
21
-875
0
LINE
8
BODY
10
1980
20
-875
11
1180
21
-875
0
LINE
8
BODY
10
1180
20
-875
11
1180
21
-945
0
LINE
8
BODY
10
1180
20
725
11
1980
21
725
0
LINE
8
BODY
10
1980
20
725
11
1980
21
795
0
LINE
8
BODY
10
1980
20
795
11
1180
21
795
0
LINE
8
BODY
10
1180
20
795
11
1180
21
725
0
LINE
8
BODY
10
1280
20
-959
11
1800
21
-959
0
LINE
8
BODY
10
1800
20
-959
11
1800
21
-937
0
LINE
8
BODY
10
1800
20
-937
11
1280
21
-937
0
LINE
8
BODY
10
1280
20
-937
11
1280
21
-959
0
LINE
8
BODY
10
1280
20
787
11
1800
21
787
0
LINE
8
BODY
10
1800
20
787
11
1800
21
809
0
LINE
8
BODY
10
1800
20
809
11
1280
21
809
0
LINE
8
BODY
10
1280
20
809
11
1280
21
787
0
LINE
8
BODY
10
1116
20
-974
11
1154
21
-974
0
LINE
8
BODY
10
1154
20
-974
11
1154
21
-936
0
LINE
8
BODY
10
1154
20
-936
11
1116
21
-936
0
LINE
8
BODY
10
1116
20
-936
11
1116
21
-974
0
LINE
8
BODY
10
1116
20
-974
11
1154
21
-974
0
LINE
8
BODY
10
1154
20
-974
11
1154
21
-936
0
LINE
8
BODY
10
1154
20
-936
11
1116
21
-936
0
LINE
8
BODY
10
1116
20
-936
11
1116
21
-974
0
LINE
8
BODY
10
1116
20
786
11
1154
21
786
0
LINE
8
BODY
10
1154
20
786
11
1154
21
824
0
LINE
8
BODY
10
1154
20
824
11
1116
21
824
0
LINE
8
BODY
10
1116
20
824
11
1116
21
786
0
LINE
8
BODY
10
1116
20
786
11
1154
21
786
0
LINE
8
BODY
10
1154
20
786
11
1154
21
824
0
LINE
8
BODY
10
1154
20
824
11
1116
21
824
0
LINE
8
BODY
10
1116
20
824
11
1116
21
786
0
LINE
8
BODY
10
1575
20
-970
11
1735
21
-970
0
LINE
8
BODY
10
1735
20
-970
11
1735
21
-940
0
LINE
8
BODY
10
1735
20
-940
11
1575
21
-940
0
LINE
8
BODY
10
1575
20
-940
11
1575
21
-970
0
LINE
8
BODY
10
1575
20
790
11
1735
21
790
0
LINE
8
BODY
10
1735
20
790
11
1735
21
820
0
LINE
8
BODY
10
1735
20
820
11
1575
21
820
0
LINE
8
BODY
10
1575
20
820
11
1575
21
790
0
LINE
8
ENGINE_BAY
10
460
20
-210
11
980
21
-210
0
LINE
8
ENGINE_BAY
10
980
20
-210
11
980
21
210
0
LINE
8
ENGINE_BAY
10
980
20
210
11
460
21
210
0
LINE
8
ENGINE_BAY
10
460
20
210
11
460
21
-210
0
LINE
8
ENGINE_BAY
10
510
20
-90
11
970
21
-90
0
LINE
8
ENGINE_BAY
10
970
20
-90
11
970
21
90
0
LINE
8
ENGINE_BAY
10
970
20
90
11
510
21
90
0
LINE
8
ENGINE_BAY
10
510
20
90
11
510
21
-90
0
LINE
8
ENGINE_BAY
10
235
20
-490
11
310
21
-490
0
LINE
8
ENGINE_BAY
10
310
20
-490
11
310
21
490
0
LINE
8
ENGINE_BAY
10
310
20
490
11
235
21
490
0
LINE
8
ENGINE_BAY
10
235
20
490
11
235
21
-490
0
LINE
8
ENGINE_BAY
10
760
20
-340
11
970
21
-340
0
LINE
8
ENGINE_BAY
10
970
20
-340
11
970
21
-130
0
LINE
8
ENGINE_BAY
10
970
20
-130
11
760
21
-130
0
LINE
8
ENGINE_BAY
10
760
20
-130
11
760
21
-340
0
LINE
8
ENGINE_BAY
10
600
20
320
11
930
21
320
0
LINE
8
ENGINE_BAY
10
930
20
320
11
930
21
540
0
LINE
8
ENGINE_BAY
10
930
20
540
11
600
21
540
0
LINE
8
ENGINE_BAY
10
600
20
540
11
600
21
320
0
LINE
8
ENGINE_BAY
10
447
20
-188
11
493
21
-188
0
LINE
8
ENGINE_BAY
10
493
20
-188
11
493
21
-142
0
LINE
8
ENGINE_BAY
10
493
20
-142
11
447
21
-142
0
LINE
8
ENGINE_BAY
10
447
20
-142
11
447
21
-188
0
LINE
8
ENGINE_BAY
10
447
20
-122
11
493
21
-122
0
LINE
8
ENGINE_BAY
10
493
20
-122
11
493
21
-76
0
LINE
8
ENGINE_BAY
10
493
20
-76
11
447
21
-76
0
LINE
8
ENGINE_BAY
10
447
20
-76
11
447
21
-122
0
LINE
8
ENGINE_BAY
10
447
20
-56
11
493
21
-56
0
LINE
8
ENGINE_BAY
10
493
20
-56
11
493
21
-10
0
LINE
8
ENGINE_BAY
10
493
20
-10
11
447
21
-10
0
LINE
8
ENGINE_BAY
10
447
20
-10
11
447
21
-56
0
LINE
8
ENGINE_BAY
10
447
20
10
11
493
21
10
0
LINE
8
ENGINE_BAY
10
493
20
10
11
493
21
56
0
LINE
8
ENGINE_BAY
10
493
20
56
11
447
21
56
0
LINE
8
ENGINE_BAY
10
447
20
56
11
447
21
10
0
LINE
8
ENGINE_BAY
10
447
20
76
11
493
21
76
0
LINE
8
ENGINE_BAY
10
493
20
76
11
493
21
122
0
LINE
8
ENGINE_BAY
10
493
20
122
11
447
21
122
0
LINE
8
ENGINE_BAY
10
447
20
122
11
447
21
76
0
LINE
8
ENGINE_BAY
10
447
20
142
11
493
21
142
0
LINE
8
ENGINE_BAY
10
493
20
142
11
493
21
188
0
LINE
8
ENGINE_BAY
10
493
20
188
11
447
21
188
0
LINE
8
ENGINE_BAY
10
447
20
188
11
447
21
142
0
LINE
8
ENGINE_BAY
10
115
20
-221
11
545
21
-221
0
LINE
8
ENGINE_BAY
10
545
20
-221
11
545
21
-149
0
LINE
8
ENGINE_BAY
10
545
20
-149
11
115
21
-149
0
LINE
8
ENGINE_BAY
10
115
20
-149
11
115
21
-221
0
LINE
8
ENGINE_BAY
10
574
20
214
11
656
21
214
0
LINE
8
ENGINE_BAY
10
656
20
214
11
656
21
296
0
LINE
8
ENGINE_BAY
10
656
20
296
11
574
21
296
0
LINE
8
ENGINE_BAY
10
574
20
296
11
574
21
214
0
LINE
8
INTERIOR
10
1235
20
-660
11
1355
21
-660
0
LINE
8
INTERIOR
10
1355
20
-660
11
1355
21
660
0
LINE
8
INTERIOR
10
1355
20
660
11
1235
21
660
0
LINE
8
INTERIOR
10
1235
20
660
11
1235
21
-660
0
LINE
8
INTERIOR
10
1315
20
-390
11
1835
21
-390
0
LINE
8
INTERIOR
10
1835
20
-390
11
1835
21
-330
0
LINE
8
INTERIOR
10
1835
20
-330
11
1315
21
-330
0
LINE
8
INTERIOR
10
1315
20
-330
11
1315
21
-390
0
LINE
8
INTERIOR
10
1224
20
-610
11
1256
21
-610
0
LINE
8
INTERIOR
10
1256
20
-610
11
1256
21
-230
0
LINE
8
INTERIOR
10
1256
20
-230
11
1224
21
-230
0
LINE
8
INTERIOR
10
1224
20
-230
11
1224
21
-610
0
LINE
8
INTERIOR
10
1202.5
20
-487.5
11
1257.5
21
-487.5
0
LINE
8
INTERIOR
10
1257.5
20
-487.5
11
1257.5
21
-352.5
0
LINE
8
INTERIOR
10
1257.5
20
-352.5
11
1202.5
21
-352.5
0
LINE
8
INTERIOR
10
1202.5
20
-352.5
11
1202.5
21
-487.5
0
LINE
8
INTERIOR
10
1210
20
-596
11
1234
21
-596
0
LINE
8
INTERIOR
10
1234
20
-596
11
1234
21
-524
0
LINE
8
INTERIOR
10
1234
20
-524
11
1210
21
-524
0
LINE
8
INTERIOR
10
1210
20
-524
11
1210
21
-596
0
LINE
8
INTERIOR
10
1210
20
-506
11
1234
21
-506
0
LINE
8
INTERIOR
10
1234
20
-506
11
1234
21
-434
0
LINE
8
INTERIOR
10
1234
20
-434
11
1210
21
-434
0
LINE
8
INTERIOR
10
1210
20
-434
11
1210
21
-506
0
LINE
8
INTERIOR
10
1210
20
-416
11
1234
21
-416
0
LINE
8
INTERIOR
10
1234
20
-416
11
1234
21
-344
0
LINE
8
INTERIOR
10
1234
20
-344
11
1210
21
-344
0
LINE
8
INTERIOR
10
1210
20
-344
11
1210
21
-416
0
LINE
8
INTERIOR
10
1210
20
-326
11
1234
21
-326
0
LINE
8
INTERIOR
10
1234
20
-326
11
1234
21
-254
0
LINE
8
INTERIOR
10
1234
20
-254
11
1210
21
-254
0
LINE
8
INTERIOR
10
1210
20
-254
11
1210
21
-326
0
LINE
8
INTERIOR
10
1562
20
-138
11
1598
21
-138
0
LINE
8
INTERIOR
10
1598
20
-138
11
1598
21
-102
0
LINE
8
INTERIOR
10
1598
20
-102
11
1562
21
-102
0
LINE
8
INTERIOR
10
1562
20
-102
11
1562
21
-138
0
LINE
8
INTERIOR
10
1481
20
-54
11
1519
21
-54
0
LINE
8
INTERIOR
10
1519
20
-54
11
1519
21
-16
0
LINE
8
INTERIOR
10
1519
20
-16
11
1481
21
-16
0
LINE
8
INTERIOR
10
1481
20
-16
11
1481
21
-54
0
LINE
8
INTERIOR
10
1660
20
-515
11
2080
21
-515
0
LINE
8
INTERIOR
10
2080
20
-515
11
2080
21
-105
0
LINE
8
INTERIOR
10
2080
20
-105
11
1660
21
-105
0
LINE
8
INTERIOR
10
1660
20
-105
11
1660
21
-515
0
LINE
8
INTERIOR
10
1850
20
-515
11
1945
21
-515
0
LINE
8
INTERIOR
10
1945
20
-515
11
1945
21
-105
0
LINE
8
INTERIOR
10
1945
20
-105
11
1850
21
-105
0
LINE
8
INTERIOR
10
1850
20
-105
11
1850
21
-515
0
LINE
8
INTERIOR
10
1830
20
-460
11
1980
21
-460
0
LINE
8
INTERIOR
10
1980
20
-460
11
1980
21
-160
0
LINE
8
INTERIOR
10
1980
20
-160
11
1830
21
-160
0
LINE
8
INTERIOR
10
1830
20
-160
11
1830
21
-460
0
LINE
8
INTERIOR
10
1660
20
105
11
2080
21
105
0
LINE
8
INTERIOR
10
2080
20
105
11
2080
21
515
0
LINE
8
INTERIOR
10
2080
20
515
11
1660
21
515
0
LINE
8
INTERIOR
10
1660
20
515
11
1660
21
105
0
LINE
8
INTERIOR
10
1850
20
105
11
1945
21
105
0
LINE
8
INTERIOR
10
1945
20
105
11
1945
21
515
0
LINE
8
INTERIOR
10
1945
20
515
11
1850
21
515
0
LINE
8
INTERIOR
10
1850
20
515
11
1850
21
105
0
LINE
8
INTERIOR
10
1830
20
160
11
1980
21
160
0
LINE
8
INTERIOR
10
1980
20
160
11
1980
21
460
0
LINE
8
INTERIOR
10
1980
20
460
11
1830
21
460
0
LINE
8
INTERIOR
10
1830
20
460
11
1830
21
160
0
LINE
8
INTERIOR
10
2510
20
-540
11
3120
21
-540
0
LINE
8
INTERIOR
10
3120
20
-540
11
3120
21
540
0
LINE
8
INTERIOR
10
3120
20
540
11
2510
21
540
0
LINE
8
INTERIOR
10
2510
20
540
11
2510
21
-540
0
LINE
8
INTERIOR
10
2920
20
-540
11
3025
21
-540
0
LINE
8
INTERIOR
10
3025
20
-540
11
3025
21
540
0
LINE
8
INTERIOR
10
3025
20
540
11
2920
21
540
0
LINE
8
INTERIOR
10
2920
20
540
11
2920
21
-540
0
LINE
8
INTERIOR
10
2905
20
-485
11
3045
21
-485
0
LINE
8
INTERIOR
10
3045
20
-485
11
3045
21
-215
0
LINE
8
INTERIOR
10
3045
20
-215
11
2905
21
-215
0
LINE
8
INTERIOR
10
2905
20
-215
11
2905
21
-485
0
LINE
8
INTERIOR
10
2905
20
215
11
3045
21
215
0
LINE
8
INTERIOR
10
3045
20
215
11
3045
21
485
0
LINE
8
INTERIOR
10
3045
20
485
11
2905
21
485
0
LINE
8
INTERIOR
10
2905
20
485
11
2905
21
215
0
LINE
8
OVERALL
10
0
20
-832.5
11
3840
21
-832.5
0
LINE
8
OVERALL
10
3840
20
-832.5
11
3840
21
832.5
0
LINE
8
OVERALL
10
3840
20
832.5
11
0
21
832.5
0
LINE
8
OVERALL
10
0
20
832.5
11
0
21
-832.5
0
LINE
8
CHASSIS
10
360
20
2930
11
3500
21
2930
0
LINE
8
CHASSIS
10
3500
20
2930
11
3500
21
3050
0
LINE
8
CHASSIS
10
3500
20
3050
11
360
21
3050
0
LINE
8
CHASSIS
10
360
20
3050
11
360
21
2930
0
LINE
8
CHASSIS
10
360
20
2930
11
3500
21
2930
0
LINE
8
CHASSIS
10
3500
20
2930
11
3500
21
3050
0
LINE
8
CHASSIS
10
3500
20
3050
11
360
21
3050
0
LINE
8
CHASSIS
10
360
20
3050
11
360
21
2930
0
LINE
8
CHASSIS
10
450
20
2955
11
535
21
2955
0
LINE
8
CHASSIS
10
535
20
2955
11
535
21
3050
0
LINE
8
CHASSIS
10
535
20
3050
11
450
21
3050
0
LINE
8
CHASSIS
10
450
20
3050
11
450
21
2955
0
LINE
8
CHASSIS
10
980
20
2955
11
1065
21
2955
0
LINE
8
CHASSIS
10
1065
20
2955
11
1065
21
3050
0
LINE
8
CHASSIS
10
1065
20
3050
11
980
21
3050
0
LINE
8
CHASSIS
10
980
20
3050
11
980
21
2955
0
LINE
8
CHASSIS
10
1660
20
2955
11
1745
21
2955
0
LINE
8
CHASSIS
10
1745
20
2955
11
1745
21
3050
0
LINE
8
CHASSIS
10
1745
20
3050
11
1660
21
3050
0
LINE
8
CHASSIS
10
1660
20
3050
11
1660
21
2955
0
LINE
8
CHASSIS
10
2420
20
2955
11
2505
21
2955
0
LINE
8
CHASSIS
10
2505
20
2955
11
2505
21
3050
0
LINE
8
CHASSIS
10
2505
20
3050
11
2420
21
3050
0
LINE
8
CHASSIS
10
2420
20
3050
11
2420
21
2955
0
LINE
8
CHASSIS
10
3230
20
2955
11
3315
21
2955
0
LINE
8
CHASSIS
10
3315
20
2955
11
3315
21
3050
0
LINE
8
CHASSIS
10
3315
20
3050
11
3230
21
3050
0
LINE
8
CHASSIS
10
3230
20
3050
11
3230
21
2955
0
LINE
8
CHASSIS
10
20
20
3025
11
185
21
3025
0
LINE
8
CHASSIS
10
185
20
3025
11
185
21
3145
0
LINE
8
CHASSIS
10
185
20
3145
11
20
21
3145
0
LINE
8
CHASSIS
10
20
20
3145
11
20
21
3025
0
LINE
8
CHASSIS
10
3665
20
3030
11
3810
21
3030
0
LINE
8
CHASSIS
10
3810
20
3030
11
3810
21
3140
0
LINE
8
CHASSIS
10
3810
20
3140
11
3665
21
3140
0
LINE
8
CHASSIS
10
3665
20
3140
11
3665
21
3030
0
LINE
8
CHASSIS
10
61
20
2892.5
11
89
21
2892.5
0
LINE
8
CHASSIS
10
89
20
2892.5
11
89
21
3007.5
0
LINE
8
CHASSIS
10
89
20
3007.5
11
61
21
3007.5
0
LINE
8
CHASSIS
10
61
20
3007.5
11
61
21
2892.5
0
LINE
8
CHASSIS
10
61
20
2892.5
11
89
21
2892.5
0
LINE
8
CHASSIS
10
89
20
2892.5
11
89
21
3007.5
0
LINE
8
CHASSIS
10
89
20
3007.5
11
61
21
3007.5
0
LINE
8
CHASSIS
10
61
20
3007.5
11
61
21
2892.5
0
LINE
8
RUNNING_GEAR
10
735
20
2895
11
825
21
2895
0
LINE
8
RUNNING_GEAR
10
825
20
2895
11
825
21
2985
0
LINE
8
RUNNING_GEAR
10
825
20
2985
11
735
21
2985
0
LINE
8
RUNNING_GEAR
10
735
20
2985
11
735
21
2895
0
LINE
8
RUNNING_GEAR
10
3020
20
2895
11
3110
21
2895
0
LINE
8
RUNNING_GEAR
10
3110
20
2895
11
3110
21
2985
0
LINE
8
RUNNING_GEAR
10
3110
20
2985
11
3020
21
2985
0
LINE
8
RUNNING_GEAR
10
3020
20
2985
11
3020
21
2895
0
LINE
8
RUNNING_GEAR
10
215
20
2835
11
1265
21
2835
0
LINE
8
RUNNING_GEAR
10
1265
20
2835
11
1265
21
2890
0
LINE
8
RUNNING_GEAR
10
1265
20
2890
11
215
21
2890
0
LINE
8
RUNNING_GEAR
10
215
20
2890
11
215
21
2835
0
LINE
8
RUNNING_GEAR
10
215
20
2835
11
1265
21
2835
0
LINE
8
RUNNING_GEAR
10
1265
20
2835
11
1265
21
2890
0
LINE
8
RUNNING_GEAR
10
1265
20
2890
11
215
21
2890
0
LINE
8
RUNNING_GEAR
10
215
20
2890
11
215
21
2835
0
LINE
8
RUNNING_GEAR
10
2500
20
2835
11
3550
21
2835
0
LINE
8
RUNNING_GEAR
10
3550
20
2835
11
3550
21
2890
0
LINE
8
RUNNING_GEAR
10
3550
20
2890
11
2500
21
2890
0
LINE
8
RUNNING_GEAR
10
2500
20
2890
11
2500
21
2835
0
LINE
8
RUNNING_GEAR
10
2500
20
2835
11
3550
21
2835
0
LINE
8
RUNNING_GEAR
10
3550
20
2835
11
3550
21
2890
0
LINE
8
RUNNING_GEAR
10
3550
20
2890
11
2500
21
2890
0
LINE
8
RUNNING_GEAR
10
2500
20
2890
11
2500
21
2835
0
LINE
8
RUNNING_GEAR
10
340
20
2500
11
1130
21
2500
0
LINE
8
RUNNING_GEAR
10
1130
20
2500
11
1130
21
3290
0
LINE
8
RUNNING_GEAR
10
1130
20
3290
11
340
21
3290
0
LINE
8
RUNNING_GEAR
10
340
20
3290
11
340
21
2500
0
LINE
8
RUNNING_GEAR
10
340
20
2500
11
1130
21
2500
0
LINE
8
RUNNING_GEAR
10
1130
20
2500
11
1130
21
3290
0
LINE
8
RUNNING_GEAR
10
1130
20
3290
11
340
21
3290
0
LINE
8
RUNNING_GEAR
10
340
20
3290
11
340
21
2500
0
LINE
8
RUNNING_GEAR
10
2625
20
2500
11
3415
21
2500
0
LINE
8
RUNNING_GEAR
10
3415
20
2500
11
3415
21
3290
0
LINE
8
RUNNING_GEAR
10
3415
20
3290
11
2625
21
3290
0
LINE
8
RUNNING_GEAR
10
2625
20
3290
11
2625
21
2500
0
LINE
8
RUNNING_GEAR
10
2625
20
2500
11
3415
21
2500
0
LINE
8
RUNNING_GEAR
10
3415
20
2500
11
3415
21
3290
0
LINE
8
RUNNING_GEAR
10
3415
20
3290
11
2625
21
3290
0
LINE
8
RUNNING_GEAR
10
2625
20
3290
11
2625
21
2500
0
LINE
8
RUNNING_GEAR
10
891
20
2890
11
949
21
2890
0
LINE
8
RUNNING_GEAR
10
949
20
2890
11
949
21
3350
0
LINE
8
RUNNING_GEAR
10
949
20
3350
11
891
21
3350
0
LINE
8
RUNNING_GEAR
10
891
20
3350
11
891
21
2890
0
LINE
8
RUNNING_GEAR
10
891
20
2890
11
949
21
2890
0
LINE
8
RUNNING_GEAR
10
949
20
2890
11
949
21
3350
0
LINE
8
RUNNING_GEAR
10
949
20
3350
11
891
21
3350
0
LINE
8
RUNNING_GEAR
10
891
20
3350
11
891
21
2890
0
LINE
8
RUNNING_GEAR
10
625
20
2785
11
845
21
2785
0
LINE
8
RUNNING_GEAR
10
845
20
2785
11
845
21
3005
0
LINE
8
RUNNING_GEAR
10
845
20
3005
11
625
21
3005
0
LINE
8
RUNNING_GEAR
10
625
20
3005
11
625
21
2785
0
LINE
8
RUNNING_GEAR
10
625
20
2785
11
845
21
2785
0
LINE
8
RUNNING_GEAR
10
845
20
2785
11
845
21
3005
0
LINE
8
RUNNING_GEAR
10
845
20
3005
11
625
21
3005
0
LINE
8
RUNNING_GEAR
10
625
20
3005
11
625
21
2785
0
LINE
8
RUNNING_GEAR
10
3176
20
2890
11
3234
21
2890
0
LINE
8
RUNNING_GEAR
10
3234
20
2890
11
3234
21
3350
0
LINE
8
RUNNING_GEAR
10
3234
20
3350
11
3176
21
3350
0
LINE
8
RUNNING_GEAR
10
3176
20
3350
11
3176
21
2890
0
LINE
8
RUNNING_GEAR
10
3176
20
2890
11
3234
21
2890
0
LINE
8
RUNNING_GEAR
10
3234
20
2890
11
3234
21
3350
0
LINE
8
RUNNING_GEAR
10
3234
20
3350
11
3176
21
3350
0
LINE
8
RUNNING_GEAR
10
3176
20
3350
11
3176
21
2890
0
LINE
8
RUNNING_GEAR
10
2910
20
2785
11
3130
21
2785
0
LINE
8
RUNNING_GEAR
10
3130
20
2785
11
3130
21
3005
0
LINE
8
RUNNING_GEAR
10
3130
20
3005
11
2910
21
3005
0
LINE
8
RUNNING_GEAR
10
2910
20
3005
11
2910
21
2785
0
LINE
8
RUNNING_GEAR
10
2910
20
2785
11
3130
21
2785
0
LINE
8
RUNNING_GEAR
10
3130
20
2785
11
3130
21
3005
0
LINE
8
RUNNING_GEAR
10
3130
20
3005
11
2910
21
3005
0
LINE
8
RUNNING_GEAR
10
2910
20
3005
11
2910
21
2785
0
LINE
8
BODY
10
890
20
3115
11
3440
21
3115
0
LINE
8
BODY
10
3440
20
3115
11
3440
21
3170
0
LINE
8
BODY
10
3440
20
3170
11
890
21
3170
0
LINE
8
BODY
10
890
20
3170
11
890
21
3115
0
LINE
8
BODY
10
1000
20
3165
11
3050
21
3165
0
LINE
8
BODY
10
3050
20
3165
11
3050
21
3320
0
LINE
8
BODY
10
3050
20
3320
11
1000
21
3320
0
LINE
8
BODY
10
1000
20
3320
11
1000
21
3165
0
LINE
8
BODY
10
1000
20
3165
11
3050
21
3165
0
LINE
8
BODY
10
3050
20
3165
11
3050
21
3320
0
LINE
8
BODY
10
3050
20
3320
11
1000
21
3320
0
LINE
8
BODY
10
1000
20
3320
11
1000
21
3165
0
LINE
8
BODY
10
2140
20
3225
11
3410
21
3225
0
LINE
8
BODY
10
3410
20
3225
11
3410
21
3835
0
LINE
8
BODY
10
3410
20
3835
11
2140
21
3835
0
LINE
8
BODY
10
2140
20
3835
11
2140
21
3225
0
LINE
8
BODY
10
2140
20
3225
11
3410
21
3225
0
LINE
8
BODY
10
3410
20
3225
11
3410
21
3835
0
LINE
8
BODY
10
3410
20
3835
11
2140
21
3835
0
LINE
8
BODY
10
2140
20
3835
11
2140
21
3225
0
LINE
8
BODY
10
3400
20
3220
11
3470
21
3220
0
LINE
8
BODY
10
3470
20
3220
11
3470
21
3870
0
LINE
8
BODY
10
3470
20
3870
11
3400
21
3870
0
LINE
8
BODY
10
3400
20
3870
11
3400
21
3220
0
LINE
8
BODY
10
1135
20
3190
11
1215
21
3190
0
LINE
8
BODY
10
1215
20
3190
11
1215
21
3970
0
LINE
8
BODY
10
1215
20
3970
11
1135
21
3970
0
LINE
8
BODY
10
1135
20
3970
11
1135
21
3190
0
LINE
8
BODY
10
1085
20
3760
11
1275
21
3760
0
LINE
8
BODY
10
1275
20
3760
11
1275
21
3870
0
LINE
8
BODY
10
1275
20
3870
11
1085
21
3870
0
LINE
8
BODY
10
1085
20
3870
11
1085
21
3760
0
LINE
8
BODY
10
170
20
3290
11
250
21
3290
0
LINE
8
BODY
10
250
20
3290
11
250
21
3810
0
LINE
8
BODY
10
250
20
3810
11
170
21
3810
0
LINE
8
BODY
10
170
20
3810
11
170
21
3290
0
LINE
8
FRONT_DETAIL
10
125
20
3295
11
160
21
3295
0
LINE
8
FRONT_DETAIL
10
160
20
3295
11
160
21
3660
0
LINE
8
FRONT_DETAIL
10
160
20
3660
11
125
21
3660
0
LINE
8
FRONT_DETAIL
10
125
20
3660
11
125
21
3295
0
LINE
8
FRONT_DETAIL
10
105
20
3410
11
135
21
3410
0
LINE
8
FRONT_DETAIL
10
135
20
3410
11
135
21
3565
0
LINE
8
FRONT_DETAIL
10
135
20
3565
11
105
21
3565
0
LINE
8
FRONT_DETAIL
10
105
20
3565
11
105
21
3410
0
LINE
8
FRONT_DETAIL
10
73
20
3372.5
11
111
21
3372.5
0
LINE
8
FRONT_DETAIL
10
111
20
3372.5
11
111
21
3597.5
0
LINE
8
FRONT_DETAIL
10
111
20
3597.5
11
73
21
3597.5
0
LINE
8
FRONT_DETAIL
10
73
20
3597.5
11
73
21
3372.5
0
LINE
8
FRONT_DETAIL
10
73
20
3372.5
11
111
21
3372.5
0
LINE
8
FRONT_DETAIL
10
111
20
3372.5
11
111
21
3597.5
0
LINE
8
FRONT_DETAIL
10
111
20
3597.5
11
73
21
3597.5
0
LINE
8
FRONT_DETAIL
10
73
20
3597.5
11
73
21
3372.5
0
LINE
8
FRONT_DETAIL
10
69
20
3292.5
11
99
21
3292.5
0
LINE
8
FRONT_DETAIL
10
99
20
3292.5
11
99
21
3397.5
0
LINE
8
FRONT_DETAIL
10
99
20
3397.5
11
69
21
3397.5
0
LINE
8
FRONT_DETAIL
10
69
20
3397.5
11
69
21
3292.5
0
LINE
8
FRONT_DETAIL
10
69
20
3292.5
11
99
21
3292.5
0
LINE
8
FRONT_DETAIL
10
99
20
3292.5
11
99
21
3397.5
0
LINE
8
FRONT_DETAIL
10
99
20
3397.5
11
69
21
3397.5
0
LINE
8
FRONT_DETAIL
10
69
20
3397.5
11
69
21
3292.5
0
LINE
8
FRONT_DETAIL
10
7
20
3037.5
11
43
21
3037.5
0
LINE
8
FRONT_DETAIL
10
43
20
3037.5
11
43
21
3202.5
0
LINE
8
FRONT_DETAIL
10
43
20
3202.5
11
7
21
3202.5
0
LINE
8
FRONT_DETAIL
10
7
20
3202.5
11
7
21
3037.5
0
LINE
8
FRONT_DETAIL
10
7
20
3037.5
11
43
21
3037.5
0
LINE
8
FRONT_DETAIL
10
43
20
3037.5
11
43
21
3202.5
0
LINE
8
FRONT_DETAIL
10
43
20
3202.5
11
7
21
3202.5
0
LINE
8
FRONT_DETAIL
10
7
20
3202.5
11
7
21
3037.5
0
LINE
8
BODY
10
230
20
3715
11
1150
21
3715
0
LINE
8
BODY
10
1150
20
3715
11
1150
21
3770
0
LINE
8
BODY
10
1150
20
3770
11
230
21
3770
0
LINE
8
BODY
10
230
20
3770
11
230
21
3715
0
LINE
8
BODY
10
420
20
3920
11
1600
21
3920
0
LINE
8
BODY
10
1600
20
3920
11
1600
21
3955
0
LINE
8
BODY
10
1600
20
3955
11
420
21
3955
0
LINE
8
BODY
10
420
20
3955
11
420
21
3920
0
LINE
8
BODY
10
1016
20
3774
11
1044
21
3774
0
LINE
8
BODY
10
1044
20
3774
11
1044
21
3802
0
LINE
8
BODY
10
1044
20
3802
11
1016
21
3802
0
LINE
8
BODY
10
1016
20
3802
11
1016
21
3774
0
LINE
8
BODY
10
1016
20
3774
11
1044
21
3774
0
LINE
8
BODY
10
1044
20
3774
11
1044
21
3802
0
LINE
8
BODY
10
1044
20
3802
11
1016
21
3802
0
LINE
8
BODY
10
1016
20
3802
11
1016
21
3774
0
LINE
8
BODY
10
270
20
3260
11
1130
21
3260
0
LINE
8
BODY
10
1130
20
3260
11
1130
21
3520
0
LINE
8
BODY
10
1130
20
3520
11
270
21
3520
0
LINE
8
BODY
10
270
20
3520
11
270
21
3260
0
LINE
8
BODY
10
270
20
3260
11
1130
21
3260
0
LINE
8
BODY
10
1130
20
3260
11
1130
21
3520
0
LINE
8
BODY
10
1130
20
3520
11
270
21
3520
0
LINE
8
BODY
10
270
20
3520
11
270
21
3260
0
LINE
8
BODY
10
290
20
3300
11
1090
21
3300
0
LINE
8
BODY
10
1090
20
3300
11
1090
21
3720
0
LINE
8
BODY
10
1090
20
3720
11
290
21
3720
0
LINE
8
BODY
10
290
20
3720
11
290
21
3300
0
LINE
8
BODY
10
290
20
3300
11
1090
21
3300
0
LINE
8
BODY
10
1090
20
3300
11
1090
21
3720
0
LINE
8
BODY
10
1090
20
3720
11
290
21
3720
0
LINE
8
BODY
10
290
20
3720
11
290
21
3300
0
LINE
8
BODY
10
1155
20
3815
11
1235
21
3815
0
LINE
8
BODY
10
1235
20
3815
11
1235
21
4335
0
LINE
8
BODY
10
1235
20
4335
11
1155
21
4335
0
LINE
8
BODY
10
1155
20
4335
11
1155
21
3815
0
LINE
8
BODY
10
1160
20
3880
11
1195
21
3880
0
LINE
8
BODY
10
1195
20
3880
11
1195
21
4290
0
LINE
8
BODY
10
1195
20
4290
11
1160
21
4290
0
LINE
8
BODY
10
1160
20
4290
11
1160
21
3880
0
LINE
8
BODY
10
1098
20
3858
11
1122
21
3858
0
LINE
8
BODY
10
1122
20
3858
11
1122
21
3882
0
LINE
8
BODY
10
1122
20
3882
11
1098
21
3882
0
LINE
8
BODY
10
1098
20
3882
11
1098
21
3858
0
LINE
8
BODY
10
1098
20
3858
11
1122
21
3858
0
LINE
8
BODY
10
1122
20
3858
11
1122
21
3882
0
LINE
8
BODY
10
1122
20
3882
11
1098
21
3882
0
LINE
8
BODY
10
1098
20
3882
11
1098
21
3858
0
LINE
8
SOFT_TOP
10
1210
20
4345
11
3500
21
4345
0
LINE
8
SOFT_TOP
10
3500
20
4345
11
3500
21
4445
0
LINE
8
SOFT_TOP
10
3500
20
4445
11
1210
21
4445
0
LINE
8
SOFT_TOP
10
1210
20
4445
11
1210
21
4345
0
LINE
8
SOFT_TOP
10
1240
20
3820
11
3440
21
3820
0
LINE
8
SOFT_TOP
10
3440
20
3820
11
3440
21
4410
0
LINE
8
SOFT_TOP
10
3440
20
4410
11
1240
21
4410
0
LINE
8
SOFT_TOP
10
1240
20
4410
11
1240
21
3820
0
LINE
8
SOFT_TOP
10
1240
20
3820
11
3440
21
3820
0
LINE
8
SOFT_TOP
10
3440
20
3820
11
3440
21
4410
0
LINE
8
SOFT_TOP
10
3440
20
4410
11
1240
21
4410
0
LINE
8
SOFT_TOP
10
1240
20
4410
11
1240
21
3820
0
LINE
8
SOFT_TOP
10
1370
20
3930
11
1870
21
3930
0
LINE
8
SOFT_TOP
10
1870
20
3930
11
1870
21
4250
0
LINE
8
SOFT_TOP
10
1870
20
4250
11
1370
21
4250
0
LINE
8
SOFT_TOP
10
1370
20
4250
11
1370
21
3930
0
LINE
8
SOFT_TOP
10
2120
20
3930
11
2730
21
3930
0
LINE
8
SOFT_TOP
10
2730
20
3930
11
2730
21
4250
0
LINE
8
SOFT_TOP
10
2730
20
4250
11
2120
21
4250
0
LINE
8
SOFT_TOP
10
2120
20
4250
11
2120
21
3930
0
LINE
8
SOFT_TOP
10
1370
20
3930
11
1870
21
3930
0
LINE
8
SOFT_TOP
10
1870
20
3930
11
1870
21
4250
0
LINE
8
SOFT_TOP
10
1870
20
4250
11
1370
21
4250
0
LINE
8
SOFT_TOP
10
1370
20
4250
11
1370
21
3930
0
LINE
8
SOFT_TOP
10
2120
20
3930
11
2730
21
3930
0
LINE
8
SOFT_TOP
10
2730
20
3930
11
2730
21
4250
0
LINE
8
SOFT_TOP
10
2730
20
4250
11
2120
21
4250
0
LINE
8
SOFT_TOP
10
2120
20
4250
11
2120
21
3930
0
LINE
8
SOFT_TOP
10
3440
20
3820
11
3495
21
3820
0
LINE
8
SOFT_TOP
10
3495
20
3820
11
3495
21
4410
0
LINE
8
SOFT_TOP
10
3495
20
4410
11
3440
21
4410
0
LINE
8
SOFT_TOP
10
3440
20
4410
11
3440
21
3820
0
LINE
8
SOFT_TOP
10
1290
20
4240
11
1335
21
4240
0
LINE
8
SOFT_TOP
10
1335
20
4240
11
1335
21
4315
0
LINE
8
SOFT_TOP
10
1335
20
4315
11
1290
21
4315
0
LINE
8
SOFT_TOP
10
1290
20
4315
11
1290
21
4240
0
LINE
8
SOFT_TOP
10
1960
20
4240
11
2005
21
4240
0
LINE
8
SOFT_TOP
10
2005
20
4240
11
2005
21
4315
0
LINE
8
SOFT_TOP
10
2005
20
4315
11
1960
21
4315
0
LINE
8
SOFT_TOP
10
1960
20
4315
11
1960
21
4240
0
LINE
8
SOFT_TOP
10
2640
20
4240
11
2685
21
4240
0
LINE
8
SOFT_TOP
10
2685
20
4240
11
2685
21
4315
0
LINE
8
SOFT_TOP
10
2685
20
4315
11
2640
21
4315
0
LINE
8
SOFT_TOP
10
2640
20
4315
11
2640
21
4240
0
LINE
8
SOFT_TOP
10
1460
20
3680
11
1495
21
3680
0
LINE
8
SOFT_TOP
10
1495
20
3680
11
1495
21
3785
0
LINE
8
SOFT_TOP
10
1495
20
3785
11
1460
21
3785
0
LINE
8
SOFT_TOP
10
1460
20
3785
11
1460
21
3680
0
LINE
8
SOFT_TOP
10
1460
20
3680
11
1495
21
3680
0
LINE
8
SOFT_TOP
10
1495
20
3680
11
1495
21
3785
0
LINE
8
SOFT_TOP
10
1495
20
3785
11
1460
21
3785
0
LINE
8
SOFT_TOP
10
1460
20
3785
11
1460
21
3680
0
LINE
8
SOFT_TOP
10
1740
20
3680
11
1775
21
3680
0
LINE
8
SOFT_TOP
10
1775
20
3680
11
1775
21
3785
0
LINE
8
SOFT_TOP
10
1775
20
3785
11
1740
21
3785
0
LINE
8
SOFT_TOP
10
1740
20
3785
11
1740
21
3680
0
LINE
8
SOFT_TOP
10
1740
20
3680
11
1775
21
3680
0
LINE
8
SOFT_TOP
10
1775
20
3680
11
1775
21
3785
0
LINE
8
SOFT_TOP
10
1775
20
3785
11
1740
21
3785
0
LINE
8
SOFT_TOP
10
1740
20
3785
11
1740
21
3680
0
LINE
8
SOFT_TOP
10
2020
20
3680
11
2055
21
3680
0
LINE
8
SOFT_TOP
10
2055
20
3680
11
2055
21
3785
0
LINE
8
SOFT_TOP
10
2055
20
3785
11
2020
21
3785
0
LINE
8
SOFT_TOP
10
2020
20
3785
11
2020
21
3680
0
LINE
8
SOFT_TOP
10
2020
20
3680
11
2055
21
3680
0
LINE
8
SOFT_TOP
10
2055
20
3680
11
2055
21
3785
0
LINE
8
SOFT_TOP
10
2055
20
3785
11
2020
21
3785
0
LINE
8
SOFT_TOP
10
2020
20
3785
11
2020
21
3680
0
LINE
8
SOFT_TOP
10
2300
20
3680
11
2335
21
3680
0
LINE
8
SOFT_TOP
10
2335
20
3680
11
2335
21
3785
0
LINE
8
SOFT_TOP
10
2335
20
3785
11
2300
21
3785
0
LINE
8
SOFT_TOP
10
2300
20
3785
11
2300
21
3680
0
LINE
8
SOFT_TOP
10
2300
20
3680
11
2335
21
3680
0
LINE
8
SOFT_TOP
10
2335
20
3680
11
2335
21
3785
0
LINE
8
SOFT_TOP
10
2335
20
3785
11
2300
21
3785
0
LINE
8
SOFT_TOP
10
2300
20
3785
11
2300
21
3680
0
LINE
8
SOFT_TOP
10
2580
20
3680
11
2615
21
3680
0
LINE
8
SOFT_TOP
10
2615
20
3680
11
2615
21
3785
0
LINE
8
SOFT_TOP
10
2615
20
3785
11
2580
21
3785
0
LINE
8
SOFT_TOP
10
2580
20
3785
11
2580
21
3680
0
LINE
8
SOFT_TOP
10
2580
20
3680
11
2615
21
3680
0
LINE
8
SOFT_TOP
10
2615
20
3680
11
2615
21
3785
0
LINE
8
SOFT_TOP
10
2615
20
3785
11
2580
21
3785
0
LINE
8
SOFT_TOP
10
2580
20
3785
11
2580
21
3680
0
LINE
8
SOFT_TOP
10
2860
20
3680
11
2895
21
3680
0
LINE
8
SOFT_TOP
10
2895
20
3680
11
2895
21
3785
0
LINE
8
SOFT_TOP
10
2895
20
3785
11
2860
21
3785
0
LINE
8
SOFT_TOP
10
2860
20
3785
11
2860
21
3680
0
LINE
8
SOFT_TOP
10
2860
20
3680
11
2895
21
3680
0
LINE
8
SOFT_TOP
10
2895
20
3680
11
2895
21
3785
0
LINE
8
SOFT_TOP
10
2895
20
3785
11
2860
21
3785
0
LINE
8
SOFT_TOP
10
2860
20
3785
11
2860
21
3680
0
LINE
8
SOFT_TOP
10
3140
20
3680
11
3175
21
3680
0
LINE
8
SOFT_TOP
10
3175
20
3680
11
3175
21
3785
0
LINE
8
SOFT_TOP
10
3175
20
3785
11
3140
21
3785
0
LINE
8
SOFT_TOP
10
3140
20
3785
11
3140
21
3680
0
LINE
8
SOFT_TOP
10
3140
20
3680
11
3175
21
3680
0
LINE
8
SOFT_TOP
10
3175
20
3680
11
3175
21
3785
0
LINE
8
SOFT_TOP
10
3175
20
3785
11
3140
21
3785
0
LINE
8
SOFT_TOP
10
3140
20
3785
11
3140
21
3680
0
LINE
8
BODY
10
1180
20
3260
11
1980
21
3260
0
LINE
8
BODY
10
1980
20
3260
11
1980
21
4110
0
LINE
8
BODY
10
1980
20
4110
11
1180
21
4110
0
LINE
8
BODY
10
1180
20
4110
11
1180
21
3260
0
LINE
8
BODY
10
1180
20
3260
11
1980
21
3260
0
LINE
8
BODY
10
1980
20
3260
11
1980
21
4110
0
LINE
8
BODY
10
1980
20
4110
11
1180
21
4110
0
LINE
8
BODY
10
1180
20
4110
11
1180
21
3260
0
LINE
8
BODY
10
1280
20
3710
11
1800
21
3710
0
LINE
8
BODY
10
1800
20
3710
11
1800
21
4055
0
LINE
8
BODY
10
1800
20
4055
11
1280
21
4055
0
LINE
8
BODY
10
1280
20
4055
11
1280
21
3710
0
LINE
8
BODY
10
1280
20
3710
11
1800
21
3710
0
LINE
8
BODY
10
1800
20
3710
11
1800
21
4055
0
LINE
8
BODY
10
1800
20
4055
11
1280
21
4055
0
LINE
8
BODY
10
1280
20
4055
11
1280
21
3710
0
LINE
8
BODY
10
1116
20
3607.5
11
1154
21
3607.5
0
LINE
8
BODY
10
1154
20
3607.5
11
1154
21
3752.5
0
LINE
8
BODY
10
1154
20
3752.5
11
1116
21
3752.5
0
LINE
8
BODY
10
1116
20
3752.5
11
1116
21
3607.5
0
LINE
8
BODY
10
1116
20
3277.5
11
1154
21
3277.5
0
LINE
8
BODY
10
1154
20
3277.5
11
1154
21
3422.5
0
LINE
8
BODY
10
1154
20
3422.5
11
1116
21
3422.5
0
LINE
8
BODY
10
1116
20
3422.5
11
1116
21
3277.5
0
LINE
8
BODY
10
1116
20
3607.5
11
1154
21
3607.5
0
LINE
8
BODY
10
1154
20
3607.5
11
1154
21
3752.5
0
LINE
8
BODY
10
1154
20
3752.5
11
1116
21
3752.5
0
LINE
8
BODY
10
1116
20
3752.5
11
1116
21
3607.5
0
LINE
8
BODY
10
1116
20
3277.5
11
1154
21
3277.5
0
LINE
8
BODY
10
1154
20
3277.5
11
1154
21
3422.5
0
LINE
8
BODY
10
1154
20
3422.5
11
1116
21
3422.5
0
LINE
8
BODY
10
1116
20
3422.5
11
1116
21
3277.5
0
LINE
8
BODY
10
1575
20
3545
11
1735
21
3545
0
LINE
8
BODY
10
1735
20
3545
11
1735
21
3585
0
LINE
8
BODY
10
1735
20
3585
11
1575
21
3585
0
LINE
8
BODY
10
1575
20
3585
11
1575
21
3545
0
LINE
8
BODY
10
1575
20
3545
11
1735
21
3545
0
LINE
8
BODY
10
1735
20
3545
11
1735
21
3585
0
LINE
8
BODY
10
1735
20
3585
11
1575
21
3585
0
LINE
8
BODY
10
1575
20
3585
11
1575
21
3545
0
LINE
8
ENGINE_BAY
10
460
20
3220
11
980
21
3220
0
LINE
8
ENGINE_BAY
10
980
20
3220
11
980
21
3650
0
LINE
8
ENGINE_BAY
10
980
20
3650
11
460
21
3650
0
LINE
8
ENGINE_BAY
10
460
20
3650
11
460
21
3220
0
LINE
8
ENGINE_BAY
10
510
20
3580
11
970
21
3580
0
LINE
8
ENGINE_BAY
10
970
20
3580
11
970
21
3650
0
LINE
8
ENGINE_BAY
10
970
20
3650
11
510
21
3650
0
LINE
8
ENGINE_BAY
10
510
20
3650
11
510
21
3580
0
LINE
8
ENGINE_BAY
10
235
20
3320
11
310
21
3320
0
LINE
8
ENGINE_BAY
10
310
20
3320
11
310
21
3840
0
LINE
8
ENGINE_BAY
10
310
20
3840
11
235
21
3840
0
LINE
8
ENGINE_BAY
10
235
20
3840
11
235
21
3320
0
LINE
8
ENGINE_BAY
10
760
20
3620
11
970
21
3620
0
LINE
8
ENGINE_BAY
10
970
20
3620
11
970
21
3770
0
LINE
8
ENGINE_BAY
10
970
20
3770
11
760
21
3770
0
LINE
8
ENGINE_BAY
10
760
20
3770
11
760
21
3620
0
LINE
8
ENGINE_BAY
10
600
20
3260
11
930
21
3260
0
LINE
8
ENGINE_BAY
10
930
20
3260
11
930
21
3480
0
LINE
8
ENGINE_BAY
10
930
20
3480
11
600
21
3480
0
LINE
8
ENGINE_BAY
10
600
20
3480
11
600
21
3260
0
LINE
8
ENGINE_BAY
10
447
20
3570
11
493
21
3570
0
LINE
8
ENGINE_BAY
10
493
20
3570
11
493
21
3750
0
LINE
8
ENGINE_BAY
10
493
20
3750
11
447
21
3750
0
LINE
8
ENGINE_BAY
10
447
20
3750
11
447
21
3570
0
LINE
8
ENGINE_BAY
10
447
20
3570
11
493
21
3570
0
LINE
8
ENGINE_BAY
10
493
20
3570
11
493
21
3750
0
LINE
8
ENGINE_BAY
10
493
20
3750
11
447
21
3750
0
LINE
8
ENGINE_BAY
10
447
20
3750
11
447
21
3570
0
LINE
8
ENGINE_BAY
10
447
20
3570
11
493
21
3570
0
LINE
8
ENGINE_BAY
10
493
20
3570
11
493
21
3750
0
LINE
8
ENGINE_BAY
10
493
20
3750
11
447
21
3750
0
LINE
8
ENGINE_BAY
10
447
20
3750
11
447
21
3570
0
LINE
8
ENGINE_BAY
10
447
20
3570
11
493
21
3570
0
LINE
8
ENGINE_BAY
10
493
20
3570
11
493
21
3750
0
LINE
8
ENGINE_BAY
10
493
20
3750
11
447
21
3750
0
LINE
8
ENGINE_BAY
10
447
20
3750
11
447
21
3570
0
LINE
8
ENGINE_BAY
10
447
20
3570
11
493
21
3570
0
LINE
8
ENGINE_BAY
10
493
20
3570
11
493
21
3750
0
LINE
8
ENGINE_BAY
10
493
20
3750
11
447
21
3750
0
LINE
8
ENGINE_BAY
10
447
20
3750
11
447
21
3570
0
LINE
8
ENGINE_BAY
10
447
20
3570
11
493
21
3570
0
LINE
8
ENGINE_BAY
10
493
20
3570
11
493
21
3750
0
LINE
8
ENGINE_BAY
10
493
20
3750
11
447
21
3750
0
LINE
8
ENGINE_BAY
10
447
20
3750
11
447
21
3570
0
LINE
8
ENGINE_BAY
10
115
20
3574
11
545
21
3574
0
LINE
8
ENGINE_BAY
10
545
20
3574
11
545
21
3646
0
LINE
8
ENGINE_BAY
10
545
20
3646
11
115
21
3646
0
LINE
8
ENGINE_BAY
10
115
20
3646
11
115
21
3574
0
LINE
8
ENGINE_BAY
10
574
20
3115
11
656
21
3115
0
LINE
8
ENGINE_BAY
10
656
20
3115
11
656
21
3575
0
LINE
8
ENGINE_BAY
10
656
20
3575
11
574
21
3575
0
LINE
8
ENGINE_BAY
10
574
20
3575
11
574
21
3115
0
LINE
8
INTERIOR
10
1235
20
3580
11
1355
21
3580
0
LINE
8
INTERIOR
10
1355
20
3580
11
1355
21
3800
0
LINE
8
INTERIOR
10
1355
20
3800
11
1235
21
3800
0
LINE
8
INTERIOR
10
1235
20
3800
11
1235
21
3580
0
LINE
8
INTERIOR
10
1315
20
3435
11
1835
21
3435
0
LINE
8
INTERIOR
10
1835
20
3435
11
1835
21
3495
0
LINE
8
INTERIOR
10
1835
20
3495
11
1315
21
3495
0
LINE
8
INTERIOR
10
1315
20
3495
11
1315
21
3435
0
LINE
8
INTERIOR
10
1224
20
3520
11
1256
21
3520
0
LINE
8
INTERIOR
10
1256
20
3520
11
1256
21
3900
0
LINE
8
INTERIOR
10
1256
20
3900
11
1224
21
3900
0
LINE
8
INTERIOR
10
1224
20
3900
11
1224
21
3520
0
LINE
8
INTERIOR
10
1202.5
20
3642.5
11
1257.5
21
3642.5
0
LINE
8
INTERIOR
10
1257.5
20
3642.5
11
1257.5
21
3777.5
0
LINE
8
INTERIOR
10
1257.5
20
3777.5
11
1202.5
21
3777.5
0
LINE
8
INTERIOR
10
1202.5
20
3777.5
11
1202.5
21
3642.5
0
LINE
8
INTERIOR
10
1210
20
3639
11
1234
21
3639
0
LINE
8
INTERIOR
10
1234
20
3639
11
1234
21
3711
0
LINE
8
INTERIOR
10
1234
20
3711
11
1210
21
3711
0
LINE
8
INTERIOR
10
1210
20
3711
11
1210
21
3639
0
LINE
8
INTERIOR
10
1210
20
3639
11
1234
21
3639
0
LINE
8
INTERIOR
10
1234
20
3639
11
1234
21
3711
0
LINE
8
INTERIOR
10
1234
20
3711
11
1210
21
3711
0
LINE
8
INTERIOR
10
1210
20
3711
11
1210
21
3639
0
LINE
8
INTERIOR
10
1210
20
3639
11
1234
21
3639
0
LINE
8
INTERIOR
10
1234
20
3639
11
1234
21
3711
0
LINE
8
INTERIOR
10
1234
20
3711
11
1210
21
3711
0
LINE
8
INTERIOR
10
1210
20
3711
11
1210
21
3639
0
LINE
8
INTERIOR
10
1210
20
3639
11
1234
21
3639
0
LINE
8
INTERIOR
10
1234
20
3639
11
1234
21
3711
0
LINE
8
INTERIOR
10
1234
20
3711
11
1210
21
3711
0
LINE
8
INTERIOR
10
1210
20
3711
11
1210
21
3639
0
LINE
8
INTERIOR
10
1562
20
3177.5
11
1598
21
3177.5
0
LINE
8
INTERIOR
10
1598
20
3177.5
11
1598
21
3462.5
0
LINE
8
INTERIOR
10
1598
20
3462.5
11
1562
21
3462.5
0
LINE
8
INTERIOR
10
1562
20
3462.5
11
1562
21
3177.5
0
LINE
8
INTERIOR
10
1481
20
3155
11
1519
21
3155
0
LINE
8
INTERIOR
10
1519
20
3155
11
1519
21
3485
0
LINE
8
INTERIOR
10
1519
20
3485
11
1481
21
3485
0
LINE
8
INTERIOR
10
1481
20
3485
11
1481
21
3155
0
LINE
8
INTERIOR
10
1660
20
3200
11
2080
21
3200
0
LINE
8
INTERIOR
10
2080
20
3200
11
2080
21
3330
0
LINE
8
INTERIOR
10
2080
20
3330
11
1660
21
3330
0
LINE
8
INTERIOR
10
1660
20
3330
11
1660
21
3200
0
LINE
8
INTERIOR
10
1850
20
3320
11
1945
21
3320
0
LINE
8
INTERIOR
10
1945
20
3320
11
1945
21
3940
0
LINE
8
INTERIOR
10
1945
20
3940
11
1850
21
3940
0
LINE
8
INTERIOR
10
1850
20
3940
11
1850
21
3320
0
LINE
8
INTERIOR
10
1830
20
3860
11
1980
21
3860
0
LINE
8
INTERIOR
10
1980
20
3860
11
1980
21
4010
0
LINE
8
INTERIOR
10
1980
20
4010
11
1830
21
4010
0
LINE
8
INTERIOR
10
1830
20
4010
11
1830
21
3860
0
LINE
8
INTERIOR
10
1660
20
3200
11
2080
21
3200
0
LINE
8
INTERIOR
10
2080
20
3200
11
2080
21
3330
0
LINE
8
INTERIOR
10
2080
20
3330
11
1660
21
3330
0
LINE
8
INTERIOR
10
1660
20
3330
11
1660
21
3200
0
LINE
8
INTERIOR
10
1850
20
3320
11
1945
21
3320
0
LINE
8
INTERIOR
10
1945
20
3320
11
1945
21
3940
0
LINE
8
INTERIOR
10
1945
20
3940
11
1850
21
3940
0
LINE
8
INTERIOR
10
1850
20
3940
11
1850
21
3320
0
LINE
8
INTERIOR
10
1830
20
3860
11
1980
21
3860
0
LINE
8
INTERIOR
10
1980
20
3860
11
1980
21
4010
0
LINE
8
INTERIOR
10
1980
20
4010
11
1830
21
4010
0
LINE
8
INTERIOR
10
1830
20
4010
11
1830
21
3860
0
LINE
8
INTERIOR
10
2510
20
3220
11
3120
21
3220
0
LINE
8
INTERIOR
10
3120
20
3220
11
3120
21
3355
0
LINE
8
INTERIOR
10
3120
20
3355
11
2510
21
3355
0
LINE
8
INTERIOR
10
2510
20
3355
11
2510
21
3220
0
LINE
8
INTERIOR
10
2920
20
3340
11
3025
21
3340
0
LINE
8
INTERIOR
10
3025
20
3340
11
3025
21
3900
0
LINE
8
INTERIOR
10
3025
20
3900
11
2920
21
3900
0
LINE
8
INTERIOR
10
2920
20
3900
11
2920
21
3340
0
LINE
8
INTERIOR
10
2905
20
3820
11
3045
21
3820
0
LINE
8
INTERIOR
10
3045
20
3820
11
3045
21
3960
0
LINE
8
INTERIOR
10
3045
20
3960
11
2905
21
3960
0
LINE
8
INTERIOR
10
2905
20
3960
11
2905
21
3820
0
LINE
8
INTERIOR
10
2905
20
3820
11
3045
21
3820
0
LINE
8
INTERIOR
10
3045
20
3820
11
3045
21
3960
0
LINE
8
INTERIOR
10
3045
20
3960
11
2905
21
3960
0
LINE
8
INTERIOR
10
2905
20
3960
11
2905
21
3820
0
LINE
8
OVERALL
10
0
20
2500
11
3840
21
2500
0
LINE
8
OVERALL
10
3840
20
2500
11
3840
21
4450
0
LINE
8
OVERALL
10
3840
20
4450
11
0
21
4450
0
LINE
8
OVERALL
10
0
20
4450
11
0
21
2500
0
LINE
8
CHASSIS
10
4567.5
20
2930
11
4652.5
21
2930
0
LINE
8
CHASSIS
10
4652.5
20
2930
11
4652.5
21
3050
0
LINE
8
CHASSIS
10
4652.5
20
3050
11
4567.5
21
3050
0
LINE
8
CHASSIS
10
4567.5
20
3050
11
4567.5
21
2930
0
LINE
8
CHASSIS
10
5347.5
20
2930
11
5432.5
21
2930
0
LINE
8
CHASSIS
10
5432.5
20
2930
11
5432.5
21
3050
0
LINE
8
CHASSIS
10
5432.5
20
3050
11
5347.5
21
3050
0
LINE
8
CHASSIS
10
5347.5
20
3050
11
5347.5
21
2930
0
LINE
8
CHASSIS
10
4560
20
2955
11
5440
21
2955
0
LINE
8
CHASSIS
10
5440
20
2955
11
5440
21
3050
0
LINE
8
CHASSIS
10
5440
20
3050
11
4560
21
3050
0
LINE
8
CHASSIS
10
4560
20
3050
11
4560
21
2955
0
LINE
8
CHASSIS
10
4560
20
2955
11
5440
21
2955
0
LINE
8
CHASSIS
10
5440
20
2955
11
5440
21
3050
0
LINE
8
CHASSIS
10
5440
20
3050
11
4560
21
3050
0
LINE
8
CHASSIS
10
4560
20
3050
11
4560
21
2955
0
LINE
8
CHASSIS
10
4560
20
2955
11
5440
21
2955
0
LINE
8
CHASSIS
10
5440
20
2955
11
5440
21
3050
0
LINE
8
CHASSIS
10
5440
20
3050
11
4560
21
3050
0
LINE
8
CHASSIS
10
4560
20
3050
11
4560
21
2955
0
LINE
8
CHASSIS
10
4560
20
2955
11
5440
21
2955
0
LINE
8
CHASSIS
10
5440
20
2955
11
5440
21
3050
0
LINE
8
CHASSIS
10
5440
20
3050
11
4560
21
3050
0
LINE
8
CHASSIS
10
4560
20
3050
11
4560
21
2955
0
LINE
8
CHASSIS
10
4560
20
2955
11
5440
21
2955
0
LINE
8
CHASSIS
10
5440
20
2955
11
5440
21
3050
0
LINE
8
CHASSIS
10
5440
20
3050
11
4560
21
3050
0
LINE
8
CHASSIS
10
4560
20
3050
11
4560
21
2955
0
LINE
8
CHASSIS
10
4190
20
3025
11
5810
21
3025
0
LINE
8
CHASSIS
10
5810
20
3025
11
5810
21
3145
0
LINE
8
CHASSIS
10
5810
20
3145
11
4190
21
3145
0
LINE
8
CHASSIS
10
4190
20
3145
11
4190
21
3025
0
LINE
8
CHASSIS
10
4225
20
3030
11
5775
21
3030
0
LINE
8
CHASSIS
10
5775
20
3030
11
5775
21
3140
0
LINE
8
CHASSIS
10
5775
20
3140
11
4225
21
3140
0
LINE
8
CHASSIS
10
4225
20
3140
11
4225
21
3030
0
LINE
8
CHASSIS
10
4512.5
20
2892.5
11
4627.5
21
2892.5
0
LINE
8
CHASSIS
10
4627.5
20
2892.5
11
4627.5
21
3007.5
0
LINE
8
CHASSIS
10
4627.5
20
3007.5
11
4512.5
21
3007.5
0
LINE
8
CHASSIS
10
4512.5
20
3007.5
11
4512.5
21
2892.5
0
LINE
8
CHASSIS
10
5372.5
20
2892.5
11
5487.5
21
2892.5
0
LINE
8
CHASSIS
10
5487.5
20
2892.5
11
5487.5
21
3007.5
0
LINE
8
CHASSIS
10
5487.5
20
3007.5
11
5372.5
21
3007.5
0
LINE
8
CHASSIS
10
5372.5
20
3007.5
11
5372.5
21
2892.5
0
LINE
8
RUNNING_GEAR
10
4220
20
2895
11
5780
21
2895
0
LINE
8
RUNNING_GEAR
10
5780
20
2895
11
5780
21
2985
0
LINE
8
RUNNING_GEAR
10
5780
20
2985
11
4220
21
2985
0
LINE
8
RUNNING_GEAR
10
4220
20
2985
11
4220
21
2895
0
LINE
8
RUNNING_GEAR
10
4220
20
2895
11
5780
21
2895
0
LINE
8
RUNNING_GEAR
10
5780
20
2895
11
5780
21
2985
0
LINE
8
RUNNING_GEAR
10
5780
20
2985
11
4220
21
2985
0
LINE
8
RUNNING_GEAR
10
4220
20
2985
11
4220
21
2895
0
LINE
8
RUNNING_GEAR
10
4537.5
20
2835
11
4602.5
21
2835
0
LINE
8
RUNNING_GEAR
10
4602.5
20
2835
11
4602.5
21
2890
0
LINE
8
RUNNING_GEAR
10
4602.5
20
2890
11
4537.5
21
2890
0
LINE
8
RUNNING_GEAR
10
4537.5
20
2890
11
4537.5
21
2835
0
LINE
8
RUNNING_GEAR
10
5397.5
20
2835
11
5462.5
21
2835
0
LINE
8
RUNNING_GEAR
10
5462.5
20
2835
11
5462.5
21
2890
0
LINE
8
RUNNING_GEAR
10
5462.5
20
2890
11
5397.5
21
2890
0
LINE
8
RUNNING_GEAR
10
5397.5
20
2890
11
5397.5
21
2835
0
LINE
8
RUNNING_GEAR
10
4537.5
20
2835
11
4602.5
21
2835
0
LINE
8
RUNNING_GEAR
10
4602.5
20
2835
11
4602.5
21
2890
0
LINE
8
RUNNING_GEAR
10
4602.5
20
2890
11
4537.5
21
2890
0
LINE
8
RUNNING_GEAR
10
4537.5
20
2890
11
4537.5
21
2835
0
LINE
8
RUNNING_GEAR
10
5397.5
20
2835
11
5462.5
21
2835
0
LINE
8
RUNNING_GEAR
10
5462.5
20
2835
11
5462.5
21
2890
0
LINE
8
RUNNING_GEAR
10
5462.5
20
2890
11
5397.5
21
2890
0
LINE
8
RUNNING_GEAR
10
5397.5
20
2890
11
5397.5
21
2835
0
LINE
8
RUNNING_GEAR
10
4170
20
2500
11
4420
21
2500
0
LINE
8
RUNNING_GEAR
10
4420
20
2500
11
4420
21
3290
0
LINE
8
RUNNING_GEAR
10
4420
20
3290
11
4170
21
3290
0
LINE
8
RUNNING_GEAR
10
4170
20
3290
11
4170
21
2500
0
LINE
8
RUNNING_GEAR
10
5580
20
2500
11
5830
21
2500
0
LINE
8
RUNNING_GEAR
10
5830
20
2500
11
5830
21
3290
0
LINE
8
RUNNING_GEAR
10
5830
20
3290
11
5580
21
3290
0
LINE
8
RUNNING_GEAR
10
5580
20
3290
11
5580
21
2500
0
LINE
8
RUNNING_GEAR
10
4170
20
2500
11
4420
21
2500
0
LINE
8
RUNNING_GEAR
10
4420
20
2500
11
4420
21
3290
0
LINE
8
RUNNING_GEAR
10
4420
20
3290
11
4170
21
3290
0
LINE
8
RUNNING_GEAR
10
4170
20
3290
11
4170
21
2500
0
LINE
8
RUNNING_GEAR
10
5580
20
2500
11
5830
21
2500
0
LINE
8
RUNNING_GEAR
10
5830
20
2500
11
5830
21
3290
0
LINE
8
RUNNING_GEAR
10
5830
20
3290
11
5580
21
3290
0
LINE
8
RUNNING_GEAR
10
5580
20
3290
11
5580
21
2500
0
LINE
8
RUNNING_GEAR
10
4451
20
2890
11
4509
21
2890
0
LINE
8
RUNNING_GEAR
10
4509
20
2890
11
4509
21
3350
0
LINE
8
RUNNING_GEAR
10
4509
20
3350
11
4451
21
3350
0
LINE
8
RUNNING_GEAR
10
4451
20
3350
11
4451
21
2890
0
LINE
8
RUNNING_GEAR
10
5491
20
2890
11
5549
21
2890
0
LINE
8
RUNNING_GEAR
10
5549
20
2890
11
5549
21
3350
0
LINE
8
RUNNING_GEAR
10
5549
20
3350
11
5491
21
3350
0
LINE
8
RUNNING_GEAR
10
5491
20
3350
11
5491
21
2890
0
LINE
8
RUNNING_GEAR
10
4120
20
2785
11
4200
21
2785
0
LINE
8
RUNNING_GEAR
10
4200
20
2785
11
4200
21
3005
0
LINE
8
RUNNING_GEAR
10
4200
20
3005
11
4120
21
3005
0
LINE
8
RUNNING_GEAR
10
4120
20
3005
11
4120
21
2785
0
LINE
8
RUNNING_GEAR
10
5800
20
2785
11
5880
21
2785
0
LINE
8
RUNNING_GEAR
10
5880
20
2785
11
5880
21
3005
0
LINE
8
RUNNING_GEAR
10
5880
20
3005
11
5800
21
3005
0
LINE
8
RUNNING_GEAR
10
5800
20
3005
11
5800
21
2785
0
LINE
8
RUNNING_GEAR
10
4451
20
2890
11
4509
21
2890
0
LINE
8
RUNNING_GEAR
10
4509
20
2890
11
4509
21
3350
0
LINE
8
RUNNING_GEAR
10
4509
20
3350
11
4451
21
3350
0
LINE
8
RUNNING_GEAR
10
4451
20
3350
11
4451
21
2890
0
LINE
8
RUNNING_GEAR
10
5491
20
2890
11
5549
21
2890
0
LINE
8
RUNNING_GEAR
10
5549
20
2890
11
5549
21
3350
0
LINE
8
RUNNING_GEAR
10
5549
20
3350
11
5491
21
3350
0
LINE
8
RUNNING_GEAR
10
5491
20
3350
11
5491
21
2890
0
LINE
8
RUNNING_GEAR
10
4120
20
2785
11
4200
21
2785
0
LINE
8
RUNNING_GEAR
10
4200
20
2785
11
4200
21
3005
0
LINE
8
RUNNING_GEAR
10
4200
20
3005
11
4120
21
3005
0
LINE
8
RUNNING_GEAR
10
4120
20
3005
11
4120
21
2785
0
LINE
8
RUNNING_GEAR
10
5800
20
2785
11
5880
21
2785
0
LINE
8
RUNNING_GEAR
10
5880
20
2785
11
5880
21
3005
0
LINE
8
RUNNING_GEAR
10
5880
20
3005
11
5800
21
3005
0
LINE
8
RUNNING_GEAR
10
5800
20
3005
11
5800
21
2785
0
LINE
8
BODY
10
4335
20
3115
11
5665
21
3115
0
LINE
8
BODY
10
5665
20
3115
11
5665
21
3170
0
LINE
8
BODY
10
5665
20
3170
11
4335
21
3170
0
LINE
8
BODY
10
4335
20
3170
11
4335
21
3115
0
LINE
8
BODY
10
4232.5
20
3165
11
4327.5
21
3165
0
LINE
8
BODY
10
4327.5
20
3165
11
4327.5
21
3320
0
LINE
8
BODY
10
4327.5
20
3320
11
4232.5
21
3320
0
LINE
8
BODY
10
4232.5
20
3320
11
4232.5
21
3165
0
LINE
8
BODY
10
5672.5
20
3165
11
5767.5
21
3165
0
LINE
8
BODY
10
5767.5
20
3165
11
5767.5
21
3320
0
LINE
8
BODY
10
5767.5
20
3320
11
5672.5
21
3320
0
LINE
8
BODY
10
5672.5
20
3320
11
5672.5
21
3165
0
LINE
8
BODY
10
4205
20
3225
11
4275
21
3225
0
LINE
8
BODY
10
4275
20
3225
11
4275
21
3835
0
LINE
8
BODY
10
4275
20
3835
11
4205
21
3835
0
LINE
8
BODY
10
4205
20
3835
11
4205
21
3225
0
LINE
8
BODY
10
5725
20
3225
11
5795
21
3225
0
LINE
8
BODY
10
5795
20
3225
11
5795
21
3835
0
LINE
8
BODY
10
5795
20
3835
11
5725
21
3835
0
LINE
8
BODY
10
5725
20
3835
11
5725
21
3225
0
LINE
8
BODY
10
4285
20
3220
11
5715
21
3220
0
LINE
8
BODY
10
5715
20
3220
11
5715
21
3870
0
LINE
8
BODY
10
5715
20
3870
11
4285
21
3870
0
LINE
8
BODY
10
4285
20
3870
11
4285
21
3220
0
LINE
8
BODY
10
4290
20
3190
11
5710
21
3190
0
LINE
8
BODY
10
5710
20
3190
11
5710
21
3970
0
LINE
8
BODY
10
5710
20
3970
11
4290
21
3970
0
LINE
8
BODY
10
4290
20
3970
11
4290
21
3190
0
LINE
8
BODY
10
4270
20
3760
11
5730
21
3760
0
LINE
8
BODY
10
5730
20
3760
11
5730
21
3870
0
LINE
8
BODY
10
5730
20
3870
11
4270
21
3870
0
LINE
8
BODY
10
4270
20
3870
11
4270
21
3760
0
LINE
8
BODY
10
4295
20
3290
11
5705
21
3290
0
LINE
8
BODY
10
5705
20
3290
11
5705
21
3810
0
LINE
8
BODY
10
5705
20
3810
11
4295
21
3810
0
LINE
8
BODY
10
4295
20
3810
11
4295
21
3290
0
LINE
8
FRONT_DETAIL
10
4440
20
3295
11
5560
21
3295
0
LINE
8
FRONT_DETAIL
10
5560
20
3295
11
5560
21
3660
0
LINE
8
FRONT_DETAIL
10
5560
20
3660
11
4440
21
3660
0
LINE
8
FRONT_DETAIL
10
4440
20
3660
11
4440
21
3295
0
LINE
8
FRONT_DETAIL
10
4680
20
3410
11
5320
21
3410
0
LINE
8
FRONT_DETAIL
10
5320
20
3410
11
5320
21
3565
0
LINE
8
FRONT_DETAIL
10
5320
20
3565
11
4680
21
3565
0
LINE
8
FRONT_DETAIL
10
4680
20
3565
11
4680
21
3410
0
LINE
8
FRONT_DETAIL
10
4442.5
20
3372.5
11
4667.5
21
3372.5
0
LINE
8
FRONT_DETAIL
10
4667.5
20
3372.5
11
4667.5
21
3597.5
0
LINE
8
FRONT_DETAIL
10
4667.5
20
3597.5
11
4442.5
21
3597.5
0
LINE
8
FRONT_DETAIL
10
4442.5
20
3597.5
11
4442.5
21
3372.5
0
LINE
8
FRONT_DETAIL
10
5332.5
20
3372.5
11
5557.5
21
3372.5
0
LINE
8
FRONT_DETAIL
10
5557.5
20
3372.5
11
5557.5
21
3597.5
0
LINE
8
FRONT_DETAIL
10
5557.5
20
3597.5
11
5332.5
21
3597.5
0
LINE
8
FRONT_DETAIL
10
5332.5
20
3597.5
11
5332.5
21
3372.5
0
LINE
8
FRONT_DETAIL
10
4227.5
20
3292.5
11
4332.5
21
3292.5
0
LINE
8
FRONT_DETAIL
10
4332.5
20
3292.5
11
4332.5
21
3397.5
0
LINE
8
FRONT_DETAIL
10
4332.5
20
3397.5
11
4227.5
21
3397.5
0
LINE
8
FRONT_DETAIL
10
4227.5
20
3397.5
11
4227.5
21
3292.5
0
LINE
8
FRONT_DETAIL
10
5667.5
20
3292.5
11
5772.5
21
3292.5
0
LINE
8
FRONT_DETAIL
10
5772.5
20
3292.5
11
5772.5
21
3397.5
0
LINE
8
FRONT_DETAIL
10
5772.5
20
3397.5
11
5667.5
21
3397.5
0
LINE
8
FRONT_DETAIL
10
5667.5
20
3397.5
11
5667.5
21
3292.5
0
LINE
8
FRONT_DETAIL
10
4557.5
20
3037.5
11
4722.5
21
3037.5
0
LINE
8
FRONT_DETAIL
10
4722.5
20
3037.5
11
4722.5
21
3202.5
0
LINE
8
FRONT_DETAIL
10
4722.5
20
3202.5
11
4557.5
21
3202.5
0
LINE
8
FRONT_DETAIL
10
4557.5
20
3202.5
11
4557.5
21
3037.5
0
LINE
8
FRONT_DETAIL
10
5277.5
20
3037.5
11
5442.5
21
3037.5
0
LINE
8
FRONT_DETAIL
10
5442.5
20
3037.5
11
5442.5
21
3202.5
0
LINE
8
FRONT_DETAIL
10
5442.5
20
3202.5
11
5277.5
21
3202.5
0
LINE
8
FRONT_DETAIL
10
5277.5
20
3202.5
11
5277.5
21
3037.5
0
LINE
8
BODY
10
4305
20
3715
11
5695
21
3715
0
LINE
8
BODY
10
5695
20
3715
11
5695
21
3770
0
LINE
8
BODY
10
5695
20
3770
11
4305
21
3770
0
LINE
8
BODY
10
4305
20
3770
11
4305
21
3715
0
LINE
8
BODY
10
4305
20
3920
11
5695
21
3920
0
LINE
8
BODY
10
5695
20
3920
11
5695
21
3955
0
LINE
8
BODY
10
5695
20
3955
11
4305
21
3955
0
LINE
8
BODY
10
4305
20
3955
11
4305
21
3920
0
LINE
8
BODY
10
4345
20
3774
11
4575
21
3774
0
LINE
8
BODY
10
4575
20
3774
11
4575
21
3802
0
LINE
8
BODY
10
4575
20
3802
11
4345
21
3802
0
LINE
8
BODY
10
4345
20
3802
11
4345
21
3774
0
LINE
8
BODY
10
5425
20
3774
11
5655
21
3774
0
LINE
8
BODY
10
5655
20
3774
11
5655
21
3802
0
LINE
8
BODY
10
5655
20
3802
11
5425
21
3802
0
LINE
8
BODY
10
5425
20
3802
11
5425
21
3774
0
LINE
8
BODY
10
4145
20
3260
11
4415
21
3260
0
LINE
8
BODY
10
4415
20
3260
11
4415
21
3520
0
LINE
8
BODY
10
4415
20
3520
11
4145
21
3520
0
LINE
8
BODY
10
4145
20
3520
11
4145
21
3260
0
LINE
8
BODY
10
5585
20
3260
11
5855
21
3260
0
LINE
8
BODY
10
5855
20
3260
11
5855
21
3520
0
LINE
8
BODY
10
5855
20
3520
11
5585
21
3520
0
LINE
8
BODY
10
5585
20
3520
11
5585
21
3260
0
LINE
8
BODY
10
4445
20
3300
11
4515
21
3300
0
LINE
8
BODY
10
4515
20
3300
11
4515
21
3720
0
LINE
8
BODY
10
4515
20
3720
11
4445
21
3720
0
LINE
8
BODY
10
4445
20
3720
11
4445
21
3300
0
LINE
8
BODY
10
5485
20
3300
11
5555
21
3300
0
LINE
8
BODY
10
5555
20
3300
11
5555
21
3720
0
LINE
8
BODY
10
5555
20
3720
11
5485
21
3720
0
LINE
8
BODY
10
5485
20
3720
11
5485
21
3300
0
LINE
8
BODY
10
4260
20
3815
11
5740
21
3815
0
LINE
8
BODY
10
5740
20
3815
11
5740
21
4335
0
LINE
8
BODY
10
5740
20
4335
11
4260
21
4335
0
LINE
8
BODY
10
4260
20
4335
11
4260
21
3815
0
LINE
8
BODY
10
4350
20
3880
11
5650
21
3880
0
LINE
8
BODY
10
5650
20
3880
11
5650
21
4290
0
LINE
8
BODY
10
5650
20
4290
11
4350
21
4290
0
LINE
8
BODY
10
4350
20
4290
11
4350
21
3880
0
LINE
8
BODY
10
4535
20
3858
11
4965
21
3858
0
LINE
8
BODY
10
4965
20
3858
11
4965
21
3882
0
LINE
8
BODY
10
4965
20
3882
11
4535
21
3882
0
LINE
8
BODY
10
4535
20
3882
11
4535
21
3858
0
LINE
8
BODY
10
5035
20
3858
11
5465
21
3858
0
LINE
8
BODY
10
5465
20
3858
11
5465
21
3882
0
LINE
8
BODY
10
5465
20
3882
11
5035
21
3882
0
LINE
8
BODY
10
5035
20
3882
11
5035
21
3858
0
LINE
8
SOFT_TOP
10
4230
20
4345
11
5770
21
4345
0
LINE
8
SOFT_TOP
10
5770
20
4345
11
5770
21
4445
0
LINE
8
SOFT_TOP
10
5770
20
4445
11
4230
21
4445
0
LINE
8
SOFT_TOP
10
4230
20
4445
11
4230
21
4345
0
LINE
8
SOFT_TOP
10
4182.5
20
3820
11
4237.5
21
3820
0
LINE
8
SOFT_TOP
10
4237.5
20
3820
11
4237.5
21
4410
0
LINE
8
SOFT_TOP
10
4237.5
20
4410
11
4182.5
21
4410
0
LINE
8
SOFT_TOP
10
4182.5
20
4410
11
4182.5
21
3820
0
LINE
8
SOFT_TOP
10
5762.5
20
3820
11
5817.5
21
3820
0
LINE
8
SOFT_TOP
10
5817.5
20
3820
11
5817.5
21
4410
0
LINE
8
SOFT_TOP
10
5817.5
20
4410
11
5762.5
21
4410
0
LINE
8
SOFT_TOP
10
5762.5
20
4410
11
5762.5
21
3820
0
LINE
8
SOFT_TOP
10
4168
20
3930
11
4186
21
3930
0
LINE
8
SOFT_TOP
10
4186
20
3930
11
4186
21
4250
0
LINE
8
SOFT_TOP
10
4186
20
4250
11
4168
21
4250
0
LINE
8
SOFT_TOP
10
4168
20
4250
11
4168
21
3930
0
LINE
8
SOFT_TOP
10
4168
20
3930
11
4186
21
3930
0
LINE
8
SOFT_TOP
10
4186
20
3930
11
4186
21
4250
0
LINE
8
SOFT_TOP
10
4186
20
4250
11
4168
21
4250
0
LINE
8
SOFT_TOP
10
4168
20
4250
11
4168
21
3930
0
LINE
8
SOFT_TOP
10
5814
20
3930
11
5832
21
3930
0
LINE
8
SOFT_TOP
10
5832
20
3930
11
5832
21
4250
0
LINE
8
SOFT_TOP
10
5832
20
4250
11
5814
21
4250
0
LINE
8
SOFT_TOP
10
5814
20
4250
11
5814
21
3930
0
LINE
8
SOFT_TOP
10
5814
20
3930
11
5832
21
3930
0
LINE
8
SOFT_TOP
10
5832
20
3930
11
5832
21
4250
0
LINE
8
SOFT_TOP
10
5832
20
4250
11
5814
21
4250
0
LINE
8
SOFT_TOP
10
5814
20
4250
11
5814
21
3930
0
LINE
8
SOFT_TOP
10
4230
20
3820
11
5770
21
3820
0
LINE
8
SOFT_TOP
10
5770
20
3820
11
5770
21
4410
0
LINE
8
SOFT_TOP
10
5770
20
4410
11
4230
21
4410
0
LINE
8
SOFT_TOP
10
4230
20
4410
11
4230
21
3820
0
LINE
8
SOFT_TOP
10
4245
20
4240
11
5755
21
4240
0
LINE
8
SOFT_TOP
10
5755
20
4240
11
5755
21
4315
0
LINE
8
SOFT_TOP
10
5755
20
4315
11
4245
21
4315
0
LINE
8
SOFT_TOP
10
4245
20
4315
11
4245
21
4240
0
LINE
8
SOFT_TOP
10
4245
20
4240
11
5755
21
4240
0
LINE
8
SOFT_TOP
10
5755
20
4240
11
5755
21
4315
0
LINE
8
SOFT_TOP
10
5755
20
4315
11
4245
21
4315
0
LINE
8
SOFT_TOP
10
4245
20
4315
11
4245
21
4240
0
LINE
8
SOFT_TOP
10
4245
20
4240
11
5755
21
4240
0
LINE
8
SOFT_TOP
10
5755
20
4240
11
5755
21
4315
0
LINE
8
SOFT_TOP
10
5755
20
4315
11
4245
21
4315
0
LINE
8
SOFT_TOP
10
4245
20
4315
11
4245
21
4240
0
LINE
8
SOFT_TOP
10
4152
20
3680
11
4178
21
3680
0
LINE
8
SOFT_TOP
10
4178
20
3680
11
4178
21
3785
0
LINE
8
SOFT_TOP
10
4178
20
3785
11
4152
21
3785
0
LINE
8
SOFT_TOP
10
4152
20
3785
11
4152
21
3680
0
LINE
8
SOFT_TOP
10
5822
20
3680
11
5848
21
3680
0
LINE
8
SOFT_TOP
10
5848
20
3680
11
5848
21
3785
0
LINE
8
SOFT_TOP
10
5848
20
3785
11
5822
21
3785
0
LINE
8
SOFT_TOP
10
5822
20
3785
11
5822
21
3680
0
LINE
8
SOFT_TOP
10
4152
20
3680
11
4178
21
3680
0
LINE
8
SOFT_TOP
10
4178
20
3680
11
4178
21
3785
0
LINE
8
SOFT_TOP
10
4178
20
3785
11
4152
21
3785
0
LINE
8
SOFT_TOP
10
4152
20
3785
11
4152
21
3680
0
LINE
8
SOFT_TOP
10
5822
20
3680
11
5848
21
3680
0
LINE
8
SOFT_TOP
10
5848
20
3680
11
5848
21
3785
0
LINE
8
SOFT_TOP
10
5848
20
3785
11
5822
21
3785
0
LINE
8
SOFT_TOP
10
5822
20
3785
11
5822
21
3680
0
LINE
8
SOFT_TOP
10
4152
20
3680
11
4178
21
3680
0
LINE
8
SOFT_TOP
10
4178
20
3680
11
4178
21
3785
0
LINE
8
SOFT_TOP
10
4178
20
3785
11
4152
21
3785
0
LINE
8
SOFT_TOP
10
4152
20
3785
11
4152
21
3680
0
LINE
8
SOFT_TOP
10
5822
20
3680
11
5848
21
3680
0
LINE
8
SOFT_TOP
10
5848
20
3680
11
5848
21
3785
0
LINE
8
SOFT_TOP
10
5848
20
3785
11
5822
21
3785
0
LINE
8
SOFT_TOP
10
5822
20
3785
11
5822
21
3680
0
LINE
8
SOFT_TOP
10
4152
20
3680
11
4178
21
3680
0
LINE
8
SOFT_TOP
10
4178
20
3680
11
4178
21
3785
0
LINE
8
SOFT_TOP
10
4178
20
3785
11
4152
21
3785
0
LINE
8
SOFT_TOP
10
4152
20
3785
11
4152
21
3680
0
LINE
8
SOFT_TOP
10
5822
20
3680
11
5848
21
3680
0
LINE
8
SOFT_TOP
10
5848
20
3680
11
5848
21
3785
0
LINE
8
SOFT_TOP
10
5848
20
3785
11
5822
21
3785
0
LINE
8
SOFT_TOP
10
5822
20
3785
11
5822
21
3680
0
LINE
8
SOFT_TOP
10
4152
20
3680
11
4178
21
3680
0
LINE
8
SOFT_TOP
10
4178
20
3680
11
4178
21
3785
0
LINE
8
SOFT_TOP
10
4178
20
3785
11
4152
21
3785
0
LINE
8
SOFT_TOP
10
4152
20
3785
11
4152
21
3680
0
LINE
8
SOFT_TOP
10
5822
20
3680
11
5848
21
3680
0
LINE
8
SOFT_TOP
10
5848
20
3680
11
5848
21
3785
0
LINE
8
SOFT_TOP
10
5848
20
3785
11
5822
21
3785
0
LINE
8
SOFT_TOP
10
5822
20
3785
11
5822
21
3680
0
LINE
8
SOFT_TOP
10
4152
20
3680
11
4178
21
3680
0
LINE
8
SOFT_TOP
10
4178
20
3680
11
4178
21
3785
0
LINE
8
SOFT_TOP
10
4178
20
3785
11
4152
21
3785
0
LINE
8
SOFT_TOP
10
4152
20
3785
11
4152
21
3680
0
LINE
8
SOFT_TOP
10
5822
20
3680
11
5848
21
3680
0
LINE
8
SOFT_TOP
10
5848
20
3680
11
5848
21
3785
0
LINE
8
SOFT_TOP
10
5848
20
3785
11
5822
21
3785
0
LINE
8
SOFT_TOP
10
5822
20
3785
11
5822
21
3680
0
LINE
8
SOFT_TOP
10
4152
20
3680
11
4178
21
3680
0
LINE
8
SOFT_TOP
10
4178
20
3680
11
4178
21
3785
0
LINE
8
SOFT_TOP
10
4178
20
3785
11
4152
21
3785
0
LINE
8
SOFT_TOP
10
4152
20
3785
11
4152
21
3680
0
LINE
8
SOFT_TOP
10
5822
20
3680
11
5848
21
3680
0
LINE
8
SOFT_TOP
10
5848
20
3680
11
5848
21
3785
0
LINE
8
SOFT_TOP
10
5848
20
3785
11
5822
21
3785
0
LINE
8
SOFT_TOP
10
5822
20
3785
11
5822
21
3680
0
LINE
8
BODY
10
4055
20
3260
11
4125
21
3260
0
LINE
8
BODY
10
4125
20
3260
11
4125
21
4110
0
LINE
8
BODY
10
4125
20
4110
11
4055
21
4110
0
LINE
8
BODY
10
4055
20
4110
11
4055
21
3260
0
LINE
8
BODY
10
5725
20
3260
11
5795
21
3260
0
LINE
8
BODY
10
5795
20
3260
11
5795
21
4110
0
LINE
8
BODY
10
5795
20
4110
11
5725
21
4110
0
LINE
8
BODY
10
5725
20
4110
11
5725
21
3260
0
LINE
8
BODY
10
4041
20
3710
11
4063
21
3710
0
LINE
8
BODY
10
4063
20
3710
11
4063
21
4055
0
LINE
8
BODY
10
4063
20
4055
11
4041
21
4055
0
LINE
8
BODY
10
4041
20
4055
11
4041
21
3710
0
LINE
8
BODY
10
5787
20
3710
11
5809
21
3710
0
LINE
8
BODY
10
5809
20
3710
11
5809
21
4055
0
LINE
8
BODY
10
5809
20
4055
11
5787
21
4055
0
LINE
8
BODY
10
5787
20
4055
11
5787
21
3710
0
LINE
8
BODY
10
4026
20
3607.5
11
4064
21
3607.5
0
LINE
8
BODY
10
4064
20
3607.5
11
4064
21
3752.5
0
LINE
8
BODY
10
4064
20
3752.5
11
4026
21
3752.5
0
LINE
8
BODY
10
4026
20
3752.5
11
4026
21
3607.5
0
LINE
8
BODY
10
4026
20
3277.5
11
4064
21
3277.5
0
LINE
8
BODY
10
4064
20
3277.5
11
4064
21
3422.5
0
LINE
8
BODY
10
4064
20
3422.5
11
4026
21
3422.5
0
LINE
8
BODY
10
4026
20
3422.5
11
4026
21
3277.5
0
LINE
8
BODY
10
5786
20
3607.5
11
5824
21
3607.5
0
LINE
8
BODY
10
5824
20
3607.5
11
5824
21
3752.5
0
LINE
8
BODY
10
5824
20
3752.5
11
5786
21
3752.5
0
LINE
8
BODY
10
5786
20
3752.5
11
5786
21
3607.5
0
LINE
8
BODY
10
5786
20
3277.5
11
5824
21
3277.5
0
LINE
8
BODY
10
5824
20
3277.5
11
5824
21
3422.5
0
LINE
8
BODY
10
5824
20
3422.5
11
5786
21
3422.5
0
LINE
8
BODY
10
5786
20
3422.5
11
5786
21
3277.5
0
LINE
8
BODY
10
4030
20
3545
11
4060
21
3545
0
LINE
8
BODY
10
4060
20
3545
11
4060
21
3585
0
LINE
8
BODY
10
4060
20
3585
11
4030
21
3585
0
LINE
8
BODY
10
4030
20
3585
11
4030
21
3545
0
LINE
8
BODY
10
5790
20
3545
11
5820
21
3545
0
LINE
8
BODY
10
5820
20
3545
11
5820
21
3585
0
LINE
8
BODY
10
5820
20
3585
11
5790
21
3585
0
LINE
8
BODY
10
5790
20
3585
11
5790
21
3545
0
LINE
8
ENGINE_BAY
10
4790
20
3220
11
5210
21
3220
0
LINE
8
ENGINE_BAY
10
5210
20
3220
11
5210
21
3650
0
LINE
8
ENGINE_BAY
10
5210
20
3650
11
4790
21
3650
0
LINE
8
ENGINE_BAY
10
4790
20
3650
11
4790
21
3220
0
LINE
8
ENGINE_BAY
10
4910
20
3580
11
5090
21
3580
0
LINE
8
ENGINE_BAY
10
5090
20
3580
11
5090
21
3650
0
LINE
8
ENGINE_BAY
10
5090
20
3650
11
4910
21
3650
0
LINE
8
ENGINE_BAY
10
4910
20
3650
11
4910
21
3580
0
LINE
8
ENGINE_BAY
10
4510
20
3320
11
5490
21
3320
0
LINE
8
ENGINE_BAY
10
5490
20
3320
11
5490
21
3840
0
LINE
8
ENGINE_BAY
10
5490
20
3840
11
4510
21
3840
0
LINE
8
ENGINE_BAY
10
4510
20
3840
11
4510
21
3320
0
LINE
8
ENGINE_BAY
10
4660
20
3620
11
4870
21
3620
0
LINE
8
ENGINE_BAY
10
4870
20
3620
11
4870
21
3770
0
LINE
8
ENGINE_BAY
10
4870
20
3770
11
4660
21
3770
0
LINE
8
ENGINE_BAY
10
4660
20
3770
11
4660
21
3620
0
LINE
8
ENGINE_BAY
10
5320
20
3260
11
5540
21
3260
0
LINE
8
ENGINE_BAY
10
5540
20
3260
11
5540
21
3480
0
LINE
8
ENGINE_BAY
10
5540
20
3480
11
5320
21
3480
0
LINE
8
ENGINE_BAY
10
5320
20
3480
11
5320
21
3260
0
LINE
8
ENGINE_BAY
10
4812
20
3570
11
4858
21
3570
0
LINE
8
ENGINE_BAY
10
4858
20
3570
11
4858
21
3750
0
LINE
8
ENGINE_BAY
10
4858
20
3750
11
4812
21
3750
0
LINE
8
ENGINE_BAY
10
4812
20
3750
11
4812
21
3570
0
LINE
8
ENGINE_BAY
10
4878
20
3570
11
4924
21
3570
0
LINE
8
ENGINE_BAY
10
4924
20
3570
11
4924
21
3750
0
LINE
8
ENGINE_BAY
10
4924
20
3750
11
4878
21
3750
0
LINE
8
ENGINE_BAY
10
4878
20
3750
11
4878
21
3570
0
LINE
8
ENGINE_BAY
10
4944
20
3570
11
4990
21
3570
0
LINE
8
ENGINE_BAY
10
4990
20
3570
11
4990
21
3750
0
LINE
8
ENGINE_BAY
10
4990
20
3750
11
4944
21
3750
0
LINE
8
ENGINE_BAY
10
4944
20
3750
11
4944
21
3570
0
LINE
8
ENGINE_BAY
10
5010
20
3570
11
5056
21
3570
0
LINE
8
ENGINE_BAY
10
5056
20
3570
11
5056
21
3750
0
LINE
8
ENGINE_BAY
10
5056
20
3750
11
5010
21
3750
0
LINE
8
ENGINE_BAY
10
5010
20
3750
11
5010
21
3570
0
LINE
8
ENGINE_BAY
10
5076
20
3570
11
5122
21
3570
0
LINE
8
ENGINE_BAY
10
5122
20
3570
11
5122
21
3750
0
LINE
8
ENGINE_BAY
10
5122
20
3750
11
5076
21
3750
0
LINE
8
ENGINE_BAY
10
5076
20
3750
11
5076
21
3570
0
LINE
8
ENGINE_BAY
10
5142
20
3570
11
5188
21
3570
0
LINE
8
ENGINE_BAY
10
5188
20
3570
11
5188
21
3750
0
LINE
8
ENGINE_BAY
10
5188
20
3750
11
5142
21
3750
0
LINE
8
ENGINE_BAY
10
5142
20
3750
11
5142
21
3570
0
LINE
8
ENGINE_BAY
10
4779
20
3574
11
4851
21
3574
0
LINE
8
ENGINE_BAY
10
4851
20
3574
11
4851
21
3646
0
LINE
8
ENGINE_BAY
10
4851
20
3646
11
4779
21
3646
0
LINE
8
ENGINE_BAY
10
4779
20
3646
11
4779
21
3574
0
LINE
8
ENGINE_BAY
10
5214
20
3115
11
5296
21
3115
0
LINE
8
ENGINE_BAY
10
5296
20
3115
11
5296
21
3575
0
LINE
8
ENGINE_BAY
10
5296
20
3575
11
5214
21
3575
0
LINE
8
ENGINE_BAY
10
5214
20
3575
11
5214
21
3115
0
LINE
8
INTERIOR
10
4340
20
3580
11
5660
21
3580
0
LINE
8
INTERIOR
10
5660
20
3580
11
5660
21
3800
0
LINE
8
INTERIOR
10
5660
20
3800
11
4340
21
3800
0
LINE
8
INTERIOR
10
4340
20
3800
11
4340
21
3580
0
LINE
8
INTERIOR
10
4610
20
3435
11
4670
21
3435
0
LINE
8
INTERIOR
10
4670
20
3435
11
4670
21
3495
0
LINE
8
INTERIOR
10
4670
20
3495
11
4610
21
3495
0
LINE
8
INTERIOR
10
4610
20
3495
11
4610
21
3435
0
LINE
8
INTERIOR
10
4390
20
3520
11
4770
21
3520
0
LINE
8
INTERIOR
10
4770
20
3520
11
4770
21
3900
0
LINE
8
INTERIOR
10
4770
20
3900
11
4390
21
3900
0
LINE
8
INTERIOR
10
4390
20
3900
11
4390
21
3520
0
LINE
8
INTERIOR
10
4512.5
20
3642.5
11
4647.5
21
3642.5
0
LINE
8
INTERIOR
10
4647.5
20
3642.5
11
4647.5
21
3777.5
0
LINE
8
INTERIOR
10
4647.5
20
3777.5
11
4512.5
21
3777.5
0
LINE
8
INTERIOR
10
4512.5
20
3777.5
11
4512.5
21
3642.5
0
LINE
8
INTERIOR
10
4404
20
3639
11
4476
21
3639
0
LINE
8
INTERIOR
10
4476
20
3639
11
4476
21
3711
0
LINE
8
INTERIOR
10
4476
20
3711
11
4404
21
3711
0
LINE
8
INTERIOR
10
4404
20
3711
11
4404
21
3639
0
LINE
8
INTERIOR
10
4494
20
3639
11
4566
21
3639
0
LINE
8
INTERIOR
10
4566
20
3639
11
4566
21
3711
0
LINE
8
INTERIOR
10
4566
20
3711
11
4494
21
3711
0
LINE
8
INTERIOR
10
4494
20
3711
11
4494
21
3639
0
LINE
8
INTERIOR
10
4584
20
3639
11
4656
21
3639
0
LINE
8
INTERIOR
10
4656
20
3639
11
4656
21
3711
0
LINE
8
INTERIOR
10
4656
20
3711
11
4584
21
3711
0
LINE
8
INTERIOR
10
4584
20
3711
11
4584
21
3639
0
LINE
8
INTERIOR
10
4674
20
3639
11
4746
21
3639
0
LINE
8
INTERIOR
10
4746
20
3639
11
4746
21
3711
0
LINE
8
INTERIOR
10
4746
20
3711
11
4674
21
3711
0
LINE
8
INTERIOR
10
4674
20
3711
11
4674
21
3639
0
LINE
8
INTERIOR
10
4862
20
3177.5
11
4898
21
3177.5
0
LINE
8
INTERIOR
10
4898
20
3177.5
11
4898
21
3462.5
0
LINE
8
INTERIOR
10
4898
20
3462.5
11
4862
21
3462.5
0
LINE
8
INTERIOR
10
4862
20
3462.5
11
4862
21
3177.5
0
LINE
8
INTERIOR
10
4946
20
3155
11
4984
21
3155
0
LINE
8
INTERIOR
10
4984
20
3155
11
4984
21
3485
0
LINE
8
INTERIOR
10
4984
20
3485
11
4946
21
3485
0
LINE
8
INTERIOR
10
4946
20
3485
11
4946
21
3155
0
LINE
8
INTERIOR
10
4485
20
3200
11
4895
21
3200
0
LINE
8
INTERIOR
10
4895
20
3200
11
4895
21
3330
0
LINE
8
INTERIOR
10
4895
20
3330
11
4485
21
3330
0
LINE
8
INTERIOR
10
4485
20
3330
11
4485
21
3200
0
LINE
8
INTERIOR
10
4485
20
3320
11
4895
21
3320
0
LINE
8
INTERIOR
10
4895
20
3320
11
4895
21
3940
0
LINE
8
INTERIOR
10
4895
20
3940
11
4485
21
3940
0
LINE
8
INTERIOR
10
4485
20
3940
11
4485
21
3320
0
LINE
8
INTERIOR
10
4540
20
3860
11
4840
21
3860
0
LINE
8
INTERIOR
10
4840
20
3860
11
4840
21
4010
0
LINE
8
INTERIOR
10
4840
20
4010
11
4540
21
4010
0
LINE
8
INTERIOR
10
4540
20
4010
11
4540
21
3860
0
LINE
8
INTERIOR
10
5105
20
3200
11
5515
21
3200
0
LINE
8
INTERIOR
10
5515
20
3200
11
5515
21
3330
0
LINE
8
INTERIOR
10
5515
20
3330
11
5105
21
3330
0
LINE
8
INTERIOR
10
5105
20
3330
11
5105
21
3200
0
LINE
8
INTERIOR
10
5105
20
3320
11
5515
21
3320
0
LINE
8
INTERIOR
10
5515
20
3320
11
5515
21
3940
0
LINE
8
INTERIOR
10
5515
20
3940
11
5105
21
3940
0
LINE
8
INTERIOR
10
5105
20
3940
11
5105
21
3320
0
LINE
8
INTERIOR
10
5160
20
3860
11
5460
21
3860
0
LINE
8
INTERIOR
10
5460
20
3860
11
5460
21
4010
0
LINE
8
INTERIOR
10
5460
20
4010
11
5160
21
4010
0
LINE
8
INTERIOR
10
5160
20
4010
11
5160
21
3860
0
LINE
8
INTERIOR
10
4460
20
3220
11
5540
21
3220
0
LINE
8
INTERIOR
10
5540
20
3220
11
5540
21
3355
0
LINE
8
INTERIOR
10
5540
20
3355
11
4460
21
3355
0
LINE
8
INTERIOR
10
4460
20
3355
11
4460
21
3220
0
LINE
8
INTERIOR
10
4460
20
3340
11
5540
21
3340
0
LINE
8
INTERIOR
10
5540
20
3340
11
5540
21
3900
0
LINE
8
INTERIOR
10
5540
20
3900
11
4460
21
3900
0
LINE
8
INTERIOR
10
4460
20
3900
11
4460
21
3340
0
LINE
8
INTERIOR
10
4515
20
3820
11
4785
21
3820
0
LINE
8
INTERIOR
10
4785
20
3820
11
4785
21
3960
0
LINE
8
INTERIOR
10
4785
20
3960
11
4515
21
3960
0
LINE
8
INTERIOR
10
4515
20
3960
11
4515
21
3820
0
LINE
8
INTERIOR
10
5215
20
3820
11
5485
21
3820
0
LINE
8
INTERIOR
10
5485
20
3820
11
5485
21
3960
0
LINE
8
INTERIOR
10
5485
20
3960
11
5215
21
3960
0
LINE
8
INTERIOR
10
5215
20
3960
11
5215
21
3820
0
LINE
8
OVERALL
10
4167.5
20
2500
11
5832.5
21
2500
0
LINE
8
OVERALL
10
5832.5
20
2500
11
5832.5
21
4450
0
LINE
8
OVERALL
10
5832.5
20
4450
11
4167.5
21
4450
0
LINE
8
OVERALL
10
4167.5
20
4450
11
4167.5
21
2500
0
ENDSEC
0
EOF