0
SECTION
2
HEADER
9
$INSUNITS
70
4
0
ENDSEC
0
SECTION
2
ENTITIES
0
LWPOLYLINE
8
CUT
90
28
70
1
10
472.000
20
0.000
10
474.071
20
0.273
10
476.000
20
1.072
10
477.657
20
2.343
10
478.928
20
4.000
10
479.727
20
5.929
10
480.000
20
8.000
10
480.000
20
312.000
10
479.727
20
314.071
10
478.928
20
316.000
10
477.657
20
317.657
10
476.000
20
318.928
10
474.071
20
319.727
10
472.000
20
320.000
10
8.000
20
320.000
10
5.929
20
319.727
10
4.000
20
318.928
10
2.343
20
317.657
10
1.072
20
316.000
10
0.273
20
314.071
10
0.000
20
312.000
10
0.000
20
8.000
10
0.273
20
5.929
10
1.072
20
4.000
10
2.343
20
2.343
10
4.000
20
1.072
10
5.929
20
0.273
10
8.000
20
0.000
0
LWPOLYLINE
8
CUT
90
28
70
1
10
381.000
20
124.000
10
382.035
20
124.136
10
383.000
20
124.536
10
383.828
20
125.172
10
384.464
20
126.000
10
384.864
20
126.965
10
385.000
20
128.000
10
385.000
20
300.000
10
384.864
20
301.035
10
384.464
20
302.000
10
383.828
20
302.828
10
383.000
20
303.464
10
382.035
20
303.864
10
381.000
20
304.000
10
99.000
20
304.000
10
97.965
20
303.864
10
97.000
20
303.464
10
96.172
20
302.828
10
95.536
20
302.000
10
95.136
20
301.035
10
95.000
20
300.000
10
95.000
20
128.000
10
95.136
20
126.965
10
95.536
20
126.000
10
96.172
20
125.172
10
97.000
20
124.536
10
97.965
20
124.136
10
99.000
20
124.000
0
LWPOLYLINE
8
CUT
90
28
70
1
10
224.000
20
49.000
10
224.776
20
49.102
10
225.500
20
49.402
10
226.121
20
49.879
10
226.598
20
50.500
10
226.898
20
51.224
10
227.000
20
52.000
10
227.000
20
108.000
10
226.898
20
108.776
10
226.598
20
109.500
10
226.121
20
110.121
10
225.500
20
110.598
10
224.776
20
110.898
10
224.000
20
111.000
10
85.000
20
111.000
10
84.224
20
110.898
10
83.500
20
110.598
10
82.879
20
110.121
10
82.402
20
109.500
10
82.102
20
108.776
10
82.000
20
108.000
10
82.000
20
52.000
10
82.102
20
51.224
10
82.402
20
50.500
10
82.879
20
49.879
10
83.500
20
49.402
10
84.224
20
49.102
10
85.000
20
49.000
0
LWPOLYLINE
8
CUT
90
28
70
1
10
395.000
20
49.000
10
395.776
20
49.102
10
396.500
20
49.402
10
397.121
20
49.879
10
397.598
20
50.500
10
397.898
20
51.224
10
398.000
20
52.000
10
398.000
20
108.000
10
397.898
20
108.776
10
397.598
20
109.500
10
397.121
20
110.121
10
396.500
20
110.598
10
395.776
20
110.898
10
395.000
20
111.000
10
256.000
20
111.000
10
255.224
20
110.898
10
254.500
20
110.598
10
253.879
20
110.121
10
253.402
20
109.500
10
253.102
20
108.776
10
253.000
20
108.000
10
253.000
20
52.000
10
253.102
20
51.224
10
253.402
20
50.500
10
253.879
20
49.879
10
254.500
20
49.402
10
255.224
20
49.102
10
256.000
20
49.000
0
CIRCLE
8
CUT
10
90.000
20
119.000
30
0
40
2.250
0
CIRCLE
8
CUT
10
390.000
20
119.000
30
0
40
2.250
0
CIRCLE
8
CUT
10
90.000
20
309.000
30
0
40
2.250
0
CIRCLE
8
CUT
10
390.000
20
309.000
30
0
40
2.250
0
CIRCLE
8
CUT
10
77.000
20
44.000
30
0
40
2.250
0
CIRCLE
8
CUT
10
232.000
20
44.000
30
0
40
2.250
0
CIRCLE
8
CUT
10
77.000
20
116.000
30
0
40
2.250
0
CIRCLE
8
CUT
10
232.000
20
116.000
30
0
40
2.250
0
CIRCLE
8
CUT
10
248.000
20
44.000
30
0
40
2.250
0
CIRCLE
8
CUT
10
403.000
20
44.000
30
0
40
2.250
0
CIRCLE
8
CUT
10
248.000
20
116.000
30
0
40
2.250
0
CIRCLE
8
CUT
10
403.000
20
116.000
30
0
40
2.250
0
CIRCLE
8
CUT
10
18.000
20
18.000
30
0
40
2.750
0
CIRCLE
8
CUT
10
240.000
20
18.000
30
0
40
2.750
0
CIRCLE
8
CUT
10
462.000
20
18.000
30
0
40
2.750
0
CIRCLE
8
CUT
10
18.000
20
160.000
30
0
40
2.750
0
CIRCLE
8
CUT
10
462.000
20
160.000
30
0
40
2.750
0
CIRCLE
8
CUT
10
18.000
20
302.000
30
0
40
2.750
0
CIRCLE
8
CUT
10
240.000
20
302.000
30
0
40
2.750
0
CIRCLE
8
CUT
10
462.000
20
302.000
30
0
40
2.750
0
CIRCLE
8
CUT
10
185.000
20
25.000
30
0
40
11.250
0
CIRCLE
8
CUT
10
295.000
20
25.000
30
0
40
11.250
0
CIRCLE
8
CUT
10
240.000
20
25.000
30
0
40
8.100
0
ENDSEC
0
EOF
