0
SECTION
2
HEADER
9
$INSUNITS
70
4
0
ENDSEC
0
SECTION
2
ENTITIES
0
LWPOLYLINE
8
CUT
90
28
70
1
10
454.000
20
0.000
10
455.553
20
0.204
10
457.000
20
0.804
10
458.243
20
1.757
10
459.196
20
3.000
10
459.796
20
4.447
10
460.000
20
6.000
10
460.000
20
294.000
10
459.796
20
295.553
10
459.196
20
297.000
10
458.243
20
298.243
10
457.000
20
299.196
10
455.553
20
299.796
10
454.000
20
300.000
10
6.000
20
300.000
10
4.447
20
299.796
10
3.000
20
299.196
10
1.757
20
298.243
10
0.804
20
297.000
10
0.204
20
295.553
10
0.000
20
294.000
10
0.000
20
6.000
10
0.204
20
4.447
10
0.804
20
3.000
10
1.757
20
1.757
10
3.000
20
0.804
10
4.447
20
0.204
10
6.000
20
0.000
0
LWPOLYLINE
8
CUT
90
28
70
1
10
437.000
20
20.000
10
437.776
20
20.102
10
438.500
20
20.402
10
439.121
20
20.879
10
439.598
20
21.500
10
439.898
20
22.224
10
440.000
20
23.000
10
440.000
20
277.000
10
439.898
20
277.776
10
439.598
20
278.500
10
439.121
20
279.121
10
438.500
20
279.598
10
437.776
20
279.898
10
437.000
20
280.000
10
23.000
20
280.000
10
22.224
20
279.898
10
21.500
20
279.598
10
20.879
20
279.121
10
20.402
20
278.500
10
20.102
20
277.776
10
20.000
20
277.000
10
20.000
20
23.000
10
20.102
20
22.224
10
20.402
20
21.500
10
20.879
20
20.879
10
21.500
20
20.402
10
22.224
20
20.102
10
23.000
20
20.000
0
CIRCLE
8
CUT
10
10.000
20
10.000
30
0
40
3.250
0
CIRCLE
8
CUT
10
230.000
20
10.000
30
0
40
3.250
0
CIRCLE
8
CUT
10
450.000
20
10.000
30
0
40
3.250
0
CIRCLE
8
CUT
10
10.000
20
150.000
30
0
40
3.250
0
CIRCLE
8
CUT
10
450.000
20
150.000
30
0
40
3.250
0
CIRCLE
8
CUT
10
10.000
20
290.000
30
0
40
3.250
0
CIRCLE
8
CUT
10
230.000
20
290.000
30
0
40
3.250
0
CIRCLE
8
CUT
10
450.000
20
290.000
30
0
40
3.250
0
ENDSEC
0
EOF
