0
SECTION
2
HEADER
9
$INSUNITS
70
4
0
ENDSEC
0
SECTION
2
ENTITIES
0
LWPOLYLINE
8
CUT
90
28
70
1
10
162.000
20
0.000
10
162.776
20
0.102
10
163.500
20
0.402
10
164.121
20
0.879
10
164.598
20
1.500
10
164.898
20
2.224
10
165.000
20
3.000
10
165.000
20
79.000
10
164.898
20
79.776
10
164.598
20
80.500
10
164.121
20
81.121
10
163.500
20
81.598
10
162.776
20
81.898
10
162.000
20
82.000
10
3.000
20
82.000
10
2.224
20
81.898
10
1.500
20
81.598
10
0.879
20
81.121
10
0.402
20
80.500
10
0.102
20
79.776
10
0.000
20
79.000
10
0.000
20
3.000
10
0.102
20
2.224
10
0.402
20
1.500
10
0.879
20
0.879
10
1.500
20
0.402
10
2.224
20
0.102
10
3.000
20
0.000
0
CIRCLE
8
CUT
10
5.000
20
5.000
30
0
40
2.250
0
CIRCLE
8
CUT
10
160.000
20
5.000
30
0
40
2.250
0
CIRCLE
8
CUT
10
5.000
20
77.000
30
0
40
2.250
0
CIRCLE
8
CUT
10
160.000
20
77.000
30
0
40
2.250
0
LWPOLYLINE
8
HOLD_VENT_APERTURE
90
28
70
1
10
143.000
20
16.000
10
143.518
20
16.068
10
144.000
20
16.268
10
144.414
20
16.586
10
144.732
20
17.000
10
144.932
20
17.482
10
145.000
20
18.000
10
145.000
20
64.000
10
144.932
20
64.518
10
144.732
20
65.000
10
144.414
20
65.414
10
144.000
20
65.732
10
143.518
20
65.932
10
143.000
20
66.000
10
22.000
20
66.000
10
21.482
20
65.932
10
21.000
20
65.732
10
20.586
20
65.414
10
20.268
20
65.000
10
20.068
20
64.518
10
20.000
20
64.000
10
20.000
20
18.000
10
20.068
20
17.482
10
20.268
20
17.000
10
20.586
20
16.586
10
21.000
20
16.268
10
21.482
20
16.068
10
22.000
20
16.000
0
ENDSEC
0
EOF
