0
SECTION
2
HEADER
9
$INSUNITS
70
4
0
ENDSEC
0
SECTION
2
ENTITIES
0
LWPOLYLINE
8
CUT
90
28
70
1
10
306.000
20
0.000
10
307.035
20
0.136
10
308.000
20
0.536
10
308.828
20
1.172
10
309.464
20
2.000
10
309.864
20
2.965
10
310.000
20
4.000
10
310.000
20
196.000
10
309.864
20
197.035
10
309.464
20
198.000
10
308.828
20
198.828
10
308.000
20
199.464
10
307.035
20
199.864
10
306.000
20
200.000
10
4.000
20
200.000
10
2.965
20
199.864
10
2.000
20
199.464
10
1.172
20
198.828
10
0.536
20
198.000
10
0.136
20
197.035
10
0.000
20
196.000
10
0.000
20
4.000
10
0.136
20
2.965
10
0.536
20
2.000
10
1.172
20
1.172
10
2.000
20
0.536
10
2.965
20
0.136
10
4.000
20
0.000
0
CIRCLE
8
CUT
10
5.000
20
5.000
30
0
40
2.250
0
CIRCLE
8
CUT
10
305.000
20
5.000
30
0
40
2.250
0
CIRCLE
8
CUT
10
5.000
20
195.000
30
0
40
2.250
0
CIRCLE
8
CUT
10
305.000
20
195.000
30
0
40
2.250
0
LWPOLYLINE
8
HOLD_SCREEN_APERTURE
90
28
70
1
10
269.500
20
32.500
10
270.018
20
32.568
10
270.500
20
32.768
10
270.914
20
33.086
10
271.232
20
33.500
10
271.432
20
33.982
10
271.500
20
34.500
10
271.500
20
165.500
10
271.432
20
166.018
10
271.232
20
166.500
10
270.914
20
166.914
10
270.500
20
167.232
10
270.018
20
167.432
10
269.500
20
167.500
10
40.500
20
167.500
10
39.982
20
167.432
10
39.500
20
167.232
10
39.086
20
166.914
10
38.768
20
166.500
10
38.568
20
166.018
10
38.500
20
165.500
10
38.500
20
34.500
10
38.568
20
33.982
10
38.768
20
33.500
10
39.086
20
33.086
10
39.500
20
32.768
10
39.982
20
32.568
10
40.500
20
32.500
0
ENDSEC
0
EOF
