<svg xmlns="http://www.w3.org/2000/svg" width="920" height="620" viewBox="0 0 920 620" role="img">
  <style>
    .background { fill: #f6f7f8; }
    .shadow { fill: #d8dde2; opacity: 0.7; }
    .title { font: 700 26px Arial, sans-serif; fill: #202a33; }
    .subtitle, .label { font: 16px Arial, sans-serif; fill: #4f5d68; }
    .box-top-0 { fill: #202a33; stroke: #38434c; stroke-width: 1.1; }.box-side-0, .box-front-0 { fill: #11181e; stroke: #38434c; stroke-width: 1; }<polygon class="box-side-0" points="339.0,-96.6 292.9,-76.1 292.9,-406.1 339.0,-426.6" />.box-top-1 { fill: #2d3942; stroke: #38434c; stroke-width: 1.1; }.box-side-1, .box-front-1 { fill: #1c252b; stroke: #38434c; stroke-width: 1; }<polygon class="box-side-1" points="341.2,-102.0 335.4,-99.4 335.4,-414.0 341.2,-416.6" />.box-top-2 { fill: #202a33; stroke: #38434c; stroke-width: 1.1; }.box-side-2, .box-front-2 { fill: #11181e; stroke: #38434c; stroke-width: 1; }<polygon class="box-side-2" points="331.4,-109.2 327.8,-107.6 327.8,-382.6 331.4,-384.2" />.box-top-3 { fill: #c51f1f; stroke: #38434c; stroke-width: 1.1; }.box-side-3, .box-front-3 { fill: #8c1515; stroke: #38434c; stroke-width: 1; }<polygon class="box-side-3" points="286.8,-326.4 256.6,-313.0 256.6,-363.6 286.8,-377.0" />.box-top-4 { fill: #c51f1f; stroke: #38434c; stroke-width: 1.1; }.box-side-4, .box-front-4 { fill: #8c1515; stroke: #38434c; stroke-width: 1; }<polygon class="box-side-4" points="347.3,-299.5 317.0,-286.1 317.0,-336.7 347.3,-350.1" />.box-top-5 { fill: #161a1d; stroke: #38434c; stroke-width: 1.1; }.box-side-5, .box-front-5 { fill: #080a0c; stroke: #38434c; stroke-width: 1; }<polygon class="box-side-5" points="382.6,-4.1 365.3,3.6 365.3,-33.8 382.6,-41.5" />.box-top-6 { fill: #161a1d; stroke: #38434c; stroke-width: 1.1; }.box-side-6, .box-front-6 { fill: #080a0c; stroke: #38434c; stroke-width: 1; }<polygon class="box-side-6" points="343.7,-349.5 313.4,-336.1 313.4,-382.3 343.7,-395.7" />.box-top-7 { fill: #c1cbd3; stroke: #38434c; stroke-width: 1.1; }.box-side-7, .box-front-7 { fill: #8d99a4; stroke: #38434c; stroke-width: 1; }<polygon class="box-side-7" points="602.9,118.6 523.7,153.8 523.7,147.2 602.9,112.0" />.box-top-8 { fill: #c1cbd3; stroke: #38434c; stroke-width: 1.1; }.box-side-8, .box-front-8 { fill: #8d99a4; stroke: #38434c; stroke-width: 1; }<polygon class="box-side-8" points="480.5,48.8 401.3,84.0 401.3,53.2 480.5,18.0" />.box-top-9 { fill: #c1cbd3; stroke: #38434c; stroke-width: 1.1; }.box-side-9, .box-front-9 { fill: #8d99a4; stroke: #38434c; stroke-width: 1; }<polygon class="box-side-9" points="608.6,105.8 529.4,141.0 529.4,110.2 608.6,75.0" />.box-top-10 { fill: #202a33; stroke: #38434c; stroke-width: 1.1; }.box-side-10, .box-front-10 { fill: #11181e; stroke: #38434c; stroke-width: 1; }<polygon class="box-side-10" points="551.8,86.8 511.4,104.7 511.4,67.3 551.8,49.4" />.box-top-11 { fill: #2d3942; stroke: #38434c; stroke-width: 1.1; }.box-side-11, .box-front-11 { fill: #1c252b; stroke: #38434c; stroke-width: 1; }<polygon class="box-side-11" points="543.8,64.0 512.2,78.1 512.2,70.4 543.8,56.3" />.box-top-12 { fill: #b7302a; stroke: #38434c; stroke-width: 1.1; }.box-side-12, .box-front-12 { fill: #7e1e1a; stroke: #38434c; stroke-width: 1; }<polygon class="box-side-12" points="512.2,53.3 505.0,56.5 505.0,48.8 512.2,45.6" />.box-top-13 { fill: #b7302a; stroke: #38434c; stroke-width: 1.1; }.box-side-13, .box-front-13 { fill: #7e1e1a; stroke: #38434c; stroke-width: 1; }<polygon class="box-side-13" points="543.1,53.0 536.6,55.9 536.6,50.4 543.1,47.5" />.box-top-14 { fill: #d4d8dc; stroke: #38434c; stroke-width: 1.1; }.box-side-14, .box-front-14 { fill: #9aa3aa; stroke: #38434c; stroke-width: 1; }<polygon class="box-side-14" points="514.3,33.9 501.4,39.6 501.4,35.2 514.3,29.5" />.box-top-15 { fill: #d4d8dc; stroke: #38434c; stroke-width: 1.1; }.box-side-15, .box-front-15 { fill: #9aa3aa; stroke: #38434c; stroke-width: 1; }<polygon class="box-side-15" points="521.5,76.7 508.6,82.5 508.6,78.1 521.5,72.3" />.box-top-16 { fill: #c51f1f; stroke: #38434c; stroke-width: 1.1; }.box-side-16, .box-front-16 { fill: #8c1515; stroke: #38434c; stroke-width: 1; }<polygon class="box-side-16" points="507.8,42.0 493.4,48.4 493.4,28.6 507.8,22.2" />.box-top-17 { fill: #161a1d; stroke: #38434c; stroke-width: 1.1; }.box-side-17, .box-front-17 { fill: #080a0c; stroke: #38434c; stroke-width: 1; }<polygon class="box-side-17" points="536.6,108.6 522.2,115.0 522.2,95.2 536.6,88.8" />.box-top-18 { fill: #c1cbd3; stroke: #38434c; stroke-width: 1.1; }.box-side-18, .box-front-18 { fill: #8d99a4; stroke: #38434c; stroke-width: 1; }<polygon class="box-side-18" points="721.3,205.8 602.5,258.6 602.5,252.0 721.3,199.2" />.box-top-19 { fill: #c1cbd3; stroke: #38434c; stroke-width: 1.1; }.box-side-19, .box-front-19 { fill: #8d99a4; stroke: #38434c; stroke-width: 1; }<polygon class="box-side-19" points="724.6,169.1 720.2,171.1 720.2,99.6 724.6,97.6" />.box-top-20 { fill: #c1cbd3; stroke: #38434c; stroke-width: 1.1; }.box-side-20, .box-front-20 { fill: #8d99a4; stroke: #38434c; stroke-width: 1; }<polygon class="box-side-20" points="603.6,222.9 599.3,224.8 599.3,153.3 603.6,151.4" />.box-top-21 { fill: #c1cbd3; stroke: #38434c; stroke-width: 1.1; }.box-side-21, .box-front-21 { fill: #8d99a4; stroke: #38434c; stroke-width: 1; }<polygon class="box-side-21" points="570.1,103.4 451.3,156.2 451.3,84.7 570.1,31.9" />.box-top-22 { fill: #c1cbd3; stroke: #38434c; stroke-width: 1.1; }.box-side-22, .box-front-22 { fill: #8d99a4; stroke: #38434c; stroke-width: 1; }<polygon class="box-side-22" points="725.6,172.5 606.8,225.3 606.8,153.8 725.6,101.0" />.box-top-23 { fill: #c1cbd3; stroke: #38434c; stroke-width: 1.1; }.box-side-23, .box-front-23 { fill: #8d99a4; stroke: #38434c; stroke-width: 1; }<polygon class="box-side-23" points="820.7,48.1 687.5,107.3 687.5,100.7 820.7,41.5" />.box-top-24 { fill: #d4d8dc; stroke: #38434c; stroke-width: 1.1; }.box-side-24, .box-front-24 { fill: #9aa3aa; stroke: #38434c; stroke-width: 1; }<polygon class="box-side-24" points="719.5,121.1 713.8,123.6 713.8,114.8 719.5,112.3" />.box-top-25 { fill: #d4d8dc; stroke: #38434c; stroke-width: 1.1; }.box-side-25, .box-front-25 { fill: #9aa3aa; stroke: #38434c; stroke-width: 1; }<polygon class="box-side-25" points="556.1,164.9 550.3,167.5 550.3,158.7 556.1,156.1" />.box-top-26 { fill: #161a1d; stroke: #38434c; stroke-width: 1.1; }.box-side-26, .box-front-26 { fill: #080a0c; stroke: #38434c; stroke-width: 1; }<polygon class="box-side-26" points="682.1,137.6 676.3,140.2 676.3,118.2 682.1,115.6" />.box-top-27 { fill: #161a1d; stroke: #38434c; stroke-width: 1.1; }.box-side-27, .box-front-27 { fill: #080a0c; stroke: #38434c; stroke-width: 1; }<polygon class="box-side-27" points="576.2,204.5 570.5,207.1 570.5,180.7 576.2,178.1" />.box-top-28 { fill: #161a1d; stroke: #38434c; stroke-width: 1.1; }.box-side-28, .box-front-28 { fill: #080a0c; stroke: #38434c; stroke-width: 1; }<polygon class="box-side-28" points="494.2,168.0 488.4,170.6 488.4,150.8 494.2,148.2" />.box-top-29 { fill: #161a1d; stroke: #38434c; stroke-width: 1.1; }.box-side-29, .box-front-29 { fill: #080a0c; stroke: #38434c; stroke-width: 1; }<polygon class="box-side-29" points="513.6,176.7 507.8,179.2 507.8,159.4 513.6,156.9" />.box-top-30 { fill: #161a1d; stroke: #38434c; stroke-width: 1.1; }.box-side-30, .box-front-30 { fill: #080a0c; stroke: #38434c; stroke-width: 1; }<polygon class="box-side-30" points="533.0,185.3 527.3,187.9 527.3,168.1 533.0,165.5" />.box-top-31 { fill: #161a1d; stroke: #38434c; stroke-width: 1.1; }.box-side-31, .box-front-31 { fill: #080a0c; stroke: #38434c; stroke-width: 1; }<polygon class="box-side-31" points="552.5,193.9 546.7,196.5 546.7,176.7 552.5,174.1" />.box-top-32 { fill: #111820; stroke: #38434c; stroke-width: 1.1; }.box-side-32, .box-front-32 { fill: #080c10; stroke: #38434c; stroke-width: 1; }<polygon class="box-side-32" points="667.3,195.3 606.1,222.5 606.1,209.3 667.3,182.1" />.box-top-33 { fill: #c8a451; stroke: #38434c; stroke-width: 1.1; }.box-side-33, .box-front-33 { fill: #8c6d2a; stroke: #38434c; stroke-width: 1; }<polygon class="box-side-33" points="669.8,130.9 661.2,134.8 661.2,123.8 669.8,119.9" />.box-top-34 { fill: #111820; stroke: #38434c; stroke-width: 1.1; }.box-side-34, .box-front-34 { fill: #080c10; stroke: #38434c; stroke-width: 1; }<polygon class="box-side-34" points="586.0,144.7 526.9,170.9 526.9,151.1 586.0,124.9" />.box-top-35 { fill: #b7302a; stroke: #38434c; stroke-width: 1.1; }.box-side-35, .box-front-35 { fill: #7e1e1a; stroke: #38434c; stroke-width: 1; }<polygon class="box-side-35" points="582.0,124.1 530.2,147.2 530.2,118.6 582.0,95.5" />.box-top-36 { fill: #111820; stroke: #38434c; stroke-width: 1.1; }.box-side-36, .box-front-36 { fill: #080c10; stroke: #38434c; stroke-width: 1; }<polygon class="box-side-36" points="576.2,139.5 563.3,145.2 563.3,136.4 576.2,130.7" />.box-top-37 { fill: #111820; stroke: #38434c; stroke-width: 1.1; }.box-side-37, .box-front-37 { fill: #080c10; stroke: #38434c; stroke-width: 1; }<polygon class="box-side-37" points="540.2,177.2 527.3,183.0 527.3,174.2 540.2,168.4" />.box-top-38 { fill: #111820; stroke: #38434c; stroke-width: 1.1; }.box-side-38, .box-front-38 { fill: #080c10; stroke: #38434c; stroke-width: 1; }<polygon class="box-side-38" points="605.4,153.3 546.4,179.6 546.4,159.8 605.4,133.5" />.box-top-39 { fill: #b7302a; stroke: #38434c; stroke-width: 1.1; }.box-side-39, .box-front-39 { fill: #7e1e1a; stroke: #38434c; stroke-width: 1; }<polygon class="box-side-39" points="601.4,132.8 549.6,155.8 549.6,127.2 601.4,104.2" />.box-top-40 { fill: #111820; stroke: #38434c; stroke-width: 1.1; }.box-side-40, .box-front-40 { fill: #080c10; stroke: #38434c; stroke-width: 1; }<polygon class="box-side-40" points="595.7,148.1 582.7,153.9 582.7,145.1 595.7,139.3" />.box-top-41 { fill: #111820; stroke: #38434c; stroke-width: 1.1; }.box-side-41, .box-front-41 { fill: #080c10; stroke: #38434c; stroke-width: 1; }<polygon class="box-side-41" points="559.7,185.9 546.7,191.6 546.7,182.8 559.7,177.1" />.box-top-42 { fill: #111820; stroke: #38434c; stroke-width: 1.1; }.box-side-42, .box-front-42 { fill: #080c10; stroke: #38434c; stroke-width: 1; }<polygon class="box-side-42" points="624.8,162.0 565.8,188.2 565.8,168.4 624.8,142.2" />.box-top-43 { fill: #b7302a; stroke: #38434c; stroke-width: 1.1; }.box-side-43, .box-front-43 { fill: #7e1e1a; stroke: #38434c; stroke-width: 1; }<polygon class="box-side-43" points="620.9,141.4 569.0,164.4 569.0,135.8 620.9,112.8" />.box-top-44 { fill: #111820; stroke: #38434c; stroke-width: 1.1; }.box-side-44, .box-front-44 { fill: #080c10; stroke: #38434c; stroke-width: 1; }<polygon class="box-side-44" points="615.1,156.7 602.2,162.5 602.2,153.7 615.1,147.9" />.box-top-45 { fill: #111820; stroke: #38434c; stroke-width: 1.1; }.box-side-45, .box-front-45 { fill: #080c10; stroke: #38434c; stroke-width: 1; }<polygon class="box-side-45" points="579.1,194.5 566.2,200.3 566.2,191.5 579.1,185.7" />.box-top-46 { fill: #111820; stroke: #38434c; stroke-width: 1.1; }.box-side-46, .box-front-46 { fill: #080c10; stroke: #38434c; stroke-width: 1; }<polygon class="box-side-46" points="644.3,170.6 585.2,196.8 585.2,177.0 644.3,150.8" />.box-top-47 { fill: #b7302a; stroke: #38434c; stroke-width: 1.1; }.box-side-47, .box-front-47 { fill: #7e1e1a; stroke: #38434c; stroke-width: 1; }<polygon class="box-side-47" points="640.3,150.0 588.5,173.1 588.5,144.5 640.3,121.4" />.box-top-48 { fill: #111820; stroke: #38434c; stroke-width: 1.1; }.box-side-48, .box-front-48 { fill: #080c10; stroke: #38434c; stroke-width: 1; }<polygon class="box-side-48" points="634.6,165.4 621.6,171.1 621.6,162.3 634.6,156.6" />.box-top-49 { fill: #111820; stroke: #38434c; stroke-width: 1.1; }.box-side-49, .box-front-49 { fill: #080c10; stroke: #38434c; stroke-width: 1; }<polygon class="box-side-49" points="598.6,203.1 585.6,208.9 585.6,200.1 598.6,194.3" />.box-top-50 { fill: #111820; stroke: #38434c; stroke-width: 1.1; }.box-side-50, .box-front-50 { fill: #080c10; stroke: #38434c; stroke-width: 1; }<polygon class="box-side-50" points="663.7,179.2 604.7,205.5 604.7,185.7 663.7,159.4" />.box-top-51 { fill: #b7302a; stroke: #38434c; stroke-width: 1.1; }.box-side-51, .box-front-51 { fill: #7e1e1a; stroke: #38434c; stroke-width: 1; }<polygon class="box-side-51" points="659.8,158.7 607.9,181.7 607.9,153.1 659.8,130.1" />.box-top-52 { fill: #111820; stroke: #38434c; stroke-width: 1.1; }.box-side-52, .box-front-52 { fill: #080c10; stroke: #38434c; stroke-width: 1; }<polygon class="box-side-52" points="654.0,174.0 641.0,179.8 641.0,171.0 654.0,165.2" />.box-top-53 { fill: #111820; stroke: #38434c; stroke-width: 1.1; }.box-side-53, .box-front-53 { fill: #080c10; stroke: #38434c; stroke-width: 1; }<polygon class="box-side-53" points="618.0,211.8 605.0,217.5 605.0,208.7 618.0,203.0" />.box-top-54 { fill: #111820; stroke: #38434c; stroke-width: 1.1; }.box-side-54, .box-front-54 { fill: #080c10; stroke: #38434c; stroke-width: 1; }<polygon class="box-side-54" points="454.6,63.3 438.7,70.3 438.7,50.5 454.6,43.5" />.box-top-55 { fill: #d4d8dc; stroke: #38434c; stroke-width: 1.1; }.box-side-55, .box-front-55 { fill: #9aa3aa; stroke: #38434c; stroke-width: 1; }<polygon class="box-side-55" points="430.1,53.4 421.4,57.2 421.4,44.0 430.1,40.2" />.box-top-56 { fill: #c8a451; stroke: #38434c; stroke-width: 1.1; }.box-side-56, .box-front-56 { fill: #8c6d2a; stroke: #38434c; stroke-width: 1; }<polygon class="box-side-56" points="471.1,71.9 458.2,77.7 458.2,72.2 471.1,66.4" />
  </style>
  <text class="title" x="34" y="46">Electrical Device Models Rev A</text><text class="subtitle" x="34" y="74">Separate photo-informed device envelopes for relay box, 100A breaker/cutoff, and MIDI fuse holders.</text><text class="label" x="34" y="556">Static assembly visual. Open the HTML file for rotate/zoom interaction.</text>
  <rect class="background" width="920" height="620" /><ellipse class="shadow" cx="455" cy="430" rx="330" ry="74" /><polygon class="box-front-0" points="151.1,-139.1 292.9,-76.1 292.9,-406.1 151.1,-469.1" /><polygon class="box-top-0" points="197.2,-489.6 339.0,-426.6 292.9,-406.1 151.1,-469.1" /><polygon class="box-front-1" points="203.6,-158.0 335.4,-99.4 335.4,-414.0 203.6,-472.6" /><polygon class="box-top-1" points="209.4,-475.2 341.2,-416.6 335.4,-414.0 203.6,-472.6" /><polygon class="box-front-2" points="222.0,-154.6 327.8,-107.6 327.8,-382.6 222.0,-429.6" /><polygon class="box-top-2" points="225.6,-431.2 331.4,-384.2 327.8,-382.6 222.0,-429.6" /><polygon class="box-front-3" points="217.7,-330.2 256.6,-313.0 256.6,-363.6 217.7,-380.8" /><polygon class="box-top-3" points="247.9,-394.3 286.8,-377.0 256.6,-363.6 217.7,-380.8" /><polygon class="box-front-4" points="278.2,-303.4 317.0,-286.1 317.0,-336.7 278.2,-354.0" /><polygon class="box-top-4" points="308.4,-367.4 347.3,-350.1 317.0,-336.7 278.2,-354.0" /><polygon class="box-front-5" points="242.9,-50.8 365.3,3.6 365.3,-33.8 242.9,-88.2" /><polygon class="box-top-5" points="260.2,-95.9 382.6,-41.5 365.3,-33.8 242.9,-88.2" /><polygon class="box-front-6" points="221.3,-377.0 313.4,-336.1 313.4,-382.3 221.3,-423.2" /><polygon class="box-top-6" points="251.5,-436.7 343.7,-395.7 313.4,-382.3 221.3,-423.2" /><polygon class="box-front-7" points="401.3,99.4 523.7,153.8 523.7,147.2 401.3,92.8" /><polygon class="box-top-7" points="480.5,57.6 602.9,112.0 523.7,147.2 401.3,92.8" /><polygon class="box-front-8" points="395.5,81.5 401.3,84.0 401.3,53.2 395.5,50.7" /><polygon class="box-top-8" points="474.7,15.5 480.5,18.0 401.3,53.2 395.5,50.7" /><polygon class="box-front-9" points="523.7,138.4 529.4,141.0 529.4,110.2 523.7,107.6" /><polygon class="box-top-9" points="602.9,72.4 608.6,75.0 529.4,110.2 523.7,107.6" /><polygon class="box-front-10" points="452.4,78.5 511.4,104.7 511.4,67.3 452.4,41.1" /><polygon class="box-top-10" points="492.7,23.1 551.8,49.4 511.4,67.3 452.4,41.1" /><polygon class="box-front-11" points="460.3,55.0 512.2,78.1 512.2,70.4 460.3,47.3" /><polygon class="box-top-11" points="492.0,33.3 543.8,56.3 512.2,70.4 460.3,47.3" /><polygon class="box-front-12" points="471.8,41.8 505.0,56.5 505.0,48.8 471.8,34.1" /><polygon class="box-top-12" points="479.0,30.9 512.2,45.6 505.0,48.8 471.8,34.1" /><polygon class="box-front-13" points="525.8,51.1 536.6,55.9 536.6,50.4 525.8,45.6" /><polygon class="box-top-13" points="532.3,42.7 543.1,47.5 536.6,50.4 525.8,45.6" /><polygon class="box-front-14" points="482.6,31.3 501.4,39.6 501.4,35.2 482.6,26.9" /><polygon class="box-top-14" points="495.6,21.1 514.3,29.5 501.4,35.2 482.6,26.9" /><polygon class="box-front-15" points="489.8,74.2 508.6,82.5 508.6,78.1 489.8,69.8" /><polygon class="box-top-15" points="502.8,64.0 521.5,72.3 508.6,78.1 489.8,69.8" /><polygon class="box-front-16" points="467.5,36.9 493.4,48.4 493.4,28.6 467.5,17.1" /><polygon class="box-top-16" points="481.9,10.7 507.8,22.2 493.4,28.6 467.5,17.1" /><polygon class="box-front-17" points="496.3,103.4 522.2,115.0 522.2,95.2 496.3,83.6" /><polygon class="box-top-17" points="510.7,77.2 536.6,88.8 522.2,95.2 496.3,83.6" /><polygon class="box-front-18" points="451.3,191.4 602.5,258.6 602.5,252.0 451.3,184.8" /><polygon class="box-top-18" points="570.1,132.0 721.3,199.2 602.5,252.0 451.3,184.8" /><polygon class="box-front-19" points="569.0,103.9 720.2,171.1 720.2,99.6 569.0,32.4" /><polygon class="box-top-19" points="573.4,30.4 724.6,97.6 720.2,99.6 569.0,32.4" /><polygon class="box-front-20" points="448.1,157.6 599.3,224.8 599.3,153.3 448.1,86.1" /><polygon class="box-top-20" points="452.4,84.2 603.6,151.4 599.3,153.3 448.1,86.1" /><polygon class="box-front-21" points="447.0,154.3 451.3,156.2 451.3,84.7 447.0,82.8" /><polygon class="box-top-21" points="565.8,30.0 570.1,31.9 451.3,84.7 447.0,82.8" /><polygon class="box-front-22" points="602.5,223.4 606.8,225.3 606.8,153.8 602.5,151.9" /><polygon class="box-top-22" points="721.3,99.1 725.6,101.0 606.8,153.8 602.5,151.9" /><polygon class="box-front-23" points="521.9,33.7 687.5,107.3 687.5,100.7 521.9,27.1" /><polygon class="box-top-23" points="655.1,-32.1 820.7,41.5 687.5,100.7 521.9,27.1" /><polygon class="box-front-24" points="584.2,66.0 713.8,123.6 713.8,114.8 584.2,57.2" /><polygon class="box-top-24" points="589.9,54.7 719.5,112.3 713.8,114.8 584.2,57.2" /><polygon class="box-front-25" points="485.5,138.7 550.3,167.5 550.3,158.7 485.5,129.9" /><polygon class="box-top-25" points="491.3,127.3 556.1,156.1 550.3,158.7 485.5,129.9" /><polygon class="box-front-26" points="657.6,131.9 676.3,140.2 676.3,118.2 657.6,109.9" /><polygon class="box-top-26" points="663.4,107.3 682.1,115.6 676.3,118.2 657.6,109.9" /><polygon class="box-front-27" points="546.0,196.2 570.5,207.1 570.5,180.7 546.0,169.8" /><polygon class="box-top-27" points="551.8,167.2 576.2,178.1 570.5,180.7 546.0,169.8" /><polygon class="box-front-28" points="472.6,163.5 488.4,170.6 488.4,150.8 472.6,143.7" /><polygon class="box-top-28" points="478.3,141.2 494.2,148.2 488.4,150.8 472.6,143.7" /><polygon class="box-front-29" points="492.0,172.2 507.8,179.2 507.8,159.4 492.0,152.4" /><polygon class="box-top-29" points="497.8,149.8 513.6,156.9 507.8,159.4 492.0,152.4" /><polygon class="box-front-30" points="511.4,180.8 527.3,187.9 527.3,168.1 511.4,161.0" /><polygon class="box-top-30" points="517.2,158.5 533.0,165.5 527.3,168.1 511.4,161.0" /><polygon class="box-front-31" points="530.9,189.5 546.7,196.5 546.7,176.7 530.9,169.7" /><polygon class="box-top-31" points="536.6,167.1 552.5,174.1 546.7,176.7 530.9,169.7" /><polygon class="box-front-32" points="505.3,177.7 606.1,222.5 606.1,209.3 505.3,164.5" /><polygon class="box-top-32" points="566.5,137.3 667.3,182.1 606.1,209.3 505.3,164.5" /><polygon class="box-front-33" points="569.0,93.8 661.2,134.8 661.2,123.8 569.0,82.8" /><polygon class="box-top-33" points="577.7,79.0 669.8,119.9 661.2,123.8 569.0,82.8" /><polygon class="box-front-34" points="508.9,162.9 526.9,170.9 526.9,151.1 508.9,143.1" /><polygon class="box-top-34" points="568.0,116.9 586.0,124.9 526.9,151.1 508.9,143.1" /><polygon class="box-front-35" points="512.9,139.5 530.2,147.2 530.2,118.6 512.9,110.9" /><polygon class="box-top-35" points="564.7,87.8 582.0,95.5 530.2,118.6 512.9,110.9" /><polygon class="box-front-36" points="554.6,141.4 563.3,145.2 563.3,136.4 554.6,132.6" /><polygon class="box-top-36" points="567.6,126.8 576.2,130.7 563.3,136.4 554.6,132.6" /><polygon class="box-front-37" points="518.6,179.1 527.3,183.0 527.3,174.2 518.6,170.3" /><polygon class="box-top-37" points="531.6,164.6 540.2,168.4 527.3,174.2 518.6,170.3" /><polygon class="box-front-38" points="528.4,171.6 546.4,179.6 546.4,159.8 528.4,151.8" /><polygon class="box-top-38" points="587.4,125.5 605.4,133.5 546.4,159.8 528.4,151.8" /><polygon class="box-front-39" points="532.3,148.1 549.6,155.8 549.6,127.2 532.3,119.5" /><polygon class="box-top-39" points="584.2,96.5 601.4,104.2 549.6,127.2 532.3,119.5" /><polygon class="box-front-40" points="574.1,150.0 582.7,153.9 582.7,145.1 574.1,141.2" /><polygon class="box-top-40" points="587.0,135.5 595.7,139.3 582.7,145.1 574.1,141.2" /><polygon class="box-front-41" points="538.1,187.8 546.7,191.6 546.7,182.8 538.1,179.0" /><polygon class="box-top-41" points="551.0,173.2 559.7,177.1 546.7,182.8 538.1,179.0" /><polygon class="box-front-42" points="547.8,180.2 565.8,188.2 565.8,168.4 547.8,160.4" /><polygon class="box-top-42" points="606.8,134.2 624.8,142.2 565.8,168.4 547.8,160.4" /><polygon class="box-front-43" points="551.8,156.8 569.0,164.4 569.0,135.8 551.8,128.2" /><polygon class="box-top-43" points="603.6,105.1 620.9,112.8 569.0,135.8 551.8,128.2" /><polygon class="box-front-44" points="593.5,158.7 602.2,162.5 602.2,153.7 593.5,149.9" /><polygon class="box-top-44" points="606.5,144.1 615.1,147.9 602.2,153.7 593.5,149.9" /><polygon class="box-front-45" points="557.5,196.4 566.2,200.3 566.2,191.5 557.5,187.6" /><polygon class="box-top-45" points="570.5,181.9 579.1,185.7 566.2,191.5 557.5,187.6" /><polygon class="box-front-46" points="567.2,188.8 585.2,196.8 585.2,177.0 567.2,169.0" /><polygon class="box-top-46" points="626.3,142.8 644.3,150.8 585.2,177.0 567.2,169.0" /><polygon class="box-front-47" points="571.2,165.4 588.5,173.1 588.5,144.5 571.2,136.8" /><polygon class="box-top-47" points="623.0,113.8 640.3,121.4 588.5,144.5 571.2,136.8" /><polygon class="box-front-48" points="613.0,167.3 621.6,171.1 621.6,162.3 613.0,158.5" /><polygon class="box-top-48" points="625.9,152.7 634.6,156.6 621.6,162.3 613.0,158.5" /><polygon class="box-front-49" points="577.0,205.1 585.6,208.9 585.6,200.1 577.0,196.3" /><polygon class="box-top-49" points="589.9,190.5 598.6,194.3 585.6,200.1 577.0,196.3" /><polygon class="box-front-50" points="586.7,197.5 604.7,205.5 604.7,185.7 586.7,177.7" /><polygon class="box-top-50" points="645.7,151.4 663.7,159.4 604.7,185.7 586.7,177.7" /><polygon class="box-front-51" points="590.6,174.0 607.9,181.7 607.9,153.1 590.6,145.4" /><polygon class="box-top-51" points="642.5,122.4 659.8,130.1 607.9,153.1 590.6,145.4" /><polygon class="box-front-52" points="632.4,175.9 641.0,179.8 641.0,171.0 632.4,167.1" /><polygon class="box-top-52" points="645.4,161.4 654.0,165.2 641.0,171.0 632.4,167.1" /><polygon class="box-front-53" points="596.4,213.7 605.0,217.5 605.0,208.7 596.4,204.9" /><polygon class="box-top-53" points="609.4,199.1 618.0,203.0 605.0,208.7 596.4,204.9" /><polygon class="box-front-54" points="414.2,59.4 438.7,70.3 438.7,50.5 414.2,39.6" /><polygon class="box-top-54" points="430.1,32.6 454.6,43.5 438.7,50.5 414.2,39.6" /><polygon class="box-front-55" points="401.3,48.3 421.4,57.2 421.4,44.0 401.3,35.1" /><polygon class="box-top-55" points="409.9,31.2 430.1,40.2 421.4,44.0 401.3,35.1" /><polygon class="box-front-56" points="438.0,68.7 458.2,77.7 458.2,72.2 438.0,63.2" /><polygon class="box-top-56" points="451.0,57.5 471.1,66.4 458.2,72.2 438.0,63.2" />
</svg>
