<svg xmlns="http://www.w3.org/2000/svg" width="920" height="620" viewBox="0 0 920 620" role="img">
  <style>
    .background { fill: #f6f7f8; }
    .shadow { fill: #d8dde2; opacity: 0.7; }
    .title { font: 700 26px Arial, sans-serif; fill: #202a33; }
    .subtitle, .label { font: 16px Arial, sans-serif; fill: #4f5d68; }
    .box-top-0 { fill: #202a33; stroke: #38434c; stroke-width: 1.1; }.box-side-0, .box-front-0 { fill: #11181e; stroke: #38434c; stroke-width: 1; }<polygon class="box-side-0" points="376.1,-80.1 330.0,-59.6 330.0,-276.3 376.1,-296.8" />.box-top-1 { fill: #2d3942; stroke: #38434c; stroke-width: 1.1; }.box-side-1, .box-front-1 { fill: #1c252b; stroke: #38434c; stroke-width: 1; }<polygon class="box-side-1" points="378.2,-85.5 372.5,-83.0 372.5,-284.3 378.2,-286.8" />.box-top-2 { fill: #111820; stroke: #38434c; stroke-width: 1.1; }.box-side-2, .box-front-2 { fill: #080c10; stroke: #38434c; stroke-width: 1; }<polygon class="box-side-2" points="293.3,-127.8 287.5,-125.2 287.5,-318.8 293.3,-321.4" />.box-top-3 { fill: #111820; stroke: #38434c; stroke-width: 1.1; }.box-side-3, .box-front-3 { fill: #080c10; stroke: #38434c; stroke-width: 1; }<polygon class="box-side-3" points="376.1,-91.0 370.3,-88.4 370.3,-282.0 376.1,-284.6" />.box-top-4 { fill: #161a1d; stroke: #38434c; stroke-width: 1.1; }.box-side-4, .box-front-4 { fill: #080a0c; stroke: #38434c; stroke-width: 1; }<polygon class="box-side-4" points="219.1,-80.8 194.6,-69.9 194.6,-107.3 219.1,-118.2" />.box-top-5 { fill: #c51f1f; stroke: #38434c; stroke-width: 1.1; }.box-side-5, .box-front-5 { fill: #8c1515; stroke: #38434c; stroke-width: 1; }<polygon class="box-side-5" points="346.6,-11.8 327.8,-3.5 327.8,-21.1 346.6,-29.4" />.box-top-6 { fill: #2b333a; stroke: #38434c; stroke-width: 1.1; }.box-side-6, .box-front-6 { fill: #151a1f; stroke: #38434c; stroke-width: 1; }<polygon class="box-side-6" points="276.0,-238.3 255.8,-229.4 255.8,-261.3 276.0,-270.2" />.box-top-7 { fill: #f4f6f8; stroke: #38434c; stroke-width: 1.1; }.box-side-7, .box-front-7 { fill: #cbd2d8; stroke: #38434c; stroke-width: 1; }<polygon class="box-side-7" points="270.2,-243.9 268.8,-243.3 268.8,-247.7 270.2,-248.3" />.box-top-8 { fill: #2b333a; stroke: #38434c; stroke-width: 1.1; }.box-side-8, .box-front-8 { fill: #151a1f; stroke: #38434c; stroke-width: 1; }<polygon class="box-side-8" points="319.2,-219.1 299.0,-210.2 299.0,-242.1 319.2,-251.0" />.box-top-9 { fill: #f4f6f8; stroke: #38434c; stroke-width: 1.1; }.box-side-9, .box-front-9 { fill: #cbd2d8; stroke: #38434c; stroke-width: 1; }<polygon class="box-side-9" points="313.4,-224.7 312.0,-224.1 312.0,-228.5 313.4,-229.1" />.box-top-10 { fill: #111820; stroke: #38434c; stroke-width: 1.1; }.box-side-10, .box-front-10 { fill: #080c10; stroke: #38434c; stroke-width: 1; }<polygon class="box-side-10" points="393.4,-182.3 381.8,-177.2 381.8,-208.0 393.4,-213.1" />.box-top-11 { fill: #2387d7; stroke: #38434c; stroke-width: 1.1; }.box-side-11, .box-front-11 { fill: #145888; stroke: #38434c; stroke-width: 1; }<polygon class="box-side-11" points="398.0,-190.9 393.0,-188.7 393.0,-201.9 398.0,-204.1" />.box-top-12 { fill: #d4d8dc; stroke: #38434c; stroke-width: 1.1; }.box-side-12, .box-front-12 { fill: #9aa3aa; stroke: #38434c; stroke-width: 1; }<polygon class="box-side-12" points="396.2,-173.1 393.4,-171.9 393.4,-177.4 396.2,-178.6" />.box-top-13 { fill: #2b333a; stroke: #38434c; stroke-width: 1.1; }.box-side-13, .box-front-13 { fill: #151a1f; stroke: #38434c; stroke-width: 1; }<polygon class="box-side-13" points="276.0,-198.7 255.8,-189.8 255.8,-221.7 276.0,-230.6" />.box-top-14 { fill: #f4f6f8; stroke: #38434c; stroke-width: 1.1; }.box-side-14, .box-front-14 { fill: #cbd2d8; stroke: #38434c; stroke-width: 1; }<polygon class="box-side-14" points="270.2,-204.3 268.8,-203.7 268.8,-208.1 270.2,-208.7" />.box-top-15 { fill: #2b333a; stroke: #38434c; stroke-width: 1.1; }.box-side-15, .box-front-15 { fill: #151a1f; stroke: #38434c; stroke-width: 1; }<polygon class="box-side-15" points="319.2,-179.5 299.0,-170.6 299.0,-202.5 319.2,-211.4" />.box-top-16 { fill: #f4f6f8; stroke: #38434c; stroke-width: 1.1; }.box-side-16, .box-front-16 { fill: #cbd2d8; stroke: #38434c; stroke-width: 1; }<polygon class="box-side-16" points="313.4,-185.1 312.0,-184.5 312.0,-188.9 313.4,-189.5" />.box-top-17 { fill: #111820; stroke: #38434c; stroke-width: 1.1; }.box-side-17, .box-front-17 { fill: #080c10; stroke: #38434c; stroke-width: 1; }<polygon class="box-side-17" points="393.4,-142.7 381.8,-137.6 381.8,-168.4 393.4,-173.5" />.box-top-18 { fill: #d43a38; stroke: #38434c; stroke-width: 1.1; }.box-side-18, .box-front-18 { fill: #8f1c1a; stroke: #38434c; stroke-width: 1; }<polygon class="box-side-18" points="398.0,-151.3 393.0,-149.1 393.0,-162.3 398.0,-164.5" />.box-top-19 { fill: #d4d8dc; stroke: #38434c; stroke-width: 1.1; }.box-side-19, .box-front-19 { fill: #9aa3aa; stroke: #38434c; stroke-width: 1; }<polygon class="box-side-19" points="396.2,-133.5 393.4,-132.3 393.4,-137.8 396.2,-139.0" />.box-top-20 { fill: #2b333a; stroke: #38434c; stroke-width: 1.1; }.box-side-20, .box-front-20 { fill: #151a1f; stroke: #38434c; stroke-width: 1; }<polygon class="box-side-20" points="276.0,-159.1 255.8,-150.2 255.8,-182.1 276.0,-191.0" />.box-top-21 { fill: #f4f6f8; stroke: #38434c; stroke-width: 1.1; }.box-side-21, .box-front-21 { fill: #cbd2d8; stroke: #38434c; stroke-width: 1; }<polygon class="box-side-21" points="270.2,-164.7 268.8,-164.1 268.8,-168.5 270.2,-169.1" />.box-top-22 { fill: #2b333a; stroke: #38434c; stroke-width: 1.1; }.box-side-22, .box-front-22 { fill: #151a1f; stroke: #38434c; stroke-width: 1; }<polygon class="box-side-22" points="319.2,-139.9 299.0,-131.0 299.0,-162.9 319.2,-171.8" />.box-top-23 { fill: #f4f6f8; stroke: #38434c; stroke-width: 1.1; }.box-side-23, .box-front-23 { fill: #cbd2d8; stroke: #38434c; stroke-width: 1; }<polygon class="box-side-23" points="313.4,-145.5 312.0,-144.9 312.0,-149.3 313.4,-149.9" />.box-top-24 { fill: #111820; stroke: #38434c; stroke-width: 1.1; }.box-side-24, .box-front-24 { fill: #080c10; stroke: #38434c; stroke-width: 1; }<polygon class="box-side-24" points="393.4,-103.1 381.8,-98.0 381.8,-128.8 393.4,-133.9" />.box-top-25 { fill: #2387d7; stroke: #38434c; stroke-width: 1.1; }.box-side-25, .box-front-25 { fill: #145888; stroke: #38434c; stroke-width: 1; }<polygon class="box-side-25" points="398.0,-111.7 393.0,-109.5 393.0,-122.7 398.0,-124.9" />.box-top-26 { fill: #d4d8dc; stroke: #38434c; stroke-width: 1.1; }.box-side-26, .box-front-26 { fill: #9aa3aa; stroke: #38434c; stroke-width: 1; }<polygon class="box-side-26" points="396.2,-93.9 393.4,-92.7 393.4,-98.2 396.2,-99.4" />.box-top-27 { fill: #2b333a; stroke: #38434c; stroke-width: 1.1; }.box-side-27, .box-front-27 { fill: #151a1f; stroke: #38434c; stroke-width: 1; }<polygon class="box-side-27" points="276.0,-119.5 255.8,-110.6 255.8,-142.5 276.0,-151.4" />.box-top-28 { fill: #f4f6f8; stroke: #38434c; stroke-width: 1.1; }.box-side-28, .box-front-28 { fill: #cbd2d8; stroke: #38434c; stroke-width: 1; }<polygon class="box-side-28" points="270.2,-125.1 268.8,-124.5 268.8,-128.9 270.2,-129.5" />.box-top-29 { fill: #2b333a; stroke: #38434c; stroke-width: 1.1; }.box-side-29, .box-front-29 { fill: #151a1f; stroke: #38434c; stroke-width: 1; }<polygon class="box-side-29" points="319.2,-100.3 299.0,-91.4 299.0,-123.3 319.2,-132.2" />.box-top-30 { fill: #f4f6f8; stroke: #38434c; stroke-width: 1.1; }.box-side-30, .box-front-30 { fill: #cbd2d8; stroke: #38434c; stroke-width: 1; }<polygon class="box-side-30" points="313.4,-105.9 312.0,-105.3 312.0,-109.7 313.4,-110.3" />.box-top-31 { fill: #111820; stroke: #38434c; stroke-width: 1.1; }.box-side-31, .box-front-31 { fill: #080c10; stroke: #38434c; stroke-width: 1; }<polygon class="box-side-31" points="393.4,-63.5 381.8,-58.4 381.8,-89.2 393.4,-94.3" />.box-top-32 { fill: #dfba21; stroke: #38434c; stroke-width: 1.1; }.box-side-32, .box-front-32 { fill: #9b7e0e; stroke: #38434c; stroke-width: 1; }<polygon class="box-side-32" points="398.0,-72.1 393.0,-69.9 393.0,-83.1 398.0,-85.3" />.box-top-33 { fill: #d4d8dc; stroke: #38434c; stroke-width: 1.1; }.box-side-33, .box-front-33 { fill: #9aa3aa; stroke: #38434c; stroke-width: 1; }<polygon class="box-side-33" points="396.2,-54.3 393.4,-53.1 393.4,-58.6 396.2,-59.8" />.box-top-34 { fill: #2b333a; stroke: #38434c; stroke-width: 1.1; }.box-side-34, .box-front-34 { fill: #151a1f; stroke: #38434c; stroke-width: 1; }<polygon class="box-side-34" points="276.0,-79.9 255.8,-71.0 255.8,-102.9 276.0,-111.8" />.box-top-35 { fill: #f4f6f8; stroke: #38434c; stroke-width: 1.1; }.box-side-35, .box-front-35 { fill: #cbd2d8; stroke: #38434c; stroke-width: 1; }<polygon class="box-side-35" points="270.2,-85.5 268.8,-84.9 268.8,-89.3 270.2,-89.9" />.box-top-36 { fill: #2b333a; stroke: #38434c; stroke-width: 1.1; }.box-side-36, .box-front-36 { fill: #151a1f; stroke: #38434c; stroke-width: 1; }<polygon class="box-side-36" points="319.2,-60.7 299.0,-51.8 299.0,-83.7 319.2,-92.6" />.box-top-37 { fill: #f4f6f8; stroke: #38434c; stroke-width: 1.1; }.box-side-37, .box-front-37 { fill: #cbd2d8; stroke: #38434c; stroke-width: 1; }<polygon class="box-side-37" points="313.4,-66.3 312.0,-65.7 312.0,-70.1 313.4,-70.7" />.box-top-38 { fill: #111820; stroke: #38434c; stroke-width: 1.1; }.box-side-38, .box-front-38 { fill: #080c10; stroke: #38434c; stroke-width: 1; }<polygon class="box-side-38" points="393.4,-23.9 381.8,-18.8 381.8,-49.6 393.4,-54.7" />.box-top-39 { fill: #dfba21; stroke: #38434c; stroke-width: 1.1; }.box-side-39, .box-front-39 { fill: #9b7e0e; stroke: #38434c; stroke-width: 1; }<polygon class="box-side-39" points="398.0,-32.5 393.0,-30.3 393.0,-43.5 398.0,-45.7" />.box-top-40 { fill: #d4d8dc; stroke: #38434c; stroke-width: 1.1; }.box-side-40, .box-front-40 { fill: #9aa3aa; stroke: #38434c; stroke-width: 1; }<polygon class="box-side-40" points="396.2,-14.7 393.4,-13.5 393.4,-19.0 396.2,-20.2" />.box-top-41 { fill: #c8a451; stroke: #38434c; stroke-width: 1.1; }.box-side-41, .box-front-41 { fill: #8c6d2a; stroke: #38434c; stroke-width: 1; }<polygon class="box-side-41" points="226.0,-261.5 220.9,-259.3 220.9,-281.3 226.0,-283.5" />.box-top-42 { fill: #c8a451; stroke: #38434c; stroke-width: 1.1; }.box-side-42, .box-front-42 { fill: #8c6d2a; stroke: #38434c; stroke-width: 1; }<polygon class="box-side-42" points="226.0,-103.1 220.9,-100.9 220.9,-122.9 226.0,-125.1" />.box-top-43 { fill: #c8a451; stroke: #38434c; stroke-width: 1.1; }.box-side-43, .box-front-43 { fill: #8c6d2a; stroke: #38434c; stroke-width: 1; }<polygon class="box-side-43" points="308.0,-244.8 303.0,-242.6 303.0,-264.6 308.0,-266.8" />.box-top-44 { fill: #c8a451; stroke: #38434c; stroke-width: 1.1; }.box-side-44, .box-front-44 { fill: #8c6d2a; stroke: #38434c; stroke-width: 1; }<polygon class="box-side-44" points="308.0,-46.8 303.0,-44.6 303.0,-66.6 308.0,-68.8" />.box-top-45 { fill: #c1cbd3; stroke: #38434c; stroke-width: 1.1; }.box-side-45, .box-front-45 { fill: #8d99a4; stroke: #38434c; stroke-width: 1; }<polygon class="box-side-45" points="602.9,118.6 523.7,153.8 523.7,147.2 602.9,112.0" />.box-top-46 { fill: #c1cbd3; stroke: #38434c; stroke-width: 1.1; }.box-side-46, .box-front-46 { fill: #8d99a4; stroke: #38434c; stroke-width: 1; }<polygon class="box-side-46" points="480.5,48.8 401.3,84.0 401.3,53.2 480.5,18.0" />.box-top-47 { fill: #c1cbd3; stroke: #38434c; stroke-width: 1.1; }.box-side-47, .box-front-47 { fill: #8d99a4; stroke: #38434c; stroke-width: 1; }<polygon class="box-side-47" points="608.6,105.8 529.4,141.0 529.4,110.2 608.6,75.0" />.box-top-48 { fill: #202a33; stroke: #38434c; stroke-width: 1.1; }.box-side-48, .box-front-48 { fill: #11181e; stroke: #38434c; stroke-width: 1; }<polygon class="box-side-48" points="551.8,86.8 511.4,104.7 511.4,67.3 551.8,49.4" />.box-top-49 { fill: #2d3942; stroke: #38434c; stroke-width: 1.1; }.box-side-49, .box-front-49 { fill: #1c252b; stroke: #38434c; stroke-width: 1; }<polygon class="box-side-49" points="543.8,64.0 512.2,78.1 512.2,70.4 543.8,56.3" />.box-top-50 { fill: #b7302a; stroke: #38434c; stroke-width: 1.1; }.box-side-50, .box-front-50 { fill: #7e1e1a; stroke: #38434c; stroke-width: 1; }<polygon class="box-side-50" points="512.2,53.3 505.0,56.5 505.0,48.8 512.2,45.6" />.box-top-51 { fill: #b7302a; stroke: #38434c; stroke-width: 1.1; }.box-side-51, .box-front-51 { fill: #7e1e1a; stroke: #38434c; stroke-width: 1; }<polygon class="box-side-51" points="543.1,53.0 536.6,55.9 536.6,50.4 543.1,47.5" />.box-top-52 { fill: #d4d8dc; stroke: #38434c; stroke-width: 1.1; }.box-side-52, .box-front-52 { fill: #9aa3aa; stroke: #38434c; stroke-width: 1; }<polygon class="box-side-52" points="514.3,33.9 501.4,39.6 501.4,35.2 514.3,29.5" />.box-top-53 { fill: #d4d8dc; stroke: #38434c; stroke-width: 1.1; }.box-side-53, .box-front-53 { fill: #9aa3aa; stroke: #38434c; stroke-width: 1; }<polygon class="box-side-53" points="521.5,76.7 508.6,82.5 508.6,78.1 521.5,72.3" />.box-top-54 { fill: #c51f1f; stroke: #38434c; stroke-width: 1.1; }.box-side-54, .box-front-54 { fill: #8c1515; stroke: #38434c; stroke-width: 1; }<polygon class="box-side-54" points="507.8,42.0 493.4,48.4 493.4,28.6 507.8,22.2" />.box-top-55 { fill: #161a1d; stroke: #38434c; stroke-width: 1.1; }.box-side-55, .box-front-55 { fill: #080a0c; stroke: #38434c; stroke-width: 1; }<polygon class="box-side-55" points="536.6,108.6 522.2,115.0 522.2,95.2 536.6,88.8" />.box-top-56 { fill: #c1cbd3; stroke: #38434c; stroke-width: 1.1; }.box-side-56, .box-front-56 { fill: #8d99a4; stroke: #38434c; stroke-width: 1; }<polygon class="box-side-56" points="708.7,211.6 600.7,259.6 600.7,253.0 708.7,205.0" />.box-top-57 { fill: #111820; stroke: #38434c; stroke-width: 1.1; }.box-side-57, .box-front-57 { fill: #080c10; stroke: #38434c; stroke-width: 1; }<polygon class="box-side-57" points="667.3,201.9 606.1,229.1 606.1,215.9 667.3,188.7" />.box-top-58 { fill: #111820; stroke: #38434c; stroke-width: 1.1; }.box-side-58, .box-front-58 { fill: #080c10; stroke: #38434c; stroke-width: 1; }<polygon class="box-side-58" points="586.0,151.3 526.9,177.5 526.9,157.7 586.0,131.5" />.box-top-59 { fill: #b7302a; stroke: #38434c; stroke-width: 1.1; }.box-side-59, .box-front-59 { fill: #7e1e1a; stroke: #38434c; stroke-width: 1; }<polygon class="box-side-59" points="582.0,130.7 530.2,153.8 530.2,125.2 582.0,102.1" />.box-top-60 { fill: #111820; stroke: #38434c; stroke-width: 1.1; }.box-side-60, .box-front-60 { fill: #080c10; stroke: #38434c; stroke-width: 1; }<polygon class="box-side-60" points="571.9,115.2 565.4,118.1 565.4,113.7 571.9,110.8" />.box-top-61 { fill: #111820; stroke: #38434c; stroke-width: 1.1; }.box-side-61, .box-front-61 { fill: #080c10; stroke: #38434c; stroke-width: 1; }<polygon class="box-side-61" points="538.8,129.9 532.3,132.8 532.3,128.4 538.8,125.5" />.box-top-62 { fill: #111820; stroke: #38434c; stroke-width: 1.1; }.box-side-62, .box-front-62 { fill: #080c10; stroke: #38434c; stroke-width: 1; }<polygon class="box-side-62" points="576.2,146.1 563.3,151.8 563.3,143.0 576.2,137.3" />.box-top-63 { fill: #111820; stroke: #38434c; stroke-width: 1.1; }.box-side-63, .box-front-63 { fill: #080c10; stroke: #38434c; stroke-width: 1; }<polygon class="box-side-63" points="540.2,183.8 527.3,189.6 527.3,180.8 540.2,175.0" />.box-top-64 { fill: #111820; stroke: #38434c; stroke-width: 1.1; }.box-side-64, .box-front-64 { fill: #080c10; stroke: #38434c; stroke-width: 1; }<polygon class="box-side-64" points="605.4,159.9 546.4,186.2 546.4,166.4 605.4,140.1" />.box-top-65 { fill: #b7302a; stroke: #38434c; stroke-width: 1.1; }.box-side-65, .box-front-65 { fill: #7e1e1a; stroke: #38434c; stroke-width: 1; }<polygon class="box-side-65" points="601.4,139.4 549.6,162.4 549.6,133.8 601.4,110.8" />.box-top-66 { fill: #111820; stroke: #38434c; stroke-width: 1.1; }.box-side-66, .box-front-66 { fill: #080c10; stroke: #38434c; stroke-width: 1; }<polygon class="box-side-66" points="591.4,123.8 584.9,126.7 584.9,122.3 591.4,119.4" />.box-top-67 { fill: #111820; stroke: #38434c; stroke-width: 1.1; }.box-side-67, .box-front-67 { fill: #080c10; stroke: #38434c; stroke-width: 1; }<polygon class="box-side-67" points="558.2,138.5 551.8,141.4 551.8,137.0 558.2,134.1" />.box-top-68 { fill: #111820; stroke: #38434c; stroke-width: 1.1; }.box-side-68, .box-front-68 { fill: #080c10; stroke: #38434c; stroke-width: 1; }<polygon class="box-side-68" points="595.7,154.7 582.7,160.5 582.7,151.7 595.7,145.9" />.box-top-69 { fill: #111820; stroke: #38434c; stroke-width: 1.1; }.box-side-69, .box-front-69 { fill: #080c10; stroke: #38434c; stroke-width: 1; }<polygon class="box-side-69" points="559.7,192.5 546.7,198.2 546.7,189.4 559.7,183.7" />.box-top-70 { fill: #111820; stroke: #38434c; stroke-width: 1.1; }.box-side-70, .box-front-70 { fill: #080c10; stroke: #38434c; stroke-width: 1; }<polygon class="box-side-70" points="624.8,168.6 565.8,194.8 565.8,175.0 624.8,148.8" />.box-top-71 { fill: #b7302a; stroke: #38434c; stroke-width: 1.1; }.box-side-71, .box-front-71 { fill: #7e1e1a; stroke: #38434c; stroke-width: 1; }<polygon class="box-side-71" points="620.9,148.0 569.0,171.0 569.0,142.4 620.9,119.4" />.box-top-72 { fill: #111820; stroke: #38434c; stroke-width: 1.1; }.box-side-72, .box-front-72 { fill: #080c10; stroke: #38434c; stroke-width: 1; }<polygon class="box-side-72" points="610.8,132.5 604.3,135.3 604.3,130.9 610.8,128.1" />.box-top-73 { fill: #111820; stroke: #38434c; stroke-width: 1.1; }.box-side-73, .box-front-73 { fill: #080c10; stroke: #38434c; stroke-width: 1; }<polygon class="box-side-73" points="577.7,147.2 571.2,150.1 571.2,145.7 577.7,142.8" />.box-top-74 { fill: #111820; stroke: #38434c; stroke-width: 1.1; }.box-side-74, .box-front-74 { fill: #080c10; stroke: #38434c; stroke-width: 1; }<polygon class="box-side-74" points="615.1,163.3 602.2,169.1 602.2,160.3 615.1,154.5" />.box-top-75 { fill: #111820; stroke: #38434c; stroke-width: 1.1; }.box-side-75, .box-front-75 { fill: #080c10; stroke: #38434c; stroke-width: 1; }<polygon class="box-side-75" points="579.1,201.1 566.2,206.9 566.2,198.1 579.1,192.3" />.box-top-76 { fill: #111820; stroke: #38434c; stroke-width: 1.1; }.box-side-76, .box-front-76 { fill: #080c10; stroke: #38434c; stroke-width: 1; }<polygon class="box-side-76" points="644.3,177.2 585.2,203.4 585.2,183.6 644.3,157.4" />.box-top-77 { fill: #b7302a; stroke: #38434c; stroke-width: 1.1; }.box-side-77, .box-front-77 { fill: #7e1e1a; stroke: #38434c; stroke-width: 1; }<polygon class="box-side-77" points="640.3,156.6 588.5,179.7 588.5,151.1 640.3,128.0" />.box-top-78 { fill: #111820; stroke: #38434c; stroke-width: 1.1; }.box-side-78, .box-front-78 { fill: #080c10; stroke: #38434c; stroke-width: 1; }<polygon class="box-side-78" points="630.2,141.1 623.8,144.0 623.8,139.6 630.2,136.7" />.box-top-79 { fill: #111820; stroke: #38434c; stroke-width: 1.1; }.box-side-79, .box-front-79 { fill: #080c10; stroke: #38434c; stroke-width: 1; }<polygon class="box-side-79" points="597.1,155.8 590.6,158.7 590.6,154.3 597.1,151.4" />.box-top-80 { fill: #111820; stroke: #38434c; stroke-width: 1.1; }.box-side-80, .box-front-80 { fill: #080c10; stroke: #38434c; stroke-width: 1; }<polygon class="box-side-80" points="634.6,172.0 621.6,177.7 621.6,168.9 634.6,163.2" />.box-top-81 { fill: #111820; stroke: #38434c; stroke-width: 1.1; }.box-side-81, .box-front-81 { fill: #080c10; stroke: #38434c; stroke-width: 1; }<polygon class="box-side-81" points="598.6,209.7 585.6,215.5 585.6,206.7 598.6,200.9" />.box-top-82 { fill: #111820; stroke: #38434c; stroke-width: 1.1; }.box-side-82, .box-front-82 { fill: #080c10; stroke: #38434c; stroke-width: 1; }<polygon class="box-side-82" points="663.7,185.8 604.7,212.1 604.7,192.3 663.7,166.0" />.box-top-83 { fill: #b7302a; stroke: #38434c; stroke-width: 1.1; }.box-side-83, .box-front-83 { fill: #7e1e1a; stroke: #38434c; stroke-width: 1; }<polygon class="box-side-83" points="659.8,165.3 607.9,188.3 607.9,159.7 659.8,136.7" />.box-top-84 { fill: #111820; stroke: #38434c; stroke-width: 1.1; }.box-side-84, .box-front-84 { fill: #080c10; stroke: #38434c; stroke-width: 1; }<polygon class="box-side-84" points="649.7,149.7 643.2,152.6 643.2,148.2 649.7,145.3" />.box-top-85 { fill: #111820; stroke: #38434c; stroke-width: 1.1; }.box-side-85, .box-front-85 { fill: #080c10; stroke: #38434c; stroke-width: 1; }<polygon class="box-side-85" points="616.6,164.5 610.1,167.3 610.1,162.9 616.6,160.1" />.box-top-86 { fill: #111820; stroke: #38434c; stroke-width: 1.1; }.box-side-86, .box-front-86 { fill: #080c10; stroke: #38434c; stroke-width: 1; }<polygon class="box-side-86" points="654.0,180.6 641.0,186.4 641.0,177.6 654.0,171.8" />.box-top-87 { fill: #111820; stroke: #38434c; stroke-width: 1.1; }.box-side-87, .box-front-87 { fill: #080c10; stroke: #38434c; stroke-width: 1; }<polygon class="box-side-87" points="618.0,218.4 605.0,224.1 605.0,215.3 618.0,209.6" />.box-top-88 { fill: #111820; stroke: #38434c; stroke-width: 1.1; }.box-side-88, .box-front-88 { fill: #080c10; stroke: #38434c; stroke-width: 1; }<polygon class="box-side-88" points="454.6,63.3 438.7,70.3 438.7,50.5 454.6,43.5" />.box-top-89 { fill: #d4d8dc; stroke: #38434c; stroke-width: 1.1; }.box-side-89, .box-front-89 { fill: #9aa3aa; stroke: #38434c; stroke-width: 1; }<polygon class="box-side-89" points="430.1,53.4 421.4,57.2 421.4,44.0 430.1,40.2" />.box-top-90 { fill: #c8a451; stroke: #38434c; stroke-width: 1.1; }.box-side-90, .box-front-90 { fill: #8c6d2a; stroke: #38434c; stroke-width: 1; }<polygon class="box-side-90" points="471.1,71.9 458.2,77.7 458.2,72.2 471.1,66.4" />
  </style>
  <text class="title" x="34" y="46">Electrical Device Models Rev A</text><text class="subtitle" x="34" y="74">Separate photo-informed device envelopes for relay box, 100A breaker/cutoff, and MIDI fuse holders.</text><text class="label" x="34" y="556">Static assembly visual. Open the HTML file for rotate/zoom interaction.</text>
  <rect class="background" width="920" height="620" /><ellipse class="shadow" cx="455" cy="430" rx="330" ry="74" /><polygon class="box-front-0" points="114.0,-155.6 330.0,-59.6 330.0,-276.3 114.0,-372.3" /><polygon class="box-top-0" points="160.1,-392.8 376.1,-296.8 330.0,-276.3 114.0,-372.3" /><polygon class="box-front-1" points="166.6,-174.5 372.5,-83.0 372.5,-284.3 166.6,-375.8" /><polygon class="box-top-1" points="172.3,-378.3 378.2,-286.8 372.5,-284.3 166.6,-375.8" /><polygon class="box-front-2" points="195.4,-166.2 287.5,-125.2 287.5,-318.8 195.4,-359.8" /><polygon class="box-top-2" points="201.1,-362.3 293.3,-321.4 287.5,-318.8 195.4,-359.8" /><polygon class="box-front-3" points="328.6,-107.0 370.3,-88.4 370.3,-282.0 328.6,-300.6" /><polygon class="box-top-3" points="334.3,-303.1 376.1,-284.6 370.3,-282.0 328.6,-300.6" /><polygon class="box-front-4" points="161.5,-84.6 194.6,-69.9 194.6,-107.3 161.5,-122.0" /><polygon class="box-top-4" points="186.0,-132.9 219.1,-118.2 194.6,-107.3 161.5,-122.0" /><polygon class="box-front-5" points="261.6,-33.0 327.8,-3.5 327.8,-21.1 261.6,-50.6" /><polygon class="box-top-5" points="280.3,-58.9 346.6,-29.4 327.8,-21.1 261.6,-50.6" /><polygon class="box-front-6" points="217.0,-246.6 255.8,-229.4 255.8,-261.3 217.0,-278.5" /><polygon class="box-top-6" points="237.1,-287.5 276.0,-270.2 255.8,-261.3 217.0,-278.5" /><polygon class="box-front-7" points="245.8,-253.5 268.8,-243.3 268.8,-247.7 245.8,-257.9" /><polygon class="box-top-7" points="247.2,-258.5 270.2,-248.3 268.8,-247.7 245.8,-257.9" /><polygon class="box-front-8" points="260.2,-227.4 299.0,-210.2 299.0,-242.1 260.2,-259.3" /><polygon class="box-top-8" points="280.3,-268.3 319.2,-251.0 299.0,-242.1 260.2,-259.3" /><polygon class="box-front-9" points="289.0,-234.3 312.0,-224.1 312.0,-228.5 289.0,-238.7" /><polygon class="box-top-9" points="290.4,-239.3 313.4,-229.1 312.0,-228.5 289.0,-238.7" /><polygon class="box-front-10" points="350.2,-191.3 381.8,-177.2 381.8,-208.0 350.2,-222.1" /><polygon class="box-top-10" points="361.7,-227.2 393.4,-213.1 381.8,-208.0 350.2,-222.1" /><polygon class="box-front-11" points="368.5,-199.5 393.0,-188.7 393.0,-201.9 368.5,-212.7" /><polygon class="box-top-11" points="373.6,-215.0 398.0,-204.1 393.0,-201.9 368.5,-212.7" /><polygon class="box-front-12" points="370.3,-182.1 393.4,-171.9 393.4,-177.4 370.3,-187.6" /><polygon class="box-top-12" points="373.2,-188.9 396.2,-178.6 393.4,-177.4 370.3,-187.6" /><polygon class="box-front-13" points="217.0,-207.0 255.8,-189.8 255.8,-221.7 217.0,-238.9" /><polygon class="box-top-13" points="237.1,-247.9 276.0,-230.6 255.8,-221.7 217.0,-238.9" /><polygon class="box-front-14" points="245.8,-213.9 268.8,-203.7 268.8,-208.1 245.8,-218.3" /><polygon class="box-top-14" points="247.2,-218.9 270.2,-208.7 268.8,-208.1 245.8,-218.3" /><polygon class="box-front-15" points="260.2,-187.8 299.0,-170.6 299.0,-202.5 260.2,-219.7" /><polygon class="box-top-15" points="280.3,-228.7 319.2,-211.4 299.0,-202.5 260.2,-219.7" /><polygon class="box-front-16" points="289.0,-194.7 312.0,-184.5 312.0,-188.9 289.0,-199.1" /><polygon class="box-top-16" points="290.4,-199.7 313.4,-189.5 312.0,-188.9 289.0,-199.1" /><polygon class="box-front-17" points="350.2,-151.7 381.8,-137.6 381.8,-168.4 350.2,-182.5" /><polygon class="box-top-17" points="361.7,-187.6 393.4,-173.5 381.8,-168.4 350.2,-182.5" /><polygon class="box-front-18" points="368.5,-159.9 393.0,-149.1 393.0,-162.3 368.5,-173.1" /><polygon class="box-top-18" points="373.6,-175.4 398.0,-164.5 393.0,-162.3 368.5,-173.1" /><polygon class="box-front-19" points="370.3,-142.5 393.4,-132.3 393.4,-137.8 370.3,-148.0" /><polygon class="box-top-19" points="373.2,-149.3 396.2,-139.0 393.4,-137.8 370.3,-148.0" /><polygon class="box-front-20" points="217.0,-167.4 255.8,-150.2 255.8,-182.1 217.0,-199.3" /><polygon class="box-top-20" points="237.1,-208.3 276.0,-191.0 255.8,-182.1 217.0,-199.3" /><polygon class="box-front-21" points="245.8,-174.3 268.8,-164.1 268.8,-168.5 245.8,-178.7" /><polygon class="box-top-21" points="247.2,-179.3 270.2,-169.1 268.8,-168.5 245.8,-178.7" /><polygon class="box-front-22" points="260.2,-148.2 299.0,-131.0 299.0,-162.9 260.2,-180.1" /><polygon class="box-top-22" points="280.3,-189.1 319.2,-171.8 299.0,-162.9 260.2,-180.1" /><polygon class="box-front-23" points="289.0,-155.1 312.0,-144.9 312.0,-149.3 289.0,-159.5" /><polygon class="box-top-23" points="290.4,-160.1 313.4,-149.9 312.0,-149.3 289.0,-159.5" /><polygon class="box-front-24" points="350.2,-112.1 381.8,-98.0 381.8,-128.8 350.2,-142.9" /><polygon class="box-top-24" points="361.7,-148.0 393.4,-133.9 381.8,-128.8 350.2,-142.9" /><polygon class="box-front-25" points="368.5,-120.3 393.0,-109.5 393.0,-122.7 368.5,-133.5" /><polygon class="box-top-25" points="373.6,-135.8 398.0,-124.9 393.0,-122.7 368.5,-133.5" /><polygon class="box-front-26" points="370.3,-102.9 393.4,-92.7 393.4,-98.2 370.3,-108.4" /><polygon class="box-top-26" points="373.2,-109.7 396.2,-99.4 393.4,-98.2 370.3,-108.4" /><polygon class="box-front-27" points="217.0,-127.8 255.8,-110.6 255.8,-142.5 217.0,-159.7" /><polygon class="box-top-27" points="237.1,-168.7 276.0,-151.4 255.8,-142.5 217.0,-159.7" /><polygon class="box-front-28" points="245.8,-134.7 268.8,-124.5 268.8,-128.9 245.8,-139.1" /><polygon class="box-top-28" points="247.2,-139.7 270.2,-129.5 268.8,-128.9 245.8,-139.1" /><polygon class="box-front-29" points="260.2,-108.6 299.0,-91.4 299.0,-123.3 260.2,-140.5" /><polygon class="box-top-29" points="280.3,-149.5 319.2,-132.2 299.0,-123.3 260.2,-140.5" /><polygon class="box-front-30" points="289.0,-115.5 312.0,-105.3 312.0,-109.7 289.0,-119.9" /><polygon class="box-top-30" points="290.4,-120.5 313.4,-110.3 312.0,-109.7 289.0,-119.9" /><polygon class="box-front-31" points="350.2,-72.5 381.8,-58.4 381.8,-89.2 350.2,-103.3" /><polygon class="box-top-31" points="361.7,-108.4 393.4,-94.3 381.8,-89.2 350.2,-103.3" /><polygon class="box-front-32" points="368.5,-80.7 393.0,-69.9 393.0,-83.1 368.5,-93.9" /><polygon class="box-top-32" points="373.6,-96.2 398.0,-85.3 393.0,-83.1 368.5,-93.9" /><polygon class="box-front-33" points="370.3,-63.3 393.4,-53.1 393.4,-58.6 370.3,-68.8" /><polygon class="box-top-33" points="373.2,-70.1 396.2,-59.8 393.4,-58.6 370.3,-68.8" /><polygon class="box-front-34" points="217.0,-88.2 255.8,-71.0 255.8,-102.9 217.0,-120.1" /><polygon class="box-top-34" points="237.1,-129.1 276.0,-111.8 255.8,-102.9 217.0,-120.1" /><polygon class="box-front-35" points="245.8,-95.1 268.8,-84.9 268.8,-89.3 245.8,-99.5" /><polygon class="box-top-35" points="247.2,-100.1 270.2,-89.9 268.8,-89.3 245.8,-99.5" /><polygon class="box-front-36" points="260.2,-69.0 299.0,-51.8 299.0,-83.7 260.2,-100.9" /><polygon class="box-top-36" points="280.3,-109.9 319.2,-92.6 299.0,-83.7 260.2,-100.9" /><polygon class="box-front-37" points="289.0,-75.9 312.0,-65.7 312.0,-70.1 289.0,-80.3" /><polygon class="box-top-37" points="290.4,-80.9 313.4,-70.7 312.0,-70.1 289.0,-80.3" /><polygon class="box-front-38" points="350.2,-32.9 381.8,-18.8 381.8,-49.6 350.2,-63.7" /><polygon class="box-top-38" points="361.7,-68.8 393.4,-54.7 381.8,-49.6 350.2,-63.7" /><polygon class="box-front-39" points="368.5,-41.1 393.0,-30.3 393.0,-43.5 368.5,-54.3" /><polygon class="box-top-39" points="373.6,-56.6 398.0,-45.7 393.0,-43.5 368.5,-54.3" /><polygon class="box-front-40" points="370.3,-23.7 393.4,-13.5 393.4,-19.0 370.3,-29.2" /><polygon class="box-top-40" points="373.2,-30.5 396.2,-20.2 393.4,-19.0 370.3,-29.2" /><polygon class="box-front-41" points="206.5,-265.7 220.9,-259.3 220.9,-281.3 206.5,-287.7" /><polygon class="box-top-41" points="211.6,-289.9 226.0,-283.5 220.9,-281.3 206.5,-287.7" /><polygon class="box-front-42" points="206.5,-107.3 220.9,-100.9 220.9,-122.9 206.5,-129.3" /><polygon class="box-top-42" points="211.6,-131.5 226.0,-125.1 220.9,-122.9 206.5,-129.3" /><polygon class="box-front-43" points="288.6,-249.0 303.0,-242.6 303.0,-264.6 288.6,-271.0" /><polygon class="box-top-43" points="293.6,-273.2 308.0,-266.8 303.0,-264.6 288.6,-271.0" /><polygon class="box-front-44" points="288.6,-51.0 303.0,-44.6 303.0,-66.6 288.6,-73.0" /><polygon class="box-top-44" points="293.6,-75.2 308.0,-68.8 303.0,-66.6 288.6,-73.0" /><polygon class="box-front-45" points="401.3,99.4 523.7,153.8 523.7,147.2 401.3,92.8" /><polygon class="box-top-45" points="480.5,57.6 602.9,112.0 523.7,147.2 401.3,92.8" /><polygon class="box-front-46" points="395.5,81.5 401.3,84.0 401.3,53.2 395.5,50.7" /><polygon class="box-top-46" points="474.7,15.5 480.5,18.0 401.3,53.2 395.5,50.7" /><polygon class="box-front-47" points="523.7,138.4 529.4,141.0 529.4,110.2 523.7,107.6" /><polygon class="box-top-47" points="602.9,72.4 608.6,75.0 529.4,110.2 523.7,107.6" /><polygon class="box-front-48" points="452.4,78.5 511.4,104.7 511.4,67.3 452.4,41.1" /><polygon class="box-top-48" points="492.7,23.1 551.8,49.4 511.4,67.3 452.4,41.1" /><polygon class="box-front-49" points="460.3,55.0 512.2,78.1 512.2,70.4 460.3,47.3" /><polygon class="box-top-49" points="492.0,33.3 543.8,56.3 512.2,70.4 460.3,47.3" /><polygon class="box-front-50" points="471.8,41.8 505.0,56.5 505.0,48.8 471.8,34.1" /><polygon class="box-top-50" points="479.0,30.9 512.2,45.6 505.0,48.8 471.8,34.1" /><polygon class="box-front-51" points="525.8,51.1 536.6,55.9 536.6,50.4 525.8,45.6" /><polygon class="box-top-51" points="532.3,42.7 543.1,47.5 536.6,50.4 525.8,45.6" /><polygon class="box-front-52" points="482.6,31.3 501.4,39.6 501.4,35.2 482.6,26.9" /><polygon class="box-top-52" points="495.6,21.1 514.3,29.5 501.4,35.2 482.6,26.9" /><polygon class="box-front-53" points="489.8,74.2 508.6,82.5 508.6,78.1 489.8,69.8" /><polygon class="box-top-53" points="502.8,64.0 521.5,72.3 508.6,78.1 489.8,69.8" /><polygon class="box-front-54" points="467.5,36.9 493.4,48.4 493.4,28.6 467.5,17.1" /><polygon class="box-top-54" points="481.9,10.7 507.8,22.2 493.4,28.6 467.5,17.1" /><polygon class="box-front-55" points="496.3,103.4 522.2,115.0 522.2,95.2 496.3,83.6" /><polygon class="box-top-55" points="510.7,77.2 536.6,88.8 522.2,95.2 496.3,83.6" /><polygon class="box-front-56" points="463.9,198.8 600.7,259.6 600.7,253.0 463.9,192.2" /><polygon class="box-top-56" points="571.9,144.2 708.7,205.0 600.7,253.0 463.9,192.2" /><polygon class="box-front-57" points="505.3,184.3 606.1,229.1 606.1,215.9 505.3,171.1" /><polygon class="box-top-57" points="566.5,143.9 667.3,188.7 606.1,215.9 505.3,171.1" /><polygon class="box-front-58" points="508.9,169.5 526.9,177.5 526.9,157.7 508.9,149.7" /><polygon class="box-top-58" points="568.0,123.5 586.0,131.5 526.9,157.7 508.9,149.7" /><polygon class="box-front-59" points="512.9,146.1 530.2,153.8 530.2,125.2 512.9,117.5" /><polygon class="box-top-59" points="564.7,94.4 582.0,102.1 530.2,125.2 512.9,117.5" /><polygon class="box-front-60" points="556.1,113.9 565.4,118.1 565.4,113.7 556.1,109.5" /><polygon class="box-top-60" points="562.6,106.6 571.9,110.8 565.4,113.7 556.1,109.5" /><polygon class="box-front-61" points="523.0,128.6 532.3,132.8 532.3,128.4 523.0,124.2" /><polygon class="box-top-61" points="529.4,121.3 538.8,125.5 532.3,128.4 523.0,124.2" /><polygon class="box-front-62" points="554.6,148.0 563.3,151.8 563.3,143.0 554.6,139.2" /><polygon class="box-top-62" points="567.6,133.4 576.2,137.3 563.3,143.0 554.6,139.2" /><polygon class="box-front-63" points="518.6,185.7 527.3,189.6 527.3,180.8 518.6,176.9" /><polygon class="box-top-63" points="531.6,171.2 540.2,175.0 527.3,180.8 518.6,176.9" /><polygon class="box-front-64" points="528.4,178.2 546.4,186.2 546.4,166.4 528.4,158.4" /><polygon class="box-top-64" points="587.4,132.1 605.4,140.1 546.4,166.4 528.4,158.4" /><polygon class="box-front-65" points="532.3,154.7 549.6,162.4 549.6,133.8 532.3,126.1" /><polygon class="box-top-65" points="584.2,103.1 601.4,110.8 549.6,133.8 532.3,126.1" /><polygon class="box-front-66" points="575.5,122.5 584.9,126.7 584.9,122.3 575.5,118.1" /><polygon class="box-top-66" points="582.0,115.3 591.4,119.4 584.9,122.3 575.5,118.1" /><polygon class="box-front-67" points="542.4,137.3 551.8,141.4 551.8,137.0 542.4,132.9" /><polygon class="box-top-67" points="548.9,130.0 558.2,134.1 551.8,137.0 542.4,132.9" /><polygon class="box-front-68" points="574.1,156.6 582.7,160.5 582.7,151.7 574.1,147.8" /><polygon class="box-top-68" points="587.0,142.1 595.7,145.9 582.7,151.7 574.1,147.8" /><polygon class="box-front-69" points="538.1,194.4 546.7,198.2 546.7,189.4 538.1,185.6" /><polygon class="box-top-69" points="551.0,179.8 559.7,183.7 546.7,189.4 538.1,185.6" /><polygon class="box-front-70" points="547.8,186.8 565.8,194.8 565.8,175.0 547.8,167.0" /><polygon class="box-top-70" points="606.8,140.8 624.8,148.8 565.8,175.0 547.8,167.0" /><polygon class="box-front-71" points="551.8,163.4 569.0,171.0 569.0,142.4 551.8,134.8" /><polygon class="box-top-71" points="603.6,111.7 620.9,119.4 569.0,142.4 551.8,134.8" /><polygon class="box-front-72" points="595.0,131.2 604.3,135.3 604.3,130.9 595.0,126.8" /><polygon class="box-top-72" points="601.4,123.9 610.8,128.1 604.3,130.9 595.0,126.8" /><polygon class="box-front-73" points="561.8,145.9 571.2,150.1 571.2,145.7 561.8,141.5" /><polygon class="box-top-73" points="568.3,138.6 577.7,142.8 571.2,145.7 561.8,141.5" /><polygon class="box-front-74" points="593.5,165.3 602.2,169.1 602.2,160.3 593.5,156.5" /><polygon class="box-top-74" points="606.5,150.7 615.1,154.5 602.2,160.3 593.5,156.5" /><polygon class="box-front-75" points="557.5,203.0 566.2,206.9 566.2,198.1 557.5,194.2" /><polygon class="box-top-75" points="570.5,188.5 579.1,192.3 566.2,198.1 557.5,194.2" /><polygon class="box-front-76" points="567.2,195.4 585.2,203.4 585.2,183.6 567.2,175.6" /><polygon class="box-top-76" points="626.3,149.4 644.3,157.4 585.2,183.6 567.2,175.6" /><polygon class="box-front-77" points="571.2,172.0 588.5,179.7 588.5,151.1 571.2,143.4" /><polygon class="box-top-77" points="623.0,120.4 640.3,128.0 588.5,151.1 571.2,143.4" /><polygon class="box-front-78" points="614.4,139.8 623.8,144.0 623.8,139.6 614.4,135.4" /><polygon class="box-top-78" points="620.9,132.5 630.2,136.7 623.8,139.6 614.4,135.4" /><polygon class="box-front-79" points="581.3,154.5 590.6,158.7 590.6,154.3 581.3,150.1" /><polygon class="box-top-79" points="587.8,147.3 597.1,151.4 590.6,154.3 581.3,150.1" /><polygon class="box-front-80" points="613.0,173.9 621.6,177.7 621.6,168.9 613.0,165.1" /><polygon class="box-top-80" points="625.9,159.3 634.6,163.2 621.6,168.9 613.0,165.1" /><polygon class="box-front-81" points="577.0,211.7 585.6,215.5 585.6,206.7 577.0,202.9" /><polygon class="box-top-81" points="589.9,197.1 598.6,200.9 585.6,206.7 577.0,202.9" /><polygon class="box-front-82" points="586.7,204.1 604.7,212.1 604.7,192.3 586.7,184.3" /><polygon class="box-top-82" points="645.7,158.0 663.7,166.0 604.7,192.3 586.7,184.3" /><polygon class="box-front-83" points="590.6,180.6 607.9,188.3 607.9,159.7 590.6,152.0" /><polygon class="box-top-83" points="642.5,129.0 659.8,136.7 607.9,159.7 590.6,152.0" /><polygon class="box-front-84" points="633.8,148.5 643.2,152.6 643.2,148.2 633.8,144.1" /><polygon class="box-top-84" points="640.3,141.2 649.7,145.3 643.2,148.2 633.8,144.1" /><polygon class="box-front-85" points="600.7,163.2 610.1,167.3 610.1,162.9 600.7,158.8" /><polygon class="box-top-85" points="607.2,155.9 616.6,160.1 610.1,162.9 600.7,158.8" /><polygon class="box-front-86" points="632.4,182.5 641.0,186.4 641.0,177.6 632.4,173.7" /><polygon class="box-top-86" points="645.4,168.0 654.0,171.8 641.0,177.6 632.4,173.7" /><polygon class="box-front-87" points="596.4,220.3 605.0,224.1 605.0,215.3 596.4,211.5" /><polygon class="box-top-87" points="609.4,205.7 618.0,209.6 605.0,215.3 596.4,211.5" /><polygon class="box-front-88" points="414.2,59.4 438.7,70.3 438.7,50.5 414.2,39.6" /><polygon class="box-top-88" points="430.1,32.6 454.6,43.5 438.7,50.5 414.2,39.6" /><polygon class="box-front-89" points="401.3,48.3 421.4,57.2 421.4,44.0 401.3,35.1" /><polygon class="box-top-89" points="409.9,31.2 430.1,40.2 421.4,44.0 401.3,35.1" /><polygon class="box-front-90" points="438.0,68.7 458.2,77.7 458.2,72.2 438.0,63.2" /><polygon class="box-top-90" points="451.0,57.5 471.1,66.4 458.2,72.2 438.0,63.2" />
</svg>
