<svg xmlns="http://www.w3.org/2000/svg" width="920" height="620" viewBox="0 0 920 620" role="img">
  <style>
    .background { fill: #f6f7f8; }
    .shadow { fill: #d8dde2; opacity: 0.7; }
    .title { font: 700 26px Arial, sans-serif; fill: #202a33; }
    .subtitle, .label { font: 16px Arial, sans-serif; fill: #4f5d68; }
    .box-top-0 { fill: #202a33; stroke: #38434c; stroke-width: 1.1; }.box-side-0, .box-front-0 { fill: #11181e; stroke: #38434c; stroke-width: 1; }<polygon class="box-side-0" points="376.1,-80.1 330.0,-59.6 330.0,-276.3 376.1,-296.8" />.box-top-1 { fill: #2d3942; stroke: #38434c; stroke-width: 1.1; }.box-side-1, .box-front-1 { fill: #1c252b; stroke: #38434c; stroke-width: 1; }<polygon class="box-side-1" points="378.2,-85.5 372.5,-83.0 372.5,-284.3 378.2,-286.8" />.box-top-2 { fill: #202a33; stroke: #38434c; stroke-width: 1.1; }.box-side-2, .box-front-2 { fill: #11181e; stroke: #38434c; stroke-width: 1; }<polygon class="box-side-2" points="368.5,-92.7 364.9,-91.1 364.9,-252.8 368.5,-254.4" />.box-top-3 { fill: #c51f1f; stroke: #38434c; stroke-width: 1.1; }.box-side-3, .box-front-3 { fill: #8c1515; stroke: #38434c; stroke-width: 1; }<polygon class="box-side-3" points="303.4,-260.9 278.9,-250.0 278.9,-276.4 303.4,-287.3" />.box-top-4 { fill: #161a1d; stroke: #38434c; stroke-width: 1.1; }.box-side-4, .box-front-4 { fill: #080a0c; stroke: #38434c; stroke-width: 1; }<polygon class="box-side-4" points="430.8,-71.0 400.6,-57.6 400.6,-187.4 430.8,-200.8" />.box-top-5 { fill: #161a1d; stroke: #38434c; stroke-width: 1.1; }.box-side-5, .box-front-5 { fill: #080a0c; stroke: #38434c; stroke-width: 1; }<polygon class="box-side-5" points="455.3,-29.0 430.8,-18.1 430.8,-136.9 455.3,-147.8" />.box-top-6 { fill: #161a1d; stroke: #38434c; stroke-width: 1.1; }.box-side-6, .box-front-6 { fill: #080a0c; stroke: #38434c; stroke-width: 1; }<polygon class="box-side-6" points="264.5,-36.2 242.9,-26.6 242.9,-53.0 264.5,-62.6" />.box-top-7 { fill: #c1cbd3; stroke: #38434c; stroke-width: 1.1; }.box-side-7, .box-front-7 { fill: #8d99a4; stroke: #38434c; stroke-width: 1; }<polygon class="box-side-7" points="602.9,118.6 523.7,153.8 523.7,147.2 602.9,112.0" />.box-top-8 { fill: #c1cbd3; stroke: #38434c; stroke-width: 1.1; }.box-side-8, .box-front-8 { fill: #8d99a4; stroke: #38434c; stroke-width: 1; }<polygon class="box-side-8" points="480.5,48.8 401.3,84.0 401.3,53.2 480.5,18.0" />.box-top-9 { fill: #c1cbd3; stroke: #38434c; stroke-width: 1.1; }.box-side-9, .box-front-9 { fill: #8d99a4; stroke: #38434c; stroke-width: 1; }<polygon class="box-side-9" points="608.6,105.8 529.4,141.0 529.4,110.2 608.6,75.0" />.box-top-10 { fill: #202a33; stroke: #38434c; stroke-width: 1.1; }.box-side-10, .box-front-10 { fill: #11181e; stroke: #38434c; stroke-width: 1; }<polygon class="box-side-10" points="551.8,86.8 511.4,104.7 511.4,67.3 551.8,49.4" />.box-top-11 { fill: #2d3942; stroke: #38434c; stroke-width: 1.1; }.box-side-11, .box-front-11 { fill: #1c252b; stroke: #38434c; stroke-width: 1; }<polygon class="box-side-11" points="543.8,64.0 512.2,78.1 512.2,70.4 543.8,56.3" />.box-top-12 { fill: #b7302a; stroke: #38434c; stroke-width: 1.1; }.box-side-12, .box-front-12 { fill: #7e1e1a; stroke: #38434c; stroke-width: 1; }<polygon class="box-side-12" points="512.2,53.3 505.0,56.5 505.0,48.8 512.2,45.6" />.box-top-13 { fill: #b7302a; stroke: #38434c; stroke-width: 1.1; }.box-side-13, .box-front-13 { fill: #7e1e1a; stroke: #38434c; stroke-width: 1; }<polygon class="box-side-13" points="543.1,53.0 536.6,55.9 536.6,50.4 543.1,47.5" />.box-top-14 { fill: #d4d8dc; stroke: #38434c; stroke-width: 1.1; }.box-side-14, .box-front-14 { fill: #9aa3aa; stroke: #38434c; stroke-width: 1; }<polygon class="box-side-14" points="514.3,33.9 501.4,39.6 501.4,35.2 514.3,29.5" />.box-top-15 { fill: #d4d8dc; stroke: #38434c; stroke-width: 1.1; }.box-side-15, .box-front-15 { fill: #9aa3aa; stroke: #38434c; stroke-width: 1; }<polygon class="box-side-15" points="521.5,76.7 508.6,82.5 508.6,78.1 521.5,72.3" />.box-top-16 { fill: #c51f1f; stroke: #38434c; stroke-width: 1.1; }.box-side-16, .box-front-16 { fill: #8c1515; stroke: #38434c; stroke-width: 1; }<polygon class="box-side-16" points="507.8,42.0 493.4,48.4 493.4,28.6 507.8,22.2" />.box-top-17 { fill: #161a1d; stroke: #38434c; stroke-width: 1.1; }.box-side-17, .box-front-17 { fill: #080a0c; stroke: #38434c; stroke-width: 1; }<polygon class="box-side-17" points="536.6,108.6 522.2,115.0 522.2,95.2 536.6,88.8" />.box-top-18 { fill: #c1cbd3; stroke: #38434c; stroke-width: 1.1; }.box-side-18, .box-front-18 { fill: #8d99a4; stroke: #38434c; stroke-width: 1; }<polygon class="box-side-18" points="708.7,211.6 600.7,259.6 600.7,253.0 708.7,205.0" />.box-top-19 { fill: #111820; stroke: #38434c; stroke-width: 1.1; }.box-side-19, .box-front-19 { fill: #080c10; stroke: #38434c; stroke-width: 1; }<polygon class="box-side-19" points="667.3,201.9 606.1,229.1 606.1,215.9 667.3,188.7" />.box-top-20 { fill: #c8a451; stroke: #38434c; stroke-width: 1.1; }.box-side-20, .box-front-20 { fill: #8c6d2a; stroke: #38434c; stroke-width: 1; }<polygon class="box-side-20" points="669.8,137.5 661.2,141.4 661.2,130.4 669.8,126.5" />.box-top-21 { fill: #c1cbd3; stroke: #38434c; stroke-width: 1.1; }.box-side-21, .box-front-21 { fill: #8d99a4; stroke: #38434c; stroke-width: 1; }<polygon class="box-side-21" points="616.6,190.0 605.0,195.2 605.0,171.0 616.6,165.8" />.box-top-22 { fill: #c1cbd3; stroke: #38434c; stroke-width: 1.1; }.box-side-22, .box-front-22 { fill: #8d99a4; stroke: #38434c; stroke-width: 1; }<polygon class="box-side-22" points="605.8,163.3 591.4,169.7 591.4,149.9 605.8,143.5" />.box-top-23 { fill: #c1cbd3; stroke: #38434c; stroke-width: 1.1; }.box-side-23, .box-front-23 { fill: #8d99a4; stroke: #38434c; stroke-width: 1; }<polygon class="box-side-23" points="491.3,138.8 476.9,145.2 476.9,99.0 491.3,92.6" />.box-top-24 { fill: #c1cbd3; stroke: #38434c; stroke-width: 1.1; }.box-side-24, .box-front-24 { fill: #8d99a4; stroke: #38434c; stroke-width: 1; }<polygon class="box-side-24" points="618.0,195.2 603.6,201.6 603.6,155.4 618.0,149.0" />.box-top-25 { fill: #d4d8dc; stroke: #38434c; stroke-width: 1.1; }.box-side-25, .box-front-25 { fill: #9aa3aa; stroke: #38434c; stroke-width: 1; }<polygon class="box-side-25" points="571.2,114.2 545.3,125.8 545.3,117.0 571.2,105.4" />.box-top-26 { fill: #111820; stroke: #38434c; stroke-width: 1.1; }.box-side-26, .box-front-26 { fill: #080c10; stroke: #38434c; stroke-width: 1; }<polygon class="box-side-26" points="586.0,151.3 526.9,177.5 526.9,157.7 586.0,131.5" />.box-top-27 { fill: #b7302a; stroke: #38434c; stroke-width: 1.1; }.box-side-27, .box-front-27 { fill: #7e1e1a; stroke: #38434c; stroke-width: 1; }<polygon class="box-side-27" points="582.0,130.7 530.2,153.8 530.2,125.2 582.0,102.1" />.box-top-28 { fill: #111820; stroke: #38434c; stroke-width: 1.1; }.box-side-28, .box-front-28 { fill: #080c10; stroke: #38434c; stroke-width: 1; }<polygon class="box-side-28" points="571.9,115.2 565.4,118.1 565.4,113.7 571.9,110.8" />.box-top-29 { fill: #111820; stroke: #38434c; stroke-width: 1.1; }.box-side-29, .box-front-29 { fill: #080c10; stroke: #38434c; stroke-width: 1; }<polygon class="box-side-29" points="538.8,129.9 532.3,132.8 532.3,128.4 538.8,125.5" />.box-top-30 { fill: #111820; stroke: #38434c; stroke-width: 1.1; }.box-side-30, .box-front-30 { fill: #080c10; stroke: #38434c; stroke-width: 1; }<polygon class="box-side-30" points="576.2,146.1 563.3,151.8 563.3,143.0 576.2,137.3" />.box-top-31 { fill: #111820; stroke: #38434c; stroke-width: 1.1; }.box-side-31, .box-front-31 { fill: #080c10; stroke: #38434c; stroke-width: 1; }<polygon class="box-side-31" points="540.2,183.8 527.3,189.6 527.3,180.8 540.2,175.0" />.box-top-32 { fill: #161a1d; stroke: #38434c; stroke-width: 1.1; }.box-side-32, .box-front-32 { fill: #080a0c; stroke: #38434c; stroke-width: 1; }<polygon class="box-side-32" points="518.6,109.2 504.2,115.6 504.2,100.2 518.6,93.8" />.box-top-33 { fill: #111820; stroke: #38434c; stroke-width: 1.1; }.box-side-33, .box-front-33 { fill: #080c10; stroke: #38434c; stroke-width: 1; }<polygon class="box-side-33" points="605.4,159.9 546.4,186.2 546.4,166.4 605.4,140.1" />.box-top-34 { fill: #b7302a; stroke: #38434c; stroke-width: 1.1; }.box-side-34, .box-front-34 { fill: #7e1e1a; stroke: #38434c; stroke-width: 1; }<polygon class="box-side-34" points="601.4,139.4 549.6,162.4 549.6,133.8 601.4,110.8" />.box-top-35 { fill: #111820; stroke: #38434c; stroke-width: 1.1; }.box-side-35, .box-front-35 { fill: #080c10; stroke: #38434c; stroke-width: 1; }<polygon class="box-side-35" points="591.4,123.8 584.9,126.7 584.9,122.3 591.4,119.4" />.box-top-36 { fill: #111820; stroke: #38434c; stroke-width: 1.1; }.box-side-36, .box-front-36 { fill: #080c10; stroke: #38434c; stroke-width: 1; }<polygon class="box-side-36" points="558.2,138.5 551.8,141.4 551.8,137.0 558.2,134.1" />.box-top-37 { fill: #111820; stroke: #38434c; stroke-width: 1.1; }.box-side-37, .box-front-37 { fill: #080c10; stroke: #38434c; stroke-width: 1; }<polygon class="box-side-37" points="595.7,154.7 582.7,160.5 582.7,151.7 595.7,145.9" />.box-top-38 { fill: #111820; stroke: #38434c; stroke-width: 1.1; }.box-side-38, .box-front-38 { fill: #080c10; stroke: #38434c; stroke-width: 1; }<polygon class="box-side-38" points="559.7,192.5 546.7,198.2 546.7,189.4 559.7,183.7" />.box-top-39 { fill: #161a1d; stroke: #38434c; stroke-width: 1.1; }.box-side-39, .box-front-39 { fill: #080a0c; stroke: #38434c; stroke-width: 1; }<polygon class="box-side-39" points="538.1,117.8 523.7,124.2 523.7,108.8 538.1,102.4" />.box-top-40 { fill: #111820; stroke: #38434c; stroke-width: 1.1; }.box-side-40, .box-front-40 { fill: #080c10; stroke: #38434c; stroke-width: 1; }<polygon class="box-side-40" points="624.8,168.6 565.8,194.8 565.8,175.0 624.8,148.8" />.box-top-41 { fill: #b7302a; stroke: #38434c; stroke-width: 1.1; }.box-side-41, .box-front-41 { fill: #7e1e1a; stroke: #38434c; stroke-width: 1; }<polygon class="box-side-41" points="620.9,148.0 569.0,171.0 569.0,142.4 620.9,119.4" />.box-top-42 { fill: #111820; stroke: #38434c; stroke-width: 1.1; }.box-side-42, .box-front-42 { fill: #080c10; stroke: #38434c; stroke-width: 1; }<polygon class="box-side-42" points="610.8,132.5 604.3,135.3 604.3,130.9 610.8,128.1" />.box-top-43 { fill: #111820; stroke: #38434c; stroke-width: 1.1; }.box-side-43, .box-front-43 { fill: #080c10; stroke: #38434c; stroke-width: 1; }<polygon class="box-side-43" points="577.7,147.2 571.2,150.1 571.2,145.7 577.7,142.8" />.box-top-44 { fill: #111820; stroke: #38434c; stroke-width: 1.1; }.box-side-44, .box-front-44 { fill: #080c10; stroke: #38434c; stroke-width: 1; }<polygon class="box-side-44" points="615.1,163.3 602.2,169.1 602.2,160.3 615.1,154.5" />.box-top-45 { fill: #111820; stroke: #38434c; stroke-width: 1.1; }.box-side-45, .box-front-45 { fill: #080c10; stroke: #38434c; stroke-width: 1; }<polygon class="box-side-45" points="579.1,201.1 566.2,206.9 566.2,198.1 579.1,192.3" />.box-top-46 { fill: #161a1d; stroke: #38434c; stroke-width: 1.1; }.box-side-46, .box-front-46 { fill: #080a0c; stroke: #38434c; stroke-width: 1; }<polygon class="box-side-46" points="564.0,126.2 542.4,135.8 542.4,120.4 564.0,110.8" />.box-top-47 { fill: #111820; stroke: #38434c; stroke-width: 1.1; }.box-side-47, .box-front-47 { fill: #080c10; stroke: #38434c; stroke-width: 1; }<polygon class="box-side-47" points="644.3,177.2 585.2,203.4 585.2,183.6 644.3,157.4" />.box-top-48 { fill: #b7302a; stroke: #38434c; stroke-width: 1.1; }.box-side-48, .box-front-48 { fill: #7e1e1a; stroke: #38434c; stroke-width: 1; }<polygon class="box-side-48" points="640.3,156.6 588.5,179.7 588.5,151.1 640.3,128.0" />.box-top-49 { fill: #111820; stroke: #38434c; stroke-width: 1.1; }.box-side-49, .box-front-49 { fill: #080c10; stroke: #38434c; stroke-width: 1; }<polygon class="box-side-49" points="630.2,141.1 623.8,144.0 623.8,139.6 630.2,136.7" />.box-top-50 { fill: #111820; stroke: #38434c; stroke-width: 1.1; }.box-side-50, .box-front-50 { fill: #080c10; stroke: #38434c; stroke-width: 1; }<polygon class="box-side-50" points="597.1,155.8 590.6,158.7 590.6,154.3 597.1,151.4" />.box-top-51 { fill: #111820; stroke: #38434c; stroke-width: 1.1; }.box-side-51, .box-front-51 { fill: #080c10; stroke: #38434c; stroke-width: 1; }<polygon class="box-side-51" points="634.6,172.0 621.6,177.7 621.6,168.9 634.6,163.2" />.box-top-52 { fill: #111820; stroke: #38434c; stroke-width: 1.1; }.box-side-52, .box-front-52 { fill: #080c10; stroke: #38434c; stroke-width: 1; }<polygon class="box-side-52" points="598.6,209.7 585.6,215.5 585.6,206.7 598.6,200.9" />.box-top-53 { fill: #161a1d; stroke: #38434c; stroke-width: 1.1; }.box-side-53, .box-front-53 { fill: #080a0c; stroke: #38434c; stroke-width: 1; }<polygon class="box-side-53" points="577.0,135.1 562.6,141.5 562.6,126.1 577.0,119.7" />.box-top-54 { fill: #111820; stroke: #38434c; stroke-width: 1.1; }.box-side-54, .box-front-54 { fill: #080c10; stroke: #38434c; stroke-width: 1; }<polygon class="box-side-54" points="663.7,185.8 604.7,212.1 604.7,192.3 663.7,166.0" />.box-top-55 { fill: #b7302a; stroke: #38434c; stroke-width: 1.1; }.box-side-55, .box-front-55 { fill: #7e1e1a; stroke: #38434c; stroke-width: 1; }<polygon class="box-side-55" points="659.8,165.3 607.9,188.3 607.9,159.7 659.8,136.7" />.box-top-56 { fill: #111820; stroke: #38434c; stroke-width: 1.1; }.box-side-56, .box-front-56 { fill: #080c10; stroke: #38434c; stroke-width: 1; }<polygon class="box-side-56" points="649.7,149.7 643.2,152.6 643.2,148.2 649.7,145.3" />.box-top-57 { fill: #111820; stroke: #38434c; stroke-width: 1.1; }.box-side-57, .box-front-57 { fill: #080c10; stroke: #38434c; stroke-width: 1; }<polygon class="box-side-57" points="616.6,164.5 610.1,167.3 610.1,162.9 616.6,160.1" />.box-top-58 { fill: #111820; stroke: #38434c; stroke-width: 1.1; }.box-side-58, .box-front-58 { fill: #080c10; stroke: #38434c; stroke-width: 1; }<polygon class="box-side-58" points="654.0,180.6 641.0,186.4 641.0,177.6 654.0,171.8" />.box-top-59 { fill: #111820; stroke: #38434c; stroke-width: 1.1; }.box-side-59, .box-front-59 { fill: #080c10; stroke: #38434c; stroke-width: 1; }<polygon class="box-side-59" points="618.0,218.4 605.0,224.1 605.0,215.3 618.0,209.6" />.box-top-60 { fill: #161a1d; stroke: #38434c; stroke-width: 1.1; }.box-side-60, .box-front-60 { fill: #080a0c; stroke: #38434c; stroke-width: 1; }<polygon class="box-side-60" points="596.4,143.8 582.0,150.2 582.0,134.8 596.4,128.4" />.box-top-61 { fill: #111820; stroke: #38434c; stroke-width: 1.1; }.box-side-61, .box-front-61 { fill: #080c10; stroke: #38434c; stroke-width: 1; }<polygon class="box-side-61" points="454.6,63.3 438.7,70.3 438.7,50.5 454.6,43.5" />.box-top-62 { fill: #d4d8dc; stroke: #38434c; stroke-width: 1.1; }.box-side-62, .box-front-62 { fill: #9aa3aa; stroke: #38434c; stroke-width: 1; }<polygon class="box-side-62" points="430.1,53.4 421.4,57.2 421.4,44.0 430.1,40.2" />.box-top-63 { fill: #c8a451; stroke: #38434c; stroke-width: 1.1; }.box-side-63, .box-front-63 { fill: #8c6d2a; stroke: #38434c; stroke-width: 1; }<polygon class="box-side-63" points="471.1,71.9 458.2,77.7 458.2,72.2 471.1,66.4" />
  </style>
  <text class="title" x="34" y="46">Electrical Device Models Rev A</text><text class="subtitle" x="34" y="74">Separate photo-informed device envelopes for relay box, 100A breaker/cutoff, and MIDI fuse holders.</text><text class="label" x="34" y="556">Static assembly visual. Open the HTML file for rotate/zoom interaction.</text>
  <rect class="background" width="920" height="620" /><ellipse class="shadow" cx="455" cy="430" rx="330" ry="74" /><polygon class="box-front-0" points="114.0,-155.6 330.0,-59.6 330.0,-276.3 114.0,-372.3" /><polygon class="box-top-0" points="160.1,-392.8 376.1,-296.8 330.0,-276.3 114.0,-372.3" /><polygon class="box-front-1" points="166.6,-174.5 372.5,-83.0 372.5,-284.3 166.6,-375.8" /><polygon class="box-top-1" points="172.3,-378.3 378.2,-286.8 372.5,-284.3 166.6,-375.8" /><polygon class="box-front-2" points="184.9,-171.1 364.9,-91.1 364.9,-252.8 184.9,-332.8" /><polygon class="box-top-2" points="188.5,-334.4 368.5,-254.4 364.9,-252.8 184.9,-332.8" /><polygon class="box-front-3" points="181.0,-293.6 278.9,-250.0 278.9,-276.4 181.0,-320.0" /><polygon class="box-top-3" points="205.4,-330.8 303.4,-287.3 278.9,-276.4 181.0,-320.0" /><polygon class="box-front-4" points="370.3,-71.0 400.6,-57.6 400.6,-187.4 370.3,-200.8" /><polygon class="box-top-4" points="400.6,-214.2 430.8,-200.8 400.6,-187.4 370.3,-200.8" /><polygon class="box-front-5" points="400.6,-31.5 430.8,-18.1 430.8,-136.9 400.6,-150.3" /><polygon class="box-top-5" points="425.0,-161.2 455.3,-147.8 430.8,-136.9 400.6,-150.3" /><polygon class="box-front-6" points="173.8,-57.3 242.9,-26.6 242.9,-53.0 173.8,-83.7" /><polygon class="box-top-6" points="195.4,-93.3 264.5,-62.6 242.9,-53.0 173.8,-83.7" /><polygon class="box-front-7" points="401.3,99.4 523.7,153.8 523.7,147.2 401.3,92.8" /><polygon class="box-top-7" points="480.5,57.6 602.9,112.0 523.7,147.2 401.3,92.8" /><polygon class="box-front-8" points="395.5,81.5 401.3,84.0 401.3,53.2 395.5,50.7" /><polygon class="box-top-8" points="474.7,15.5 480.5,18.0 401.3,53.2 395.5,50.7" /><polygon class="box-front-9" points="523.7,138.4 529.4,141.0 529.4,110.2 523.7,107.6" /><polygon class="box-top-9" points="602.9,72.4 608.6,75.0 529.4,110.2 523.7,107.6" /><polygon class="box-front-10" points="452.4,78.5 511.4,104.7 511.4,67.3 452.4,41.1" /><polygon class="box-top-10" points="492.7,23.1 551.8,49.4 511.4,67.3 452.4,41.1" /><polygon class="box-front-11" points="460.3,55.0 512.2,78.1 512.2,70.4 460.3,47.3" /><polygon class="box-top-11" points="492.0,33.3 543.8,56.3 512.2,70.4 460.3,47.3" /><polygon class="box-front-12" points="471.8,41.8 505.0,56.5 505.0,48.8 471.8,34.1" /><polygon class="box-top-12" points="479.0,30.9 512.2,45.6 505.0,48.8 471.8,34.1" /><polygon class="box-front-13" points="525.8,51.1 536.6,55.9 536.6,50.4 525.8,45.6" /><polygon class="box-top-13" points="532.3,42.7 543.1,47.5 536.6,50.4 525.8,45.6" /><polygon class="box-front-14" points="482.6,31.3 501.4,39.6 501.4,35.2 482.6,26.9" /><polygon class="box-top-14" points="495.6,21.1 514.3,29.5 501.4,35.2 482.6,26.9" /><polygon class="box-front-15" points="489.8,74.2 508.6,82.5 508.6,78.1 489.8,69.8" /><polygon class="box-top-15" points="502.8,64.0 521.5,72.3 508.6,78.1 489.8,69.8" /><polygon class="box-front-16" points="467.5,36.9 493.4,48.4 493.4,28.6 467.5,17.1" /><polygon class="box-top-16" points="481.9,10.7 507.8,22.2 493.4,28.6 467.5,17.1" /><polygon class="box-front-17" points="496.3,103.4 522.2,115.0 522.2,95.2 496.3,83.6" /><polygon class="box-top-17" points="510.7,77.2 536.6,88.8 522.2,95.2 496.3,83.6" /><polygon class="box-front-18" points="463.9,198.8 600.7,259.6 600.7,253.0 463.9,192.2" /><polygon class="box-top-18" points="571.9,144.2 708.7,205.0 600.7,253.0 463.9,192.2" /><polygon class="box-front-19" points="505.3,184.3 606.1,229.1 606.1,215.9 505.3,171.1" /><polygon class="box-top-19" points="566.5,143.9 667.3,188.7 606.1,215.9 505.3,171.1" /><polygon class="box-front-20" points="569.0,100.4 661.2,141.4 661.2,130.4 569.0,89.4" /><polygon class="box-top-20" points="577.7,85.6 669.8,126.5 661.2,130.4 569.0,89.4" /><polygon class="box-front-21" points="482.6,140.8 605.0,195.2 605.0,171.0 482.6,116.6" /><polygon class="box-top-21" points="494.2,111.4 616.6,165.8 605.0,171.0 482.6,116.6" /><polygon class="box-front-22" points="480.5,120.4 591.4,169.7 591.4,149.9 480.5,100.6" /><polygon class="box-top-22" points="494.9,94.2 605.8,143.5 591.4,149.9 480.5,100.6" /><polygon class="box-front-23" points="468.2,141.4 476.9,145.2 476.9,99.0 468.2,95.2" /><polygon class="box-top-23" points="482.6,88.8 491.3,92.6 476.9,99.0 468.2,95.2" /><polygon class="box-front-24" points="595.0,197.7 603.6,201.6 603.6,155.4 595.0,151.5" /><polygon class="box-top-24" points="609.4,145.1 618.0,149.0 603.6,155.4 595.0,151.5" /><polygon class="box-front-25" points="515.0,112.3 545.3,125.8 545.3,117.0 515.0,103.5" /><polygon class="box-top-25" points="541.0,92.0 571.2,105.4 545.3,117.0 515.0,103.5" /><polygon class="box-front-26" points="508.9,169.5 526.9,177.5 526.9,157.7 508.9,149.7" /><polygon class="box-top-26" points="568.0,123.5 586.0,131.5 526.9,157.7 508.9,149.7" /><polygon class="box-front-27" points="512.9,146.1 530.2,153.8 530.2,125.2 512.9,117.5" /><polygon class="box-top-27" points="564.7,94.4 582.0,102.1 530.2,125.2 512.9,117.5" /><polygon class="box-front-28" points="556.1,113.9 565.4,118.1 565.4,113.7 556.1,109.5" /><polygon class="box-top-28" points="562.6,106.6 571.9,110.8 565.4,113.7 556.1,109.5" /><polygon class="box-front-29" points="523.0,128.6 532.3,132.8 532.3,128.4 523.0,124.2" /><polygon class="box-top-29" points="529.4,121.3 538.8,125.5 532.3,128.4 523.0,124.2" /><polygon class="box-front-30" points="554.6,148.0 563.3,151.8 563.3,143.0 554.6,139.2" /><polygon class="box-top-30" points="567.6,133.4 576.2,137.3 563.3,143.0 554.6,139.2" /><polygon class="box-front-31" points="518.6,185.7 527.3,189.6 527.3,180.8 518.6,176.9" /><polygon class="box-top-31" points="531.6,171.2 540.2,175.0 527.3,180.8 518.6,176.9" /><polygon class="box-front-32" points="489.8,109.2 504.2,115.6 504.2,100.2 489.8,93.8" /><polygon class="box-top-32" points="504.2,87.4 518.6,93.8 504.2,100.2 489.8,93.8" /><polygon class="box-front-33" points="528.4,178.2 546.4,186.2 546.4,166.4 528.4,158.4" /><polygon class="box-top-33" points="587.4,132.1 605.4,140.1 546.4,166.4 528.4,158.4" /><polygon class="box-front-34" points="532.3,154.7 549.6,162.4 549.6,133.8 532.3,126.1" /><polygon class="box-top-34" points="584.2,103.1 601.4,110.8 549.6,133.8 532.3,126.1" /><polygon class="box-front-35" points="575.5,122.5 584.9,126.7 584.9,122.3 575.5,118.1" /><polygon class="box-top-35" points="582.0,115.3 591.4,119.4 584.9,122.3 575.5,118.1" /><polygon class="box-front-36" points="542.4,137.3 551.8,141.4 551.8,137.0 542.4,132.9" /><polygon class="box-top-36" points="548.9,130.0 558.2,134.1 551.8,137.0 542.4,132.9" /><polygon class="box-front-37" points="574.1,156.6 582.7,160.5 582.7,151.7 574.1,147.8" /><polygon class="box-top-37" points="587.0,142.1 595.7,145.9 582.7,151.7 574.1,147.8" /><polygon class="box-front-38" points="538.1,194.4 546.7,198.2 546.7,189.4 538.1,185.6" /><polygon class="box-top-38" points="551.0,179.8 559.7,183.7 546.7,189.4 538.1,185.6" /><polygon class="box-front-39" points="509.3,117.8 523.7,124.2 523.7,108.8 509.3,102.4" /><polygon class="box-top-39" points="523.7,96.0 538.1,102.4 523.7,108.8 509.3,102.4" /><polygon class="box-front-40" points="547.8,186.8 565.8,194.8 565.8,175.0 547.8,167.0" /><polygon class="box-top-40" points="606.8,140.8 624.8,148.8 565.8,175.0 547.8,167.0" /><polygon class="box-front-41" points="551.8,163.4 569.0,171.0 569.0,142.4 551.8,134.8" /><polygon class="box-top-41" points="603.6,111.7 620.9,119.4 569.0,142.4 551.8,134.8" /><polygon class="box-front-42" points="595.0,131.2 604.3,135.3 604.3,130.9 595.0,126.8" /><polygon class="box-top-42" points="601.4,123.9 610.8,128.1 604.3,130.9 595.0,126.8" /><polygon class="box-front-43" points="561.8,145.9 571.2,150.1 571.2,145.7 561.8,141.5" /><polygon class="box-top-43" points="568.3,138.6 577.7,142.8 571.2,145.7 561.8,141.5" /><polygon class="box-front-44" points="593.5,165.3 602.2,169.1 602.2,160.3 593.5,156.5" /><polygon class="box-top-44" points="606.5,150.7 615.1,154.5 602.2,160.3 593.5,156.5" /><polygon class="box-front-45" points="557.5,203.0 566.2,206.9 566.2,198.1 557.5,194.2" /><polygon class="box-top-45" points="570.5,188.5 579.1,192.3 566.2,198.1 557.5,194.2" /><polygon class="box-front-46" points="522.2,126.8 542.4,135.8 542.4,120.4 522.2,111.4" /><polygon class="box-top-46" points="543.8,101.8 564.0,110.8 542.4,120.4 522.2,111.4" /><polygon class="box-front-47" points="567.2,195.4 585.2,203.4 585.2,183.6 567.2,175.6" /><polygon class="box-top-47" points="626.3,149.4 644.3,157.4 585.2,183.6 567.2,175.6" /><polygon class="box-front-48" points="571.2,172.0 588.5,179.7 588.5,151.1 571.2,143.4" /><polygon class="box-top-48" points="623.0,120.4 640.3,128.0 588.5,151.1 571.2,143.4" /><polygon class="box-front-49" points="614.4,139.8 623.8,144.0 623.8,139.6 614.4,135.4" /><polygon class="box-top-49" points="620.9,132.5 630.2,136.7 623.8,139.6 614.4,135.4" /><polygon class="box-front-50" points="581.3,154.5 590.6,158.7 590.6,154.3 581.3,150.1" /><polygon class="box-top-50" points="587.8,147.3 597.1,151.4 590.6,154.3 581.3,150.1" /><polygon class="box-front-51" points="613.0,173.9 621.6,177.7 621.6,168.9 613.0,165.1" /><polygon class="box-top-51" points="625.9,159.3 634.6,163.2 621.6,168.9 613.0,165.1" /><polygon class="box-front-52" points="577.0,211.7 585.6,215.5 585.6,206.7 577.0,202.9" /><polygon class="box-top-52" points="589.9,197.1 598.6,200.9 585.6,206.7 577.0,202.9" /><polygon class="box-front-53" points="548.2,135.1 562.6,141.5 562.6,126.1 548.2,119.7" /><polygon class="box-top-53" points="562.6,113.3 577.0,119.7 562.6,126.1 548.2,119.7" /><polygon class="box-front-54" points="586.7,204.1 604.7,212.1 604.7,192.3 586.7,184.3" /><polygon class="box-top-54" points="645.7,158.0 663.7,166.0 604.7,192.3 586.7,184.3" /><polygon class="box-front-55" points="590.6,180.6 607.9,188.3 607.9,159.7 590.6,152.0" /><polygon class="box-top-55" points="642.5,129.0 659.8,136.7 607.9,159.7 590.6,152.0" /><polygon class="box-front-56" points="633.8,148.5 643.2,152.6 643.2,148.2 633.8,144.1" /><polygon class="box-top-56" points="640.3,141.2 649.7,145.3 643.2,148.2 633.8,144.1" /><polygon class="box-front-57" points="600.7,163.2 610.1,167.3 610.1,162.9 600.7,158.8" /><polygon class="box-top-57" points="607.2,155.9 616.6,160.1 610.1,162.9 600.7,158.8" /><polygon class="box-front-58" points="632.4,182.5 641.0,186.4 641.0,177.6 632.4,173.7" /><polygon class="box-top-58" points="645.4,168.0 654.0,171.8 641.0,177.6 632.4,173.7" /><polygon class="box-front-59" points="596.4,220.3 605.0,224.1 605.0,215.3 596.4,211.5" /><polygon class="box-top-59" points="609.4,205.7 618.0,209.6 605.0,215.3 596.4,211.5" /><polygon class="box-front-60" points="567.6,143.8 582.0,150.2 582.0,134.8 567.6,128.4" /><polygon class="box-top-60" points="582.0,122.0 596.4,128.4 582.0,134.8 567.6,128.4" /><polygon class="box-front-61" points="414.2,59.4 438.7,70.3 438.7,50.5 414.2,39.6" /><polygon class="box-top-61" points="430.1,32.6 454.6,43.5 438.7,50.5 414.2,39.6" /><polygon class="box-front-62" points="401.3,48.3 421.4,57.2 421.4,44.0 401.3,35.1" /><polygon class="box-top-62" points="409.9,31.2 430.1,40.2 421.4,44.0 401.3,35.1" /><polygon class="box-front-63" points="438.0,68.7 458.2,77.7 458.2,72.2 438.0,63.2" /><polygon class="box-top-63" points="451.0,57.5 471.1,66.4 458.2,72.2 438.0,63.2" />
</svg>
