0
SECTION
2
HEADER
9
$INSUNITS
70
4
0
ENDSEC
0
SECTION
2
ENTITIES
0
LINE
8
CUT
10
20
20
0
11
280
21
0
0
LINE
8
CUT
10
280
20
0
11
280
21
20
0
LINE
8
CUT
10
280
20
20
11
300
21
20
0
LINE
8
CUT
10
300
20
20
11
300
21
160
0
LINE
8
CUT
10
300
20
160
11
280
21
160
0
LINE
8
CUT
10
280
20
160
11
280
21
180
0
LINE
8
CUT
10
280
20
180
11
20
21
180
0
LINE
8
CUT
10
20
20
180
11
20
21
160
0
LINE
8
CUT
10
20
20
160
11
0
21
160
0
LINE
8
CUT
10
0
20
160
11
0
21
20
0
LINE
8
CUT
10
0
20
20
11
20
21
20
0
LINE
8
CUT
10
20
20
20
11
20
21
0
0
LINE
8
CUT
10
72
20
10
11
72.08
21
9.22
0
LINE
8
CUT
10
72.08
20
9.22
11
72.3
21
8.47
0
LINE
8
CUT
10
72.3
20
8.47
11
72.67
21
7.78
0
LINE
8
CUT
10
72.67
20
7.78
11
73.17
21
7.17
0
LINE
8
CUT
10
73.17
20
7.17
11
73.78
21
6.67
0
LINE
8
CUT
10
73.78
20
6.67
11
74.47
21
6.3
0
LINE
8
CUT
10
74.47
20
6.3
11
75.22
21
6.08
0
LINE
8
CUT
10
75.22
20
6.08
11
76
21
6
0
LINE
8
CUT
10
76
20
6
11
84
21
6
0
LINE
8
CUT
10
84
20
6
11
84.78
21
6.08
0
LINE
8
CUT
10
84.78
20
6.08
11
85.53
21
6.3
0
LINE
8
CUT
10
85.53
20
6.3
11
86.22
21
6.67
0
LINE
8
CUT
10
86.22
20
6.67
11
86.83
21
7.17
0
LINE
8
CUT
10
86.83
20
7.17
11
87.33
21
7.78
0
LINE
8
CUT
10
87.33
20
7.78
11
87.7
21
8.47
0
LINE
8
CUT
10
87.7
20
8.47
11
87.92
21
9.22
0
LINE
8
CUT
10
87.92
20
9.22
11
88
21
10
0
LINE
8
CUT
10
88
20
10
11
88
21
10
0
LINE
8
CUT
10
88
20
10
11
87.92
21
10.78
0
LINE
8
CUT
10
87.92
20
10.78
11
87.7
21
11.53
0
LINE
8
CUT
10
87.7
20
11.53
11
87.33
21
12.22
0
LINE
8
CUT
10
87.33
20
12.22
11
86.83
21
12.83
0
LINE
8
CUT
10
86.83
20
12.83
11
86.22
21
13.33
0
LINE
8
CUT
10
86.22
20
13.33
11
85.53
21
13.7
0
LINE
8
CUT
10
85.53
20
13.7
11
84.78
21
13.92
0
LINE
8
CUT
10
84.78
20
13.92
11
84
21
14
0
LINE
8
CUT
10
84
20
14
11
76
21
14
0
LINE
8
CUT
10
76
20
14
11
75.22
21
13.92
0
LINE
8
CUT
10
75.22
20
13.92
11
74.47
21
13.7
0
LINE
8
CUT
10
74.47
20
13.7
11
73.78
21
13.33
0
LINE
8
CUT
10
73.78
20
13.33
11
73.17
21
12.83
0
LINE
8
CUT
10
73.17
20
12.83
11
72.67
21
12.22
0
LINE
8
CUT
10
72.67
20
12.22
11
72.3
21
11.53
0
LINE
8
CUT
10
72.3
20
11.53
11
72.08
21
10.78
0
LINE
8
CUT
10
72.08
20
10.78
11
72
21
10
0
LINE
8
CUT
10
72
20
10
11
72
21
10
0
LINE
8
CUT
10
212
20
10
11
212.08
21
9.22
0
LINE
8
CUT
10
212.08
20
9.22
11
212.3
21
8.47
0
LINE
8
CUT
10
212.3
20
8.47
11
212.67
21
7.78
0
LINE
8
CUT
10
212.67
20
7.78
11
213.17
21
7.17
0
LINE
8
CUT
10
213.17
20
7.17
11
213.78
21
6.67
0
LINE
8
CUT
10
213.78
20
6.67
11
214.47
21
6.3
0
LINE
8
CUT
10
214.47
20
6.3
11
215.22
21
6.08
0
LINE
8
CUT
10
215.22
20
6.08
11
216
21
6
0
LINE
8
CUT
10
216
20
6
11
224
21
6
0
LINE
8
CUT
10
224
20
6
11
224.78
21
6.08
0
LINE
8
CUT
10
224.78
20
6.08
11
225.53
21
6.3
0
LINE
8
CUT
10
225.53
20
6.3
11
226.22
21
6.67
0
LINE
8
CUT
10
226.22
20
6.67
11
226.83
21
7.17
0
LINE
8
CUT
10
226.83
20
7.17
11
227.33
21
7.78
0
LINE
8
CUT
10
227.33
20
7.78
11
227.7
21
8.47
0
LINE
8
CUT
10
227.7
20
8.47
11
227.92
21
9.22
0
LINE
8
CUT
10
227.92
20
9.22
11
228
21
10
0
LINE
8
CUT
10
228
20
10
11
228
21
10
0
LINE
8
CUT
10
228
20
10
11
227.92
21
10.78
0
LINE
8
CUT
10
227.92
20
10.78
11
227.7
21
11.53
0
LINE
8
CUT
10
227.7
20
11.53
11
227.33
21
12.22
0
LINE
8
CUT
10
227.33
20
12.22
11
226.83
21
12.83
0
LINE
8
CUT
10
226.83
20
12.83
11
226.22
21
13.33
0
LINE
8
CUT
10
226.22
20
13.33
11
225.53
21
13.7
0
LINE
8
CUT
10
225.53
20
13.7
11
224.78
21
13.92
0
LINE
8
CUT
10
224.78
20
13.92
11
224
21
14
0
LINE
8
CUT
10
224
20
14
11
216
21
14
0
LINE
8
CUT
10
216
20
14
11
215.22
21
13.92
0
LINE
8
CUT
10
215.22
20
13.92
11
214.47
21
13.7
0
LINE
8
CUT
10
214.47
20
13.7
11
213.78
21
13.33
0
LINE
8
CUT
10
213.78
20
13.33
11
213.17
21
12.83
0
LINE
8
CUT
10
213.17
20
12.83
11
212.67
21
12.22
0
LINE
8
CUT
10
212.67
20
12.22
11
212.3
21
11.53
0
LINE
8
CUT
10
212.3
20
11.53
11
212.08
21
10.78
0
LINE
8
CUT
10
212.08
20
10.78
11
212
21
10
0
LINE
8
CUT
10
212
20
10
11
212
21
10
0
LINE
8
CUT
10
72
20
170
11
72.08
21
169.22
0
LINE
8
CUT
10
72.08
20
169.22
11
72.3
21
168.47
0
LINE
8
CUT
10
72.3
20
168.47
11
72.67
21
167.78
0
LINE
8
CUT
10
72.67
20
167.78
11
73.17
21
167.17
0
LINE
8
CUT
10
73.17
20
167.17
11
73.78
21
166.67
0
LINE
8
CUT
10
73.78
20
166.67
11
74.47
21
166.3
0
LINE
8
CUT
10
74.47
20
166.3
11
75.22
21
166.08
0
LINE
8
CUT
10
75.22
20
166.08
11
76
21
166
0
LINE
8
CUT
10
76
20
166
11
84
21
166
0
LINE
8
CUT
10
84
20
166
11
84.78
21
166.08
0
LINE
8
CUT
10
84.78
20
166.08
11
85.53
21
166.3
0
LINE
8
CUT
10
85.53
20
166.3
11
86.22
21
166.67
0
LINE
8
CUT
10
86.22
20
166.67
11
86.83
21
167.17
0
LINE
8
CUT
10
86.83
20
167.17
11
87.33
21
167.78
0
LINE
8
CUT
10
87.33
20
167.78
11
87.7
21
168.47
0
LINE
8
CUT
10
87.7
20
168.47
11
87.92
21
169.22
0
LINE
8
CUT
10
87.92
20
169.22
11
88
21
170
0
LINE
8
CUT
10
88
20
170
11
88
21
170
0
LINE
8
CUT
10
88
20
170
11
87.92
21
170.78
0
LINE
8
CUT
10
87.92
20
170.78
11
87.7
21
171.53
0
LINE
8
CUT
10
87.7
20
171.53
11
87.33
21
172.22
0
LINE
8
CUT
10
87.33
20
172.22
11
86.83
21
172.83
0
LINE
8
CUT
10
86.83
20
172.83
11
86.22
21
173.33
0
LINE
8
CUT
10
86.22
20
173.33
11
85.53
21
173.7
0
LINE
8
CUT
10
85.53
20
173.7
11
84.78
21
173.92
0
LINE
8
CUT
10
84.78
20
173.92
11
84
21
174
0
LINE
8
CUT
10
84
20
174
11
76
21
174
0
LINE
8
CUT
10
76
20
174
11
75.22
21
173.92
0
LINE
8
CUT
10
75.22
20
173.92
11
74.47
21
173.7
0
LINE
8
CUT
10
74.47
20
173.7
11
73.78
21
173.33
0
LINE
8
CUT
10
73.78
20
173.33
11
73.17
21
172.83
0
LINE
8
CUT
10
73.17
20
172.83
11
72.67
21
172.22
0
LINE
8
CUT
10
72.67
20
172.22
11
72.3
21
171.53
0
LINE
8
CUT
10
72.3
20
171.53
11
72.08
21
170.78
0
LINE
8
CUT
10
72.08
20
170.78
11
72
21
170
0
LINE
8
CUT
10
72
20
170
11
72
21
170
0
LINE
8
CUT
10
212
20
170
11
212.08
21
169.22
0
LINE
8
CUT
10
212.08
20
169.22
11
212.3
21
168.47
0
LINE
8
CUT
10
212.3
20
168.47
11
212.67
21
167.78
0
LINE
8
CUT
10
212.67
20
167.78
11
213.17
21
167.17
0
LINE
8
CUT
10
213.17
20
167.17
11
213.78
21
166.67
0
LINE
8
CUT
10
213.78
20
166.67
11
214.47
21
166.3
0
LINE
8
CUT
10
214.47
20
166.3
11
215.22
21
166.08
0
LINE
8
CUT
10
215.22
20
166.08
11
216
21
166
0
LINE
8
CUT
10
216
20
166
11
224
21
166
0
LINE
8
CUT
10
224
20
166
11
224.78
21
166.08
0
LINE
8
CUT
10
224.78
20
166.08
11
225.53
21
166.3
0
LINE
8
CUT
10
225.53
20
166.3
11
226.22
21
166.67
0
LINE
8
CUT
10
226.22
20
166.67
11
226.83
21
167.17
0
LINE
8
CUT
10
226.83
20
167.17
11
227.33
21
167.78
0
LINE
8
CUT
10
227.33
20
167.78
11
227.7
21
168.47
0
LINE
8
CUT
10
227.7
20
168.47
11
227.92
21
169.22
0
LINE
8
CUT
10
227.92
20
169.22
11
228
21
170
0
LINE
8
CUT
10
228
20
170
11
228
21
170
0
LINE
8
CUT
10
228
20
170
11
227.92
21
170.78
0
LINE
8
CUT
10
227.92
20
170.78
11
227.7
21
171.53
0
LINE
8
CUT
10
227.7
20
171.53
11
227.33
21
172.22
0
LINE
8
CUT
10
227.33
20
172.22
11
226.83
21
172.83
0
LINE
8
CUT
10
226.83
20
172.83
11
226.22
21
173.33
0
LINE
8
CUT
10
226.22
20
173.33
11
225.53
21
173.7
0
LINE
8
CUT
10
225.53
20
173.7
11
224.78
21
173.92
0
LINE
8
CUT
10
224.78
20
173.92
11
224
21
174
0
LINE
8
CUT
10
224
20
174
11
216
21
174
0
LINE
8
CUT
10
216
20
174
11
215.22
21
173.92
0
LINE
8
CUT
10
215.22
20
173.92
11
214.47
21
173.7
0
LINE
8
CUT
10
214.47
20
173.7
11
213.78
21
173.33
0
LINE
8
CUT
10
213.78
20
173.33
11
213.17
21
172.83
0
LINE
8
CUT
10
213.17
20
172.83
11
212.67
21
172.22
0
LINE
8
CUT
10
212.67
20
172.22
11
212.3
21
171.53
0
LINE
8
CUT
10
212.3
20
171.53
11
212.08
21
170.78
0
LINE
8
CUT
10
212.08
20
170.78
11
212
21
170
0
LINE
8
CUT
10
212
20
170
11
212
21
170
0
LINE
8
CUT
10
6
20
86
11
6.08
21
85.22
0
LINE
8
CUT
10
6.08
20
85.22
11
6.3
21
84.47
0
LINE
8
CUT
10
6.3
20
84.47
11
6.67
21
83.78
0
LINE
8
CUT
10
6.67
20
83.78
11
7.17
21
83.17
0
LINE
8
CUT
10
7.17
20
83.17
11
7.78
21
82.67
0
LINE
8
CUT
10
7.78
20
82.67
11
8.47
21
82.3
0
LINE
8
CUT
10
8.47
20
82.3
11
9.22
21
82.08
0
LINE
8
CUT
10
9.22
20
82.08
11
10
21
82
0
LINE
8
CUT
10
10
20
82
11
10
21
82
0
LINE
8
CUT
10
10
20
82
11
10.78
21
82.08
0
LINE
8
CUT
10
10.78
20
82.08
11
11.53
21
82.3
0
LINE
8
CUT
10
11.53
20
82.3
11
12.22
21
82.67
0
LINE
8
CUT
10
12.22
20
82.67
11
12.83
21
83.17
0
LINE
8
CUT
10
12.83
20
83.17
11
13.33
21
83.78
0
LINE
8
CUT
10
13.33
20
83.78
11
13.7
21
84.47
0
LINE
8
CUT
10
13.7
20
84.47
11
13.92
21
85.22
0
LINE
8
CUT
10
13.92
20
85.22
11
14
21
86
0
LINE
8
CUT
10
14
20
86
11
14
21
94
0
LINE
8
CUT
10
14
20
94
11
13.92
21
94.78
0
LINE
8
CUT
10
13.92
20
94.78
11
13.7
21
95.53
0
LINE
8
CUT
10
13.7
20
95.53
11
13.33
21
96.22
0
LINE
8
CUT
10
13.33
20
96.22
11
12.83
21
96.83
0
LINE
8
CUT
10
12.83
20
96.83
11
12.22
21
97.33
0
LINE
8
CUT
10
12.22
20
97.33
11
11.53
21
97.7
0
LINE
8
CUT
10
11.53
20
97.7
11
10.78
21
97.92
0
LINE
8
CUT
10
10.78
20
97.92
11
10
21
98
0
LINE
8
CUT
10
10
20
98
11
10
21
98
0
LINE
8
CUT
10
10
20
98
11
9.22
21
97.92
0
LINE
8
CUT
10
9.22
20
97.92
11
8.47
21
97.7
0
LINE
8
CUT
10
8.47
20
97.7
11
7.78
21
97.33
0
LINE
8
CUT
10
7.78
20
97.33
11
7.17
21
96.83
0
LINE
8
CUT
10
7.17
20
96.83
11
6.67
21
96.22
0
LINE
8
CUT
10
6.67
20
96.22
11
6.3
21
95.53
0
LINE
8
CUT
10
6.3
20
95.53
11
6.08
21
94.78
0
LINE
8
CUT
10
6.08
20
94.78
11
6
21
94
0
LINE
8
CUT
10
6
20
94
11
6
21
86
0
LINE
8
CUT
10
286
20
86
11
286.08
21
85.22
0
LINE
8
CUT
10
286.08
20
85.22
11
286.3
21
84.47
0
LINE
8
CUT
10
286.3
20
84.47
11
286.67
21
83.78
0
LINE
8
CUT
10
286.67
20
83.78
11
287.17
21
83.17
0
LINE
8
CUT
10
287.17
20
83.17
11
287.78
21
82.67
0
LINE
8
CUT
10
287.78
20
82.67
11
288.47
21
82.3
0
LINE
8
CUT
10
288.47
20
82.3
11
289.22
21
82.08
0
LINE
8
CUT
10
289.22
20
82.08
11
290
21
82
0
LINE
8
CUT
10
290
20
82
11
290
21
82
0
LINE
8
CUT
10
290
20
82
11
290.78
21
82.08
0
LINE
8
CUT
10
290.78
20
82.08
11
291.53
21
82.3
0
LINE
8
CUT
10
291.53
20
82.3
11
292.22
21
82.67
0
LINE
8
CUT
10
292.22
20
82.67
11
292.83
21
83.17
0
LINE
8
CUT
10
292.83
20
83.17
11
293.33
21
83.78
0
LINE
8
CUT
10
293.33
20
83.78
11
293.7
21
84.47
0
LINE
8
CUT
10
293.7
20
84.47
11
293.92
21
85.22
0
LINE
8
CUT
10
293.92
20
85.22
11
294
21
86
0
LINE
8
CUT
10
294
20
86
11
294
21
94
0
LINE
8
CUT
10
294
20
94
11
293.92
21
94.78
0
LINE
8
CUT
10
293.92
20
94.78
11
293.7
21
95.53
0
LINE
8
CUT
10
293.7
20
95.53
11
293.33
21
96.22
0
LINE
8
CUT
10
293.33
20
96.22
11
292.83
21
96.83
0
LINE
8
CUT
10
292.83
20
96.83
11
292.22
21
97.33
0
LINE
8
CUT
10
292.22
20
97.33
11
291.53
21
97.7
0
LINE
8
CUT
10
291.53
20
97.7
11
290.78
21
97.92
0
LINE
8
CUT
10
290.78
20
97.92
11
290
21
98
0
LINE
8
CUT
10
290
20
98
11
290
21
98
0
LINE
8
CUT
10
290
20
98
11
289.22
21
97.92
0
LINE
8
CUT
10
289.22
20
97.92
11
288.47
21
97.7
0
LINE
8
CUT
10
288.47
20
97.7
11
287.78
21
97.33
0
LINE
8
CUT
10
287.78
20
97.33
11
287.17
21
96.83
0
LINE
8
CUT
10
287.17
20
96.83
11
286.67
21
96.22
0
LINE
8
CUT
10
286.67
20
96.22
11
286.3
21
95.53
0
LINE
8
CUT
10
286.3
20
95.53
11
286.08
21
94.78
0
LINE
8
CUT
10
286.08
20
94.78
11
286
21
94
0
LINE
8
CUT
10
286
20
94
11
286
21
86
0
CIRCLE
8
CUT
10
45
20
30
40
2.25
0
CIRCLE
8
CUT
10
130
20
30
40
2.25
0
CIRCLE
8
CUT
10
215
20
30
40
2.25
0
CIRCLE
8
CUT
10
45
20
110
40
2.25
0
CIRCLE
8
CUT
10
130
20
110
40
2.25
0
CIRCLE
8
CUT
10
215
20
110
40
2.25
0
CIRCLE
8
CUT
10
60
20
10
40
2.25
0
CIRCLE
8
CUT
10
150
20
10
40
2.25
0
CIRCLE
8
CUT
10
240
20
10
40
2.25
0
CIRCLE
8
CUT
10
60
20
170
40
2.25
0
CIRCLE
8
CUT
10
150
20
170
40
2.25
0
CIRCLE
8
CUT
10
240
20
170
40
2.25
0
LINE
8
BEND
10
20
20
20
11
280
21
20
0
LINE
8
BEND
10
20
20
160
11
280
21
160
0
LINE
8
BEND
10
20
20
20
11
20
21
160
0
LINE
8
BEND
10
280
20
20
11
280
21
160
0
ENDSEC
0
EOF
