0
SECTION
2
HEADER
9
$INSUNITS
70
4
0
ENDSEC
0
SECTION
2
ENTITIES
0
LINE
8
CUT
10
0
20
0
11
230
21
0
0
LINE
8
CUT
10
230
20
0
11
230
21
100
0
LINE
8
CUT
10
230
20
100
11
0
21
100
0
LINE
8
CUT
10
0
20
100
11
0
21
0
0
LINE
8
CUT
10
18
20
21
11
18.06
21
20.41
0
LINE
8
CUT
10
18.06
20
20.41
11
18.23
21
19.85
0
LINE
8
CUT
10
18.23
20
19.85
11
18.51
21
19.33
0
LINE
8
CUT
10
18.51
20
19.33
11
18.88
21
18.88
0
LINE
8
CUT
10
18.88
20
18.88
11
19.33
21
18.51
0
LINE
8
CUT
10
19.33
20
18.51
11
19.85
21
18.23
0
LINE
8
CUT
10
19.85
20
18.23
11
20.41
21
18.06
0
LINE
8
CUT
10
20.41
20
18.06
11
21
21
18
0
LINE
8
CUT
10
21
20
18
11
29
21
18
0
LINE
8
CUT
10
29
20
18
11
29.59
21
18.06
0
LINE
8
CUT
10
29.59
20
18.06
11
30.15
21
18.23
0
LINE
8
CUT
10
30.15
20
18.23
11
30.67
21
18.51
0
LINE
8
CUT
10
30.67
20
18.51
11
31.12
21
18.88
0
LINE
8
CUT
10
31.12
20
18.88
11
31.49
21
19.33
0
LINE
8
CUT
10
31.49
20
19.33
11
31.77
21
19.85
0
LINE
8
CUT
10
31.77
20
19.85
11
31.94
21
20.41
0
LINE
8
CUT
10
31.94
20
20.41
11
32
21
21
0
LINE
8
CUT
10
32
20
21
11
32
21
21
0
LINE
8
CUT
10
32
20
21
11
31.94
21
21.59
0
LINE
8
CUT
10
31.94
20
21.59
11
31.77
21
22.15
0
LINE
8
CUT
10
31.77
20
22.15
11
31.49
21
22.67
0
LINE
8
CUT
10
31.49
20
22.67
11
31.12
21
23.12
0
LINE
8
CUT
10
31.12
20
23.12
11
30.67
21
23.49
0
LINE
8
CUT
10
30.67
20
23.49
11
30.15
21
23.77
0
LINE
8
CUT
10
30.15
20
23.77
11
29.59
21
23.94
0
LINE
8
CUT
10
29.59
20
23.94
11
29
21
24
0
LINE
8
CUT
10
29
20
24
11
21
21
24
0
LINE
8
CUT
10
21
20
24
11
20.41
21
23.94
0
LINE
8
CUT
10
20.41
20
23.94
11
19.85
21
23.77
0
LINE
8
CUT
10
19.85
20
23.77
11
19.33
21
23.49
0
LINE
8
CUT
10
19.33
20
23.49
11
18.88
21
23.12
0
LINE
8
CUT
10
18.88
20
23.12
11
18.51
21
22.67
0
LINE
8
CUT
10
18.51
20
22.67
11
18.23
21
22.15
0
LINE
8
CUT
10
18.23
20
22.15
11
18.06
21
21.59
0
LINE
8
CUT
10
18.06
20
21.59
11
18
21
21
0
LINE
8
CUT
10
18
20
21
11
18
21
21
0
LINE
8
CUT
10
18
20
79
11
18.06
21
78.41
0
LINE
8
CUT
10
18.06
20
78.41
11
18.23
21
77.85
0
LINE
8
CUT
10
18.23
20
77.85
11
18.51
21
77.33
0
LINE
8
CUT
10
18.51
20
77.33
11
18.88
21
76.88
0
LINE
8
CUT
10
18.88
20
76.88
11
19.33
21
76.51
0
LINE
8
CUT
10
19.33
20
76.51
11
19.85
21
76.23
0
LINE
8
CUT
10
19.85
20
76.23
11
20.41
21
76.06
0
LINE
8
CUT
10
20.41
20
76.06
11
21
21
76
0
LINE
8
CUT
10
21
20
76
11
29
21
76
0
LINE
8
CUT
10
29
20
76
11
29.59
21
76.06
0
LINE
8
CUT
10
29.59
20
76.06
11
30.15
21
76.23
0
LINE
8
CUT
10
30.15
20
76.23
11
30.67
21
76.51
0
LINE
8
CUT
10
30.67
20
76.51
11
31.12
21
76.88
0
LINE
8
CUT
10
31.12
20
76.88
11
31.49
21
77.33
0
LINE
8
CUT
10
31.49
20
77.33
11
31.77
21
77.85
0
LINE
8
CUT
10
31.77
20
77.85
11
31.94
21
78.41
0
LINE
8
CUT
10
31.94
20
78.41
11
32
21
79
0
LINE
8
CUT
10
32
20
79
11
32
21
79
0
LINE
8
CUT
10
32
20
79
11
31.94
21
79.59
0
LINE
8
CUT
10
31.94
20
79.59
11
31.77
21
80.15
0
LINE
8
CUT
10
31.77
20
80.15
11
31.49
21
80.67
0
LINE
8
CUT
10
31.49
20
80.67
11
31.12
21
81.12
0
LINE
8
CUT
10
31.12
20
81.12
11
30.67
21
81.49
0
LINE
8
CUT
10
30.67
20
81.49
11
30.15
21
81.77
0
LINE
8
CUT
10
30.15
20
81.77
11
29.59
21
81.94
0
LINE
8
CUT
10
29.59
20
81.94
11
29
21
82
0
LINE
8
CUT
10
29
20
82
11
21
21
82
0
LINE
8
CUT
10
21
20
82
11
20.41
21
81.94
0
LINE
8
CUT
10
20.41
20
81.94
11
19.85
21
81.77
0
LINE
8
CUT
10
19.85
20
81.77
11
19.33
21
81.49
0
LINE
8
CUT
10
19.33
20
81.49
11
18.88
21
81.12
0
LINE
8
CUT
10
18.88
20
81.12
11
18.51
21
80.67
0
LINE
8
CUT
10
18.51
20
80.67
11
18.23
21
80.15
0
LINE
8
CUT
10
18.23
20
80.15
11
18.06
21
79.59
0
LINE
8
CUT
10
18.06
20
79.59
11
18
21
79
0
LINE
8
CUT
10
18
20
79
11
18
21
79
0
LINE
8
CUT
10
58
20
21
11
58.06
21
20.41
0
LINE
8
CUT
10
58.06
20
20.41
11
58.23
21
19.85
0
LINE
8
CUT
10
58.23
20
19.85
11
58.51
21
19.33
0
LINE
8
CUT
10
58.51
20
19.33
11
58.88
21
18.88
0
LINE
8
CUT
10
58.88
20
18.88
11
59.33
21
18.51
0
LINE
8
CUT
10
59.33
20
18.51
11
59.85
21
18.23
0
LINE
8
CUT
10
59.85
20
18.23
11
60.41
21
18.06
0
LINE
8
CUT
10
60.41
20
18.06
11
61
21
18
0
LINE
8
CUT
10
61
20
18
11
69
21
18
0
LINE
8
CUT
10
69
20
18
11
69.59
21
18.06
0
LINE
8
CUT
10
69.59
20
18.06
11
70.15
21
18.23
0
LINE
8
CUT
10
70.15
20
18.23
11
70.67
21
18.51
0
LINE
8
CUT
10
70.67
20
18.51
11
71.12
21
18.88
0
LINE
8
CUT
10
71.12
20
18.88
11
71.49
21
19.33
0
LINE
8
CUT
10
71.49
20
19.33
11
71.77
21
19.85
0
LINE
8
CUT
10
71.77
20
19.85
11
71.94
21
20.41
0
LINE
8
CUT
10
71.94
20
20.41
11
72
21
21
0
LINE
8
CUT
10
72
20
21
11
72
21
21
0
LINE
8
CUT
10
72
20
21
11
71.94
21
21.59
0
LINE
8
CUT
10
71.94
20
21.59
11
71.77
21
22.15
0
LINE
8
CUT
10
71.77
20
22.15
11
71.49
21
22.67
0
LINE
8
CUT
10
71.49
20
22.67
11
71.12
21
23.12
0
LINE
8
CUT
10
71.12
20
23.12
11
70.67
21
23.49
0
LINE
8
CUT
10
70.67
20
23.49
11
70.15
21
23.77
0
LINE
8
CUT
10
70.15
20
23.77
11
69.59
21
23.94
0
LINE
8
CUT
10
69.59
20
23.94
11
69
21
24
0
LINE
8
CUT
10
69
20
24
11
61
21
24
0
LINE
8
CUT
10
61
20
24
11
60.41
21
23.94
0
LINE
8
CUT
10
60.41
20
23.94
11
59.85
21
23.77
0
LINE
8
CUT
10
59.85
20
23.77
11
59.33
21
23.49
0
LINE
8
CUT
10
59.33
20
23.49
11
58.88
21
23.12
0
LINE
8
CUT
10
58.88
20
23.12
11
58.51
21
22.67
0
LINE
8
CUT
10
58.51
20
22.67
11
58.23
21
22.15
0
LINE
8
CUT
10
58.23
20
22.15
11
58.06
21
21.59
0
LINE
8
CUT
10
58.06
20
21.59
11
58
21
21
0
LINE
8
CUT
10
58
20
21
11
58
21
21
0
LINE
8
CUT
10
58
20
79
11
58.06
21
78.41
0
LINE
8
CUT
10
58.06
20
78.41
11
58.23
21
77.85
0
LINE
8
CUT
10
58.23
20
77.85
11
58.51
21
77.33
0
LINE
8
CUT
10
58.51
20
77.33
11
58.88
21
76.88
0
LINE
8
CUT
10
58.88
20
76.88
11
59.33
21
76.51
0
LINE
8
CUT
10
59.33
20
76.51
11
59.85
21
76.23
0
LINE
8
CUT
10
59.85
20
76.23
11
60.41
21
76.06
0
LINE
8
CUT
10
60.41
20
76.06
11
61
21
76
0
LINE
8
CUT
10
61
20
76
11
69
21
76
0
LINE
8
CUT
10
69
20
76
11
69.59
21
76.06
0
LINE
8
CUT
10
69.59
20
76.06
11
70.15
21
76.23
0
LINE
8
CUT
10
70.15
20
76.23
11
70.67
21
76.51
0
LINE
8
CUT
10
70.67
20
76.51
11
71.12
21
76.88
0
LINE
8
CUT
10
71.12
20
76.88
11
71.49
21
77.33
0
LINE
8
CUT
10
71.49
20
77.33
11
71.77
21
77.85
0
LINE
8
CUT
10
71.77
20
77.85
11
71.94
21
78.41
0
LINE
8
CUT
10
71.94
20
78.41
11
72
21
79
0
LINE
8
CUT
10
72
20
79
11
72
21
79
0
LINE
8
CUT
10
72
20
79
11
71.94
21
79.59
0
LINE
8
CUT
10
71.94
20
79.59
11
71.77
21
80.15
0
LINE
8
CUT
10
71.77
20
80.15
11
71.49
21
80.67
0
LINE
8
CUT
10
71.49
20
80.67
11
71.12
21
81.12
0
LINE
8
CUT
10
71.12
20
81.12
11
70.67
21
81.49
0
LINE
8
CUT
10
70.67
20
81.49
11
70.15
21
81.77
0
LINE
8
CUT
10
70.15
20
81.77
11
69.59
21
81.94
0
LINE
8
CUT
10
69.59
20
81.94
11
69
21
82
0
LINE
8
CUT
10
69
20
82
11
61
21
82
0
LINE
8
CUT
10
61
20
82
11
60.41
21
81.94
0
LINE
8
CUT
10
60.41
20
81.94
11
59.85
21
81.77
0
LINE
8
CUT
10
59.85
20
81.77
11
59.33
21
81.49
0
LINE
8
CUT
10
59.33
20
81.49
11
58.88
21
81.12
0
LINE
8
CUT
10
58.88
20
81.12
11
58.51
21
80.67
0
LINE
8
CUT
10
58.51
20
80.67
11
58.23
21
80.15
0
LINE
8
CUT
10
58.23
20
80.15
11
58.06
21
79.59
0
LINE
8
CUT
10
58.06
20
79.59
11
58
21
79
0
LINE
8
CUT
10
58
20
79
11
58
21
79
0
LINE
8
CUT
10
98
20
21
11
98.06
21
20.41
0
LINE
8
CUT
10
98.06
20
20.41
11
98.23
21
19.85
0
LINE
8
CUT
10
98.23
20
19.85
11
98.51
21
19.33
0
LINE
8
CUT
10
98.51
20
19.33
11
98.88
21
18.88
0
LINE
8
CUT
10
98.88
20
18.88
11
99.33
21
18.51
0
LINE
8
CUT
10
99.33
20
18.51
11
99.85
21
18.23
0
LINE
8
CUT
10
99.85
20
18.23
11
100.41
21
18.06
0
LINE
8
CUT
10
100.41
20
18.06
11
101
21
18
0
LINE
8
CUT
10
101
20
18
11
109
21
18
0
LINE
8
CUT
10
109
20
18
11
109.59
21
18.06
0
LINE
8
CUT
10
109.59
20
18.06
11
110.15
21
18.23
0
LINE
8
CUT
10
110.15
20
18.23
11
110.67
21
18.51
0
LINE
8
CUT
10
110.67
20
18.51
11
111.12
21
18.88
0
LINE
8
CUT
10
111.12
20
18.88
11
111.49
21
19.33
0
LINE
8
CUT
10
111.49
20
19.33
11
111.77
21
19.85
0
LINE
8
CUT
10
111.77
20
19.85
11
111.94
21
20.41
0
LINE
8
CUT
10
111.94
20
20.41
11
112
21
21
0
LINE
8
CUT
10
112
20
21
11
112
21
21
0
LINE
8
CUT
10
112
20
21
11
111.94
21
21.59
0
LINE
8
CUT
10
111.94
20
21.59
11
111.77
21
22.15
0
LINE
8
CUT
10
111.77
20
22.15
11
111.49
21
22.67
0
LINE
8
CUT
10
111.49
20
22.67
11
111.12
21
23.12
0
LINE
8
CUT
10
111.12
20
23.12
11
110.67
21
23.49
0
LINE
8
CUT
10
110.67
20
23.49
11
110.15
21
23.77
0
LINE
8
CUT
10
110.15
20
23.77
11
109.59
21
23.94
0
LINE
8
CUT
10
109.59
20
23.94
11
109
21
24
0
LINE
8
CUT
10
109
20
24
11
101
21
24
0
LINE
8
CUT
10
101
20
24
11
100.41
21
23.94
0
LINE
8
CUT
10
100.41
20
23.94
11
99.85
21
23.77
0
LINE
8
CUT
10
99.85
20
23.77
11
99.33
21
23.49
0
LINE
8
CUT
10
99.33
20
23.49
11
98.88
21
23.12
0
LINE
8
CUT
10
98.88
20
23.12
11
98.51
21
22.67
0
LINE
8
CUT
10
98.51
20
22.67
11
98.23
21
22.15
0
LINE
8
CUT
10
98.23
20
22.15
11
98.06
21
21.59
0
LINE
8
CUT
10
98.06
20
21.59
11
98
21
21
0
LINE
8
CUT
10
98
20
21
11
98
21
21
0
LINE
8
CUT
10
98
20
79
11
98.06
21
78.41
0
LINE
8
CUT
10
98.06
20
78.41
11
98.23
21
77.85
0
LINE
8
CUT
10
98.23
20
77.85
11
98.51
21
77.33
0
LINE
8
CUT
10
98.51
20
77.33
11
98.88
21
76.88
0
LINE
8
CUT
10
98.88
20
76.88
11
99.33
21
76.51
0
LINE
8
CUT
10
99.33
20
76.51
11
99.85
21
76.23
0
LINE
8
CUT
10
99.85
20
76.23
11
100.41
21
76.06
0
LINE
8
CUT
10
100.41
20
76.06
11
101
21
76
0
LINE
8
CUT
10
101
20
76
11
109
21
76
0
LINE
8
CUT
10
109
20
76
11
109.59
21
76.06
0
LINE
8
CUT
10
109.59
20
76.06
11
110.15
21
76.23
0
LINE
8
CUT
10
110.15
20
76.23
11
110.67
21
76.51
0
LINE
8
CUT
10
110.67
20
76.51
11
111.12
21
76.88
0
LINE
8
CUT
10
111.12
20
76.88
11
111.49
21
77.33
0
LINE
8
CUT
10
111.49
20
77.33
11
111.77
21
77.85
0
LINE
8
CUT
10
111.77
20
77.85
11
111.94
21
78.41
0
LINE
8
CUT
10
111.94
20
78.41
11
112
21
79
0
LINE
8
CUT
10
112
20
79
11
112
21
79
0
LINE
8
CUT
10
112
20
79
11
111.94
21
79.59
0
LINE
8
CUT
10
111.94
20
79.59
11
111.77
21
80.15
0
LINE
8
CUT
10
111.77
20
80.15
11
111.49
21
80.67
0
LINE
8
CUT
10
111.49
20
80.67
11
111.12
21
81.12
0
LINE
8
CUT
10
111.12
20
81.12
11
110.67
21
81.49
0
LINE
8
CUT
10
110.67
20
81.49
11
110.15
21
81.77
0
LINE
8
CUT
10
110.15
20
81.77
11
109.59
21
81.94
0
LINE
8
CUT
10
109.59
20
81.94
11
109
21
82
0
LINE
8
CUT
10
109
20
82
11
101
21
82
0
LINE
8
CUT
10
101
20
82
11
100.41
21
81.94
0
LINE
8
CUT
10
100.41
20
81.94
11
99.85
21
81.77
0
LINE
8
CUT
10
99.85
20
81.77
11
99.33
21
81.49
0
LINE
8
CUT
10
99.33
20
81.49
11
98.88
21
81.12
0
LINE
8
CUT
10
98.88
20
81.12
11
98.51
21
80.67
0
LINE
8
CUT
10
98.51
20
80.67
11
98.23
21
80.15
0
LINE
8
CUT
10
98.23
20
80.15
11
98.06
21
79.59
0
LINE
8
CUT
10
98.06
20
79.59
11
98
21
79
0
LINE
8
CUT
10
98
20
79
11
98
21
79
0
LINE
8
CUT
10
138
20
21
11
138.06
21
20.41
0
LINE
8
CUT
10
138.06
20
20.41
11
138.23
21
19.85
0
LINE
8
CUT
10
138.23
20
19.85
11
138.51
21
19.33
0
LINE
8
CUT
10
138.51
20
19.33
11
138.88
21
18.88
0
LINE
8
CUT
10
138.88
20
18.88
11
139.33
21
18.51
0
LINE
8
CUT
10
139.33
20
18.51
11
139.85
21
18.23
0
LINE
8
CUT
10
139.85
20
18.23
11
140.41
21
18.06
0
LINE
8
CUT
10
140.41
20
18.06
11
141
21
18
0
LINE
8
CUT
10
141
20
18
11
149
21
18
0
LINE
8
CUT
10
149
20
18
11
149.59
21
18.06
0
LINE
8
CUT
10
149.59
20
18.06
11
150.15
21
18.23
0
LINE
8
CUT
10
150.15
20
18.23
11
150.67
21
18.51
0
LINE
8
CUT
10
150.67
20
18.51
11
151.12
21
18.88
0
LINE
8
CUT
10
151.12
20
18.88
11
151.49
21
19.33
0
LINE
8
CUT
10
151.49
20
19.33
11
151.77
21
19.85
0
LINE
8
CUT
10
151.77
20
19.85
11
151.94
21
20.41
0
LINE
8
CUT
10
151.94
20
20.41
11
152
21
21
0
LINE
8
CUT
10
152
20
21
11
152
21
21
0
LINE
8
CUT
10
152
20
21
11
151.94
21
21.59
0
LINE
8
CUT
10
151.94
20
21.59
11
151.77
21
22.15
0
LINE
8
CUT
10
151.77
20
22.15
11
151.49
21
22.67
0
LINE
8
CUT
10
151.49
20
22.67
11
151.12
21
23.12
0
LINE
8
CUT
10
151.12
20
23.12
11
150.67
21
23.49
0
LINE
8
CUT
10
150.67
20
23.49
11
150.15
21
23.77
0
LINE
8
CUT
10
150.15
20
23.77
11
149.59
21
23.94
0
LINE
8
CUT
10
149.59
20
23.94
11
149
21
24
0
LINE
8
CUT
10
149
20
24
11
141
21
24
0
LINE
8
CUT
10
141
20
24
11
140.41
21
23.94
0
LINE
8
CUT
10
140.41
20
23.94
11
139.85
21
23.77
0
LINE
8
CUT
10
139.85
20
23.77
11
139.33
21
23.49
0
LINE
8
CUT
10
139.33
20
23.49
11
138.88
21
23.12
0
LINE
8
CUT
10
138.88
20
23.12
11
138.51
21
22.67
0
LINE
8
CUT
10
138.51
20
22.67
11
138.23
21
22.15
0
LINE
8
CUT
10
138.23
20
22.15
11
138.06
21
21.59
0
LINE
8
CUT
10
138.06
20
21.59
11
138
21
21
0
LINE
8
CUT
10
138
20
21
11
138
21
21
0
LINE
8
CUT
10
138
20
79
11
138.06
21
78.41
0
LINE
8
CUT
10
138.06
20
78.41
11
138.23
21
77.85
0
LINE
8
CUT
10
138.23
20
77.85
11
138.51
21
77.33
0
LINE
8
CUT
10
138.51
20
77.33
11
138.88
21
76.88
0
LINE
8
CUT
10
138.88
20
76.88
11
139.33
21
76.51
0
LINE
8
CUT
10
139.33
20
76.51
11
139.85
21
76.23
0
LINE
8
CUT
10
139.85
20
76.23
11
140.41
21
76.06
0
LINE
8
CUT
10
140.41
20
76.06
11
141
21
76
0
LINE
8
CUT
10
141
20
76
11
149
21
76
0
LINE
8
CUT
10
149
20
76
11
149.59
21
76.06
0
LINE
8
CUT
10
149.59
20
76.06
11
150.15
21
76.23
0
LINE
8
CUT
10
150.15
20
76.23
11
150.67
21
76.51
0
LINE
8
CUT
10
150.67
20
76.51
11
151.12
21
76.88
0
LINE
8
CUT
10
151.12
20
76.88
11
151.49
21
77.33
0
LINE
8
CUT
10
151.49
20
77.33
11
151.77
21
77.85
0
LINE
8
CUT
10
151.77
20
77.85
11
151.94
21
78.41
0
LINE
8
CUT
10
151.94
20
78.41
11
152
21
79
0
LINE
8
CUT
10
152
20
79
11
152
21
79
0
LINE
8
CUT
10
152
20
79
11
151.94
21
79.59
0
LINE
8
CUT
10
151.94
20
79.59
11
151.77
21
80.15
0
LINE
8
CUT
10
151.77
20
80.15
11
151.49
21
80.67
0
LINE
8
CUT
10
151.49
20
80.67
11
151.12
21
81.12
0
LINE
8
CUT
10
151.12
20
81.12
11
150.67
21
81.49
0
LINE
8
CUT
10
150.67
20
81.49
11
150.15
21
81.77
0
LINE
8
CUT
10
150.15
20
81.77
11
149.59
21
81.94
0
LINE
8
CUT
10
149.59
20
81.94
11
149
21
82
0
LINE
8
CUT
10
149
20
82
11
141
21
82
0
LINE
8
CUT
10
141
20
82
11
140.41
21
81.94
0
LINE
8
CUT
10
140.41
20
81.94
11
139.85
21
81.77
0
LINE
8
CUT
10
139.85
20
81.77
11
139.33
21
81.49
0
LINE
8
CUT
10
139.33
20
81.49
11
138.88
21
81.12
0
LINE
8
CUT
10
138.88
20
81.12
11
138.51
21
80.67
0
LINE
8
CUT
10
138.51
20
80.67
11
138.23
21
80.15
0
LINE
8
CUT
10
138.23
20
80.15
11
138.06
21
79.59
0
LINE
8
CUT
10
138.06
20
79.59
11
138
21
79
0
LINE
8
CUT
10
138
20
79
11
138
21
79
0
LINE
8
CUT
10
178
20
21
11
178.06
21
20.41
0
LINE
8
CUT
10
178.06
20
20.41
11
178.23
21
19.85
0
LINE
8
CUT
10
178.23
20
19.85
11
178.51
21
19.33
0
LINE
8
CUT
10
178.51
20
19.33
11
178.88
21
18.88
0
LINE
8
CUT
10
178.88
20
18.88
11
179.33
21
18.51
0
LINE
8
CUT
10
179.33
20
18.51
11
179.85
21
18.23
0
LINE
8
CUT
10
179.85
20
18.23
11
180.41
21
18.06
0
LINE
8
CUT
10
180.41
20
18.06
11
181
21
18
0
LINE
8
CUT
10
181
20
18
11
189
21
18
0
LINE
8
CUT
10
189
20
18
11
189.59
21
18.06
0
LINE
8
CUT
10
189.59
20
18.06
11
190.15
21
18.23
0
LINE
8
CUT
10
190.15
20
18.23
11
190.67
21
18.51
0
LINE
8
CUT
10
190.67
20
18.51
11
191.12
21
18.88
0
LINE
8
CUT
10
191.12
20
18.88
11
191.49
21
19.33
0
LINE
8
CUT
10
191.49
20
19.33
11
191.77
21
19.85
0
LINE
8
CUT
10
191.77
20
19.85
11
191.94
21
20.41
0
LINE
8
CUT
10
191.94
20
20.41
11
192
21
21
0
LINE
8
CUT
10
192
20
21
11
192
21
21
0
LINE
8
CUT
10
192
20
21
11
191.94
21
21.59
0
LINE
8
CUT
10
191.94
20
21.59
11
191.77
21
22.15
0
LINE
8
CUT
10
191.77
20
22.15
11
191.49
21
22.67
0
LINE
8
CUT
10
191.49
20
22.67
11
191.12
21
23.12
0
LINE
8
CUT
10
191.12
20
23.12
11
190.67
21
23.49
0
LINE
8
CUT
10
190.67
20
23.49
11
190.15
21
23.77
0
LINE
8
CUT
10
190.15
20
23.77
11
189.59
21
23.94
0
LINE
8
CUT
10
189.59
20
23.94
11
189
21
24
0
LINE
8
CUT
10
189
20
24
11
181
21
24
0
LINE
8
CUT
10
181
20
24
11
180.41
21
23.94
0
LINE
8
CUT
10
180.41
20
23.94
11
179.85
21
23.77
0
LINE
8
CUT
10
179.85
20
23.77
11
179.33
21
23.49
0
LINE
8
CUT
10
179.33
20
23.49
11
178.88
21
23.12
0
LINE
8
CUT
10
178.88
20
23.12
11
178.51
21
22.67
0
LINE
8
CUT
10
178.51
20
22.67
11
178.23
21
22.15
0
LINE
8
CUT
10
178.23
20
22.15
11
178.06
21
21.59
0
LINE
8
CUT
10
178.06
20
21.59
11
178
21
21
0
LINE
8
CUT
10
178
20
21
11
178
21
21
0
LINE
8
CUT
10
178
20
79
11
178.06
21
78.41
0
LINE
8
CUT
10
178.06
20
78.41
11
178.23
21
77.85
0
LINE
8
CUT
10
178.23
20
77.85
11
178.51
21
77.33
0
LINE
8
CUT
10
178.51
20
77.33
11
178.88
21
76.88
0
LINE
8
CUT
10
178.88
20
76.88
11
179.33
21
76.51
0
LINE
8
CUT
10
179.33
20
76.51
11
179.85
21
76.23
0
LINE
8
CUT
10
179.85
20
76.23
11
180.41
21
76.06
0
LINE
8
CUT
10
180.41
20
76.06
11
181
21
76
0
LINE
8
CUT
10
181
20
76
11
189
21
76
0
LINE
8
CUT
10
189
20
76
11
189.59
21
76.06
0
LINE
8
CUT
10
189.59
20
76.06
11
190.15
21
76.23
0
LINE
8
CUT
10
190.15
20
76.23
11
190.67
21
76.51
0
LINE
8
CUT
10
190.67
20
76.51
11
191.12
21
76.88
0
LINE
8
CUT
10
191.12
20
76.88
11
191.49
21
77.33
0
LINE
8
CUT
10
191.49
20
77.33
11
191.77
21
77.85
0
LINE
8
CUT
10
191.77
20
77.85
11
191.94
21
78.41
0
LINE
8
CUT
10
191.94
20
78.41
11
192
21
79
0
LINE
8
CUT
10
192
20
79
11
192
21
79
0
LINE
8
CUT
10
192
20
79
11
191.94
21
79.59
0
LINE
8
CUT
10
191.94
20
79.59
11
191.77
21
80.15
0
LINE
8
CUT
10
191.77
20
80.15
11
191.49
21
80.67
0
LINE
8
CUT
10
191.49
20
80.67
11
191.12
21
81.12
0
LINE
8
CUT
10
191.12
20
81.12
11
190.67
21
81.49
0
LINE
8
CUT
10
190.67
20
81.49
11
190.15
21
81.77
0
LINE
8
CUT
10
190.15
20
81.77
11
189.59
21
81.94
0
LINE
8
CUT
10
189.59
20
81.94
11
189
21
82
0
LINE
8
CUT
10
189
20
82
11
181
21
82
0
LINE
8
CUT
10
181
20
82
11
180.41
21
81.94
0
LINE
8
CUT
10
180.41
20
81.94
11
179.85
21
81.77
0
LINE
8
CUT
10
179.85
20
81.77
11
179.33
21
81.49
0
LINE
8
CUT
10
179.33
20
81.49
11
178.88
21
81.12
0
LINE
8
CUT
10
178.88
20
81.12
11
178.51
21
80.67
0
LINE
8
CUT
10
178.51
20
80.67
11
178.23
21
80.15
0
LINE
8
CUT
10
178.23
20
80.15
11
178.06
21
79.59
0
LINE
8
CUT
10
178.06
20
79.59
11
178
21
79
0
LINE
8
CUT
10
178
20
79
11
178
21
79
0
CIRCLE
8
CUT
10
15
20
10
40
2.25
0
CIRCLE
8
CUT
10
100
20
10
40
2.25
0
CIRCLE
8
CUT
10
185
20
10
40
2.25
0
CIRCLE
8
CUT
10
15
20
90
40
2.25
0
CIRCLE
8
CUT
10
100
20
90
40
2.25
0
CIRCLE
8
CUT
10
185
20
90
40
2.25
0
ENDSEC
0
EOF
