<svg xmlns="http://www.w3.org/2000/svg" width="920" height="620" viewBox="0 0 920 620" role="img">
  <style>
    .background { fill: #f6f7f8; }
    .shadow { fill: #d8dde2; opacity: 0.7; }
    .title { font: 700 26px Arial, sans-serif; fill: #202a33; }
    .subtitle, .label { font: 16px Arial, sans-serif; fill: #4f5d68; }
    .box-top-0 { fill: #b9874f; stroke: #38434c; stroke-width: 1.1; }.box-side-0, .box-front-0 { fill: #8d6135; stroke: #38434c; stroke-width: 1; }<polygon class="box-side-0" points="531.6,0.1 423.6,48.1 423.6,-34.4 531.6,-82.4" />.box-top-1 { fill: #b9874f; stroke: #38434c; stroke-width: 1.1; }.box-side-1, .box-front-1 { fill: #8d6135; stroke: #38434c; stroke-width: 1; }<polygon class="box-side-1" points="769.2,105.7 661.2,153.7 661.2,71.2 769.2,23.2" />.box-top-2 { fill: #b9874f; stroke: #38434c; stroke-width: 1.1; }.box-side-2, .box-front-2 { fill: #8d6135; stroke: #38434c; stroke-width: 1; }<polygon class="box-side-2" points="394.8,-28.2 286.8,19.8 286.8,-62.7 394.8,-110.7" />.box-top-3 { fill: #b9874f; stroke: #38434c; stroke-width: 1.1; }.box-side-3, .box-front-3 { fill: #8d6135; stroke: #38434c; stroke-width: 1; }<polygon class="box-side-3" points="632.4,77.4 524.4,125.4 524.4,42.9 632.4,-5.1" />.box-top-4 { fill: #d2a263; stroke: #38434c; stroke-width: 1.1; }.box-side-4, .box-front-4 { fill: #936739; stroke: #38434c; stroke-width: 1; }<polygon class="box-side-4" points="261.6,41.4 189.6,73.4 189.6,7.4 261.6,-24.6" />.box-top-5 { fill: #d2a263; stroke: #38434c; stroke-width: 1.1; }.box-side-5, .box-front-5 { fill: #936739; stroke: #38434c; stroke-width: 1; }<polygon class="box-side-5" points="621.6,201.4 549.6,233.4 549.6,167.4 621.6,135.4" />
  </style>
  <text class="title" x="34" y="46">Suspension Wood Cribbing Rev A</text><text class="subtitle" x="34" y="74">Eight hardwood cribbing blocks and four wedge chocks for suspension support setup.</text><text class="label" x="34" y="556">Static assembly visual. Open the HTML file for rotate/zoom interaction.</text>
  <rect class="background" width="920" height="620" /><ellipse class="shadow" cx="455" cy="430" rx="330" ry="74" /><polygon class="box-front-0" points="207.6,-47.9 423.6,48.1 423.6,-34.4 207.6,-130.4" /><polygon class="box-top-0" points="315.6,-178.4 531.6,-82.4 423.6,-34.4 207.6,-130.4" /><polygon class="box-front-1" points="445.2,57.7 661.2,153.7 661.2,71.2 445.2,-24.8" /><polygon class="box-top-1" points="553.2,-72.8 769.2,23.2 661.2,71.2 445.2,-24.8" /><polygon class="box-front-2" points="70.8,-76.2 286.8,19.8 286.8,-62.7 70.8,-158.7" /><polygon class="box-top-2" points="178.8,-206.7 394.8,-110.7 286.8,-62.7 70.8,-158.7" /><polygon class="box-front-3" points="308.4,29.4 524.4,125.4 524.4,42.9 308.4,-53.1" /><polygon class="box-top-3" points="416.4,-101.1 632.4,-5.1 524.4,42.9 308.4,-53.1" /><polygon class="box-front-4" points="45.6,9.4 189.6,73.4 189.6,7.4 45.6,-56.6" /><polygon class="box-top-4" points="117.6,-88.6 261.6,-24.6 189.6,7.4 45.6,-56.6" /><polygon class="box-front-5" points="405.6,169.4 549.6,233.4 549.6,167.4 405.6,103.4" /><polygon class="box-top-5" points="477.6,71.4 621.6,135.4 549.6,167.4 405.6,103.4" />
</svg>
