<svg xmlns="http://www.w3.org/2000/svg" width="390mm" height="335mm" viewBox="0 0 390 335">
  <style>
    .profile { fill: none; stroke: #111111; stroke-width: 0.7; }
    .reference { fill: none; stroke: #666666; stroke-width: 0.4; stroke-dasharray: 4 3; }
    .title { font: 700 8px monospace; fill: #111111; }
    .label { font: 700 6px monospace; fill: #333333; }
    .note { font: 5.6px monospace; fill: #111111; }
  </style>
  <text x="12" y="16" class="title">SWC-CHOCK-001 hardwood wedge chock | qty 4 | units: mm</text><text x="18" y="50" class="label">side profile: 200 base, 75 rear, 25 nose</text><polygon class="profile" points="18,55 218,55 218,130 18,80" /><text x="18" y="140" class="label">top: 200 x 100</text><line class="profile" x1="18" y1="145" x2="218" y2="145" /><line class="profile" x1="218" y1="145" x2="218" y2="245" /><line class="profile" x1="218" y1="245" x2="18" y2="245" /><line class="profile" x1="18" y1="245" x2="18" y2="145" /><text x="245" y="50" class="label">rear end: 100 x 75</text><line class="profile" x1="245" y1="55" x2="345" y2="55" /><line class="profile" x1="345" y1="55" x2="345" y2="130" /><line class="profile" x1="345" y1="130" x2="245" y2="130" /><line class="profile" x1="245" y1="130" x2="245" y2="55" /><text x="245" y="140" class="label">nose end: 100 x 25</text><line class="profile" x1="245" y1="145" x2="345" y2="145" /><line class="profile" x1="345" y1="145" x2="345" y2="170" /><line class="profile" x1="345" y1="170" x2="245" y2="170" /><line class="profile" x1="245" y1="170" x2="245" y2="145" /><text x="12" y="267" class="note">Finished size: 200 L x 100 W, 75 rear height, 25 nose height.</text><text x="12" y="277" class="note">Qty 4. Tolerance: length +/-5, width +/-3, heights +/-3 mm.</text><text x="12" y="287" class="note">Straight top taper, approx 14 degrees. No feather edge.</text><text x="12" y="297" class="note">Flat bottom across full width; grain runs along 200 mm length.</text><text x="12" y="307" class="note">Use as chocks/stabilizers only; not primary support.</text>
</svg>
