<svg xmlns="http://www.w3.org/2000/svg" width="1200" height="900" viewBox="0 0 1200 900" role="img" aria-label="Retaining clip and cotter pin assortment reference">
  <rect width="1200" height="900" fill="#f6f8f7"/>
  <rect x="72" y="72" width="1056" height="756" rx="36" fill="#ffffff" stroke="#d5ddd8" stroke-width="4"/>
  <g fill="none" stroke="#34423c" stroke-width="18" stroke-linecap="round" stroke-linejoin="round">
    <path d="M200 246c80-84 214-26 186 78-20 72-118 82-148 18-23-48 24-98 70-70"/>
    <path d="M780 250c80-86 218-28 188 78-20 72-120 82-150 18-22-50 26-100 72-70"/>
    <path d="M508 218c-78 66-78 188 0 254"/>
    <path d="M630 218c78 66 78 188 0 254"/>
    <path d="M514 472h112"/>
    <path d="M198 636h190"/>
    <path d="M198 636c42-86 148-86 190 0"/>
    <path d="M812 636h190"/>
    <path d="M812 636c42-86 148-86 190 0"/>
  </g>
  <g fill="#bfc9c3" stroke="#34423c" stroke-width="10" stroke-linejoin="round">
    <path d="M458 606h96l38 66-38 66h-96l-38-66z"/>
    <circle cx="506" cy="672" r="42" fill="#fff"/>
    <path d="M650 606h96l38 66-38 66h-96l-38-66z"/>
    <circle cx="698" cy="672" r="42" fill="#fff"/>
  </g>
  <g fill="none" stroke="#859189" stroke-width="10" stroke-linecap="round">
    <path d="M206 530l162 32"/>
    <path d="M210 562l156-32"/>
    <path d="M835 530l160 32"/>
    <path d="M839 562l154-32"/>
    <path d="M536 154l24 54"/>
    <path d="M662 154l-24 54"/>
  </g>
</svg>
