<svg xmlns="http://www.w3.org/2000/svg" width="1200" height="900" viewBox="0 0 1200 900" role="img" aria-label="Shoulder pins sleeves and spacer tubes reference">
  <rect width="1200" height="900" fill="#f6f8f7"/>
  <rect x="72" y="72" width="1056" height="756" rx="34" fill="#ffffff" stroke="#d6ddd8" stroke-width="4"/>
  <g stroke="#35423d" stroke-width="10" stroke-linejoin="round" stroke-linecap="round">
    <g transform="rotate(-12 360 272)">
      <rect x="170" y="230" width="104" height="92" rx="18" fill="#cbd4cf"/>
      <rect x="274" y="250" width="336" height="52" fill="#dfe5e1"/>
      <rect x="610" y="258" width="146" height="36" fill="#cbd4cf"/>
      <path d="M632 260l-20 32M672 260l-20 32M712 260l-20 32" fill="none"/>
      <path d="M188 276h68" fill="none"/>
    </g>
    <g transform="rotate(18 718 380)">
      <rect x="510" y="360" width="88" height="78" rx="16" fill="#cbd4cf"/>
      <rect x="598" y="378" width="300" height="42" fill="#dfe5e1"/>
      <rect x="898" y="384" width="126" height="30" fill="#cbd4cf"/>
      <path d="M918 386l-18 26M956 386l-18 26M994 386l-18 26" fill="none"/>
      <path d="M526 400h56" fill="none"/>
    </g>
    <g transform="translate(0 36)">
      <ellipse cx="300" cy="644" rx="96" ry="42" fill="#dfe5e1"/>
      <rect x="204" y="500" width="192" height="144" fill="#dfe5e1"/>
      <ellipse cx="300" cy="500" rx="96" ry="42" fill="#f6f8f7"/>
      <ellipse cx="300" cy="500" rx="46" ry="18" fill="#ffffff"/>
      <ellipse cx="586" cy="644" rx="88" ry="38" fill="#dfe5e1"/>
      <rect x="498" y="530" width="176" height="114" fill="#dfe5e1"/>
      <ellipse cx="586" cy="530" rx="88" ry="38" fill="#f6f8f7"/>
      <ellipse cx="586" cy="530" rx="42" ry="16" fill="#ffffff"/>
      <ellipse cx="850" cy="644" rx="76" ry="34" fill="#dfe5e1"/>
      <rect x="774" y="556" width="152" height="88" fill="#dfe5e1"/>
      <ellipse cx="850" cy="556" rx="76" ry="34" fill="#f6f8f7"/>
      <ellipse cx="850" cy="556" rx="36" ry="14" fill="#ffffff"/>
    </g>
  </g>
  <g fill="none" stroke="#87918c" stroke-width="8" stroke-linecap="round">
    <path d="M204 716h192"/>
    <path d="M498 716h176"/>
    <path d="M774 716h152"/>
  </g>
</svg>
