<svg xmlns="http://www.w3.org/2000/svg" width="900" height="600" viewBox="0 0 900 600" role="img" aria-labelledby="title desc">
  <title id="title">Hard line bending and flaring reference</title>
  <desc id="desc">Reference image for brake, clutch, and fuel hard lines with shaped tube, flare nuts, clips, and bending tool.</desc>
  <defs>
    <linearGradient id="cuni" x1="0" x2="1" y1="0" y2="1">
      <stop offset="0" stop-color="#fde68a"/>
      <stop offset="0.52" stop-color="#d97706"/>
      <stop offset="1" stop-color="#92400e"/>
    </linearGradient>
    <linearGradient id="steel" x1="0" x2="1">
      <stop offset="0" stop-color="#f8fafc"/>
      <stop offset="0.5" stop-color="#94a3b8"/>
      <stop offset="1" stop-color="#e2e8f0"/>
    </linearGradient>
    <filter id="shadow" x="-20%" y="-20%" width="140%" height="140%">
      <feDropShadow dx="0" dy="9" stdDeviation="10" flood-color="#0f172a" flood-opacity="0.18"/>
    </filter>
  </defs>
  <rect width="900" height="600" rx="34" fill="#f8fafc"/>
  <rect x="44" y="44" width="812" height="512" rx="28" fill="#eef2f7" stroke="#cbd5e1" stroke-width="2"/>

  <g filter="url(#shadow)" fill="none" stroke-linecap="round">
    <path d="M110 410 H248 C304 410 330 376 330 335 V260 C330 218 360 190 405 190 H560 C612 190 642 220 642 265 V340 C642 380 670 410 721 410 H790" stroke="#7c2d12" stroke-width="27"/>
    <path d="M110 410 H248 C304 410 330 376 330 335 V260 C330 218 360 190 405 190 H560 C612 190 642 220 642 265 V340 C642 380 670 410 721 410 H790" stroke="url(#cuni)" stroke-width="17"/>
    <path d="M158 312 C270 276 424 300 506 351 C579 397 667 382 752 330" stroke="#334155" stroke-width="23"/>
    <path d="M158 312 C270 276 424 300 506 351 C579 397 667 382 752 330" stroke="url(#steel)" stroke-width="13"/>
  </g>

  <g transform="translate(122 386)" fill="url(#steel)" stroke="#475569" stroke-width="4">
    <polygon points="-42,-18 12,-18 24,0 12,18 -42,18"/>
    <line x1="-22" y1="-18" x2="-22" y2="18"/>
    <line x1="-7" y1="-18" x2="-7" y2="18"/>
  </g>
  <g transform="translate(780 386)" fill="url(#steel)" stroke="#475569" stroke-width="4">
    <polygon points="42,-18 -12,-18 -24,0 -12,18 42,18"/>
    <line x1="22" y1="-18" x2="22" y2="18"/>
    <line x1="7" y1="-18" x2="7" y2="18"/>
  </g>

  <g fill="#111827" stroke="#f8fafc" stroke-width="3">
    <path d="M218 392 h42 a12 12 0 0 1 12 12 v20 h-66 v-20 a12 12 0 0 1 12-12z"/>
    <path d="M538 172 h42 a12 12 0 0 1 12 12 v20 h-66 v-20 a12 12 0 0 1 12-12z"/>
    <path d="M687 392 h42 a12 12 0 0 1 12 12 v20 h-66 v-20 a12 12 0 0 1 12-12z"/>
  </g>

  <g transform="translate(613 108)">
    <circle cx="64" cy="64" r="48" fill="none" stroke="#2563eb" stroke-width="17"/>
    <path d="M102 94 L180 172" stroke="#2563eb" stroke-width="18" stroke-linecap="round"/>
    <circle cx="64" cy="64" r="14" fill="#0f172a"/>
  </g>

  <g fill="none" stroke="#334155" stroke-width="3" stroke-linecap="round">
    <path d="M119 391 L75 316"/>
    <path d="M645 264 L733 255"/>
    <path d="M566 190 L532 119"/>
    <path d="M230 410 L214 498"/>
  </g>
  <g font-family="Inter, Arial, sans-serif" fill="#0f172a">
    <text x="62" y="303" font-size="24" font-weight="700">flare nuts and end style</text>
    <text x="578" y="248" font-size="24" font-weight="700">hand tube bender</text>
    <text x="432" y="105" font-size="24" font-weight="700">copy old bend template</text>
    <text x="122" y="525" font-size="24" font-weight="700">rubber-lined P-clips</text>
    <text x="72" y="112" font-size="20" fill="#475569">Brake/clutch/fuel hard lines need clean tube cutting, bending, deburring, and correct flare/thread identification.</text>
  </g>
</svg>
