0
SECTION
2
HEADER
9
$INSUNITS
70
4
0
ENDSEC
0
SECTION
2
ENTITIES
0
LINE
8
CUT
10
0
20
1.5
11
0.029
21
1.207
0
LINE
8
CUT
10
0.029
20
1.207
11
0.114
21
0.926
0
LINE
8
CUT
10
0.114
20
0.926
11
0.253
21
0.667
0
LINE
8
CUT
10
0.253
20
0.667
11
0.439
21
0.439
0
LINE
8
CUT
10
0.439
20
0.439
11
0.667
21
0.253
0
LINE
8
CUT
10
0.667
20
0.253
11
0.926
21
0.114
0
LINE
8
CUT
10
0.926
20
0.114
11
1.207
21
0.029
0
LINE
8
CUT
10
1.207
20
0.029
11
1.5
21
0
0
LINE
8
CUT
10
1.5
20
0
11
78.5
21
0
0
LINE
8
CUT
10
78.5
20
0
11
78.793
21
0.029
0
LINE
8
CUT
10
78.793
20
0.029
11
79.074
21
0.114
0
LINE
8
CUT
10
79.074
20
0.114
11
79.333
21
0.253
0
LINE
8
CUT
10
79.333
20
0.253
11
79.561
21
0.439
0
LINE
8
CUT
10
79.561
20
0.439
11
79.747
21
0.667
0
LINE
8
CUT
10
79.747
20
0.667
11
79.886
21
0.926
0
LINE
8
CUT
10
79.886
20
0.926
11
79.971
21
1.207
0
LINE
8
CUT
10
79.971
20
1.207
11
80
21
1.5
0
LINE
8
CUT
10
80
20
1.5
11
80
21
78.5
0
LINE
8
CUT
10
80
20
78.5
11
79.971
21
78.793
0
LINE
8
CUT
10
79.971
20
78.793
11
79.886
21
79.074
0
LINE
8
CUT
10
79.886
20
79.074
11
79.747
21
79.333
0
LINE
8
CUT
10
79.747
20
79.333
11
79.561
21
79.561
0
LINE
8
CUT
10
79.561
20
79.561
11
79.333
21
79.747
0
LINE
8
CUT
10
79.333
20
79.747
11
79.074
21
79.886
0
LINE
8
CUT
10
79.074
20
79.886
11
78.793
21
79.971
0
LINE
8
CUT
10
78.793
20
79.971
11
78.5
21
80
0
LINE
8
CUT
10
78.5
20
80
11
1.5
21
80
0
LINE
8
CUT
10
1.5
20
80
11
1.207
21
79.971
0
LINE
8
CUT
10
1.207
20
79.971
11
0.926
21
79.886
0
LINE
8
CUT
10
0.926
20
79.886
11
0.667
21
79.747
0
LINE
8
CUT
10
0.667
20
79.747
11
0.439
21
79.561
0
LINE
8
CUT
10
0.439
20
79.561
11
0.253
21
79.333
0
LINE
8
CUT
10
0.253
20
79.333
11
0.114
21
79.074
0
LINE
8
CUT
10
0.114
20
79.074
11
0.029
21
78.793
0
LINE
8
CUT
10
0.029
20
78.793
11
0
21
78.5
0
LINE
8
CUT
10
0
20
78.5
11
0
21
1.5
0
CIRCLE
8
CUT_BORE
10
40
20
40
40
9
0
LINE
8
CENTER
10
40
20
0
11
40
21
80
0
LINE
8
CENTER
10
0
20
40
11
80
21
40
0
ENDSEC
0
EOF
