0
SECTION
2
HEADER
9
$INSUNITS
70
4
0
ENDSEC
0
SECTION
2
ENTITIES
0
LINE
8
CUT
10
1.5
20
0
11
78.5
21
0
0
ARC
8
CUT
10
78.5
20
1.5
40
1.5
50
270
51
360
0
LINE
8
CUT
10
80
20
1.5
11
80
21
78.5
0
ARC
8
CUT
10
78.5
20
78.5
40
1.5
50
0
51
90
0
LINE
8
CUT
10
78.5
20
80
11
1.5
21
80
0
ARC
8
CUT
10
1.5
20
78.5
40
1.5
50
90
51
180
0
LINE
8
CUT
10
0
20
78.5
11
0
21
1.5
0
ARC
8
CUT
10
1.5
20
1.5
40
1.5
50
180
51
270
0
CIRCLE
8
CUT_BORE
10
40
20
40
40
9
0
LINE
8
CENTER
10
40
20
-6
11
40
21
86
0
LINE
8
CENTER
10
-6
20
40
11
86
21
40
0
TEXT
8
TEXT
10
0
20
96
40
3.5
1
BM-ISO-LG square pad 80 x 80 x 24 H; 18.0 centre bore; R1.5 plan corners
0
TEXT
8
TEXT
10
0
20
102
40
3
1
Top/bottom perimeter edge break or chamfer 1.0 max; units mm
0
ENDSEC
0
EOF
