0
SECTION
2
HEADER
9
$INSUNITS
70
4
0
ENDSEC
0
SECTION
2
ENTITIES
0
LINE
8
CUT
10
0
20
1.5
11
0.029
21
1.207
0
LINE
8
CUT
10
0.029
20
1.207
11
0.114
21
0.926
0
LINE
8
CUT
10
0.114
20
0.926
11
0.253
21
0.667
0
LINE
8
CUT
10
0.253
20
0.667
11
0.439
21
0.439
0
LINE
8
CUT
10
0.439
20
0.439
11
0.667
21
0.253
0
LINE
8
CUT
10
0.667
20
0.253
11
0.926
21
0.114
0
LINE
8
CUT
10
0.926
20
0.114
11
1.207
21
0.029
0
LINE
8
CUT
10
1.207
20
0.029
11
1.5
21
0
0
LINE
8
CUT
10
1.5
20
0
11
68.5
21
0
0
LINE
8
CUT
10
68.5
20
0
11
68.793
21
0.029
0
LINE
8
CUT
10
68.793
20
0.029
11
69.074
21
0.114
0
LINE
8
CUT
10
69.074
20
0.114
11
69.333
21
0.253
0
LINE
8
CUT
10
69.333
20
0.253
11
69.561
21
0.439
0
LINE
8
CUT
10
69.561
20
0.439
11
69.747
21
0.667
0
LINE
8
CUT
10
69.747
20
0.667
11
69.886
21
0.926
0
LINE
8
CUT
10
69.886
20
0.926
11
69.971
21
1.207
0
LINE
8
CUT
10
69.971
20
1.207
11
70
21
1.5
0
LINE
8
CUT
10
70
20
1.5
11
70
21
68.5
0
LINE
8
CUT
10
70
20
68.5
11
69.971
21
68.793
0
LINE
8
CUT
10
69.971
20
68.793
11
69.886
21
69.074
0
LINE
8
CUT
10
69.886
20
69.074
11
69.747
21
69.333
0
LINE
8
CUT
10
69.747
20
69.333
11
69.561
21
69.561
0
LINE
8
CUT
10
69.561
20
69.561
11
69.333
21
69.747
0
LINE
8
CUT
10
69.333
20
69.747
11
69.074
21
69.886
0
LINE
8
CUT
10
69.074
20
69.886
11
68.793
21
69.971
0
LINE
8
CUT
10
68.793
20
69.971
11
68.5
21
70
0
LINE
8
CUT
10
68.5
20
70
11
1.5
21
70
0
LINE
8
CUT
10
1.5
20
70
11
1.207
21
69.971
0
LINE
8
CUT
10
1.207
20
69.971
11
0.926
21
69.886
0
LINE
8
CUT
10
0.926
20
69.886
11
0.667
21
69.747
0
LINE
8
CUT
10
0.667
20
69.747
11
0.439
21
69.561
0
LINE
8
CUT
10
0.439
20
69.561
11
0.253
21
69.333
0
LINE
8
CUT
10
0.253
20
69.333
11
0.114
21
69.074
0
LINE
8
CUT
10
0.114
20
69.074
11
0.029
21
68.793
0
LINE
8
CUT
10
0.029
20
68.793
11
0
21
68.5
0
LINE
8
CUT
10
0
20
68.5
11
0
21
1.5
0
CIRCLE
8
CUT_BORE
10
35
20
35
40
9
0
LINE
8
CENTER
10
35
20
0
11
35
21
70
0
LINE
8
CENTER
10
0
20
35
11
70
21
35
0
ENDSEC
0
EOF
