0
SECTION
2
HEADER
9
$INSUNITS
70
4
0
ENDSEC
0
SECTION
2
ENTITIES
0
LINE
8
CUT
10
1.5
20
0
11
68.5
21
0
0
ARC
8
CUT
10
68.5
20
1.5
40
1.5
50
270
51
360
0
LINE
8
CUT
10
70
20
1.5
11
70
21
68.5
0
ARC
8
CUT
10
68.5
20
68.5
40
1.5
50
0
51
90
0
LINE
8
CUT
10
68.5
20
70
11
1.5
21
70
0
ARC
8
CUT
10
1.5
20
68.5
40
1.5
50
90
51
180
0
LINE
8
CUT
10
0
20
68.5
11
0
21
1.5
0
ARC
8
CUT
10
1.5
20
1.5
40
1.5
50
180
51
270
0
CIRCLE
8
CUT_BORE
10
35
20
35
40
9
0
LINE
8
CENTER
10
35
20
-6
11
35
21
76
0
LINE
8
CENTER
10
-6
20
35
11
76
21
35
0
TEXT
8
TEXT
10
0
20
86
40
3.5
1
BM-ISO-SM square pad 70 x 70 x 22 H; 18.0 centre bore; R1.5 plan corners
0
TEXT
8
TEXT
10
0
20
92
40
3
1
Top/bottom perimeter edge break or chamfer 1.0 max; units mm
0
ENDSEC
0
EOF
