0
SECTION
2
HEADER
9
$INSUNITS
70
4
0
ENDSEC
0
SECTION
2
ENTITIES
0
LINE
8
HOLD_OUTLINE
10
0
20
0
11
300
21
0
0
LINE
8
HOLD_OUTLINE
10
300
20
0
11
300
21
25
0
LINE
8
HOLD_OUTLINE
10
300
20
25
11
0
21
25
0
LINE
8
HOLD_OUTLINE
10
0
20
25
11
0
21
0
0
CIRCLE
8
MEASURE_HOLES_IF_PRESENT
10
60
20
12.5
40
4
0
CIRCLE
8
MEASURE_HOLES_IF_PRESENT
10
150
20
12.5
40
4
0
CIRCLE
8
MEASURE_HOLES_IF_PRESENT
10
240
20
12.5
40
4
0
TEXT
8
TEXT
10
0
20
42
40
4
1
Full-width liner hold control - scale placeholder, not production cut file
0
TEXT
8
TEXT
10
0
20
35
40
3
1
Measure actual L/W/T, holes, slots, notches, side labels, and installed function before quote.
0
ENDSEC
0
EOF
