0
SECTION
2
HEADER
9
$INSUNITS
70
4
0
ENDSEC
0
SECTION
2
ENTITIES
0
LINE
8
CONTROL
10
20
20
20
11
20
21
90
0
LINE
8
CONTROL
10
20
20
90
11
120
21
90
0
LINE
8
CONTROL
10
120
20
90
11
120
21
20
0
LINE
8
CONTROL
10
120
20
20
11
20
21
20
0
LINE
8
CENTER
10
45
20
55
11
95
21
55
0
CIRCLE
8
DRILL_MEASURE
10
45
20
55
40
6
0
CIRCLE
8
DRILL_MEASURE
10
95
20
55
40
6
0
LINE
8
DIMENSION_REFERENCE
10
45
20
105
11
95
21
105
0
LINE
8
DIMENSION_REFERENCE
10
135
20
20
11
135
21
90
0
TEXT
8
TEXT
10
20
20
118
40
4
1
J40 bump stop measurement control - not a direct cut profile
0
TEXT
8
TEXT
10
20
20
112
40
3
1
Release BL/BW/P/D/X-Y/G/F from cleaned vehicle bracket and strike pad.
0
TEXT
8
TEXT
10
42
20
101
40
3
1
P
0
TEXT
8
TEXT
10
139
20
57
40
3
1
H 70 or 60
0
ENDSEC
0
EOF
