0
SECTION
2
HEADER
9
$INSUNITS
70
4
0
ENDSEC
0
SECTION
2
ENTITIES
0
LINE
8
CUT
10
24
20
0
11
27.133
21
0.205
0
LINE
8
CUT
10
27.133
20
0.205
11
30.212
21
0.818
0
LINE
8
CUT
10
30.212
20
0.818
11
33.184
21
1.827
0
LINE
8
CUT
10
33.184
20
1.827
11
36
21
3.215
0
LINE
8
CUT
10
36
20
3.215
11
38.61
21
4.96
0
LINE
8
CUT
10
38.61
20
4.96
11
40.971
21
7.029
0
LINE
8
CUT
10
40.971
20
7.029
11
43.04
21
9.39
0
LINE
8
CUT
10
43.04
20
9.39
11
44.785
21
12
0
LINE
8
CUT
10
44.785
20
12
11
46.173
21
14.816
0
LINE
8
CUT
10
46.173
20
14.816
11
47.182
21
17.788
0
LINE
8
CUT
10
47.182
20
17.788
11
47.795
21
20.867
0
LINE
8
CUT
10
47.795
20
20.867
11
48
21
24
0
LINE
8
CUT
10
48
20
24
11
47.795
21
27.133
0
LINE
8
CUT
10
47.795
20
27.133
11
47.182
21
30.212
0
LINE
8
CUT
10
47.182
20
30.212
11
46.173
21
33.184
0
LINE
8
CUT
10
46.173
20
33.184
11
44.785
21
36
0
LINE
8
CUT
10
44.785
20
36
11
43.04
21
38.61
0
LINE
8
CUT
10
43.04
20
38.61
11
40.971
21
40.971
0
LINE
8
CUT
10
40.971
20
40.971
11
38.61
21
43.04
0
LINE
8
CUT
10
38.61
20
43.04
11
36
21
44.785
0
LINE
8
CUT
10
36
20
44.785
11
38
21
50
0
LINE
8
CUT
10
38
20
50
11
38
21
70
0
LINE
8
CUT
10
38
20
70
11
32
21
84
0
LINE
8
CUT
10
32
20
84
11
16
21
84
0
LINE
8
CUT
10
16
20
84
11
10
21
70
0
LINE
8
CUT
10
10
20
70
11
10
21
50
0
LINE
8
CUT
10
10
20
50
11
12
21
44.785
0
LINE
8
CUT
10
12
20
44.785
11
9.39
21
43.04
0
LINE
8
CUT
10
9.39
20
43.04
11
7.029
21
40.971
0
LINE
8
CUT
10
7.029
20
40.971
11
4.96
21
38.61
0
LINE
8
CUT
10
4.96
20
38.61
11
3.215
21
36
0
LINE
8
CUT
10
3.215
20
36
11
1.827
21
33.184
0
LINE
8
CUT
10
1.827
20
33.184
11
0.818
21
30.212
0
LINE
8
CUT
10
0.818
20
30.212
11
0.205
21
27.133
0
LINE
8
CUT
10
0.205
20
27.133
11
0
21
24
0
LINE
8
CUT
10
0
20
24
11
0.205
21
20.867
0
LINE
8
CUT
10
0.205
20
20.867
11
0.818
21
17.788
0
LINE
8
CUT
10
0.818
20
17.788
11
1.827
21
14.816
0
LINE
8
CUT
10
1.827
20
14.816
11
3.215
21
12
0
LINE
8
CUT
10
3.215
20
12
11
4.96
21
9.39
0
LINE
8
CUT
10
4.96
20
9.39
11
7.029
21
7.029
0
LINE
8
CUT
10
7.029
20
7.029
11
9.39
21
4.96
0
LINE
8
CUT
10
9.39
20
4.96
11
12
21
3.215
0
LINE
8
CUT
10
12
20
3.215
11
14.816
21
1.827
0
LINE
8
CUT
10
14.816
20
1.827
11
17.788
21
0.818
0
LINE
8
CUT
10
17.788
20
0.818
11
20.867
21
0.205
0
LINE
8
CUT
10
20.867
20
0.205
11
24
21
0
0
LINE
8
CUT
10
24
20
0
11
24
21
0
0
LINE
8
RECESS
10
6
20
26
11
6.273
21
22.874
0
LINE
8
RECESS
10
6.273
20
22.874
11
7.086
21
19.844
0
LINE
8
RECESS
10
7.086
20
19.844
11
8.412
21
17
0
LINE
8
RECESS
10
8.412
20
17
11
10.211
21
14.43
0
LINE
8
RECESS
10
10.211
20
14.43
11
12.43
21
12.211
0
LINE
8
RECESS
10
12.43
20
12.211
11
15
21
10.412
0
LINE
8
RECESS
10
15
20
10.412
11
17.844
21
9.086
0
LINE
8
RECESS
10
17.844
20
9.086
11
20.874
21
8.273
0
LINE
8
RECESS
10
20.874
20
8.273
11
24
21
8
0
LINE
8
RECESS
10
24
20
8
11
27.126
21
8.273
0
LINE
8
RECESS
10
27.126
20
8.273
11
30.156
21
9.086
0
LINE
8
RECESS
10
30.156
20
9.086
11
33
21
10.412
0
LINE
8
RECESS
10
33
20
10.412
11
35.57
21
12.211
0
LINE
8
RECESS
10
35.57
20
12.211
11
37.789
21
14.43
0
LINE
8
RECESS
10
37.789
20
14.43
11
39.588
21
17
0
LINE
8
RECESS
10
39.588
20
17
11
40.914
21
19.844
0
LINE
8
RECESS
10
40.914
20
19.844
11
41.727
21
22.874
0
LINE
8
RECESS
10
41.727
20
22.874
11
42
21
26
0
LINE
8
RECESS
10
42
20
26
11
42
21
32
0
LINE
8
RECESS
10
42
20
32
11
41.727
21
35.126
0
LINE
8
RECESS
10
41.727
20
35.126
11
40.914
21
38.156
0
LINE
8
RECESS
10
40.914
20
38.156
11
39.588
21
41
0
LINE
8
RECESS
10
39.588
20
41
11
37.789
21
43.57
0
LINE
8
RECESS
10
37.789
20
43.57
11
35.57
21
45.789
0
LINE
8
RECESS
10
35.57
20
45.789
11
33
21
47.588
0
LINE
8
RECESS
10
33
20
47.588
11
30.156
21
48.914
0
LINE
8
RECESS
10
30.156
20
48.914
11
27.126
21
49.727
0
LINE
8
RECESS
10
27.126
20
49.727
11
24
21
50
0
LINE
8
RECESS
10
24
20
50
11
20.874
21
49.727
0
LINE
8
RECESS
10
20.874
20
49.727
11
17.844
21
48.914
0
LINE
8
RECESS
10
17.844
20
48.914
11
15
21
47.588
0
LINE
8
RECESS
10
15
20
47.588
11
12.43
21
45.789
0
LINE
8
RECESS
10
12.43
20
45.789
11
10.211
21
43.57
0
LINE
8
RECESS
10
10.211
20
43.57
11
8.412
21
41
0
LINE
8
RECESS
10
8.412
20
41
11
7.086
21
38.156
0
LINE
8
RECESS
10
7.086
20
38.156
11
6.273
21
35.126
0
LINE
8
RECESS
10
6.273
20
35.126
11
6
21
32
0
LINE
8
RECESS
10
6
20
32
11
6
21
26
0
LINE
8
CUT_BORE
10
16
20
26
11
16.122
21
24.611
0
LINE
8
CUT_BORE
10
16.122
20
24.611
11
16.482
21
23.264
0
LINE
8
CUT_BORE
10
16.482
20
23.264
11
17.072
21
22
0
LINE
8
CUT_BORE
10
17.072
20
22
11
17.872
21
20.858
0
LINE
8
CUT_BORE
10
17.872
20
20.858
11
18.858
21
19.872
0
LINE
8
CUT_BORE
10
18.858
20
19.872
11
20
21
19.072
0
LINE
8
CUT_BORE
10
20
20
19.072
11
21.264
21
18.482
0
LINE
8
CUT_BORE
10
21.264
20
18.482
11
22.611
21
18.122
0
LINE
8
CUT_BORE
10
22.611
20
18.122
11
24
21
18
0
LINE
8
CUT_BORE
10
24
20
18
11
25.389
21
18.122
0
LINE
8
CUT_BORE
10
25.389
20
18.122
11
26.736
21
18.482
0
LINE
8
CUT_BORE
10
26.736
20
18.482
11
28
21
19.072
0
LINE
8
CUT_BORE
10
28
20
19.072
11
29.142
21
19.872
0
LINE
8
CUT_BORE
10
29.142
20
19.872
11
30.128
21
20.858
0
LINE
8
CUT_BORE
10
30.128
20
20.858
11
30.928
21
22
0
LINE
8
CUT_BORE
10
30.928
20
22
11
31.518
21
23.264
0
LINE
8
CUT_BORE
10
31.518
20
23.264
11
31.878
21
24.611
0
LINE
8
CUT_BORE
10
31.878
20
24.611
11
32
21
26
0
LINE
8
CUT_BORE
10
32
20
26
11
32
21
32
0
LINE
8
CUT_BORE
10
32
20
32
11
31.878
21
33.389
0
LINE
8
CUT_BORE
10
31.878
20
33.389
11
31.518
21
34.736
0
LINE
8
CUT_BORE
10
31.518
20
34.736
11
30.928
21
36
0
LINE
8
CUT_BORE
10
30.928
20
36
11
30.128
21
37.142
0
LINE
8
CUT_BORE
10
30.128
20
37.142
11
29.142
21
38.128
0
LINE
8
CUT_BORE
10
29.142
20
38.128
11
28
21
38.928
0
LINE
8
CUT_BORE
10
28
20
38.928
11
26.736
21
39.518
0
LINE
8
CUT_BORE
10
26.736
20
39.518
11
25.389
21
39.878
0
LINE
8
CUT_BORE
10
25.389
20
39.878
11
24
21
40
0
LINE
8
CUT_BORE
10
24
20
40
11
22.611
21
39.878
0
LINE
8
CUT_BORE
10
22.611
20
39.878
11
21.264
21
39.518
0
LINE
8
CUT_BORE
10
21.264
20
39.518
11
20
21
38.928
0
LINE
8
CUT_BORE
10
20
20
38.928
11
18.858
21
38.128
0
LINE
8
CUT_BORE
10
18.858
20
38.128
11
17.872
21
37.142
0
LINE
8
CUT_BORE
10
17.872
20
37.142
11
17.072
21
36
0
LINE
8
CUT_BORE
10
17.072
20
36
11
16.482
21
34.736
0
LINE
8
CUT_BORE
10
16.482
20
34.736
11
16.122
21
33.389
0
LINE
8
CUT_BORE
10
16.122
20
33.389
11
16
21
32
0
LINE
8
CUT_BORE
10
16
20
32
11
16
21
26
0
CIRCLE
8
DRILL
10
24
20
73
40
4.5
0
LINE
8
CENTER
10
24
20
0
11
24
21
86
0
LINE
8
CENTER
10
0
20
24
11
48
21
24
0
LINE
8
CENTER
10
0
20
73
11
48
21
73
0
ENDSEC
0
EOF
