0
SECTION
2
HEADER
9
$INSUNITS
70
4
0
ENDSEC
0
SECTION
2
ENTITIES
0
LINE
8
CUT
10
0
20
32
11
0.486
21
26.443
0
LINE
8
CUT
10
0.486
20
26.443
11
1.93
21
21.055
0
LINE
8
CUT
10
1.93
20
21.055
11
4.287
21
16
0
LINE
8
CUT
10
4.287
20
16
11
7.487
21
11.431
0
LINE
8
CUT
10
7.487
20
11.431
11
11.431
21
7.487
0
LINE
8
CUT
10
11.431
20
7.487
11
16
21
4.287
0
LINE
8
CUT
10
16
20
4.287
11
21.055
21
1.93
0
LINE
8
CUT
10
21.055
20
1.93
11
26.443
21
0.486
0
LINE
8
CUT
10
26.443
20
0.486
11
32
21
0
0
LINE
8
CUT
10
32
20
0
11
37.557
21
0.486
0
LINE
8
CUT
10
37.557
20
0.486
11
42.945
21
1.93
0
LINE
8
CUT
10
42.945
20
1.93
11
48
21
4.287
0
LINE
8
CUT
10
48
20
4.287
11
52.569
21
7.487
0
LINE
8
CUT
10
52.569
20
7.487
11
56.513
21
11.431
0
LINE
8
CUT
10
56.513
20
11.431
11
59.713
21
16
0
LINE
8
CUT
10
59.713
20
16
11
62.07
21
21.055
0
LINE
8
CUT
10
62.07
20
21.055
11
63.514
21
26.443
0
LINE
8
CUT
10
63.514
20
26.443
11
64
21
32
0
LINE
8
CUT
10
64
20
32
11
64
21
64
0
LINE
8
CUT
10
64
20
64
11
63.514
21
69.557
0
LINE
8
CUT
10
63.514
20
69.557
11
62.07
21
74.945
0
LINE
8
CUT
10
62.07
20
74.945
11
59.713
21
80
0
LINE
8
CUT
10
59.713
20
80
11
56.513
21
84.569
0
LINE
8
CUT
10
56.513
20
84.569
11
52.569
21
88.513
0
LINE
8
CUT
10
52.569
20
88.513
11
48
21
91.713
0
LINE
8
CUT
10
48
20
91.713
11
42.945
21
94.07
0
LINE
8
CUT
10
42.945
20
94.07
11
37.557
21
95.514
0
LINE
8
CUT
10
37.557
20
95.514
11
32
21
96
0
LINE
8
CUT
10
32
20
96
11
26.443
21
95.514
0
LINE
8
CUT
10
26.443
20
95.514
11
21.055
21
94.07
0
LINE
8
CUT
10
21.055
20
94.07
11
16
21
91.713
0
LINE
8
CUT
10
16
20
91.713
11
11.431
21
88.513
0
LINE
8
CUT
10
11.431
20
88.513
11
7.487
21
84.569
0
LINE
8
CUT
10
7.487
20
84.569
11
4.287
21
80
0
LINE
8
CUT
10
4.287
20
80
11
1.93
21
74.945
0
LINE
8
CUT
10
1.93
20
74.945
11
0.486
21
69.557
0
LINE
8
CUT
10
0.486
20
69.557
11
0
21
64
0
LINE
8
CUT
10
0
20
64
11
0
21
32
0
LINE
8
CUT_RELIEF
10
14
20
42
11
14.058
21
41.415
0
LINE
8
CUT_RELIEF
10
14.058
20
41.415
11
14.228
21
40.852
0
LINE
8
CUT_RELIEF
10
14.228
20
40.852
11
14.506
21
40.333
0
LINE
8
CUT_RELIEF
10
14.506
20
40.333
11
14.879
21
39.879
0
LINE
8
CUT_RELIEF
10
14.879
20
39.879
11
15.333
21
39.506
0
LINE
8
CUT_RELIEF
10
15.333
20
39.506
11
15.852
21
39.228
0
LINE
8
CUT_RELIEF
10
15.852
20
39.228
11
16.415
21
39.058
0
LINE
8
CUT_RELIEF
10
16.415
20
39.058
11
17
21
39
0
LINE
8
CUT_RELIEF
10
17
20
39
11
47
21
39
0
LINE
8
CUT_RELIEF
10
47
20
39
11
47.585
21
39.058
0
LINE
8
CUT_RELIEF
10
47.585
20
39.058
11
48.148
21
39.228
0
LINE
8
CUT_RELIEF
10
48.148
20
39.228
11
48.667
21
39.506
0
LINE
8
CUT_RELIEF
10
48.667
20
39.506
11
49.121
21
39.879
0
LINE
8
CUT_RELIEF
10
49.121
20
39.879
11
49.494
21
40.333
0
LINE
8
CUT_RELIEF
10
49.494
20
40.333
11
49.772
21
40.852
0
LINE
8
CUT_RELIEF
10
49.772
20
40.852
11
49.942
21
41.415
0
LINE
8
CUT_RELIEF
10
49.942
20
41.415
11
50
21
42
0
LINE
8
CUT_RELIEF
10
50
20
42
11
50
21
54
0
LINE
8
CUT_RELIEF
10
50
20
54
11
49.942
21
54.585
0
LINE
8
CUT_RELIEF
10
49.942
20
54.585
11
49.772
21
55.148
0
LINE
8
CUT_RELIEF
10
49.772
20
55.148
11
49.494
21
55.667
0
LINE
8
CUT_RELIEF
10
49.494
20
55.667
11
49.121
21
56.121
0
LINE
8
CUT_RELIEF
10
49.121
20
56.121
11
48.667
21
56.494
0
LINE
8
CUT_RELIEF
10
48.667
20
56.494
11
48.148
21
56.772
0
LINE
8
CUT_RELIEF
10
48.148
20
56.772
11
47.585
21
56.942
0
LINE
8
CUT_RELIEF
10
47.585
20
56.942
11
47
21
57
0
LINE
8
CUT_RELIEF
10
47
20
57
11
17
21
57
0
LINE
8
CUT_RELIEF
10
17
20
57
11
16.415
21
56.942
0
LINE
8
CUT_RELIEF
10
16.415
20
56.942
11
15.852
21
56.772
0
LINE
8
CUT_RELIEF
10
15.852
20
56.772
11
15.333
21
56.494
0
LINE
8
CUT_RELIEF
10
15.333
20
56.494
11
14.879
21
56.121
0
LINE
8
CUT_RELIEF
10
14.879
20
56.121
11
14.506
21
55.667
0
LINE
8
CUT_RELIEF
10
14.506
20
55.667
11
14.228
21
55.148
0
LINE
8
CUT_RELIEF
10
14.228
20
55.148
11
14.058
21
54.585
0
LINE
8
CUT_RELIEF
10
14.058
20
54.585
11
14
21
54
0
LINE
8
CUT_RELIEF
10
14
20
54
11
14
21
42
0
CIRCLE
8
CUT_BORE
10
32
20
16
40
6
0
CIRCLE
8
CUT_BORE
10
32
20
80
40
6
0
CIRCLE
8
INSERT_MARK
10
32
20
16
40
14.5
0
LINE
8
CENTER
10
32
20
0
11
32
21
96
0
LINE
8
CENTER
10
0
20
16
11
64
21
16
0
LINE
8
CENTER
10
0
20
80
11
64
21
80
0
ENDSEC
0
EOF
