0
SECTION
2
HEADER
9
$INSUNITS
70
4
0
ENDSEC
0
SECTION
2
ENTITIES
0
LINE
8
CUT
10
0
20
1.5
11
0.029
21
1.207
0
LINE
8
CUT
10
0.029
20
1.207
11
0.114
21
0.926
0
LINE
8
CUT
10
0.114
20
0.926
11
0.253
21
0.667
0
LINE
8
CUT
10
0.253
20
0.667
11
0.439
21
0.439
0
LINE
8
CUT
10
0.439
20
0.439
11
0.667
21
0.253
0
LINE
8
CUT
10
0.667
20
0.253
11
0.926
21
0.114
0
LINE
8
CUT
10
0.926
20
0.114
11
1.207
21
0.029
0
LINE
8
CUT
10
1.207
20
0.029
11
1.5
21
0
0
LINE
8
CUT
10
1.5
20
0
11
418.5
21
0
0
LINE
8
CUT
10
418.5
20
0
11
418.793
21
0.029
0
LINE
8
CUT
10
418.793
20
0.029
11
419.074
21
0.114
0
LINE
8
CUT
10
419.074
20
0.114
11
419.333
21
0.253
0
LINE
8
CUT
10
419.333
20
0.253
11
419.561
21
0.439
0
LINE
8
CUT
10
419.561
20
0.439
11
419.747
21
0.667
0
LINE
8
CUT
10
419.747
20
0.667
11
419.886
21
0.926
0
LINE
8
CUT
10
419.886
20
0.926
11
419.971
21
1.207
0
LINE
8
CUT
10
419.971
20
1.207
11
420
21
1.5
0
LINE
8
CUT
10
420
20
1.5
11
420
21
36.5
0
LINE
8
CUT
10
420
20
36.5
11
419.971
21
36.793
0
LINE
8
CUT
10
419.971
20
36.793
11
419.886
21
37.074
0
LINE
8
CUT
10
419.886
20
37.074
11
419.747
21
37.333
0
LINE
8
CUT
10
419.747
20
37.333
11
419.561
21
37.561
0
LINE
8
CUT
10
419.561
20
37.561
11
419.333
21
37.747
0
LINE
8
CUT
10
419.333
20
37.747
11
419.074
21
37.886
0
LINE
8
CUT
10
419.074
20
37.886
11
418.793
21
37.971
0
LINE
8
CUT
10
418.793
20
37.971
11
418.5
21
38
0
LINE
8
CUT
10
418.5
20
38
11
1.5
21
38
0
LINE
8
CUT
10
1.5
20
38
11
1.207
21
37.971
0
LINE
8
CUT
10
1.207
20
37.971
11
0.926
21
37.886
0
LINE
8
CUT
10
0.926
20
37.886
11
0.667
21
37.747
0
LINE
8
CUT
10
0.667
20
37.747
11
0.439
21
37.561
0
LINE
8
CUT
10
0.439
20
37.561
11
0.253
21
37.333
0
LINE
8
CUT
10
0.253
20
37.333
11
0.114
21
37.074
0
LINE
8
CUT
10
0.114
20
37.074
11
0.029
21
36.793
0
LINE
8
CUT
10
0.029
20
36.793
11
0
21
36.5
0
LINE
8
CUT
10
0
20
36.5
11
0
21
1.5
0
LINE
8
CENTER
10
0
20
19
11
420
21
19
0
ENDSEC
0
EOF
