0
SECTION
2
HEADER
9
$INSUNITS
70
4
0
ENDSEC
0
SECTION
2
ENTITIES
0
LINE
8
TEMPLATE
10
0
20
4
11
0.077
21
3.22
0
LINE
8
TEMPLATE
10
0.077
20
3.22
11
0.304
21
2.469
0
LINE
8
TEMPLATE
10
0.304
20
2.469
11
0.674
21
1.778
0
LINE
8
TEMPLATE
10
0.674
20
1.778
11
1.172
21
1.172
0
LINE
8
TEMPLATE
10
1.172
20
1.172
11
1.778
21
0.674
0
LINE
8
TEMPLATE
10
1.778
20
0.674
11
2.469
21
0.304
0
LINE
8
TEMPLATE
10
2.469
20
0.304
11
3.22
21
0.077
0
LINE
8
TEMPLATE
10
3.22
20
0.077
11
4
21
0
0
LINE
8
TEMPLATE
10
4
20
0
11
161
21
0
0
LINE
8
TEMPLATE
10
161
20
0
11
161.78
21
0.077
0
LINE
8
TEMPLATE
10
161.78
20
0.077
11
162.531
21
0.304
0
LINE
8
TEMPLATE
10
162.531
20
0.304
11
163.222
21
0.674
0
LINE
8
TEMPLATE
10
163.222
20
0.674
11
163.828
21
1.172
0
LINE
8
TEMPLATE
10
163.828
20
1.172
11
164.326
21
1.778
0
LINE
8
TEMPLATE
10
164.326
20
1.778
11
164.696
21
2.469
0
LINE
8
TEMPLATE
10
164.696
20
2.469
11
164.923
21
3.22
0
LINE
8
TEMPLATE
10
164.923
20
3.22
11
165
21
4
0
LINE
8
TEMPLATE
10
165
20
4
11
165
21
36
0
LINE
8
TEMPLATE
10
165
20
36
11
164.923
21
36.78
0
LINE
8
TEMPLATE
10
164.923
20
36.78
11
164.696
21
37.531
0
LINE
8
TEMPLATE
10
164.696
20
37.531
11
164.326
21
38.222
0
LINE
8
TEMPLATE
10
164.326
20
38.222
11
163.828
21
38.828
0
LINE
8
TEMPLATE
10
163.828
20
38.828
11
163.222
21
39.326
0
LINE
8
TEMPLATE
10
163.222
20
39.326
11
162.531
21
39.696
0
LINE
8
TEMPLATE
10
162.531
20
39.696
11
161.78
21
39.923
0
LINE
8
TEMPLATE
10
161.78
20
39.923
11
161
21
40
0
LINE
8
TEMPLATE
10
161
20
40
11
4
21
40
0
LINE
8
TEMPLATE
10
4
20
40
11
3.22
21
39.923
0
LINE
8
TEMPLATE
10
3.22
20
39.923
11
2.469
21
39.696
0
LINE
8
TEMPLATE
10
2.469
20
39.696
11
1.778
21
39.326
0
LINE
8
TEMPLATE
10
1.778
20
39.326
11
1.172
21
38.828
0
LINE
8
TEMPLATE
10
1.172
20
38.828
11
0.674
21
38.222
0
LINE
8
TEMPLATE
10
0.674
20
38.222
11
0.304
21
37.531
0
LINE
8
TEMPLATE
10
0.304
20
37.531
11
0.077
21
36.78
0
LINE
8
TEMPLATE
10
0.077
20
36.78
11
0
21
36
0
LINE
8
TEMPLATE
10
0
20
36
11
0
21
4
0
LINE
8
TEMPLATE
10
12
20
20
11
12.106
21
18.927
0
LINE
8
TEMPLATE
10
12.106
20
18.927
11
12.419
21
17.895
0
LINE
8
TEMPLATE
10
12.419
20
17.895
11
12.927
21
16.944
0
LINE
8
TEMPLATE
10
12.927
20
16.944
11
13.611
21
16.111
0
LINE
8
TEMPLATE
10
13.611
20
16.111
11
14.444
21
15.427
0
LINE
8
TEMPLATE
10
14.444
20
15.427
11
15.395
21
14.919
0
LINE
8
TEMPLATE
10
15.395
20
14.919
11
16.427
21
14.606
0
LINE
8
TEMPLATE
10
16.427
20
14.606
11
17.5
21
14.5
0
LINE
8
TEMPLATE
10
17.5
20
14.5
11
22.5
21
14.5
0
LINE
8
TEMPLATE
10
22.5
20
14.5
11
23.573
21
14.606
0
LINE
8
TEMPLATE
10
23.573
20
14.606
11
24.605
21
14.919
0
LINE
8
TEMPLATE
10
24.605
20
14.919
11
25.556
21
15.427
0
LINE
8
TEMPLATE
10
25.556
20
15.427
11
26.389
21
16.111
0
LINE
8
TEMPLATE
10
26.389
20
16.111
11
27.073
21
16.944
0
LINE
8
TEMPLATE
10
27.073
20
16.944
11
27.581
21
17.895
0
LINE
8
TEMPLATE
10
27.581
20
17.895
11
27.894
21
18.927
0
LINE
8
TEMPLATE
10
27.894
20
18.927
11
28
21
20
0
LINE
8
TEMPLATE
10
28
20
20
11
28
21
20
0
LINE
8
TEMPLATE
10
28
20
20
11
27.894
21
21.073
0
LINE
8
TEMPLATE
10
27.894
20
21.073
11
27.581
21
22.105
0
LINE
8
TEMPLATE
10
27.581
20
22.105
11
27.073
21
23.056
0
LINE
8
TEMPLATE
10
27.073
20
23.056
11
26.389
21
23.889
0
LINE
8
TEMPLATE
10
26.389
20
23.889
11
25.556
21
24.573
0
LINE
8
TEMPLATE
10
25.556
20
24.573
11
24.605
21
25.081
0
LINE
8
TEMPLATE
10
24.605
20
25.081
11
23.573
21
25.394
0
LINE
8
TEMPLATE
10
23.573
20
25.394
11
22.5
21
25.5
0
LINE
8
TEMPLATE
10
22.5
20
25.5
11
17.5
21
25.5
0
LINE
8
TEMPLATE
10
17.5
20
25.5
11
16.427
21
25.394
0
LINE
8
TEMPLATE
10
16.427
20
25.394
11
15.395
21
25.081
0
LINE
8
TEMPLATE
10
15.395
20
25.081
11
14.444
21
24.573
0
LINE
8
TEMPLATE
10
14.444
20
24.573
11
13.611
21
23.889
0
LINE
8
TEMPLATE
10
13.611
20
23.889
11
12.927
21
23.056
0
LINE
8
TEMPLATE
10
12.927
20
23.056
11
12.419
21
22.105
0
LINE
8
TEMPLATE
10
12.419
20
22.105
11
12.106
21
21.073
0
LINE
8
TEMPLATE
10
12.106
20
21.073
11
12
21
20
0
LINE
8
TEMPLATE
10
12
20
20
11
12
21
20
0
LINE
8
TEMPLATE
10
137
20
20
11
137.106
21
18.927
0
LINE
8
TEMPLATE
10
137.106
20
18.927
11
137.419
21
17.895
0
LINE
8
TEMPLATE
10
137.419
20
17.895
11
137.927
21
16.944
0
LINE
8
TEMPLATE
10
137.927
20
16.944
11
138.611
21
16.111
0
LINE
8
TEMPLATE
10
138.611
20
16.111
11
139.444
21
15.427
0
LINE
8
TEMPLATE
10
139.444
20
15.427
11
140.395
21
14.919
0
LINE
8
TEMPLATE
10
140.395
20
14.919
11
141.427
21
14.606
0
LINE
8
TEMPLATE
10
141.427
20
14.606
11
142.5
21
14.5
0
LINE
8
TEMPLATE
10
142.5
20
14.5
11
147.5
21
14.5
0
LINE
8
TEMPLATE
10
147.5
20
14.5
11
148.573
21
14.606
0
LINE
8
TEMPLATE
10
148.573
20
14.606
11
149.605
21
14.919
0
LINE
8
TEMPLATE
10
149.605
20
14.919
11
150.556
21
15.427
0
LINE
8
TEMPLATE
10
150.556
20
15.427
11
151.389
21
16.111
0
LINE
8
TEMPLATE
10
151.389
20
16.111
11
152.073
21
16.944
0
LINE
8
TEMPLATE
10
152.073
20
16.944
11
152.581
21
17.895
0
LINE
8
TEMPLATE
10
152.581
20
17.895
11
152.894
21
18.927
0
LINE
8
TEMPLATE
10
152.894
20
18.927
11
153
21
20
0
LINE
8
TEMPLATE
10
153
20
20
11
153
21
20
0
LINE
8
TEMPLATE
10
153
20
20
11
152.894
21
21.073
0
LINE
8
TEMPLATE
10
152.894
20
21.073
11
152.581
21
22.105
0
LINE
8
TEMPLATE
10
152.581
20
22.105
11
152.073
21
23.056
0
LINE
8
TEMPLATE
10
152.073
20
23.056
11
151.389
21
23.889
0
LINE
8
TEMPLATE
10
151.389
20
23.889
11
150.556
21
24.573
0
LINE
8
TEMPLATE
10
150.556
20
24.573
11
149.605
21
25.081
0
LINE
8
TEMPLATE
10
149.605
20
25.081
11
148.573
21
25.394
0
LINE
8
TEMPLATE
10
148.573
20
25.394
11
147.5
21
25.5
0
LINE
8
TEMPLATE
10
147.5
20
25.5
11
142.5
21
25.5
0
LINE
8
TEMPLATE
10
142.5
20
25.5
11
141.427
21
25.394
0
LINE
8
TEMPLATE
10
141.427
20
25.394
11
140.395
21
25.081
0
LINE
8
TEMPLATE
10
140.395
20
25.081
11
139.444
21
24.573
0
LINE
8
TEMPLATE
10
139.444
20
24.573
11
138.611
21
23.889
0
LINE
8
TEMPLATE
10
138.611
20
23.889
11
137.927
21
23.056
0
LINE
8
TEMPLATE
10
137.927
20
23.056
11
137.419
21
22.105
0
LINE
8
TEMPLATE
10
137.419
20
22.105
11
137.106
21
21.073
0
LINE
8
TEMPLATE
10
137.106
20
21.073
11
137
21
20
0
LINE
8
TEMPLATE
10
137
20
20
11
137
21
20
0
LINE
8
CENTER
10
0
20
20
11
165
21
20
0
LINE
8
CENTER
10
20
20
0
11
20
21
40
0
LINE
8
CENTER
10
145
20
0
11
145
21
40
0
ENDSEC
0
EOF
