<svg xmlns="http://www.w3.org/2000/svg" width="920" height="620" viewBox="0 0 920 620" role="img" aria-labelledby="title desc">
  <title id="title">Battery stand power carrier Rev F standard-battery assembled 3D visualisation</title>
  <desc id="desc">Attached assembly view of the compact steel battery stand with a formed saddle over the chassis rail, standard N70/27-class battery envelope on a removable hold-down tray, outboard-access covered Relay Rev C box with left-side power in/out and top control-cable exits, plastic relay underlay ahead of the folded metal tray, MIDI Rev C aligned to the battery datum, a side-mounted cutoff/kill-switch tray beside the MIDI shelf, MIDI seated output comb/backplate with enlarged double-wire pass-through, direct battery feeds to both relay and MIDI, and the inboard engine/LHD side kept clear.</desc>
  <style>
    .background { fill: #f6f7f8; }
    .shadow { fill: #d9dde2; opacity: 0.55; }
    .plate-top { fill: #cfd6dc; stroke: #4f5962; stroke-width: 1.4; }
    .plate-side { fill: #9ca8b2; stroke: #4f5962; stroke-width: 1.2; }
    .plate-front { fill: #b5bec7; stroke: #4f5962; stroke-width: 1.2; }
    .tab-top { fill: #7f8992; stroke: #343b42; stroke-width: 1.2; }
    .tab-side { fill: #515b64; stroke: #343b42; stroke-width: 1.1; }
    .tab-front { fill: #66717a; stroke: #343b42; stroke-width: 1.1; }
    .chassis-top { fill: #3b434a; stroke: #20262b; stroke-width: 1.2; }
    .chassis-side { fill: #252c32; stroke: #20262b; stroke-width: 1.1; }
    .chassis-front { fill: #303840; stroke: #20262b; stroke-width: 1.1; }
    .battery-top { fill: #2f3942; stroke: #111820; stroke-width: 1.4; }
    .battery-side { fill: #1d252c; stroke: #111820; stroke-width: 1.2; }
    .battery-front { fill: #3d4852; stroke: #111820; stroke-width: 1.2; }
    .hold-top { fill: #cfd6dc; stroke: #4f5962; stroke-width: 1.1; }
    .hold-side { fill: #98a4ae; stroke: #4f5962; stroke-width: 0.9; }
    .hold-front { fill: #b5bec7; stroke: #4f5962; stroke-width: 0.9; }
    .relay-tray-top { fill: #aeb8c1; stroke: #4f5962; stroke-width: 1.2; }
    .relay-tray-side { fill: #818d97; stroke: #4f5962; stroke-width: 1; }
    .relay-tray-front { fill: #98a4ae; stroke: #4f5962; stroke-width: 1; }
    .midi-plate-top { fill: #aeb8c1; stroke: #4f5962; stroke-width: 1.2; }
    .midi-plate-side { fill: #818d97; stroke: #4f5962; stroke-width: 1; }
    .midi-plate-front { fill: #98a4ae; stroke: #4f5962; stroke-width: 1; }
    .midi-board-top { fill: #1f2930; stroke: #14191d; stroke-width: 1; }
    .midi-board-side { fill: #161d22; stroke: #14191d; stroke-width: 0.9; }
    .midi-board-front { fill: #2b363e; stroke: #14191d; stroke-width: 0.9; }
    .fuse-top { fill: #b7302a; stroke: #6e1714; stroke-width: 0.8; }
    .fuse-side { fill: #84201b; stroke: #6e1714; stroke-width: 0.7; }
    .fuse-front { fill: #d14a43; stroke: #6e1714; stroke-width: 0.7; }
    .cutoff-base-top { fill: #aeb8c1; stroke: #4f5962; stroke-width: 1.2; }
    .cutoff-base-side { fill: #818d97; stroke: #4f5962; stroke-width: 1; }
    .cutoff-base-front { fill: #98a4ae; stroke: #4f5962; stroke-width: 1; }
    .keepout-top { fill: #d7dde2; stroke: #85909a; stroke-width: 1; stroke-dasharray: 6 4; opacity: 0.24; }
    .keepout-side { fill: #c2cbd2; stroke: #85909a; stroke-width: 1; stroke-dasharray: 6 4; opacity: 0.18; }
    .keepout-front { fill: #eef2f5; stroke: #85909a; stroke-width: 1; stroke-dasharray: 6 4; opacity: 0.14; }
    .breaker-body-top { fill: #111820; stroke: #05080a; stroke-width: 1.2; }
    .breaker-body-side { fill: #080c10; stroke: #05080a; stroke-width: 1; }
    .breaker-body-front { fill: #202a33; stroke: #05080a; stroke-width: 1; }
    .breaker-face-top { fill: #41515f; stroke: #1f2830; stroke-width: 1; }
    .breaker-face-side { fill: #26323d; stroke: #1f2830; stroke-width: 0.9; }
    .breaker-face-front { fill: #33424d; stroke: #1f2830; stroke-width: 0.9; }
    .breaker-lever-top { fill: #d12828; stroke: #871313; stroke-width: 1; }
    .breaker-lever-side { fill: #8f1717; stroke: #871313; stroke-width: 0.9; }
    .breaker-lever-front { fill: #c41d1d; stroke: #871313; stroke-width: 0.9; }
    .breaker-terminal { fill: #c4a35a; stroke: #6f5d2f; stroke-width: 1.1; }
    .positive-cable { fill: none; stroke: #c41d1d; stroke-width: 8; stroke-linejoin: round; stroke-linecap: round; }
    .relay-feed { fill: none; stroke: #a51515; stroke-width: 6; stroke-linejoin: round; stroke-linecap: round; }
    .branch-cable { fill: none; stroke: #242b30; stroke-width: 6; stroke-linejoin: round; stroke-linecap: round; }
    .slot-marker { fill: #eef3f7; stroke: #4f5962; stroke-width: 1.2; }
    .label { font: 600 18px Arial, sans-serif; fill: #24313a; }
  </style>
  <rect class="background" width="920" height="620" /><polygon class="shadow" points="18.2,246.3 497.0,465.7 488.4,496.1 13.2,278.3" /><polygon class="chassis-side" points="511.4,392.5 439.4,425.5 439.4,368.8 511.4,335.8" /><polygon class="chassis-front" points="252.2,339.7 439.4,425.5 439.4,368.8 252.2,283.0" /><polygon class="chassis-top" points="324.2,250.0 511.4,335.8 439.4,368.8 252.2,283.0" /><polygon class="tab-side" points="510.0,326.2 409.2,372.4 409.2,364.0 510.0,317.8" /><polygon class="tab-front" points="250.8,299.8 409.2,372.4 409.2,364.0 250.8,291.4" /><polygon class="tab-top" points="351.6,245.2 510.0,317.8 409.2,364.0 250.8,291.4" /><polygon class="tab-side" points="515.8,371.8 508.6,375.1 508.6,324.7 515.8,321.4" /><polygon class="tab-front" points="350.2,302.5 508.6,375.1 508.6,324.7 350.2,252.1" /><polygon class="tab-top" points="357.4,248.8 515.8,321.4 508.6,324.7 350.2,252.1" /><polygon class="tab-side" points="416.4,417.4 409.2,420.7 409.2,370.3 416.4,367.0" /><polygon class="tab-front" points="250.8,348.1 409.2,420.7 409.2,370.3 250.8,297.7" /><polygon class="tab-top" points="258.0,294.4 416.4,367.0 409.2,370.3 250.8,297.7" /><polygon class="tab-side" points="438.0,305.9 387.6,329.0 387.6,232.4 438.0,209.3" /><polygon class="tab-front" points="328.6,301.9 387.6,329.0 387.6,232.4 328.6,205.3" /><polygon class="tab-top" points="379.0,182.2 438.0,209.3 387.6,232.4 328.6,205.3" /><polygon class="tab-side" points="373.2,276.4 298.3,310.8 298.3,193.2 373.2,158.8" /><polygon class="tab-front" points="281.0,302.8 298.3,310.8 298.3,193.2 281.0,185.2" /><polygon class="tab-top" points="355.9,150.9 373.2,158.8 298.3,193.2 281.0,185.2" /><polygon class="tab-side" points="471.1,321.3 396.2,355.6 396.2,238.0 471.1,203.7" /><polygon class="tab-front" points="379.0,347.7 396.2,355.6 396.2,238.0 379.0,230.1" /><polygon class="tab-top" points="453.8,195.8 471.1,203.7 396.2,238.0 379.0,230.1" /><polygon class="plate-side" points="583.4,196.8 392.6,284.2 392.6,273.7 583.4,186.3" /><polygon class="plate-front" points="147.8,172.0 392.6,284.2 392.6,273.7 147.8,161.5" /><polygon class="plate-top" points="338.6,74.1 583.4,186.3 392.6,273.7 147.8,161.5" /><polygon class="battery-side" points="548.9,194.2 419.3,253.6 419.3,12.1 548.9,-47.3" /><polygon class="battery-front" points="190.3,148.6 419.3,253.6 419.3,12.1 190.3,-92.9" /><polygon class="battery-top" points="319.9,-152.3 548.9,-47.3 419.3,12.1 190.3,-92.9" /><polygon class="hold-side" points="564.7,-53.0 551.8,-47.0 551.8,-55.4 564.7,-61.4" /><polygon class="hold-front" points="307.0,-159.2 551.8,-47.0 551.8,-55.4 307.0,-167.6" /><polygon class="hold-top" points="319.9,-173.6 564.7,-61.4 551.8,-55.4 307.0,-167.6" /><polygon class="hold-side" points="435.1,6.4 422.2,12.4 422.2,4.0 435.1,-2.0" /><polygon class="hold-front" points="177.4,-99.8 422.2,12.4 422.2,4.0 177.4,-108.2" /><polygon class="hold-top" points="190.3,-114.2 435.1,-2.0 422.2,4.0 177.4,-108.2" /><polygon class="plate-side" points="704.4,208.7 697.2,212.0 697.2,-113.5 704.4,-116.8" /><polygon class="plate-front" points="222.0,-5.8 697.2,212.0 697.2,-113.5 222.0,-331.3" /><polygon class="plate-top" points="229.2,-334.6 704.4,-116.8 697.2,-113.5 222.0,-331.3" /><polygon class="relay-tray-side" points="353.0,11.2 347.3,13.9 347.3,-217.1 353.0,-219.8" /><polygon class="relay-tray-front" points="116.9,-91.7 347.3,13.9 347.3,-217.1 116.9,-322.7" /><polygon class="relay-tray-top" points="122.6,-325.4 353.0,-219.8 347.3,-217.1 116.9,-322.7" /><polygon class="relay-tray-side" points="135.6,-97.7 115.4,-88.4 115.4,-319.4 135.6,-328.7" /><polygon class="relay-tray-front" points="109.7,-91.1 115.4,-88.4 115.4,-319.4 109.7,-322.1" /><polygon class="relay-tray-top" points="129.8,-331.3 135.6,-328.7 115.4,-319.4 109.7,-322.1" /><polygon class="relay-tray-side" points="366.0,7.9 345.8,17.2 345.8,-213.8 366.0,-223.1" /><polygon class="relay-tray-front" points="340.1,14.5 345.8,17.2 345.8,-213.8 340.1,-216.5" /><polygon class="relay-tray-top" points="360.2,-225.7 366.0,-223.1 345.8,-213.8 340.1,-216.5" /><polygon class="relay-tray-side" points="363.1,15.0 343.0,24.3 343.0,15.9 363.1,6.6" /><polygon class="relay-tray-front" points="112.6,-81.3 343.0,24.3 343.0,15.9 112.6,-89.7" /><polygon class="relay-tray-top" points="132.7,-99.0 363.1,6.6 343.0,15.9 112.6,-89.7" /><polygon class="relay-tray-side" points="363.1,-224.4 343.0,-215.1 343.0,-223.5 363.1,-232.8" /><polygon class="relay-tray-front" points="112.6,-320.7 343.0,-215.1 343.0,-223.5 112.6,-329.1" /><polygon class="relay-tray-top" points="132.7,-338.4 363.1,-232.8 343.0,-223.5 112.6,-329.1" /><polygon class="midi-board-side" points="340.1,-13.9 335.8,-11.9 335.8,-206.1 340.1,-208.1" /><polygon class="midi-board-front" points="134.2,-104.3 335.8,-11.9 335.8,-206.1 134.2,-298.5" /><polygon class="midi-board-top" points="138.5,-300.5 340.1,-208.1 335.8,-206.1 134.2,-298.5" /><polygon class="relay-fuse-side" points="327.1,-46.0 299.8,-33.5 299.8,-164.7 327.1,-177.3" /><polygon class="relay-fuse-front" points="112.6,-119.3 299.8,-33.5 299.8,-164.7 112.6,-250.5" /><polygon class="relay-fuse-top" points="139.9,-263.1 327.1,-177.3 299.8,-164.7 112.6,-250.5" /><polygon class="midi-plate-side" points="520.1,-97.6 412.1,-48.1 412.1,-56.5 520.1,-106.0" /><polygon class="midi-plate-front" points="275.3,-110.8 412.1,-48.1 412.1,-56.5 275.3,-119.2" /><polygon class="midi-plate-top" points="383.3,-168.7 520.1,-106.0 412.1,-56.5 275.3,-119.2" /><polygon class="midi-board-side" points="483.4,-112.0 422.2,-83.9 422.2,-94.4 483.4,-122.5" /><polygon class="midi-board-front" points="321.4,-130.1 422.2,-83.9 422.2,-94.4 321.4,-140.6" /><polygon class="midi-board-top" points="382.6,-168.7 483.4,-122.5 422.2,-94.4 321.4,-140.6" /><polygon class="fuse-side" points="383.3,-157.5 344.4,-139.7 344.4,-156.5 383.3,-174.3" /><polygon class="fuse-front" points="331.4,-145.6 344.4,-139.7 344.4,-156.5 331.4,-162.4" /><polygon class="fuse-top" points="370.3,-180.2 383.3,-174.3 344.4,-156.5 331.4,-162.4" /><polygon class="fuse-side" points="400.6,-149.6 361.7,-131.7 361.7,-148.5 400.6,-166.4" /><polygon class="fuse-front" points="348.7,-137.7 361.7,-131.7 361.7,-148.5 348.7,-154.5" /><polygon class="fuse-top" points="387.6,-172.3 400.6,-166.4 361.7,-148.5 348.7,-154.5" /><polygon class="fuse-side" points="417.8,-141.6 379.0,-123.8 379.0,-140.6 417.8,-158.4" /><polygon class="fuse-front" points="366.0,-129.8 379.0,-123.8 379.0,-140.6 366.0,-146.6" /><polygon class="fuse-top" points="404.9,-164.4 417.8,-158.4 379.0,-140.6 366.0,-146.6" /><polygon class="fuse-side" points="435.1,-133.7 396.2,-115.9 396.2,-132.7 435.1,-150.5" /><polygon class="fuse-front" points="383.3,-121.8 396.2,-115.9 396.2,-132.7 383.3,-138.6" /><polygon class="fuse-top" points="422.2,-156.5 435.1,-150.5 396.2,-132.7 383.3,-138.6" /><polygon class="fuse-side" points="452.4,-125.8 413.5,-108.0 413.5,-124.8 452.4,-142.6" /><polygon class="fuse-front" points="400.6,-113.9 413.5,-108.0 413.5,-124.8 400.6,-130.7" /><polygon class="fuse-top" points="439.4,-148.5 452.4,-142.6 413.5,-124.8 400.6,-130.7" /><polygon class="breaker-terminal" points="476.2,-156.5 467.5,-152.5 467.5,-160.9 476.2,-164.9" /><polygon class="breaker-terminal" points="372.5,-196.1 467.5,-152.5 467.5,-160.9 372.5,-204.5" /><polygon class="breaker-terminal" points="381.1,-208.5 476.2,-164.9 467.5,-160.9 372.5,-204.5" /><polygon class="breaker-lever-side" points="433.7,-119.2 423.6,-114.6 423.6,-125.1 433.7,-129.7" /><polygon class="breaker-lever-front" points="315.6,-164.1 423.6,-114.6 423.6,-125.1 315.6,-174.6" /><polygon class="breaker-lever-top" points="325.7,-179.2 433.7,-129.7 423.6,-125.1 315.6,-174.6" /><polygon class="cutoff-base-side" points="615.1,-54.0 492.7,2.1 492.7,-6.3 615.1,-62.4" /><polygon class="cutoff-base-front" points="413.5,-34.2 492.7,2.1 492.7,-6.3 413.5,-42.6" /><polygon class="cutoff-base-top" points="535.9,-98.7 615.1,-62.4 492.7,-6.3 413.5,-42.6" /><polygon class="cutoff-base-side" points="538.8,-97.4 416.4,-41.3 416.4,-64.4 538.8,-120.5" /><polygon class="cutoff-base-front" points="410.6,-44.0 416.4,-41.3 416.4,-64.4 410.6,-67.1" /><polygon class="cutoff-base-top" points="533.0,-123.2 538.8,-120.5 416.4,-64.4 410.6,-67.1" /><polygon class="cutoff-base-side" points="620.9,-59.8 498.5,-3.7 498.5,-26.8 620.9,-82.9" /><polygon class="cutoff-base-front" points="492.7,-6.3 498.5,-3.7 498.5,-26.8 492.7,-29.4" /><polygon class="cutoff-base-top" points="615.1,-85.5 620.9,-82.9 498.5,-26.8 492.7,-29.4" /><polygon class="cutoff-base-side" points="618.0,-63.8 612.2,-61.1 612.2,-84.2 618.0,-86.9" /><polygon class="cutoff-base-front" points="533.0,-97.4 612.2,-61.1 612.2,-84.2 533.0,-120.5" /><polygon class="cutoff-base-top" points="538.8,-123.2 618.0,-86.9 612.2,-84.2 533.0,-120.5" /><polygon class="cutoff-base-side" points="492.7,-6.3 487.0,-3.7 487.0,-26.8 492.7,-29.4" /><polygon class="cutoff-base-front" points="407.8,-40.0 487.0,-3.7 487.0,-26.8 407.8,-63.1" /><polygon class="cutoff-base-top" points="413.5,-65.7 492.7,-29.4 487.0,-26.8 407.8,-63.1" /><polygon class="keepout-side" points="593.5,196.4 427.9,272.3 427.9,36.1 593.5,-39.9" /><polygon class="keepout-front" points="415.0,266.4 427.9,272.3 427.9,36.1 415.0,30.1" /><polygon class="keepout-top" points="580.6,-45.8 593.5,-39.9 427.9,36.1 415.0,30.1" /><polygon class="breaker-body-side" points="564.7,-63.3 524.4,-44.8 524.4,-74.2 564.7,-92.7" /><polygon class="breaker-body-front" points="465.4,-71.9 524.4,-44.8 524.4,-74.2 465.4,-101.3" /><polygon class="breaker-body-top" points="505.7,-119.7 564.7,-92.7 524.4,-74.2 465.4,-101.3" /><polygon class="breaker-face-side" points="556.8,-92.4 525.1,-77.8 525.1,-84.1 556.8,-98.7" /><polygon class="breaker-face-front" points="473.3,-101.6 525.1,-77.8 525.1,-84.1 473.3,-107.9" /><polygon class="breaker-face-top" points="505.0,-122.4 556.8,-98.7 525.1,-84.1 473.3,-107.9" /><polygon class="breaker-lever-side" points="530.9,-102.1 523.7,-98.8 523.7,-105.1 530.9,-108.4" /><polygon class="breaker-lever-front" points="490.6,-113.9 523.7,-98.8 523.7,-105.1 490.6,-120.2" /><polygon class="breaker-lever-top" points="497.8,-123.6 530.9,-108.4 523.7,-105.1 490.6,-120.2" /><circle class="breaker-terminal" cx="507.1" cy="-119.6" r="5" /><circle class="breaker-terminal" cx="528.7" cy="-93.8" r="5" /><polyline class="positive-cable" points="450.2,-57.6 416.4,-125.4 386.2,-175.1" /><polyline class="relay-feed" points="450.2,-57.6 335.8,-167.4 196.1,-231.2" /><polyline class="branch-cable" points="196.1,-231.2 174.5,-154.1 147.1,-112.8" /><polygon class="keepout-side" points="664.1,-60.9 639.6,-49.7 639.6,-60.2 664.1,-71.4" /><polygon class="keepout-front" points="344.4,-185.0 639.6,-49.7 639.6,-60.2 344.4,-195.5" /><polygon class="keepout-top" points="368.9,-206.7 664.1,-71.4 639.6,-60.2 344.4,-195.5" /><circle class="slot-marker" cx="371.8" cy="284.6" r="4" /><circle class="slot-marker" cx="492.7" cy="340.0" r="4" /><circle class="slot-marker" cx="271.0" cy="330.8" r="4" /><circle class="slot-marker" cx="391.9" cy="386.2" r="4" /><text class="label" x="82" y="84">Attached compact battery stand assembly</text><text class="label" x="192" y="214">Standard battery bolted on compact tray</text><text class="label" x="132" y="508">Formed chassis saddle</text><text class="label" x="158" y="364">Single upright bridge</text><text class="label" x="500" y="252">Outboard relay cover service ladder</text><text class="label" x="390" y="340">MIDI datum with side kill switch</text><text class="label" x="548" y="430">Engine/LHD side kept clear</text>
</svg>
