<svg xmlns="http://www.w3.org/2000/svg" width="920" height="620" viewBox="0 0 920 620" role="img" aria-labelledby="title desc">
  <title id="title">Battery stand power carrier Rev F standard-battery assembled 3D visualisation</title>
  <desc id="desc">Attached assembly view of the compact steel battery stand with a formed saddle over the more central chassis rail, standard N70/27-class battery envelope with central terminals on a removable hold-down tray shifted about 190 mm wing-side/outboard from the chassis pickup into the edge cavity, tightened relay-to-battery service gap of about 80 mm, outboard-access covered Relay Rev C box rotated so the top carries the heavy output cluster and the end-side input loom can split toward the cabin, plastic relay underlay ahead of the folded metal tray, MIDI Rev C aligned to the battery datum with the power input on the second-from-last MIDI holder, a side-mounted cutoff/kill-switch tray with the battery feed on the far-side stud, cutoff-switched feeds to both relay and MIDI, and the inboard engine/LHD side kept clear.</desc>
  <style>
    .background { fill: #f6f7f8; }
    .shadow { fill: #d9dde2; opacity: 0.55; }
    .plate-top { fill: #cfd6dc; stroke: #4f5962; stroke-width: 1.4; }
    .plate-side { fill: #9ca8b2; stroke: #4f5962; stroke-width: 1.2; }
    .plate-front { fill: #b5bec7; stroke: #4f5962; stroke-width: 1.2; }
    .tab-top { fill: #7f8992; stroke: #343b42; stroke-width: 1.2; }
    .tab-side { fill: #515b64; stroke: #343b42; stroke-width: 1.1; }
    .tab-front { fill: #66717a; stroke: #343b42; stroke-width: 1.1; }
    .chassis-top { fill: #3b434a; stroke: #20262b; stroke-width: 1.2; }
    .chassis-side { fill: #252c32; stroke: #20262b; stroke-width: 1.1; }
    .chassis-front { fill: #303840; stroke: #20262b; stroke-width: 1.1; }
    .battery-top { fill: #2f3942; stroke: #111820; stroke-width: 1.4; }
    .battery-side { fill: #1d252c; stroke: #111820; stroke-width: 1.2; }
    .battery-front { fill: #3d4852; stroke: #111820; stroke-width: 1.2; }
    .hold-top { fill: #cfd6dc; stroke: #4f5962; stroke-width: 1.1; }
    .hold-side { fill: #98a4ae; stroke: #4f5962; stroke-width: 0.9; }
    .hold-front { fill: #b5bec7; stroke: #4f5962; stroke-width: 0.9; }
    .relay-tray-top { fill: #aeb8c1; stroke: #4f5962; stroke-width: 1.2; }
    .relay-tray-side { fill: #818d97; stroke: #4f5962; stroke-width: 1; }
    .relay-tray-front { fill: #98a4ae; stroke: #4f5962; stroke-width: 1; }
    .midi-plate-top { fill: #aeb8c1; stroke: #4f5962; stroke-width: 1.2; }
    .midi-plate-side { fill: #818d97; stroke: #4f5962; stroke-width: 1; }
    .midi-plate-front { fill: #98a4ae; stroke: #4f5962; stroke-width: 1; }
    .midi-board-top { fill: #1f2930; stroke: #14191d; stroke-width: 1; }
    .midi-board-side { fill: #161d22; stroke: #14191d; stroke-width: 0.9; }
    .midi-board-front { fill: #2b363e; stroke: #14191d; stroke-width: 0.9; }
    .fuse-top { fill: #b7302a; stroke: #6e1714; stroke-width: 0.8; }
    .fuse-side { fill: #84201b; stroke: #6e1714; stroke-width: 0.7; }
    .fuse-front { fill: #d14a43; stroke: #6e1714; stroke-width: 0.7; }
    .cutoff-base-top { fill: #aeb8c1; stroke: #4f5962; stroke-width: 1.2; }
    .cutoff-base-side { fill: #818d97; stroke: #4f5962; stroke-width: 1; }
    .cutoff-base-front { fill: #98a4ae; stroke: #4f5962; stroke-width: 1; }
    .keepout-top { fill: #d7dde2; stroke: #85909a; stroke-width: 1; stroke-dasharray: 6 4; opacity: 0.24; }
    .keepout-side { fill: #c2cbd2; stroke: #85909a; stroke-width: 1; stroke-dasharray: 6 4; opacity: 0.18; }
    .keepout-front { fill: #eef2f5; stroke: #85909a; stroke-width: 1; stroke-dasharray: 6 4; opacity: 0.14; }
    .breaker-body-top { fill: #111820; stroke: #05080a; stroke-width: 1.2; }
    .breaker-body-side { fill: #080c10; stroke: #05080a; stroke-width: 1; }
    .breaker-body-front { fill: #202a33; stroke: #05080a; stroke-width: 1; }
    .breaker-face-top { fill: #41515f; stroke: #1f2830; stroke-width: 1; }
    .breaker-face-side { fill: #26323d; stroke: #1f2830; stroke-width: 0.9; }
    .breaker-face-front { fill: #33424d; stroke: #1f2830; stroke-width: 0.9; }
    .breaker-lever-top { fill: #d12828; stroke: #871313; stroke-width: 1; }
    .breaker-lever-side { fill: #8f1717; stroke: #871313; stroke-width: 0.9; }
    .breaker-lever-front { fill: #c41d1d; stroke: #871313; stroke-width: 0.9; }
    .breaker-terminal { fill: #c4a35a; stroke: #6f5d2f; stroke-width: 1.1; }
    .positive-cable { fill: none; stroke: #c41d1d; stroke-width: 8; stroke-linejoin: round; stroke-linecap: round; }
    .relay-feed { fill: none; stroke: #a51515; stroke-width: 6; stroke-linejoin: round; stroke-linecap: round; }
    .branch-cable { fill: none; stroke: #242b30; stroke-width: 6; stroke-linejoin: round; stroke-linecap: round; }
    .slot-marker { fill: #eef3f7; stroke: #4f5962; stroke-width: 1.2; }
    .label { font: 600 18px Arial, sans-serif; fill: #24313a; }
  </style>
  <rect class="background" width="920" height="620" /><polygon class="shadow" points="18.2,246.3 497.0,465.7 488.4,496.1 13.2,278.3" /><polygon class="chassis-side" points="511.4,392.5 439.4,425.5 439.4,368.8 511.4,335.8" /><polygon class="chassis-front" points="252.2,339.7 439.4,425.5 439.4,368.8 252.2,283.0" /><polygon class="chassis-top" points="324.2,250.0 511.4,335.8 439.4,368.8 252.2,283.0" /><polygon class="tab-side" points="510.0,326.2 409.2,372.4 409.2,364.0 510.0,317.8" /><polygon class="tab-front" points="250.8,299.8 409.2,372.4 409.2,364.0 250.8,291.4" /><polygon class="tab-top" points="351.6,245.2 510.0,317.8 409.2,364.0 250.8,291.4" /><polygon class="tab-side" points="515.8,371.8 508.6,375.1 508.6,324.7 515.8,321.4" /><polygon class="tab-front" points="350.2,302.5 508.6,375.1 508.6,324.7 350.2,252.1" /><polygon class="tab-top" points="357.4,248.8 515.8,321.4 508.6,324.7 350.2,252.1" /><polygon class="tab-side" points="416.4,417.4 409.2,420.7 409.2,370.3 416.4,367.0" /><polygon class="tab-front" points="250.8,348.1 409.2,420.7 409.2,370.3 250.8,297.7" /><polygon class="tab-top" points="258.0,294.4 416.4,367.0 409.2,370.3 250.8,297.7" /><polygon class="tab-side" points="438.0,305.9 387.6,329.0 387.6,232.4 438.0,209.3" /><polygon class="tab-front" points="328.6,301.9 387.6,329.0 387.6,232.4 328.6,205.3" /><polygon class="tab-top" points="379.0,182.2 438.0,209.3 387.6,232.4 328.6,205.3" /><polygon class="tab-side" points="373.2,276.4 298.3,310.8 298.3,193.2 373.2,158.8" /><polygon class="tab-front" points="281.0,302.8 298.3,310.8 298.3,193.2 281.0,185.2" /><polygon class="tab-top" points="355.9,150.9 373.2,158.8 298.3,193.2 281.0,185.2" /><polygon class="tab-side" points="471.1,321.3 396.2,355.6 396.2,238.0 471.1,203.7" /><polygon class="tab-front" points="379.0,347.7 396.2,355.6 396.2,238.0 379.0,230.1" /><polygon class="tab-top" points="453.8,195.8 471.1,203.7 396.2,238.0 379.0,230.1" /><polygon class="plate-side" points="525.8,170.4 335.0,257.8 335.0,247.3 525.8,159.9" /><polygon class="plate-front" points="90.2,145.6 335.0,257.8 335.0,247.3 90.2,135.1" /><polygon class="plate-top" points="281.0,47.7 525.8,159.9 335.0,247.3 90.2,135.1" /><polygon class="battery-side" points="491.3,167.8 361.7,227.2 361.7,-14.3 491.3,-73.7" /><polygon class="battery-front" points="132.7,122.2 361.7,227.2 361.7,-14.3 132.7,-119.3" /><polygon class="battery-top" points="262.3,-178.7 491.3,-73.7 361.7,-14.3 132.7,-119.3" /><polygon class="hold-side" points="507.1,-79.4 494.2,-73.4 494.2,-81.8 507.1,-87.8" /><polygon class="hold-front" points="249.4,-185.6 494.2,-73.4 494.2,-81.8 249.4,-194.0" /><polygon class="hold-top" points="262.3,-200.0 507.1,-87.8 494.2,-81.8 249.4,-194.0" /><polygon class="hold-side" points="377.5,-20.0 364.6,-14.0 364.6,-22.4 377.5,-28.4" /><polygon class="hold-front" points="119.8,-126.2 364.6,-14.0 364.6,-22.4 119.8,-134.6" /><polygon class="hold-top" points="132.7,-140.6 377.5,-28.4 364.6,-22.4 119.8,-134.6" /><polygon class="plate-side" points="646.8,182.3 639.6,185.6 639.6,-139.9 646.8,-143.2" /><polygon class="plate-front" points="164.4,-32.2 639.6,185.6 639.6,-139.9 164.4,-357.7" /><polygon class="plate-top" points="171.6,-361.0 646.8,-143.2 639.6,-139.9 164.4,-357.7" /><polygon class="relay-tray-side" points="317.0,-5.3 311.3,-2.6 311.3,-233.6 317.0,-236.3" /><polygon class="relay-tray-front" points="80.9,-108.2 311.3,-2.6 311.3,-233.6 80.9,-339.2" /><polygon class="relay-tray-top" points="86.6,-341.9 317.0,-236.3 311.3,-233.6 80.9,-339.2" /><polygon class="relay-tray-side" points="99.6,-114.2 79.4,-104.9 79.4,-335.9 99.6,-345.2" /><polygon class="relay-tray-front" points="73.7,-107.6 79.4,-104.9 79.4,-335.9 73.7,-338.6" /><polygon class="relay-tray-top" points="93.8,-347.8 99.6,-345.2 79.4,-335.9 73.7,-338.6" /><polygon class="relay-tray-side" points="330.0,-8.6 309.8,0.7 309.8,-230.3 330.0,-239.6" /><polygon class="relay-tray-front" points="304.1,-2.0 309.8,0.7 309.8,-230.3 304.1,-233.0" /><polygon class="relay-tray-top" points="324.2,-242.2 330.0,-239.6 309.8,-230.3 304.1,-233.0" /><polygon class="relay-tray-side" points="327.1,-1.5 307.0,7.8 307.0,-0.6 327.1,-9.9" /><polygon class="relay-tray-front" points="76.6,-97.8 307.0,7.8 307.0,-0.6 76.6,-106.2" /><polygon class="relay-tray-top" points="96.7,-115.5 327.1,-9.9 307.0,-0.6 76.6,-106.2" /><polygon class="relay-tray-side" points="327.1,-240.9 307.0,-231.6 307.0,-240.0 327.1,-249.3" /><polygon class="relay-tray-front" points="76.6,-337.2 307.0,-231.6 307.0,-240.0 76.6,-345.6" /><polygon class="relay-tray-top" points="96.7,-354.9 327.1,-249.3 307.0,-240.0 76.6,-345.6" /><polygon class="midi-board-side" points="304.1,-30.4 299.8,-28.4 299.8,-222.6 304.1,-224.6" /><polygon class="midi-board-front" points="98.2,-120.8 299.8,-28.4 299.8,-222.6 98.2,-315.0" /><polygon class="midi-board-top" points="102.5,-317.0 304.1,-224.6 299.8,-222.6 98.2,-315.0" /><polygon class="relay-fuse-side" points="291.1,-62.5 263.8,-50.0 263.8,-181.2 291.1,-193.8" /><polygon class="relay-fuse-front" points="76.6,-135.8 263.8,-50.0 263.8,-181.2 76.6,-267.0" /><polygon class="relay-fuse-top" points="103.9,-279.6 291.1,-193.8 263.8,-181.2 76.6,-267.0" /><polygon class="midi-plate-side" points="462.5,-124.0 354.5,-74.5 354.5,-82.9 462.5,-132.4" /><polygon class="midi-plate-front" points="217.7,-137.2 354.5,-74.5 354.5,-82.9 217.7,-145.6" /><polygon class="midi-plate-top" points="325.7,-195.1 462.5,-132.4 354.5,-82.9 217.7,-145.6" /><polygon class="midi-board-side" points="425.8,-138.4 364.6,-110.3 364.6,-120.8 425.8,-148.9" /><polygon class="midi-board-front" points="263.8,-156.5 364.6,-110.3 364.6,-120.8 263.8,-167.0" /><polygon class="midi-board-top" points="325.0,-195.1 425.8,-148.9 364.6,-120.8 263.8,-167.0" /><polygon class="fuse-side" points="325.7,-183.9 286.8,-166.1 286.8,-182.9 325.7,-200.7" /><polygon class="fuse-front" points="273.8,-172.0 286.8,-166.1 286.8,-182.9 273.8,-188.8" /><polygon class="fuse-top" points="312.7,-206.6 325.7,-200.7 286.8,-182.9 273.8,-188.8" /><polygon class="fuse-side" points="343.0,-176.0 304.1,-158.1 304.1,-174.9 343.0,-192.8" /><polygon class="fuse-front" points="291.1,-164.1 304.1,-158.1 304.1,-174.9 291.1,-180.9" /><polygon class="fuse-top" points="330.0,-198.7 343.0,-192.8 304.1,-174.9 291.1,-180.9" /><polygon class="fuse-side" points="360.2,-168.0 321.4,-150.2 321.4,-167.0 360.2,-184.8" /><polygon class="fuse-front" points="308.4,-156.2 321.4,-150.2 321.4,-167.0 308.4,-173.0" /><polygon class="fuse-top" points="347.3,-190.8 360.2,-184.8 321.4,-167.0 308.4,-173.0" /><polygon class="fuse-side" points="377.5,-160.1 338.6,-142.3 338.6,-159.1 377.5,-176.9" /><polygon class="fuse-front" points="325.7,-148.2 338.6,-142.3 338.6,-159.1 325.7,-165.0" /><polygon class="fuse-top" points="364.6,-182.9 377.5,-176.9 338.6,-159.1 325.7,-165.0" /><polygon class="fuse-side" points="394.8,-152.2 355.9,-134.4 355.9,-151.2 394.8,-169.0" /><polygon class="fuse-front" points="343.0,-140.3 355.9,-134.4 355.9,-151.2 343.0,-157.1" /><polygon class="fuse-top" points="381.8,-174.9 394.8,-169.0 355.9,-151.2 343.0,-157.1" /><polygon class="breaker-terminal" points="413.5,-185.2 404.9,-181.2 404.9,-189.6 413.5,-193.6" /><polygon class="breaker-terminal" points="376.1,-194.4 404.9,-181.2 404.9,-189.6 376.1,-202.8" /><polygon class="breaker-terminal" points="384.7,-206.8 413.5,-193.6 404.9,-189.6 376.1,-202.8" /><polygon class="breaker-lever-side" points="376.1,-145.6 366.0,-141.0 366.0,-151.5 376.1,-156.1" /><polygon class="breaker-lever-front" points="258.0,-190.5 366.0,-141.0 366.0,-151.5 258.0,-201.0" /><polygon class="breaker-lever-top" points="268.1,-205.6 376.1,-156.1 366.0,-151.5 258.0,-201.0" /><polygon class="cutoff-base-side" points="557.5,-80.4 435.1,-24.3 435.1,-32.7 557.5,-88.8" /><polygon class="cutoff-base-front" points="355.9,-60.6 435.1,-24.3 435.1,-32.7 355.9,-69.0" /><polygon class="cutoff-base-top" points="478.3,-125.1 557.5,-88.8 435.1,-32.7 355.9,-69.0" /><polygon class="cutoff-base-side" points="481.2,-123.8 358.8,-67.7 358.8,-90.8 481.2,-146.9" /><polygon class="cutoff-base-front" points="353.0,-70.4 358.8,-67.7 358.8,-90.8 353.0,-93.5" /><polygon class="cutoff-base-top" points="475.4,-149.6 481.2,-146.9 358.8,-90.8 353.0,-93.5" /><polygon class="cutoff-base-side" points="563.3,-86.2 440.9,-30.1 440.9,-53.2 563.3,-109.3" /><polygon class="cutoff-base-front" points="435.1,-32.7 440.9,-30.1 440.9,-53.2 435.1,-55.8" /><polygon class="cutoff-base-top" points="557.5,-111.9 563.3,-109.3 440.9,-53.2 435.1,-55.8" /><polygon class="cutoff-base-side" points="560.4,-90.2 554.6,-87.5 554.6,-110.6 560.4,-113.3" /><polygon class="cutoff-base-front" points="475.4,-123.8 554.6,-87.5 554.6,-110.6 475.4,-146.9" /><polygon class="cutoff-base-top" points="481.2,-149.6 560.4,-113.3 554.6,-110.6 475.4,-146.9" /><polygon class="cutoff-base-side" points="435.1,-32.7 429.4,-30.1 429.4,-53.2 435.1,-55.8" /><polygon class="cutoff-base-front" points="350.2,-66.4 429.4,-30.1 429.4,-53.2 350.2,-89.5" /><polygon class="cutoff-base-top" points="355.9,-92.1 435.1,-55.8 429.4,-53.2 350.2,-89.5" /><polygon class="keepout-side" points="593.5,196.4 427.9,272.3 427.9,36.1 593.5,-39.9" /><polygon class="keepout-front" points="415.0,266.4 427.9,272.3 427.9,36.1 415.0,30.1" /><polygon class="keepout-top" points="580.6,-45.8 593.5,-39.9 427.9,36.1 415.0,30.1" /><polygon class="breaker-body-side" points="507.1,-89.7 466.8,-71.2 466.8,-100.6 507.1,-119.1" /><polygon class="breaker-body-front" points="407.8,-98.3 466.8,-71.2 466.8,-100.6 407.8,-127.7" /><polygon class="breaker-body-top" points="448.1,-146.1 507.1,-119.1 466.8,-100.6 407.8,-127.7" /><polygon class="breaker-face-side" points="499.2,-118.8 467.5,-104.2 467.5,-110.5 499.2,-125.1" /><polygon class="breaker-face-front" points="415.7,-128.0 467.5,-104.2 467.5,-110.5 415.7,-134.3" /><polygon class="breaker-face-top" points="447.4,-148.8 499.2,-125.1 467.5,-110.5 415.7,-134.3" /><polygon class="breaker-lever-side" points="473.3,-128.5 466.1,-125.2 466.1,-131.5 473.3,-134.8" /><polygon class="breaker-lever-front" points="433.0,-140.3 466.1,-125.2 466.1,-131.5 433.0,-146.7" /><polygon class="breaker-lever-top" points="440.2,-149.9 473.3,-134.8 466.1,-131.5 433.0,-146.7" /><circle class="breaker-terminal" cx="449.5" cy="-146.0" r="5" /><circle class="breaker-terminal" cx="471.1" cy="-120.2" r="5" /><polyline class="positive-cable" points="392.6,-117.6 456.7,-135.9 471.1,-120.2" /><polyline class="relay-feed" points="449.5,-146.0 389.0,-138.0 376.1,-179.7" /><polyline class="relay-feed" points="449.5,-146.0 307.0,-180.6 160.1,-247.7" /><polyline class="branch-cable" points="376.1,-179.7 321.4,-201.9 160.1,-247.7" /><polyline class="branch-cable" points="160.1,-247.7 138.5,-170.6 111.1,-129.3" /><polygon class="keepout-side" points="606.5,-87.3 582.0,-76.1 582.0,-86.6 606.5,-97.8" /><polygon class="keepout-front" points="286.8,-211.4 582.0,-76.1 582.0,-86.6 286.8,-221.9" /><polygon class="keepout-top" points="311.3,-233.1 606.5,-97.8 582.0,-86.6 286.8,-221.9" /><circle class="slot-marker" cx="371.8" cy="284.6" r="4" /><circle class="slot-marker" cx="492.7" cy="340.0" r="4" /><circle class="slot-marker" cx="271.0" cy="330.8" r="4" /><circle class="slot-marker" cx="391.9" cy="386.2" r="4" /><text class="label" x="82" y="84">Attached compact battery stand assembly</text><text class="label" x="168" y="214">Standard battery with central terminals</text><text class="label" x="132" y="508">Formed chassis saddle</text><text class="label" x="158" y="364">Single upright bridge</text><text class="label" x="500" y="252">Tightened relay cover service ladder</text><text class="label" x="350" y="340">MIDI fuse 4 input with side kill switch</text><text class="label" x="548" y="430">Engine/LHD side kept clear</text>
</svg>
