0
SECTION
2
HEADER
9
$INSUNITS
70
4
0
ENDSEC
0
SECTION
2
ENTITIES
0
LINE
8
CUT
10
0
20
0
11
325
21
0
0
LINE
8
CUT
10
325
20
0
11
325
21
120
0
LINE
8
CUT
10
325
20
120
11
0
21
120
0
LINE
8
CUT
10
0
20
120
11
0
21
0
0
LINE
8
CUT
10
18
20
30
11
18.15
21
28.44
0
LINE
8
CUT
10
18.15
20
28.44
11
18.61
21
26.94
0
LINE
8
CUT
10
18.61
20
26.94
11
19.35
21
25.56
0
LINE
8
CUT
10
19.35
20
25.56
11
20.34
21
24.34
0
LINE
8
CUT
10
20.34
20
24.34
11
21.56
21
23.35
0
LINE
8
CUT
10
21.56
20
23.35
11
22.94
21
22.61
0
LINE
8
CUT
10
22.94
20
22.61
11
24.44
21
22.15
0
LINE
8
CUT
10
24.44
20
22.15
11
26
21
22
0
LINE
8
CUT
10
26
20
22
11
52
21
22
0
LINE
8
CUT
10
52
20
22
11
53.56
21
22.15
0
LINE
8
CUT
10
53.56
20
22.15
11
55.06
21
22.61
0
LINE
8
CUT
10
55.06
20
22.61
11
56.44
21
23.35
0
LINE
8
CUT
10
56.44
20
23.35
11
57.66
21
24.34
0
LINE
8
CUT
10
57.66
20
24.34
11
58.65
21
25.56
0
LINE
8
CUT
10
58.65
20
25.56
11
59.39
21
26.94
0
LINE
8
CUT
10
59.39
20
26.94
11
59.85
21
28.44
0
LINE
8
CUT
10
59.85
20
28.44
11
60
21
30
0
LINE
8
CUT
10
60
20
30
11
60
21
30
0
LINE
8
CUT
10
60
20
30
11
59.85
21
31.56
0
LINE
8
CUT
10
59.85
20
31.56
11
59.39
21
33.06
0
LINE
8
CUT
10
59.39
20
33.06
11
58.65
21
34.44
0
LINE
8
CUT
10
58.65
20
34.44
11
57.66
21
35.66
0
LINE
8
CUT
10
57.66
20
35.66
11
56.44
21
36.65
0
LINE
8
CUT
10
56.44
20
36.65
11
55.06
21
37.39
0
LINE
8
CUT
10
55.06
20
37.39
11
53.56
21
37.85
0
LINE
8
CUT
10
53.56
20
37.85
11
52
21
38
0
LINE
8
CUT
10
52
20
38
11
26
21
38
0
LINE
8
CUT
10
26
20
38
11
24.44
21
37.85
0
LINE
8
CUT
10
24.44
20
37.85
11
22.94
21
37.39
0
LINE
8
CUT
10
22.94
20
37.39
11
21.56
21
36.65
0
LINE
8
CUT
10
21.56
20
36.65
11
20.34
21
35.66
0
LINE
8
CUT
10
20.34
20
35.66
11
19.35
21
34.44
0
LINE
8
CUT
10
19.35
20
34.44
11
18.61
21
33.06
0
LINE
8
CUT
10
18.61
20
33.06
11
18.15
21
31.56
0
LINE
8
CUT
10
18.15
20
31.56
11
18
21
30
0
LINE
8
CUT
10
18
20
30
11
18
21
30
0
LINE
8
CUT
10
265
20
30
11
265.15
21
28.44
0
LINE
8
CUT
10
265.15
20
28.44
11
265.61
21
26.94
0
LINE
8
CUT
10
265.61
20
26.94
11
266.35
21
25.56
0
LINE
8
CUT
10
266.35
20
25.56
11
267.34
21
24.34
0
LINE
8
CUT
10
267.34
20
24.34
11
268.56
21
23.35
0
LINE
8
CUT
10
268.56
20
23.35
11
269.94
21
22.61
0
LINE
8
CUT
10
269.94
20
22.61
11
271.44
21
22.15
0
LINE
8
CUT
10
271.44
20
22.15
11
273
21
22
0
LINE
8
CUT
10
273
20
22
11
299
21
22
0
LINE
8
CUT
10
299
20
22
11
300.56
21
22.15
0
LINE
8
CUT
10
300.56
20
22.15
11
302.06
21
22.61
0
LINE
8
CUT
10
302.06
20
22.61
11
303.44
21
23.35
0
LINE
8
CUT
10
303.44
20
23.35
11
304.66
21
24.34
0
LINE
8
CUT
10
304.66
20
24.34
11
305.65
21
25.56
0
LINE
8
CUT
10
305.65
20
25.56
11
306.39
21
26.94
0
LINE
8
CUT
10
306.39
20
26.94
11
306.85
21
28.44
0
LINE
8
CUT
10
306.85
20
28.44
11
307
21
30
0
LINE
8
CUT
10
307
20
30
11
307
21
30
0
LINE
8
CUT
10
307
20
30
11
306.85
21
31.56
0
LINE
8
CUT
10
306.85
20
31.56
11
306.39
21
33.06
0
LINE
8
CUT
10
306.39
20
33.06
11
305.65
21
34.44
0
LINE
8
CUT
10
305.65
20
34.44
11
304.66
21
35.66
0
LINE
8
CUT
10
304.66
20
35.66
11
303.44
21
36.65
0
LINE
8
CUT
10
303.44
20
36.65
11
302.06
21
37.39
0
LINE
8
CUT
10
302.06
20
37.39
11
300.56
21
37.85
0
LINE
8
CUT
10
300.56
20
37.85
11
299
21
38
0
LINE
8
CUT
10
299
20
38
11
273
21
38
0
LINE
8
CUT
10
273
20
38
11
271.44
21
37.85
0
LINE
8
CUT
10
271.44
20
37.85
11
269.94
21
37.39
0
LINE
8
CUT
10
269.94
20
37.39
11
268.56
21
36.65
0
LINE
8
CUT
10
268.56
20
36.65
11
267.34
21
35.66
0
LINE
8
CUT
10
267.34
20
35.66
11
266.35
21
34.44
0
LINE
8
CUT
10
266.35
20
34.44
11
265.61
21
33.06
0
LINE
8
CUT
10
265.61
20
33.06
11
265.15
21
31.56
0
LINE
8
CUT
10
265.15
20
31.56
11
265
21
30
0
LINE
8
CUT
10
265
20
30
11
265
21
30
0
LINE
8
CUT
10
18
20
90
11
18.15
21
88.44
0
LINE
8
CUT
10
18.15
20
88.44
11
18.61
21
86.94
0
LINE
8
CUT
10
18.61
20
86.94
11
19.35
21
85.56
0
LINE
8
CUT
10
19.35
20
85.56
11
20.34
21
84.34
0
LINE
8
CUT
10
20.34
20
84.34
11
21.56
21
83.35
0
LINE
8
CUT
10
21.56
20
83.35
11
22.94
21
82.61
0
LINE
8
CUT
10
22.94
20
82.61
11
24.44
21
82.15
0
LINE
8
CUT
10
24.44
20
82.15
11
26
21
82
0
LINE
8
CUT
10
26
20
82
11
52
21
82
0
LINE
8
CUT
10
52
20
82
11
53.56
21
82.15
0
LINE
8
CUT
10
53.56
20
82.15
11
55.06
21
82.61
0
LINE
8
CUT
10
55.06
20
82.61
11
56.44
21
83.35
0
LINE
8
CUT
10
56.44
20
83.35
11
57.66
21
84.34
0
LINE
8
CUT
10
57.66
20
84.34
11
58.65
21
85.56
0
LINE
8
CUT
10
58.65
20
85.56
11
59.39
21
86.94
0
LINE
8
CUT
10
59.39
20
86.94
11
59.85
21
88.44
0
LINE
8
CUT
10
59.85
20
88.44
11
60
21
90
0
LINE
8
CUT
10
60
20
90
11
60
21
90
0
LINE
8
CUT
10
60
20
90
11
59.85
21
91.56
0
LINE
8
CUT
10
59.85
20
91.56
11
59.39
21
93.06
0
LINE
8
CUT
10
59.39
20
93.06
11
58.65
21
94.44
0
LINE
8
CUT
10
58.65
20
94.44
11
57.66
21
95.66
0
LINE
8
CUT
10
57.66
20
95.66
11
56.44
21
96.65
0
LINE
8
CUT
10
56.44
20
96.65
11
55.06
21
97.39
0
LINE
8
CUT
10
55.06
20
97.39
11
53.56
21
97.85
0
LINE
8
CUT
10
53.56
20
97.85
11
52
21
98
0
LINE
8
CUT
10
52
20
98
11
26
21
98
0
LINE
8
CUT
10
26
20
98
11
24.44
21
97.85
0
LINE
8
CUT
10
24.44
20
97.85
11
22.94
21
97.39
0
LINE
8
CUT
10
22.94
20
97.39
11
21.56
21
96.65
0
LINE
8
CUT
10
21.56
20
96.65
11
20.34
21
95.66
0
LINE
8
CUT
10
20.34
20
95.66
11
19.35
21
94.44
0
LINE
8
CUT
10
19.35
20
94.44
11
18.61
21
93.06
0
LINE
8
CUT
10
18.61
20
93.06
11
18.15
21
91.56
0
LINE
8
CUT
10
18.15
20
91.56
11
18
21
90
0
LINE
8
CUT
10
18
20
90
11
18
21
90
0
LINE
8
CUT
10
265
20
90
11
265.15
21
88.44
0
LINE
8
CUT
10
265.15
20
88.44
11
265.61
21
86.94
0
LINE
8
CUT
10
265.61
20
86.94
11
266.35
21
85.56
0
LINE
8
CUT
10
266.35
20
85.56
11
267.34
21
84.34
0
LINE
8
CUT
10
267.34
20
84.34
11
268.56
21
83.35
0
LINE
8
CUT
10
268.56
20
83.35
11
269.94
21
82.61
0
LINE
8
CUT
10
269.94
20
82.61
11
271.44
21
82.15
0
LINE
8
CUT
10
271.44
20
82.15
11
273
21
82
0
LINE
8
CUT
10
273
20
82
11
299
21
82
0
LINE
8
CUT
10
299
20
82
11
300.56
21
82.15
0
LINE
8
CUT
10
300.56
20
82.15
11
302.06
21
82.61
0
LINE
8
CUT
10
302.06
20
82.61
11
303.44
21
83.35
0
LINE
8
CUT
10
303.44
20
83.35
11
304.66
21
84.34
0
LINE
8
CUT
10
304.66
20
84.34
11
305.65
21
85.56
0
LINE
8
CUT
10
305.65
20
85.56
11
306.39
21
86.94
0
LINE
8
CUT
10
306.39
20
86.94
11
306.85
21
88.44
0
LINE
8
CUT
10
306.85
20
88.44
11
307
21
90
0
LINE
8
CUT
10
307
20
90
11
307
21
90
0
LINE
8
CUT
10
307
20
90
11
306.85
21
91.56
0
LINE
8
CUT
10
306.85
20
91.56
11
306.39
21
93.06
0
LINE
8
CUT
10
306.39
20
93.06
11
305.65
21
94.44
0
LINE
8
CUT
10
305.65
20
94.44
11
304.66
21
95.66
0
LINE
8
CUT
10
304.66
20
95.66
11
303.44
21
96.65
0
LINE
8
CUT
10
303.44
20
96.65
11
302.06
21
97.39
0
LINE
8
CUT
10
302.06
20
97.39
11
300.56
21
97.85
0
LINE
8
CUT
10
300.56
20
97.85
11
299
21
98
0
LINE
8
CUT
10
299
20
98
11
273
21
98
0
LINE
8
CUT
10
273
20
98
11
271.44
21
97.85
0
LINE
8
CUT
10
271.44
20
97.85
11
269.94
21
97.39
0
LINE
8
CUT
10
269.94
20
97.39
11
268.56
21
96.65
0
LINE
8
CUT
10
268.56
20
96.65
11
267.34
21
95.66
0
LINE
8
CUT
10
267.34
20
95.66
11
266.35
21
94.44
0
LINE
8
CUT
10
266.35
20
94.44
11
265.61
21
93.06
0
LINE
8
CUT
10
265.61
20
93.06
11
265.15
21
91.56
0
LINE
8
CUT
10
265.15
20
91.56
11
265
21
90
0
LINE
8
CUT
10
265
20
90
11
265
21
90
0
LINE
8
CUT
10
80
20
24
11
80.12
21
22.83
0
LINE
8
CUT
10
80.12
20
22.83
11
80.46
21
21.7
0
LINE
8
CUT
10
80.46
20
21.7
11
81.01
21
20.67
0
LINE
8
CUT
10
81.01
20
20.67
11
81.76
21
19.76
0
LINE
8
CUT
10
81.76
20
19.76
11
82.67
21
19.01
0
LINE
8
CUT
10
82.67
20
19.01
11
83.7
21
18.46
0
LINE
8
CUT
10
83.7
20
18.46
11
84.83
21
18.12
0
LINE
8
CUT
10
84.83
20
18.12
11
86
21
18
0
LINE
8
CUT
10
86
20
18
11
108
21
18
0
LINE
8
CUT
10
108
20
18
11
109.17
21
18.12
0
LINE
8
CUT
10
109.17
20
18.12
11
110.3
21
18.46
0
LINE
8
CUT
10
110.3
20
18.46
11
111.33
21
19.01
0
LINE
8
CUT
10
111.33
20
19.01
11
112.24
21
19.76
0
LINE
8
CUT
10
112.24
20
19.76
11
112.99
21
20.67
0
LINE
8
CUT
10
112.99
20
20.67
11
113.54
21
21.7
0
LINE
8
CUT
10
113.54
20
21.7
11
113.88
21
22.83
0
LINE
8
CUT
10
113.88
20
22.83
11
114
21
24
0
LINE
8
CUT
10
114
20
24
11
114
21
24
0
LINE
8
CUT
10
114
20
24
11
113.88
21
25.17
0
LINE
8
CUT
10
113.88
20
25.17
11
113.54
21
26.3
0
LINE
8
CUT
10
113.54
20
26.3
11
112.99
21
27.33
0
LINE
8
CUT
10
112.99
20
27.33
11
112.24
21
28.24
0
LINE
8
CUT
10
112.24
20
28.24
11
111.33
21
28.99
0
LINE
8
CUT
10
111.33
20
28.99
11
110.3
21
29.54
0
LINE
8
CUT
10
110.3
20
29.54
11
109.17
21
29.88
0
LINE
8
CUT
10
109.17
20
29.88
11
108
21
30
0
LINE
8
CUT
10
108
20
30
11
86
21
30
0
LINE
8
CUT
10
86
20
30
11
84.83
21
29.88
0
LINE
8
CUT
10
84.83
20
29.88
11
83.7
21
29.54
0
LINE
8
CUT
10
83.7
20
29.54
11
82.67
21
28.99
0
LINE
8
CUT
10
82.67
20
28.99
11
81.76
21
28.24
0
LINE
8
CUT
10
81.76
20
28.24
11
81.01
21
27.33
0
LINE
8
CUT
10
81.01
20
27.33
11
80.46
21
26.3
0
LINE
8
CUT
10
80.46
20
26.3
11
80.12
21
25.17
0
LINE
8
CUT
10
80.12
20
25.17
11
80
21
24
0
LINE
8
CUT
10
80
20
24
11
80
21
24
0
LINE
8
CUT
10
210
20
24
11
210.12
21
22.83
0
LINE
8
CUT
10
210.12
20
22.83
11
210.46
21
21.7
0
LINE
8
CUT
10
210.46
20
21.7
11
211.01
21
20.67
0
LINE
8
CUT
10
211.01
20
20.67
11
211.76
21
19.76
0
LINE
8
CUT
10
211.76
20
19.76
11
212.67
21
19.01
0
LINE
8
CUT
10
212.67
20
19.01
11
213.7
21
18.46
0
LINE
8
CUT
10
213.7
20
18.46
11
214.83
21
18.12
0
LINE
8
CUT
10
214.83
20
18.12
11
216
21
18
0
LINE
8
CUT
10
216
20
18
11
238
21
18
0
LINE
8
CUT
10
238
20
18
11
239.17
21
18.12
0
LINE
8
CUT
10
239.17
20
18.12
11
240.3
21
18.46
0
LINE
8
CUT
10
240.3
20
18.46
11
241.33
21
19.01
0
LINE
8
CUT
10
241.33
20
19.01
11
242.24
21
19.76
0
LINE
8
CUT
10
242.24
20
19.76
11
242.99
21
20.67
0
LINE
8
CUT
10
242.99
20
20.67
11
243.54
21
21.7
0
LINE
8
CUT
10
243.54
20
21.7
11
243.88
21
22.83
0
LINE
8
CUT
10
243.88
20
22.83
11
244
21
24
0
LINE
8
CUT
10
244
20
24
11
244
21
24
0
LINE
8
CUT
10
244
20
24
11
243.88
21
25.17
0
LINE
8
CUT
10
243.88
20
25.17
11
243.54
21
26.3
0
LINE
8
CUT
10
243.54
20
26.3
11
242.99
21
27.33
0
LINE
8
CUT
10
242.99
20
27.33
11
242.24
21
28.24
0
LINE
8
CUT
10
242.24
20
28.24
11
241.33
21
28.99
0
LINE
8
CUT
10
241.33
20
28.99
11
240.3
21
29.54
0
LINE
8
CUT
10
240.3
20
29.54
11
239.17
21
29.88
0
LINE
8
CUT
10
239.17
20
29.88
11
238
21
30
0
LINE
8
CUT
10
238
20
30
11
216
21
30
0
LINE
8
CUT
10
216
20
30
11
214.83
21
29.88
0
LINE
8
CUT
10
214.83
20
29.88
11
213.7
21
29.54
0
LINE
8
CUT
10
213.7
20
29.54
11
212.67
21
28.99
0
LINE
8
CUT
10
212.67
20
28.99
11
211.76
21
28.24
0
LINE
8
CUT
10
211.76
20
28.24
11
211.01
21
27.33
0
LINE
8
CUT
10
211.01
20
27.33
11
210.46
21
26.3
0
LINE
8
CUT
10
210.46
20
26.3
11
210.12
21
25.17
0
LINE
8
CUT
10
210.12
20
25.17
11
210
21
24
0
LINE
8
CUT
10
210
20
24
11
210
21
24
0
LINE
8
CUT
10
80
20
94
11
80.12
21
92.83
0
LINE
8
CUT
10
80.12
20
92.83
11
80.46
21
91.7
0
LINE
8
CUT
10
80.46
20
91.7
11
81.01
21
90.67
0
LINE
8
CUT
10
81.01
20
90.67
11
81.76
21
89.76
0
LINE
8
CUT
10
81.76
20
89.76
11
82.67
21
89.01
0
LINE
8
CUT
10
82.67
20
89.01
11
83.7
21
88.46
0
LINE
8
CUT
10
83.7
20
88.46
11
84.83
21
88.12
0
LINE
8
CUT
10
84.83
20
88.12
11
86
21
88
0
LINE
8
CUT
10
86
20
88
11
108
21
88
0
LINE
8
CUT
10
108
20
88
11
109.17
21
88.12
0
LINE
8
CUT
10
109.17
20
88.12
11
110.3
21
88.46
0
LINE
8
CUT
10
110.3
20
88.46
11
111.33
21
89.01
0
LINE
8
CUT
10
111.33
20
89.01
11
112.24
21
89.76
0
LINE
8
CUT
10
112.24
20
89.76
11
112.99
21
90.67
0
LINE
8
CUT
10
112.99
20
90.67
11
113.54
21
91.7
0
LINE
8
CUT
10
113.54
20
91.7
11
113.88
21
92.83
0
LINE
8
CUT
10
113.88
20
92.83
11
114
21
94
0
LINE
8
CUT
10
114
20
94
11
114
21
94
0
LINE
8
CUT
10
114
20
94
11
113.88
21
95.17
0
LINE
8
CUT
10
113.88
20
95.17
11
113.54
21
96.3
0
LINE
8
CUT
10
113.54
20
96.3
11
112.99
21
97.33
0
LINE
8
CUT
10
112.99
20
97.33
11
112.24
21
98.24
0
LINE
8
CUT
10
112.24
20
98.24
11
111.33
21
98.99
0
LINE
8
CUT
10
111.33
20
98.99
11
110.3
21
99.54
0
LINE
8
CUT
10
110.3
20
99.54
11
109.17
21
99.88
0
LINE
8
CUT
10
109.17
20
99.88
11
108
21
100
0
LINE
8
CUT
10
108
20
100
11
86
21
100
0
LINE
8
CUT
10
86
20
100
11
84.83
21
99.88
0
LINE
8
CUT
10
84.83
20
99.88
11
83.7
21
99.54
0
LINE
8
CUT
10
83.7
20
99.54
11
82.67
21
98.99
0
LINE
8
CUT
10
82.67
20
98.99
11
81.76
21
98.24
0
LINE
8
CUT
10
81.76
20
98.24
11
81.01
21
97.33
0
LINE
8
CUT
10
81.01
20
97.33
11
80.46
21
96.3
0
LINE
8
CUT
10
80.46
20
96.3
11
80.12
21
95.17
0
LINE
8
CUT
10
80.12
20
95.17
11
80
21
94
0
LINE
8
CUT
10
80
20
94
11
80
21
94
0
LINE
8
CUT
10
210
20
94
11
210.12
21
92.83
0
LINE
8
CUT
10
210.12
20
92.83
11
210.46
21
91.7
0
LINE
8
CUT
10
210.46
20
91.7
11
211.01
21
90.67
0
LINE
8
CUT
10
211.01
20
90.67
11
211.76
21
89.76
0
LINE
8
CUT
10
211.76
20
89.76
11
212.67
21
89.01
0
LINE
8
CUT
10
212.67
20
89.01
11
213.7
21
88.46
0
LINE
8
CUT
10
213.7
20
88.46
11
214.83
21
88.12
0
LINE
8
CUT
10
214.83
20
88.12
11
216
21
88
0
LINE
8
CUT
10
216
20
88
11
238
21
88
0
LINE
8
CUT
10
238
20
88
11
239.17
21
88.12
0
LINE
8
CUT
10
239.17
20
88.12
11
240.3
21
88.46
0
LINE
8
CUT
10
240.3
20
88.46
11
241.33
21
89.01
0
LINE
8
CUT
10
241.33
20
89.01
11
242.24
21
89.76
0
LINE
8
CUT
10
242.24
20
89.76
11
242.99
21
90.67
0
LINE
8
CUT
10
242.99
20
90.67
11
243.54
21
91.7
0
LINE
8
CUT
10
243.54
20
91.7
11
243.88
21
92.83
0
LINE
8
CUT
10
243.88
20
92.83
11
244
21
94
0
LINE
8
CUT
10
244
20
94
11
244
21
94
0
LINE
8
CUT
10
244
20
94
11
243.88
21
95.17
0
LINE
8
CUT
10
243.88
20
95.17
11
243.54
21
96.3
0
LINE
8
CUT
10
243.54
20
96.3
11
242.99
21
97.33
0
LINE
8
CUT
10
242.99
20
97.33
11
242.24
21
98.24
0
LINE
8
CUT
10
242.24
20
98.24
11
241.33
21
98.99
0
LINE
8
CUT
10
241.33
20
98.99
11
240.3
21
99.54
0
LINE
8
CUT
10
240.3
20
99.54
11
239.17
21
99.88
0
LINE
8
CUT
10
239.17
20
99.88
11
238
21
100
0
LINE
8
CUT
10
238
20
100
11
216
21
100
0
LINE
8
CUT
10
216
20
100
11
214.83
21
99.88
0
LINE
8
CUT
10
214.83
20
99.88
11
213.7
21
99.54
0
LINE
8
CUT
10
213.7
20
99.54
11
212.67
21
98.99
0
LINE
8
CUT
10
212.67
20
98.99
11
211.76
21
98.24
0
LINE
8
CUT
10
211.76
20
98.24
11
211.01
21
97.33
0
LINE
8
CUT
10
211.01
20
97.33
11
210.46
21
96.3
0
LINE
8
CUT
10
210.46
20
96.3
11
210.12
21
95.17
0
LINE
8
CUT
10
210.12
20
95.17
11
210
21
94
0
LINE
8
CUT
10
210
20
94
11
210
21
94
0
LINE
8
CUT
10
130
20
54
11
130.12
21
52.83
0
LINE
8
CUT
10
130.12
20
52.83
11
130.46
21
51.7
0
LINE
8
CUT
10
130.46
20
51.7
11
131.01
21
50.67
0
LINE
8
CUT
10
131.01
20
50.67
11
131.76
21
49.76
0
LINE
8
CUT
10
131.76
20
49.76
11
132.67
21
49.01
0
LINE
8
CUT
10
132.67
20
49.01
11
133.7
21
48.46
0
LINE
8
CUT
10
133.7
20
48.46
11
134.83
21
48.12
0
LINE
8
CUT
10
134.83
20
48.12
11
136
21
48
0
LINE
8
CUT
10
136
20
48
11
152
21
48
0
LINE
8
CUT
10
152
20
48
11
153.17
21
48.12
0
LINE
8
CUT
10
153.17
20
48.12
11
154.3
21
48.46
0
LINE
8
CUT
10
154.3
20
48.46
11
155.33
21
49.01
0
LINE
8
CUT
10
155.33
20
49.01
11
156.24
21
49.76
0
LINE
8
CUT
10
156.24
20
49.76
11
156.99
21
50.67
0
LINE
8
CUT
10
156.99
20
50.67
11
157.54
21
51.7
0
LINE
8
CUT
10
157.54
20
51.7
11
157.88
21
52.83
0
LINE
8
CUT
10
157.88
20
52.83
11
158
21
54
0
LINE
8
CUT
10
158
20
54
11
158
21
54
0
LINE
8
CUT
10
158
20
54
11
157.88
21
55.17
0
LINE
8
CUT
10
157.88
20
55.17
11
157.54
21
56.3
0
LINE
8
CUT
10
157.54
20
56.3
11
156.99
21
57.33
0
LINE
8
CUT
10
156.99
20
57.33
11
156.24
21
58.24
0
LINE
8
CUT
10
156.24
20
58.24
11
155.33
21
58.99
0
LINE
8
CUT
10
155.33
20
58.99
11
154.3
21
59.54
0
LINE
8
CUT
10
154.3
20
59.54
11
153.17
21
59.88
0
LINE
8
CUT
10
153.17
20
59.88
11
152
21
60
0
LINE
8
CUT
10
152
20
60
11
136
21
60
0
LINE
8
CUT
10
136
20
60
11
134.83
21
59.88
0
LINE
8
CUT
10
134.83
20
59.88
11
133.7
21
59.54
0
LINE
8
CUT
10
133.7
20
59.54
11
132.67
21
58.99
0
LINE
8
CUT
10
132.67
20
58.99
11
131.76
21
58.24
0
LINE
8
CUT
10
131.76
20
58.24
11
131.01
21
57.33
0
LINE
8
CUT
10
131.01
20
57.33
11
130.46
21
56.3
0
LINE
8
CUT
10
130.46
20
56.3
11
130.12
21
55.17
0
LINE
8
CUT
10
130.12
20
55.17
11
130
21
54
0
LINE
8
CUT
10
130
20
54
11
130
21
54
0
LINE
8
CUT
10
168
20
54
11
168.12
21
52.83
0
LINE
8
CUT
10
168.12
20
52.83
11
168.46
21
51.7
0
LINE
8
CUT
10
168.46
20
51.7
11
169.01
21
50.67
0
LINE
8
CUT
10
169.01
20
50.67
11
169.76
21
49.76
0
LINE
8
CUT
10
169.76
20
49.76
11
170.67
21
49.01
0
LINE
8
CUT
10
170.67
20
49.01
11
171.7
21
48.46
0
LINE
8
CUT
10
171.7
20
48.46
11
172.83
21
48.12
0
LINE
8
CUT
10
172.83
20
48.12
11
174
21
48
0
LINE
8
CUT
10
174
20
48
11
190
21
48
0
LINE
8
CUT
10
190
20
48
11
191.17
21
48.12
0
LINE
8
CUT
10
191.17
20
48.12
11
192.3
21
48.46
0
LINE
8
CUT
10
192.3
20
48.46
11
193.33
21
49.01
0
LINE
8
CUT
10
193.33
20
49.01
11
194.24
21
49.76
0
LINE
8
CUT
10
194.24
20
49.76
11
194.99
21
50.67
0
LINE
8
CUT
10
194.99
20
50.67
11
195.54
21
51.7
0
LINE
8
CUT
10
195.54
20
51.7
11
195.88
21
52.83
0
LINE
8
CUT
10
195.88
20
52.83
11
196
21
54
0
LINE
8
CUT
10
196
20
54
11
196
21
54
0
LINE
8
CUT
10
196
20
54
11
195.88
21
55.17
0
LINE
8
CUT
10
195.88
20
55.17
11
195.54
21
56.3
0
LINE
8
CUT
10
195.54
20
56.3
11
194.99
21
57.33
0
LINE
8
CUT
10
194.99
20
57.33
11
194.24
21
58.24
0
LINE
8
CUT
10
194.24
20
58.24
11
193.33
21
58.99
0
LINE
8
CUT
10
193.33
20
58.99
11
192.3
21
59.54
0
LINE
8
CUT
10
192.3
20
59.54
11
191.17
21
59.88
0
LINE
8
CUT
10
191.17
20
59.88
11
190
21
60
0
LINE
8
CUT
10
190
20
60
11
174
21
60
0
LINE
8
CUT
10
174
20
60
11
172.83
21
59.88
0
LINE
8
CUT
10
172.83
20
59.88
11
171.7
21
59.54
0
LINE
8
CUT
10
171.7
20
59.54
11
170.67
21
58.99
0
LINE
8
CUT
10
170.67
20
58.99
11
169.76
21
58.24
0
LINE
8
CUT
10
169.76
20
58.24
11
169.01
21
57.33
0
LINE
8
CUT
10
169.01
20
57.33
11
168.46
21
56.3
0
LINE
8
CUT
10
168.46
20
56.3
11
168.12
21
55.17
0
LINE
8
CUT
10
168.12
20
55.17
11
168
21
54
0
LINE
8
CUT
10
168
20
54
11
168
21
54
0
CIRCLE
8
CUT
10
72
20
60
40
3.25
0
CIRCLE
8
CUT
10
132
20
60
40
3.25
0
CIRCLE
8
CUT
10
193
20
60
40
3.25
0
CIRCLE
8
CUT
10
253
20
60
40
3.25
0
ENDSEC
0
EOF
