0
SECTION
2
HEADER
9
$INSUNITS
70
4
0
ENDSEC
0
SECTION
2
ENTITIES
0
LINE
8
CUT
10
0
20
0
11
220
21
0
0
LINE
8
CUT
10
220
20
0
11
220
21
230
0
LINE
8
CUT
10
220
20
230
11
0
21
230
0
LINE
8
CUT
10
0
20
230
11
0
21
0
0
LINE
8
CUT
10
24
20
35
11
24.15
21
33.44
0
LINE
8
CUT
10
24.15
20
33.44
11
24.61
21
31.94
0
LINE
8
CUT
10
24.61
20
31.94
11
25.35
21
30.56
0
LINE
8
CUT
10
25.35
20
30.56
11
26.34
21
29.34
0
LINE
8
CUT
10
26.34
20
29.34
11
27.56
21
28.35
0
LINE
8
CUT
10
27.56
20
28.35
11
28.94
21
27.61
0
LINE
8
CUT
10
28.94
20
27.61
11
30.44
21
27.15
0
LINE
8
CUT
10
30.44
20
27.15
11
32
21
27
0
LINE
8
CUT
10
32
20
27
11
60
21
27
0
LINE
8
CUT
10
60
20
27
11
61.56
21
27.15
0
LINE
8
CUT
10
61.56
20
27.15
11
63.06
21
27.61
0
LINE
8
CUT
10
63.06
20
27.61
11
64.44
21
28.35
0
LINE
8
CUT
10
64.44
20
28.35
11
65.66
21
29.34
0
LINE
8
CUT
10
65.66
20
29.34
11
66.65
21
30.56
0
LINE
8
CUT
10
66.65
20
30.56
11
67.39
21
31.94
0
LINE
8
CUT
10
67.39
20
31.94
11
67.85
21
33.44
0
LINE
8
CUT
10
67.85
20
33.44
11
68
21
35
0
LINE
8
CUT
10
68
20
35
11
68
21
35
0
LINE
8
CUT
10
68
20
35
11
67.85
21
36.56
0
LINE
8
CUT
10
67.85
20
36.56
11
67.39
21
38.06
0
LINE
8
CUT
10
67.39
20
38.06
11
66.65
21
39.44
0
LINE
8
CUT
10
66.65
20
39.44
11
65.66
21
40.66
0
LINE
8
CUT
10
65.66
20
40.66
11
64.44
21
41.65
0
LINE
8
CUT
10
64.44
20
41.65
11
63.06
21
42.39
0
LINE
8
CUT
10
63.06
20
42.39
11
61.56
21
42.85
0
LINE
8
CUT
10
61.56
20
42.85
11
60
21
43
0
LINE
8
CUT
10
60
20
43
11
32
21
43
0
LINE
8
CUT
10
32
20
43
11
30.44
21
42.85
0
LINE
8
CUT
10
30.44
20
42.85
11
28.94
21
42.39
0
LINE
8
CUT
10
28.94
20
42.39
11
27.56
21
41.65
0
LINE
8
CUT
10
27.56
20
41.65
11
26.34
21
40.66
0
LINE
8
CUT
10
26.34
20
40.66
11
25.35
21
39.44
0
LINE
8
CUT
10
25.35
20
39.44
11
24.61
21
38.06
0
LINE
8
CUT
10
24.61
20
38.06
11
24.15
21
36.56
0
LINE
8
CUT
10
24.15
20
36.56
11
24
21
35
0
LINE
8
CUT
10
24
20
35
11
24
21
35
0
LINE
8
CUT
10
152
20
35
11
152.15
21
33.44
0
LINE
8
CUT
10
152.15
20
33.44
11
152.61
21
31.94
0
LINE
8
CUT
10
152.61
20
31.94
11
153.35
21
30.56
0
LINE
8
CUT
10
153.35
20
30.56
11
154.34
21
29.34
0
LINE
8
CUT
10
154.34
20
29.34
11
155.56
21
28.35
0
LINE
8
CUT
10
155.56
20
28.35
11
156.94
21
27.61
0
LINE
8
CUT
10
156.94
20
27.61
11
158.44
21
27.15
0
LINE
8
CUT
10
158.44
20
27.15
11
160
21
27
0
LINE
8
CUT
10
160
20
27
11
188
21
27
0
LINE
8
CUT
10
188
20
27
11
189.56
21
27.15
0
LINE
8
CUT
10
189.56
20
27.15
11
191.06
21
27.61
0
LINE
8
CUT
10
191.06
20
27.61
11
192.44
21
28.35
0
LINE
8
CUT
10
192.44
20
28.35
11
193.66
21
29.34
0
LINE
8
CUT
10
193.66
20
29.34
11
194.65
21
30.56
0
LINE
8
CUT
10
194.65
20
30.56
11
195.39
21
31.94
0
LINE
8
CUT
10
195.39
20
31.94
11
195.85
21
33.44
0
LINE
8
CUT
10
195.85
20
33.44
11
196
21
35
0
LINE
8
CUT
10
196
20
35
11
196
21
35
0
LINE
8
CUT
10
196
20
35
11
195.85
21
36.56
0
LINE
8
CUT
10
195.85
20
36.56
11
195.39
21
38.06
0
LINE
8
CUT
10
195.39
20
38.06
11
194.65
21
39.44
0
LINE
8
CUT
10
194.65
20
39.44
11
193.66
21
40.66
0
LINE
8
CUT
10
193.66
20
40.66
11
192.44
21
41.65
0
LINE
8
CUT
10
192.44
20
41.65
11
191.06
21
42.39
0
LINE
8
CUT
10
191.06
20
42.39
11
189.56
21
42.85
0
LINE
8
CUT
10
189.56
20
42.85
11
188
21
43
0
LINE
8
CUT
10
188
20
43
11
160
21
43
0
LINE
8
CUT
10
160
20
43
11
158.44
21
42.85
0
LINE
8
CUT
10
158.44
20
42.85
11
156.94
21
42.39
0
LINE
8
CUT
10
156.94
20
42.39
11
155.56
21
41.65
0
LINE
8
CUT
10
155.56
20
41.65
11
154.34
21
40.66
0
LINE
8
CUT
10
154.34
20
40.66
11
153.35
21
39.44
0
LINE
8
CUT
10
153.35
20
39.44
11
152.61
21
38.06
0
LINE
8
CUT
10
152.61
20
38.06
11
152.15
21
36.56
0
LINE
8
CUT
10
152.15
20
36.56
11
152
21
35
0
LINE
8
CUT
10
152
20
35
11
152
21
35
0
LINE
8
CUT
10
24
20
195
11
24.15
21
193.44
0
LINE
8
CUT
10
24.15
20
193.44
11
24.61
21
191.94
0
LINE
8
CUT
10
24.61
20
191.94
11
25.35
21
190.56
0
LINE
8
CUT
10
25.35
20
190.56
11
26.34
21
189.34
0
LINE
8
CUT
10
26.34
20
189.34
11
27.56
21
188.35
0
LINE
8
CUT
10
27.56
20
188.35
11
28.94
21
187.61
0
LINE
8
CUT
10
28.94
20
187.61
11
30.44
21
187.15
0
LINE
8
CUT
10
30.44
20
187.15
11
32
21
187
0
LINE
8
CUT
10
32
20
187
11
60
21
187
0
LINE
8
CUT
10
60
20
187
11
61.56
21
187.15
0
LINE
8
CUT
10
61.56
20
187.15
11
63.06
21
187.61
0
LINE
8
CUT
10
63.06
20
187.61
11
64.44
21
188.35
0
LINE
8
CUT
10
64.44
20
188.35
11
65.66
21
189.34
0
LINE
8
CUT
10
65.66
20
189.34
11
66.65
21
190.56
0
LINE
8
CUT
10
66.65
20
190.56
11
67.39
21
191.94
0
LINE
8
CUT
10
67.39
20
191.94
11
67.85
21
193.44
0
LINE
8
CUT
10
67.85
20
193.44
11
68
21
195
0
LINE
8
CUT
10
68
20
195
11
68
21
195
0
LINE
8
CUT
10
68
20
195
11
67.85
21
196.56
0
LINE
8
CUT
10
67.85
20
196.56
11
67.39
21
198.06
0
LINE
8
CUT
10
67.39
20
198.06
11
66.65
21
199.44
0
LINE
8
CUT
10
66.65
20
199.44
11
65.66
21
200.66
0
LINE
8
CUT
10
65.66
20
200.66
11
64.44
21
201.65
0
LINE
8
CUT
10
64.44
20
201.65
11
63.06
21
202.39
0
LINE
8
CUT
10
63.06
20
202.39
11
61.56
21
202.85
0
LINE
8
CUT
10
61.56
20
202.85
11
60
21
203
0
LINE
8
CUT
10
60
20
203
11
32
21
203
0
LINE
8
CUT
10
32
20
203
11
30.44
21
202.85
0
LINE
8
CUT
10
30.44
20
202.85
11
28.94
21
202.39
0
LINE
8
CUT
10
28.94
20
202.39
11
27.56
21
201.65
0
LINE
8
CUT
10
27.56
20
201.65
11
26.34
21
200.66
0
LINE
8
CUT
10
26.34
20
200.66
11
25.35
21
199.44
0
LINE
8
CUT
10
25.35
20
199.44
11
24.61
21
198.06
0
LINE
8
CUT
10
24.61
20
198.06
11
24.15
21
196.56
0
LINE
8
CUT
10
24.15
20
196.56
11
24
21
195
0
LINE
8
CUT
10
24
20
195
11
24
21
195
0
LINE
8
CUT
10
152
20
195
11
152.15
21
193.44
0
LINE
8
CUT
10
152.15
20
193.44
11
152.61
21
191.94
0
LINE
8
CUT
10
152.61
20
191.94
11
153.35
21
190.56
0
LINE
8
CUT
10
153.35
20
190.56
11
154.34
21
189.34
0
LINE
8
CUT
10
154.34
20
189.34
11
155.56
21
188.35
0
LINE
8
CUT
10
155.56
20
188.35
11
156.94
21
187.61
0
LINE
8
CUT
10
156.94
20
187.61
11
158.44
21
187.15
0
LINE
8
CUT
10
158.44
20
187.15
11
160
21
187
0
LINE
8
CUT
10
160
20
187
11
188
21
187
0
LINE
8
CUT
10
188
20
187
11
189.56
21
187.15
0
LINE
8
CUT
10
189.56
20
187.15
11
191.06
21
187.61
0
LINE
8
CUT
10
191.06
20
187.61
11
192.44
21
188.35
0
LINE
8
CUT
10
192.44
20
188.35
11
193.66
21
189.34
0
LINE
8
CUT
10
193.66
20
189.34
11
194.65
21
190.56
0
LINE
8
CUT
10
194.65
20
190.56
11
195.39
21
191.94
0
LINE
8
CUT
10
195.39
20
191.94
11
195.85
21
193.44
0
LINE
8
CUT
10
195.85
20
193.44
11
196
21
195
0
LINE
8
CUT
10
196
20
195
11
196
21
195
0
LINE
8
CUT
10
196
20
195
11
195.85
21
196.56
0
LINE
8
CUT
10
195.85
20
196.56
11
195.39
21
198.06
0
LINE
8
CUT
10
195.39
20
198.06
11
194.65
21
199.44
0
LINE
8
CUT
10
194.65
20
199.44
11
193.66
21
200.66
0
LINE
8
CUT
10
193.66
20
200.66
11
192.44
21
201.65
0
LINE
8
CUT
10
192.44
20
201.65
11
191.06
21
202.39
0
LINE
8
CUT
10
191.06
20
202.39
11
189.56
21
202.85
0
LINE
8
CUT
10
189.56
20
202.85
11
188
21
203
0
LINE
8
CUT
10
188
20
203
11
160
21
203
0
LINE
8
CUT
10
160
20
203
11
158.44
21
202.85
0
LINE
8
CUT
10
158.44
20
202.85
11
156.94
21
202.39
0
LINE
8
CUT
10
156.94
20
202.39
11
155.56
21
201.65
0
LINE
8
CUT
10
155.56
20
201.65
11
154.34
21
200.66
0
LINE
8
CUT
10
154.34
20
200.66
11
153.35
21
199.44
0
LINE
8
CUT
10
153.35
20
199.44
11
152.61
21
198.06
0
LINE
8
CUT
10
152.61
20
198.06
11
152.15
21
196.56
0
LINE
8
CUT
10
152.15
20
196.56
11
152
21
195
0
LINE
8
CUT
10
152
20
195
11
152
21
195
0
LINE
8
CUT
10
78
20
99
11
78.13
21
97.63
0
LINE
8
CUT
10
78.13
20
97.63
11
78.53
21
96.32
0
LINE
8
CUT
10
78.53
20
96.32
11
79.18
21
95.11
0
LINE
8
CUT
10
79.18
20
95.11
11
80.05
21
94.05
0
LINE
8
CUT
10
80.05
20
94.05
11
81.11
21
93.18
0
LINE
8
CUT
10
81.11
20
93.18
11
82.32
21
92.53
0
LINE
8
CUT
10
82.32
20
92.53
11
83.63
21
92.13
0
LINE
8
CUT
10
83.63
20
92.13
11
85
21
92
0
LINE
8
CUT
10
85
20
92
11
85
21
92
0
LINE
8
CUT
10
85
20
92
11
86.37
21
92.13
0
LINE
8
CUT
10
86.37
20
92.13
11
87.68
21
92.53
0
LINE
8
CUT
10
87.68
20
92.53
11
88.89
21
93.18
0
LINE
8
CUT
10
88.89
20
93.18
11
89.95
21
94.05
0
LINE
8
CUT
10
89.95
20
94.05
11
90.82
21
95.11
0
LINE
8
CUT
10
90.82
20
95.11
11
91.47
21
96.32
0
LINE
8
CUT
10
91.47
20
96.32
11
91.87
21
97.63
0
LINE
8
CUT
10
91.87
20
97.63
11
92
21
99
0
LINE
8
CUT
10
92
20
99
11
92
21
127
0
LINE
8
CUT
10
92
20
127
11
91.87
21
128.37
0
LINE
8
CUT
10
91.87
20
128.37
11
91.47
21
129.68
0
LINE
8
CUT
10
91.47
20
129.68
11
90.82
21
130.89
0
LINE
8
CUT
10
90.82
20
130.89
11
89.95
21
131.95
0
LINE
8
CUT
10
89.95
20
131.95
11
88.89
21
132.82
0
LINE
8
CUT
10
88.89
20
132.82
11
87.68
21
133.47
0
LINE
8
CUT
10
87.68
20
133.47
11
86.37
21
133.87
0
LINE
8
CUT
10
86.37
20
133.87
11
85
21
134
0
LINE
8
CUT
10
85
20
134
11
85
21
134
0
LINE
8
CUT
10
85
20
134
11
83.63
21
133.87
0
LINE
8
CUT
10
83.63
20
133.87
11
82.32
21
133.47
0
LINE
8
CUT
10
82.32
20
133.47
11
81.11
21
132.82
0
LINE
8
CUT
10
81.11
20
132.82
11
80.05
21
131.95
0
LINE
8
CUT
10
80.05
20
131.95
11
79.18
21
130.89
0
LINE
8
CUT
10
79.18
20
130.89
11
78.53
21
129.68
0
LINE
8
CUT
10
78.53
20
129.68
11
78.13
21
128.37
0
LINE
8
CUT
10
78.13
20
128.37
11
78
21
127
0
LINE
8
CUT
10
78
20
127
11
78
21
99
0
LINE
8
CUT
10
128
20
99
11
128.13
21
97.63
0
LINE
8
CUT
10
128.13
20
97.63
11
128.53
21
96.32
0
LINE
8
CUT
10
128.53
20
96.32
11
129.18
21
95.11
0
LINE
8
CUT
10
129.18
20
95.11
11
130.05
21
94.05
0
LINE
8
CUT
10
130.05
20
94.05
11
131.11
21
93.18
0
LINE
8
CUT
10
131.11
20
93.18
11
132.32
21
92.53
0
LINE
8
CUT
10
132.32
20
92.53
11
133.63
21
92.13
0
LINE
8
CUT
10
133.63
20
92.13
11
135
21
92
0
LINE
8
CUT
10
135
20
92
11
135
21
92
0
LINE
8
CUT
10
135
20
92
11
136.37
21
92.13
0
LINE
8
CUT
10
136.37
20
92.13
11
137.68
21
92.53
0
LINE
8
CUT
10
137.68
20
92.53
11
138.89
21
93.18
0
LINE
8
CUT
10
138.89
20
93.18
11
139.95
21
94.05
0
LINE
8
CUT
10
139.95
20
94.05
11
140.82
21
95.11
0
LINE
8
CUT
10
140.82
20
95.11
11
141.47
21
96.32
0
LINE
8
CUT
10
141.47
20
96.32
11
141.87
21
97.63
0
LINE
8
CUT
10
141.87
20
97.63
11
142
21
99
0
LINE
8
CUT
10
142
20
99
11
142
21
127
0
LINE
8
CUT
10
142
20
127
11
141.87
21
128.37
0
LINE
8
CUT
10
141.87
20
128.37
11
141.47
21
129.68
0
LINE
8
CUT
10
141.47
20
129.68
11
140.82
21
130.89
0
LINE
8
CUT
10
140.82
20
130.89
11
139.95
21
131.95
0
LINE
8
CUT
10
139.95
20
131.95
11
138.89
21
132.82
0
LINE
8
CUT
10
138.89
20
132.82
11
137.68
21
133.47
0
LINE
8
CUT
10
137.68
20
133.47
11
136.37
21
133.87
0
LINE
8
CUT
10
136.37
20
133.87
11
135
21
134
0
LINE
8
CUT
10
135
20
134
11
135
21
134
0
LINE
8
CUT
10
135
20
134
11
133.63
21
133.87
0
LINE
8
CUT
10
133.63
20
133.87
11
132.32
21
133.47
0
LINE
8
CUT
10
132.32
20
133.47
11
131.11
21
132.82
0
LINE
8
CUT
10
131.11
20
132.82
11
130.05
21
131.95
0
LINE
8
CUT
10
130.05
20
131.95
11
129.18
21
130.89
0
LINE
8
CUT
10
129.18
20
130.89
11
128.53
21
129.68
0
LINE
8
CUT
10
128.53
20
129.68
11
128.13
21
128.37
0
LINE
8
CUT
10
128.13
20
128.37
11
128
21
127
0
LINE
8
CUT
10
128
20
127
11
128
21
99
0
LINE
8
BEND
10
0
20
70
11
220
21
70
0
LINE
8
BEND
10
0
20
160
11
220
21
160
0
ENDSEC
0
EOF
