0
SECTION
2
HEADER
9
$INSUNITS
70
4
0
ENDSEC
0
SECTION
2
ENTITIES
0
LINE
8
CUT
10
0
20
0
11
660
21
0
0
LINE
8
CUT
10
660
20
0
11
660
21
310
0
LINE
8
CUT
10
660
20
310
11
0
21
310
0
LINE
8
CUT
10
0
20
310
11
0
21
0
0
LINE
8
CUT
10
18
20
30
11
18.15
21
28.44
0
LINE
8
CUT
10
18.15
20
28.44
11
18.61
21
26.94
0
LINE
8
CUT
10
18.61
20
26.94
11
19.35
21
25.56
0
LINE
8
CUT
10
19.35
20
25.56
11
20.34
21
24.34
0
LINE
8
CUT
10
20.34
20
24.34
11
21.56
21
23.35
0
LINE
8
CUT
10
21.56
20
23.35
11
22.94
21
22.61
0
LINE
8
CUT
10
22.94
20
22.61
11
24.44
21
22.15
0
LINE
8
CUT
10
24.44
20
22.15
11
26
21
22
0
LINE
8
CUT
10
26
20
22
11
52
21
22
0
LINE
8
CUT
10
52
20
22
11
53.56
21
22.15
0
LINE
8
CUT
10
53.56
20
22.15
11
55.06
21
22.61
0
LINE
8
CUT
10
55.06
20
22.61
11
56.44
21
23.35
0
LINE
8
CUT
10
56.44
20
23.35
11
57.66
21
24.34
0
LINE
8
CUT
10
57.66
20
24.34
11
58.65
21
25.56
0
LINE
8
CUT
10
58.65
20
25.56
11
59.39
21
26.94
0
LINE
8
CUT
10
59.39
20
26.94
11
59.85
21
28.44
0
LINE
8
CUT
10
59.85
20
28.44
11
60
21
30
0
LINE
8
CUT
10
60
20
30
11
60
21
30
0
LINE
8
CUT
10
60
20
30
11
59.85
21
31.56
0
LINE
8
CUT
10
59.85
20
31.56
11
59.39
21
33.06
0
LINE
8
CUT
10
59.39
20
33.06
11
58.65
21
34.44
0
LINE
8
CUT
10
58.65
20
34.44
11
57.66
21
35.66
0
LINE
8
CUT
10
57.66
20
35.66
11
56.44
21
36.65
0
LINE
8
CUT
10
56.44
20
36.65
11
55.06
21
37.39
0
LINE
8
CUT
10
55.06
20
37.39
11
53.56
21
37.85
0
LINE
8
CUT
10
53.56
20
37.85
11
52
21
38
0
LINE
8
CUT
10
52
20
38
11
26
21
38
0
LINE
8
CUT
10
26
20
38
11
24.44
21
37.85
0
LINE
8
CUT
10
24.44
20
37.85
11
22.94
21
37.39
0
LINE
8
CUT
10
22.94
20
37.39
11
21.56
21
36.65
0
LINE
8
CUT
10
21.56
20
36.65
11
20.34
21
35.66
0
LINE
8
CUT
10
20.34
20
35.66
11
19.35
21
34.44
0
LINE
8
CUT
10
19.35
20
34.44
11
18.61
21
33.06
0
LINE
8
CUT
10
18.61
20
33.06
11
18.15
21
31.56
0
LINE
8
CUT
10
18.15
20
31.56
11
18
21
30
0
LINE
8
CUT
10
18
20
30
11
18
21
30
0
LINE
8
CUT
10
600
20
30
11
600.15
21
28.44
0
LINE
8
CUT
10
600.15
20
28.44
11
600.61
21
26.94
0
LINE
8
CUT
10
600.61
20
26.94
11
601.35
21
25.56
0
LINE
8
CUT
10
601.35
20
25.56
11
602.34
21
24.34
0
LINE
8
CUT
10
602.34
20
24.34
11
603.56
21
23.35
0
LINE
8
CUT
10
603.56
20
23.35
11
604.94
21
22.61
0
LINE
8
CUT
10
604.94
20
22.61
11
606.44
21
22.15
0
LINE
8
CUT
10
606.44
20
22.15
11
608
21
22
0
LINE
8
CUT
10
608
20
22
11
634
21
22
0
LINE
8
CUT
10
634
20
22
11
635.56
21
22.15
0
LINE
8
CUT
10
635.56
20
22.15
11
637.06
21
22.61
0
LINE
8
CUT
10
637.06
20
22.61
11
638.44
21
23.35
0
LINE
8
CUT
10
638.44
20
23.35
11
639.66
21
24.34
0
LINE
8
CUT
10
639.66
20
24.34
11
640.65
21
25.56
0
LINE
8
CUT
10
640.65
20
25.56
11
641.39
21
26.94
0
LINE
8
CUT
10
641.39
20
26.94
11
641.85
21
28.44
0
LINE
8
CUT
10
641.85
20
28.44
11
642
21
30
0
LINE
8
CUT
10
642
20
30
11
642
21
30
0
LINE
8
CUT
10
642
20
30
11
641.85
21
31.56
0
LINE
8
CUT
10
641.85
20
31.56
11
641.39
21
33.06
0
LINE
8
CUT
10
641.39
20
33.06
11
640.65
21
34.44
0
LINE
8
CUT
10
640.65
20
34.44
11
639.66
21
35.66
0
LINE
8
CUT
10
639.66
20
35.66
11
638.44
21
36.65
0
LINE
8
CUT
10
638.44
20
36.65
11
637.06
21
37.39
0
LINE
8
CUT
10
637.06
20
37.39
11
635.56
21
37.85
0
LINE
8
CUT
10
635.56
20
37.85
11
634
21
38
0
LINE
8
CUT
10
634
20
38
11
608
21
38
0
LINE
8
CUT
10
608
20
38
11
606.44
21
37.85
0
LINE
8
CUT
10
606.44
20
37.85
11
604.94
21
37.39
0
LINE
8
CUT
10
604.94
20
37.39
11
603.56
21
36.65
0
LINE
8
CUT
10
603.56
20
36.65
11
602.34
21
35.66
0
LINE
8
CUT
10
602.34
20
35.66
11
601.35
21
34.44
0
LINE
8
CUT
10
601.35
20
34.44
11
600.61
21
33.06
0
LINE
8
CUT
10
600.61
20
33.06
11
600.15
21
31.56
0
LINE
8
CUT
10
600.15
20
31.56
11
600
21
30
0
LINE
8
CUT
10
600
20
30
11
600
21
30
0
LINE
8
CUT
10
18
20
278
11
18.15
21
276.44
0
LINE
8
CUT
10
18.15
20
276.44
11
18.61
21
274.94
0
LINE
8
CUT
10
18.61
20
274.94
11
19.35
21
273.56
0
LINE
8
CUT
10
19.35
20
273.56
11
20.34
21
272.34
0
LINE
8
CUT
10
20.34
20
272.34
11
21.56
21
271.35
0
LINE
8
CUT
10
21.56
20
271.35
11
22.94
21
270.61
0
LINE
8
CUT
10
22.94
20
270.61
11
24.44
21
270.15
0
LINE
8
CUT
10
24.44
20
270.15
11
26
21
270
0
LINE
8
CUT
10
26
20
270
11
52
21
270
0
LINE
8
CUT
10
52
20
270
11
53.56
21
270.15
0
LINE
8
CUT
10
53.56
20
270.15
11
55.06
21
270.61
0
LINE
8
CUT
10
55.06
20
270.61
11
56.44
21
271.35
0
LINE
8
CUT
10
56.44
20
271.35
11
57.66
21
272.34
0
LINE
8
CUT
10
57.66
20
272.34
11
58.65
21
273.56
0
LINE
8
CUT
10
58.65
20
273.56
11
59.39
21
274.94
0
LINE
8
CUT
10
59.39
20
274.94
11
59.85
21
276.44
0
LINE
8
CUT
10
59.85
20
276.44
11
60
21
278
0
LINE
8
CUT
10
60
20
278
11
60
21
278
0
LINE
8
CUT
10
60
20
278
11
59.85
21
279.56
0
LINE
8
CUT
10
59.85
20
279.56
11
59.39
21
281.06
0
LINE
8
CUT
10
59.39
20
281.06
11
58.65
21
282.44
0
LINE
8
CUT
10
58.65
20
282.44
11
57.66
21
283.66
0
LINE
8
CUT
10
57.66
20
283.66
11
56.44
21
284.65
0
LINE
8
CUT
10
56.44
20
284.65
11
55.06
21
285.39
0
LINE
8
CUT
10
55.06
20
285.39
11
53.56
21
285.85
0
LINE
8
CUT
10
53.56
20
285.85
11
52
21
286
0
LINE
8
CUT
10
52
20
286
11
26
21
286
0
LINE
8
CUT
10
26
20
286
11
24.44
21
285.85
0
LINE
8
CUT
10
24.44
20
285.85
11
22.94
21
285.39
0
LINE
8
CUT
10
22.94
20
285.39
11
21.56
21
284.65
0
LINE
8
CUT
10
21.56
20
284.65
11
20.34
21
283.66
0
LINE
8
CUT
10
20.34
20
283.66
11
19.35
21
282.44
0
LINE
8
CUT
10
19.35
20
282.44
11
18.61
21
281.06
0
LINE
8
CUT
10
18.61
20
281.06
11
18.15
21
279.56
0
LINE
8
CUT
10
18.15
20
279.56
11
18
21
278
0
LINE
8
CUT
10
18
20
278
11
18
21
278
0
LINE
8
CUT
10
600
20
278
11
600.15
21
276.44
0
LINE
8
CUT
10
600.15
20
276.44
11
600.61
21
274.94
0
LINE
8
CUT
10
600.61
20
274.94
11
601.35
21
273.56
0
LINE
8
CUT
10
601.35
20
273.56
11
602.34
21
272.34
0
LINE
8
CUT
10
602.34
20
272.34
11
603.56
21
271.35
0
LINE
8
CUT
10
603.56
20
271.35
11
604.94
21
270.61
0
LINE
8
CUT
10
604.94
20
270.61
11
606.44
21
270.15
0
LINE
8
CUT
10
606.44
20
270.15
11
608
21
270
0
LINE
8
CUT
10
608
20
270
11
634
21
270
0
LINE
8
CUT
10
634
20
270
11
635.56
21
270.15
0
LINE
8
CUT
10
635.56
20
270.15
11
637.06
21
270.61
0
LINE
8
CUT
10
637.06
20
270.61
11
638.44
21
271.35
0
LINE
8
CUT
10
638.44
20
271.35
11
639.66
21
272.34
0
LINE
8
CUT
10
639.66
20
272.34
11
640.65
21
273.56
0
LINE
8
CUT
10
640.65
20
273.56
11
641.39
21
274.94
0
LINE
8
CUT
10
641.39
20
274.94
11
641.85
21
276.44
0
LINE
8
CUT
10
641.85
20
276.44
11
642
21
278
0
LINE
8
CUT
10
642
20
278
11
642
21
278
0
LINE
8
CUT
10
642
20
278
11
641.85
21
279.56
0
LINE
8
CUT
10
641.85
20
279.56
11
641.39
21
281.06
0
LINE
8
CUT
10
641.39
20
281.06
11
640.65
21
282.44
0
LINE
8
CUT
10
640.65
20
282.44
11
639.66
21
283.66
0
LINE
8
CUT
10
639.66
20
283.66
11
638.44
21
284.65
0
LINE
8
CUT
10
638.44
20
284.65
11
637.06
21
285.39
0
LINE
8
CUT
10
637.06
20
285.39
11
635.56
21
285.85
0
LINE
8
CUT
10
635.56
20
285.85
11
634
21
286
0
LINE
8
CUT
10
634
20
286
11
608
21
286
0
LINE
8
CUT
10
608
20
286
11
606.44
21
285.85
0
LINE
8
CUT
10
606.44
20
285.85
11
604.94
21
285.39
0
LINE
8
CUT
10
604.94
20
285.39
11
603.56
21
284.65
0
LINE
8
CUT
10
603.56
20
284.65
11
602.34
21
283.66
0
LINE
8
CUT
10
602.34
20
283.66
11
601.35
21
282.44
0
LINE
8
CUT
10
601.35
20
282.44
11
600.61
21
281.06
0
LINE
8
CUT
10
600.61
20
281.06
11
600.15
21
279.56
0
LINE
8
CUT
10
600.15
20
279.56
11
600
21
278
0
LINE
8
CUT
10
600
20
278
11
600
21
278
0
LINE
8
CUT
10
58
20
64
11
58.12
21
62.83
0
LINE
8
CUT
10
58.12
20
62.83
11
58.46
21
61.7
0
LINE
8
CUT
10
58.46
20
61.7
11
59.01
21
60.67
0
LINE
8
CUT
10
59.01
20
60.67
11
59.76
21
59.76
0
LINE
8
CUT
10
59.76
20
59.76
11
60.67
21
59.01
0
LINE
8
CUT
10
60.67
20
59.01
11
61.7
21
58.46
0
LINE
8
CUT
10
61.7
20
58.46
11
62.83
21
58.12
0
LINE
8
CUT
10
62.83
20
58.12
11
64
21
58
0
LINE
8
CUT
10
64
20
58
11
86
21
58
0
LINE
8
CUT
10
86
20
58
11
87.17
21
58.12
0
LINE
8
CUT
10
87.17
20
58.12
11
88.3
21
58.46
0
LINE
8
CUT
10
88.3
20
58.46
11
89.33
21
59.01
0
LINE
8
CUT
10
89.33
20
59.01
11
90.24
21
59.76
0
LINE
8
CUT
10
90.24
20
59.76
11
90.99
21
60.67
0
LINE
8
CUT
10
90.99
20
60.67
11
91.54
21
61.7
0
LINE
8
CUT
10
91.54
20
61.7
11
91.88
21
62.83
0
LINE
8
CUT
10
91.88
20
62.83
11
92
21
64
0
LINE
8
CUT
10
92
20
64
11
92
21
64
0
LINE
8
CUT
10
92
20
64
11
91.88
21
65.17
0
LINE
8
CUT
10
91.88
20
65.17
11
91.54
21
66.3
0
LINE
8
CUT
10
91.54
20
66.3
11
90.99
21
67.33
0
LINE
8
CUT
10
90.99
20
67.33
11
90.24
21
68.24
0
LINE
8
CUT
10
90.24
20
68.24
11
89.33
21
68.99
0
LINE
8
CUT
10
89.33
20
68.99
11
88.3
21
69.54
0
LINE
8
CUT
10
88.3
20
69.54
11
87.17
21
69.88
0
LINE
8
CUT
10
87.17
20
69.88
11
86
21
70
0
LINE
8
CUT
10
86
20
70
11
64
21
70
0
LINE
8
CUT
10
64
20
70
11
62.83
21
69.88
0
LINE
8
CUT
10
62.83
20
69.88
11
61.7
21
69.54
0
LINE
8
CUT
10
61.7
20
69.54
11
60.67
21
68.99
0
LINE
8
CUT
10
60.67
20
68.99
11
59.76
21
68.24
0
LINE
8
CUT
10
59.76
20
68.24
11
59.01
21
67.33
0
LINE
8
CUT
10
59.01
20
67.33
11
58.46
21
66.3
0
LINE
8
CUT
10
58.46
20
66.3
11
58.12
21
65.17
0
LINE
8
CUT
10
58.12
20
65.17
11
58
21
64
0
LINE
8
CUT
10
58
20
64
11
58
21
64
0
LINE
8
CUT
10
218
20
64
11
218.12
21
62.83
0
LINE
8
CUT
10
218.12
20
62.83
11
218.46
21
61.7
0
LINE
8
CUT
10
218.46
20
61.7
11
219.01
21
60.67
0
LINE
8
CUT
10
219.01
20
60.67
11
219.76
21
59.76
0
LINE
8
CUT
10
219.76
20
59.76
11
220.67
21
59.01
0
LINE
8
CUT
10
220.67
20
59.01
11
221.7
21
58.46
0
LINE
8
CUT
10
221.7
20
58.46
11
222.83
21
58.12
0
LINE
8
CUT
10
222.83
20
58.12
11
224
21
58
0
LINE
8
CUT
10
224
20
58
11
246
21
58
0
LINE
8
CUT
10
246
20
58
11
247.17
21
58.12
0
LINE
8
CUT
10
247.17
20
58.12
11
248.3
21
58.46
0
LINE
8
CUT
10
248.3
20
58.46
11
249.33
21
59.01
0
LINE
8
CUT
10
249.33
20
59.01
11
250.24
21
59.76
0
LINE
8
CUT
10
250.24
20
59.76
11
250.99
21
60.67
0
LINE
8
CUT
10
250.99
20
60.67
11
251.54
21
61.7
0
LINE
8
CUT
10
251.54
20
61.7
11
251.88
21
62.83
0
LINE
8
CUT
10
251.88
20
62.83
11
252
21
64
0
LINE
8
CUT
10
252
20
64
11
252
21
64
0
LINE
8
CUT
10
252
20
64
11
251.88
21
65.17
0
LINE
8
CUT
10
251.88
20
65.17
11
251.54
21
66.3
0
LINE
8
CUT
10
251.54
20
66.3
11
250.99
21
67.33
0
LINE
8
CUT
10
250.99
20
67.33
11
250.24
21
68.24
0
LINE
8
CUT
10
250.24
20
68.24
11
249.33
21
68.99
0
LINE
8
CUT
10
249.33
20
68.99
11
248.3
21
69.54
0
LINE
8
CUT
10
248.3
20
69.54
11
247.17
21
69.88
0
LINE
8
CUT
10
247.17
20
69.88
11
246
21
70
0
LINE
8
CUT
10
246
20
70
11
224
21
70
0
LINE
8
CUT
10
224
20
70
11
222.83
21
69.88
0
LINE
8
CUT
10
222.83
20
69.88
11
221.7
21
69.54
0
LINE
8
CUT
10
221.7
20
69.54
11
220.67
21
68.99
0
LINE
8
CUT
10
220.67
20
68.99
11
219.76
21
68.24
0
LINE
8
CUT
10
219.76
20
68.24
11
219.01
21
67.33
0
LINE
8
CUT
10
219.01
20
67.33
11
218.46
21
66.3
0
LINE
8
CUT
10
218.46
20
66.3
11
218.12
21
65.17
0
LINE
8
CUT
10
218.12
20
65.17
11
218
21
64
0
LINE
8
CUT
10
218
20
64
11
218
21
64
0
LINE
8
CUT
10
58
20
232
11
58.12
21
230.83
0
LINE
8
CUT
10
58.12
20
230.83
11
58.46
21
229.7
0
LINE
8
CUT
10
58.46
20
229.7
11
59.01
21
228.67
0
LINE
8
CUT
10
59.01
20
228.67
11
59.76
21
227.76
0
LINE
8
CUT
10
59.76
20
227.76
11
60.67
21
227.01
0
LINE
8
CUT
10
60.67
20
227.01
11
61.7
21
226.46
0
LINE
8
CUT
10
61.7
20
226.46
11
62.83
21
226.12
0
LINE
8
CUT
10
62.83
20
226.12
11
64
21
226
0
LINE
8
CUT
10
64
20
226
11
86
21
226
0
LINE
8
CUT
10
86
20
226
11
87.17
21
226.12
0
LINE
8
CUT
10
87.17
20
226.12
11
88.3
21
226.46
0
LINE
8
CUT
10
88.3
20
226.46
11
89.33
21
227.01
0
LINE
8
CUT
10
89.33
20
227.01
11
90.24
21
227.76
0
LINE
8
CUT
10
90.24
20
227.76
11
90.99
21
228.67
0
LINE
8
CUT
10
90.99
20
228.67
11
91.54
21
229.7
0
LINE
8
CUT
10
91.54
20
229.7
11
91.88
21
230.83
0
LINE
8
CUT
10
91.88
20
230.83
11
92
21
232
0
LINE
8
CUT
10
92
20
232
11
92
21
232
0
LINE
8
CUT
10
92
20
232
11
91.88
21
233.17
0
LINE
8
CUT
10
91.88
20
233.17
11
91.54
21
234.3
0
LINE
8
CUT
10
91.54
20
234.3
11
90.99
21
235.33
0
LINE
8
CUT
10
90.99
20
235.33
11
90.24
21
236.24
0
LINE
8
CUT
10
90.24
20
236.24
11
89.33
21
236.99
0
LINE
8
CUT
10
89.33
20
236.99
11
88.3
21
237.54
0
LINE
8
CUT
10
88.3
20
237.54
11
87.17
21
237.88
0
LINE
8
CUT
10
87.17
20
237.88
11
86
21
238
0
LINE
8
CUT
10
86
20
238
11
64
21
238
0
LINE
8
CUT
10
64
20
238
11
62.83
21
237.88
0
LINE
8
CUT
10
62.83
20
237.88
11
61.7
21
237.54
0
LINE
8
CUT
10
61.7
20
237.54
11
60.67
21
236.99
0
LINE
8
CUT
10
60.67
20
236.99
11
59.76
21
236.24
0
LINE
8
CUT
10
59.76
20
236.24
11
59.01
21
235.33
0
LINE
8
CUT
10
59.01
20
235.33
11
58.46
21
234.3
0
LINE
8
CUT
10
58.46
20
234.3
11
58.12
21
233.17
0
LINE
8
CUT
10
58.12
20
233.17
11
58
21
232
0
LINE
8
CUT
10
58
20
232
11
58
21
232
0
LINE
8
CUT
10
218
20
232
11
218.12
21
230.83
0
LINE
8
CUT
10
218.12
20
230.83
11
218.46
21
229.7
0
LINE
8
CUT
10
218.46
20
229.7
11
219.01
21
228.67
0
LINE
8
CUT
10
219.01
20
228.67
11
219.76
21
227.76
0
LINE
8
CUT
10
219.76
20
227.76
11
220.67
21
227.01
0
LINE
8
CUT
10
220.67
20
227.01
11
221.7
21
226.46
0
LINE
8
CUT
10
221.7
20
226.46
11
222.83
21
226.12
0
LINE
8
CUT
10
222.83
20
226.12
11
224
21
226
0
LINE
8
CUT
10
224
20
226
11
246
21
226
0
LINE
8
CUT
10
246
20
226
11
247.17
21
226.12
0
LINE
8
CUT
10
247.17
20
226.12
11
248.3
21
226.46
0
LINE
8
CUT
10
248.3
20
226.46
11
249.33
21
227.01
0
LINE
8
CUT
10
249.33
20
227.01
11
250.24
21
227.76
0
LINE
8
CUT
10
250.24
20
227.76
11
250.99
21
228.67
0
LINE
8
CUT
10
250.99
20
228.67
11
251.54
21
229.7
0
LINE
8
CUT
10
251.54
20
229.7
11
251.88
21
230.83
0
LINE
8
CUT
10
251.88
20
230.83
11
252
21
232
0
LINE
8
CUT
10
252
20
232
11
252
21
232
0
LINE
8
CUT
10
252
20
232
11
251.88
21
233.17
0
LINE
8
CUT
10
251.88
20
233.17
11
251.54
21
234.3
0
LINE
8
CUT
10
251.54
20
234.3
11
250.99
21
235.33
0
LINE
8
CUT
10
250.99
20
235.33
11
250.24
21
236.24
0
LINE
8
CUT
10
250.24
20
236.24
11
249.33
21
236.99
0
LINE
8
CUT
10
249.33
20
236.99
11
248.3
21
237.54
0
LINE
8
CUT
10
248.3
20
237.54
11
247.17
21
237.88
0
LINE
8
CUT
10
247.17
20
237.88
11
246
21
238
0
LINE
8
CUT
10
246
20
238
11
224
21
238
0
LINE
8
CUT
10
224
20
238
11
222.83
21
237.88
0
LINE
8
CUT
10
222.83
20
237.88
11
221.7
21
237.54
0
LINE
8
CUT
10
221.7
20
237.54
11
220.67
21
236.99
0
LINE
8
CUT
10
220.67
20
236.99
11
219.76
21
236.24
0
LINE
8
CUT
10
219.76
20
236.24
11
219.01
21
235.33
0
LINE
8
CUT
10
219.01
20
235.33
11
218.46
21
234.3
0
LINE
8
CUT
10
218.46
20
234.3
11
218.12
21
233.17
0
LINE
8
CUT
10
218.12
20
233.17
11
218
21
232
0
LINE
8
CUT
10
218
20
232
11
218
21
232
0
LINE
8
CUT
10
438
20
118
11
438.12
21
116.83
0
LINE
8
CUT
10
438.12
20
116.83
11
438.46
21
115.7
0
LINE
8
CUT
10
438.46
20
115.7
11
439.01
21
114.67
0
LINE
8
CUT
10
439.01
20
114.67
11
439.76
21
113.76
0
LINE
8
CUT
10
439.76
20
113.76
11
440.67
21
113.01
0
LINE
8
CUT
10
440.67
20
113.01
11
441.7
21
112.46
0
LINE
8
CUT
10
441.7
20
112.46
11
442.83
21
112.12
0
LINE
8
CUT
10
442.83
20
112.12
11
444
21
112
0
LINE
8
CUT
10
444
20
112
11
460
21
112
0
LINE
8
CUT
10
460
20
112
11
461.17
21
112.12
0
LINE
8
CUT
10
461.17
20
112.12
11
462.3
21
112.46
0
LINE
8
CUT
10
462.3
20
112.46
11
463.33
21
113.01
0
LINE
8
CUT
10
463.33
20
113.01
11
464.24
21
113.76
0
LINE
8
CUT
10
464.24
20
113.76
11
464.99
21
114.67
0
LINE
8
CUT
10
464.99
20
114.67
11
465.54
21
115.7
0
LINE
8
CUT
10
465.54
20
115.7
11
465.88
21
116.83
0
LINE
8
CUT
10
465.88
20
116.83
11
466
21
118
0
LINE
8
CUT
10
466
20
118
11
466
21
118
0
LINE
8
CUT
10
466
20
118
11
465.88
21
119.17
0
LINE
8
CUT
10
465.88
20
119.17
11
465.54
21
120.3
0
LINE
8
CUT
10
465.54
20
120.3
11
464.99
21
121.33
0
LINE
8
CUT
10
464.99
20
121.33
11
464.24
21
122.24
0
LINE
8
CUT
10
464.24
20
122.24
11
463.33
21
122.99
0
LINE
8
CUT
10
463.33
20
122.99
11
462.3
21
123.54
0
LINE
8
CUT
10
462.3
20
123.54
11
461.17
21
123.88
0
LINE
8
CUT
10
461.17
20
123.88
11
460
21
124
0
LINE
8
CUT
10
460
20
124
11
444
21
124
0
LINE
8
CUT
10
444
20
124
11
442.83
21
123.88
0
LINE
8
CUT
10
442.83
20
123.88
11
441.7
21
123.54
0
LINE
8
CUT
10
441.7
20
123.54
11
440.67
21
122.99
0
LINE
8
CUT
10
440.67
20
122.99
11
439.76
21
122.24
0
LINE
8
CUT
10
439.76
20
122.24
11
439.01
21
121.33
0
LINE
8
CUT
10
439.01
20
121.33
11
438.46
21
120.3
0
LINE
8
CUT
10
438.46
20
120.3
11
438.12
21
119.17
0
LINE
8
CUT
10
438.12
20
119.17
11
438
21
118
0
LINE
8
CUT
10
438
20
118
11
438
21
118
0
LINE
8
CUT
10
488
20
118
11
488.12
21
116.83
0
LINE
8
CUT
10
488.12
20
116.83
11
488.46
21
115.7
0
LINE
8
CUT
10
488.46
20
115.7
11
489.01
21
114.67
0
LINE
8
CUT
10
489.01
20
114.67
11
489.76
21
113.76
0
LINE
8
CUT
10
489.76
20
113.76
11
490.67
21
113.01
0
LINE
8
CUT
10
490.67
20
113.01
11
491.7
21
112.46
0
LINE
8
CUT
10
491.7
20
112.46
11
492.83
21
112.12
0
LINE
8
CUT
10
492.83
20
112.12
11
494
21
112
0
LINE
8
CUT
10
494
20
112
11
510
21
112
0
LINE
8
CUT
10
510
20
112
11
511.17
21
112.12
0
LINE
8
CUT
10
511.17
20
112.12
11
512.3
21
112.46
0
LINE
8
CUT
10
512.3
20
112.46
11
513.33
21
113.01
0
LINE
8
CUT
10
513.33
20
113.01
11
514.24
21
113.76
0
LINE
8
CUT
10
514.24
20
113.76
11
514.99
21
114.67
0
LINE
8
CUT
10
514.99
20
114.67
11
515.54
21
115.7
0
LINE
8
CUT
10
515.54
20
115.7
11
515.88
21
116.83
0
LINE
8
CUT
10
515.88
20
116.83
11
516
21
118
0
LINE
8
CUT
10
516
20
118
11
516
21
118
0
LINE
8
CUT
10
516
20
118
11
515.88
21
119.17
0
LINE
8
CUT
10
515.88
20
119.17
11
515.54
21
120.3
0
LINE
8
CUT
10
515.54
20
120.3
11
514.99
21
121.33
0
LINE
8
CUT
10
514.99
20
121.33
11
514.24
21
122.24
0
LINE
8
CUT
10
514.24
20
122.24
11
513.33
21
122.99
0
LINE
8
CUT
10
513.33
20
122.99
11
512.3
21
123.54
0
LINE
8
CUT
10
512.3
20
123.54
11
511.17
21
123.88
0
LINE
8
CUT
10
511.17
20
123.88
11
510
21
124
0
LINE
8
CUT
10
510
20
124
11
494
21
124
0
LINE
8
CUT
10
494
20
124
11
492.83
21
123.88
0
LINE
8
CUT
10
492.83
20
123.88
11
491.7
21
123.54
0
LINE
8
CUT
10
491.7
20
123.54
11
490.67
21
122.99
0
LINE
8
CUT
10
490.67
20
122.99
11
489.76
21
122.24
0
LINE
8
CUT
10
489.76
20
122.24
11
489.01
21
121.33
0
LINE
8
CUT
10
489.01
20
121.33
11
488.46
21
120.3
0
LINE
8
CUT
10
488.46
20
120.3
11
488.12
21
119.17
0
LINE
8
CUT
10
488.12
20
119.17
11
488
21
118
0
LINE
8
CUT
10
488
20
118
11
488
21
118
0
LINE
8
CUT
10
438
20
190
11
438.12
21
188.83
0
LINE
8
CUT
10
438.12
20
188.83
11
438.46
21
187.7
0
LINE
8
CUT
10
438.46
20
187.7
11
439.01
21
186.67
0
LINE
8
CUT
10
439.01
20
186.67
11
439.76
21
185.76
0
LINE
8
CUT
10
439.76
20
185.76
11
440.67
21
185.01
0
LINE
8
CUT
10
440.67
20
185.01
11
441.7
21
184.46
0
LINE
8
CUT
10
441.7
20
184.46
11
442.83
21
184.12
0
LINE
8
CUT
10
442.83
20
184.12
11
444
21
184
0
LINE
8
CUT
10
444
20
184
11
460
21
184
0
LINE
8
CUT
10
460
20
184
11
461.17
21
184.12
0
LINE
8
CUT
10
461.17
20
184.12
11
462.3
21
184.46
0
LINE
8
CUT
10
462.3
20
184.46
11
463.33
21
185.01
0
LINE
8
CUT
10
463.33
20
185.01
11
464.24
21
185.76
0
LINE
8
CUT
10
464.24
20
185.76
11
464.99
21
186.67
0
LINE
8
CUT
10
464.99
20
186.67
11
465.54
21
187.7
0
LINE
8
CUT
10
465.54
20
187.7
11
465.88
21
188.83
0
LINE
8
CUT
10
465.88
20
188.83
11
466
21
190
0
LINE
8
CUT
10
466
20
190
11
466
21
190
0
LINE
8
CUT
10
466
20
190
11
465.88
21
191.17
0
LINE
8
CUT
10
465.88
20
191.17
11
465.54
21
192.3
0
LINE
8
CUT
10
465.54
20
192.3
11
464.99
21
193.33
0
LINE
8
CUT
10
464.99
20
193.33
11
464.24
21
194.24
0
LINE
8
CUT
10
464.24
20
194.24
11
463.33
21
194.99
0
LINE
8
CUT
10
463.33
20
194.99
11
462.3
21
195.54
0
LINE
8
CUT
10
462.3
20
195.54
11
461.17
21
195.88
0
LINE
8
CUT
10
461.17
20
195.88
11
460
21
196
0
LINE
8
CUT
10
460
20
196
11
444
21
196
0
LINE
8
CUT
10
444
20
196
11
442.83
21
195.88
0
LINE
8
CUT
10
442.83
20
195.88
11
441.7
21
195.54
0
LINE
8
CUT
10
441.7
20
195.54
11
440.67
21
194.99
0
LINE
8
CUT
10
440.67
20
194.99
11
439.76
21
194.24
0
LINE
8
CUT
10
439.76
20
194.24
11
439.01
21
193.33
0
LINE
8
CUT
10
439.01
20
193.33
11
438.46
21
192.3
0
LINE
8
CUT
10
438.46
20
192.3
11
438.12
21
191.17
0
LINE
8
CUT
10
438.12
20
191.17
11
438
21
190
0
LINE
8
CUT
10
438
20
190
11
438
21
190
0
LINE
8
CUT
10
488
20
190
11
488.12
21
188.83
0
LINE
8
CUT
10
488.12
20
188.83
11
488.46
21
187.7
0
LINE
8
CUT
10
488.46
20
187.7
11
489.01
21
186.67
0
LINE
8
CUT
10
489.01
20
186.67
11
489.76
21
185.76
0
LINE
8
CUT
10
489.76
20
185.76
11
490.67
21
185.01
0
LINE
8
CUT
10
490.67
20
185.01
11
491.7
21
184.46
0
LINE
8
CUT
10
491.7
20
184.46
11
492.83
21
184.12
0
LINE
8
CUT
10
492.83
20
184.12
11
494
21
184
0
LINE
8
CUT
10
494
20
184
11
510
21
184
0
LINE
8
CUT
10
510
20
184
11
511.17
21
184.12
0
LINE
8
CUT
10
511.17
20
184.12
11
512.3
21
184.46
0
LINE
8
CUT
10
512.3
20
184.46
11
513.33
21
185.01
0
LINE
8
CUT
10
513.33
20
185.01
11
514.24
21
185.76
0
LINE
8
CUT
10
514.24
20
185.76
11
514.99
21
186.67
0
LINE
8
CUT
10
514.99
20
186.67
11
515.54
21
187.7
0
LINE
8
CUT
10
515.54
20
187.7
11
515.88
21
188.83
0
LINE
8
CUT
10
515.88
20
188.83
11
516
21
190
0
LINE
8
CUT
10
516
20
190
11
516
21
190
0
LINE
8
CUT
10
516
20
190
11
515.88
21
191.17
0
LINE
8
CUT
10
515.88
20
191.17
11
515.54
21
192.3
0
LINE
8
CUT
10
515.54
20
192.3
11
514.99
21
193.33
0
LINE
8
CUT
10
514.99
20
193.33
11
514.24
21
194.24
0
LINE
8
CUT
10
514.24
20
194.24
11
513.33
21
194.99
0
LINE
8
CUT
10
513.33
20
194.99
11
512.3
21
195.54
0
LINE
8
CUT
10
512.3
20
195.54
11
511.17
21
195.88
0
LINE
8
CUT
10
511.17
20
195.88
11
510
21
196
0
LINE
8
CUT
10
510
20
196
11
494
21
196
0
LINE
8
CUT
10
494
20
196
11
492.83
21
195.88
0
LINE
8
CUT
10
492.83
20
195.88
11
491.7
21
195.54
0
LINE
8
CUT
10
491.7
20
195.54
11
490.67
21
194.99
0
LINE
8
CUT
10
490.67
20
194.99
11
489.76
21
194.24
0
LINE
8
CUT
10
489.76
20
194.24
11
489.01
21
193.33
0
LINE
8
CUT
10
489.01
20
193.33
11
488.46
21
192.3
0
LINE
8
CUT
10
488.46
20
192.3
11
488.12
21
191.17
0
LINE
8
CUT
10
488.12
20
191.17
11
488
21
190
0
LINE
8
CUT
10
488
20
190
11
488
21
190
0
CIRCLE
8
CUT
10
74
20
86
40
3.25
0
CIRCLE
8
CUT
10
132
20
136
40
3.25
0
CIRCLE
8
CUT
10
74
20
244
40
3.25
0
CIRCLE
8
CUT
10
392
20
244
40
3.25
0
CIRCLE
8
CUT
10
427
20
244
40
3.25
0
CIRCLE
8
CUT
10
462
20
244
40
3.25
0
CIRCLE
8
CUT
10
497
20
244
40
3.25
0
CIRCLE
8
CUT
10
532
20
244
40
3.25
0
CIRCLE
8
CUT
10
497
20
278
40
3.25
0
CIRCLE
8
CUT
10
566
20
278
40
3.25
0
CIRCLE
8
CUT
10
610
20
146
40
3.25
0
ENDSEC
0
EOF
