0
SECTION
2
HEADER
9
$INSUNITS
70
4
0
ENDSEC
0
SECTION
2
ENTITIES
0
LINE
8
CUT
10
0
20
0
11
220
21
0
0
LINE
8
CUT
10
220
20
0
11
220
21
140
0
LINE
8
CUT
10
220
20
140
11
0
21
140
0
LINE
8
CUT
10
0
20
140
11
0
21
0
0
LINE
8
CUT
10
20
20
36
11
20.15
21
34.44
0
LINE
8
CUT
10
20.15
20
34.44
11
20.61
21
32.94
0
LINE
8
CUT
10
20.61
20
32.94
11
21.35
21
31.56
0
LINE
8
CUT
10
21.35
20
31.56
11
22.34
21
30.34
0
LINE
8
CUT
10
22.34
20
30.34
11
23.56
21
29.35
0
LINE
8
CUT
10
23.56
20
29.35
11
24.94
21
28.61
0
LINE
8
CUT
10
24.94
20
28.61
11
26.44
21
28.15
0
LINE
8
CUT
10
26.44
20
28.15
11
28
21
28
0
LINE
8
CUT
10
28
20
28
11
50
21
28
0
LINE
8
CUT
10
50
20
28
11
51.56
21
28.15
0
LINE
8
CUT
10
51.56
20
28.15
11
53.06
21
28.61
0
LINE
8
CUT
10
53.06
20
28.61
11
54.44
21
29.35
0
LINE
8
CUT
10
54.44
20
29.35
11
55.66
21
30.34
0
LINE
8
CUT
10
55.66
20
30.34
11
56.65
21
31.56
0
LINE
8
CUT
10
56.65
20
31.56
11
57.39
21
32.94
0
LINE
8
CUT
10
57.39
20
32.94
11
57.85
21
34.44
0
LINE
8
CUT
10
57.85
20
34.44
11
58
21
36
0
LINE
8
CUT
10
58
20
36
11
58
21
36
0
LINE
8
CUT
10
58
20
36
11
57.85
21
37.56
0
LINE
8
CUT
10
57.85
20
37.56
11
57.39
21
39.06
0
LINE
8
CUT
10
57.39
20
39.06
11
56.65
21
40.44
0
LINE
8
CUT
10
56.65
20
40.44
11
55.66
21
41.66
0
LINE
8
CUT
10
55.66
20
41.66
11
54.44
21
42.65
0
LINE
8
CUT
10
54.44
20
42.65
11
53.06
21
43.39
0
LINE
8
CUT
10
53.06
20
43.39
11
51.56
21
43.85
0
LINE
8
CUT
10
51.56
20
43.85
11
50
21
44
0
LINE
8
CUT
10
50
20
44
11
28
21
44
0
LINE
8
CUT
10
28
20
44
11
26.44
21
43.85
0
LINE
8
CUT
10
26.44
20
43.85
11
24.94
21
43.39
0
LINE
8
CUT
10
24.94
20
43.39
11
23.56
21
42.65
0
LINE
8
CUT
10
23.56
20
42.65
11
22.34
21
41.66
0
LINE
8
CUT
10
22.34
20
41.66
11
21.35
21
40.44
0
LINE
8
CUT
10
21.35
20
40.44
11
20.61
21
39.06
0
LINE
8
CUT
10
20.61
20
39.06
11
20.15
21
37.56
0
LINE
8
CUT
10
20.15
20
37.56
11
20
21
36
0
LINE
8
CUT
10
20
20
36
11
20
21
36
0
LINE
8
CUT
10
162
20
36
11
162.15
21
34.44
0
LINE
8
CUT
10
162.15
20
34.44
11
162.61
21
32.94
0
LINE
8
CUT
10
162.61
20
32.94
11
163.35
21
31.56
0
LINE
8
CUT
10
163.35
20
31.56
11
164.34
21
30.34
0
LINE
8
CUT
10
164.34
20
30.34
11
165.56
21
29.35
0
LINE
8
CUT
10
165.56
20
29.35
11
166.94
21
28.61
0
LINE
8
CUT
10
166.94
20
28.61
11
168.44
21
28.15
0
LINE
8
CUT
10
168.44
20
28.15
11
170
21
28
0
LINE
8
CUT
10
170
20
28
11
192
21
28
0
LINE
8
CUT
10
192
20
28
11
193.56
21
28.15
0
LINE
8
CUT
10
193.56
20
28.15
11
195.06
21
28.61
0
LINE
8
CUT
10
195.06
20
28.61
11
196.44
21
29.35
0
LINE
8
CUT
10
196.44
20
29.35
11
197.66
21
30.34
0
LINE
8
CUT
10
197.66
20
30.34
11
198.65
21
31.56
0
LINE
8
CUT
10
198.65
20
31.56
11
199.39
21
32.94
0
LINE
8
CUT
10
199.39
20
32.94
11
199.85
21
34.44
0
LINE
8
CUT
10
199.85
20
34.44
11
200
21
36
0
LINE
8
CUT
10
200
20
36
11
200
21
36
0
LINE
8
CUT
10
200
20
36
11
199.85
21
37.56
0
LINE
8
CUT
10
199.85
20
37.56
11
199.39
21
39.06
0
LINE
8
CUT
10
199.39
20
39.06
11
198.65
21
40.44
0
LINE
8
CUT
10
198.65
20
40.44
11
197.66
21
41.66
0
LINE
8
CUT
10
197.66
20
41.66
11
196.44
21
42.65
0
LINE
8
CUT
10
196.44
20
42.65
11
195.06
21
43.39
0
LINE
8
CUT
10
195.06
20
43.39
11
193.56
21
43.85
0
LINE
8
CUT
10
193.56
20
43.85
11
192
21
44
0
LINE
8
CUT
10
192
20
44
11
170
21
44
0
LINE
8
CUT
10
170
20
44
11
168.44
21
43.85
0
LINE
8
CUT
10
168.44
20
43.85
11
166.94
21
43.39
0
LINE
8
CUT
10
166.94
20
43.39
11
165.56
21
42.65
0
LINE
8
CUT
10
165.56
20
42.65
11
164.34
21
41.66
0
LINE
8
CUT
10
164.34
20
41.66
11
163.35
21
40.44
0
LINE
8
CUT
10
163.35
20
40.44
11
162.61
21
39.06
0
LINE
8
CUT
10
162.61
20
39.06
11
162.15
21
37.56
0
LINE
8
CUT
10
162.15
20
37.56
11
162
21
36
0
LINE
8
CUT
10
162
20
36
11
162
21
36
0
LINE
8
CUT
10
20
20
104
11
20.15
21
102.44
0
LINE
8
CUT
10
20.15
20
102.44
11
20.61
21
100.94
0
LINE
8
CUT
10
20.61
20
100.94
11
21.35
21
99.56
0
LINE
8
CUT
10
21.35
20
99.56
11
22.34
21
98.34
0
LINE
8
CUT
10
22.34
20
98.34
11
23.56
21
97.35
0
LINE
8
CUT
10
23.56
20
97.35
11
24.94
21
96.61
0
LINE
8
CUT
10
24.94
20
96.61
11
26.44
21
96.15
0
LINE
8
CUT
10
26.44
20
96.15
11
28
21
96
0
LINE
8
CUT
10
28
20
96
11
50
21
96
0
LINE
8
CUT
10
50
20
96
11
51.56
21
96.15
0
LINE
8
CUT
10
51.56
20
96.15
11
53.06
21
96.61
0
LINE
8
CUT
10
53.06
20
96.61
11
54.44
21
97.35
0
LINE
8
CUT
10
54.44
20
97.35
11
55.66
21
98.34
0
LINE
8
CUT
10
55.66
20
98.34
11
56.65
21
99.56
0
LINE
8
CUT
10
56.65
20
99.56
11
57.39
21
100.94
0
LINE
8
CUT
10
57.39
20
100.94
11
57.85
21
102.44
0
LINE
8
CUT
10
57.85
20
102.44
11
58
21
104
0
LINE
8
CUT
10
58
20
104
11
58
21
104
0
LINE
8
CUT
10
58
20
104
11
57.85
21
105.56
0
LINE
8
CUT
10
57.85
20
105.56
11
57.39
21
107.06
0
LINE
8
CUT
10
57.39
20
107.06
11
56.65
21
108.44
0
LINE
8
CUT
10
56.65
20
108.44
11
55.66
21
109.66
0
LINE
8
CUT
10
55.66
20
109.66
11
54.44
21
110.65
0
LINE
8
CUT
10
54.44
20
110.65
11
53.06
21
111.39
0
LINE
8
CUT
10
53.06
20
111.39
11
51.56
21
111.85
0
LINE
8
CUT
10
51.56
20
111.85
11
50
21
112
0
LINE
8
CUT
10
50
20
112
11
28
21
112
0
LINE
8
CUT
10
28
20
112
11
26.44
21
111.85
0
LINE
8
CUT
10
26.44
20
111.85
11
24.94
21
111.39
0
LINE
8
CUT
10
24.94
20
111.39
11
23.56
21
110.65
0
LINE
8
CUT
10
23.56
20
110.65
11
22.34
21
109.66
0
LINE
8
CUT
10
22.34
20
109.66
11
21.35
21
108.44
0
LINE
8
CUT
10
21.35
20
108.44
11
20.61
21
107.06
0
LINE
8
CUT
10
20.61
20
107.06
11
20.15
21
105.56
0
LINE
8
CUT
10
20.15
20
105.56
11
20
21
104
0
LINE
8
CUT
10
20
20
104
11
20
21
104
0
LINE
8
CUT
10
162
20
104
11
162.15
21
102.44
0
LINE
8
CUT
10
162.15
20
102.44
11
162.61
21
100.94
0
LINE
8
CUT
10
162.61
20
100.94
11
163.35
21
99.56
0
LINE
8
CUT
10
163.35
20
99.56
11
164.34
21
98.34
0
LINE
8
CUT
10
164.34
20
98.34
11
165.56
21
97.35
0
LINE
8
CUT
10
165.56
20
97.35
11
166.94
21
96.61
0
LINE
8
CUT
10
166.94
20
96.61
11
168.44
21
96.15
0
LINE
8
CUT
10
168.44
20
96.15
11
170
21
96
0
LINE
8
CUT
10
170
20
96
11
192
21
96
0
LINE
8
CUT
10
192
20
96
11
193.56
21
96.15
0
LINE
8
CUT
10
193.56
20
96.15
11
195.06
21
96.61
0
LINE
8
CUT
10
195.06
20
96.61
11
196.44
21
97.35
0
LINE
8
CUT
10
196.44
20
97.35
11
197.66
21
98.34
0
LINE
8
CUT
10
197.66
20
98.34
11
198.65
21
99.56
0
LINE
8
CUT
10
198.65
20
99.56
11
199.39
21
100.94
0
LINE
8
CUT
10
199.39
20
100.94
11
199.85
21
102.44
0
LINE
8
CUT
10
199.85
20
102.44
11
200
21
104
0
LINE
8
CUT
10
200
20
104
11
200
21
104
0
LINE
8
CUT
10
200
20
104
11
199.85
21
105.56
0
LINE
8
CUT
10
199.85
20
105.56
11
199.39
21
107.06
0
LINE
8
CUT
10
199.39
20
107.06
11
198.65
21
108.44
0
LINE
8
CUT
10
198.65
20
108.44
11
197.66
21
109.66
0
LINE
8
CUT
10
197.66
20
109.66
11
196.44
21
110.65
0
LINE
8
CUT
10
196.44
20
110.65
11
195.06
21
111.39
0
LINE
8
CUT
10
195.06
20
111.39
11
193.56
21
111.85
0
LINE
8
CUT
10
193.56
20
111.85
11
192
21
112
0
LINE
8
CUT
10
192
20
112
11
170
21
112
0
LINE
8
CUT
10
170
20
112
11
168.44
21
111.85
0
LINE
8
CUT
10
168.44
20
111.85
11
166.94
21
111.39
0
LINE
8
CUT
10
166.94
20
111.39
11
165.56
21
110.65
0
LINE
8
CUT
10
165.56
20
110.65
11
164.34
21
109.66
0
LINE
8
CUT
10
164.34
20
109.66
11
163.35
21
108.44
0
LINE
8
CUT
10
163.35
20
108.44
11
162.61
21
107.06
0
LINE
8
CUT
10
162.61
20
107.06
11
162.15
21
105.56
0
LINE
8
CUT
10
162.15
20
105.56
11
162
21
104
0
LINE
8
CUT
10
162
20
104
11
162
21
104
0
LINE
8
CUT
10
84
20
35
11
84.13
21
33.63
0
LINE
8
CUT
10
84.13
20
33.63
11
84.53
21
32.32
0
LINE
8
CUT
10
84.53
20
32.32
11
85.18
21
31.11
0
LINE
8
CUT
10
85.18
20
31.11
11
86.05
21
30.05
0
LINE
8
CUT
10
86.05
20
30.05
11
87.11
21
29.18
0
LINE
8
CUT
10
87.11
20
29.18
11
88.32
21
28.53
0
LINE
8
CUT
10
88.32
20
28.53
11
89.63
21
28.13
0
LINE
8
CUT
10
89.63
20
28.13
11
91
21
28
0
LINE
8
CUT
10
91
20
28
11
91
21
28
0
LINE
8
CUT
10
91
20
28
11
92.37
21
28.13
0
LINE
8
CUT
10
92.37
20
28.13
11
93.68
21
28.53
0
LINE
8
CUT
10
93.68
20
28.53
11
94.89
21
29.18
0
LINE
8
CUT
10
94.89
20
29.18
11
95.95
21
30.05
0
LINE
8
CUT
10
95.95
20
30.05
11
96.82
21
31.11
0
LINE
8
CUT
10
96.82
20
31.11
11
97.47
21
32.32
0
LINE
8
CUT
10
97.47
20
32.32
11
97.87
21
33.63
0
LINE
8
CUT
10
97.87
20
33.63
11
98
21
35
0
LINE
8
CUT
10
98
20
35
11
98
21
55
0
LINE
8
CUT
10
98
20
55
11
97.87
21
56.37
0
LINE
8
CUT
10
97.87
20
56.37
11
97.47
21
57.68
0
LINE
8
CUT
10
97.47
20
57.68
11
96.82
21
58.89
0
LINE
8
CUT
10
96.82
20
58.89
11
95.95
21
59.95
0
LINE
8
CUT
10
95.95
20
59.95
11
94.89
21
60.82
0
LINE
8
CUT
10
94.89
20
60.82
11
93.68
21
61.47
0
LINE
8
CUT
10
93.68
20
61.47
11
92.37
21
61.87
0
LINE
8
CUT
10
92.37
20
61.87
11
91
21
62
0
LINE
8
CUT
10
91
20
62
11
91
21
62
0
LINE
8
CUT
10
91
20
62
11
89.63
21
61.87
0
LINE
8
CUT
10
89.63
20
61.87
11
88.32
21
61.47
0
LINE
8
CUT
10
88.32
20
61.47
11
87.11
21
60.82
0
LINE
8
CUT
10
87.11
20
60.82
11
86.05
21
59.95
0
LINE
8
CUT
10
86.05
20
59.95
11
85.18
21
58.89
0
LINE
8
CUT
10
85.18
20
58.89
11
84.53
21
57.68
0
LINE
8
CUT
10
84.53
20
57.68
11
84.13
21
56.37
0
LINE
8
CUT
10
84.13
20
56.37
11
84
21
55
0
LINE
8
CUT
10
84
20
55
11
84
21
35
0
LINE
8
CUT
10
122
20
35
11
122.13
21
33.63
0
LINE
8
CUT
10
122.13
20
33.63
11
122.53
21
32.32
0
LINE
8
CUT
10
122.53
20
32.32
11
123.18
21
31.11
0
LINE
8
CUT
10
123.18
20
31.11
11
124.05
21
30.05
0
LINE
8
CUT
10
124.05
20
30.05
11
125.11
21
29.18
0
LINE
8
CUT
10
125.11
20
29.18
11
126.32
21
28.53
0
LINE
8
CUT
10
126.32
20
28.53
11
127.63
21
28.13
0
LINE
8
CUT
10
127.63
20
28.13
11
129
21
28
0
LINE
8
CUT
10
129
20
28
11
129
21
28
0
LINE
8
CUT
10
129
20
28
11
130.37
21
28.13
0
LINE
8
CUT
10
130.37
20
28.13
11
131.68
21
28.53
0
LINE
8
CUT
10
131.68
20
28.53
11
132.89
21
29.18
0
LINE
8
CUT
10
132.89
20
29.18
11
133.95
21
30.05
0
LINE
8
CUT
10
133.95
20
30.05
11
134.82
21
31.11
0
LINE
8
CUT
10
134.82
20
31.11
11
135.47
21
32.32
0
LINE
8
CUT
10
135.47
20
32.32
11
135.87
21
33.63
0
LINE
8
CUT
10
135.87
20
33.63
11
136
21
35
0
LINE
8
CUT
10
136
20
35
11
136
21
55
0
LINE
8
CUT
10
136
20
55
11
135.87
21
56.37
0
LINE
8
CUT
10
135.87
20
56.37
11
135.47
21
57.68
0
LINE
8
CUT
10
135.47
20
57.68
11
134.82
21
58.89
0
LINE
8
CUT
10
134.82
20
58.89
11
133.95
21
59.95
0
LINE
8
CUT
10
133.95
20
59.95
11
132.89
21
60.82
0
LINE
8
CUT
10
132.89
20
60.82
11
131.68
21
61.47
0
LINE
8
CUT
10
131.68
20
61.47
11
130.37
21
61.87
0
LINE
8
CUT
10
130.37
20
61.87
11
129
21
62
0
LINE
8
CUT
10
129
20
62
11
129
21
62
0
LINE
8
CUT
10
129
20
62
11
127.63
21
61.87
0
LINE
8
CUT
10
127.63
20
61.87
11
126.32
21
61.47
0
LINE
8
CUT
10
126.32
20
61.47
11
125.11
21
60.82
0
LINE
8
CUT
10
125.11
20
60.82
11
124.05
21
59.95
0
LINE
8
CUT
10
124.05
20
59.95
11
123.18
21
58.89
0
LINE
8
CUT
10
123.18
20
58.89
11
122.53
21
57.68
0
LINE
8
CUT
10
122.53
20
57.68
11
122.13
21
56.37
0
LINE
8
CUT
10
122.13
20
56.37
11
122
21
55
0
LINE
8
CUT
10
122
20
55
11
122
21
35
0
LINE
8
CUT
10
84
20
87
11
84.13
21
85.63
0
LINE
8
CUT
10
84.13
20
85.63
11
84.53
21
84.32
0
LINE
8
CUT
10
84.53
20
84.32
11
85.18
21
83.11
0
LINE
8
CUT
10
85.18
20
83.11
11
86.05
21
82.05
0
LINE
8
CUT
10
86.05
20
82.05
11
87.11
21
81.18
0
LINE
8
CUT
10
87.11
20
81.18
11
88.32
21
80.53
0
LINE
8
CUT
10
88.32
20
80.53
11
89.63
21
80.13
0
LINE
8
CUT
10
89.63
20
80.13
11
91
21
80
0
LINE
8
CUT
10
91
20
80
11
91
21
80
0
LINE
8
CUT
10
91
20
80
11
92.37
21
80.13
0
LINE
8
CUT
10
92.37
20
80.13
11
93.68
21
80.53
0
LINE
8
CUT
10
93.68
20
80.53
11
94.89
21
81.18
0
LINE
8
CUT
10
94.89
20
81.18
11
95.95
21
82.05
0
LINE
8
CUT
10
95.95
20
82.05
11
96.82
21
83.11
0
LINE
8
CUT
10
96.82
20
83.11
11
97.47
21
84.32
0
LINE
8
CUT
10
97.47
20
84.32
11
97.87
21
85.63
0
LINE
8
CUT
10
97.87
20
85.63
11
98
21
87
0
LINE
8
CUT
10
98
20
87
11
98
21
107
0
LINE
8
CUT
10
98
20
107
11
97.87
21
108.37
0
LINE
8
CUT
10
97.87
20
108.37
11
97.47
21
109.68
0
LINE
8
CUT
10
97.47
20
109.68
11
96.82
21
110.89
0
LINE
8
CUT
10
96.82
20
110.89
11
95.95
21
111.95
0
LINE
8
CUT
10
95.95
20
111.95
11
94.89
21
112.82
0
LINE
8
CUT
10
94.89
20
112.82
11
93.68
21
113.47
0
LINE
8
CUT
10
93.68
20
113.47
11
92.37
21
113.87
0
LINE
8
CUT
10
92.37
20
113.87
11
91
21
114
0
LINE
8
CUT
10
91
20
114
11
91
21
114
0
LINE
8
CUT
10
91
20
114
11
89.63
21
113.87
0
LINE
8
CUT
10
89.63
20
113.87
11
88.32
21
113.47
0
LINE
8
CUT
10
88.32
20
113.47
11
87.11
21
112.82
0
LINE
8
CUT
10
87.11
20
112.82
11
86.05
21
111.95
0
LINE
8
CUT
10
86.05
20
111.95
11
85.18
21
110.89
0
LINE
8
CUT
10
85.18
20
110.89
11
84.53
21
109.68
0
LINE
8
CUT
10
84.53
20
109.68
11
84.13
21
108.37
0
LINE
8
CUT
10
84.13
20
108.37
11
84
21
107
0
LINE
8
CUT
10
84
20
107
11
84
21
87
0
LINE
8
CUT
10
122
20
87
11
122.13
21
85.63
0
LINE
8
CUT
10
122.13
20
85.63
11
122.53
21
84.32
0
LINE
8
CUT
10
122.53
20
84.32
11
123.18
21
83.11
0
LINE
8
CUT
10
123.18
20
83.11
11
124.05
21
82.05
0
LINE
8
CUT
10
124.05
20
82.05
11
125.11
21
81.18
0
LINE
8
CUT
10
125.11
20
81.18
11
126.32
21
80.53
0
LINE
8
CUT
10
126.32
20
80.53
11
127.63
21
80.13
0
LINE
8
CUT
10
127.63
20
80.13
11
129
21
80
0
LINE
8
CUT
10
129
20
80
11
129
21
80
0
LINE
8
CUT
10
129
20
80
11
130.37
21
80.13
0
LINE
8
CUT
10
130.37
20
80.13
11
131.68
21
80.53
0
LINE
8
CUT
10
131.68
20
80.53
11
132.89
21
81.18
0
LINE
8
CUT
10
132.89
20
81.18
11
133.95
21
82.05
0
LINE
8
CUT
10
133.95
20
82.05
11
134.82
21
83.11
0
LINE
8
CUT
10
134.82
20
83.11
11
135.47
21
84.32
0
LINE
8
CUT
10
135.47
20
84.32
11
135.87
21
85.63
0
LINE
8
CUT
10
135.87
20
85.63
11
136
21
87
0
LINE
8
CUT
10
136
20
87
11
136
21
107
0
LINE
8
CUT
10
136
20
107
11
135.87
21
108.37
0
LINE
8
CUT
10
135.87
20
108.37
11
135.47
21
109.68
0
LINE
8
CUT
10
135.47
20
109.68
11
134.82
21
110.89
0
LINE
8
CUT
10
134.82
20
110.89
11
133.95
21
111.95
0
LINE
8
CUT
10
133.95
20
111.95
11
132.89
21
112.82
0
LINE
8
CUT
10
132.89
20
112.82
11
131.68
21
113.47
0
LINE
8
CUT
10
131.68
20
113.47
11
130.37
21
113.87
0
LINE
8
CUT
10
130.37
20
113.87
11
129
21
114
0
LINE
8
CUT
10
129
20
114
11
129
21
114
0
LINE
8
CUT
10
129
20
114
11
127.63
21
113.87
0
LINE
8
CUT
10
127.63
20
113.87
11
126.32
21
113.47
0
LINE
8
CUT
10
126.32
20
113.47
11
125.11
21
112.82
0
LINE
8
CUT
10
125.11
20
112.82
11
124.05
21
111.95
0
LINE
8
CUT
10
124.05
20
111.95
11
123.18
21
110.89
0
LINE
8
CUT
10
123.18
20
110.89
11
122.53
21
109.68
0
LINE
8
CUT
10
122.53
20
109.68
11
122.13
21
108.37
0
LINE
8
CUT
10
122.13
20
108.37
11
122
21
107
0
LINE
8
CUT
10
122
20
107
11
122
21
87
0
ENDSEC
0
EOF
