0
SECTION
2
HEADER
9
$INSUNITS
70
4
0
ENDSEC
0
SECTION
2
ENTITIES
0
LINE
8
CUT
10
0
20
0
11
340
21
0
0
LINE
8
CUT
10
340
20
0
11
340
21
265
0
LINE
8
CUT
10
340
20
265
11
0
21
265
0
LINE
8
CUT
10
0
20
265
11
0
21
0
0
LINE
8
CUT
10
24
20
45
11
24.13
21
43.63
0
LINE
8
CUT
10
24.13
20
43.63
11
24.53
21
42.32
0
LINE
8
CUT
10
24.53
20
42.32
11
25.18
21
41.11
0
LINE
8
CUT
10
25.18
20
41.11
11
26.05
21
40.05
0
LINE
8
CUT
10
26.05
20
40.05
11
27.11
21
39.18
0
LINE
8
CUT
10
27.11
20
39.18
11
28.32
21
38.53
0
LINE
8
CUT
10
28.32
20
38.53
11
29.63
21
38.13
0
LINE
8
CUT
10
29.63
20
38.13
11
31
21
38
0
LINE
8
CUT
10
31
20
38
11
31
21
38
0
LINE
8
CUT
10
31
20
38
11
32.37
21
38.13
0
LINE
8
CUT
10
32.37
20
38.13
11
33.68
21
38.53
0
LINE
8
CUT
10
33.68
20
38.53
11
34.89
21
39.18
0
LINE
8
CUT
10
34.89
20
39.18
11
35.95
21
40.05
0
LINE
8
CUT
10
35.95
20
40.05
11
36.82
21
41.11
0
LINE
8
CUT
10
36.82
20
41.11
11
37.47
21
42.32
0
LINE
8
CUT
10
37.47
20
42.32
11
37.87
21
43.63
0
LINE
8
CUT
10
37.87
20
43.63
11
38
21
45
0
LINE
8
CUT
10
38
20
45
11
38
21
69
0
LINE
8
CUT
10
38
20
69
11
37.87
21
70.37
0
LINE
8
CUT
10
37.87
20
70.37
11
37.47
21
71.68
0
LINE
8
CUT
10
37.47
20
71.68
11
36.82
21
72.89
0
LINE
8
CUT
10
36.82
20
72.89
11
35.95
21
73.95
0
LINE
8
CUT
10
35.95
20
73.95
11
34.89
21
74.82
0
LINE
8
CUT
10
34.89
20
74.82
11
33.68
21
75.47
0
LINE
8
CUT
10
33.68
20
75.47
11
32.37
21
75.87
0
LINE
8
CUT
10
32.37
20
75.87
11
31
21
76
0
LINE
8
CUT
10
31
20
76
11
31
21
76
0
LINE
8
CUT
10
31
20
76
11
29.63
21
75.87
0
LINE
8
CUT
10
29.63
20
75.87
11
28.32
21
75.47
0
LINE
8
CUT
10
28.32
20
75.47
11
27.11
21
74.82
0
LINE
8
CUT
10
27.11
20
74.82
11
26.05
21
73.95
0
LINE
8
CUT
10
26.05
20
73.95
11
25.18
21
72.89
0
LINE
8
CUT
10
25.18
20
72.89
11
24.53
21
71.68
0
LINE
8
CUT
10
24.53
20
71.68
11
24.13
21
70.37
0
LINE
8
CUT
10
24.13
20
70.37
11
24
21
69
0
LINE
8
CUT
10
24
20
69
11
24
21
45
0
LINE
8
CUT
10
24
20
197
11
24.13
21
195.63
0
LINE
8
CUT
10
24.13
20
195.63
11
24.53
21
194.32
0
LINE
8
CUT
10
24.53
20
194.32
11
25.18
21
193.11
0
LINE
8
CUT
10
25.18
20
193.11
11
26.05
21
192.05
0
LINE
8
CUT
10
26.05
20
192.05
11
27.11
21
191.18
0
LINE
8
CUT
10
27.11
20
191.18
11
28.32
21
190.53
0
LINE
8
CUT
10
28.32
20
190.53
11
29.63
21
190.13
0
LINE
8
CUT
10
29.63
20
190.13
11
31
21
190
0
LINE
8
CUT
10
31
20
190
11
31
21
190
0
LINE
8
CUT
10
31
20
190
11
32.37
21
190.13
0
LINE
8
CUT
10
32.37
20
190.13
11
33.68
21
190.53
0
LINE
8
CUT
10
33.68
20
190.53
11
34.89
21
191.18
0
LINE
8
CUT
10
34.89
20
191.18
11
35.95
21
192.05
0
LINE
8
CUT
10
35.95
20
192.05
11
36.82
21
193.11
0
LINE
8
CUT
10
36.82
20
193.11
11
37.47
21
194.32
0
LINE
8
CUT
10
37.47
20
194.32
11
37.87
21
195.63
0
LINE
8
CUT
10
37.87
20
195.63
11
38
21
197
0
LINE
8
CUT
10
38
20
197
11
38
21
221
0
LINE
8
CUT
10
38
20
221
11
37.87
21
222.37
0
LINE
8
CUT
10
37.87
20
222.37
11
37.47
21
223.68
0
LINE
8
CUT
10
37.47
20
223.68
11
36.82
21
224.89
0
LINE
8
CUT
10
36.82
20
224.89
11
35.95
21
225.95
0
LINE
8
CUT
10
35.95
20
225.95
11
34.89
21
226.82
0
LINE
8
CUT
10
34.89
20
226.82
11
33.68
21
227.47
0
LINE
8
CUT
10
33.68
20
227.47
11
32.37
21
227.87
0
LINE
8
CUT
10
32.37
20
227.87
11
31
21
228
0
LINE
8
CUT
10
31
20
228
11
31
21
228
0
LINE
8
CUT
10
31
20
228
11
29.63
21
227.87
0
LINE
8
CUT
10
29.63
20
227.87
11
28.32
21
227.47
0
LINE
8
CUT
10
28.32
20
227.47
11
27.11
21
226.82
0
LINE
8
CUT
10
27.11
20
226.82
11
26.05
21
225.95
0
LINE
8
CUT
10
26.05
20
225.95
11
25.18
21
224.89
0
LINE
8
CUT
10
25.18
20
224.89
11
24.53
21
223.68
0
LINE
8
CUT
10
24.53
20
223.68
11
24.13
21
222.37
0
LINE
8
CUT
10
24.13
20
222.37
11
24
21
221
0
LINE
8
CUT
10
24
20
221
11
24
21
197
0
LINE
8
CUT
10
301
20
45
11
301.13
21
43.63
0
LINE
8
CUT
10
301.13
20
43.63
11
301.53
21
42.32
0
LINE
8
CUT
10
301.53
20
42.32
11
302.18
21
41.11
0
LINE
8
CUT
10
302.18
20
41.11
11
303.05
21
40.05
0
LINE
8
CUT
10
303.05
20
40.05
11
304.11
21
39.18
0
LINE
8
CUT
10
304.11
20
39.18
11
305.32
21
38.53
0
LINE
8
CUT
10
305.32
20
38.53
11
306.63
21
38.13
0
LINE
8
CUT
10
306.63
20
38.13
11
308
21
38
0
LINE
8
CUT
10
308
20
38
11
308
21
38
0
LINE
8
CUT
10
308
20
38
11
309.37
21
38.13
0
LINE
8
CUT
10
309.37
20
38.13
11
310.68
21
38.53
0
LINE
8
CUT
10
310.68
20
38.53
11
311.89
21
39.18
0
LINE
8
CUT
10
311.89
20
39.18
11
312.95
21
40.05
0
LINE
8
CUT
10
312.95
20
40.05
11
313.82
21
41.11
0
LINE
8
CUT
10
313.82
20
41.11
11
314.47
21
42.32
0
LINE
8
CUT
10
314.47
20
42.32
11
314.87
21
43.63
0
LINE
8
CUT
10
314.87
20
43.63
11
315
21
45
0
LINE
8
CUT
10
315
20
45
11
315
21
69
0
LINE
8
CUT
10
315
20
69
11
314.87
21
70.37
0
LINE
8
CUT
10
314.87
20
70.37
11
314.47
21
71.68
0
LINE
8
CUT
10
314.47
20
71.68
11
313.82
21
72.89
0
LINE
8
CUT
10
313.82
20
72.89
11
312.95
21
73.95
0
LINE
8
CUT
10
312.95
20
73.95
11
311.89
21
74.82
0
LINE
8
CUT
10
311.89
20
74.82
11
310.68
21
75.47
0
LINE
8
CUT
10
310.68
20
75.47
11
309.37
21
75.87
0
LINE
8
CUT
10
309.37
20
75.87
11
308
21
76
0
LINE
8
CUT
10
308
20
76
11
308
21
76
0
LINE
8
CUT
10
308
20
76
11
306.63
21
75.87
0
LINE
8
CUT
10
306.63
20
75.87
11
305.32
21
75.47
0
LINE
8
CUT
10
305.32
20
75.47
11
304.11
21
74.82
0
LINE
8
CUT
10
304.11
20
74.82
11
303.05
21
73.95
0
LINE
8
CUT
10
303.05
20
73.95
11
302.18
21
72.89
0
LINE
8
CUT
10
302.18
20
72.89
11
301.53
21
71.68
0
LINE
8
CUT
10
301.53
20
71.68
11
301.13
21
70.37
0
LINE
8
CUT
10
301.13
20
70.37
11
301
21
69
0
LINE
8
CUT
10
301
20
69
11
301
21
45
0
LINE
8
CUT
10
301
20
197
11
301.13
21
195.63
0
LINE
8
CUT
10
301.13
20
195.63
11
301.53
21
194.32
0
LINE
8
CUT
10
301.53
20
194.32
11
302.18
21
193.11
0
LINE
8
CUT
10
302.18
20
193.11
11
303.05
21
192.05
0
LINE
8
CUT
10
303.05
20
192.05
11
304.11
21
191.18
0
LINE
8
CUT
10
304.11
20
191.18
11
305.32
21
190.53
0
LINE
8
CUT
10
305.32
20
190.53
11
306.63
21
190.13
0
LINE
8
CUT
10
306.63
20
190.13
11
308
21
190
0
LINE
8
CUT
10
308
20
190
11
308
21
190
0
LINE
8
CUT
10
308
20
190
11
309.37
21
190.13
0
LINE
8
CUT
10
309.37
20
190.13
11
310.68
21
190.53
0
LINE
8
CUT
10
310.68
20
190.53
11
311.89
21
191.18
0
LINE
8
CUT
10
311.89
20
191.18
11
312.95
21
192.05
0
LINE
8
CUT
10
312.95
20
192.05
11
313.82
21
193.11
0
LINE
8
CUT
10
313.82
20
193.11
11
314.47
21
194.32
0
LINE
8
CUT
10
314.47
20
194.32
11
314.87
21
195.63
0
LINE
8
CUT
10
314.87
20
195.63
11
315
21
197
0
LINE
8
CUT
10
315
20
197
11
315
21
221
0
LINE
8
CUT
10
315
20
221
11
314.87
21
222.37
0
LINE
8
CUT
10
314.87
20
222.37
11
314.47
21
223.68
0
LINE
8
CUT
10
314.47
20
223.68
11
313.82
21
224.89
0
LINE
8
CUT
10
313.82
20
224.89
11
312.95
21
225.95
0
LINE
8
CUT
10
312.95
20
225.95
11
311.89
21
226.82
0
LINE
8
CUT
10
311.89
20
226.82
11
310.68
21
227.47
0
LINE
8
CUT
10
310.68
20
227.47
11
309.37
21
227.87
0
LINE
8
CUT
10
309.37
20
227.87
11
308
21
228
0
LINE
8
CUT
10
308
20
228
11
308
21
228
0
LINE
8
CUT
10
308
20
228
11
306.63
21
227.87
0
LINE
8
CUT
10
306.63
20
227.87
11
305.32
21
227.47
0
LINE
8
CUT
10
305.32
20
227.47
11
304.11
21
226.82
0
LINE
8
CUT
10
304.11
20
226.82
11
303.05
21
225.95
0
LINE
8
CUT
10
303.05
20
225.95
11
302.18
21
224.89
0
LINE
8
CUT
10
302.18
20
224.89
11
301.53
21
223.68
0
LINE
8
CUT
10
301.53
20
223.68
11
301.13
21
222.37
0
LINE
8
CUT
10
301.13
20
222.37
11
301
21
221
0
LINE
8
CUT
10
301
20
221
11
301
21
197
0
LINE
8
CUT
10
145
20
51
11
145.17
21
49.24
0
LINE
8
CUT
10
145.17
20
49.24
11
145.69
21
47.56
0
LINE
8
CUT
10
145.69
20
47.56
11
146.52
21
46
0
LINE
8
CUT
10
146.52
20
46
11
147.64
21
44.64
0
LINE
8
CUT
10
147.64
20
44.64
11
149
21
43.52
0
LINE
8
CUT
10
149
20
43.52
11
150.56
21
42.69
0
LINE
8
CUT
10
150.56
20
42.69
11
152.24
21
42.17
0
LINE
8
CUT
10
152.24
20
42.17
11
154
21
42
0
LINE
8
CUT
10
154
20
42
11
154
21
42
0
LINE
8
CUT
10
154
20
42
11
155.76
21
42.17
0
LINE
8
CUT
10
155.76
20
42.17
11
157.44
21
42.69
0
LINE
8
CUT
10
157.44
20
42.69
11
159
21
43.52
0
LINE
8
CUT
10
159
20
43.52
11
160.36
21
44.64
0
LINE
8
CUT
10
160.36
20
44.64
11
161.48
21
46
0
LINE
8
CUT
10
161.48
20
46
11
162.31
21
47.56
0
LINE
8
CUT
10
162.31
20
47.56
11
162.83
21
49.24
0
LINE
8
CUT
10
162.83
20
49.24
11
163
21
51
0
LINE
8
CUT
10
163
20
51
11
163
21
73
0
LINE
8
CUT
10
163
20
73
11
162.83
21
74.76
0
LINE
8
CUT
10
162.83
20
74.76
11
162.31
21
76.44
0
LINE
8
CUT
10
162.31
20
76.44
11
161.48
21
78
0
LINE
8
CUT
10
161.48
20
78
11
160.36
21
79.36
0
LINE
8
CUT
10
160.36
20
79.36
11
159
21
80.48
0
LINE
8
CUT
10
159
20
80.48
11
157.44
21
81.31
0
LINE
8
CUT
10
157.44
20
81.31
11
155.76
21
81.83
0
LINE
8
CUT
10
155.76
20
81.83
11
154
21
82
0
LINE
8
CUT
10
154
20
82
11
154
21
82
0
LINE
8
CUT
10
154
20
82
11
152.24
21
81.83
0
LINE
8
CUT
10
152.24
20
81.83
11
150.56
21
81.31
0
LINE
8
CUT
10
150.56
20
81.31
11
149
21
80.48
0
LINE
8
CUT
10
149
20
80.48
11
147.64
21
79.36
0
LINE
8
CUT
10
147.64
20
79.36
11
146.52
21
78
0
LINE
8
CUT
10
146.52
20
78
11
145.69
21
76.44
0
LINE
8
CUT
10
145.69
20
76.44
11
145.17
21
74.76
0
LINE
8
CUT
10
145.17
20
74.76
11
145
21
73
0
LINE
8
CUT
10
145
20
73
11
145
21
51
0
LINE
8
CUT
10
181
20
51
11
181.17
21
49.24
0
LINE
8
CUT
10
181.17
20
49.24
11
181.69
21
47.56
0
LINE
8
CUT
10
181.69
20
47.56
11
182.52
21
46
0
LINE
8
CUT
10
182.52
20
46
11
183.64
21
44.64
0
LINE
8
CUT
10
183.64
20
44.64
11
185
21
43.52
0
LINE
8
CUT
10
185
20
43.52
11
186.56
21
42.69
0
LINE
8
CUT
10
186.56
20
42.69
11
188.24
21
42.17
0
LINE
8
CUT
10
188.24
20
42.17
11
190
21
42
0
LINE
8
CUT
10
190
20
42
11
190
21
42
0
LINE
8
CUT
10
190
20
42
11
191.76
21
42.17
0
LINE
8
CUT
10
191.76
20
42.17
11
193.44
21
42.69
0
LINE
8
CUT
10
193.44
20
42.69
11
195
21
43.52
0
LINE
8
CUT
10
195
20
43.52
11
196.36
21
44.64
0
LINE
8
CUT
10
196.36
20
44.64
11
197.48
21
46
0
LINE
8
CUT
10
197.48
20
46
11
198.31
21
47.56
0
LINE
8
CUT
10
198.31
20
47.56
11
198.83
21
49.24
0
LINE
8
CUT
10
198.83
20
49.24
11
199
21
51
0
LINE
8
CUT
10
199
20
51
11
199
21
73
0
LINE
8
CUT
10
199
20
73
11
198.83
21
74.76
0
LINE
8
CUT
10
198.83
20
74.76
11
198.31
21
76.44
0
LINE
8
CUT
10
198.31
20
76.44
11
197.48
21
78
0
LINE
8
CUT
10
197.48
20
78
11
196.36
21
79.36
0
LINE
8
CUT
10
196.36
20
79.36
11
195
21
80.48
0
LINE
8
CUT
10
195
20
80.48
11
193.44
21
81.31
0
LINE
8
CUT
10
193.44
20
81.31
11
191.76
21
81.83
0
LINE
8
CUT
10
191.76
20
81.83
11
190
21
82
0
LINE
8
CUT
10
190
20
82
11
190
21
82
0
LINE
8
CUT
10
190
20
82
11
188.24
21
81.83
0
LINE
8
CUT
10
188.24
20
81.83
11
186.56
21
81.31
0
LINE
8
CUT
10
186.56
20
81.31
11
185
21
80.48
0
LINE
8
CUT
10
185
20
80.48
11
183.64
21
79.36
0
LINE
8
CUT
10
183.64
20
79.36
11
182.52
21
78
0
LINE
8
CUT
10
182.52
20
78
11
181.69
21
76.44
0
LINE
8
CUT
10
181.69
20
76.44
11
181.17
21
74.76
0
LINE
8
CUT
10
181.17
20
74.76
11
181
21
73
0
LINE
8
CUT
10
181
20
73
11
181
21
51
0
LINE
8
CUT
10
145
20
189
11
145.17
21
187.24
0
LINE
8
CUT
10
145.17
20
187.24
11
145.69
21
185.56
0
LINE
8
CUT
10
145.69
20
185.56
11
146.52
21
184
0
LINE
8
CUT
10
146.52
20
184
11
147.64
21
182.64
0
LINE
8
CUT
10
147.64
20
182.64
11
149
21
181.52
0
LINE
8
CUT
10
149
20
181.52
11
150.56
21
180.69
0
LINE
8
CUT
10
150.56
20
180.69
11
152.24
21
180.17
0
LINE
8
CUT
10
152.24
20
180.17
11
154
21
180
0
LINE
8
CUT
10
154
20
180
11
154
21
180
0
LINE
8
CUT
10
154
20
180
11
155.76
21
180.17
0
LINE
8
CUT
10
155.76
20
180.17
11
157.44
21
180.69
0
LINE
8
CUT
10
157.44
20
180.69
11
159
21
181.52
0
LINE
8
CUT
10
159
20
181.52
11
160.36
21
182.64
0
LINE
8
CUT
10
160.36
20
182.64
11
161.48
21
184
0
LINE
8
CUT
10
161.48
20
184
11
162.31
21
185.56
0
LINE
8
CUT
10
162.31
20
185.56
11
162.83
21
187.24
0
LINE
8
CUT
10
162.83
20
187.24
11
163
21
189
0
LINE
8
CUT
10
163
20
189
11
163
21
211
0
LINE
8
CUT
10
163
20
211
11
162.83
21
212.76
0
LINE
8
CUT
10
162.83
20
212.76
11
162.31
21
214.44
0
LINE
8
CUT
10
162.31
20
214.44
11
161.48
21
216
0
LINE
8
CUT
10
161.48
20
216
11
160.36
21
217.36
0
LINE
8
CUT
10
160.36
20
217.36
11
159
21
218.48
0
LINE
8
CUT
10
159
20
218.48
11
157.44
21
219.31
0
LINE
8
CUT
10
157.44
20
219.31
11
155.76
21
219.83
0
LINE
8
CUT
10
155.76
20
219.83
11
154
21
220
0
LINE
8
CUT
10
154
20
220
11
154
21
220
0
LINE
8
CUT
10
154
20
220
11
152.24
21
219.83
0
LINE
8
CUT
10
152.24
20
219.83
11
150.56
21
219.31
0
LINE
8
CUT
10
150.56
20
219.31
11
149
21
218.48
0
LINE
8
CUT
10
149
20
218.48
11
147.64
21
217.36
0
LINE
8
CUT
10
147.64
20
217.36
11
146.52
21
216
0
LINE
8
CUT
10
146.52
20
216
11
145.69
21
214.44
0
LINE
8
CUT
10
145.69
20
214.44
11
145.17
21
212.76
0
LINE
8
CUT
10
145.17
20
212.76
11
145
21
211
0
LINE
8
CUT
10
145
20
211
11
145
21
189
0
LINE
8
CUT
10
181
20
189
11
181.17
21
187.24
0
LINE
8
CUT
10
181.17
20
187.24
11
181.69
21
185.56
0
LINE
8
CUT
10
181.69
20
185.56
11
182.52
21
184
0
LINE
8
CUT
10
182.52
20
184
11
183.64
21
182.64
0
LINE
8
CUT
10
183.64
20
182.64
11
185
21
181.52
0
LINE
8
CUT
10
185
20
181.52
11
186.56
21
180.69
0
LINE
8
CUT
10
186.56
20
180.69
11
188.24
21
180.17
0
LINE
8
CUT
10
188.24
20
180.17
11
190
21
180
0
LINE
8
CUT
10
190
20
180
11
190
21
180
0
LINE
8
CUT
10
190
20
180
11
191.76
21
180.17
0
LINE
8
CUT
10
191.76
20
180.17
11
193.44
21
180.69
0
LINE
8
CUT
10
193.44
20
180.69
11
195
21
181.52
0
LINE
8
CUT
10
195
20
181.52
11
196.36
21
182.64
0
LINE
8
CUT
10
196.36
20
182.64
11
197.48
21
184
0
LINE
8
CUT
10
197.48
20
184
11
198.31
21
185.56
0
LINE
8
CUT
10
198.31
20
185.56
11
198.83
21
187.24
0
LINE
8
CUT
10
198.83
20
187.24
11
199
21
189
0
LINE
8
CUT
10
199
20
189
11
199
21
211
0
LINE
8
CUT
10
199
20
211
11
198.83
21
212.76
0
LINE
8
CUT
10
198.83
20
212.76
11
198.31
21
214.44
0
LINE
8
CUT
10
198.31
20
214.44
11
197.48
21
216
0
LINE
8
CUT
10
197.48
20
216
11
196.36
21
217.36
0
LINE
8
CUT
10
196.36
20
217.36
11
195
21
218.48
0
LINE
8
CUT
10
195
20
218.48
11
193.44
21
219.31
0
LINE
8
CUT
10
193.44
20
219.31
11
191.76
21
219.83
0
LINE
8
CUT
10
191.76
20
219.83
11
190
21
220
0
LINE
8
CUT
10
190
20
220
11
190
21
220
0
LINE
8
CUT
10
190
20
220
11
188.24
21
219.83
0
LINE
8
CUT
10
188.24
20
219.83
11
186.56
21
219.31
0
LINE
8
CUT
10
186.56
20
219.31
11
185
21
218.48
0
LINE
8
CUT
10
185
20
218.48
11
183.64
21
217.36
0
LINE
8
CUT
10
183.64
20
217.36
11
182.52
21
216
0
LINE
8
CUT
10
182.52
20
216
11
181.69
21
214.44
0
LINE
8
CUT
10
181.69
20
214.44
11
181.17
21
212.76
0
LINE
8
CUT
10
181.17
20
212.76
11
181
21
211
0
LINE
8
CUT
10
181
20
211
11
181
21
189
0
CIRCLE
8
CUT
10
56
20
242
40
3.25
0
CIRCLE
8
CUT
10
106
20
242
40
3.25
0
CIRCLE
8
CUT
10
156
20
242
40
3.25
0
CIRCLE
8
CUT
10
206
20
242
40
3.25
0
CIRCLE
8
CUT
10
256
20
242
40
3.25
0
CIRCLE
8
CUT
10
306
20
242
40
3.25
0
ENDSEC
0
EOF
