<svg xmlns="http://www.w3.org/2000/svg" width="920" height="620" viewBox="0 0 920 620" role="img" aria-labelledby="title desc">
  <title id="title">Battery stand power carrier Rev B compact 3D assembly visualisation</title>
  <desc id="desc">Isometric visualisation of a compact steel battery stand on one chassis pickup, carrying the battery on a reduced tray with the folded Relay Rev C tray, MIDI Rev C open plate, and cutoff tab on separate compact rail/tab pickups.</desc>
  <style>
    .background { fill: #f6f7f8; }
    .shadow { fill: #d9dde2; opacity: 0.55; }
    .plate-top { fill: #cfd6dc; stroke: #4f5962; stroke-width: 1.4; }
    .plate-side { fill: #9ca8b2; stroke: #4f5962; stroke-width: 1.2; }
    .plate-front { fill: #b5bec7; stroke: #4f5962; stroke-width: 1.2; }
    .tab-top { fill: #7f8992; stroke: #343b42; stroke-width: 1.2; }
    .tab-side { fill: #515b64; stroke: #343b42; stroke-width: 1.1; }
    .tab-front { fill: #66717a; stroke: #343b42; stroke-width: 1.1; }
    .battery-top { fill: #2f3942; stroke: #111820; stroke-width: 1.4; }
    .battery-side { fill: #1d252c; stroke: #111820; stroke-width: 1.2; }
    .battery-front { fill: #3d4852; stroke: #111820; stroke-width: 1.2; }
    .hold-top { fill: #cfd6dc; stroke: #4f5962; stroke-width: 1.1; }
    .hold-side { fill: #98a4ae; stroke: #4f5962; stroke-width: 0.9; }
    .hold-front { fill: #b5bec7; stroke: #4f5962; stroke-width: 0.9; }
    .relay-top { fill: #202a33; stroke: #12171c; stroke-width: 1.4; }
    .relay-side { fill: #151c22; stroke: #12171c; stroke-width: 1.2; }
    .relay-front { fill: #26323c; stroke: #12171c; stroke-width: 1.2; }
    .relay-fuse-top { fill: #384856; stroke: #1f2830; stroke-width: 0.8; }
    .relay-fuse-side { fill: #26323d; stroke: #1f2830; stroke-width: 0.6; }
    .relay-fuse-front { fill: #465867; stroke: #1f2830; stroke-width: 0.6; }
    .relay-fuse-top { fill: #384856; stroke: #1f2830; stroke-width: 0.8; }
    .relay-fuse-side { fill: #26323d; stroke: #1f2830; stroke-width: 0.6; }
    .relay-fuse-front { fill: #465867; stroke: #1f2830; stroke-width: 0.6; }
    .midi-plate-top { fill: #aeb8c1; stroke: #4f5962; stroke-width: 1.2; }
    .midi-plate-side { fill: #818d97; stroke: #4f5962; stroke-width: 1; }
    .midi-plate-front { fill: #98a4ae; stroke: #4f5962; stroke-width: 1; }
    .midi-board-top { fill: #1f2930; stroke: #14191d; stroke-width: 1; }
    .midi-board-side { fill: #161d22; stroke: #14191d; stroke-width: 0.9; }
    .midi-board-front { fill: #2b363e; stroke: #14191d; stroke-width: 0.9; }
    .fuse-top { fill: #b7302a; stroke: #6e1714; stroke-width: 0.8; }
    .fuse-side { fill: #84201b; stroke: #6e1714; stroke-width: 0.7; }
    .fuse-front { fill: #d14a43; stroke: #6e1714; stroke-width: 0.7; }
    .guard-top { fill: #d9b65d; stroke: #806626; stroke-width: 1; opacity: 0.92; }
    .guard-side { fill: #a98536; stroke: #806626; stroke-width: 0.9; opacity: 0.92; }
    .guard-front { fill: #c99f45; stroke: #806626; stroke-width: 0.9; opacity: 0.92; }
    .cutoff-body { fill: #111820; stroke: #05080a; stroke-width: 2; }
    .cutoff-knob { fill: #d12828; stroke: #871313; stroke-width: 2; }
    .cutoff-terminal { fill: #c4a35a; stroke: #6f5d2f; stroke-width: 1.1; }
    .positive-cable { fill: none; stroke: #c41d1d; stroke-width: 8; stroke-linejoin: round; stroke-linecap: round; }
    .relay-feed { fill: none; stroke: #a51515; stroke-width: 6; stroke-linejoin: round; stroke-linecap: round; }
    .branch-cable { fill: none; stroke: #242b30; stroke-width: 6; stroke-linejoin: round; stroke-linecap: round; }
    .slot-marker { fill: #eef3f7; stroke: #4f5962; stroke-width: 1.2; }
    .label { font: 600 18px Arial, sans-serif; fill: #24313a; }
  </style>
  <rect class="background" width="920" height="620" /><polygon class="shadow" points="24.0,247.0 492.0,461.5 482.6,492.1 14.6,277.6" /><polygon class="tab-side" points="510.0,340.9 409.2,387.1 409.2,368.2 510.0,322.0" /><polygon class="tab-front" points="250.8,314.5 409.2,387.1 409.2,368.2 250.8,295.6" /><polygon class="tab-top" points="351.6,249.4 510.0,322.0 409.2,368.2 250.8,295.6" /><polygon class="tab-side" points="438.0,310.1 387.6,333.2 387.6,232.4 438.0,209.3" /><polygon class="tab-front" points="328.6,306.1 387.6,333.2 387.6,232.4 328.6,205.3" /><polygon class="tab-top" points="379.0,182.2 438.0,209.3 387.6,232.4 328.6,205.3" /><polygon class="tab-side" points="373.2,276.4 298.3,310.8 298.3,193.2 373.2,158.8" /><polygon class="tab-front" points="281.0,302.8 298.3,310.8 298.3,193.2 281.0,185.2" /><polygon class="tab-top" points="355.9,150.9 373.2,158.8 298.3,193.2 281.0,185.2" /><polygon class="tab-side" points="471.1,321.3 396.2,355.6 396.2,238.0 471.1,203.7" /><polygon class="tab-front" points="379.0,347.7 396.2,355.6 396.2,238.0 379.0,230.1" /><polygon class="tab-top" points="453.8,195.8 471.1,203.7 396.2,238.0 379.0,230.1" /><polygon class="plate-side" points="565.4,188.5 374.6,276.0 374.6,265.5 565.4,178.0" /><polygon class="plate-front" points="147.8,172.0 374.6,276.0 374.6,265.5 147.8,161.5" /><polygon class="plate-top" points="338.6,74.1 565.4,178.0 374.6,265.5 147.8,161.5" /><polygon class="battery-side" points="538.1,177.4 372.5,253.2 372.5,59.0 538.1,-16.9" /><polygon class="battery-front" points="174.5,162.5 372.5,253.2 372.5,59.0 174.5,-31.8" /><polygon class="battery-top" points="340.1,-107.7 538.1,-16.9 372.5,59.0 174.5,-31.8" /><polygon class="hold-side" points="552.5,-9.7 539.5,-3.8 539.5,-12.2 552.5,-18.1" /><polygon class="hold-front" points="312.7,-107.7 539.5,-3.8 539.5,-12.2 312.7,-116.1" /><polygon class="hold-top" points="325.7,-122.1 552.5,-18.1 539.5,-12.2 312.7,-116.1" /><polygon class="hold-side" points="411.4,54.9 398.4,60.9 398.4,52.5 411.4,46.5" /><polygon class="hold-front" points="171.6,-43.1 398.4,60.9 398.4,52.5 171.6,-51.5" /><polygon class="hold-top" points="184.6,-57.4 411.4,46.5 398.4,52.5 171.6,-51.5" /><polygon class="plate-side" points="597.8,136.3 592.1,138.9 592.1,44.4 597.8,41.8" /><polygon class="plate-front" points="347.3,26.7 592.1,138.9 592.1,44.4 347.3,-67.8" /><polygon class="plate-top" points="353.0,-70.4 597.8,41.8 592.1,44.4 347.3,-67.8" /><polygon class="relay-side" points="586.3,114.0 580.6,116.6 580.6,-114.4 586.3,-117.0" /><polygon class="relay-front" points="350.2,11.0 580.6,116.6 580.6,-114.4 350.2,-220.0" /><polygon class="relay-top" points="355.9,-222.6 586.3,-117.0 580.6,-114.4 350.2,-220.0" /><polygon class="relay-fuse-side" points="560.4,66.1 533.0,78.7 533.0,-52.6 560.4,-65.1" /><polygon class="relay-fuse-front" points="345.8,-7.1 533.0,78.7 533.0,-52.6 345.8,-138.4" /><polygon class="relay-fuse-top" points="373.2,-150.9 560.4,-65.1 533.0,-52.6 345.8,-138.4" /><polygon class="midi-plate-side" points="551.8,173.2 443.8,222.7 443.8,23.2 551.8,-26.3" /><polygon class="midi-plate-front" points="438.0,220.1 443.8,222.7 443.8,23.2 438.0,20.6" /><polygon class="midi-plate-top" points="546.0,-28.9 551.8,-26.3 443.8,23.2 438.0,20.6" /><polygon class="midi-board-side" points="544.6,160.8 483.4,188.9 483.4,41.9 544.6,13.8" /><polygon class="midi-board-front" points="477.6,186.2 483.4,188.9 483.4,41.9 477.6,39.2" /><polygon class="midi-board-top" points="538.8,11.2 544.6,13.8 483.4,41.9 477.6,39.2" /><polygon class="fuse-side" points="551.8,153.4 544.6,156.7 544.6,121.0 551.8,117.7" /><polygon class="fuse-front" points="533.0,151.4 544.6,156.7 544.6,121.0 533.0,115.7" /><polygon class="fuse-top" points="540.2,112.4 551.8,117.7 544.6,121.0 533.0,115.7" /><polygon class="fuse-side" points="540.2,158.7 533.0,162.0 533.0,126.3 540.2,123.0" /><polygon class="fuse-front" points="521.5,156.7 533.0,162.0 533.0,126.3 521.5,121.0" /><polygon class="fuse-top" points="528.7,117.7 540.2,123.0 533.0,126.3 521.5,121.0" /><polygon class="fuse-side" points="528.7,163.9 521.5,167.2 521.5,131.5 528.7,128.2" /><polygon class="fuse-front" points="510.0,162.0 521.5,167.2 521.5,131.5 510.0,126.3" /><polygon class="fuse-top" points="517.2,123.0 528.7,128.2 521.5,131.5 510.0,126.3" /><polygon class="fuse-side" points="517.2,169.2 510.0,172.5 510.0,136.8 517.2,133.5" /><polygon class="fuse-front" points="498.5,167.2 510.0,172.5 510.0,136.8 498.5,131.5" /><polygon class="fuse-top" points="505.7,128.2 517.2,133.5 510.0,136.8 498.5,131.5" /><polygon class="fuse-side" points="505.7,174.5 498.5,177.8 498.5,142.1 505.7,138.8" /><polygon class="fuse-front" points="487.0,172.5 498.5,177.8 498.5,142.1 487.0,136.8" /><polygon class="fuse-top" points="494.2,133.5 505.7,138.8 498.5,142.1 487.0,136.8" /><polygon class="guard-side" points="609.4,16.6 530.2,52.9 530.2,-125.6 609.4,-161.9" /><polygon class="guard-front" points="524.4,50.3 530.2,52.9 530.2,-125.6 524.4,-128.2" /><polygon class="guard-top" points="603.6,-164.5 609.4,-161.9 530.2,-125.6 524.4,-128.2" /><ellipse class="cutoff-body" cx="573.4" cy="-72.6" rx="30" ry="18" /><ellipse class="cutoff-knob" cx="573.4" cy="-83.6" rx="20" ry="12" /><circle class="cutoff-terminal" cx="584.9" cy="-17.0" r="5" /><circle class="cutoff-terminal" cx="557.5" cy="-4.5" r="5" /><polyline class="positive-cable" points="461.0,-52.7 573.4,-85.2 584.9,-17.0" /><polyline class="relay-feed" points="573.4,-85.2 525.8,48.1 527.3,130.2" /><polyline class="branch-cable" points="525.8,48.1 511.4,3.1 420.7,-18.9" /><circle class="slot-marker" cx="351.6" cy="249.7" r="4" /><circle class="slot-marker" cx="495.6" cy="315.7" r="4" /><circle class="slot-marker" cx="266.6" cy="288.6" r="4" /><circle class="slot-marker" cx="410.6" cy="354.6" r="4" /><text class="label" x="126" y="504">Single chassis pickup</text><text class="label" x="166" y="365">Single upright bridge</text><text class="label" x="322" y="434">Compact battery tray / stand</text><text class="label" x="252" y="214">Battery supported on stand</text><text class="label" x="548" y="210">Folded relay tray 320 x 220</text><text class="label" x="622" y="306">Cutoff tab 170 x 110</text><text class="label" x="610" y="382">MIDI open plate 190 x 150</text>
</svg>
