0
SECTION
2
HEADER
9
$INSUNITS
70
4
0
ENDSEC
0
SECTION
2
ENTITIES
0
LINE
8
CUT
10
0
20
0
11
500
21
0
0
LINE
8
CUT
10
500
20
0
11
500
21
285
0
LINE
8
CUT
10
500
20
285
11
0
21
285
0
LINE
8
CUT
10
0
20
285
11
0
21
0
0
LINE
8
CUT
10
18
20
30
11
18.15
21
28.44
0
LINE
8
CUT
10
18.15
20
28.44
11
18.61
21
26.94
0
LINE
8
CUT
10
18.61
20
26.94
11
19.35
21
25.56
0
LINE
8
CUT
10
19.35
20
25.56
11
20.34
21
24.34
0
LINE
8
CUT
10
20.34
20
24.34
11
21.56
21
23.35
0
LINE
8
CUT
10
21.56
20
23.35
11
22.94
21
22.61
0
LINE
8
CUT
10
22.94
20
22.61
11
24.44
21
22.15
0
LINE
8
CUT
10
24.44
20
22.15
11
26
21
22
0
LINE
8
CUT
10
26
20
22
11
52
21
22
0
LINE
8
CUT
10
52
20
22
11
53.56
21
22.15
0
LINE
8
CUT
10
53.56
20
22.15
11
55.06
21
22.61
0
LINE
8
CUT
10
55.06
20
22.61
11
56.44
21
23.35
0
LINE
8
CUT
10
56.44
20
23.35
11
57.66
21
24.34
0
LINE
8
CUT
10
57.66
20
24.34
11
58.65
21
25.56
0
LINE
8
CUT
10
58.65
20
25.56
11
59.39
21
26.94
0
LINE
8
CUT
10
59.39
20
26.94
11
59.85
21
28.44
0
LINE
8
CUT
10
59.85
20
28.44
11
60
21
30
0
LINE
8
CUT
10
60
20
30
11
60
21
30
0
LINE
8
CUT
10
60
20
30
11
59.85
21
31.56
0
LINE
8
CUT
10
59.85
20
31.56
11
59.39
21
33.06
0
LINE
8
CUT
10
59.39
20
33.06
11
58.65
21
34.44
0
LINE
8
CUT
10
58.65
20
34.44
11
57.66
21
35.66
0
LINE
8
CUT
10
57.66
20
35.66
11
56.44
21
36.65
0
LINE
8
CUT
10
56.44
20
36.65
11
55.06
21
37.39
0
LINE
8
CUT
10
55.06
20
37.39
11
53.56
21
37.85
0
LINE
8
CUT
10
53.56
20
37.85
11
52
21
38
0
LINE
8
CUT
10
52
20
38
11
26
21
38
0
LINE
8
CUT
10
26
20
38
11
24.44
21
37.85
0
LINE
8
CUT
10
24.44
20
37.85
11
22.94
21
37.39
0
LINE
8
CUT
10
22.94
20
37.39
11
21.56
21
36.65
0
LINE
8
CUT
10
21.56
20
36.65
11
20.34
21
35.66
0
LINE
8
CUT
10
20.34
20
35.66
11
19.35
21
34.44
0
LINE
8
CUT
10
19.35
20
34.44
11
18.61
21
33.06
0
LINE
8
CUT
10
18.61
20
33.06
11
18.15
21
31.56
0
LINE
8
CUT
10
18.15
20
31.56
11
18
21
30
0
LINE
8
CUT
10
18
20
30
11
18
21
30
0
LINE
8
CUT
10
440
20
30
11
440.15
21
28.44
0
LINE
8
CUT
10
440.15
20
28.44
11
440.61
21
26.94
0
LINE
8
CUT
10
440.61
20
26.94
11
441.35
21
25.56
0
LINE
8
CUT
10
441.35
20
25.56
11
442.34
21
24.34
0
LINE
8
CUT
10
442.34
20
24.34
11
443.56
21
23.35
0
LINE
8
CUT
10
443.56
20
23.35
11
444.94
21
22.61
0
LINE
8
CUT
10
444.94
20
22.61
11
446.44
21
22.15
0
LINE
8
CUT
10
446.44
20
22.15
11
448
21
22
0
LINE
8
CUT
10
448
20
22
11
474
21
22
0
LINE
8
CUT
10
474
20
22
11
475.56
21
22.15
0
LINE
8
CUT
10
475.56
20
22.15
11
477.06
21
22.61
0
LINE
8
CUT
10
477.06
20
22.61
11
478.44
21
23.35
0
LINE
8
CUT
10
478.44
20
23.35
11
479.66
21
24.34
0
LINE
8
CUT
10
479.66
20
24.34
11
480.65
21
25.56
0
LINE
8
CUT
10
480.65
20
25.56
11
481.39
21
26.94
0
LINE
8
CUT
10
481.39
20
26.94
11
481.85
21
28.44
0
LINE
8
CUT
10
481.85
20
28.44
11
482
21
30
0
LINE
8
CUT
10
482
20
30
11
482
21
30
0
LINE
8
CUT
10
482
20
30
11
481.85
21
31.56
0
LINE
8
CUT
10
481.85
20
31.56
11
481.39
21
33.06
0
LINE
8
CUT
10
481.39
20
33.06
11
480.65
21
34.44
0
LINE
8
CUT
10
480.65
20
34.44
11
479.66
21
35.66
0
LINE
8
CUT
10
479.66
20
35.66
11
478.44
21
36.65
0
LINE
8
CUT
10
478.44
20
36.65
11
477.06
21
37.39
0
LINE
8
CUT
10
477.06
20
37.39
11
475.56
21
37.85
0
LINE
8
CUT
10
475.56
20
37.85
11
474
21
38
0
LINE
8
CUT
10
474
20
38
11
448
21
38
0
LINE
8
CUT
10
448
20
38
11
446.44
21
37.85
0
LINE
8
CUT
10
446.44
20
37.85
11
444.94
21
37.39
0
LINE
8
CUT
10
444.94
20
37.39
11
443.56
21
36.65
0
LINE
8
CUT
10
443.56
20
36.65
11
442.34
21
35.66
0
LINE
8
CUT
10
442.34
20
35.66
11
441.35
21
34.44
0
LINE
8
CUT
10
441.35
20
34.44
11
440.61
21
33.06
0
LINE
8
CUT
10
440.61
20
33.06
11
440.15
21
31.56
0
LINE
8
CUT
10
440.15
20
31.56
11
440
21
30
0
LINE
8
CUT
10
440
20
30
11
440
21
30
0
LINE
8
CUT
10
18
20
253
11
18.15
21
251.44
0
LINE
8
CUT
10
18.15
20
251.44
11
18.61
21
249.94
0
LINE
8
CUT
10
18.61
20
249.94
11
19.35
21
248.56
0
LINE
8
CUT
10
19.35
20
248.56
11
20.34
21
247.34
0
LINE
8
CUT
10
20.34
20
247.34
11
21.56
21
246.35
0
LINE
8
CUT
10
21.56
20
246.35
11
22.94
21
245.61
0
LINE
8
CUT
10
22.94
20
245.61
11
24.44
21
245.15
0
LINE
8
CUT
10
24.44
20
245.15
11
26
21
245
0
LINE
8
CUT
10
26
20
245
11
52
21
245
0
LINE
8
CUT
10
52
20
245
11
53.56
21
245.15
0
LINE
8
CUT
10
53.56
20
245.15
11
55.06
21
245.61
0
LINE
8
CUT
10
55.06
20
245.61
11
56.44
21
246.35
0
LINE
8
CUT
10
56.44
20
246.35
11
57.66
21
247.34
0
LINE
8
CUT
10
57.66
20
247.34
11
58.65
21
248.56
0
LINE
8
CUT
10
58.65
20
248.56
11
59.39
21
249.94
0
LINE
8
CUT
10
59.39
20
249.94
11
59.85
21
251.44
0
LINE
8
CUT
10
59.85
20
251.44
11
60
21
253
0
LINE
8
CUT
10
60
20
253
11
60
21
253
0
LINE
8
CUT
10
60
20
253
11
59.85
21
254.56
0
LINE
8
CUT
10
59.85
20
254.56
11
59.39
21
256.06
0
LINE
8
CUT
10
59.39
20
256.06
11
58.65
21
257.44
0
LINE
8
CUT
10
58.65
20
257.44
11
57.66
21
258.66
0
LINE
8
CUT
10
57.66
20
258.66
11
56.44
21
259.65
0
LINE
8
CUT
10
56.44
20
259.65
11
55.06
21
260.39
0
LINE
8
CUT
10
55.06
20
260.39
11
53.56
21
260.85
0
LINE
8
CUT
10
53.56
20
260.85
11
52
21
261
0
LINE
8
CUT
10
52
20
261
11
26
21
261
0
LINE
8
CUT
10
26
20
261
11
24.44
21
260.85
0
LINE
8
CUT
10
24.44
20
260.85
11
22.94
21
260.39
0
LINE
8
CUT
10
22.94
20
260.39
11
21.56
21
259.65
0
LINE
8
CUT
10
21.56
20
259.65
11
20.34
21
258.66
0
LINE
8
CUT
10
20.34
20
258.66
11
19.35
21
257.44
0
LINE
8
CUT
10
19.35
20
257.44
11
18.61
21
256.06
0
LINE
8
CUT
10
18.61
20
256.06
11
18.15
21
254.56
0
LINE
8
CUT
10
18.15
20
254.56
11
18
21
253
0
LINE
8
CUT
10
18
20
253
11
18
21
253
0
LINE
8
CUT
10
440
20
253
11
440.15
21
251.44
0
LINE
8
CUT
10
440.15
20
251.44
11
440.61
21
249.94
0
LINE
8
CUT
10
440.61
20
249.94
11
441.35
21
248.56
0
LINE
8
CUT
10
441.35
20
248.56
11
442.34
21
247.34
0
LINE
8
CUT
10
442.34
20
247.34
11
443.56
21
246.35
0
LINE
8
CUT
10
443.56
20
246.35
11
444.94
21
245.61
0
LINE
8
CUT
10
444.94
20
245.61
11
446.44
21
245.15
0
LINE
8
CUT
10
446.44
20
245.15
11
448
21
245
0
LINE
8
CUT
10
448
20
245
11
474
21
245
0
LINE
8
CUT
10
474
20
245
11
475.56
21
245.15
0
LINE
8
CUT
10
475.56
20
245.15
11
477.06
21
245.61
0
LINE
8
CUT
10
477.06
20
245.61
11
478.44
21
246.35
0
LINE
8
CUT
10
478.44
20
246.35
11
479.66
21
247.34
0
LINE
8
CUT
10
479.66
20
247.34
11
480.65
21
248.56
0
LINE
8
CUT
10
480.65
20
248.56
11
481.39
21
249.94
0
LINE
8
CUT
10
481.39
20
249.94
11
481.85
21
251.44
0
LINE
8
CUT
10
481.85
20
251.44
11
482
21
253
0
LINE
8
CUT
10
482
20
253
11
482
21
253
0
LINE
8
CUT
10
482
20
253
11
481.85
21
254.56
0
LINE
8
CUT
10
481.85
20
254.56
11
481.39
21
256.06
0
LINE
8
CUT
10
481.39
20
256.06
11
480.65
21
257.44
0
LINE
8
CUT
10
480.65
20
257.44
11
479.66
21
258.66
0
LINE
8
CUT
10
479.66
20
258.66
11
478.44
21
259.65
0
LINE
8
CUT
10
478.44
20
259.65
11
477.06
21
260.39
0
LINE
8
CUT
10
477.06
20
260.39
11
475.56
21
260.85
0
LINE
8
CUT
10
475.56
20
260.85
11
474
21
261
0
LINE
8
CUT
10
474
20
261
11
448
21
261
0
LINE
8
CUT
10
448
20
261
11
446.44
21
260.85
0
LINE
8
CUT
10
446.44
20
260.85
11
444.94
21
260.39
0
LINE
8
CUT
10
444.94
20
260.39
11
443.56
21
259.65
0
LINE
8
CUT
10
443.56
20
259.65
11
442.34
21
258.66
0
LINE
8
CUT
10
442.34
20
258.66
11
441.35
21
257.44
0
LINE
8
CUT
10
441.35
20
257.44
11
440.61
21
256.06
0
LINE
8
CUT
10
440.61
20
256.06
11
440.15
21
254.56
0
LINE
8
CUT
10
440.15
20
254.56
11
440
21
253
0
LINE
8
CUT
10
440
20
253
11
440
21
253
0
LINE
8
CUT
10
58
20
64
11
58.12
21
62.83
0
LINE
8
CUT
10
58.12
20
62.83
11
58.46
21
61.7
0
LINE
8
CUT
10
58.46
20
61.7
11
59.01
21
60.67
0
LINE
8
CUT
10
59.01
20
60.67
11
59.76
21
59.76
0
LINE
8
CUT
10
59.76
20
59.76
11
60.67
21
59.01
0
LINE
8
CUT
10
60.67
20
59.01
11
61.7
21
58.46
0
LINE
8
CUT
10
61.7
20
58.46
11
62.83
21
58.12
0
LINE
8
CUT
10
62.83
20
58.12
11
64
21
58
0
LINE
8
CUT
10
64
20
58
11
86
21
58
0
LINE
8
CUT
10
86
20
58
11
87.17
21
58.12
0
LINE
8
CUT
10
87.17
20
58.12
11
88.3
21
58.46
0
LINE
8
CUT
10
88.3
20
58.46
11
89.33
21
59.01
0
LINE
8
CUT
10
89.33
20
59.01
11
90.24
21
59.76
0
LINE
8
CUT
10
90.24
20
59.76
11
90.99
21
60.67
0
LINE
8
CUT
10
90.99
20
60.67
11
91.54
21
61.7
0
LINE
8
CUT
10
91.54
20
61.7
11
91.88
21
62.83
0
LINE
8
CUT
10
91.88
20
62.83
11
92
21
64
0
LINE
8
CUT
10
92
20
64
11
92
21
64
0
LINE
8
CUT
10
92
20
64
11
91.88
21
65.17
0
LINE
8
CUT
10
91.88
20
65.17
11
91.54
21
66.3
0
LINE
8
CUT
10
91.54
20
66.3
11
90.99
21
67.33
0
LINE
8
CUT
10
90.99
20
67.33
11
90.24
21
68.24
0
LINE
8
CUT
10
90.24
20
68.24
11
89.33
21
68.99
0
LINE
8
CUT
10
89.33
20
68.99
11
88.3
21
69.54
0
LINE
8
CUT
10
88.3
20
69.54
11
87.17
21
69.88
0
LINE
8
CUT
10
87.17
20
69.88
11
86
21
70
0
LINE
8
CUT
10
86
20
70
11
64
21
70
0
LINE
8
CUT
10
64
20
70
11
62.83
21
69.88
0
LINE
8
CUT
10
62.83
20
69.88
11
61.7
21
69.54
0
LINE
8
CUT
10
61.7
20
69.54
11
60.67
21
68.99
0
LINE
8
CUT
10
60.67
20
68.99
11
59.76
21
68.24
0
LINE
8
CUT
10
59.76
20
68.24
11
59.01
21
67.33
0
LINE
8
CUT
10
59.01
20
67.33
11
58.46
21
66.3
0
LINE
8
CUT
10
58.46
20
66.3
11
58.12
21
65.17
0
LINE
8
CUT
10
58.12
20
65.17
11
58
21
64
0
LINE
8
CUT
10
58
20
64
11
58
21
64
0
LINE
8
CUT
10
218
20
64
11
218.12
21
62.83
0
LINE
8
CUT
10
218.12
20
62.83
11
218.46
21
61.7
0
LINE
8
CUT
10
218.46
20
61.7
11
219.01
21
60.67
0
LINE
8
CUT
10
219.01
20
60.67
11
219.76
21
59.76
0
LINE
8
CUT
10
219.76
20
59.76
11
220.67
21
59.01
0
LINE
8
CUT
10
220.67
20
59.01
11
221.7
21
58.46
0
LINE
8
CUT
10
221.7
20
58.46
11
222.83
21
58.12
0
LINE
8
CUT
10
222.83
20
58.12
11
224
21
58
0
LINE
8
CUT
10
224
20
58
11
246
21
58
0
LINE
8
CUT
10
246
20
58
11
247.17
21
58.12
0
LINE
8
CUT
10
247.17
20
58.12
11
248.3
21
58.46
0
LINE
8
CUT
10
248.3
20
58.46
11
249.33
21
59.01
0
LINE
8
CUT
10
249.33
20
59.01
11
250.24
21
59.76
0
LINE
8
CUT
10
250.24
20
59.76
11
250.99
21
60.67
0
LINE
8
CUT
10
250.99
20
60.67
11
251.54
21
61.7
0
LINE
8
CUT
10
251.54
20
61.7
11
251.88
21
62.83
0
LINE
8
CUT
10
251.88
20
62.83
11
252
21
64
0
LINE
8
CUT
10
252
20
64
11
252
21
64
0
LINE
8
CUT
10
252
20
64
11
251.88
21
65.17
0
LINE
8
CUT
10
251.88
20
65.17
11
251.54
21
66.3
0
LINE
8
CUT
10
251.54
20
66.3
11
250.99
21
67.33
0
LINE
8
CUT
10
250.99
20
67.33
11
250.24
21
68.24
0
LINE
8
CUT
10
250.24
20
68.24
11
249.33
21
68.99
0
LINE
8
CUT
10
249.33
20
68.99
11
248.3
21
69.54
0
LINE
8
CUT
10
248.3
20
69.54
11
247.17
21
69.88
0
LINE
8
CUT
10
247.17
20
69.88
11
246
21
70
0
LINE
8
CUT
10
246
20
70
11
224
21
70
0
LINE
8
CUT
10
224
20
70
11
222.83
21
69.88
0
LINE
8
CUT
10
222.83
20
69.88
11
221.7
21
69.54
0
LINE
8
CUT
10
221.7
20
69.54
11
220.67
21
68.99
0
LINE
8
CUT
10
220.67
20
68.99
11
219.76
21
68.24
0
LINE
8
CUT
10
219.76
20
68.24
11
219.01
21
67.33
0
LINE
8
CUT
10
219.01
20
67.33
11
218.46
21
66.3
0
LINE
8
CUT
10
218.46
20
66.3
11
218.12
21
65.17
0
LINE
8
CUT
10
218.12
20
65.17
11
218
21
64
0
LINE
8
CUT
10
218
20
64
11
218
21
64
0
LINE
8
CUT
10
58
20
208
11
58.12
21
206.83
0
LINE
8
CUT
10
58.12
20
206.83
11
58.46
21
205.7
0
LINE
8
CUT
10
58.46
20
205.7
11
59.01
21
204.67
0
LINE
8
CUT
10
59.01
20
204.67
11
59.76
21
203.76
0
LINE
8
CUT
10
59.76
20
203.76
11
60.67
21
203.01
0
LINE
8
CUT
10
60.67
20
203.01
11
61.7
21
202.46
0
LINE
8
CUT
10
61.7
20
202.46
11
62.83
21
202.12
0
LINE
8
CUT
10
62.83
20
202.12
11
64
21
202
0
LINE
8
CUT
10
64
20
202
11
86
21
202
0
LINE
8
CUT
10
86
20
202
11
87.17
21
202.12
0
LINE
8
CUT
10
87.17
20
202.12
11
88.3
21
202.46
0
LINE
8
CUT
10
88.3
20
202.46
11
89.33
21
203.01
0
LINE
8
CUT
10
89.33
20
203.01
11
90.24
21
203.76
0
LINE
8
CUT
10
90.24
20
203.76
11
90.99
21
204.67
0
LINE
8
CUT
10
90.99
20
204.67
11
91.54
21
205.7
0
LINE
8
CUT
10
91.54
20
205.7
11
91.88
21
206.83
0
LINE
8
CUT
10
91.88
20
206.83
11
92
21
208
0
LINE
8
CUT
10
92
20
208
11
92
21
208
0
LINE
8
CUT
10
92
20
208
11
91.88
21
209.17
0
LINE
8
CUT
10
91.88
20
209.17
11
91.54
21
210.3
0
LINE
8
CUT
10
91.54
20
210.3
11
90.99
21
211.33
0
LINE
8
CUT
10
90.99
20
211.33
11
90.24
21
212.24
0
LINE
8
CUT
10
90.24
20
212.24
11
89.33
21
212.99
0
LINE
8
CUT
10
89.33
20
212.99
11
88.3
21
213.54
0
LINE
8
CUT
10
88.3
20
213.54
11
87.17
21
213.88
0
LINE
8
CUT
10
87.17
20
213.88
11
86
21
214
0
LINE
8
CUT
10
86
20
214
11
64
21
214
0
LINE
8
CUT
10
64
20
214
11
62.83
21
213.88
0
LINE
8
CUT
10
62.83
20
213.88
11
61.7
21
213.54
0
LINE
8
CUT
10
61.7
20
213.54
11
60.67
21
212.99
0
LINE
8
CUT
10
60.67
20
212.99
11
59.76
21
212.24
0
LINE
8
CUT
10
59.76
20
212.24
11
59.01
21
211.33
0
LINE
8
CUT
10
59.01
20
211.33
11
58.46
21
210.3
0
LINE
8
CUT
10
58.46
20
210.3
11
58.12
21
209.17
0
LINE
8
CUT
10
58.12
20
209.17
11
58
21
208
0
LINE
8
CUT
10
58
20
208
11
58
21
208
0
LINE
8
CUT
10
218
20
208
11
218.12
21
206.83
0
LINE
8
CUT
10
218.12
20
206.83
11
218.46
21
205.7
0
LINE
8
CUT
10
218.46
20
205.7
11
219.01
21
204.67
0
LINE
8
CUT
10
219.01
20
204.67
11
219.76
21
203.76
0
LINE
8
CUT
10
219.76
20
203.76
11
220.67
21
203.01
0
LINE
8
CUT
10
220.67
20
203.01
11
221.7
21
202.46
0
LINE
8
CUT
10
221.7
20
202.46
11
222.83
21
202.12
0
LINE
8
CUT
10
222.83
20
202.12
11
224
21
202
0
LINE
8
CUT
10
224
20
202
11
246
21
202
0
LINE
8
CUT
10
246
20
202
11
247.17
21
202.12
0
LINE
8
CUT
10
247.17
20
202.12
11
248.3
21
202.46
0
LINE
8
CUT
10
248.3
20
202.46
11
249.33
21
203.01
0
LINE
8
CUT
10
249.33
20
203.01
11
250.24
21
203.76
0
LINE
8
CUT
10
250.24
20
203.76
11
250.99
21
204.67
0
LINE
8
CUT
10
250.99
20
204.67
11
251.54
21
205.7
0
LINE
8
CUT
10
251.54
20
205.7
11
251.88
21
206.83
0
LINE
8
CUT
10
251.88
20
206.83
11
252
21
208
0
LINE
8
CUT
10
252
20
208
11
252
21
208
0
LINE
8
CUT
10
252
20
208
11
251.88
21
209.17
0
LINE
8
CUT
10
251.88
20
209.17
11
251.54
21
210.3
0
LINE
8
CUT
10
251.54
20
210.3
11
250.99
21
211.33
0
LINE
8
CUT
10
250.99
20
211.33
11
250.24
21
212.24
0
LINE
8
CUT
10
250.24
20
212.24
11
249.33
21
212.99
0
LINE
8
CUT
10
249.33
20
212.99
11
248.3
21
213.54
0
LINE
8
CUT
10
248.3
20
213.54
11
247.17
21
213.88
0
LINE
8
CUT
10
247.17
20
213.88
11
246
21
214
0
LINE
8
CUT
10
246
20
214
11
224
21
214
0
LINE
8
CUT
10
224
20
214
11
222.83
21
213.88
0
LINE
8
CUT
10
222.83
20
213.88
11
221.7
21
213.54
0
LINE
8
CUT
10
221.7
20
213.54
11
220.67
21
212.99
0
LINE
8
CUT
10
220.67
20
212.99
11
219.76
21
212.24
0
LINE
8
CUT
10
219.76
20
212.24
11
219.01
21
211.33
0
LINE
8
CUT
10
219.01
20
211.33
11
218.46
21
210.3
0
LINE
8
CUT
10
218.46
20
210.3
11
218.12
21
209.17
0
LINE
8
CUT
10
218.12
20
209.17
11
218
21
208
0
LINE
8
CUT
10
218
20
208
11
218
21
208
0
LINE
8
CUT
10
328
20
110
11
328.12
21
108.83
0
LINE
8
CUT
10
328.12
20
108.83
11
328.46
21
107.7
0
LINE
8
CUT
10
328.46
20
107.7
11
329.01
21
106.67
0
LINE
8
CUT
10
329.01
20
106.67
11
329.76
21
105.76
0
LINE
8
CUT
10
329.76
20
105.76
11
330.67
21
105.01
0
LINE
8
CUT
10
330.67
20
105.01
11
331.7
21
104.46
0
LINE
8
CUT
10
331.7
20
104.46
11
332.83
21
104.12
0
LINE
8
CUT
10
332.83
20
104.12
11
334
21
104
0
LINE
8
CUT
10
334
20
104
11
350
21
104
0
LINE
8
CUT
10
350
20
104
11
351.17
21
104.12
0
LINE
8
CUT
10
351.17
20
104.12
11
352.3
21
104.46
0
LINE
8
CUT
10
352.3
20
104.46
11
353.33
21
105.01
0
LINE
8
CUT
10
353.33
20
105.01
11
354.24
21
105.76
0
LINE
8
CUT
10
354.24
20
105.76
11
354.99
21
106.67
0
LINE
8
CUT
10
354.99
20
106.67
11
355.54
21
107.7
0
LINE
8
CUT
10
355.54
20
107.7
11
355.88
21
108.83
0
LINE
8
CUT
10
355.88
20
108.83
11
356
21
110
0
LINE
8
CUT
10
356
20
110
11
356
21
110
0
LINE
8
CUT
10
356
20
110
11
355.88
21
111.17
0
LINE
8
CUT
10
355.88
20
111.17
11
355.54
21
112.3
0
LINE
8
CUT
10
355.54
20
112.3
11
354.99
21
113.33
0
LINE
8
CUT
10
354.99
20
113.33
11
354.24
21
114.24
0
LINE
8
CUT
10
354.24
20
114.24
11
353.33
21
114.99
0
LINE
8
CUT
10
353.33
20
114.99
11
352.3
21
115.54
0
LINE
8
CUT
10
352.3
20
115.54
11
351.17
21
115.88
0
LINE
8
CUT
10
351.17
20
115.88
11
350
21
116
0
LINE
8
CUT
10
350
20
116
11
334
21
116
0
LINE
8
CUT
10
334
20
116
11
332.83
21
115.88
0
LINE
8
CUT
10
332.83
20
115.88
11
331.7
21
115.54
0
LINE
8
CUT
10
331.7
20
115.54
11
330.67
21
114.99
0
LINE
8
CUT
10
330.67
20
114.99
11
329.76
21
114.24
0
LINE
8
CUT
10
329.76
20
114.24
11
329.01
21
113.33
0
LINE
8
CUT
10
329.01
20
113.33
11
328.46
21
112.3
0
LINE
8
CUT
10
328.46
20
112.3
11
328.12
21
111.17
0
LINE
8
CUT
10
328.12
20
111.17
11
328
21
110
0
LINE
8
CUT
10
328
20
110
11
328
21
110
0
LINE
8
CUT
10
378
20
110
11
378.12
21
108.83
0
LINE
8
CUT
10
378.12
20
108.83
11
378.46
21
107.7
0
LINE
8
CUT
10
378.46
20
107.7
11
379.01
21
106.67
0
LINE
8
CUT
10
379.01
20
106.67
11
379.76
21
105.76
0
LINE
8
CUT
10
379.76
20
105.76
11
380.67
21
105.01
0
LINE
8
CUT
10
380.67
20
105.01
11
381.7
21
104.46
0
LINE
8
CUT
10
381.7
20
104.46
11
382.83
21
104.12
0
LINE
8
CUT
10
382.83
20
104.12
11
384
21
104
0
LINE
8
CUT
10
384
20
104
11
400
21
104
0
LINE
8
CUT
10
400
20
104
11
401.17
21
104.12
0
LINE
8
CUT
10
401.17
20
104.12
11
402.3
21
104.46
0
LINE
8
CUT
10
402.3
20
104.46
11
403.33
21
105.01
0
LINE
8
CUT
10
403.33
20
105.01
11
404.24
21
105.76
0
LINE
8
CUT
10
404.24
20
105.76
11
404.99
21
106.67
0
LINE
8
CUT
10
404.99
20
106.67
11
405.54
21
107.7
0
LINE
8
CUT
10
405.54
20
107.7
11
405.88
21
108.83
0
LINE
8
CUT
10
405.88
20
108.83
11
406
21
110
0
LINE
8
CUT
10
406
20
110
11
406
21
110
0
LINE
8
CUT
10
406
20
110
11
405.88
21
111.17
0
LINE
8
CUT
10
405.88
20
111.17
11
405.54
21
112.3
0
LINE
8
CUT
10
405.54
20
112.3
11
404.99
21
113.33
0
LINE
8
CUT
10
404.99
20
113.33
11
404.24
21
114.24
0
LINE
8
CUT
10
404.24
20
114.24
11
403.33
21
114.99
0
LINE
8
CUT
10
403.33
20
114.99
11
402.3
21
115.54
0
LINE
8
CUT
10
402.3
20
115.54
11
401.17
21
115.88
0
LINE
8
CUT
10
401.17
20
115.88
11
400
21
116
0
LINE
8
CUT
10
400
20
116
11
384
21
116
0
LINE
8
CUT
10
384
20
116
11
382.83
21
115.88
0
LINE
8
CUT
10
382.83
20
115.88
11
381.7
21
115.54
0
LINE
8
CUT
10
381.7
20
115.54
11
380.67
21
114.99
0
LINE
8
CUT
10
380.67
20
114.99
11
379.76
21
114.24
0
LINE
8
CUT
10
379.76
20
114.24
11
379.01
21
113.33
0
LINE
8
CUT
10
379.01
20
113.33
11
378.46
21
112.3
0
LINE
8
CUT
10
378.46
20
112.3
11
378.12
21
111.17
0
LINE
8
CUT
10
378.12
20
111.17
11
378
21
110
0
LINE
8
CUT
10
378
20
110
11
378
21
110
0
LINE
8
CUT
10
328
20
172
11
328.12
21
170.83
0
LINE
8
CUT
10
328.12
20
170.83
11
328.46
21
169.7
0
LINE
8
CUT
10
328.46
20
169.7
11
329.01
21
168.67
0
LINE
8
CUT
10
329.01
20
168.67
11
329.76
21
167.76
0
LINE
8
CUT
10
329.76
20
167.76
11
330.67
21
167.01
0
LINE
8
CUT
10
330.67
20
167.01
11
331.7
21
166.46
0
LINE
8
CUT
10
331.7
20
166.46
11
332.83
21
166.12
0
LINE
8
CUT
10
332.83
20
166.12
11
334
21
166
0
LINE
8
CUT
10
334
20
166
11
350
21
166
0
LINE
8
CUT
10
350
20
166
11
351.17
21
166.12
0
LINE
8
CUT
10
351.17
20
166.12
11
352.3
21
166.46
0
LINE
8
CUT
10
352.3
20
166.46
11
353.33
21
167.01
0
LINE
8
CUT
10
353.33
20
167.01
11
354.24
21
167.76
0
LINE
8
CUT
10
354.24
20
167.76
11
354.99
21
168.67
0
LINE
8
CUT
10
354.99
20
168.67
11
355.54
21
169.7
0
LINE
8
CUT
10
355.54
20
169.7
11
355.88
21
170.83
0
LINE
8
CUT
10
355.88
20
170.83
11
356
21
172
0
LINE
8
CUT
10
356
20
172
11
356
21
172
0
LINE
8
CUT
10
356
20
172
11
355.88
21
173.17
0
LINE
8
CUT
10
355.88
20
173.17
11
355.54
21
174.3
0
LINE
8
CUT
10
355.54
20
174.3
11
354.99
21
175.33
0
LINE
8
CUT
10
354.99
20
175.33
11
354.24
21
176.24
0
LINE
8
CUT
10
354.24
20
176.24
11
353.33
21
176.99
0
LINE
8
CUT
10
353.33
20
176.99
11
352.3
21
177.54
0
LINE
8
CUT
10
352.3
20
177.54
11
351.17
21
177.88
0
LINE
8
CUT
10
351.17
20
177.88
11
350
21
178
0
LINE
8
CUT
10
350
20
178
11
334
21
178
0
LINE
8
CUT
10
334
20
178
11
332.83
21
177.88
0
LINE
8
CUT
10
332.83
20
177.88
11
331.7
21
177.54
0
LINE
8
CUT
10
331.7
20
177.54
11
330.67
21
176.99
0
LINE
8
CUT
10
330.67
20
176.99
11
329.76
21
176.24
0
LINE
8
CUT
10
329.76
20
176.24
11
329.01
21
175.33
0
LINE
8
CUT
10
329.01
20
175.33
11
328.46
21
174.3
0
LINE
8
CUT
10
328.46
20
174.3
11
328.12
21
173.17
0
LINE
8
CUT
10
328.12
20
173.17
11
328
21
172
0
LINE
8
CUT
10
328
20
172
11
328
21
172
0
LINE
8
CUT
10
378
20
172
11
378.12
21
170.83
0
LINE
8
CUT
10
378.12
20
170.83
11
378.46
21
169.7
0
LINE
8
CUT
10
378.46
20
169.7
11
379.01
21
168.67
0
LINE
8
CUT
10
379.01
20
168.67
11
379.76
21
167.76
0
LINE
8
CUT
10
379.76
20
167.76
11
380.67
21
167.01
0
LINE
8
CUT
10
380.67
20
167.01
11
381.7
21
166.46
0
LINE
8
CUT
10
381.7
20
166.46
11
382.83
21
166.12
0
LINE
8
CUT
10
382.83
20
166.12
11
384
21
166
0
LINE
8
CUT
10
384
20
166
11
400
21
166
0
LINE
8
CUT
10
400
20
166
11
401.17
21
166.12
0
LINE
8
CUT
10
401.17
20
166.12
11
402.3
21
166.46
0
LINE
8
CUT
10
402.3
20
166.46
11
403.33
21
167.01
0
LINE
8
CUT
10
403.33
20
167.01
11
404.24
21
167.76
0
LINE
8
CUT
10
404.24
20
167.76
11
404.99
21
168.67
0
LINE
8
CUT
10
404.99
20
168.67
11
405.54
21
169.7
0
LINE
8
CUT
10
405.54
20
169.7
11
405.88
21
170.83
0
LINE
8
CUT
10
405.88
20
170.83
11
406
21
172
0
LINE
8
CUT
10
406
20
172
11
406
21
172
0
LINE
8
CUT
10
406
20
172
11
405.88
21
173.17
0
LINE
8
CUT
10
405.88
20
173.17
11
405.54
21
174.3
0
LINE
8
CUT
10
405.54
20
174.3
11
404.99
21
175.33
0
LINE
8
CUT
10
404.99
20
175.33
11
404.24
21
176.24
0
LINE
8
CUT
10
404.24
20
176.24
11
403.33
21
176.99
0
LINE
8
CUT
10
403.33
20
176.99
11
402.3
21
177.54
0
LINE
8
CUT
10
402.3
20
177.54
11
401.17
21
177.88
0
LINE
8
CUT
10
401.17
20
177.88
11
400
21
178
0
LINE
8
CUT
10
400
20
178
11
384
21
178
0
LINE
8
CUT
10
384
20
178
11
382.83
21
177.88
0
LINE
8
CUT
10
382.83
20
177.88
11
381.7
21
177.54
0
LINE
8
CUT
10
381.7
20
177.54
11
380.67
21
176.99
0
LINE
8
CUT
10
380.67
20
176.99
11
379.76
21
176.24
0
LINE
8
CUT
10
379.76
20
176.24
11
379.01
21
175.33
0
LINE
8
CUT
10
379.01
20
175.33
11
378.46
21
174.3
0
LINE
8
CUT
10
378.46
20
174.3
11
378.12
21
173.17
0
LINE
8
CUT
10
378.12
20
173.17
11
378
21
172
0
LINE
8
CUT
10
378
20
172
11
378
21
172
0
CIRCLE
8
CUT
10
82
20
100
40
3.25
0
CIRCLE
8
CUT
10
144
20
100
40
3.25
0
CIRCLE
8
CUT
10
206
20
100
40
3.25
0
CIRCLE
8
CUT
10
310
20
216
40
3.25
0
CIRCLE
8
CUT
10
345
20
216
40
3.25
0
CIRCLE
8
CUT
10
380
20
216
40
3.25
0
CIRCLE
8
CUT
10
415
20
216
40
3.25
0
CIRCLE
8
CUT
10
450
20
216
40
3.25
0
CIRCLE
8
CUT
10
362
20
246
40
3.25
0
CIRCLE
8
CUT
10
424
20
246
40
3.25
0
ENDSEC
0
EOF
