0
SECTION
2
HEADER
9
$INSUNITS
70
4
0
ENDSEC
0
SECTION
2
ENTITIES
0
LINE
8
CUT
10
20
20
0
11
190
21
0
0
LINE
8
CUT
10
190
20
0
11
190
21
20
0
LINE
8
CUT
10
190
20
20
11
210
21
20
0
LINE
8
CUT
10
210
20
20
11
210
21
130
0
LINE
8
CUT
10
210
20
130
11
190
21
130
0
LINE
8
CUT
10
190
20
130
11
190
21
150
0
LINE
8
CUT
10
190
20
150
11
20
21
150
0
LINE
8
CUT
10
20
20
150
11
20
21
130
0
LINE
8
CUT
10
20
20
130
11
0
21
130
0
LINE
8
CUT
10
0
20
130
11
0
21
20
0
LINE
8
CUT
10
0
20
20
11
20
21
20
0
LINE
8
CUT
10
20
20
20
11
20
21
0
0
LINE
8
CUT
10
64
20
73
11
64.44
21
68.51
0
LINE
8
CUT
10
64.44
20
68.51
11
65.75
21
64.2
0
LINE
8
CUT
10
65.75
20
64.2
11
67.88
21
60.22
0
LINE
8
CUT
10
67.88
20
60.22
11
70.74
21
56.74
0
LINE
8
CUT
10
70.74
20
56.74
11
74.22
21
53.88
0
LINE
8
CUT
10
74.22
20
53.88
11
78.2
21
51.75
0
LINE
8
CUT
10
78.2
20
51.75
11
82.51
21
50.44
0
LINE
8
CUT
10
82.51
20
50.44
11
87
21
50
0
LINE
8
CUT
10
87
20
50
11
123
21
50
0
LINE
8
CUT
10
123
20
50
11
127.49
21
50.44
0
LINE
8
CUT
10
127.49
20
50.44
11
131.8
21
51.75
0
LINE
8
CUT
10
131.8
20
51.75
11
135.78
21
53.88
0
LINE
8
CUT
10
135.78
20
53.88
11
139.26
21
56.74
0
LINE
8
CUT
10
139.26
20
56.74
11
142.12
21
60.22
0
LINE
8
CUT
10
142.12
20
60.22
11
144.25
21
64.2
0
LINE
8
CUT
10
144.25
20
64.2
11
145.56
21
68.51
0
LINE
8
CUT
10
145.56
20
68.51
11
146
21
73
0
LINE
8
CUT
10
146
20
73
11
146
21
73
0
LINE
8
CUT
10
146
20
73
11
145.56
21
77.49
0
LINE
8
CUT
10
145.56
20
77.49
11
144.25
21
81.8
0
LINE
8
CUT
10
144.25
20
81.8
11
142.12
21
85.78
0
LINE
8
CUT
10
142.12
20
85.78
11
139.26
21
89.26
0
LINE
8
CUT
10
139.26
20
89.26
11
135.78
21
92.12
0
LINE
8
CUT
10
135.78
20
92.12
11
131.8
21
94.25
0
LINE
8
CUT
10
131.8
20
94.25
11
127.49
21
95.56
0
LINE
8
CUT
10
127.49
20
95.56
11
123
21
96
0
LINE
8
CUT
10
123
20
96
11
87
21
96
0
LINE
8
CUT
10
87
20
96
11
82.51
21
95.56
0
LINE
8
CUT
10
82.51
20
95.56
11
78.2
21
94.25
0
LINE
8
CUT
10
78.2
20
94.25
11
74.22
21
92.12
0
LINE
8
CUT
10
74.22
20
92.12
11
70.74
21
89.26
0
LINE
8
CUT
10
70.74
20
89.26
11
67.88
21
85.78
0
LINE
8
CUT
10
67.88
20
85.78
11
65.75
21
81.8
0
LINE
8
CUT
10
65.75
20
81.8
11
64.44
21
77.49
0
LINE
8
CUT
10
64.44
20
77.49
11
64
21
73
0
LINE
8
CUT
10
64
20
73
11
64
21
73
0
CIRCLE
8
CUT
10
38
20
36
40
3.25
0
CIRCLE
8
CUT
10
172
20
36
40
3.25
0
CIRCLE
8
CUT
10
38
20
114
40
3.25
0
CIRCLE
8
CUT
10
172
20
114
40
3.25
0
LINE
8
BEND
10
20
20
20
11
190
21
20
0
LINE
8
BEND
10
20
20
130
11
190
21
130
0
LINE
8
BEND
10
20
20
20
11
20
21
130
0
LINE
8
BEND
10
190
20
20
11
190
21
130
0
ENDSEC
0
EOF
