<svg xmlns="http://www.w3.org/2000/svg" width="710mm" height="486mm" viewBox="0 0 710 486">
  <style>
    .cut { fill: none; stroke: #111; stroke-width: 0.6; }
    .aux { fill: none; stroke: #666; stroke-width: 0.35; }
    .bend { stroke: #0b5fff; stroke-width: 0.4; stroke-dasharray: 3 2; }
    .title { font: 700 9px monospace; fill: #111; }
    .note { font: 6px monospace; fill: #111; }
  </style>
  <text x="25" y="14" class="title">battery_power_compact_front_service_rail_rev_b  |  units: mm</text>
  <g transform="translate(25,25)">
  <polygon class="cut" points="0,0 660,0 660,310 0,310" />
  <polygon class="cut" points="18,30 18.15,28.44 18.61,26.94 19.35,25.56 20.34,24.34 21.56,23.35 22.94,22.61 24.44,22.15 26,22 52,22 53.56,22.15 55.06,22.61 56.44,23.35 57.66,24.34 58.65,25.56 59.39,26.94 59.85,28.44 60,30 60,30 59.85,31.56 59.39,33.06 58.65,34.44 57.66,35.66 56.44,36.65 55.06,37.39 53.56,37.85 52,38 26,38 24.44,37.85 22.94,37.39 21.56,36.65 20.34,35.66 19.35,34.44 18.61,33.06 18.15,31.56 18,30" />
  <polygon class="cut" points="600,30 600.15,28.44 600.61,26.94 601.35,25.56 602.34,24.34 603.56,23.35 604.94,22.61 606.44,22.15 608,22 634,22 635.56,22.15 637.06,22.61 638.44,23.35 639.66,24.34 640.65,25.56 641.39,26.94 641.85,28.44 642,30 642,30 641.85,31.56 641.39,33.06 640.65,34.44 639.66,35.66 638.44,36.65 637.06,37.39 635.56,37.85 634,38 608,38 606.44,37.85 604.94,37.39 603.56,36.65 602.34,35.66 601.35,34.44 600.61,33.06 600.15,31.56 600,30" />
  <polygon class="cut" points="18,278 18.15,276.44 18.61,274.94 19.35,273.56 20.34,272.34 21.56,271.35 22.94,270.61 24.44,270.15 26,270 52,270 53.56,270.15 55.06,270.61 56.44,271.35 57.66,272.34 58.65,273.56 59.39,274.94 59.85,276.44 60,278 60,278 59.85,279.56 59.39,281.06 58.65,282.44 57.66,283.66 56.44,284.65 55.06,285.39 53.56,285.85 52,286 26,286 24.44,285.85 22.94,285.39 21.56,284.65 20.34,283.66 19.35,282.44 18.61,281.06 18.15,279.56 18,278" />
  <polygon class="cut" points="600,278 600.15,276.44 600.61,274.94 601.35,273.56 602.34,272.34 603.56,271.35 604.94,270.61 606.44,270.15 608,270 634,270 635.56,270.15 637.06,270.61 638.44,271.35 639.66,272.34 640.65,273.56 641.39,274.94 641.85,276.44 642,278 642,278 641.85,279.56 641.39,281.06 640.65,282.44 639.66,283.66 638.44,284.65 637.06,285.39 635.56,285.85 634,286 608,286 606.44,285.85 604.94,285.39 603.56,284.65 602.34,283.66 601.35,282.44 600.61,281.06 600.15,279.56 600,278" />
  <polygon class="cut" points="58,64 58.12,62.83 58.46,61.7 59.01,60.67 59.76,59.76 60.67,59.01 61.7,58.46 62.83,58.12 64,58 86,58 87.17,58.12 88.3,58.46 89.33,59.01 90.24,59.76 90.99,60.67 91.54,61.7 91.88,62.83 92,64 92,64 91.88,65.17 91.54,66.3 90.99,67.33 90.24,68.24 89.33,68.99 88.3,69.54 87.17,69.88 86,70 64,70 62.83,69.88 61.7,69.54 60.67,68.99 59.76,68.24 59.01,67.33 58.46,66.3 58.12,65.17 58,64" />
  <polygon class="cut" points="218,64 218.12,62.83 218.46,61.7 219.01,60.67 219.76,59.76 220.67,59.01 221.7,58.46 222.83,58.12 224,58 246,58 247.17,58.12 248.3,58.46 249.33,59.01 250.24,59.76 250.99,60.67 251.54,61.7 251.88,62.83 252,64 252,64 251.88,65.17 251.54,66.3 250.99,67.33 250.24,68.24 249.33,68.99 248.3,69.54 247.17,69.88 246,70 224,70 222.83,69.88 221.7,69.54 220.67,68.99 219.76,68.24 219.01,67.33 218.46,66.3 218.12,65.17 218,64" />
  <polygon class="cut" points="58,232 58.12,230.83 58.46,229.7 59.01,228.67 59.76,227.76 60.67,227.01 61.7,226.46 62.83,226.12 64,226 86,226 87.17,226.12 88.3,226.46 89.33,227.01 90.24,227.76 90.99,228.67 91.54,229.7 91.88,230.83 92,232 92,232 91.88,233.17 91.54,234.3 90.99,235.33 90.24,236.24 89.33,236.99 88.3,237.54 87.17,237.88 86,238 64,238 62.83,237.88 61.7,237.54 60.67,236.99 59.76,236.24 59.01,235.33 58.46,234.3 58.12,233.17 58,232" />
  <polygon class="cut" points="218,232 218.12,230.83 218.46,229.7 219.01,228.67 219.76,227.76 220.67,227.01 221.7,226.46 222.83,226.12 224,226 246,226 247.17,226.12 248.3,226.46 249.33,227.01 250.24,227.76 250.99,228.67 251.54,229.7 251.88,230.83 252,232 252,232 251.88,233.17 251.54,234.3 250.99,235.33 250.24,236.24 249.33,236.99 248.3,237.54 247.17,237.88 246,238 224,238 222.83,237.88 221.7,237.54 220.67,236.99 219.76,236.24 219.01,235.33 218.46,234.3 218.12,233.17 218,232" />
  <polygon class="cut" points="438,118 438.12,116.83 438.46,115.7 439.01,114.67 439.76,113.76 440.67,113.01 441.7,112.46 442.83,112.12 444,112 460,112 461.17,112.12 462.3,112.46 463.33,113.01 464.24,113.76 464.99,114.67 465.54,115.7 465.88,116.83 466,118 466,118 465.88,119.17 465.54,120.3 464.99,121.33 464.24,122.24 463.33,122.99 462.3,123.54 461.17,123.88 460,124 444,124 442.83,123.88 441.7,123.54 440.67,122.99 439.76,122.24 439.01,121.33 438.46,120.3 438.12,119.17 438,118" />
  <polygon class="cut" points="488,118 488.12,116.83 488.46,115.7 489.01,114.67 489.76,113.76 490.67,113.01 491.7,112.46 492.83,112.12 494,112 510,112 511.17,112.12 512.3,112.46 513.33,113.01 514.24,113.76 514.99,114.67 515.54,115.7 515.88,116.83 516,118 516,118 515.88,119.17 515.54,120.3 514.99,121.33 514.24,122.24 513.33,122.99 512.3,123.54 511.17,123.88 510,124 494,124 492.83,123.88 491.7,123.54 490.67,122.99 489.76,122.24 489.01,121.33 488.46,120.3 488.12,119.17 488,118" />
  <polygon class="cut" points="438,190 438.12,188.83 438.46,187.7 439.01,186.67 439.76,185.76 440.67,185.01 441.7,184.46 442.83,184.12 444,184 460,184 461.17,184.12 462.3,184.46 463.33,185.01 464.24,185.76 464.99,186.67 465.54,187.7 465.88,188.83 466,190 466,190 465.88,191.17 465.54,192.3 464.99,193.33 464.24,194.24 463.33,194.99 462.3,195.54 461.17,195.88 460,196 444,196 442.83,195.88 441.7,195.54 440.67,194.99 439.76,194.24 439.01,193.33 438.46,192.3 438.12,191.17 438,190" />
  <polygon class="cut" points="488,190 488.12,188.83 488.46,187.7 489.01,186.67 489.76,185.76 490.67,185.01 491.7,184.46 492.83,184.12 494,184 510,184 511.17,184.12 512.3,184.46 513.33,185.01 514.24,185.76 514.99,186.67 515.54,187.7 515.88,188.83 516,190 516,190 515.88,191.17 515.54,192.3 514.99,193.33 514.24,194.24 513.33,194.99 512.3,195.54 511.17,195.88 510,196 494,196 492.83,195.88 491.7,195.54 490.67,194.99 489.76,194.24 489.01,193.33 488.46,192.3 488.12,191.17 488,190" />
  <circle class="cut" cx="74" cy="86" r="3.25" />
  <circle class="cut" cx="132" cy="136" r="3.25" />
  <circle class="cut" cx="74" cy="244" r="3.25" />
  <circle class="cut" cx="392" cy="244" r="3.25" />
  <circle class="cut" cx="427" cy="244" r="3.25" />
  <circle class="cut" cx="462" cy="244" r="3.25" />
  <circle class="cut" cx="497" cy="244" r="3.25" />
  <circle class="cut" cx="532" cy="244" r="3.25" />
  <circle class="cut" cx="497" cy="278" r="3.25" />
  <circle class="cut" cx="566" cy="278" r="3.25" />
  <circle class="cut" cx="610" cy="146" r="3.25" />
  </g>
  <text x="25" y="380" class="note">Raised front/radiator-side access ladder: 660 x 310 x 3.0 mm mild steel. This wider Rev F ladder moves the covered relay box fully outside the standard battery envelope and keeps its cover openable with the battery installed.</text>
  <text x="25" y="392" class="note">The Relay Rev D flat aluminium base mounts on the outboard/access edge of this ladder, with the already-covered relay box face reachable without lifting the battery and a 300 x 197 insulating sheet between the relay box and the aluminium base.</text>
  <text x="25" y="404" class="note">Relay Rev D is now only the existing covered relay box, its exact-size insulating sheet, and a flat aluminium mounting base; do not add separate red/black relay cable-boot or loom-card fabrication above the box.</text>
  <text x="25" y="416" class="note">MIDI Rev D is the current hinged aluminium enclosure on a separated top/front shelf zone, with its leading edge aligned to the battery leading edge datum, the cutoff-switched power input entering the fuse 4 / second-from-last holder grommet, and five grommeted outputs leaving the opposite side.</text>
  <text x="25" y="428" class="note">The far-side MIDI output grommet must be enlarged for the output that leaves with two power cables.</text>
  <text x="25" y="440" class="note">The folded cutoff/kill-switch base/guard sits beside the MIDI fuse shelf rather than behind it, because there is not enough depth after the MIDI outputs for another heavy-cable device. Put the far-side cutoff stud to the battery and the near-side switched stud toward the relay/MIDI split.</text>
  <text x="25" y="452" class="note">Model the battery positive entering the side-mounted cutoff/kill switch first from the central battery terminal position. The cutoff output then splits from the side closer to the relay/MIDI equipment: one branch to the existing relay box feed and one branch to the second-from-last MIDI holder input.</text>
  <text x="25" y="464" class="note">Keep at least an 80 mm cable fanout/gutter around the existing relay box, cutoff lugs, MIDI feed, and five MIDI output lugs. Clip relay and MIDI wiring to the stand only after the real box exits and cable bends are checked. Do not cut final holes until the battery-cavity map proves radiator, hose, steering, bonnet, tool, battery removal, and cable-bend clearance.</text>
</svg>
