0
SECTION
2
HEADER
9
$INSUNITS
70
4
0
ENDSEC
0
SECTION
2
ENTITIES
0
LINE
8
CUT
10
0
20
0
11
340
21
0
0
LINE
8
CUT
10
340
20
0
11
340
21
90
0
LINE
8
CUT
10
340
20
90
11
0
21
90
0
LINE
8
CUT
10
0
20
90
11
0
21
0
0
LINE
8
CUT
10
18
20
28
11
18.15
21
26.44
0
LINE
8
CUT
10
18.15
20
26.44
11
18.61
21
24.94
0
LINE
8
CUT
10
18.61
20
24.94
11
19.35
21
23.56
0
LINE
8
CUT
10
19.35
20
23.56
11
20.34
21
22.34
0
LINE
8
CUT
10
20.34
20
22.34
11
21.56
21
21.35
0
LINE
8
CUT
10
21.56
20
21.35
11
22.94
21
20.61
0
LINE
8
CUT
10
22.94
20
20.61
11
24.44
21
20.15
0
LINE
8
CUT
10
24.44
20
20.15
11
26
21
20
0
LINE
8
CUT
10
26
20
20
11
52
21
20
0
LINE
8
CUT
10
52
20
20
11
53.56
21
20.15
0
LINE
8
CUT
10
53.56
20
20.15
11
55.06
21
20.61
0
LINE
8
CUT
10
55.06
20
20.61
11
56.44
21
21.35
0
LINE
8
CUT
10
56.44
20
21.35
11
57.66
21
22.34
0
LINE
8
CUT
10
57.66
20
22.34
11
58.65
21
23.56
0
LINE
8
CUT
10
58.65
20
23.56
11
59.39
21
24.94
0
LINE
8
CUT
10
59.39
20
24.94
11
59.85
21
26.44
0
LINE
8
CUT
10
59.85
20
26.44
11
60
21
28
0
LINE
8
CUT
10
60
20
28
11
60
21
28
0
LINE
8
CUT
10
60
20
28
11
59.85
21
29.56
0
LINE
8
CUT
10
59.85
20
29.56
11
59.39
21
31.06
0
LINE
8
CUT
10
59.39
20
31.06
11
58.65
21
32.44
0
LINE
8
CUT
10
58.65
20
32.44
11
57.66
21
33.66
0
LINE
8
CUT
10
57.66
20
33.66
11
56.44
21
34.65
0
LINE
8
CUT
10
56.44
20
34.65
11
55.06
21
35.39
0
LINE
8
CUT
10
55.06
20
35.39
11
53.56
21
35.85
0
LINE
8
CUT
10
53.56
20
35.85
11
52
21
36
0
LINE
8
CUT
10
52
20
36
11
26
21
36
0
LINE
8
CUT
10
26
20
36
11
24.44
21
35.85
0
LINE
8
CUT
10
24.44
20
35.85
11
22.94
21
35.39
0
LINE
8
CUT
10
22.94
20
35.39
11
21.56
21
34.65
0
LINE
8
CUT
10
21.56
20
34.65
11
20.34
21
33.66
0
LINE
8
CUT
10
20.34
20
33.66
11
19.35
21
32.44
0
LINE
8
CUT
10
19.35
20
32.44
11
18.61
21
31.06
0
LINE
8
CUT
10
18.61
20
31.06
11
18.15
21
29.56
0
LINE
8
CUT
10
18.15
20
29.56
11
18
21
28
0
LINE
8
CUT
10
18
20
28
11
18
21
28
0
LINE
8
CUT
10
280
20
28
11
280.15
21
26.44
0
LINE
8
CUT
10
280.15
20
26.44
11
280.61
21
24.94
0
LINE
8
CUT
10
280.61
20
24.94
11
281.35
21
23.56
0
LINE
8
CUT
10
281.35
20
23.56
11
282.34
21
22.34
0
LINE
8
CUT
10
282.34
20
22.34
11
283.56
21
21.35
0
LINE
8
CUT
10
283.56
20
21.35
11
284.94
21
20.61
0
LINE
8
CUT
10
284.94
20
20.61
11
286.44
21
20.15
0
LINE
8
CUT
10
286.44
20
20.15
11
288
21
20
0
LINE
8
CUT
10
288
20
20
11
314
21
20
0
LINE
8
CUT
10
314
20
20
11
315.56
21
20.15
0
LINE
8
CUT
10
315.56
20
20.15
11
317.06
21
20.61
0
LINE
8
CUT
10
317.06
20
20.61
11
318.44
21
21.35
0
LINE
8
CUT
10
318.44
20
21.35
11
319.66
21
22.34
0
LINE
8
CUT
10
319.66
20
22.34
11
320.65
21
23.56
0
LINE
8
CUT
10
320.65
20
23.56
11
321.39
21
24.94
0
LINE
8
CUT
10
321.39
20
24.94
11
321.85
21
26.44
0
LINE
8
CUT
10
321.85
20
26.44
11
322
21
28
0
LINE
8
CUT
10
322
20
28
11
322
21
28
0
LINE
8
CUT
10
322
20
28
11
321.85
21
29.56
0
LINE
8
CUT
10
321.85
20
29.56
11
321.39
21
31.06
0
LINE
8
CUT
10
321.39
20
31.06
11
320.65
21
32.44
0
LINE
8
CUT
10
320.65
20
32.44
11
319.66
21
33.66
0
LINE
8
CUT
10
319.66
20
33.66
11
318.44
21
34.65
0
LINE
8
CUT
10
318.44
20
34.65
11
317.06
21
35.39
0
LINE
8
CUT
10
317.06
20
35.39
11
315.56
21
35.85
0
LINE
8
CUT
10
315.56
20
35.85
11
314
21
36
0
LINE
8
CUT
10
314
20
36
11
288
21
36
0
LINE
8
CUT
10
288
20
36
11
286.44
21
35.85
0
LINE
8
CUT
10
286.44
20
35.85
11
284.94
21
35.39
0
LINE
8
CUT
10
284.94
20
35.39
11
283.56
21
34.65
0
LINE
8
CUT
10
283.56
20
34.65
11
282.34
21
33.66
0
LINE
8
CUT
10
282.34
20
33.66
11
281.35
21
32.44
0
LINE
8
CUT
10
281.35
20
32.44
11
280.61
21
31.06
0
LINE
8
CUT
10
280.61
20
31.06
11
280.15
21
29.56
0
LINE
8
CUT
10
280.15
20
29.56
11
280
21
28
0
LINE
8
CUT
10
280
20
28
11
280
21
28
0
LINE
8
CUT
10
18
20
62
11
18.15
21
60.44
0
LINE
8
CUT
10
18.15
20
60.44
11
18.61
21
58.94
0
LINE
8
CUT
10
18.61
20
58.94
11
19.35
21
57.56
0
LINE
8
CUT
10
19.35
20
57.56
11
20.34
21
56.34
0
LINE
8
CUT
10
20.34
20
56.34
11
21.56
21
55.35
0
LINE
8
CUT
10
21.56
20
55.35
11
22.94
21
54.61
0
LINE
8
CUT
10
22.94
20
54.61
11
24.44
21
54.15
0
LINE
8
CUT
10
24.44
20
54.15
11
26
21
54
0
LINE
8
CUT
10
26
20
54
11
52
21
54
0
LINE
8
CUT
10
52
20
54
11
53.56
21
54.15
0
LINE
8
CUT
10
53.56
20
54.15
11
55.06
21
54.61
0
LINE
8
CUT
10
55.06
20
54.61
11
56.44
21
55.35
0
LINE
8
CUT
10
56.44
20
55.35
11
57.66
21
56.34
0
LINE
8
CUT
10
57.66
20
56.34
11
58.65
21
57.56
0
LINE
8
CUT
10
58.65
20
57.56
11
59.39
21
58.94
0
LINE
8
CUT
10
59.39
20
58.94
11
59.85
21
60.44
0
LINE
8
CUT
10
59.85
20
60.44
11
60
21
62
0
LINE
8
CUT
10
60
20
62
11
60
21
62
0
LINE
8
CUT
10
60
20
62
11
59.85
21
63.56
0
LINE
8
CUT
10
59.85
20
63.56
11
59.39
21
65.06
0
LINE
8
CUT
10
59.39
20
65.06
11
58.65
21
66.44
0
LINE
8
CUT
10
58.65
20
66.44
11
57.66
21
67.66
0
LINE
8
CUT
10
57.66
20
67.66
11
56.44
21
68.65
0
LINE
8
CUT
10
56.44
20
68.65
11
55.06
21
69.39
0
LINE
8
CUT
10
55.06
20
69.39
11
53.56
21
69.85
0
LINE
8
CUT
10
53.56
20
69.85
11
52
21
70
0
LINE
8
CUT
10
52
20
70
11
26
21
70
0
LINE
8
CUT
10
26
20
70
11
24.44
21
69.85
0
LINE
8
CUT
10
24.44
20
69.85
11
22.94
21
69.39
0
LINE
8
CUT
10
22.94
20
69.39
11
21.56
21
68.65
0
LINE
8
CUT
10
21.56
20
68.65
11
20.34
21
67.66
0
LINE
8
CUT
10
20.34
20
67.66
11
19.35
21
66.44
0
LINE
8
CUT
10
19.35
20
66.44
11
18.61
21
65.06
0
LINE
8
CUT
10
18.61
20
65.06
11
18.15
21
63.56
0
LINE
8
CUT
10
18.15
20
63.56
11
18
21
62
0
LINE
8
CUT
10
18
20
62
11
18
21
62
0
LINE
8
CUT
10
280
20
62
11
280.15
21
60.44
0
LINE
8
CUT
10
280.15
20
60.44
11
280.61
21
58.94
0
LINE
8
CUT
10
280.61
20
58.94
11
281.35
21
57.56
0
LINE
8
CUT
10
281.35
20
57.56
11
282.34
21
56.34
0
LINE
8
CUT
10
282.34
20
56.34
11
283.56
21
55.35
0
LINE
8
CUT
10
283.56
20
55.35
11
284.94
21
54.61
0
LINE
8
CUT
10
284.94
20
54.61
11
286.44
21
54.15
0
LINE
8
CUT
10
286.44
20
54.15
11
288
21
54
0
LINE
8
CUT
10
288
20
54
11
314
21
54
0
LINE
8
CUT
10
314
20
54
11
315.56
21
54.15
0
LINE
8
CUT
10
315.56
20
54.15
11
317.06
21
54.61
0
LINE
8
CUT
10
317.06
20
54.61
11
318.44
21
55.35
0
LINE
8
CUT
10
318.44
20
55.35
11
319.66
21
56.34
0
LINE
8
CUT
10
319.66
20
56.34
11
320.65
21
57.56
0
LINE
8
CUT
10
320.65
20
57.56
11
321.39
21
58.94
0
LINE
8
CUT
10
321.39
20
58.94
11
321.85
21
60.44
0
LINE
8
CUT
10
321.85
20
60.44
11
322
21
62
0
LINE
8
CUT
10
322
20
62
11
322
21
62
0
LINE
8
CUT
10
322
20
62
11
321.85
21
63.56
0
LINE
8
CUT
10
321.85
20
63.56
11
321.39
21
65.06
0
LINE
8
CUT
10
321.39
20
65.06
11
320.65
21
66.44
0
LINE
8
CUT
10
320.65
20
66.44
11
319.66
21
67.66
0
LINE
8
CUT
10
319.66
20
67.66
11
318.44
21
68.65
0
LINE
8
CUT
10
318.44
20
68.65
11
317.06
21
69.39
0
LINE
8
CUT
10
317.06
20
69.39
11
315.56
21
69.85
0
LINE
8
CUT
10
315.56
20
69.85
11
314
21
70
0
LINE
8
CUT
10
314
20
70
11
288
21
70
0
LINE
8
CUT
10
288
20
70
11
286.44
21
69.85
0
LINE
8
CUT
10
286.44
20
69.85
11
284.94
21
69.39
0
LINE
8
CUT
10
284.94
20
69.39
11
283.56
21
68.65
0
LINE
8
CUT
10
283.56
20
68.65
11
282.34
21
67.66
0
LINE
8
CUT
10
282.34
20
67.66
11
281.35
21
66.44
0
LINE
8
CUT
10
281.35
20
66.44
11
280.61
21
65.06
0
LINE
8
CUT
10
280.61
20
65.06
11
280.15
21
63.56
0
LINE
8
CUT
10
280.15
20
63.56
11
280
21
62
0
LINE
8
CUT
10
280
20
62
11
280
21
62
0
LINE
8
CUT
10
92
20
22
11
92.12
21
20.83
0
LINE
8
CUT
10
92.12
20
20.83
11
92.46
21
19.7
0
LINE
8
CUT
10
92.46
20
19.7
11
93.01
21
18.67
0
LINE
8
CUT
10
93.01
20
18.67
11
93.76
21
17.76
0
LINE
8
CUT
10
93.76
20
17.76
11
94.67
21
17.01
0
LINE
8
CUT
10
94.67
20
17.01
11
95.7
21
16.46
0
LINE
8
CUT
10
95.7
20
16.46
11
96.83
21
16.12
0
LINE
8
CUT
10
96.83
20
16.12
11
98
21
16
0
LINE
8
CUT
10
98
20
16
11
120
21
16
0
LINE
8
CUT
10
120
20
16
11
121.17
21
16.12
0
LINE
8
CUT
10
121.17
20
16.12
11
122.3
21
16.46
0
LINE
8
CUT
10
122.3
20
16.46
11
123.33
21
17.01
0
LINE
8
CUT
10
123.33
20
17.01
11
124.24
21
17.76
0
LINE
8
CUT
10
124.24
20
17.76
11
124.99
21
18.67
0
LINE
8
CUT
10
124.99
20
18.67
11
125.54
21
19.7
0
LINE
8
CUT
10
125.54
20
19.7
11
125.88
21
20.83
0
LINE
8
CUT
10
125.88
20
20.83
11
126
21
22
0
LINE
8
CUT
10
126
20
22
11
126
21
22
0
LINE
8
CUT
10
126
20
22
11
125.88
21
23.17
0
LINE
8
CUT
10
125.88
20
23.17
11
125.54
21
24.3
0
LINE
8
CUT
10
125.54
20
24.3
11
124.99
21
25.33
0
LINE
8
CUT
10
124.99
20
25.33
11
124.24
21
26.24
0
LINE
8
CUT
10
124.24
20
26.24
11
123.33
21
26.99
0
LINE
8
CUT
10
123.33
20
26.99
11
122.3
21
27.54
0
LINE
8
CUT
10
122.3
20
27.54
11
121.17
21
27.88
0
LINE
8
CUT
10
121.17
20
27.88
11
120
21
28
0
LINE
8
CUT
10
120
20
28
11
98
21
28
0
LINE
8
CUT
10
98
20
28
11
96.83
21
27.88
0
LINE
8
CUT
10
96.83
20
27.88
11
95.7
21
27.54
0
LINE
8
CUT
10
95.7
20
27.54
11
94.67
21
26.99
0
LINE
8
CUT
10
94.67
20
26.99
11
93.76
21
26.24
0
LINE
8
CUT
10
93.76
20
26.24
11
93.01
21
25.33
0
LINE
8
CUT
10
93.01
20
25.33
11
92.46
21
24.3
0
LINE
8
CUT
10
92.46
20
24.3
11
92.12
21
23.17
0
LINE
8
CUT
10
92.12
20
23.17
11
92
21
22
0
LINE
8
CUT
10
92
20
22
11
92
21
22
0
LINE
8
CUT
10
214
20
22
11
214.12
21
20.83
0
LINE
8
CUT
10
214.12
20
20.83
11
214.46
21
19.7
0
LINE
8
CUT
10
214.46
20
19.7
11
215.01
21
18.67
0
LINE
8
CUT
10
215.01
20
18.67
11
215.76
21
17.76
0
LINE
8
CUT
10
215.76
20
17.76
11
216.67
21
17.01
0
LINE
8
CUT
10
216.67
20
17.01
11
217.7
21
16.46
0
LINE
8
CUT
10
217.7
20
16.46
11
218.83
21
16.12
0
LINE
8
CUT
10
218.83
20
16.12
11
220
21
16
0
LINE
8
CUT
10
220
20
16
11
242
21
16
0
LINE
8
CUT
10
242
20
16
11
243.17
21
16.12
0
LINE
8
CUT
10
243.17
20
16.12
11
244.3
21
16.46
0
LINE
8
CUT
10
244.3
20
16.46
11
245.33
21
17.01
0
LINE
8
CUT
10
245.33
20
17.01
11
246.24
21
17.76
0
LINE
8
CUT
10
246.24
20
17.76
11
246.99
21
18.67
0
LINE
8
CUT
10
246.99
20
18.67
11
247.54
21
19.7
0
LINE
8
CUT
10
247.54
20
19.7
11
247.88
21
20.83
0
LINE
8
CUT
10
247.88
20
20.83
11
248
21
22
0
LINE
8
CUT
10
248
20
22
11
248
21
22
0
LINE
8
CUT
10
248
20
22
11
247.88
21
23.17
0
LINE
8
CUT
10
247.88
20
23.17
11
247.54
21
24.3
0
LINE
8
CUT
10
247.54
20
24.3
11
246.99
21
25.33
0
LINE
8
CUT
10
246.99
20
25.33
11
246.24
21
26.24
0
LINE
8
CUT
10
246.24
20
26.24
11
245.33
21
26.99
0
LINE
8
CUT
10
245.33
20
26.99
11
244.3
21
27.54
0
LINE
8
CUT
10
244.3
20
27.54
11
243.17
21
27.88
0
LINE
8
CUT
10
243.17
20
27.88
11
242
21
28
0
LINE
8
CUT
10
242
20
28
11
220
21
28
0
LINE
8
CUT
10
220
20
28
11
218.83
21
27.88
0
LINE
8
CUT
10
218.83
20
27.88
11
217.7
21
27.54
0
LINE
8
CUT
10
217.7
20
27.54
11
216.67
21
26.99
0
LINE
8
CUT
10
216.67
20
26.99
11
215.76
21
26.24
0
LINE
8
CUT
10
215.76
20
26.24
11
215.01
21
25.33
0
LINE
8
CUT
10
215.01
20
25.33
11
214.46
21
24.3
0
LINE
8
CUT
10
214.46
20
24.3
11
214.12
21
23.17
0
LINE
8
CUT
10
214.12
20
23.17
11
214
21
22
0
LINE
8
CUT
10
214
20
22
11
214
21
22
0
LINE
8
CUT
10
92
20
68
11
92.12
21
66.83
0
LINE
8
CUT
10
92.12
20
66.83
11
92.46
21
65.7
0
LINE
8
CUT
10
92.46
20
65.7
11
93.01
21
64.67
0
LINE
8
CUT
10
93.01
20
64.67
11
93.76
21
63.76
0
LINE
8
CUT
10
93.76
20
63.76
11
94.67
21
63.01
0
LINE
8
CUT
10
94.67
20
63.01
11
95.7
21
62.46
0
LINE
8
CUT
10
95.7
20
62.46
11
96.83
21
62.12
0
LINE
8
CUT
10
96.83
20
62.12
11
98
21
62
0
LINE
8
CUT
10
98
20
62
11
120
21
62
0
LINE
8
CUT
10
120
20
62
11
121.17
21
62.12
0
LINE
8
CUT
10
121.17
20
62.12
11
122.3
21
62.46
0
LINE
8
CUT
10
122.3
20
62.46
11
123.33
21
63.01
0
LINE
8
CUT
10
123.33
20
63.01
11
124.24
21
63.76
0
LINE
8
CUT
10
124.24
20
63.76
11
124.99
21
64.67
0
LINE
8
CUT
10
124.99
20
64.67
11
125.54
21
65.7
0
LINE
8
CUT
10
125.54
20
65.7
11
125.88
21
66.83
0
LINE
8
CUT
10
125.88
20
66.83
11
126
21
68
0
LINE
8
CUT
10
126
20
68
11
126
21
68
0
LINE
8
CUT
10
126
20
68
11
125.88
21
69.17
0
LINE
8
CUT
10
125.88
20
69.17
11
125.54
21
70.3
0
LINE
8
CUT
10
125.54
20
70.3
11
124.99
21
71.33
0
LINE
8
CUT
10
124.99
20
71.33
11
124.24
21
72.24
0
LINE
8
CUT
10
124.24
20
72.24
11
123.33
21
72.99
0
LINE
8
CUT
10
123.33
20
72.99
11
122.3
21
73.54
0
LINE
8
CUT
10
122.3
20
73.54
11
121.17
21
73.88
0
LINE
8
CUT
10
121.17
20
73.88
11
120
21
74
0
LINE
8
CUT
10
120
20
74
11
98
21
74
0
LINE
8
CUT
10
98
20
74
11
96.83
21
73.88
0
LINE
8
CUT
10
96.83
20
73.88
11
95.7
21
73.54
0
LINE
8
CUT
10
95.7
20
73.54
11
94.67
21
72.99
0
LINE
8
CUT
10
94.67
20
72.99
11
93.76
21
72.24
0
LINE
8
CUT
10
93.76
20
72.24
11
93.01
21
71.33
0
LINE
8
CUT
10
93.01
20
71.33
11
92.46
21
70.3
0
LINE
8
CUT
10
92.46
20
70.3
11
92.12
21
69.17
0
LINE
8
CUT
10
92.12
20
69.17
11
92
21
68
0
LINE
8
CUT
10
92
20
68
11
92
21
68
0
LINE
8
CUT
10
214
20
68
11
214.12
21
66.83
0
LINE
8
CUT
10
214.12
20
66.83
11
214.46
21
65.7
0
LINE
8
CUT
10
214.46
20
65.7
11
215.01
21
64.67
0
LINE
8
CUT
10
215.01
20
64.67
11
215.76
21
63.76
0
LINE
8
CUT
10
215.76
20
63.76
11
216.67
21
63.01
0
LINE
8
CUT
10
216.67
20
63.01
11
217.7
21
62.46
0
LINE
8
CUT
10
217.7
20
62.46
11
218.83
21
62.12
0
LINE
8
CUT
10
218.83
20
62.12
11
220
21
62
0
LINE
8
CUT
10
220
20
62
11
242
21
62
0
LINE
8
CUT
10
242
20
62
11
243.17
21
62.12
0
LINE
8
CUT
10
243.17
20
62.12
11
244.3
21
62.46
0
LINE
8
CUT
10
244.3
20
62.46
11
245.33
21
63.01
0
LINE
8
CUT
10
245.33
20
63.01
11
246.24
21
63.76
0
LINE
8
CUT
10
246.24
20
63.76
11
246.99
21
64.67
0
LINE
8
CUT
10
246.99
20
64.67
11
247.54
21
65.7
0
LINE
8
CUT
10
247.54
20
65.7
11
247.88
21
66.83
0
LINE
8
CUT
10
247.88
20
66.83
11
248
21
68
0
LINE
8
CUT
10
248
20
68
11
248
21
68
0
LINE
8
CUT
10
248
20
68
11
247.88
21
69.17
0
LINE
8
CUT
10
247.88
20
69.17
11
247.54
21
70.3
0
LINE
8
CUT
10
247.54
20
70.3
11
246.99
21
71.33
0
LINE
8
CUT
10
246.99
20
71.33
11
246.24
21
72.24
0
LINE
8
CUT
10
246.24
20
72.24
11
245.33
21
72.99
0
LINE
8
CUT
10
245.33
20
72.99
11
244.3
21
73.54
0
LINE
8
CUT
10
244.3
20
73.54
11
243.17
21
73.88
0
LINE
8
CUT
10
243.17
20
73.88
11
242
21
74
0
LINE
8
CUT
10
242
20
74
11
220
21
74
0
LINE
8
CUT
10
220
20
74
11
218.83
21
73.88
0
LINE
8
CUT
10
218.83
20
73.88
11
217.7
21
73.54
0
LINE
8
CUT
10
217.7
20
73.54
11
216.67
21
72.99
0
LINE
8
CUT
10
216.67
20
72.99
11
215.76
21
72.24
0
LINE
8
CUT
10
215.76
20
72.24
11
215.01
21
71.33
0
LINE
8
CUT
10
215.01
20
71.33
11
214.46
21
70.3
0
LINE
8
CUT
10
214.46
20
70.3
11
214.12
21
69.17
0
LINE
8
CUT
10
214.12
20
69.17
11
214
21
68
0
LINE
8
CUT
10
214
20
68
11
214
21
68
0
CIRCLE
8
CUT
10
78
20
45
40
3.25
0
CIRCLE
8
CUT
10
142
20
45
40
3.25
0
CIRCLE
8
CUT
10
198
20
45
40
3.25
0
CIRCLE
8
CUT
10
262
20
45
40
3.25
0
ENDSEC
0
EOF
