<svg xmlns="http://www.w3.org/2000/svg" width="920" height="620" viewBox="0 0 920 620" role="img" aria-labelledby="title desc">
  <title id="title">Battery stand power carrier Rev D raised service-ladder 3D visualisation</title>
  <desc id="desc">Isometric visualisation of a compact steel battery stand mounted by a formed saddle over the chassis rail, carrying the battery on a reduced tray with a raised serviceable Relay Rev C front ladder, plastic relay underlay ahead of the folded metal tray, MIDI Rev C on a top-front shelf, and a folded cutoff base/guard with direct feeds to both relay and MIDI while the inboard engine/LHD side stays clear.</desc>
  <style>
    .background { fill: #f6f7f8; }
    .shadow { fill: #d9dde2; opacity: 0.55; }
    .plate-top { fill: #cfd6dc; stroke: #4f5962; stroke-width: 1.4; }
    .plate-side { fill: #9ca8b2; stroke: #4f5962; stroke-width: 1.2; }
    .plate-front { fill: #b5bec7; stroke: #4f5962; stroke-width: 1.2; }
    .tab-top { fill: #7f8992; stroke: #343b42; stroke-width: 1.2; }
    .tab-side { fill: #515b64; stroke: #343b42; stroke-width: 1.1; }
    .tab-front { fill: #66717a; stroke: #343b42; stroke-width: 1.1; }
    .chassis-top { fill: #3b434a; stroke: #20262b; stroke-width: 1.2; }
    .chassis-side { fill: #252c32; stroke: #20262b; stroke-width: 1.1; }
    .chassis-front { fill: #303840; stroke: #20262b; stroke-width: 1.1; }
    .battery-top { fill: #2f3942; stroke: #111820; stroke-width: 1.4; }
    .battery-side { fill: #1d252c; stroke: #111820; stroke-width: 1.2; }
    .battery-front { fill: #3d4852; stroke: #111820; stroke-width: 1.2; }
    .hold-top { fill: #cfd6dc; stroke: #4f5962; stroke-width: 1.1; }
    .hold-side { fill: #98a4ae; stroke: #4f5962; stroke-width: 0.9; }
    .hold-front { fill: #b5bec7; stroke: #4f5962; stroke-width: 0.9; }
    .relay-tray-top { fill: #aeb8c1; stroke: #4f5962; stroke-width: 1.2; }
    .relay-tray-side { fill: #818d97; stroke: #4f5962; stroke-width: 1; }
    .relay-tray-front { fill: #98a4ae; stroke: #4f5962; stroke-width: 1; }
    .relay-fuse-top { fill: #384856; stroke: #1f2830; stroke-width: 0.8; }
    .relay-fuse-side { fill: #26323d; stroke: #1f2830; stroke-width: 0.6; }
    .relay-fuse-front { fill: #465867; stroke: #1f2830; stroke-width: 0.6; }
    .relay-fuse-top { fill: #384856; stroke: #1f2830; stroke-width: 0.8; }
    .relay-fuse-side { fill: #26323d; stroke: #1f2830; stroke-width: 0.6; }
    .relay-fuse-front { fill: #465867; stroke: #1f2830; stroke-width: 0.6; }
    .midi-plate-top { fill: #aeb8c1; stroke: #4f5962; stroke-width: 1.2; }
    .midi-plate-side { fill: #818d97; stroke: #4f5962; stroke-width: 1; }
    .midi-plate-front { fill: #98a4ae; stroke: #4f5962; stroke-width: 1; }
    .midi-board-top { fill: #1f2930; stroke: #14191d; stroke-width: 1; }
    .midi-board-side { fill: #161d22; stroke: #14191d; stroke-width: 0.9; }
    .midi-board-front { fill: #2b363e; stroke: #14191d; stroke-width: 0.9; }
    .fuse-top { fill: #b7302a; stroke: #6e1714; stroke-width: 0.8; }
    .fuse-side { fill: #84201b; stroke: #6e1714; stroke-width: 0.7; }
    .fuse-front { fill: #d14a43; stroke: #6e1714; stroke-width: 0.7; }
    .cutoff-base-top { fill: #aeb8c1; stroke: #4f5962; stroke-width: 1.2; }
    .cutoff-base-side { fill: #818d97; stroke: #4f5962; stroke-width: 1; }
    .cutoff-base-front { fill: #98a4ae; stroke: #4f5962; stroke-width: 1; }
    .keepout-top { fill: #d7dde2; stroke: #85909a; stroke-width: 1; stroke-dasharray: 6 4; opacity: 0.24; }
    .keepout-side { fill: #c2cbd2; stroke: #85909a; stroke-width: 1; stroke-dasharray: 6 4; opacity: 0.18; }
    .keepout-front { fill: #eef2f5; stroke: #85909a; stroke-width: 1; stroke-dasharray: 6 4; opacity: 0.14; }
    .breaker-body-top { fill: #111820; stroke: #05080a; stroke-width: 1.2; }
    .breaker-body-side { fill: #080c10; stroke: #05080a; stroke-width: 1; }
    .breaker-body-front { fill: #202a33; stroke: #05080a; stroke-width: 1; }
    .breaker-face-top { fill: #41515f; stroke: #1f2830; stroke-width: 1; }
    .breaker-face-side { fill: #26323d; stroke: #1f2830; stroke-width: 0.9; }
    .breaker-face-front { fill: #33424d; stroke: #1f2830; stroke-width: 0.9; }
    .breaker-lever-top { fill: #d12828; stroke: #871313; stroke-width: 1; }
    .breaker-lever-side { fill: #8f1717; stroke: #871313; stroke-width: 0.9; }
    .breaker-lever-front { fill: #c41d1d; stroke: #871313; stroke-width: 0.9; }
    .breaker-terminal { fill: #c4a35a; stroke: #6f5d2f; stroke-width: 1.1; }
    .positive-cable { fill: none; stroke: #c41d1d; stroke-width: 8; stroke-linejoin: round; stroke-linecap: round; }
    .relay-feed { fill: none; stroke: #a51515; stroke-width: 6; stroke-linejoin: round; stroke-linecap: round; }
    .branch-cable { fill: none; stroke: #242b30; stroke-width: 6; stroke-linejoin: round; stroke-linecap: round; }
    .slot-marker { fill: #eef3f7; stroke: #4f5962; stroke-width: 1.2; }
    .label { font: 600 18px Arial, sans-serif; fill: #24313a; }
  </style>
  <rect class="background" width="920" height="620" /><polygon class="shadow" points="24.0,247.0 492.0,461.5 482.6,492.1 14.6,277.6" /><polygon class="chassis-side" points="511.4,392.5 439.4,425.5 439.4,368.8 511.4,335.8" /><polygon class="chassis-front" points="252.2,339.7 439.4,425.5 439.4,368.8 252.2,283.0" /><polygon class="chassis-top" points="324.2,250.0 511.4,335.8 439.4,368.8 252.2,283.0" /><polygon class="tab-side" points="510.0,326.2 409.2,372.4 409.2,364.0 510.0,317.8" /><polygon class="tab-front" points="250.8,299.8 409.2,372.4 409.2,364.0 250.8,291.4" /><polygon class="tab-top" points="351.6,245.2 510.0,317.8 409.2,364.0 250.8,291.4" /><polygon class="tab-side" points="515.8,371.8 508.6,375.1 508.6,324.7 515.8,321.4" /><polygon class="tab-front" points="350.2,302.5 508.6,375.1 508.6,324.7 350.2,252.1" /><polygon class="tab-top" points="357.4,248.8 515.8,321.4 508.6,324.7 350.2,252.1" /><polygon class="tab-side" points="416.4,417.4 409.2,420.7 409.2,370.3 416.4,367.0" /><polygon class="tab-front" points="250.8,348.1 409.2,420.7 409.2,370.3 250.8,297.7" /><polygon class="tab-top" points="258.0,294.4 416.4,367.0 409.2,370.3 250.8,297.7" /><polygon class="tab-side" points="438.0,305.9 387.6,329.0 387.6,232.4 438.0,209.3" /><polygon class="tab-front" points="328.6,301.9 387.6,329.0 387.6,232.4 328.6,205.3" /><polygon class="tab-top" points="379.0,182.2 438.0,209.3 387.6,232.4 328.6,205.3" /><polygon class="tab-side" points="373.2,276.4 298.3,310.8 298.3,193.2 373.2,158.8" /><polygon class="tab-front" points="281.0,302.8 298.3,310.8 298.3,193.2 281.0,185.2" /><polygon class="tab-top" points="355.9,150.9 373.2,158.8 298.3,193.2 281.0,185.2" /><polygon class="tab-side" points="471.1,321.3 396.2,355.6 396.2,238.0 471.1,203.7" /><polygon class="tab-front" points="379.0,347.7 396.2,355.6 396.2,238.0 379.0,230.1" /><polygon class="tab-top" points="453.8,195.8 471.1,203.7 396.2,238.0 379.0,230.1" /><polygon class="plate-side" points="565.4,188.5 374.6,276.0 374.6,265.5 565.4,178.0" /><polygon class="plate-front" points="147.8,172.0 374.6,276.0 374.6,265.5 147.8,161.5" /><polygon class="plate-top" points="338.6,74.1 565.4,178.0 374.6,265.5 147.8,161.5" /><polygon class="battery-side" points="538.1,177.4 372.5,253.2 372.5,59.0 538.1,-16.9" /><polygon class="battery-front" points="174.5,162.5 372.5,253.2 372.5,59.0 174.5,-31.8" /><polygon class="battery-top" points="340.1,-107.7 538.1,-16.9 372.5,59.0 174.5,-31.8" /><polygon class="hold-side" points="552.5,-9.7 539.5,-3.8 539.5,-12.2 552.5,-18.1" /><polygon class="hold-front" points="312.7,-107.7 539.5,-3.8 539.5,-12.2 312.7,-116.1" /><polygon class="hold-top" points="325.7,-122.1 552.5,-18.1 539.5,-12.2 312.7,-116.1" /><polygon class="hold-side" points="411.4,54.9 398.4,60.9 398.4,52.5 411.4,46.5" /><polygon class="hold-front" points="171.6,-43.1 398.4,60.9 398.4,52.5 171.6,-51.5" /><polygon class="hold-top" points="184.6,-57.4 411.4,46.5 398.4,52.5 171.6,-51.5" /><polygon class="plate-side" points="594.2,164.8 587.0,168.1 587.0,-89.1 594.2,-92.4" /><polygon class="plate-front" points="353.0,60.9 587.0,168.1 587.0,-89.1 353.0,-196.4" /><polygon class="plate-top" points="360.2,-199.7 594.2,-92.4 587.0,-89.1 353.0,-196.4" /><polygon class="relay-tray-side" points="586.3,118.2 580.6,120.8 580.6,-110.2 586.3,-112.8" /><polygon class="relay-tray-front" points="350.2,15.2 580.6,120.8 580.6,-110.2 350.2,-215.8" /><polygon class="relay-tray-top" points="355.9,-218.4 586.3,-112.8 580.6,-110.2 350.2,-215.8" /><polygon class="relay-tray-side" points="368.9,9.3 348.7,18.5 348.7,-212.5 368.9,-221.7" /><polygon class="relay-tray-front" points="343.0,15.9 348.7,18.5 348.7,-212.5 343.0,-215.1" /><polygon class="relay-tray-top" points="363.1,-224.4 368.9,-221.7 348.7,-212.5 343.0,-215.1" /><polygon class="relay-tray-side" points="599.3,114.9 579.1,124.1 579.1,-106.9 599.3,-116.1" /><polygon class="relay-tray-front" points="573.4,121.5 579.1,124.1 579.1,-106.9 573.4,-109.5" /><polygon class="relay-tray-top" points="593.5,-118.8 599.3,-116.1 579.1,-106.9 573.4,-109.5" /><polygon class="relay-tray-side" points="596.4,121.9 576.2,131.2 576.2,122.8 596.4,113.5" /><polygon class="relay-tray-front" points="345.8,25.6 576.2,131.2 576.2,122.8 345.8,17.2" /><polygon class="relay-tray-top" points="366.0,7.9 596.4,113.5 576.2,122.8 345.8,17.2" /><polygon class="relay-tray-side" points="596.4,-117.5 576.2,-108.2 576.2,-116.6 596.4,-125.9" /><polygon class="relay-tray-front" points="345.8,-213.8 576.2,-108.2 576.2,-116.6 345.8,-222.2" /><polygon class="relay-tray-top" points="366.0,-231.5 596.4,-125.9 576.2,-116.6 345.8,-222.2" /><polygon class="midi-board-side" points="573.4,93.1 569.0,95.0 569.0,-99.2 573.4,-101.2" /><polygon class="midi-board-front" points="367.4,2.6 569.0,95.0 569.0,-99.2 367.4,-191.6" /><polygon class="midi-board-top" points="371.8,-193.6 573.4,-101.2 569.0,-99.2 367.4,-191.6" /><polygon class="relay-fuse-side" points="560.4,60.9 533.0,73.4 533.0,-57.8 560.4,-70.4" /><polygon class="relay-fuse-front" points="345.8,-12.4 533.0,73.4 533.0,-57.8 345.8,-143.6" /><polygon class="relay-fuse-top" points="373.2,-156.2 560.4,-70.4 533.0,-57.8 345.8,-143.6" /><polygon class="midi-plate-side" points="520.1,-97.6 412.1,-48.1 412.1,-56.5 520.1,-106.0" /><polygon class="midi-plate-front" points="275.3,-110.8 412.1,-48.1 412.1,-56.5 275.3,-119.2" /><polygon class="midi-plate-top" points="383.3,-168.7 520.1,-106.0 412.1,-56.5 275.3,-119.2" /><polygon class="midi-board-side" points="483.4,-112.0 422.2,-83.9 422.2,-94.4 483.4,-122.5" /><polygon class="midi-board-front" points="321.4,-130.1 422.2,-83.9 422.2,-94.4 321.4,-140.6" /><polygon class="midi-board-top" points="382.6,-168.7 483.4,-122.5 422.2,-94.4 321.4,-140.6" /><polygon class="fuse-side" points="383.3,-157.5 344.4,-139.7 344.4,-156.5 383.3,-174.3" /><polygon class="fuse-front" points="331.4,-145.6 344.4,-139.7 344.4,-156.5 331.4,-162.4" /><polygon class="fuse-top" points="370.3,-180.2 383.3,-174.3 344.4,-156.5 331.4,-162.4" /><polygon class="fuse-side" points="400.6,-149.6 361.7,-131.7 361.7,-148.5 400.6,-166.4" /><polygon class="fuse-front" points="348.7,-137.7 361.7,-131.7 361.7,-148.5 348.7,-154.5" /><polygon class="fuse-top" points="387.6,-172.3 400.6,-166.4 361.7,-148.5 348.7,-154.5" /><polygon class="fuse-side" points="417.8,-141.6 379.0,-123.8 379.0,-140.6 417.8,-158.4" /><polygon class="fuse-front" points="366.0,-129.8 379.0,-123.8 379.0,-140.6 366.0,-146.6" /><polygon class="fuse-top" points="404.9,-164.4 417.8,-158.4 379.0,-140.6 366.0,-146.6" /><polygon class="fuse-side" points="435.1,-133.7 396.2,-115.9 396.2,-132.7 435.1,-150.5" /><polygon class="fuse-front" points="383.3,-121.8 396.2,-115.9 396.2,-132.7 383.3,-138.6" /><polygon class="fuse-top" points="422.2,-156.5 435.1,-150.5 396.2,-132.7 383.3,-138.6" /><polygon class="fuse-side" points="452.4,-125.8 413.5,-108.0 413.5,-124.8 452.4,-142.6" /><polygon class="fuse-front" points="400.6,-113.9 413.5,-108.0 413.5,-124.8 400.6,-130.7" /><polygon class="fuse-top" points="439.4,-148.5 452.4,-142.6 413.5,-124.8 400.6,-130.7" /><polygon class="cutoff-base-side" points="605.0,-58.7 482.6,-2.6 482.6,-11.0 605.0,-67.1" /><polygon class="cutoff-base-front" points="403.4,-38.9 482.6,-2.6 482.6,-11.0 403.4,-47.3" /><polygon class="cutoff-base-top" points="525.8,-103.4 605.0,-67.1 482.6,-11.0 403.4,-47.3" /><polygon class="cutoff-base-side" points="528.7,-102.0 406.3,-45.9 406.3,-69.0 528.7,-125.1" /><polygon class="cutoff-base-front" points="400.6,-48.6 406.3,-45.9 406.3,-69.0 400.6,-71.7" /><polygon class="cutoff-base-top" points="523.0,-127.8 528.7,-125.1 406.3,-69.0 400.6,-71.7" /><polygon class="cutoff-base-side" points="610.8,-64.4 488.4,-8.3 488.4,-31.4 610.8,-87.5" /><polygon class="cutoff-base-front" points="482.6,-11.0 488.4,-8.3 488.4,-31.4 482.6,-34.1" /><polygon class="cutoff-base-top" points="605.0,-90.2 610.8,-87.5 488.4,-31.4 482.6,-34.1" /><polygon class="cutoff-base-side" points="607.9,-68.4 602.2,-65.7 602.2,-88.8 607.9,-91.5" /><polygon class="cutoff-base-front" points="523.0,-102.0 602.2,-65.7 602.2,-88.8 523.0,-125.1" /><polygon class="cutoff-base-top" points="528.7,-127.8 607.9,-91.5 602.2,-88.8 523.0,-125.1" /><polygon class="cutoff-base-side" points="482.6,-11.0 476.9,-8.3 476.9,-31.4 482.6,-34.1" /><polygon class="cutoff-base-front" points="397.7,-44.6 476.9,-8.3 476.9,-31.4 397.7,-67.7" /><polygon class="cutoff-base-top" points="403.4,-70.4 482.6,-34.1 476.9,-31.4 397.7,-67.7" /><polygon class="keepout-side" points="593.5,196.4 427.9,272.3 427.9,36.1 593.5,-39.9" /><polygon class="keepout-front" points="415.0,266.4 427.9,272.3 427.9,36.1 415.0,30.1" /><polygon class="keepout-top" points="580.6,-45.8 593.5,-39.9 427.9,36.1 415.0,30.1" /><polygon class="breaker-body-side" points="554.6,-67.9 514.3,-49.4 514.3,-78.8 554.6,-97.3" /><polygon class="breaker-body-front" points="455.3,-76.5 514.3,-49.4 514.3,-78.8 455.3,-105.9" /><polygon class="breaker-body-top" points="495.6,-124.4 554.6,-97.3 514.3,-78.8 455.3,-105.9" /><polygon class="breaker-face-side" points="546.7,-97.0 515.0,-82.5 515.0,-88.8 546.7,-103.3" /><polygon class="breaker-face-front" points="463.2,-106.2 515.0,-82.5 515.0,-88.8 463.2,-112.5" /><polygon class="breaker-face-top" points="494.9,-127.0 546.7,-103.3 515.0,-88.8 463.2,-112.5" /><polygon class="breaker-lever-side" points="520.8,-106.7 513.6,-103.4 513.6,-109.7 520.8,-113.0" /><polygon class="breaker-lever-front" points="480.5,-118.6 513.6,-103.4 513.6,-109.7 480.5,-124.9" /><polygon class="breaker-lever-top" points="487.7,-128.2 520.8,-113.0 513.6,-109.7 480.5,-124.9" /><circle class="breaker-terminal" cx="497.0" cy="-124.2" r="5" /><circle class="breaker-terminal" cx="518.6" cy="-98.4" r="5" /><polyline class="positive-cable" points="450.2,-57.6 507.8,-94.5 497.0,-124.2" /><polyline class="relay-feed" points="518.6,-98.4 426.5,-140.8 413.5,-147.6" /><polyline class="relay-feed" points="518.6,-98.4 446.6,-106.7 422.2,-102.0 407.8,-123.2" /><polyline class="branch-cable" points="413.5,-147.6 451.0,-27.3 420.7,12.6" /><polygon class="keepout-side" points="563.3,-105.8 538.8,-94.6 538.8,-105.1 563.3,-116.3" /><polygon class="keepout-front" points="366.0,-173.8 538.8,-94.6 538.8,-105.1 366.0,-184.3" /><polygon class="keepout-top" points="390.5,-195.5 563.3,-116.3 538.8,-105.1 366.0,-184.3" /><circle class="slot-marker" cx="371.8" cy="284.6" r="4" /><circle class="slot-marker" cx="492.7" cy="340.0" r="4" /><circle class="slot-marker" cx="271.0" cy="330.8" r="4" /><circle class="slot-marker" cx="391.9" cy="386.2" r="4" /><text class="label" x="126" y="504">Formed chassis saddle</text><text class="label" x="166" y="365">Single upright bridge</text><text class="label" x="322" y="434">Compact battery tray / stand</text><text class="label" x="252" y="214">Battery supported on stand</text><text class="label" x="524" y="230">Raised relay service face</text><text class="label" x="520" y="305">Top-front MIDI shelf</text><text class="label" x="568" y="365">100A breaker/cutoff tray</text><text class="label" x="560" y="332">Direct cutoff feeds</text><text class="label" x="570" y="430">Engine/LHD side keep-clear</text>
</svg>
