<svg xmlns="http://www.w3.org/2000/svg" width="920" height="620" viewBox="0 0 920 620" role="img" aria-labelledby="title desc">
  <title id="title">Battery stand power carrier Rev F standard-battery access 3D visualisation</title>
  <desc id="desc">Isometric visualisation of a compact steel battery stand mounted by a formed saddle over the more central chassis rail, carrying a standard N70/27-class battery envelope on a removable hold-down tray shifted about 150 mm wing-side/outboard from the chassis pickup, with the relay-to-battery gap tightened to about 80 mm, an outboard-access covered Relay Rev C box rotated so power in/out exits from the top and control cables exit toward the front, plastic relay underlay ahead of the folded metal tray, MIDI Rev C aligned to the battery datum, a side-mounted cutoff/kill-switch tray beside the MIDI shelf, MIDI seated output comb/backplate with one enlarged double-wire pass-through, and cutoff-switched feeds to both relay and MIDI while the inboard engine/LHD side stays clear.</desc>
  <style>
    .background { fill: #f6f7f8; }
    .shadow { fill: #d9dde2; opacity: 0.55; }
    .plate-top { fill: #cfd6dc; stroke: #4f5962; stroke-width: 1.4; }
    .plate-side { fill: #9ca8b2; stroke: #4f5962; stroke-width: 1.2; }
    .plate-front { fill: #b5bec7; stroke: #4f5962; stroke-width: 1.2; }
    .tab-top { fill: #7f8992; stroke: #343b42; stroke-width: 1.2; }
    .tab-side { fill: #515b64; stroke: #343b42; stroke-width: 1.1; }
    .tab-front { fill: #66717a; stroke: #343b42; stroke-width: 1.1; }
    .chassis-top { fill: #3b434a; stroke: #20262b; stroke-width: 1.2; }
    .chassis-side { fill: #252c32; stroke: #20262b; stroke-width: 1.1; }
    .chassis-front { fill: #303840; stroke: #20262b; stroke-width: 1.1; }
    .battery-top { fill: #2f3942; stroke: #111820; stroke-width: 1.4; }
    .battery-side { fill: #1d252c; stroke: #111820; stroke-width: 1.2; }
    .battery-front { fill: #3d4852; stroke: #111820; stroke-width: 1.2; }
    .hold-top { fill: #cfd6dc; stroke: #4f5962; stroke-width: 1.1; }
    .hold-side { fill: #98a4ae; stroke: #4f5962; stroke-width: 0.9; }
    .hold-front { fill: #b5bec7; stroke: #4f5962; stroke-width: 0.9; }
    .relay-tray-top { fill: #aeb8c1; stroke: #4f5962; stroke-width: 1.2; }
    .relay-tray-side { fill: #818d97; stroke: #4f5962; stroke-width: 1; }
    .relay-tray-front { fill: #98a4ae; stroke: #4f5962; stroke-width: 1; }
    .relay-fuse-top { fill: #384856; stroke: #1f2830; stroke-width: 0.8; }
    .relay-fuse-side { fill: #26323d; stroke: #1f2830; stroke-width: 0.6; }
    .relay-fuse-front { fill: #465867; stroke: #1f2830; stroke-width: 0.6; }
    .relay-fuse-top { fill: #384856; stroke: #1f2830; stroke-width: 0.8; }
    .relay-fuse-side { fill: #26323d; stroke: #1f2830; stroke-width: 0.6; }
    .relay-fuse-front { fill: #465867; stroke: #1f2830; stroke-width: 0.6; }
    .midi-plate-top { fill: #aeb8c1; stroke: #4f5962; stroke-width: 1.2; }
    .midi-plate-side { fill: #818d97; stroke: #4f5962; stroke-width: 1; }
    .midi-plate-front { fill: #98a4ae; stroke: #4f5962; stroke-width: 1; }
    .midi-board-top { fill: #1f2930; stroke: #14191d; stroke-width: 1; }
    .midi-board-side { fill: #161d22; stroke: #14191d; stroke-width: 0.9; }
    .midi-board-front { fill: #2b363e; stroke: #14191d; stroke-width: 0.9; }
    .fuse-top { fill: #b7302a; stroke: #6e1714; stroke-width: 0.8; }
    .fuse-side { fill: #84201b; stroke: #6e1714; stroke-width: 0.7; }
    .fuse-front { fill: #d14a43; stroke: #6e1714; stroke-width: 0.7; }
    .cutoff-base-top { fill: #aeb8c1; stroke: #4f5962; stroke-width: 1.2; }
    .cutoff-base-side { fill: #818d97; stroke: #4f5962; stroke-width: 1; }
    .cutoff-base-front { fill: #98a4ae; stroke: #4f5962; stroke-width: 1; }
    .keepout-top { fill: #d7dde2; stroke: #85909a; stroke-width: 1; stroke-dasharray: 6 4; opacity: 0.24; }
    .keepout-side { fill: #c2cbd2; stroke: #85909a; stroke-width: 1; stroke-dasharray: 6 4; opacity: 0.18; }
    .keepout-front { fill: #eef2f5; stroke: #85909a; stroke-width: 1; stroke-dasharray: 6 4; opacity: 0.14; }
    .breaker-body-top { fill: #111820; stroke: #05080a; stroke-width: 1.2; }
    .breaker-body-side { fill: #080c10; stroke: #05080a; stroke-width: 1; }
    .breaker-body-front { fill: #202a33; stroke: #05080a; stroke-width: 1; }
    .breaker-face-top { fill: #41515f; stroke: #1f2830; stroke-width: 1; }
    .breaker-face-side { fill: #26323d; stroke: #1f2830; stroke-width: 0.9; }
    .breaker-face-front { fill: #33424d; stroke: #1f2830; stroke-width: 0.9; }
    .breaker-lever-top { fill: #d12828; stroke: #871313; stroke-width: 1; }
    .breaker-lever-side { fill: #8f1717; stroke: #871313; stroke-width: 0.9; }
    .breaker-lever-front { fill: #c41d1d; stroke: #871313; stroke-width: 0.9; }
    .breaker-terminal { fill: #c4a35a; stroke: #6f5d2f; stroke-width: 1.1; }
    .positive-cable { fill: none; stroke: #c41d1d; stroke-width: 8; stroke-linejoin: round; stroke-linecap: round; }
    .relay-feed { fill: none; stroke: #a51515; stroke-width: 6; stroke-linejoin: round; stroke-linecap: round; }
    .branch-cable { fill: none; stroke: #242b30; stroke-width: 6; stroke-linejoin: round; stroke-linecap: round; }
    .slot-marker { fill: #eef3f7; stroke: #4f5962; stroke-width: 1.2; }
    .label { font: 600 18px Arial, sans-serif; fill: #24313a; }
  </style>
  <rect class="background" width="920" height="620" /><polygon class="shadow" points="24.0,247.0 492.0,461.5 482.6,492.1 14.6,277.6" /><polygon class="chassis-side" points="511.4,392.5 439.4,425.5 439.4,368.8 511.4,335.8" /><polygon class="chassis-front" points="252.2,339.7 439.4,425.5 439.4,368.8 252.2,283.0" /><polygon class="chassis-top" points="324.2,250.0 511.4,335.8 439.4,368.8 252.2,283.0" /><polygon class="tab-side" points="510.0,326.2 409.2,372.4 409.2,364.0 510.0,317.8" /><polygon class="tab-front" points="250.8,299.8 409.2,372.4 409.2,364.0 250.8,291.4" /><polygon class="tab-top" points="351.6,245.2 510.0,317.8 409.2,364.0 250.8,291.4" /><polygon class="tab-side" points="515.8,371.8 508.6,375.1 508.6,324.7 515.8,321.4" /><polygon class="tab-front" points="350.2,302.5 508.6,375.1 508.6,324.7 350.2,252.1" /><polygon class="tab-top" points="357.4,248.8 515.8,321.4 508.6,324.7 350.2,252.1" /><polygon class="tab-side" points="416.4,417.4 409.2,420.7 409.2,370.3 416.4,367.0" /><polygon class="tab-front" points="250.8,348.1 409.2,420.7 409.2,370.3 250.8,297.7" /><polygon class="tab-top" points="258.0,294.4 416.4,367.0 409.2,370.3 250.8,297.7" /><polygon class="tab-side" points="438.0,305.9 387.6,329.0 387.6,232.4 438.0,209.3" /><polygon class="tab-front" points="328.6,301.9 387.6,329.0 387.6,232.4 328.6,205.3" /><polygon class="tab-top" points="379.0,182.2 438.0,209.3 387.6,232.4 328.6,205.3" /><polygon class="tab-side" points="373.2,276.4 298.3,310.8 298.3,193.2 373.2,158.8" /><polygon class="tab-front" points="281.0,302.8 298.3,310.8 298.3,193.2 281.0,185.2" /><polygon class="tab-top" points="355.9,150.9 373.2,158.8 298.3,193.2 281.0,185.2" /><polygon class="tab-side" points="471.1,321.3 396.2,355.6 396.2,238.0 471.1,203.7" /><polygon class="tab-front" points="379.0,347.7 396.2,355.6 396.2,238.0 379.0,230.1" /><polygon class="tab-top" points="453.8,195.8 471.1,203.7 396.2,238.0 379.0,230.1" /><polygon class="plate-side" points="554.6,183.6 363.8,271.0 363.8,260.5 554.6,173.1" /><polygon class="plate-front" points="119.0,158.8 363.8,271.0 363.8,260.5 119.0,148.3" /><polygon class="plate-top" points="309.8,60.9 554.6,173.1 363.8,260.5 119.0,148.3" /><polygon class="battery-side" points="520.1,181.0 390.5,240.4 390.5,-1.1 520.1,-60.5" /><polygon class="battery-front" points="161.5,135.4 390.5,240.4 390.5,-1.1 161.5,-106.1" /><polygon class="battery-top" points="291.1,-165.5 520.1,-60.5 390.5,-1.1 161.5,-106.1" /><polygon class="hold-side" points="535.9,-66.2 523.0,-60.2 523.0,-68.6 535.9,-74.6" /><polygon class="hold-front" points="278.2,-172.4 523.0,-60.2 523.0,-68.6 278.2,-180.8" /><polygon class="hold-top" points="291.1,-186.8 535.9,-74.6 523.0,-68.6 278.2,-180.8" /><polygon class="hold-side" points="406.3,-6.8 393.4,-0.8 393.4,-9.2 406.3,-15.2" /><polygon class="hold-front" points="148.6,-113.0 393.4,-0.8 393.4,-9.2 148.6,-121.4" /><polygon class="hold-top" points="161.5,-127.4 406.3,-15.2 393.4,-9.2 148.6,-121.4" /><polygon class="plate-side" points="675.6,195.5 668.4,198.8 668.4,-126.7 675.6,-130.0" /><polygon class="plate-front" points="193.2,-19.0 668.4,198.8 668.4,-126.7 193.2,-344.5" /><polygon class="plate-top" points="200.4,-347.8 675.6,-130.0 668.4,-126.7 193.2,-344.5" /><polygon class="relay-tray-side" points="345.8,7.9 340.1,10.6 340.1,-220.4 345.8,-223.1" /><polygon class="relay-tray-front" points="109.7,-95.0 340.1,10.6 340.1,-220.4 109.7,-326.0" /><polygon class="relay-tray-top" points="115.4,-328.7 345.8,-223.1 340.1,-220.4 109.7,-326.0" /><polygon class="relay-tray-side" points="128.4,-101.0 108.2,-91.7 108.2,-322.7 128.4,-332.0" /><polygon class="relay-tray-front" points="102.5,-94.4 108.2,-91.7 108.2,-322.7 102.5,-325.4" /><polygon class="relay-tray-top" points="122.6,-334.6 128.4,-332.0 108.2,-322.7 102.5,-325.4" /><polygon class="relay-tray-side" points="358.8,4.6 338.6,13.9 338.6,-217.1 358.8,-226.4" /><polygon class="relay-tray-front" points="332.9,11.2 338.6,13.9 338.6,-217.1 332.9,-219.8" /><polygon class="relay-tray-top" points="353.0,-229.0 358.8,-226.4 338.6,-217.1 332.9,-219.8" /><polygon class="relay-tray-side" points="355.9,11.7 335.8,21.0 335.8,12.6 355.9,3.3" /><polygon class="relay-tray-front" points="105.4,-84.6 335.8,21.0 335.8,12.6 105.4,-93.0" /><polygon class="relay-tray-top" points="125.5,-102.3 355.9,3.3 335.8,12.6 105.4,-93.0" /><polygon class="relay-tray-side" points="355.9,-227.7 335.8,-218.4 335.8,-226.8 355.9,-236.1" /><polygon class="relay-tray-front" points="105.4,-324.0 335.8,-218.4 335.8,-226.8 105.4,-332.4" /><polygon class="relay-tray-top" points="125.5,-341.7 355.9,-236.1 335.8,-226.8 105.4,-332.4" /><polygon class="midi-board-side" points="332.9,-17.2 328.6,-15.2 328.6,-209.4 332.9,-211.4" /><polygon class="midi-board-front" points="127.0,-107.6 328.6,-15.2 328.6,-209.4 127.0,-301.8" /><polygon class="midi-board-top" points="131.3,-303.8 332.9,-211.4 328.6,-209.4 127.0,-301.8" /><polygon class="relay-fuse-side" points="319.9,-49.3 292.6,-36.8 292.6,-168.0 319.9,-180.6" /><polygon class="relay-fuse-front" points="105.4,-122.6 292.6,-36.8 292.6,-168.0 105.4,-253.8" /><polygon class="relay-fuse-top" points="132.7,-266.4 319.9,-180.6 292.6,-168.0 105.4,-253.8" /><polygon class="midi-plate-side" points="491.3,-110.8 383.3,-61.3 383.3,-69.7 491.3,-119.2" /><polygon class="midi-plate-front" points="246.5,-124.0 383.3,-61.3 383.3,-69.7 246.5,-132.4" /><polygon class="midi-plate-top" points="354.5,-181.9 491.3,-119.2 383.3,-69.7 246.5,-132.4" /><polygon class="midi-board-side" points="454.6,-125.2 393.4,-97.1 393.4,-107.6 454.6,-135.7" /><polygon class="midi-board-front" points="292.6,-143.3 393.4,-97.1 393.4,-107.6 292.6,-153.8" /><polygon class="midi-board-top" points="353.8,-181.9 454.6,-135.7 393.4,-107.6 292.6,-153.8" /><polygon class="fuse-side" points="354.5,-170.7 315.6,-152.9 315.6,-169.7 354.5,-187.5" /><polygon class="fuse-front" points="302.6,-158.8 315.6,-152.9 315.6,-169.7 302.6,-175.6" /><polygon class="fuse-top" points="341.5,-193.4 354.5,-187.5 315.6,-169.7 302.6,-175.6" /><polygon class="fuse-side" points="371.8,-162.8 332.9,-144.9 332.9,-161.7 371.8,-179.6" /><polygon class="fuse-front" points="319.9,-150.9 332.9,-144.9 332.9,-161.7 319.9,-167.7" /><polygon class="fuse-top" points="358.8,-185.5 371.8,-179.6 332.9,-161.7 319.9,-167.7" /><polygon class="fuse-side" points="389.0,-154.8 350.2,-137.0 350.2,-153.8 389.0,-171.6" /><polygon class="fuse-front" points="337.2,-143.0 350.2,-137.0 350.2,-153.8 337.2,-159.8" /><polygon class="fuse-top" points="376.1,-177.6 389.0,-171.6 350.2,-153.8 337.2,-159.8" /><polygon class="fuse-side" points="406.3,-146.9 367.4,-129.1 367.4,-145.9 406.3,-163.7" /><polygon class="fuse-front" points="354.5,-135.0 367.4,-129.1 367.4,-145.9 354.5,-151.8" /><polygon class="fuse-top" points="393.4,-169.7 406.3,-163.7 367.4,-145.9 354.5,-151.8" /><polygon class="fuse-side" points="423.6,-139.0 384.7,-121.2 384.7,-138.0 423.6,-155.8" /><polygon class="fuse-front" points="371.8,-127.1 384.7,-121.2 384.7,-138.0 371.8,-143.9" /><polygon class="fuse-top" points="410.6,-161.7 423.6,-155.8 384.7,-138.0 371.8,-143.9" /><polygon class="breaker-terminal" points="447.4,-169.7 438.7,-165.7 438.7,-174.1 447.4,-178.1" /><polygon class="breaker-terminal" points="343.7,-209.3 438.7,-165.7 438.7,-174.1 343.7,-217.7" /><polygon class="breaker-terminal" points="352.3,-221.7 447.4,-178.1 438.7,-174.1 343.7,-217.7" /><polygon class="breaker-lever-side" points="404.9,-132.4 394.8,-127.8 394.8,-138.3 404.9,-142.9" /><polygon class="breaker-lever-front" points="286.8,-177.3 394.8,-127.8 394.8,-138.3 286.8,-187.8" /><polygon class="breaker-lever-top" points="296.9,-192.4 404.9,-142.9 394.8,-138.3 286.8,-187.8" /><polygon class="cutoff-base-side" points="586.3,-67.2 463.9,-11.1 463.9,-19.5 586.3,-75.6" /><polygon class="cutoff-base-front" points="384.7,-47.4 463.9,-11.1 463.9,-19.5 384.7,-55.8" /><polygon class="cutoff-base-top" points="507.1,-111.9 586.3,-75.6 463.9,-19.5 384.7,-55.8" /><polygon class="cutoff-base-side" points="510.0,-110.6 387.6,-54.5 387.6,-77.6 510.0,-133.7" /><polygon class="cutoff-base-front" points="381.8,-57.2 387.6,-54.5 387.6,-77.6 381.8,-80.3" /><polygon class="cutoff-base-top" points="504.2,-136.4 510.0,-133.7 387.6,-77.6 381.8,-80.3" /><polygon class="cutoff-base-side" points="592.1,-73.0 469.7,-16.9 469.7,-40.0 592.1,-96.1" /><polygon class="cutoff-base-front" points="463.9,-19.5 469.7,-16.9 469.7,-40.0 463.9,-42.6" /><polygon class="cutoff-base-top" points="586.3,-98.7 592.1,-96.1 469.7,-40.0 463.9,-42.6" /><polygon class="cutoff-base-side" points="589.2,-77.0 583.4,-74.3 583.4,-97.4 589.2,-100.1" /><polygon class="cutoff-base-front" points="504.2,-110.6 583.4,-74.3 583.4,-97.4 504.2,-133.7" /><polygon class="cutoff-base-top" points="510.0,-136.4 589.2,-100.1 583.4,-97.4 504.2,-133.7" /><polygon class="cutoff-base-side" points="463.9,-19.5 458.2,-16.9 458.2,-40.0 463.9,-42.6" /><polygon class="cutoff-base-front" points="379.0,-53.2 458.2,-16.9 458.2,-40.0 379.0,-76.3" /><polygon class="cutoff-base-top" points="384.7,-78.9 463.9,-42.6 458.2,-40.0 379.0,-76.3" /><polygon class="keepout-side" points="593.5,196.4 427.9,272.3 427.9,36.1 593.5,-39.9" /><polygon class="keepout-front" points="415.0,266.4 427.9,272.3 427.9,36.1 415.0,30.1" /><polygon class="keepout-top" points="580.6,-45.8 593.5,-39.9 427.9,36.1 415.0,30.1" /><polygon class="breaker-body-side" points="535.9,-76.5 495.6,-58.0 495.6,-87.4 535.9,-105.9" /><polygon class="breaker-body-front" points="436.6,-85.1 495.6,-58.0 495.6,-87.4 436.6,-114.5" /><polygon class="breaker-body-top" points="476.9,-132.9 535.9,-105.9 495.6,-87.4 436.6,-114.5" /><polygon class="breaker-face-side" points="528.0,-105.6 496.3,-91.0 496.3,-97.3 528.0,-111.9" /><polygon class="breaker-face-front" points="444.5,-114.8 496.3,-91.0 496.3,-97.3 444.5,-121.1" /><polygon class="breaker-face-top" points="476.2,-135.6 528.0,-111.9 496.3,-97.3 444.5,-121.1" /><polygon class="breaker-lever-side" points="502.1,-115.3 494.9,-112.0 494.9,-118.3 502.1,-121.6" /><polygon class="breaker-lever-front" points="461.8,-127.2 494.9,-112.0 494.9,-118.3 461.8,-133.5" /><polygon class="breaker-lever-top" points="469.0,-136.8 502.1,-121.6 494.9,-118.3 461.8,-133.5" /><circle class="breaker-terminal" cx="478.3" cy="-132.8" r="5" /><circle class="breaker-terminal" cx="499.9" cy="-107.0" r="5" /><polyline class="positive-cable" points="421.4,-70.8 476.9,-126.6 478.3,-132.8" /><polyline class="relay-feed" points="499.9,-107.0 387.6,-138.6 357.4,-188.3" /><polyline class="relay-feed" points="499.9,-107.0 328.6,-170.7 188.9,-234.5" /><polyline class="branch-cable" points="188.9,-234.5 167.3,-157.4 139.9,-116.1" /><polygon class="keepout-side" points="635.3,-74.1 610.8,-62.9 610.8,-73.4 635.3,-84.6" /><polygon class="keepout-front" points="315.6,-198.2 610.8,-62.9 610.8,-73.4 315.6,-208.7" /><polygon class="keepout-top" points="340.1,-219.9 635.3,-84.6 610.8,-73.4 315.6,-208.7" /><circle class="slot-marker" cx="371.8" cy="284.6" r="4" /><circle class="slot-marker" cx="492.7" cy="340.0" r="4" /><circle class="slot-marker" cx="271.0" cy="330.8" r="4" /><circle class="slot-marker" cx="391.9" cy="386.2" r="4" /><text class="label" x="126" y="504">Formed chassis saddle</text><text class="label" x="166" y="365">Single upright bridge</text><text class="label" x="306" y="434">Outboard-jogged battery tray / stand</text><text class="label" x="218" y="214">Standard battery envelope on stand</text><text class="label" x="446" y="230">Tightened relay cover access</text><text class="label" x="430" y="305">MIDI datum shelf</text><text class="label" x="520" y="305">Side-mounted kill switch tray</text><text class="label" x="532" y="332">Cutoff feeds relay + MIDI</text><text class="label" x="570" y="430">Engine/LHD side keep-clear</text>
</svg>
