0
SECTION
2
HEADER
9
$INSUNITS
70
4
0
ENDSEC
0
SECTION
2
ENTITIES
0
LINE
8
CUT
10
0
20
0
11
360
21
0
0
LINE
8
CUT
10
360
20
0
11
360
21
60
0
LINE
8
CUT
10
360
20
60
11
0
21
60
0
LINE
8
CUT
10
0
20
60
11
0
21
0
0
LINE
8
CUT
10
22
20
19
11
22.13
21
17.63
0
LINE
8
CUT
10
22.13
20
17.63
11
22.53
21
16.32
0
LINE
8
CUT
10
22.53
20
16.32
11
23.18
21
15.11
0
LINE
8
CUT
10
23.18
20
15.11
11
24.05
21
14.05
0
LINE
8
CUT
10
24.05
20
14.05
11
25.11
21
13.18
0
LINE
8
CUT
10
25.11
20
13.18
11
26.32
21
12.53
0
LINE
8
CUT
10
26.32
20
12.53
11
27.63
21
12.13
0
LINE
8
CUT
10
27.63
20
12.13
11
29
21
12
0
LINE
8
CUT
10
29
20
12
11
71
21
12
0
LINE
8
CUT
10
71
20
12
11
72.37
21
12.13
0
LINE
8
CUT
10
72.37
20
12.13
11
73.68
21
12.53
0
LINE
8
CUT
10
73.68
20
12.53
11
74.89
21
13.18
0
LINE
8
CUT
10
74.89
20
13.18
11
75.95
21
14.05
0
LINE
8
CUT
10
75.95
20
14.05
11
76.82
21
15.11
0
LINE
8
CUT
10
76.82
20
15.11
11
77.47
21
16.32
0
LINE
8
CUT
10
77.47
20
16.32
11
77.87
21
17.63
0
LINE
8
CUT
10
77.87
20
17.63
11
78
21
19
0
LINE
8
CUT
10
78
20
19
11
78
21
19
0
LINE
8
CUT
10
78
20
19
11
77.87
21
20.37
0
LINE
8
CUT
10
77.87
20
20.37
11
77.47
21
21.68
0
LINE
8
CUT
10
77.47
20
21.68
11
76.82
21
22.89
0
LINE
8
CUT
10
76.82
20
22.89
11
75.95
21
23.95
0
LINE
8
CUT
10
75.95
20
23.95
11
74.89
21
24.82
0
LINE
8
CUT
10
74.89
20
24.82
11
73.68
21
25.47
0
LINE
8
CUT
10
73.68
20
25.47
11
72.37
21
25.87
0
LINE
8
CUT
10
72.37
20
25.87
11
71
21
26
0
LINE
8
CUT
10
71
20
26
11
29
21
26
0
LINE
8
CUT
10
29
20
26
11
27.63
21
25.87
0
LINE
8
CUT
10
27.63
20
25.87
11
26.32
21
25.47
0
LINE
8
CUT
10
26.32
20
25.47
11
25.11
21
24.82
0
LINE
8
CUT
10
25.11
20
24.82
11
24.05
21
23.95
0
LINE
8
CUT
10
24.05
20
23.95
11
23.18
21
22.89
0
LINE
8
CUT
10
23.18
20
22.89
11
22.53
21
21.68
0
LINE
8
CUT
10
22.53
20
21.68
11
22.13
21
20.37
0
LINE
8
CUT
10
22.13
20
20.37
11
22
21
19
0
LINE
8
CUT
10
22
20
19
11
22
21
19
0
LINE
8
CUT
10
22
20
41
11
22.13
21
39.63
0
LINE
8
CUT
10
22.13
20
39.63
11
22.53
21
38.32
0
LINE
8
CUT
10
22.53
20
38.32
11
23.18
21
37.11
0
LINE
8
CUT
10
23.18
20
37.11
11
24.05
21
36.05
0
LINE
8
CUT
10
24.05
20
36.05
11
25.11
21
35.18
0
LINE
8
CUT
10
25.11
20
35.18
11
26.32
21
34.53
0
LINE
8
CUT
10
26.32
20
34.53
11
27.63
21
34.13
0
LINE
8
CUT
10
27.63
20
34.13
11
29
21
34
0
LINE
8
CUT
10
29
20
34
11
71
21
34
0
LINE
8
CUT
10
71
20
34
11
72.37
21
34.13
0
LINE
8
CUT
10
72.37
20
34.13
11
73.68
21
34.53
0
LINE
8
CUT
10
73.68
20
34.53
11
74.89
21
35.18
0
LINE
8
CUT
10
74.89
20
35.18
11
75.95
21
36.05
0
LINE
8
CUT
10
75.95
20
36.05
11
76.82
21
37.11
0
LINE
8
CUT
10
76.82
20
37.11
11
77.47
21
38.32
0
LINE
8
CUT
10
77.47
20
38.32
11
77.87
21
39.63
0
LINE
8
CUT
10
77.87
20
39.63
11
78
21
41
0
LINE
8
CUT
10
78
20
41
11
78
21
41
0
LINE
8
CUT
10
78
20
41
11
77.87
21
42.37
0
LINE
8
CUT
10
77.87
20
42.37
11
77.47
21
43.68
0
LINE
8
CUT
10
77.47
20
43.68
11
76.82
21
44.89
0
LINE
8
CUT
10
76.82
20
44.89
11
75.95
21
45.95
0
LINE
8
CUT
10
75.95
20
45.95
11
74.89
21
46.82
0
LINE
8
CUT
10
74.89
20
46.82
11
73.68
21
47.47
0
LINE
8
CUT
10
73.68
20
47.47
11
72.37
21
47.87
0
LINE
8
CUT
10
72.37
20
47.87
11
71
21
48
0
LINE
8
CUT
10
71
20
48
11
29
21
48
0
LINE
8
CUT
10
29
20
48
11
27.63
21
47.87
0
LINE
8
CUT
10
27.63
20
47.87
11
26.32
21
47.47
0
LINE
8
CUT
10
26.32
20
47.47
11
25.11
21
46.82
0
LINE
8
CUT
10
25.11
20
46.82
11
24.05
21
45.95
0
LINE
8
CUT
10
24.05
20
45.95
11
23.18
21
44.89
0
LINE
8
CUT
10
23.18
20
44.89
11
22.53
21
43.68
0
LINE
8
CUT
10
22.53
20
43.68
11
22.13
21
42.37
0
LINE
8
CUT
10
22.13
20
42.37
11
22
21
41
0
LINE
8
CUT
10
22
20
41
11
22
21
41
0
LINE
8
CUT
10
132
20
19
11
132.13
21
17.63
0
LINE
8
CUT
10
132.13
20
17.63
11
132.53
21
16.32
0
LINE
8
CUT
10
132.53
20
16.32
11
133.18
21
15.11
0
LINE
8
CUT
10
133.18
20
15.11
11
134.05
21
14.05
0
LINE
8
CUT
10
134.05
20
14.05
11
135.11
21
13.18
0
LINE
8
CUT
10
135.11
20
13.18
11
136.32
21
12.53
0
LINE
8
CUT
10
136.32
20
12.53
11
137.63
21
12.13
0
LINE
8
CUT
10
137.63
20
12.13
11
139
21
12
0
LINE
8
CUT
10
139
20
12
11
209
21
12
0
LINE
8
CUT
10
209
20
12
11
210.37
21
12.13
0
LINE
8
CUT
10
210.37
20
12.13
11
211.68
21
12.53
0
LINE
8
CUT
10
211.68
20
12.53
11
212.89
21
13.18
0
LINE
8
CUT
10
212.89
20
13.18
11
213.95
21
14.05
0
LINE
8
CUT
10
213.95
20
14.05
11
214.82
21
15.11
0
LINE
8
CUT
10
214.82
20
15.11
11
215.47
21
16.32
0
LINE
8
CUT
10
215.47
20
16.32
11
215.87
21
17.63
0
LINE
8
CUT
10
215.87
20
17.63
11
216
21
19
0
LINE
8
CUT
10
216
20
19
11
216
21
19
0
LINE
8
CUT
10
216
20
19
11
215.87
21
20.37
0
LINE
8
CUT
10
215.87
20
20.37
11
215.47
21
21.68
0
LINE
8
CUT
10
215.47
20
21.68
11
214.82
21
22.89
0
LINE
8
CUT
10
214.82
20
22.89
11
213.95
21
23.95
0
LINE
8
CUT
10
213.95
20
23.95
11
212.89
21
24.82
0
LINE
8
CUT
10
212.89
20
24.82
11
211.68
21
25.47
0
LINE
8
CUT
10
211.68
20
25.47
11
210.37
21
25.87
0
LINE
8
CUT
10
210.37
20
25.87
11
209
21
26
0
LINE
8
CUT
10
209
20
26
11
139
21
26
0
LINE
8
CUT
10
139
20
26
11
137.63
21
25.87
0
LINE
8
CUT
10
137.63
20
25.87
11
136.32
21
25.47
0
LINE
8
CUT
10
136.32
20
25.47
11
135.11
21
24.82
0
LINE
8
CUT
10
135.11
20
24.82
11
134.05
21
23.95
0
LINE
8
CUT
10
134.05
20
23.95
11
133.18
21
22.89
0
LINE
8
CUT
10
133.18
20
22.89
11
132.53
21
21.68
0
LINE
8
CUT
10
132.53
20
21.68
11
132.13
21
20.37
0
LINE
8
CUT
10
132.13
20
20.37
11
132
21
19
0
LINE
8
CUT
10
132
20
19
11
132
21
19
0
LINE
8
CUT
10
132
20
41
11
132.13
21
39.63
0
LINE
8
CUT
10
132.13
20
39.63
11
132.53
21
38.32
0
LINE
8
CUT
10
132.53
20
38.32
11
133.18
21
37.11
0
LINE
8
CUT
10
133.18
20
37.11
11
134.05
21
36.05
0
LINE
8
CUT
10
134.05
20
36.05
11
135.11
21
35.18
0
LINE
8
CUT
10
135.11
20
35.18
11
136.32
21
34.53
0
LINE
8
CUT
10
136.32
20
34.53
11
137.63
21
34.13
0
LINE
8
CUT
10
137.63
20
34.13
11
139
21
34
0
LINE
8
CUT
10
139
20
34
11
209
21
34
0
LINE
8
CUT
10
209
20
34
11
210.37
21
34.13
0
LINE
8
CUT
10
210.37
20
34.13
11
211.68
21
34.53
0
LINE
8
CUT
10
211.68
20
34.53
11
212.89
21
35.18
0
LINE
8
CUT
10
212.89
20
35.18
11
213.95
21
36.05
0
LINE
8
CUT
10
213.95
20
36.05
11
214.82
21
37.11
0
LINE
8
CUT
10
214.82
20
37.11
11
215.47
21
38.32
0
LINE
8
CUT
10
215.47
20
38.32
11
215.87
21
39.63
0
LINE
8
CUT
10
215.87
20
39.63
11
216
21
41
0
LINE
8
CUT
10
216
20
41
11
216
21
41
0
LINE
8
CUT
10
216
20
41
11
215.87
21
42.37
0
LINE
8
CUT
10
215.87
20
42.37
11
215.47
21
43.68
0
LINE
8
CUT
10
215.47
20
43.68
11
214.82
21
44.89
0
LINE
8
CUT
10
214.82
20
44.89
11
213.95
21
45.95
0
LINE
8
CUT
10
213.95
20
45.95
11
212.89
21
46.82
0
LINE
8
CUT
10
212.89
20
46.82
11
211.68
21
47.47
0
LINE
8
CUT
10
211.68
20
47.47
11
210.37
21
47.87
0
LINE
8
CUT
10
210.37
20
47.87
11
209
21
48
0
LINE
8
CUT
10
209
20
48
11
139
21
48
0
LINE
8
CUT
10
139
20
48
11
137.63
21
47.87
0
LINE
8
CUT
10
137.63
20
47.87
11
136.32
21
47.47
0
LINE
8
CUT
10
136.32
20
47.47
11
135.11
21
46.82
0
LINE
8
CUT
10
135.11
20
46.82
11
134.05
21
45.95
0
LINE
8
CUT
10
134.05
20
45.95
11
133.18
21
44.89
0
LINE
8
CUT
10
133.18
20
44.89
11
132.53
21
43.68
0
LINE
8
CUT
10
132.53
20
43.68
11
132.13
21
42.37
0
LINE
8
CUT
10
132.13
20
42.37
11
132
21
41
0
LINE
8
CUT
10
132
20
41
11
132
21
41
0
LINE
8
CUT
10
250
20
19
11
250.13
21
17.63
0
LINE
8
CUT
10
250.13
20
17.63
11
250.53
21
16.32
0
LINE
8
CUT
10
250.53
20
16.32
11
251.18
21
15.11
0
LINE
8
CUT
10
251.18
20
15.11
11
252.05
21
14.05
0
LINE
8
CUT
10
252.05
20
14.05
11
253.11
21
13.18
0
LINE
8
CUT
10
253.11
20
13.18
11
254.32
21
12.53
0
LINE
8
CUT
10
254.32
20
12.53
11
255.63
21
12.13
0
LINE
8
CUT
10
255.63
20
12.13
11
257
21
12
0
LINE
8
CUT
10
257
20
12
11
327
21
12
0
LINE
8
CUT
10
327
20
12
11
328.37
21
12.13
0
LINE
8
CUT
10
328.37
20
12.13
11
329.68
21
12.53
0
LINE
8
CUT
10
329.68
20
12.53
11
330.89
21
13.18
0
LINE
8
CUT
10
330.89
20
13.18
11
331.95
21
14.05
0
LINE
8
CUT
10
331.95
20
14.05
11
332.82
21
15.11
0
LINE
8
CUT
10
332.82
20
15.11
11
333.47
21
16.32
0
LINE
8
CUT
10
333.47
20
16.32
11
333.87
21
17.63
0
LINE
8
CUT
10
333.87
20
17.63
11
334
21
19
0
LINE
8
CUT
10
334
20
19
11
334
21
19
0
LINE
8
CUT
10
334
20
19
11
333.87
21
20.37
0
LINE
8
CUT
10
333.87
20
20.37
11
333.47
21
21.68
0
LINE
8
CUT
10
333.47
20
21.68
11
332.82
21
22.89
0
LINE
8
CUT
10
332.82
20
22.89
11
331.95
21
23.95
0
LINE
8
CUT
10
331.95
20
23.95
11
330.89
21
24.82
0
LINE
8
CUT
10
330.89
20
24.82
11
329.68
21
25.47
0
LINE
8
CUT
10
329.68
20
25.47
11
328.37
21
25.87
0
LINE
8
CUT
10
328.37
20
25.87
11
327
21
26
0
LINE
8
CUT
10
327
20
26
11
257
21
26
0
LINE
8
CUT
10
257
20
26
11
255.63
21
25.87
0
LINE
8
CUT
10
255.63
20
25.87
11
254.32
21
25.47
0
LINE
8
CUT
10
254.32
20
25.47
11
253.11
21
24.82
0
LINE
8
CUT
10
253.11
20
24.82
11
252.05
21
23.95
0
LINE
8
CUT
10
252.05
20
23.95
11
251.18
21
22.89
0
LINE
8
CUT
10
251.18
20
22.89
11
250.53
21
21.68
0
LINE
8
CUT
10
250.53
20
21.68
11
250.13
21
20.37
0
LINE
8
CUT
10
250.13
20
20.37
11
250
21
19
0
LINE
8
CUT
10
250
20
19
11
250
21
19
0
LINE
8
CUT
10
250
20
41
11
250.13
21
39.63
0
LINE
8
CUT
10
250.13
20
39.63
11
250.53
21
38.32
0
LINE
8
CUT
10
250.53
20
38.32
11
251.18
21
37.11
0
LINE
8
CUT
10
251.18
20
37.11
11
252.05
21
36.05
0
LINE
8
CUT
10
252.05
20
36.05
11
253.11
21
35.18
0
LINE
8
CUT
10
253.11
20
35.18
11
254.32
21
34.53
0
LINE
8
CUT
10
254.32
20
34.53
11
255.63
21
34.13
0
LINE
8
CUT
10
255.63
20
34.13
11
257
21
34
0
LINE
8
CUT
10
257
20
34
11
327
21
34
0
LINE
8
CUT
10
327
20
34
11
328.37
21
34.13
0
LINE
8
CUT
10
328.37
20
34.13
11
329.68
21
34.53
0
LINE
8
CUT
10
329.68
20
34.53
11
330.89
21
35.18
0
LINE
8
CUT
10
330.89
20
35.18
11
331.95
21
36.05
0
LINE
8
CUT
10
331.95
20
36.05
11
332.82
21
37.11
0
LINE
8
CUT
10
332.82
20
37.11
11
333.47
21
38.32
0
LINE
8
CUT
10
333.47
20
38.32
11
333.87
21
39.63
0
LINE
8
CUT
10
333.87
20
39.63
11
334
21
41
0
LINE
8
CUT
10
334
20
41
11
334
21
41
0
LINE
8
CUT
10
334
20
41
11
333.87
21
42.37
0
LINE
8
CUT
10
333.87
20
42.37
11
333.47
21
43.68
0
LINE
8
CUT
10
333.47
20
43.68
11
332.82
21
44.89
0
LINE
8
CUT
10
332.82
20
44.89
11
331.95
21
45.95
0
LINE
8
CUT
10
331.95
20
45.95
11
330.89
21
46.82
0
LINE
8
CUT
10
330.89
20
46.82
11
329.68
21
47.47
0
LINE
8
CUT
10
329.68
20
47.47
11
328.37
21
47.87
0
LINE
8
CUT
10
328.37
20
47.87
11
327
21
48
0
LINE
8
CUT
10
327
20
48
11
257
21
48
0
LINE
8
CUT
10
257
20
48
11
255.63
21
47.87
0
LINE
8
CUT
10
255.63
20
47.87
11
254.32
21
47.47
0
LINE
8
CUT
10
254.32
20
47.47
11
253.11
21
46.82
0
LINE
8
CUT
10
253.11
20
46.82
11
252.05
21
45.95
0
LINE
8
CUT
10
252.05
20
45.95
11
251.18
21
44.89
0
LINE
8
CUT
10
251.18
20
44.89
11
250.53
21
43.68
0
LINE
8
CUT
10
250.53
20
43.68
11
250.13
21
42.37
0
LINE
8
CUT
10
250.13
20
42.37
11
250
21
41
0
LINE
8
CUT
10
250
20
41
11
250
21
41
0
ENDSEC
0
EOF
