0
SECTION
2
HEADER
9
$INSUNITS
70
4
0
ENDSEC
0
SECTION
2
ENTITIES
0
LINE
8
CUT
10
0
20
0
11
110
21
0
0
LINE
8
CUT
10
110
20
0
11
110
21
220
0
LINE
8
CUT
10
110
20
220
11
0
21
220
0
LINE
8
CUT
10
0
20
220
11
0
21
0
0
LINE
8
CUT
10
18
20
32
11
18.15
21
30.44
0
LINE
8
CUT
10
18.15
20
30.44
11
18.61
21
28.94
0
LINE
8
CUT
10
18.61
20
28.94
11
19.35
21
27.56
0
LINE
8
CUT
10
19.35
20
27.56
11
20.34
21
26.34
0
LINE
8
CUT
10
20.34
20
26.34
11
21.56
21
25.35
0
LINE
8
CUT
10
21.56
20
25.35
11
22.94
21
24.61
0
LINE
8
CUT
10
22.94
20
24.61
11
24.44
21
24.15
0
LINE
8
CUT
10
24.44
20
24.15
11
26
21
24
0
LINE
8
CUT
10
26
20
24
11
26
21
24
0
LINE
8
CUT
10
26
20
24
11
27.56
21
24.15
0
LINE
8
CUT
10
27.56
20
24.15
11
29.06
21
24.61
0
LINE
8
CUT
10
29.06
20
24.61
11
30.44
21
25.35
0
LINE
8
CUT
10
30.44
20
25.35
11
31.66
21
26.34
0
LINE
8
CUT
10
31.66
20
26.34
11
32.65
21
27.56
0
LINE
8
CUT
10
32.65
20
27.56
11
33.39
21
28.94
0
LINE
8
CUT
10
33.39
20
28.94
11
33.85
21
30.44
0
LINE
8
CUT
10
33.85
20
30.44
11
34
21
32
0
LINE
8
CUT
10
34
20
32
11
34
21
58
0
LINE
8
CUT
10
34
20
58
11
33.85
21
59.56
0
LINE
8
CUT
10
33.85
20
59.56
11
33.39
21
61.06
0
LINE
8
CUT
10
33.39
20
61.06
11
32.65
21
62.44
0
LINE
8
CUT
10
32.65
20
62.44
11
31.66
21
63.66
0
LINE
8
CUT
10
31.66
20
63.66
11
30.44
21
64.65
0
LINE
8
CUT
10
30.44
20
64.65
11
29.06
21
65.39
0
LINE
8
CUT
10
29.06
20
65.39
11
27.56
21
65.85
0
LINE
8
CUT
10
27.56
20
65.85
11
26
21
66
0
LINE
8
CUT
10
26
20
66
11
26
21
66
0
LINE
8
CUT
10
26
20
66
11
24.44
21
65.85
0
LINE
8
CUT
10
24.44
20
65.85
11
22.94
21
65.39
0
LINE
8
CUT
10
22.94
20
65.39
11
21.56
21
64.65
0
LINE
8
CUT
10
21.56
20
64.65
11
20.34
21
63.66
0
LINE
8
CUT
10
20.34
20
63.66
11
19.35
21
62.44
0
LINE
8
CUT
10
19.35
20
62.44
11
18.61
21
61.06
0
LINE
8
CUT
10
18.61
20
61.06
11
18.15
21
59.56
0
LINE
8
CUT
10
18.15
20
59.56
11
18
21
58
0
LINE
8
CUT
10
18
20
58
11
18
21
32
0
LINE
8
CUT
10
76
20
32
11
76.15
21
30.44
0
LINE
8
CUT
10
76.15
20
30.44
11
76.61
21
28.94
0
LINE
8
CUT
10
76.61
20
28.94
11
77.35
21
27.56
0
LINE
8
CUT
10
77.35
20
27.56
11
78.34
21
26.34
0
LINE
8
CUT
10
78.34
20
26.34
11
79.56
21
25.35
0
LINE
8
CUT
10
79.56
20
25.35
11
80.94
21
24.61
0
LINE
8
CUT
10
80.94
20
24.61
11
82.44
21
24.15
0
LINE
8
CUT
10
82.44
20
24.15
11
84
21
24
0
LINE
8
CUT
10
84
20
24
11
84
21
24
0
LINE
8
CUT
10
84
20
24
11
85.56
21
24.15
0
LINE
8
CUT
10
85.56
20
24.15
11
87.06
21
24.61
0
LINE
8
CUT
10
87.06
20
24.61
11
88.44
21
25.35
0
LINE
8
CUT
10
88.44
20
25.35
11
89.66
21
26.34
0
LINE
8
CUT
10
89.66
20
26.34
11
90.65
21
27.56
0
LINE
8
CUT
10
90.65
20
27.56
11
91.39
21
28.94
0
LINE
8
CUT
10
91.39
20
28.94
11
91.85
21
30.44
0
LINE
8
CUT
10
91.85
20
30.44
11
92
21
32
0
LINE
8
CUT
10
92
20
32
11
92
21
58
0
LINE
8
CUT
10
92
20
58
11
91.85
21
59.56
0
LINE
8
CUT
10
91.85
20
59.56
11
91.39
21
61.06
0
LINE
8
CUT
10
91.39
20
61.06
11
90.65
21
62.44
0
LINE
8
CUT
10
90.65
20
62.44
11
89.66
21
63.66
0
LINE
8
CUT
10
89.66
20
63.66
11
88.44
21
64.65
0
LINE
8
CUT
10
88.44
20
64.65
11
87.06
21
65.39
0
LINE
8
CUT
10
87.06
20
65.39
11
85.56
21
65.85
0
LINE
8
CUT
10
85.56
20
65.85
11
84
21
66
0
LINE
8
CUT
10
84
20
66
11
84
21
66
0
LINE
8
CUT
10
84
20
66
11
82.44
21
65.85
0
LINE
8
CUT
10
82.44
20
65.85
11
80.94
21
65.39
0
LINE
8
CUT
10
80.94
20
65.39
11
79.56
21
64.65
0
LINE
8
CUT
10
79.56
20
64.65
11
78.34
21
63.66
0
LINE
8
CUT
10
78.34
20
63.66
11
77.35
21
62.44
0
LINE
8
CUT
10
77.35
20
62.44
11
76.61
21
61.06
0
LINE
8
CUT
10
76.61
20
61.06
11
76.15
21
59.56
0
LINE
8
CUT
10
76.15
20
59.56
11
76
21
58
0
LINE
8
CUT
10
76
20
58
11
76
21
32
0
LINE
8
CUT
10
18
20
162
11
18.15
21
160.44
0
LINE
8
CUT
10
18.15
20
160.44
11
18.61
21
158.94
0
LINE
8
CUT
10
18.61
20
158.94
11
19.35
21
157.56
0
LINE
8
CUT
10
19.35
20
157.56
11
20.34
21
156.34
0
LINE
8
CUT
10
20.34
20
156.34
11
21.56
21
155.35
0
LINE
8
CUT
10
21.56
20
155.35
11
22.94
21
154.61
0
LINE
8
CUT
10
22.94
20
154.61
11
24.44
21
154.15
0
LINE
8
CUT
10
24.44
20
154.15
11
26
21
154
0
LINE
8
CUT
10
26
20
154
11
26
21
154
0
LINE
8
CUT
10
26
20
154
11
27.56
21
154.15
0
LINE
8
CUT
10
27.56
20
154.15
11
29.06
21
154.61
0
LINE
8
CUT
10
29.06
20
154.61
11
30.44
21
155.35
0
LINE
8
CUT
10
30.44
20
155.35
11
31.66
21
156.34
0
LINE
8
CUT
10
31.66
20
156.34
11
32.65
21
157.56
0
LINE
8
CUT
10
32.65
20
157.56
11
33.39
21
158.94
0
LINE
8
CUT
10
33.39
20
158.94
11
33.85
21
160.44
0
LINE
8
CUT
10
33.85
20
160.44
11
34
21
162
0
LINE
8
CUT
10
34
20
162
11
34
21
188
0
LINE
8
CUT
10
34
20
188
11
33.85
21
189.56
0
LINE
8
CUT
10
33.85
20
189.56
11
33.39
21
191.06
0
LINE
8
CUT
10
33.39
20
191.06
11
32.65
21
192.44
0
LINE
8
CUT
10
32.65
20
192.44
11
31.66
21
193.66
0
LINE
8
CUT
10
31.66
20
193.66
11
30.44
21
194.65
0
LINE
8
CUT
10
30.44
20
194.65
11
29.06
21
195.39
0
LINE
8
CUT
10
29.06
20
195.39
11
27.56
21
195.85
0
LINE
8
CUT
10
27.56
20
195.85
11
26
21
196
0
LINE
8
CUT
10
26
20
196
11
26
21
196
0
LINE
8
CUT
10
26
20
196
11
24.44
21
195.85
0
LINE
8
CUT
10
24.44
20
195.85
11
22.94
21
195.39
0
LINE
8
CUT
10
22.94
20
195.39
11
21.56
21
194.65
0
LINE
8
CUT
10
21.56
20
194.65
11
20.34
21
193.66
0
LINE
8
CUT
10
20.34
20
193.66
11
19.35
21
192.44
0
LINE
8
CUT
10
19.35
20
192.44
11
18.61
21
191.06
0
LINE
8
CUT
10
18.61
20
191.06
11
18.15
21
189.56
0
LINE
8
CUT
10
18.15
20
189.56
11
18
21
188
0
LINE
8
CUT
10
18
20
188
11
18
21
162
0
LINE
8
CUT
10
76
20
162
11
76.15
21
160.44
0
LINE
8
CUT
10
76.15
20
160.44
11
76.61
21
158.94
0
LINE
8
CUT
10
76.61
20
158.94
11
77.35
21
157.56
0
LINE
8
CUT
10
77.35
20
157.56
11
78.34
21
156.34
0
LINE
8
CUT
10
78.34
20
156.34
11
79.56
21
155.35
0
LINE
8
CUT
10
79.56
20
155.35
11
80.94
21
154.61
0
LINE
8
CUT
10
80.94
20
154.61
11
82.44
21
154.15
0
LINE
8
CUT
10
82.44
20
154.15
11
84
21
154
0
LINE
8
CUT
10
84
20
154
11
84
21
154
0
LINE
8
CUT
10
84
20
154
11
85.56
21
154.15
0
LINE
8
CUT
10
85.56
20
154.15
11
87.06
21
154.61
0
LINE
8
CUT
10
87.06
20
154.61
11
88.44
21
155.35
0
LINE
8
CUT
10
88.44
20
155.35
11
89.66
21
156.34
0
LINE
8
CUT
10
89.66
20
156.34
11
90.65
21
157.56
0
LINE
8
CUT
10
90.65
20
157.56
11
91.39
21
158.94
0
LINE
8
CUT
10
91.39
20
158.94
11
91.85
21
160.44
0
LINE
8
CUT
10
91.85
20
160.44
11
92
21
162
0
LINE
8
CUT
10
92
20
162
11
92
21
188
0
LINE
8
CUT
10
92
20
188
11
91.85
21
189.56
0
LINE
8
CUT
10
91.85
20
189.56
11
91.39
21
191.06
0
LINE
8
CUT
10
91.39
20
191.06
11
90.65
21
192.44
0
LINE
8
CUT
10
90.65
20
192.44
11
89.66
21
193.66
0
LINE
8
CUT
10
89.66
20
193.66
11
88.44
21
194.65
0
LINE
8
CUT
10
88.44
20
194.65
11
87.06
21
195.39
0
LINE
8
CUT
10
87.06
20
195.39
11
85.56
21
195.85
0
LINE
8
CUT
10
85.56
20
195.85
11
84
21
196
0
LINE
8
CUT
10
84
20
196
11
84
21
196
0
LINE
8
CUT
10
84
20
196
11
82.44
21
195.85
0
LINE
8
CUT
10
82.44
20
195.85
11
80.94
21
195.39
0
LINE
8
CUT
10
80.94
20
195.39
11
79.56
21
194.65
0
LINE
8
CUT
10
79.56
20
194.65
11
78.34
21
193.66
0
LINE
8
CUT
10
78.34
20
193.66
11
77.35
21
192.44
0
LINE
8
CUT
10
77.35
20
192.44
11
76.61
21
191.06
0
LINE
8
CUT
10
76.61
20
191.06
11
76.15
21
189.56
0
LINE
8
CUT
10
76.15
20
189.56
11
76
21
188
0
LINE
8
CUT
10
76
20
188
11
76
21
162
0
CIRCLE
8
CUT
10
28
20
102
40
4
0
CIRCLE
8
CUT
10
82
20
102
40
4
0
CIRCLE
8
CUT
10
28
20
128
40
4
0
CIRCLE
8
CUT
10
82
20
128
40
4
0
ENDSEC
0
EOF
