0
SECTION
2
HEADER
9
$INSUNITS
70
4
0
ENDSEC
0
SECTION
2
ENTITIES
0
LINE
8
CUT
10
0
20
0
11
315
21
0
0
LINE
8
CUT
10
315
20
0
11
315
21
38
0
LINE
8
CUT
10
315
20
38
11
0
21
38
0
LINE
8
CUT
10
0
20
38
11
0
21
0
0
LINE
8
CUT
10
18
20
19
11
18.15
21
17.44
0
LINE
8
CUT
10
18.15
20
17.44
11
18.61
21
15.94
0
LINE
8
CUT
10
18.61
20
15.94
11
19.35
21
14.56
0
LINE
8
CUT
10
19.35
20
14.56
11
20.34
21
13.34
0
LINE
8
CUT
10
20.34
20
13.34
11
21.56
21
12.35
0
LINE
8
CUT
10
21.56
20
12.35
11
22.94
21
11.61
0
LINE
8
CUT
10
22.94
20
11.61
11
24.44
21
11.15
0
LINE
8
CUT
10
24.44
20
11.15
11
26
21
11
0
LINE
8
CUT
10
26
20
11
11
52
21
11
0
LINE
8
CUT
10
52
20
11
11
53.56
21
11.15
0
LINE
8
CUT
10
53.56
20
11.15
11
55.06
21
11.61
0
LINE
8
CUT
10
55.06
20
11.61
11
56.44
21
12.35
0
LINE
8
CUT
10
56.44
20
12.35
11
57.66
21
13.34
0
LINE
8
CUT
10
57.66
20
13.34
11
58.65
21
14.56
0
LINE
8
CUT
10
58.65
20
14.56
11
59.39
21
15.94
0
LINE
8
CUT
10
59.39
20
15.94
11
59.85
21
17.44
0
LINE
8
CUT
10
59.85
20
17.44
11
60
21
19
0
LINE
8
CUT
10
60
20
19
11
60
21
19
0
LINE
8
CUT
10
60
20
19
11
59.85
21
20.56
0
LINE
8
CUT
10
59.85
20
20.56
11
59.39
21
22.06
0
LINE
8
CUT
10
59.39
20
22.06
11
58.65
21
23.44
0
LINE
8
CUT
10
58.65
20
23.44
11
57.66
21
24.66
0
LINE
8
CUT
10
57.66
20
24.66
11
56.44
21
25.65
0
LINE
8
CUT
10
56.44
20
25.65
11
55.06
21
26.39
0
LINE
8
CUT
10
55.06
20
26.39
11
53.56
21
26.85
0
LINE
8
CUT
10
53.56
20
26.85
11
52
21
27
0
LINE
8
CUT
10
52
20
27
11
26
21
27
0
LINE
8
CUT
10
26
20
27
11
24.44
21
26.85
0
LINE
8
CUT
10
24.44
20
26.85
11
22.94
21
26.39
0
LINE
8
CUT
10
22.94
20
26.39
11
21.56
21
25.65
0
LINE
8
CUT
10
21.56
20
25.65
11
20.34
21
24.66
0
LINE
8
CUT
10
20.34
20
24.66
11
19.35
21
23.44
0
LINE
8
CUT
10
19.35
20
23.44
11
18.61
21
22.06
0
LINE
8
CUT
10
18.61
20
22.06
11
18.15
21
20.56
0
LINE
8
CUT
10
18.15
20
20.56
11
18
21
19
0
LINE
8
CUT
10
18
20
19
11
18
21
19
0
LINE
8
CUT
10
255
20
19
11
255.15
21
17.44
0
LINE
8
CUT
10
255.15
20
17.44
11
255.61
21
15.94
0
LINE
8
CUT
10
255.61
20
15.94
11
256.35
21
14.56
0
LINE
8
CUT
10
256.35
20
14.56
11
257.34
21
13.34
0
LINE
8
CUT
10
257.34
20
13.34
11
258.56
21
12.35
0
LINE
8
CUT
10
258.56
20
12.35
11
259.94
21
11.61
0
LINE
8
CUT
10
259.94
20
11.61
11
261.44
21
11.15
0
LINE
8
CUT
10
261.44
20
11.15
11
263
21
11
0
LINE
8
CUT
10
263
20
11
11
289
21
11
0
LINE
8
CUT
10
289
20
11
11
290.56
21
11.15
0
LINE
8
CUT
10
290.56
20
11.15
11
292.06
21
11.61
0
LINE
8
CUT
10
292.06
20
11.61
11
293.44
21
12.35
0
LINE
8
CUT
10
293.44
20
12.35
11
294.66
21
13.34
0
LINE
8
CUT
10
294.66
20
13.34
11
295.65
21
14.56
0
LINE
8
CUT
10
295.65
20
14.56
11
296.39
21
15.94
0
LINE
8
CUT
10
296.39
20
15.94
11
296.85
21
17.44
0
LINE
8
CUT
10
296.85
20
17.44
11
297
21
19
0
LINE
8
CUT
10
297
20
19
11
297
21
19
0
LINE
8
CUT
10
297
20
19
11
296.85
21
20.56
0
LINE
8
CUT
10
296.85
20
20.56
11
296.39
21
22.06
0
LINE
8
CUT
10
296.39
20
22.06
11
295.65
21
23.44
0
LINE
8
CUT
10
295.65
20
23.44
11
294.66
21
24.66
0
LINE
8
CUT
10
294.66
20
24.66
11
293.44
21
25.65
0
LINE
8
CUT
10
293.44
20
25.65
11
292.06
21
26.39
0
LINE
8
CUT
10
292.06
20
26.39
11
290.56
21
26.85
0
LINE
8
CUT
10
290.56
20
26.85
11
289
21
27
0
LINE
8
CUT
10
289
20
27
11
263
21
27
0
LINE
8
CUT
10
263
20
27
11
261.44
21
26.85
0
LINE
8
CUT
10
261.44
20
26.85
11
259.94
21
26.39
0
LINE
8
CUT
10
259.94
20
26.39
11
258.56
21
25.65
0
LINE
8
CUT
10
258.56
20
25.65
11
257.34
21
24.66
0
LINE
8
CUT
10
257.34
20
24.66
11
256.35
21
23.44
0
LINE
8
CUT
10
256.35
20
23.44
11
255.61
21
22.06
0
LINE
8
CUT
10
255.61
20
22.06
11
255.15
21
20.56
0
LINE
8
CUT
10
255.15
20
20.56
11
255
21
19
0
LINE
8
CUT
10
255
20
19
11
255
21
19
0
ENDSEC
0
EOF
