0
SECTION
2
HEADER
9
$INSUNITS
70
4
0
ENDSEC
0
SECTION
2
ENTITIES
0
LINE
8
CUT
10
0
20
0
11
315
21
0
0
LINE
8
CUT
10
315
20
0
11
315
21
265
0
LINE
8
CUT
10
315
20
265
11
0
21
265
0
LINE
8
CUT
10
0
20
265
11
0
21
0
0
LINE
8
CUT
10
24
20
45
11
24.13
21
43.63
0
LINE
8
CUT
10
24.13
20
43.63
11
24.53
21
42.32
0
LINE
8
CUT
10
24.53
20
42.32
11
25.18
21
41.11
0
LINE
8
CUT
10
25.18
20
41.11
11
26.05
21
40.05
0
LINE
8
CUT
10
26.05
20
40.05
11
27.11
21
39.18
0
LINE
8
CUT
10
27.11
20
39.18
11
28.32
21
38.53
0
LINE
8
CUT
10
28.32
20
38.53
11
29.63
21
38.13
0
LINE
8
CUT
10
29.63
20
38.13
11
31
21
38
0
LINE
8
CUT
10
31
20
38
11
31
21
38
0
LINE
8
CUT
10
31
20
38
11
32.37
21
38.13
0
LINE
8
CUT
10
32.37
20
38.13
11
33.68
21
38.53
0
LINE
8
CUT
10
33.68
20
38.53
11
34.89
21
39.18
0
LINE
8
CUT
10
34.89
20
39.18
11
35.95
21
40.05
0
LINE
8
CUT
10
35.95
20
40.05
11
36.82
21
41.11
0
LINE
8
CUT
10
36.82
20
41.11
11
37.47
21
42.32
0
LINE
8
CUT
10
37.47
20
42.32
11
37.87
21
43.63
0
LINE
8
CUT
10
37.87
20
43.63
11
38
21
45
0
LINE
8
CUT
10
38
20
45
11
38
21
69
0
LINE
8
CUT
10
38
20
69
11
37.87
21
70.37
0
LINE
8
CUT
10
37.87
20
70.37
11
37.47
21
71.68
0
LINE
8
CUT
10
37.47
20
71.68
11
36.82
21
72.89
0
LINE
8
CUT
10
36.82
20
72.89
11
35.95
21
73.95
0
LINE
8
CUT
10
35.95
20
73.95
11
34.89
21
74.82
0
LINE
8
CUT
10
34.89
20
74.82
11
33.68
21
75.47
0
LINE
8
CUT
10
33.68
20
75.47
11
32.37
21
75.87
0
LINE
8
CUT
10
32.37
20
75.87
11
31
21
76
0
LINE
8
CUT
10
31
20
76
11
31
21
76
0
LINE
8
CUT
10
31
20
76
11
29.63
21
75.87
0
LINE
8
CUT
10
29.63
20
75.87
11
28.32
21
75.47
0
LINE
8
CUT
10
28.32
20
75.47
11
27.11
21
74.82
0
LINE
8
CUT
10
27.11
20
74.82
11
26.05
21
73.95
0
LINE
8
CUT
10
26.05
20
73.95
11
25.18
21
72.89
0
LINE
8
CUT
10
25.18
20
72.89
11
24.53
21
71.68
0
LINE
8
CUT
10
24.53
20
71.68
11
24.13
21
70.37
0
LINE
8
CUT
10
24.13
20
70.37
11
24
21
69
0
LINE
8
CUT
10
24
20
69
11
24
21
45
0
LINE
8
CUT
10
24
20
197
11
24.13
21
195.63
0
LINE
8
CUT
10
24.13
20
195.63
11
24.53
21
194.32
0
LINE
8
CUT
10
24.53
20
194.32
11
25.18
21
193.11
0
LINE
8
CUT
10
25.18
20
193.11
11
26.05
21
192.05
0
LINE
8
CUT
10
26.05
20
192.05
11
27.11
21
191.18
0
LINE
8
CUT
10
27.11
20
191.18
11
28.32
21
190.53
0
LINE
8
CUT
10
28.32
20
190.53
11
29.63
21
190.13
0
LINE
8
CUT
10
29.63
20
190.13
11
31
21
190
0
LINE
8
CUT
10
31
20
190
11
31
21
190
0
LINE
8
CUT
10
31
20
190
11
32.37
21
190.13
0
LINE
8
CUT
10
32.37
20
190.13
11
33.68
21
190.53
0
LINE
8
CUT
10
33.68
20
190.53
11
34.89
21
191.18
0
LINE
8
CUT
10
34.89
20
191.18
11
35.95
21
192.05
0
LINE
8
CUT
10
35.95
20
192.05
11
36.82
21
193.11
0
LINE
8
CUT
10
36.82
20
193.11
11
37.47
21
194.32
0
LINE
8
CUT
10
37.47
20
194.32
11
37.87
21
195.63
0
LINE
8
CUT
10
37.87
20
195.63
11
38
21
197
0
LINE
8
CUT
10
38
20
197
11
38
21
221
0
LINE
8
CUT
10
38
20
221
11
37.87
21
222.37
0
LINE
8
CUT
10
37.87
20
222.37
11
37.47
21
223.68
0
LINE
8
CUT
10
37.47
20
223.68
11
36.82
21
224.89
0
LINE
8
CUT
10
36.82
20
224.89
11
35.95
21
225.95
0
LINE
8
CUT
10
35.95
20
225.95
11
34.89
21
226.82
0
LINE
8
CUT
10
34.89
20
226.82
11
33.68
21
227.47
0
LINE
8
CUT
10
33.68
20
227.47
11
32.37
21
227.87
0
LINE
8
CUT
10
32.37
20
227.87
11
31
21
228
0
LINE
8
CUT
10
31
20
228
11
31
21
228
0
LINE
8
CUT
10
31
20
228
11
29.63
21
227.87
0
LINE
8
CUT
10
29.63
20
227.87
11
28.32
21
227.47
0
LINE
8
CUT
10
28.32
20
227.47
11
27.11
21
226.82
0
LINE
8
CUT
10
27.11
20
226.82
11
26.05
21
225.95
0
LINE
8
CUT
10
26.05
20
225.95
11
25.18
21
224.89
0
LINE
8
CUT
10
25.18
20
224.89
11
24.53
21
223.68
0
LINE
8
CUT
10
24.53
20
223.68
11
24.13
21
222.37
0
LINE
8
CUT
10
24.13
20
222.37
11
24
21
221
0
LINE
8
CUT
10
24
20
221
11
24
21
197
0
LINE
8
CUT
10
276
20
45
11
276.13
21
43.63
0
LINE
8
CUT
10
276.13
20
43.63
11
276.53
21
42.32
0
LINE
8
CUT
10
276.53
20
42.32
11
277.18
21
41.11
0
LINE
8
CUT
10
277.18
20
41.11
11
278.05
21
40.05
0
LINE
8
CUT
10
278.05
20
40.05
11
279.11
21
39.18
0
LINE
8
CUT
10
279.11
20
39.18
11
280.32
21
38.53
0
LINE
8
CUT
10
280.32
20
38.53
11
281.63
21
38.13
0
LINE
8
CUT
10
281.63
20
38.13
11
283
21
38
0
LINE
8
CUT
10
283
20
38
11
283
21
38
0
LINE
8
CUT
10
283
20
38
11
284.37
21
38.13
0
LINE
8
CUT
10
284.37
20
38.13
11
285.68
21
38.53
0
LINE
8
CUT
10
285.68
20
38.53
11
286.89
21
39.18
0
LINE
8
CUT
10
286.89
20
39.18
11
287.95
21
40.05
0
LINE
8
CUT
10
287.95
20
40.05
11
288.82
21
41.11
0
LINE
8
CUT
10
288.82
20
41.11
11
289.47
21
42.32
0
LINE
8
CUT
10
289.47
20
42.32
11
289.87
21
43.63
0
LINE
8
CUT
10
289.87
20
43.63
11
290
21
45
0
LINE
8
CUT
10
290
20
45
11
290
21
69
0
LINE
8
CUT
10
290
20
69
11
289.87
21
70.37
0
LINE
8
CUT
10
289.87
20
70.37
11
289.47
21
71.68
0
LINE
8
CUT
10
289.47
20
71.68
11
288.82
21
72.89
0
LINE
8
CUT
10
288.82
20
72.89
11
287.95
21
73.95
0
LINE
8
CUT
10
287.95
20
73.95
11
286.89
21
74.82
0
LINE
8
CUT
10
286.89
20
74.82
11
285.68
21
75.47
0
LINE
8
CUT
10
285.68
20
75.47
11
284.37
21
75.87
0
LINE
8
CUT
10
284.37
20
75.87
11
283
21
76
0
LINE
8
CUT
10
283
20
76
11
283
21
76
0
LINE
8
CUT
10
283
20
76
11
281.63
21
75.87
0
LINE
8
CUT
10
281.63
20
75.87
11
280.32
21
75.47
0
LINE
8
CUT
10
280.32
20
75.47
11
279.11
21
74.82
0
LINE
8
CUT
10
279.11
20
74.82
11
278.05
21
73.95
0
LINE
8
CUT
10
278.05
20
73.95
11
277.18
21
72.89
0
LINE
8
CUT
10
277.18
20
72.89
11
276.53
21
71.68
0
LINE
8
CUT
10
276.53
20
71.68
11
276.13
21
70.37
0
LINE
8
CUT
10
276.13
20
70.37
11
276
21
69
0
LINE
8
CUT
10
276
20
69
11
276
21
45
0
LINE
8
CUT
10
276
20
197
11
276.13
21
195.63
0
LINE
8
CUT
10
276.13
20
195.63
11
276.53
21
194.32
0
LINE
8
CUT
10
276.53
20
194.32
11
277.18
21
193.11
0
LINE
8
CUT
10
277.18
20
193.11
11
278.05
21
192.05
0
LINE
8
CUT
10
278.05
20
192.05
11
279.11
21
191.18
0
LINE
8
CUT
10
279.11
20
191.18
11
280.32
21
190.53
0
LINE
8
CUT
10
280.32
20
190.53
11
281.63
21
190.13
0
LINE
8
CUT
10
281.63
20
190.13
11
283
21
190
0
LINE
8
CUT
10
283
20
190
11
283
21
190
0
LINE
8
CUT
10
283
20
190
11
284.37
21
190.13
0
LINE
8
CUT
10
284.37
20
190.13
11
285.68
21
190.53
0
LINE
8
CUT
10
285.68
20
190.53
11
286.89
21
191.18
0
LINE
8
CUT
10
286.89
20
191.18
11
287.95
21
192.05
0
LINE
8
CUT
10
287.95
20
192.05
11
288.82
21
193.11
0
LINE
8
CUT
10
288.82
20
193.11
11
289.47
21
194.32
0
LINE
8
CUT
10
289.47
20
194.32
11
289.87
21
195.63
0
LINE
8
CUT
10
289.87
20
195.63
11
290
21
197
0
LINE
8
CUT
10
290
20
197
11
290
21
221
0
LINE
8
CUT
10
290
20
221
11
289.87
21
222.37
0
LINE
8
CUT
10
289.87
20
222.37
11
289.47
21
223.68
0
LINE
8
CUT
10
289.47
20
223.68
11
288.82
21
224.89
0
LINE
8
CUT
10
288.82
20
224.89
11
287.95
21
225.95
0
LINE
8
CUT
10
287.95
20
225.95
11
286.89
21
226.82
0
LINE
8
CUT
10
286.89
20
226.82
11
285.68
21
227.47
0
LINE
8
CUT
10
285.68
20
227.47
11
284.37
21
227.87
0
LINE
8
CUT
10
284.37
20
227.87
11
283
21
228
0
LINE
8
CUT
10
283
20
228
11
283
21
228
0
LINE
8
CUT
10
283
20
228
11
281.63
21
227.87
0
LINE
8
CUT
10
281.63
20
227.87
11
280.32
21
227.47
0
LINE
8
CUT
10
280.32
20
227.47
11
279.11
21
226.82
0
LINE
8
CUT
10
279.11
20
226.82
11
278.05
21
225.95
0
LINE
8
CUT
10
278.05
20
225.95
11
277.18
21
224.89
0
LINE
8
CUT
10
277.18
20
224.89
11
276.53
21
223.68
0
LINE
8
CUT
10
276.53
20
223.68
11
276.13
21
222.37
0
LINE
8
CUT
10
276.13
20
222.37
11
276
21
221
0
LINE
8
CUT
10
276
20
221
11
276
21
197
0
LINE
8
CUT
10
132
20
51
11
132.17
21
49.24
0
LINE
8
CUT
10
132.17
20
49.24
11
132.69
21
47.56
0
LINE
8
CUT
10
132.69
20
47.56
11
133.52
21
46
0
LINE
8
CUT
10
133.52
20
46
11
134.64
21
44.64
0
LINE
8
CUT
10
134.64
20
44.64
11
136
21
43.52
0
LINE
8
CUT
10
136
20
43.52
11
137.56
21
42.69
0
LINE
8
CUT
10
137.56
20
42.69
11
139.24
21
42.17
0
LINE
8
CUT
10
139.24
20
42.17
11
141
21
42
0
LINE
8
CUT
10
141
20
42
11
141
21
42
0
LINE
8
CUT
10
141
20
42
11
142.76
21
42.17
0
LINE
8
CUT
10
142.76
20
42.17
11
144.44
21
42.69
0
LINE
8
CUT
10
144.44
20
42.69
11
146
21
43.52
0
LINE
8
CUT
10
146
20
43.52
11
147.36
21
44.64
0
LINE
8
CUT
10
147.36
20
44.64
11
148.48
21
46
0
LINE
8
CUT
10
148.48
20
46
11
149.31
21
47.56
0
LINE
8
CUT
10
149.31
20
47.56
11
149.83
21
49.24
0
LINE
8
CUT
10
149.83
20
49.24
11
150
21
51
0
LINE
8
CUT
10
150
20
51
11
150
21
73
0
LINE
8
CUT
10
150
20
73
11
149.83
21
74.76
0
LINE
8
CUT
10
149.83
20
74.76
11
149.31
21
76.44
0
LINE
8
CUT
10
149.31
20
76.44
11
148.48
21
78
0
LINE
8
CUT
10
148.48
20
78
11
147.36
21
79.36
0
LINE
8
CUT
10
147.36
20
79.36
11
146
21
80.48
0
LINE
8
CUT
10
146
20
80.48
11
144.44
21
81.31
0
LINE
8
CUT
10
144.44
20
81.31
11
142.76
21
81.83
0
LINE
8
CUT
10
142.76
20
81.83
11
141
21
82
0
LINE
8
CUT
10
141
20
82
11
141
21
82
0
LINE
8
CUT
10
141
20
82
11
139.24
21
81.83
0
LINE
8
CUT
10
139.24
20
81.83
11
137.56
21
81.31
0
LINE
8
CUT
10
137.56
20
81.31
11
136
21
80.48
0
LINE
8
CUT
10
136
20
80.48
11
134.64
21
79.36
0
LINE
8
CUT
10
134.64
20
79.36
11
133.52
21
78
0
LINE
8
CUT
10
133.52
20
78
11
132.69
21
76.44
0
LINE
8
CUT
10
132.69
20
76.44
11
132.17
21
74.76
0
LINE
8
CUT
10
132.17
20
74.76
11
132
21
73
0
LINE
8
CUT
10
132
20
73
11
132
21
51
0
LINE
8
CUT
10
168
20
51
11
168.17
21
49.24
0
LINE
8
CUT
10
168.17
20
49.24
11
168.69
21
47.56
0
LINE
8
CUT
10
168.69
20
47.56
11
169.52
21
46
0
LINE
8
CUT
10
169.52
20
46
11
170.64
21
44.64
0
LINE
8
CUT
10
170.64
20
44.64
11
172
21
43.52
0
LINE
8
CUT
10
172
20
43.52
11
173.56
21
42.69
0
LINE
8
CUT
10
173.56
20
42.69
11
175.24
21
42.17
0
LINE
8
CUT
10
175.24
20
42.17
11
177
21
42
0
LINE
8
CUT
10
177
20
42
11
177
21
42
0
LINE
8
CUT
10
177
20
42
11
178.76
21
42.17
0
LINE
8
CUT
10
178.76
20
42.17
11
180.44
21
42.69
0
LINE
8
CUT
10
180.44
20
42.69
11
182
21
43.52
0
LINE
8
CUT
10
182
20
43.52
11
183.36
21
44.64
0
LINE
8
CUT
10
183.36
20
44.64
11
184.48
21
46
0
LINE
8
CUT
10
184.48
20
46
11
185.31
21
47.56
0
LINE
8
CUT
10
185.31
20
47.56
11
185.83
21
49.24
0
LINE
8
CUT
10
185.83
20
49.24
11
186
21
51
0
LINE
8
CUT
10
186
20
51
11
186
21
73
0
LINE
8
CUT
10
186
20
73
11
185.83
21
74.76
0
LINE
8
CUT
10
185.83
20
74.76
11
185.31
21
76.44
0
LINE
8
CUT
10
185.31
20
76.44
11
184.48
21
78
0
LINE
8
CUT
10
184.48
20
78
11
183.36
21
79.36
0
LINE
8
CUT
10
183.36
20
79.36
11
182
21
80.48
0
LINE
8
CUT
10
182
20
80.48
11
180.44
21
81.31
0
LINE
8
CUT
10
180.44
20
81.31
11
178.76
21
81.83
0
LINE
8
CUT
10
178.76
20
81.83
11
177
21
82
0
LINE
8
CUT
10
177
20
82
11
177
21
82
0
LINE
8
CUT
10
177
20
82
11
175.24
21
81.83
0
LINE
8
CUT
10
175.24
20
81.83
11
173.56
21
81.31
0
LINE
8
CUT
10
173.56
20
81.31
11
172
21
80.48
0
LINE
8
CUT
10
172
20
80.48
11
170.64
21
79.36
0
LINE
8
CUT
10
170.64
20
79.36
11
169.52
21
78
0
LINE
8
CUT
10
169.52
20
78
11
168.69
21
76.44
0
LINE
8
CUT
10
168.69
20
76.44
11
168.17
21
74.76
0
LINE
8
CUT
10
168.17
20
74.76
11
168
21
73
0
LINE
8
CUT
10
168
20
73
11
168
21
51
0
LINE
8
CUT
10
132
20
189
11
132.17
21
187.24
0
LINE
8
CUT
10
132.17
20
187.24
11
132.69
21
185.56
0
LINE
8
CUT
10
132.69
20
185.56
11
133.52
21
184
0
LINE
8
CUT
10
133.52
20
184
11
134.64
21
182.64
0
LINE
8
CUT
10
134.64
20
182.64
11
136
21
181.52
0
LINE
8
CUT
10
136
20
181.52
11
137.56
21
180.69
0
LINE
8
CUT
10
137.56
20
180.69
11
139.24
21
180.17
0
LINE
8
CUT
10
139.24
20
180.17
11
141
21
180
0
LINE
8
CUT
10
141
20
180
11
141
21
180
0
LINE
8
CUT
10
141
20
180
11
142.76
21
180.17
0
LINE
8
CUT
10
142.76
20
180.17
11
144.44
21
180.69
0
LINE
8
CUT
10
144.44
20
180.69
11
146
21
181.52
0
LINE
8
CUT
10
146
20
181.52
11
147.36
21
182.64
0
LINE
8
CUT
10
147.36
20
182.64
11
148.48
21
184
0
LINE
8
CUT
10
148.48
20
184
11
149.31
21
185.56
0
LINE
8
CUT
10
149.31
20
185.56
11
149.83
21
187.24
0
LINE
8
CUT
10
149.83
20
187.24
11
150
21
189
0
LINE
8
CUT
10
150
20
189
11
150
21
211
0
LINE
8
CUT
10
150
20
211
11
149.83
21
212.76
0
LINE
8
CUT
10
149.83
20
212.76
11
149.31
21
214.44
0
LINE
8
CUT
10
149.31
20
214.44
11
148.48
21
216
0
LINE
8
CUT
10
148.48
20
216
11
147.36
21
217.36
0
LINE
8
CUT
10
147.36
20
217.36
11
146
21
218.48
0
LINE
8
CUT
10
146
20
218.48
11
144.44
21
219.31
0
LINE
8
CUT
10
144.44
20
219.31
11
142.76
21
219.83
0
LINE
8
CUT
10
142.76
20
219.83
11
141
21
220
0
LINE
8
CUT
10
141
20
220
11
141
21
220
0
LINE
8
CUT
10
141
20
220
11
139.24
21
219.83
0
LINE
8
CUT
10
139.24
20
219.83
11
137.56
21
219.31
0
LINE
8
CUT
10
137.56
20
219.31
11
136
21
218.48
0
LINE
8
CUT
10
136
20
218.48
11
134.64
21
217.36
0
LINE
8
CUT
10
134.64
20
217.36
11
133.52
21
216
0
LINE
8
CUT
10
133.52
20
216
11
132.69
21
214.44
0
LINE
8
CUT
10
132.69
20
214.44
11
132.17
21
212.76
0
LINE
8
CUT
10
132.17
20
212.76
11
132
21
211
0
LINE
8
CUT
10
132
20
211
11
132
21
189
0
LINE
8
CUT
10
168
20
189
11
168.17
21
187.24
0
LINE
8
CUT
10
168.17
20
187.24
11
168.69
21
185.56
0
LINE
8
CUT
10
168.69
20
185.56
11
169.52
21
184
0
LINE
8
CUT
10
169.52
20
184
11
170.64
21
182.64
0
LINE
8
CUT
10
170.64
20
182.64
11
172
21
181.52
0
LINE
8
CUT
10
172
20
181.52
11
173.56
21
180.69
0
LINE
8
CUT
10
173.56
20
180.69
11
175.24
21
180.17
0
LINE
8
CUT
10
175.24
20
180.17
11
177
21
180
0
LINE
8
CUT
10
177
20
180
11
177
21
180
0
LINE
8
CUT
10
177
20
180
11
178.76
21
180.17
0
LINE
8
CUT
10
178.76
20
180.17
11
180.44
21
180.69
0
LINE
8
CUT
10
180.44
20
180.69
11
182
21
181.52
0
LINE
8
CUT
10
182
20
181.52
11
183.36
21
182.64
0
LINE
8
CUT
10
183.36
20
182.64
11
184.48
21
184
0
LINE
8
CUT
10
184.48
20
184
11
185.31
21
185.56
0
LINE
8
CUT
10
185.31
20
185.56
11
185.83
21
187.24
0
LINE
8
CUT
10
185.83
20
187.24
11
186
21
189
0
LINE
8
CUT
10
186
20
189
11
186
21
211
0
LINE
8
CUT
10
186
20
211
11
185.83
21
212.76
0
LINE
8
CUT
10
185.83
20
212.76
11
185.31
21
214.44
0
LINE
8
CUT
10
185.31
20
214.44
11
184.48
21
216
0
LINE
8
CUT
10
184.48
20
216
11
183.36
21
217.36
0
LINE
8
CUT
10
183.36
20
217.36
11
182
21
218.48
0
LINE
8
CUT
10
182
20
218.48
11
180.44
21
219.31
0
LINE
8
CUT
10
180.44
20
219.31
11
178.76
21
219.83
0
LINE
8
CUT
10
178.76
20
219.83
11
177
21
220
0
LINE
8
CUT
10
177
20
220
11
177
21
220
0
LINE
8
CUT
10
177
20
220
11
175.24
21
219.83
0
LINE
8
CUT
10
175.24
20
219.83
11
173.56
21
219.31
0
LINE
8
CUT
10
173.56
20
219.31
11
172
21
218.48
0
LINE
8
CUT
10
172
20
218.48
11
170.64
21
217.36
0
LINE
8
CUT
10
170.64
20
217.36
11
169.52
21
216
0
LINE
8
CUT
10
169.52
20
216
11
168.69
21
214.44
0
LINE
8
CUT
10
168.69
20
214.44
11
168.17
21
212.76
0
LINE
8
CUT
10
168.17
20
212.76
11
168
21
211
0
LINE
8
CUT
10
168
20
211
11
168
21
189
0
CIRCLE
8
CUT
10
56
20
242
40
3.25
0
CIRCLE
8
CUT
10
106
20
242
40
3.25
0
CIRCLE
8
CUT
10
156
20
242
40
3.25
0
CIRCLE
8
CUT
10
206
20
242
40
3.25
0
CIRCLE
8
CUT
10
256
20
242
40
3.25
0
ENDSEC
0
EOF
