0
SECTION
2
HEADER
9
$INSUNITS
70
4
0
ENDSEC
0
SECTION
2
ENTITIES
0
LINE
8
CUT
10
0
20
0
11
340
21
0
0
LINE
8
CUT
10
340
20
0
11
340
21
38
0
LINE
8
CUT
10
340
20
38
11
0
21
38
0
LINE
8
CUT
10
0
20
38
11
0
21
0
0
LINE
8
CUT
10
18
20
19
11
18.15
21
17.44
0
LINE
8
CUT
10
18.15
20
17.44
11
18.61
21
15.94
0
LINE
8
CUT
10
18.61
20
15.94
11
19.35
21
14.56
0
LINE
8
CUT
10
19.35
20
14.56
11
20.34
21
13.34
0
LINE
8
CUT
10
20.34
20
13.34
11
21.56
21
12.35
0
LINE
8
CUT
10
21.56
20
12.35
11
22.94
21
11.61
0
LINE
8
CUT
10
22.94
20
11.61
11
24.44
21
11.15
0
LINE
8
CUT
10
24.44
20
11.15
11
26
21
11
0
LINE
8
CUT
10
26
20
11
11
52
21
11
0
LINE
8
CUT
10
52
20
11
11
53.56
21
11.15
0
LINE
8
CUT
10
53.56
20
11.15
11
55.06
21
11.61
0
LINE
8
CUT
10
55.06
20
11.61
11
56.44
21
12.35
0
LINE
8
CUT
10
56.44
20
12.35
11
57.66
21
13.34
0
LINE
8
CUT
10
57.66
20
13.34
11
58.65
21
14.56
0
LINE
8
CUT
10
58.65
20
14.56
11
59.39
21
15.94
0
LINE
8
CUT
10
59.39
20
15.94
11
59.85
21
17.44
0
LINE
8
CUT
10
59.85
20
17.44
11
60
21
19
0
LINE
8
CUT
10
60
20
19
11
60
21
19
0
LINE
8
CUT
10
60
20
19
11
59.85
21
20.56
0
LINE
8
CUT
10
59.85
20
20.56
11
59.39
21
22.06
0
LINE
8
CUT
10
59.39
20
22.06
11
58.65
21
23.44
0
LINE
8
CUT
10
58.65
20
23.44
11
57.66
21
24.66
0
LINE
8
CUT
10
57.66
20
24.66
11
56.44
21
25.65
0
LINE
8
CUT
10
56.44
20
25.65
11
55.06
21
26.39
0
LINE
8
CUT
10
55.06
20
26.39
11
53.56
21
26.85
0
LINE
8
CUT
10
53.56
20
26.85
11
52
21
27
0
LINE
8
CUT
10
52
20
27
11
26
21
27
0
LINE
8
CUT
10
26
20
27
11
24.44
21
26.85
0
LINE
8
CUT
10
24.44
20
26.85
11
22.94
21
26.39
0
LINE
8
CUT
10
22.94
20
26.39
11
21.56
21
25.65
0
LINE
8
CUT
10
21.56
20
25.65
11
20.34
21
24.66
0
LINE
8
CUT
10
20.34
20
24.66
11
19.35
21
23.44
0
LINE
8
CUT
10
19.35
20
23.44
11
18.61
21
22.06
0
LINE
8
CUT
10
18.61
20
22.06
11
18.15
21
20.56
0
LINE
8
CUT
10
18.15
20
20.56
11
18
21
19
0
LINE
8
CUT
10
18
20
19
11
18
21
19
0
LINE
8
CUT
10
280
20
19
11
280.15
21
17.44
0
LINE
8
CUT
10
280.15
20
17.44
11
280.61
21
15.94
0
LINE
8
CUT
10
280.61
20
15.94
11
281.35
21
14.56
0
LINE
8
CUT
10
281.35
20
14.56
11
282.34
21
13.34
0
LINE
8
CUT
10
282.34
20
13.34
11
283.56
21
12.35
0
LINE
8
CUT
10
283.56
20
12.35
11
284.94
21
11.61
0
LINE
8
CUT
10
284.94
20
11.61
11
286.44
21
11.15
0
LINE
8
CUT
10
286.44
20
11.15
11
288
21
11
0
LINE
8
CUT
10
288
20
11
11
314
21
11
0
LINE
8
CUT
10
314
20
11
11
315.56
21
11.15
0
LINE
8
CUT
10
315.56
20
11.15
11
317.06
21
11.61
0
LINE
8
CUT
10
317.06
20
11.61
11
318.44
21
12.35
0
LINE
8
CUT
10
318.44
20
12.35
11
319.66
21
13.34
0
LINE
8
CUT
10
319.66
20
13.34
11
320.65
21
14.56
0
LINE
8
CUT
10
320.65
20
14.56
11
321.39
21
15.94
0
LINE
8
CUT
10
321.39
20
15.94
11
321.85
21
17.44
0
LINE
8
CUT
10
321.85
20
17.44
11
322
21
19
0
LINE
8
CUT
10
322
20
19
11
322
21
19
0
LINE
8
CUT
10
322
20
19
11
321.85
21
20.56
0
LINE
8
CUT
10
321.85
20
20.56
11
321.39
21
22.06
0
LINE
8
CUT
10
321.39
20
22.06
11
320.65
21
23.44
0
LINE
8
CUT
10
320.65
20
23.44
11
319.66
21
24.66
0
LINE
8
CUT
10
319.66
20
24.66
11
318.44
21
25.65
0
LINE
8
CUT
10
318.44
20
25.65
11
317.06
21
26.39
0
LINE
8
CUT
10
317.06
20
26.39
11
315.56
21
26.85
0
LINE
8
CUT
10
315.56
20
26.85
11
314
21
27
0
LINE
8
CUT
10
314
20
27
11
288
21
27
0
LINE
8
CUT
10
288
20
27
11
286.44
21
26.85
0
LINE
8
CUT
10
286.44
20
26.85
11
284.94
21
26.39
0
LINE
8
CUT
10
284.94
20
26.39
11
283.56
21
25.65
0
LINE
8
CUT
10
283.56
20
25.65
11
282.34
21
24.66
0
LINE
8
CUT
10
282.34
20
24.66
11
281.35
21
23.44
0
LINE
8
CUT
10
281.35
20
23.44
11
280.61
21
22.06
0
LINE
8
CUT
10
280.61
20
22.06
11
280.15
21
20.56
0
LINE
8
CUT
10
280.15
20
20.56
11
280
21
19
0
LINE
8
CUT
10
280
20
19
11
280
21
19
0
ENDSEC
0
EOF
