0
SECTION
2
HEADER
9
$INSUNITS
70
4
0
ENDSEC
0
SECTION
2
ENTITIES
0
LINE
8
CUT
10
0
20
0
11
170
21
0
0
LINE
8
CUT
10
170
20
0
11
170
21
110
0
LINE
8
CUT
10
170
20
110
11
0
21
110
0
LINE
8
CUT
10
0
20
110
11
0
21
0
0
LINE
8
CUT
10
44
20
53
11
44.44
21
48.51
0
LINE
8
CUT
10
44.44
20
48.51
11
45.75
21
44.2
0
LINE
8
CUT
10
45.75
20
44.2
11
47.88
21
40.22
0
LINE
8
CUT
10
47.88
20
40.22
11
50.74
21
36.74
0
LINE
8
CUT
10
50.74
20
36.74
11
54.22
21
33.88
0
LINE
8
CUT
10
54.22
20
33.88
11
58.2
21
31.75
0
LINE
8
CUT
10
58.2
20
31.75
11
62.51
21
30.44
0
LINE
8
CUT
10
62.51
20
30.44
11
67
21
30
0
LINE
8
CUT
10
67
20
30
11
103
21
30
0
LINE
8
CUT
10
103
20
30
11
107.49
21
30.44
0
LINE
8
CUT
10
107.49
20
30.44
11
111.8
21
31.75
0
LINE
8
CUT
10
111.8
20
31.75
11
115.78
21
33.88
0
LINE
8
CUT
10
115.78
20
33.88
11
119.26
21
36.74
0
LINE
8
CUT
10
119.26
20
36.74
11
122.12
21
40.22
0
LINE
8
CUT
10
122.12
20
40.22
11
124.25
21
44.2
0
LINE
8
CUT
10
124.25
20
44.2
11
125.56
21
48.51
0
LINE
8
CUT
10
125.56
20
48.51
11
126
21
53
0
LINE
8
CUT
10
126
20
53
11
126
21
53
0
LINE
8
CUT
10
126
20
53
11
125.56
21
57.49
0
LINE
8
CUT
10
125.56
20
57.49
11
124.25
21
61.8
0
LINE
8
CUT
10
124.25
20
61.8
11
122.12
21
65.78
0
LINE
8
CUT
10
122.12
20
65.78
11
119.26
21
69.26
0
LINE
8
CUT
10
119.26
20
69.26
11
115.78
21
72.12
0
LINE
8
CUT
10
115.78
20
72.12
11
111.8
21
74.25
0
LINE
8
CUT
10
111.8
20
74.25
11
107.49
21
75.56
0
LINE
8
CUT
10
107.49
20
75.56
11
103
21
76
0
LINE
8
CUT
10
103
20
76
11
67
21
76
0
LINE
8
CUT
10
67
20
76
11
62.51
21
75.56
0
LINE
8
CUT
10
62.51
20
75.56
11
58.2
21
74.25
0
LINE
8
CUT
10
58.2
20
74.25
11
54.22
21
72.12
0
LINE
8
CUT
10
54.22
20
72.12
11
50.74
21
69.26
0
LINE
8
CUT
10
50.74
20
69.26
11
47.88
21
65.78
0
LINE
8
CUT
10
47.88
20
65.78
11
45.75
21
61.8
0
LINE
8
CUT
10
45.75
20
61.8
11
44.44
21
57.49
0
LINE
8
CUT
10
44.44
20
57.49
11
44
21
53
0
LINE
8
CUT
10
44
20
53
11
44
21
53
0
CIRCLE
8
CUT
10
18
20
16
40
3.25
0
CIRCLE
8
CUT
10
152
20
16
40
3.25
0
CIRCLE
8
CUT
10
18
20
94
40
3.25
0
CIRCLE
8
CUT
10
152
20
94
40
3.25
0
ENDSEC
0
EOF
