0
SECTION
2
HEADER
9
$INSUNITS
70
4
0
ENDSEC
0
SECTION
2
ENTITIES
0
LINE
8
CUT
10
0
20
0
11
325
21
0
0
LINE
8
CUT
10
325
20
0
11
325
21
245
0
LINE
8
CUT
10
325
20
245
11
0
21
245
0
LINE
8
CUT
10
0
20
245
11
0
21
0
0
LINE
8
CUT
10
18
20
30
11
18.15
21
28.44
0
LINE
8
CUT
10
18.15
20
28.44
11
18.61
21
26.94
0
LINE
8
CUT
10
18.61
20
26.94
11
19.35
21
25.56
0
LINE
8
CUT
10
19.35
20
25.56
11
20.34
21
24.34
0
LINE
8
CUT
10
20.34
20
24.34
11
21.56
21
23.35
0
LINE
8
CUT
10
21.56
20
23.35
11
22.94
21
22.61
0
LINE
8
CUT
10
22.94
20
22.61
11
24.44
21
22.15
0
LINE
8
CUT
10
24.44
20
22.15
11
26
21
22
0
LINE
8
CUT
10
26
20
22
11
52
21
22
0
LINE
8
CUT
10
52
20
22
11
53.56
21
22.15
0
LINE
8
CUT
10
53.56
20
22.15
11
55.06
21
22.61
0
LINE
8
CUT
10
55.06
20
22.61
11
56.44
21
23.35
0
LINE
8
CUT
10
56.44
20
23.35
11
57.66
21
24.34
0
LINE
8
CUT
10
57.66
20
24.34
11
58.65
21
25.56
0
LINE
8
CUT
10
58.65
20
25.56
11
59.39
21
26.94
0
LINE
8
CUT
10
59.39
20
26.94
11
59.85
21
28.44
0
LINE
8
CUT
10
59.85
20
28.44
11
60
21
30
0
LINE
8
CUT
10
60
20
30
11
60
21
30
0
LINE
8
CUT
10
60
20
30
11
59.85
21
31.56
0
LINE
8
CUT
10
59.85
20
31.56
11
59.39
21
33.06
0
LINE
8
CUT
10
59.39
20
33.06
11
58.65
21
34.44
0
LINE
8
CUT
10
58.65
20
34.44
11
57.66
21
35.66
0
LINE
8
CUT
10
57.66
20
35.66
11
56.44
21
36.65
0
LINE
8
CUT
10
56.44
20
36.65
11
55.06
21
37.39
0
LINE
8
CUT
10
55.06
20
37.39
11
53.56
21
37.85
0
LINE
8
CUT
10
53.56
20
37.85
11
52
21
38
0
LINE
8
CUT
10
52
20
38
11
26
21
38
0
LINE
8
CUT
10
26
20
38
11
24.44
21
37.85
0
LINE
8
CUT
10
24.44
20
37.85
11
22.94
21
37.39
0
LINE
8
CUT
10
22.94
20
37.39
11
21.56
21
36.65
0
LINE
8
CUT
10
21.56
20
36.65
11
20.34
21
35.66
0
LINE
8
CUT
10
20.34
20
35.66
11
19.35
21
34.44
0
LINE
8
CUT
10
19.35
20
34.44
11
18.61
21
33.06
0
LINE
8
CUT
10
18.61
20
33.06
11
18.15
21
31.56
0
LINE
8
CUT
10
18.15
20
31.56
11
18
21
30
0
LINE
8
CUT
10
18
20
30
11
18
21
30
0
LINE
8
CUT
10
265
20
30
11
265.15
21
28.44
0
LINE
8
CUT
10
265.15
20
28.44
11
265.61
21
26.94
0
LINE
8
CUT
10
265.61
20
26.94
11
266.35
21
25.56
0
LINE
8
CUT
10
266.35
20
25.56
11
267.34
21
24.34
0
LINE
8
CUT
10
267.34
20
24.34
11
268.56
21
23.35
0
LINE
8
CUT
10
268.56
20
23.35
11
269.94
21
22.61
0
LINE
8
CUT
10
269.94
20
22.61
11
271.44
21
22.15
0
LINE
8
CUT
10
271.44
20
22.15
11
273
21
22
0
LINE
8
CUT
10
273
20
22
11
299
21
22
0
LINE
8
CUT
10
299
20
22
11
300.56
21
22.15
0
LINE
8
CUT
10
300.56
20
22.15
11
302.06
21
22.61
0
LINE
8
CUT
10
302.06
20
22.61
11
303.44
21
23.35
0
LINE
8
CUT
10
303.44
20
23.35
11
304.66
21
24.34
0
LINE
8
CUT
10
304.66
20
24.34
11
305.65
21
25.56
0
LINE
8
CUT
10
305.65
20
25.56
11
306.39
21
26.94
0
LINE
8
CUT
10
306.39
20
26.94
11
306.85
21
28.44
0
LINE
8
CUT
10
306.85
20
28.44
11
307
21
30
0
LINE
8
CUT
10
307
20
30
11
307
21
30
0
LINE
8
CUT
10
307
20
30
11
306.85
21
31.56
0
LINE
8
CUT
10
306.85
20
31.56
11
306.39
21
33.06
0
LINE
8
CUT
10
306.39
20
33.06
11
305.65
21
34.44
0
LINE
8
CUT
10
305.65
20
34.44
11
304.66
21
35.66
0
LINE
8
CUT
10
304.66
20
35.66
11
303.44
21
36.65
0
LINE
8
CUT
10
303.44
20
36.65
11
302.06
21
37.39
0
LINE
8
CUT
10
302.06
20
37.39
11
300.56
21
37.85
0
LINE
8
CUT
10
300.56
20
37.85
11
299
21
38
0
LINE
8
CUT
10
299
20
38
11
273
21
38
0
LINE
8
CUT
10
273
20
38
11
271.44
21
37.85
0
LINE
8
CUT
10
271.44
20
37.85
11
269.94
21
37.39
0
LINE
8
CUT
10
269.94
20
37.39
11
268.56
21
36.65
0
LINE
8
CUT
10
268.56
20
36.65
11
267.34
21
35.66
0
LINE
8
CUT
10
267.34
20
35.66
11
266.35
21
34.44
0
LINE
8
CUT
10
266.35
20
34.44
11
265.61
21
33.06
0
LINE
8
CUT
10
265.61
20
33.06
11
265.15
21
31.56
0
LINE
8
CUT
10
265.15
20
31.56
11
265
21
30
0
LINE
8
CUT
10
265
20
30
11
265
21
30
0
LINE
8
CUT
10
18
20
213
11
18.15
21
211.44
0
LINE
8
CUT
10
18.15
20
211.44
11
18.61
21
209.94
0
LINE
8
CUT
10
18.61
20
209.94
11
19.35
21
208.56
0
LINE
8
CUT
10
19.35
20
208.56
11
20.34
21
207.34
0
LINE
8
CUT
10
20.34
20
207.34
11
21.56
21
206.35
0
LINE
8
CUT
10
21.56
20
206.35
11
22.94
21
205.61
0
LINE
8
CUT
10
22.94
20
205.61
11
24.44
21
205.15
0
LINE
8
CUT
10
24.44
20
205.15
11
26
21
205
0
LINE
8
CUT
10
26
20
205
11
52
21
205
0
LINE
8
CUT
10
52
20
205
11
53.56
21
205.15
0
LINE
8
CUT
10
53.56
20
205.15
11
55.06
21
205.61
0
LINE
8
CUT
10
55.06
20
205.61
11
56.44
21
206.35
0
LINE
8
CUT
10
56.44
20
206.35
11
57.66
21
207.34
0
LINE
8
CUT
10
57.66
20
207.34
11
58.65
21
208.56
0
LINE
8
CUT
10
58.65
20
208.56
11
59.39
21
209.94
0
LINE
8
CUT
10
59.39
20
209.94
11
59.85
21
211.44
0
LINE
8
CUT
10
59.85
20
211.44
11
60
21
213
0
LINE
8
CUT
10
60
20
213
11
60
21
213
0
LINE
8
CUT
10
60
20
213
11
59.85
21
214.56
0
LINE
8
CUT
10
59.85
20
214.56
11
59.39
21
216.06
0
LINE
8
CUT
10
59.39
20
216.06
11
58.65
21
217.44
0
LINE
8
CUT
10
58.65
20
217.44
11
57.66
21
218.66
0
LINE
8
CUT
10
57.66
20
218.66
11
56.44
21
219.65
0
LINE
8
CUT
10
56.44
20
219.65
11
55.06
21
220.39
0
LINE
8
CUT
10
55.06
20
220.39
11
53.56
21
220.85
0
LINE
8
CUT
10
53.56
20
220.85
11
52
21
221
0
LINE
8
CUT
10
52
20
221
11
26
21
221
0
LINE
8
CUT
10
26
20
221
11
24.44
21
220.85
0
LINE
8
CUT
10
24.44
20
220.85
11
22.94
21
220.39
0
LINE
8
CUT
10
22.94
20
220.39
11
21.56
21
219.65
0
LINE
8
CUT
10
21.56
20
219.65
11
20.34
21
218.66
0
LINE
8
CUT
10
20.34
20
218.66
11
19.35
21
217.44
0
LINE
8
CUT
10
19.35
20
217.44
11
18.61
21
216.06
0
LINE
8
CUT
10
18.61
20
216.06
11
18.15
21
214.56
0
LINE
8
CUT
10
18.15
20
214.56
11
18
21
213
0
LINE
8
CUT
10
18
20
213
11
18
21
213
0
LINE
8
CUT
10
265
20
213
11
265.15
21
211.44
0
LINE
8
CUT
10
265.15
20
211.44
11
265.61
21
209.94
0
LINE
8
CUT
10
265.61
20
209.94
11
266.35
21
208.56
0
LINE
8
CUT
10
266.35
20
208.56
11
267.34
21
207.34
0
LINE
8
CUT
10
267.34
20
207.34
11
268.56
21
206.35
0
LINE
8
CUT
10
268.56
20
206.35
11
269.94
21
205.61
0
LINE
8
CUT
10
269.94
20
205.61
11
271.44
21
205.15
0
LINE
8
CUT
10
271.44
20
205.15
11
273
21
205
0
LINE
8
CUT
10
273
20
205
11
299
21
205
0
LINE
8
CUT
10
299
20
205
11
300.56
21
205.15
0
LINE
8
CUT
10
300.56
20
205.15
11
302.06
21
205.61
0
LINE
8
CUT
10
302.06
20
205.61
11
303.44
21
206.35
0
LINE
8
CUT
10
303.44
20
206.35
11
304.66
21
207.34
0
LINE
8
CUT
10
304.66
20
207.34
11
305.65
21
208.56
0
LINE
8
CUT
10
305.65
20
208.56
11
306.39
21
209.94
0
LINE
8
CUT
10
306.39
20
209.94
11
306.85
21
211.44
0
LINE
8
CUT
10
306.85
20
211.44
11
307
21
213
0
LINE
8
CUT
10
307
20
213
11
307
21
213
0
LINE
8
CUT
10
307
20
213
11
306.85
21
214.56
0
LINE
8
CUT
10
306.85
20
214.56
11
306.39
21
216.06
0
LINE
8
CUT
10
306.39
20
216.06
11
305.65
21
217.44
0
LINE
8
CUT
10
305.65
20
217.44
11
304.66
21
218.66
0
LINE
8
CUT
10
304.66
20
218.66
11
303.44
21
219.65
0
LINE
8
CUT
10
303.44
20
219.65
11
302.06
21
220.39
0
LINE
8
CUT
10
302.06
20
220.39
11
300.56
21
220.85
0
LINE
8
CUT
10
300.56
20
220.85
11
299
21
221
0
LINE
8
CUT
10
299
20
221
11
273
21
221
0
LINE
8
CUT
10
273
20
221
11
271.44
21
220.85
0
LINE
8
CUT
10
271.44
20
220.85
11
269.94
21
220.39
0
LINE
8
CUT
10
269.94
20
220.39
11
268.56
21
219.65
0
LINE
8
CUT
10
268.56
20
219.65
11
267.34
21
218.66
0
LINE
8
CUT
10
267.34
20
218.66
11
266.35
21
217.44
0
LINE
8
CUT
10
266.35
20
217.44
11
265.61
21
216.06
0
LINE
8
CUT
10
265.61
20
216.06
11
265.15
21
214.56
0
LINE
8
CUT
10
265.15
20
214.56
11
265
21
213
0
LINE
8
CUT
10
265
20
213
11
265
21
213
0
LINE
8
CUT
10
80
20
64
11
80.12
21
62.83
0
LINE
8
CUT
10
80.12
20
62.83
11
80.46
21
61.7
0
LINE
8
CUT
10
80.46
20
61.7
11
81.01
21
60.67
0
LINE
8
CUT
10
81.01
20
60.67
11
81.76
21
59.76
0
LINE
8
CUT
10
81.76
20
59.76
11
82.67
21
59.01
0
LINE
8
CUT
10
82.67
20
59.01
11
83.7
21
58.46
0
LINE
8
CUT
10
83.7
20
58.46
11
84.83
21
58.12
0
LINE
8
CUT
10
84.83
20
58.12
11
86
21
58
0
LINE
8
CUT
10
86
20
58
11
108
21
58
0
LINE
8
CUT
10
108
20
58
11
109.17
21
58.12
0
LINE
8
CUT
10
109.17
20
58.12
11
110.3
21
58.46
0
LINE
8
CUT
10
110.3
20
58.46
11
111.33
21
59.01
0
LINE
8
CUT
10
111.33
20
59.01
11
112.24
21
59.76
0
LINE
8
CUT
10
112.24
20
59.76
11
112.99
21
60.67
0
LINE
8
CUT
10
112.99
20
60.67
11
113.54
21
61.7
0
LINE
8
CUT
10
113.54
20
61.7
11
113.88
21
62.83
0
LINE
8
CUT
10
113.88
20
62.83
11
114
21
64
0
LINE
8
CUT
10
114
20
64
11
114
21
64
0
LINE
8
CUT
10
114
20
64
11
113.88
21
65.17
0
LINE
8
CUT
10
113.88
20
65.17
11
113.54
21
66.3
0
LINE
8
CUT
10
113.54
20
66.3
11
112.99
21
67.33
0
LINE
8
CUT
10
112.99
20
67.33
11
112.24
21
68.24
0
LINE
8
CUT
10
112.24
20
68.24
11
111.33
21
68.99
0
LINE
8
CUT
10
111.33
20
68.99
11
110.3
21
69.54
0
LINE
8
CUT
10
110.3
20
69.54
11
109.17
21
69.88
0
LINE
8
CUT
10
109.17
20
69.88
11
108
21
70
0
LINE
8
CUT
10
108
20
70
11
86
21
70
0
LINE
8
CUT
10
86
20
70
11
84.83
21
69.88
0
LINE
8
CUT
10
84.83
20
69.88
11
83.7
21
69.54
0
LINE
8
CUT
10
83.7
20
69.54
11
82.67
21
68.99
0
LINE
8
CUT
10
82.67
20
68.99
11
81.76
21
68.24
0
LINE
8
CUT
10
81.76
20
68.24
11
81.01
21
67.33
0
LINE
8
CUT
10
81.01
20
67.33
11
80.46
21
66.3
0
LINE
8
CUT
10
80.46
20
66.3
11
80.12
21
65.17
0
LINE
8
CUT
10
80.12
20
65.17
11
80
21
64
0
LINE
8
CUT
10
80
20
64
11
80
21
64
0
LINE
8
CUT
10
210
20
64
11
210.12
21
62.83
0
LINE
8
CUT
10
210.12
20
62.83
11
210.46
21
61.7
0
LINE
8
CUT
10
210.46
20
61.7
11
211.01
21
60.67
0
LINE
8
CUT
10
211.01
20
60.67
11
211.76
21
59.76
0
LINE
8
CUT
10
211.76
20
59.76
11
212.67
21
59.01
0
LINE
8
CUT
10
212.67
20
59.01
11
213.7
21
58.46
0
LINE
8
CUT
10
213.7
20
58.46
11
214.83
21
58.12
0
LINE
8
CUT
10
214.83
20
58.12
11
216
21
58
0
LINE
8
CUT
10
216
20
58
11
238
21
58
0
LINE
8
CUT
10
238
20
58
11
239.17
21
58.12
0
LINE
8
CUT
10
239.17
20
58.12
11
240.3
21
58.46
0
LINE
8
CUT
10
240.3
20
58.46
11
241.33
21
59.01
0
LINE
8
CUT
10
241.33
20
59.01
11
242.24
21
59.76
0
LINE
8
CUT
10
242.24
20
59.76
11
242.99
21
60.67
0
LINE
8
CUT
10
242.99
20
60.67
11
243.54
21
61.7
0
LINE
8
CUT
10
243.54
20
61.7
11
243.88
21
62.83
0
LINE
8
CUT
10
243.88
20
62.83
11
244
21
64
0
LINE
8
CUT
10
244
20
64
11
244
21
64
0
LINE
8
CUT
10
244
20
64
11
243.88
21
65.17
0
LINE
8
CUT
10
243.88
20
65.17
11
243.54
21
66.3
0
LINE
8
CUT
10
243.54
20
66.3
11
242.99
21
67.33
0
LINE
8
CUT
10
242.99
20
67.33
11
242.24
21
68.24
0
LINE
8
CUT
10
242.24
20
68.24
11
241.33
21
68.99
0
LINE
8
CUT
10
241.33
20
68.99
11
240.3
21
69.54
0
LINE
8
CUT
10
240.3
20
69.54
11
239.17
21
69.88
0
LINE
8
CUT
10
239.17
20
69.88
11
238
21
70
0
LINE
8
CUT
10
238
20
70
11
216
21
70
0
LINE
8
CUT
10
216
20
70
11
214.83
21
69.88
0
LINE
8
CUT
10
214.83
20
69.88
11
213.7
21
69.54
0
LINE
8
CUT
10
213.7
20
69.54
11
212.67
21
68.99
0
LINE
8
CUT
10
212.67
20
68.99
11
211.76
21
68.24
0
LINE
8
CUT
10
211.76
20
68.24
11
211.01
21
67.33
0
LINE
8
CUT
10
211.01
20
67.33
11
210.46
21
66.3
0
LINE
8
CUT
10
210.46
20
66.3
11
210.12
21
65.17
0
LINE
8
CUT
10
210.12
20
65.17
11
210
21
64
0
LINE
8
CUT
10
210
20
64
11
210
21
64
0
LINE
8
CUT
10
80
20
178
11
80.12
21
176.83
0
LINE
8
CUT
10
80.12
20
176.83
11
80.46
21
175.7
0
LINE
8
CUT
10
80.46
20
175.7
11
81.01
21
174.67
0
LINE
8
CUT
10
81.01
20
174.67
11
81.76
21
173.76
0
LINE
8
CUT
10
81.76
20
173.76
11
82.67
21
173.01
0
LINE
8
CUT
10
82.67
20
173.01
11
83.7
21
172.46
0
LINE
8
CUT
10
83.7
20
172.46
11
84.83
21
172.12
0
LINE
8
CUT
10
84.83
20
172.12
11
86
21
172
0
LINE
8
CUT
10
86
20
172
11
108
21
172
0
LINE
8
CUT
10
108
20
172
11
109.17
21
172.12
0
LINE
8
CUT
10
109.17
20
172.12
11
110.3
21
172.46
0
LINE
8
CUT
10
110.3
20
172.46
11
111.33
21
173.01
0
LINE
8
CUT
10
111.33
20
173.01
11
112.24
21
173.76
0
LINE
8
CUT
10
112.24
20
173.76
11
112.99
21
174.67
0
LINE
8
CUT
10
112.99
20
174.67
11
113.54
21
175.7
0
LINE
8
CUT
10
113.54
20
175.7
11
113.88
21
176.83
0
LINE
8
CUT
10
113.88
20
176.83
11
114
21
178
0
LINE
8
CUT
10
114
20
178
11
114
21
178
0
LINE
8
CUT
10
114
20
178
11
113.88
21
179.17
0
LINE
8
CUT
10
113.88
20
179.17
11
113.54
21
180.3
0
LINE
8
CUT
10
113.54
20
180.3
11
112.99
21
181.33
0
LINE
8
CUT
10
112.99
20
181.33
11
112.24
21
182.24
0
LINE
8
CUT
10
112.24
20
182.24
11
111.33
21
182.99
0
LINE
8
CUT
10
111.33
20
182.99
11
110.3
21
183.54
0
LINE
8
CUT
10
110.3
20
183.54
11
109.17
21
183.88
0
LINE
8
CUT
10
109.17
20
183.88
11
108
21
184
0
LINE
8
CUT
10
108
20
184
11
86
21
184
0
LINE
8
CUT
10
86
20
184
11
84.83
21
183.88
0
LINE
8
CUT
10
84.83
20
183.88
11
83.7
21
183.54
0
LINE
8
CUT
10
83.7
20
183.54
11
82.67
21
182.99
0
LINE
8
CUT
10
82.67
20
182.99
11
81.76
21
182.24
0
LINE
8
CUT
10
81.76
20
182.24
11
81.01
21
181.33
0
LINE
8
CUT
10
81.01
20
181.33
11
80.46
21
180.3
0
LINE
8
CUT
10
80.46
20
180.3
11
80.12
21
179.17
0
LINE
8
CUT
10
80.12
20
179.17
11
80
21
178
0
LINE
8
CUT
10
80
20
178
11
80
21
178
0
LINE
8
CUT
10
210
20
178
11
210.12
21
176.83
0
LINE
8
CUT
10
210.12
20
176.83
11
210.46
21
175.7
0
LINE
8
CUT
10
210.46
20
175.7
11
211.01
21
174.67
0
LINE
8
CUT
10
211.01
20
174.67
11
211.76
21
173.76
0
LINE
8
CUT
10
211.76
20
173.76
11
212.67
21
173.01
0
LINE
8
CUT
10
212.67
20
173.01
11
213.7
21
172.46
0
LINE
8
CUT
10
213.7
20
172.46
11
214.83
21
172.12
0
LINE
8
CUT
10
214.83
20
172.12
11
216
21
172
0
LINE
8
CUT
10
216
20
172
11
238
21
172
0
LINE
8
CUT
10
238
20
172
11
239.17
21
172.12
0
LINE
8
CUT
10
239.17
20
172.12
11
240.3
21
172.46
0
LINE
8
CUT
10
240.3
20
172.46
11
241.33
21
173.01
0
LINE
8
CUT
10
241.33
20
173.01
11
242.24
21
173.76
0
LINE
8
CUT
10
242.24
20
173.76
11
242.99
21
174.67
0
LINE
8
CUT
10
242.99
20
174.67
11
243.54
21
175.7
0
LINE
8
CUT
10
243.54
20
175.7
11
243.88
21
176.83
0
LINE
8
CUT
10
243.88
20
176.83
11
244
21
178
0
LINE
8
CUT
10
244
20
178
11
244
21
178
0
LINE
8
CUT
10
244
20
178
11
243.88
21
179.17
0
LINE
8
CUT
10
243.88
20
179.17
11
243.54
21
180.3
0
LINE
8
CUT
10
243.54
20
180.3
11
242.99
21
181.33
0
LINE
8
CUT
10
242.99
20
181.33
11
242.24
21
182.24
0
LINE
8
CUT
10
242.24
20
182.24
11
241.33
21
182.99
0
LINE
8
CUT
10
241.33
20
182.99
11
240.3
21
183.54
0
LINE
8
CUT
10
240.3
20
183.54
11
239.17
21
183.88
0
LINE
8
CUT
10
239.17
20
183.88
11
238
21
184
0
LINE
8
CUT
10
238
20
184
11
216
21
184
0
LINE
8
CUT
10
216
20
184
11
214.83
21
183.88
0
LINE
8
CUT
10
214.83
20
183.88
11
213.7
21
183.54
0
LINE
8
CUT
10
213.7
20
183.54
11
212.67
21
182.99
0
LINE
8
CUT
10
212.67
20
182.99
11
211.76
21
182.24
0
LINE
8
CUT
10
211.76
20
182.24
11
211.01
21
181.33
0
LINE
8
CUT
10
211.01
20
181.33
11
210.46
21
180.3
0
LINE
8
CUT
10
210.46
20
180.3
11
210.12
21
179.17
0
LINE
8
CUT
10
210.12
20
179.17
11
210
21
178
0
LINE
8
CUT
10
210
20
178
11
210
21
178
0
LINE
8
CUT
10
126
20
122
11
126.12
21
120.83
0
LINE
8
CUT
10
126.12
20
120.83
11
126.46
21
119.7
0
LINE
8
CUT
10
126.46
20
119.7
11
127.01
21
118.67
0
LINE
8
CUT
10
127.01
20
118.67
11
127.76
21
117.76
0
LINE
8
CUT
10
127.76
20
117.76
11
128.67
21
117.01
0
LINE
8
CUT
10
128.67
20
117.01
11
129.7
21
116.46
0
LINE
8
CUT
10
129.7
20
116.46
11
130.83
21
116.12
0
LINE
8
CUT
10
130.83
20
116.12
11
132
21
116
0
LINE
8
CUT
10
132
20
116
11
148
21
116
0
LINE
8
CUT
10
148
20
116
11
149.17
21
116.12
0
LINE
8
CUT
10
149.17
20
116.12
11
150.3
21
116.46
0
LINE
8
CUT
10
150.3
20
116.46
11
151.33
21
117.01
0
LINE
8
CUT
10
151.33
20
117.01
11
152.24
21
117.76
0
LINE
8
CUT
10
152.24
20
117.76
11
152.99
21
118.67
0
LINE
8
CUT
10
152.99
20
118.67
11
153.54
21
119.7
0
LINE
8
CUT
10
153.54
20
119.7
11
153.88
21
120.83
0
LINE
8
CUT
10
153.88
20
120.83
11
154
21
122
0
LINE
8
CUT
10
154
20
122
11
154
21
122
0
LINE
8
CUT
10
154
20
122
11
153.88
21
123.17
0
LINE
8
CUT
10
153.88
20
123.17
11
153.54
21
124.3
0
LINE
8
CUT
10
153.54
20
124.3
11
152.99
21
125.33
0
LINE
8
CUT
10
152.99
20
125.33
11
152.24
21
126.24
0
LINE
8
CUT
10
152.24
20
126.24
11
151.33
21
126.99
0
LINE
8
CUT
10
151.33
20
126.99
11
150.3
21
127.54
0
LINE
8
CUT
10
150.3
20
127.54
11
149.17
21
127.88
0
LINE
8
CUT
10
149.17
20
127.88
11
148
21
128
0
LINE
8
CUT
10
148
20
128
11
132
21
128
0
LINE
8
CUT
10
132
20
128
11
130.83
21
127.88
0
LINE
8
CUT
10
130.83
20
127.88
11
129.7
21
127.54
0
LINE
8
CUT
10
129.7
20
127.54
11
128.67
21
126.99
0
LINE
8
CUT
10
128.67
20
126.99
11
127.76
21
126.24
0
LINE
8
CUT
10
127.76
20
126.24
11
127.01
21
125.33
0
LINE
8
CUT
10
127.01
20
125.33
11
126.46
21
124.3
0
LINE
8
CUT
10
126.46
20
124.3
11
126.12
21
123.17
0
LINE
8
CUT
10
126.12
20
123.17
11
126
21
122
0
LINE
8
CUT
10
126
20
122
11
126
21
122
0
LINE
8
CUT
10
170
20
122
11
170.12
21
120.83
0
LINE
8
CUT
10
170.12
20
120.83
11
170.46
21
119.7
0
LINE
8
CUT
10
170.46
20
119.7
11
171.01
21
118.67
0
LINE
8
CUT
10
171.01
20
118.67
11
171.76
21
117.76
0
LINE
8
CUT
10
171.76
20
117.76
11
172.67
21
117.01
0
LINE
8
CUT
10
172.67
20
117.01
11
173.7
21
116.46
0
LINE
8
CUT
10
173.7
20
116.46
11
174.83
21
116.12
0
LINE
8
CUT
10
174.83
20
116.12
11
176
21
116
0
LINE
8
CUT
10
176
20
116
11
192
21
116
0
LINE
8
CUT
10
192
20
116
11
193.17
21
116.12
0
LINE
8
CUT
10
193.17
20
116.12
11
194.3
21
116.46
0
LINE
8
CUT
10
194.3
20
116.46
11
195.33
21
117.01
0
LINE
8
CUT
10
195.33
20
117.01
11
196.24
21
117.76
0
LINE
8
CUT
10
196.24
20
117.76
11
196.99
21
118.67
0
LINE
8
CUT
10
196.99
20
118.67
11
197.54
21
119.7
0
LINE
8
CUT
10
197.54
20
119.7
11
197.88
21
120.83
0
LINE
8
CUT
10
197.88
20
120.83
11
198
21
122
0
LINE
8
CUT
10
198
20
122
11
198
21
122
0
LINE
8
CUT
10
198
20
122
11
197.88
21
123.17
0
LINE
8
CUT
10
197.88
20
123.17
11
197.54
21
124.3
0
LINE
8
CUT
10
197.54
20
124.3
11
196.99
21
125.33
0
LINE
8
CUT
10
196.99
20
125.33
11
196.24
21
126.24
0
LINE
8
CUT
10
196.24
20
126.24
11
195.33
21
126.99
0
LINE
8
CUT
10
195.33
20
126.99
11
194.3
21
127.54
0
LINE
8
CUT
10
194.3
20
127.54
11
193.17
21
127.88
0
LINE
8
CUT
10
193.17
20
127.88
11
192
21
128
0
LINE
8
CUT
10
192
20
128
11
176
21
128
0
LINE
8
CUT
10
176
20
128
11
174.83
21
127.88
0
LINE
8
CUT
10
174.83
20
127.88
11
173.7
21
127.54
0
LINE
8
CUT
10
173.7
20
127.54
11
172.67
21
126.99
0
LINE
8
CUT
10
172.67
20
126.99
11
171.76
21
126.24
0
LINE
8
CUT
10
171.76
20
126.24
11
171.01
21
125.33
0
LINE
8
CUT
10
171.01
20
125.33
11
170.46
21
124.3
0
LINE
8
CUT
10
170.46
20
124.3
11
170.12
21
123.17
0
LINE
8
CUT
10
170.12
20
123.17
11
170
21
122
0
LINE
8
CUT
10
170
20
122
11
170
21
122
0
CIRCLE
8
CUT
10
72
20
96
40
3.25
0
CIRCLE
8
CUT
10
132
20
96
40
3.25
0
CIRCLE
8
CUT
10
193
20
96
40
3.25
0
CIRCLE
8
CUT
10
253
20
96
40
3.25
0
CIRCLE
8
CUT
10
132
20
150
40
3.25
0
CIRCLE
8
CUT
10
193
20
150
40
3.25
0
ENDSEC
0
EOF
