0
SECTION
2
HEADER
9
$INSUNITS
70
4
0
ENDSEC
0
SECTION
2
ENTITIES
0
LWPOLYLINE
8
HOLD_VEHICLE_TEMPLATE
90
36
70
1
10
269.000
20
0.000
10
270.171
20
0.115
10
271.296
20
0.457
10
272.333
20
1.011
10
273.243
20
1.757
10
273.989
20
2.667
10
274.543
20
3.704
10
274.885
20
4.829
10
275.000
20
6.000
10
275.000
20
219.000
10
274.885
20
220.171
10
274.543
20
221.296
10
273.989
20
222.333
10
273.243
20
223.243
10
272.333
20
223.989
10
271.296
20
224.543
10
270.171
20
224.885
10
269.000
20
225.000
10
6.000
20
225.000
10
4.829
20
224.885
10
3.704
20
224.543
10
2.667
20
223.989
10
1.757
20
223.243
10
1.011
20
222.333
10
0.457
20
221.296
10
0.115
20
220.171
10
0.000
20
219.000
10
0.000
20
6.000
10
0.115
20
4.829
10
0.457
20
3.704
10
1.011
20
2.667
10
1.757
20
1.757
10
2.667
20
1.011
10
3.704
20
0.457
10
4.829
20
0.115
10
6.000
20
0.000
0
LWPOLYLINE
8
HOLD_LCD_APERTURE
90
36
70
1
10
235.500
20
82.000
10
236.085
20
82.058
10
236.648
20
82.228
10
237.167
20
82.506
10
237.621
20
82.879
10
237.994
20
83.333
10
238.272
20
83.852
10
238.442
20
84.415
10
238.500
20
85.000
10
238.500
20
194.000
10
238.442
20
194.585
10
238.272
20
195.148
10
237.994
20
195.667
10
237.621
20
196.121
10
237.167
20
196.494
10
236.648
20
196.772
10
236.085
20
196.942
10
235.500
20
197.000
10
39.500
20
197.000
10
38.915
20
196.942
10
38.352
20
196.772
10
37.833
20
196.494
10
37.379
20
196.121
10
37.006
20
195.667
10
36.728
20
195.148
10
36.558
20
194.585
10
36.500
20
194.000
10
36.500
20
85.000
10
36.558
20
84.415
10
36.728
20
83.852
10
37.006
20
83.333
10
37.379
20
82.879
10
37.833
20
82.506
10
38.352
20
82.228
10
38.915
20
82.058
10
39.500
20
82.000
0
LWPOLYLINE
8
CUT_CONTROL_STRIP_APERTURE
90
36
70
1
10
254.500
20
20.000
10
255.085
20
20.058
10
255.648
20
20.228
10
256.167
20
20.506
10
256.621
20
20.879
10
256.994
20
21.333
10
257.272
20
21.852
10
257.442
20
22.415
10
257.500
20
23.000
10
257.500
20
57.000
10
257.442
20
57.585
10
257.272
20
58.148
10
256.994
20
58.667
10
256.621
20
59.121
10
256.167
20
59.494
10
255.648
20
59.772
10
255.085
20
59.942
10
254.500
20
60.000
10
20.500
20
60.000
10
19.915
20
59.942
10
19.352
20
59.772
10
18.833
20
59.494
10
18.379
20
59.121
10
18.006
20
58.667
10
17.728
20
58.148
10
17.558
20
57.585
10
17.500
20
57.000
10
17.500
20
23.000
10
17.558
20
22.415
10
17.728
20
21.852
10
18.006
20
21.333
10
18.379
20
20.879
10
18.833
20
20.506
10
19.352
20
20.228
10
19.915
20
20.058
10
20.500
20
20.000
0
CIRCLE
8
HOLD_VEHICLE_TEMPLATE
10
8.000
20
8.000
30
0
40
2.250
0
CIRCLE
8
HOLD_VEHICLE_TEMPLATE
10
137.500
20
8.000
30
0
40
2.250
0
CIRCLE
8
HOLD_VEHICLE_TEMPLATE
10
267.000
20
8.000
30
0
40
2.250
0
CIRCLE
8
HOLD_VEHICLE_TEMPLATE
10
8.000
20
212.000
30
0
40
2.250
0
CIRCLE
8
HOLD_VEHICLE_TEMPLATE
10
137.500
20
212.000
30
0
40
2.250
0
CIRCLE
8
HOLD_VEHICLE_TEMPLATE
10
267.000
20
212.000
30
0
40
2.250
0
ENDSEC
0
EOF
