0
SECTION
2
HEADER
9
$INSUNITS
70
4
0
ENDSEC
0
SECTION
2
ENTITIES
0
LWPOLYLINE
8
CUT
90
36
70
1
10
247.000
20
0.000
10
247.585
20
0.058
10
248.148
20
0.228
10
248.667
20
0.506
10
249.121
20
0.879
10
249.494
20
1.333
10
249.772
20
1.852
10
249.942
20
2.415
10
250.000
20
3.000
10
250.000
20
147.000
10
249.942
20
147.585
10
249.772
20
148.148
10
249.494
20
148.667
10
249.121
20
149.121
10
248.667
20
149.494
10
248.148
20
149.772
10
247.585
20
149.942
10
247.000
20
150.000
10
3.000
20
150.000
10
2.415
20
149.942
10
1.852
20
149.772
10
1.333
20
149.494
10
0.879
20
149.121
10
0.506
20
148.667
10
0.228
20
148.148
10
0.058
20
147.585
10
0.000
20
147.000
10
0.000
20
3.000
10
0.058
20
2.415
10
0.228
20
1.852
10
0.506
20
1.333
10
0.879
20
0.879
10
1.333
20
0.506
10
1.852
20
0.228
10
2.415
20
0.058
10
3.000
20
0.000
0
LWPOLYLINE
8
HOLD_LCD_REAR_BODY
90
36
70
1
10
238.000
20
10.000
10
238.390
20
10.038
10
238.765
20
10.152
10
239.111
20
10.337
10
239.414
20
10.586
10
239.663
20
10.889
10
239.848
20
11.235
10
239.962
20
11.610
10
240.000
20
12.000
10
240.000
20
138.000
10
239.962
20
138.390
10
239.848
20
138.765
10
239.663
20
139.111
10
239.414
20
139.414
10
239.111
20
139.663
10
238.765
20
139.848
10
238.390
20
139.962
10
238.000
20
140.000
10
12.000
20
140.000
10
11.610
20
139.962
10
11.235
20
139.848
10
10.889
20
139.663
10
10.586
20
139.414
10
10.337
20
139.111
10
10.152
20
138.765
10
10.038
20
138.390
10
10.000
20
138.000
10
10.000
20
12.000
10
10.038
20
11.610
10
10.152
20
11.235
10
10.337
20
10.889
10
10.586
20
10.586
10
10.889
20
10.337
10
11.235
20
10.152
10
11.610
20
10.038
10
12.000
20
10.000
0
CIRCLE
8
CUT
10
5.000
20
5.000
30
0
40
2.250
0
CIRCLE
8
CUT
10
245.000
20
5.000
30
0
40
2.250
0
CIRCLE
8
CUT
10
5.000
20
145.000
30
0
40
2.250
0
CIRCLE
8
CUT
10
245.000
20
145.000
30
0
40
2.250
0
ENDSEC
0
EOF
