0
SECTION
2
HEADER
9
$INSUNITS
70
4
0
ENDSEC
0
SECTION
2
ENTITIES
0
LWPOLYLINE
8
HOLD_VEHICLE_TRANSFER
90
36
70
1
10
107.000
20
0.000
10
107.585
20
0.058
10
108.148
20
0.228
10
108.667
20
0.506
10
109.121
20
0.879
10
109.494
20
1.333
10
109.772
20
1.852
10
109.942
20
2.415
10
110.000
20
3.000
10
110.000
20
87.000
10
109.942
20
87.585
10
109.772
20
88.148
10
109.494
20
88.667
10
109.121
20
89.121
10
108.667
20
89.494
10
108.148
20
89.772
10
107.585
20
89.942
10
107.000
20
90.000
10
3.000
20
90.000
10
2.415
20
89.942
10
1.852
20
89.772
10
1.333
20
89.494
10
0.879
20
89.121
10
0.506
20
88.667
10
0.228
20
88.148
10
0.058
20
87.585
10
0.000
20
87.000
10
0.000
20
3.000
10
0.058
20
2.415
10
0.228
20
1.852
10
0.506
20
1.333
10
0.879
20
0.879
10
1.333
20
0.506
10
1.852
20
0.228
10
2.415
20
0.058
10
3.000
20
0.000
0
CIRCLE
8
HOLD_SELECTOR_APERTURES
10
30.000
20
65.000
30
0
40
11.150
0
LINE
8
HOLD_CENTRELINES
10
26.000
20
65.000
30
0
11
34.000
21
65.000
31
0
0
LINE
8
HOLD_CENTRELINES
10
30.000
20
61.000
30
0
11
30.000
21
69.000
31
0
0
CIRCLE
8
HOLD_SELECTOR_APERTURES
10
80.000
20
65.000
30
0
40
11.150
0
LINE
8
HOLD_CENTRELINES
10
76.000
20
65.000
30
0
11
84.000
21
65.000
31
0
0
LINE
8
HOLD_CENTRELINES
10
80.000
20
61.000
30
0
11
80.000
21
69.000
31
0
0
CIRCLE
8
HOLD_SELECTOR_APERTURES
10
30.000
20
25.000
30
0
40
11.150
0
LINE
8
HOLD_CENTRELINES
10
26.000
20
25.000
30
0
11
34.000
21
25.000
31
0
0
LINE
8
HOLD_CENTRELINES
10
30.000
20
21.000
30
0
11
30.000
21
29.000
31
0
0
CIRCLE
8
HOLD_SELECTOR_APERTURES
10
80.000
20
25.000
30
0
40
11.150
0
LINE
8
HOLD_CENTRELINES
10
76.000
20
25.000
30
0
11
84.000
21
25.000
31
0
0
LINE
8
HOLD_CENTRELINES
10
80.000
20
21.000
30
0
11
80.000
21
29.000
31
0
0
ENDSEC
0
EOF
