0
SECTION
2
HEADER
9
$INSUNITS
70
4
0
ENDSEC
0
SECTION
2
ENTITIES
0
LWPOLYLINE
8
HOLD_FASCIA_OUTER
90
67
70
1
10
0.000
20
220.000
10
1260.000
20
220.000
10
1260.000
20
12.000
10
1252.000
20
3.000
10
1084.000
20
3.000
10
1076.000
20
12.000
10
1076.000
20
50.000
10
995.000
20
50.000
10
994.013
20
55.557
10
991.080
20
60.945
10
986.292
20
66.000
10
979.793
20
70.569
10
971.781
20
74.513
10
962.500
20
77.713
10
952.231
20
80.070
10
941.287
20
81.514
10
930.000
20
82.000
10
918.713
20
81.514
10
907.769
20
80.070
10
897.500
20
77.713
10
888.219
20
74.513
10
880.207
20
70.569
10
873.708
20
66.000
10
868.920
20
60.945
10
865.987
20
55.557
10
865.000
20
50.000
10
852.000
20
50.000
10
852.000
20
50.000
10
851.149
20
35.240
10
848.623
20
20.928
10
844.497
20
7.500
10
838.898
20
-4.637
10
831.996
20
-15.114
10
824.000
20
-23.612
10
815.153
20
-29.874
10
805.724
20
-33.709
10
796.000
20
-35.000
10
786.276
20
-33.709
10
776.847
20
-29.874
10
768.000
20
-23.612
10
760.004
20
-15.114
10
753.102
20
-4.637
10
747.503
20
7.500
10
743.377
20
20.928
10
740.851
20
35.240
10
740.000
20
50.000
10
520.000
20
50.000
10
520.000
20
50.000
10
519.149
20
35.240
10
516.623
20
20.928
10
512.497
20
7.500
10
506.898
20
-4.637
10
499.996
20
-15.114
10
492.000
20
-23.612
10
483.153
20
-29.874
10
473.724
20
-33.709
10
464.000
20
-35.000
10
454.276
20
-33.709
10
444.847
20
-29.874
10
436.000
20
-23.612
10
428.004
20
-15.114
10
421.102
20
-4.637
10
415.503
20
7.500
10
411.377
20
20.928
10
408.851
20
35.240
10
408.000
20
50.000
10
0.000
20
50.000
0
LINE
8
HOLD_MAIN_LOWER_DATUM
10
0.000
20
50.000
30
0
11
1260.000
21
50.000
31
0
0
LINE
8
HOLD_CENTRELINES
10
630.000
20
0.000
30
0
11
630.000
21
220.000
31
0
0
LWPOLYLINE
8
HOLD_STEERING_COLUMN_RELIEF_EDGE
90
19
70
0
10
995.000
20
50.000
10
994.013
20
55.557
10
991.080
20
60.945
10
986.292
20
66.000
10
979.793
20
70.569
10
971.781
20
74.513
10
962.500
20
77.713
10
952.231
20
80.070
10
941.287
20
81.514
10
930.000
20
82.000
10
918.713
20
81.514
10
907.769
20
80.070
10
897.500
20
77.713
10
888.219
20
74.513
10
880.207
20
70.569
10
873.708
20
66.000
10
868.920
20
60.945
10
865.987
20
55.557
10
865.000
20
50.000
0
LWPOLYLINE
8
HOLD_STEERING_COLUMN_SWEPT_KEEP_OUT
90
36
70
1
10
989.000
20
0.000
10
990.171
20
0.115
10
991.296
20
0.457
10
992.333
20
1.011
10
993.243
20
1.757
10
993.989
20
2.667
10
994.543
20
3.704
10
994.885
20
4.829
10
995.000
20
6.000
10
995.000
20
99.000
10
994.885
20
100.171
10
994.543
20
101.296
10
993.989
20
102.333
10
993.243
20
103.243
10
992.333
20
103.989
10
991.296
20
104.543
10
990.171
20
104.885
10
989.000
20
105.000
10
871.000
20
105.000
10
869.829
20
104.885
10
868.704
20
104.543
10
867.667
20
103.989
10
866.757
20
103.243
10
866.011
20
102.333
10
865.457
20
101.296
10
865.115
20
100.171
10
865.000
20
99.000
10
865.000
20
6.000
10
865.115
20
4.829
10
865.457
20
3.704
10
866.011
20
2.667
10
866.757
20
1.757
10
867.667
20
1.011
10
868.704
20
0.457
10
869.829
20
0.115
10
871.000
20
0.000
0
LINE
8
HOLD_STEERING_COLUMN_AXIS
10
930.000
20
0.000
30
0
11
930.000
21
105.000
31
0
0
LWPOLYLINE
8
HOLD_LCD_BEZEL_ENVELOPE
90
36
70
1
10
738.000
20
76.000
10
738.780
20
76.077
10
739.531
20
76.304
10
740.222
20
76.674
10
740.828
20
77.172
10
741.326
20
77.778
10
741.696
20
78.469
10
741.923
20
79.220
10
742.000
20
80.000
10
742.000
20
208.000
10
741.923
20
208.780
10
741.696
20
209.531
10
741.326
20
210.222
10
740.828
20
210.828
10
740.222
20
211.326
10
739.531
20
211.696
10
738.780
20
211.923
10
738.000
20
212.000
10
522.000
20
212.000
10
521.220
20
211.923
10
520.469
20
211.696
10
519.778
20
211.326
10
519.172
20
210.828
10
518.674
20
210.222
10
518.304
20
209.531
10
518.077
20
208.780
10
518.000
20
208.000
10
518.000
20
80.000
10
518.077
20
79.220
10
518.304
20
78.469
10
518.674
20
77.778
10
519.172
20
77.172
10
519.778
20
76.674
10
520.469
20
76.304
10
521.220
20
76.077
10
522.000
20
76.000
0
LWPOLYLINE
8
HOLD_LCD_APERTURE
90
36
70
1
10
728.000
20
86.500
10
728.585
20
86.558
10
729.148
20
86.728
10
729.667
20
87.006
10
730.121
20
87.379
10
730.494
20
87.833
10
730.772
20
88.352
10
730.942
20
88.915
10
731.000
20
89.500
10
731.000
20
198.500
10
730.942
20
199.085
10
730.772
20
199.648
10
730.494
20
200.167
10
730.121
20
200.621
10
729.667
20
200.994
10
729.148
20
201.272
10
728.585
20
201.442
10
728.000
20
201.500
10
532.000
20
201.500
10
531.415
20
201.442
10
530.852
20
201.272
10
530.333
20
200.994
10
529.879
20
200.621
10
529.506
20
200.167
10
529.228
20
199.648
10
529.058
20
199.085
10
529.000
20
198.500
10
529.000
20
89.500
10
529.058
20
88.915
10
529.228
20
88.352
10
529.506
20
87.833
10
529.879
20
87.379
10
530.333
20
87.006
10
530.852
20
86.728
10
531.415
20
86.558
10
532.000
20
86.500
0
LWPOLYLINE
8
HOLD_LCD_ACTIVE_REFERENCE
90
36
70
1
10
727.600
20
87.950
10
727.990
20
87.988
10
728.365
20
88.102
10
728.711
20
88.287
10
729.014
20
88.536
10
729.263
20
88.839
10
729.448
20
89.185
10
729.562
20
89.560
10
729.600
20
89.950
10
729.600
20
198.050
10
729.562
20
198.440
10
729.448
20
198.815
10
729.263
20
199.161
10
729.014
20
199.464
10
728.711
20
199.713
10
728.365
20
199.898
10
727.990
20
200.012
10
727.600
20
200.050
10
532.400
20
200.050
10
532.010
20
200.012
10
531.635
20
199.898
10
531.289
20
199.713
10
530.986
20
199.464
10
530.737
20
199.161
10
530.552
20
198.815
10
530.438
20
198.440
10
530.400
20
198.050
10
530.400
20
89.950
10
530.438
20
89.560
10
530.552
20
89.185
10
530.737
20
88.839
10
530.986
20
88.536
10
531.289
20
88.287
10
531.635
20
88.102
10
532.010
20
87.988
10
532.400
20
87.950
0
CIRCLE
8
HOLD_VENT_FACE_ENVELOPE
10
50.000
20
168.500
30
0
40
43.500
0
CIRCLE
8
HOLD_VENT_NECK_CUTOUT
10
50.000
20
168.500
30
0
40
37.500
0
LINE
8
HOLD_CENTRELINES
10
44.000
20
168.500
30
0
11
56.000
21
168.500
31
0
0
LINE
8
HOLD_CENTRELINES
10
50.000
20
162.500
30
0
11
50.000
21
174.500
31
0
0
CIRCLE
8
HOLD_VENT_FACE_ENVELOPE
10
464.000
20
20.000
30
0
40
43.500
0
CIRCLE
8
HOLD_VENT_NECK_CUTOUT
10
464.000
20
20.000
30
0
40
37.500
0
LINE
8
HOLD_CENTRELINES
10
458.000
20
20.000
30
0
11
470.000
21
20.000
31
0
0
LINE
8
HOLD_CENTRELINES
10
464.000
20
14.000
30
0
11
464.000
21
26.000
31
0
0
CIRCLE
8
HOLD_VENT_FACE_ENVELOPE
10
796.000
20
20.000
30
0
40
43.500
0
CIRCLE
8
HOLD_VENT_NECK_CUTOUT
10
796.000
20
20.000
30
0
40
37.500
0
LINE
8
HOLD_CENTRELINES
10
790.000
20
20.000
30
0
11
802.000
21
20.000
31
0
0
LINE
8
HOLD_CENTRELINES
10
796.000
20
14.000
30
0
11
796.000
21
26.000
31
0
0
CIRCLE
8
HOLD_VENT_FACE_ENVELOPE
10
1210.000
20
168.500
30
0
40
43.500
0
CIRCLE
8
HOLD_VENT_NECK_CUTOUT
10
1210.000
20
168.500
30
0
40
37.500
0
LINE
8
HOLD_CENTRELINES
10
1204.000
20
168.500
30
0
11
1216.000
21
168.500
31
0
0
LINE
8
HOLD_CENTRELINES
10
1210.000
20
162.500
30
0
11
1210.000
21
174.500
31
0
0
LWPOLYLINE
8
HOLD_GLOVEBOX_TRANSFER_ENVELOPE
90
8
70
1
10
152.000
20
75.000
10
162.000
20
65.000
10
342.000
20
65.000
10
362.000
20
78.000
10
362.000
20
190.000
10
345.000
20
208.000
10
172.000
20
210.000
10
152.000
20
195.000
0
LWPOLYLINE
8
HOLD_SPEEDOMETER_TRANSFER_ENVELOPE
90
8
70
1
10
785.000
20
88.000
10
785.000
20
187.000
10
800.000
20
207.000
10
823.000
20
215.000
10
1037.000
20
215.000
10
1060.000
20
207.000
10
1075.000
20
187.000
10
1075.000
20
88.000
0
LWPOLYLINE
8
HOLD_CONTROL_BANK_ENVELOPE
90
36
70
1
10
1250.000
20
3.000
10
1250.975
20
3.096
10
1251.913
20
3.381
10
1252.778
20
3.843
10
1253.536
20
4.464
10
1254.157
20
5.222
10
1254.619
20
6.087
10
1254.904
20
7.025
10
1255.000
20
8.000
10
1255.000
20
111.000
10
1254.904
20
111.975
10
1254.619
20
112.913
10
1254.157
20
113.778
10
1253.536
20
114.536
10
1252.778
20
115.157
10
1251.913
20
115.619
10
1250.975
20
115.904
10
1250.000
20
116.000
10
1081.000
20
116.000
10
1080.025
20
115.904
10
1079.087
20
115.619
10
1078.222
20
115.157
10
1077.464
20
114.536
10
1076.843
20
113.778
10
1076.381
20
112.913
10
1076.096
20
111.975
10
1076.000
20
111.000
10
1076.000
20
8.000
10
1076.096
20
7.025
10
1076.381
20
6.087
10
1076.843
20
5.222
10
1077.464
20
4.464
10
1078.222
20
3.843
10
1079.087
20
3.381
10
1080.025
20
3.096
10
1081.000
20
3.000
0
CIRCLE
8
HOLD_SELECTOR_APERTURES
10
1096.000
20
88.000
30
0
40
11.250
0
LINE
8
HOLD_CENTRELINES
10
1092.000
20
88.000
30
0
11
1100.000
21
88.000
31
0
0
LINE
8
HOLD_CENTRELINES
10
1096.000
20
84.000
30
0
11
1096.000
21
92.000
31
0
0
TEXT
8
HOLD_ENGRAVE_LABELS
10
1096.000
20
107.000
30
0
40
3.000
1
WIPERS
72
1
73
2
11
1096.000
21
107.000
31
0
0
CIRCLE
8
HOLD_SELECTOR_APERTURES
10
1144.000
20
88.000
30
0
40
11.250
0
LINE
8
HOLD_CENTRELINES
10
1140.000
20
88.000
30
0
11
1148.000
21
88.000
31
0
0
LINE
8
HOLD_CENTRELINES
10
1144.000
20
84.000
30
0
11
1144.000
21
92.000
31
0
0
TEXT
8
HOLD_ENGRAVE_LABELS
10
1144.000
20
107.000
30
0
40
3.000
1
LIGHTS
72
1
73
2
11
1144.000
21
107.000
31
0
0
CIRCLE
8
HOLD_SELECTOR_APERTURES
10
1192.000
20
88.000
30
0
40
11.250
0
LINE
8
HOLD_CENTRELINES
10
1188.000
20
88.000
30
0
11
1196.000
21
88.000
31
0
0
LINE
8
HOLD_CENTRELINES
10
1192.000
20
84.000
30
0
11
1192.000
21
92.000
31
0
0
TEXT
8
HOLD_ENGRAVE_LABELS
10
1192.000
20
107.000
30
0
40
3.000
1
SPOTS
72
1
73
2
11
1192.000
21
107.000
31
0
0
CIRCLE
8
HOLD_SELECTOR_APERTURES
10
1240.000
20
88.000
30
0
40
11.250
0
LINE
8
HOLD_CENTRELINES
10
1236.000
20
88.000
30
0
11
1244.000
21
88.000
31
0
0
LINE
8
HOLD_CENTRELINES
10
1240.000
20
84.000
30
0
11
1240.000
21
92.000
31
0
0
TEXT
8
HOLD_ENGRAVE_LABELS
10
1240.000
20
107.000
30
0
40
3.000
1
AUX
72
1
73
2
11
1240.000
21
107.000
31
0
0
CIRCLE
8
HOLD_SELECTOR_APERTURES
10
1096.000
20
30.000
30
0
40
11.250
0
LINE
8
HOLD_CENTRELINES
10
1092.000
20
30.000
30
0
11
1100.000
21
30.000
31
0
0
LINE
8
HOLD_CENTRELINES
10
1096.000
20
26.000
30
0
11
1096.000
21
34.000
31
0
0
TEXT
8
HOLD_ENGRAVE_LABELS
10
1096.000
20
49.000
30
0
40
3.000
1
BLOWER
72
1
73
2
11
1096.000
21
49.000
31
0
0
CIRCLE
8
HOLD_SELECTOR_APERTURES
10
1144.000
20
30.000
30
0
40
11.250
0
LINE
8
HOLD_CENTRELINES
10
1140.000
20
30.000
30
0
11
1148.000
21
30.000
31
0
0
LINE
8
HOLD_CENTRELINES
10
1144.000
20
26.000
30
0
11
1144.000
21
34.000
31
0
0
TEXT
8
HOLD_ENGRAVE_LABELS
10
1144.000
20
49.000
30
0
40
3.000
1
A/C
72
1
73
2
11
1144.000
21
49.000
31
0
0
CIRCLE
8
HOLD_SELECTOR_APERTURES
10
1192.000
20
30.000
30
0
40
11.250
0
LINE
8
HOLD_CENTRELINES
10
1188.000
20
30.000
30
0
11
1196.000
21
30.000
31
0
0
LINE
8
HOLD_CENTRELINES
10
1192.000
20
26.000
30
0
11
1192.000
21
34.000
31
0
0
TEXT
8
HOLD_ENGRAVE_LABELS
10
1192.000
20
49.000
30
0
40
3.000
1
ENGINE
72
1
73
2
11
1192.000
21
49.000
31
0
0
CIRCLE
8
HOLD_HAZARD_APERTURE
10
1240.000
20
30.000
30
0
40
8.000
0
LINE
8
HOLD_CENTRELINES
10
1236.000
20
30.000
30
0
11
1244.000
21
30.000
31
0
0
LINE
8
HOLD_CENTRELINES
10
1240.000
20
26.000
30
0
11
1240.000
21
34.000
31
0
0
TEXT
8
HOLD_ENGRAVE_LABELS
10
1240.000
20
49.000
30
0
40
3.000
1
HAZARD
72
1
73
2
11
1240.000
21
49.000
31
0
0
ENDSEC
0
EOF
