0
SECTION
2
HEADER
9
$INSUNITS
70
4
0
ENDSEC
0
SECTION
2
ENTITIES
0
LWPOLYLINE
8
HOLD_FASCIA_OUTER
90
12
70
1
10
0.000
20
220.000
10
1260.000
20
220.000
10
1260.000
20
50.000
10
1168.000
20
50.000
10
1166.000
20
28.000
10
1156.000
20
10.000
10
1138.000
20
0.000
10
850.000
20
0.000
10
832.000
20
10.000
10
822.000
20
28.000
10
820.000
20
50.000
10
0.000
20
50.000
0
LINE
8
HOLD_MAIN_LOWER_DATUM
10
0.000
20
50.000
30
0
11
1260.000
21
50.000
31
0
0
LINE
8
HOLD_CENTRELINES
10
630.000
20
0.000
30
0
11
630.000
21
220.000
31
0
0
LWPOLYLINE
8
HOLD_LCD_BEZEL_ENVELOPE
90
36
70
1
10
738.000
20
76.000
10
738.780
20
76.077
10
739.531
20
76.304
10
740.222
20
76.674
10
740.828
20
77.172
10
741.326
20
77.778
10
741.696
20
78.469
10
741.923
20
79.220
10
742.000
20
80.000
10
742.000
20
208.000
10
741.923
20
208.780
10
741.696
20
209.531
10
741.326
20
210.222
10
740.828
20
210.828
10
740.222
20
211.326
10
739.531
20
211.696
10
738.780
20
211.923
10
738.000
20
212.000
10
522.000
20
212.000
10
521.220
20
211.923
10
520.469
20
211.696
10
519.778
20
211.326
10
519.172
20
210.828
10
518.674
20
210.222
10
518.304
20
209.531
10
518.077
20
208.780
10
518.000
20
208.000
10
518.000
20
80.000
10
518.077
20
79.220
10
518.304
20
78.469
10
518.674
20
77.778
10
519.172
20
77.172
10
519.778
20
76.674
10
520.469
20
76.304
10
521.220
20
76.077
10
522.000
20
76.000
0
LWPOLYLINE
8
HOLD_LCD_APERTURE
90
36
70
1
10
728.000
20
86.500
10
728.585
20
86.558
10
729.148
20
86.728
10
729.667
20
87.006
10
730.121
20
87.379
10
730.494
20
87.833
10
730.772
20
88.352
10
730.942
20
88.915
10
731.000
20
89.500
10
731.000
20
198.500
10
730.942
20
199.085
10
730.772
20
199.648
10
730.494
20
200.167
10
730.121
20
200.621
10
729.667
20
200.994
10
729.148
20
201.272
10
728.585
20
201.442
10
728.000
20
201.500
10
532.000
20
201.500
10
531.415
20
201.442
10
530.852
20
201.272
10
530.333
20
200.994
10
529.879
20
200.621
10
529.506
20
200.167
10
529.228
20
199.648
10
529.058
20
199.085
10
529.000
20
198.500
10
529.000
20
89.500
10
529.058
20
88.915
10
529.228
20
88.352
10
529.506
20
87.833
10
529.879
20
87.379
10
530.333
20
87.006
10
530.852
20
86.728
10
531.415
20
86.558
10
532.000
20
86.500
0
LWPOLYLINE
8
HOLD_LCD_ACTIVE_REFERENCE
90
36
70
1
10
727.600
20
87.950
10
727.990
20
87.988
10
728.365
20
88.102
10
728.711
20
88.287
10
729.014
20
88.536
10
729.263
20
88.839
10
729.448
20
89.185
10
729.562
20
89.560
10
729.600
20
89.950
10
729.600
20
198.050
10
729.562
20
198.440
10
729.448
20
198.815
10
729.263
20
199.161
10
729.014
20
199.464
10
728.711
20
199.713
10
728.365
20
199.898
10
727.990
20
200.012
10
727.600
20
200.050
10
532.400
20
200.050
10
532.010
20
200.012
10
531.635
20
199.898
10
531.289
20
199.713
10
530.986
20
199.464
10
530.737
20
199.161
10
530.552
20
198.815
10
530.438
20
198.440
10
530.400
20
198.050
10
530.400
20
89.950
10
530.438
20
89.560
10
530.552
20
89.185
10
530.737
20
88.839
10
530.986
20
88.536
10
531.289
20
88.287
10
531.635
20
88.102
10
532.010
20
87.988
10
532.400
20
87.950
0
CIRCLE
8
HOLD_VENT_FACE_ENVELOPE
10
50.000
20
168.500
30
0
40
43.500
0
CIRCLE
8
HOLD_VENT_NECK_CUTOUT
10
50.000
20
168.500
30
0
40
37.500
0
LINE
8
HOLD_CENTRELINES
10
44.000
20
168.500
30
0
11
56.000
21
168.500
31
0
0
LINE
8
HOLD_CENTRELINES
10
50.000
20
162.500
30
0
11
50.000
21
174.500
31
0
0
CIRCLE
8
HOLD_VENT_FACE_ENVELOPE
10
464.000
20
168.500
30
0
40
43.500
0
CIRCLE
8
HOLD_VENT_NECK_CUTOUT
10
464.000
20
168.500
30
0
40
37.500
0
LINE
8
HOLD_CENTRELINES
10
458.000
20
168.500
30
0
11
470.000
21
168.500
31
0
0
LINE
8
HOLD_CENTRELINES
10
464.000
20
162.500
30
0
11
464.000
21
174.500
31
0
0
CIRCLE
8
HOLD_VENT_FACE_ENVELOPE
10
796.000
20
168.500
30
0
40
43.500
0
CIRCLE
8
HOLD_VENT_NECK_CUTOUT
10
796.000
20
168.500
30
0
40
37.500
0
LINE
8
HOLD_CENTRELINES
10
790.000
20
168.500
30
0
11
802.000
21
168.500
31
0
0
LINE
8
HOLD_CENTRELINES
10
796.000
20
162.500
30
0
11
796.000
21
174.500
31
0
0
CIRCLE
8
HOLD_VENT_FACE_ENVELOPE
10
1210.000
20
168.500
30
0
40
43.500
0
CIRCLE
8
HOLD_VENT_NECK_CUTOUT
10
1210.000
20
168.500
30
0
40
37.500
0
LINE
8
HOLD_CENTRELINES
10
1204.000
20
168.500
30
0
11
1216.000
21
168.500
31
0
0
LINE
8
HOLD_CENTRELINES
10
1210.000
20
162.500
30
0
11
1210.000
21
174.500
31
0
0
LWPOLYLINE
8
HOLD_GLOVEBOX_TRANSFER_ENVELOPE
90
8
70
1
10
97.000
20
72.000
10
107.000
20
58.000
10
392.000
20
58.000
10
412.000
20
74.000
10
412.000
20
192.000
10
395.000
20
212.000
10
117.000
20
215.000
10
97.000
20
198.000
0
LWPOLYLINE
8
HOLD_SPEEDOMETER_TRANSFER_ENVELOPE
90
8
70
1
10
850.000
20
58.000
10
850.000
20
180.000
10
861.000
20
202.000
10
885.000
20
215.000
10
1023.000
20
215.000
10
1047.000
20
202.000
10
1060.000
20
180.000
10
1060.000
20
58.000
0
LWPOLYLINE
8
HOLD_CONTROL_BANK_ENVELOPE
90
36
70
1
10
1146.000
20
4.000
10
1146.975
20
4.096
10
1147.913
20
4.381
10
1148.778
20
4.843
10
1149.536
20
5.464
10
1150.157
20
6.222
10
1150.619
20
7.087
10
1150.904
20
8.025
10
1151.000
20
9.000
10
1151.000
20
45.000
10
1150.904
20
45.975
10
1150.619
20
46.913
10
1150.157
20
47.778
10
1149.536
20
48.536
10
1148.778
20
49.157
10
1147.913
20
49.619
10
1146.975
20
49.904
10
1146.000
20
50.000
10
847.000
20
50.000
10
846.025
20
49.904
10
845.087
20
49.619
10
844.222
20
49.157
10
843.464
20
48.536
10
842.843
20
47.778
10
842.381
20
46.913
10
842.096
20
45.975
10
842.000
20
45.000
10
842.000
20
9.000
10
842.096
20
8.025
10
842.381
20
7.087
10
842.843
20
6.222
10
843.464
20
5.464
10
844.222
20
4.843
10
845.087
20
4.381
10
846.025
20
4.096
10
847.000
20
4.000
0
CIRCLE
8
HOLD_SELECTOR_APERTURES
10
860.000
20
24.000
30
0
40
11.250
0
LINE
8
HOLD_CENTRELINES
10
856.000
20
24.000
30
0
11
864.000
21
24.000
31
0
0
LINE
8
HOLD_CENTRELINES
10
860.000
20
20.000
30
0
11
860.000
21
28.000
31
0
0
TEXT
8
HOLD_ENGRAVE_LABELS
10
860.000
20
43.000
30
0
40
3.000
1
WIPERS
72
1
73
2
11
860.000
21
43.000
31
0
0
CIRCLE
8
HOLD_SELECTOR_APERTURES
10
899.000
20
24.000
30
0
40
11.250
0
LINE
8
HOLD_CENTRELINES
10
895.000
20
24.000
30
0
11
903.000
21
24.000
31
0
0
LINE
8
HOLD_CENTRELINES
10
899.000
20
20.000
30
0
11
899.000
21
28.000
31
0
0
TEXT
8
HOLD_ENGRAVE_LABELS
10
899.000
20
43.000
30
0
40
3.000
1
LIGHTS
72
1
73
2
11
899.000
21
43.000
31
0
0
CIRCLE
8
HOLD_SELECTOR_APERTURES
10
938.000
20
24.000
30
0
40
11.250
0
LINE
8
HOLD_CENTRELINES
10
934.000
20
24.000
30
0
11
942.000
21
24.000
31
0
0
LINE
8
HOLD_CENTRELINES
10
938.000
20
20.000
30
0
11
938.000
21
28.000
31
0
0
TEXT
8
HOLD_ENGRAVE_LABELS
10
938.000
20
43.000
30
0
40
3.000
1
SPOTS
72
1
73
2
11
938.000
21
43.000
31
0
0
CIRCLE
8
HOLD_SELECTOR_APERTURES
10
977.000
20
24.000
30
0
40
11.250
0
LINE
8
HOLD_CENTRELINES
10
973.000
20
24.000
30
0
11
981.000
21
24.000
31
0
0
LINE
8
HOLD_CENTRELINES
10
977.000
20
20.000
30
0
11
977.000
21
28.000
31
0
0
TEXT
8
HOLD_ENGRAVE_LABELS
10
977.000
20
43.000
30
0
40
3.000
1
AUX
72
1
73
2
11
977.000
21
43.000
31
0
0
CIRCLE
8
HOLD_SELECTOR_APERTURES
10
1016.000
20
24.000
30
0
40
11.250
0
LINE
8
HOLD_CENTRELINES
10
1012.000
20
24.000
30
0
11
1020.000
21
24.000
31
0
0
LINE
8
HOLD_CENTRELINES
10
1016.000
20
20.000
30
0
11
1016.000
21
28.000
31
0
0
TEXT
8
HOLD_ENGRAVE_LABELS
10
1016.000
20
43.000
30
0
40
3.000
1
BLOWER
72
1
73
2
11
1016.000
21
43.000
31
0
0
CIRCLE
8
HOLD_SELECTOR_APERTURES
10
1055.000
20
24.000
30
0
40
11.250
0
LINE
8
HOLD_CENTRELINES
10
1051.000
20
24.000
30
0
11
1059.000
21
24.000
31
0
0
LINE
8
HOLD_CENTRELINES
10
1055.000
20
20.000
30
0
11
1055.000
21
28.000
31
0
0
TEXT
8
HOLD_ENGRAVE_LABELS
10
1055.000
20
43.000
30
0
40
3.000
1
A/C
72
1
73
2
11
1055.000
21
43.000
31
0
0
CIRCLE
8
HOLD_SELECTOR_APERTURES
10
1094.000
20
24.000
30
0
40
11.250
0
LINE
8
HOLD_CENTRELINES
10
1090.000
20
24.000
30
0
11
1098.000
21
24.000
31
0
0
LINE
8
HOLD_CENTRELINES
10
1094.000
20
20.000
30
0
11
1094.000
21
28.000
31
0
0
TEXT
8
HOLD_ENGRAVE_LABELS
10
1094.000
20
43.000
30
0
40
3.000
1
ENGINE
72
1
73
2
11
1094.000
21
43.000
31
0
0
CIRCLE
8
HOLD_HAZARD_APERTURE
10
1133.000
20
24.000
30
0
40
8.000
0
LINE
8
HOLD_CENTRELINES
10
1129.000
20
24.000
30
0
11
1137.000
21
24.000
31
0
0
LINE
8
HOLD_CENTRELINES
10
1133.000
20
20.000
30
0
11
1133.000
21
28.000
31
0
0
TEXT
8
HOLD_ENGRAVE_LABELS
10
1133.000
20
43.000
30
0
40
3.000
1
HAZARD
72
1
73
2
11
1133.000
21
43.000
31
0
0
ENDSEC
0
EOF
