0
SECTION
2
HEADER
9
$INSUNITS
70
4
0
ENDSEC
0
SECTION
2
ENTITIES
0
LWPOLYLINE
8
HOLD_LCD_SUPPORT_OUTER
90
36
70
1
10
241.000
20
0.000
10
241.975
20
0.096
10
242.913
20
0.381
10
243.778
20
0.843
10
244.536
20
1.464
10
245.157
20
2.222
10
245.619
20
3.087
10
245.904
20
4.025
10
246.000
20
5.000
10
246.000
20
153.000
10
245.904
20
153.975
10
245.619
20
154.913
10
245.157
20
155.778
10
244.536
20
156.536
10
243.778
20
157.157
10
242.913
20
157.619
10
241.975
20
157.904
10
241.000
20
158.000
10
5.000
20
158.000
10
4.025
20
157.904
10
3.087
20
157.619
10
2.222
20
157.157
10
1.464
20
156.536
10
0.843
20
155.778
10
0.381
20
154.913
10
0.096
20
153.975
10
0.000
20
153.000
10
0.000
20
5.000
10
0.096
20
4.025
10
0.381
20
3.087
10
0.843
20
2.222
10
1.464
20
1.464
10
2.222
20
0.843
10
3.087
20
0.381
10
4.025
20
0.096
10
5.000
20
0.000
0
LWPOLYLINE
8
HOLD_LCD_REAR_BODY
90
36
70
1
10
232.000
20
11.000
10
232.585
20
11.058
10
233.148
20
11.228
10
233.667
20
11.506
10
234.121
20
11.879
10
234.494
20
12.333
10
234.772
20
12.852
10
234.942
20
13.415
10
235.000
20
14.000
10
235.000
20
144.000
10
234.942
20
144.585
10
234.772
20
145.148
10
234.494
20
145.667
10
234.121
20
146.121
10
233.667
20
146.494
10
233.148
20
146.772
10
232.585
20
146.942
10
232.000
20
147.000
10
14.000
20
147.000
10
13.415
20
146.942
10
12.852
20
146.772
10
12.333
20
146.494
10
11.879
20
146.121
10
11.506
20
145.667
10
11.228
20
145.148
10
11.058
20
144.585
10
11.000
20
144.000
10
11.000
20
14.000
10
11.058
20
13.415
10
11.228
20
12.852
10
11.506
20
12.333
10
11.879
20
11.879
10
12.333
20
11.506
10
12.852
20
11.228
10
13.415
20
11.058
10
14.000
20
11.000
0
CIRCLE
8
HOLD_SUPPORT_MOUNTS
10
8.000
20
8.000
30
0
40
2.500
0
CIRCLE
8
HOLD_SUPPORT_MOUNTS
10
238.000
20
8.000
30
0
40
2.500
0
CIRCLE
8
HOLD_SUPPORT_MOUNTS
10
8.000
20
150.000
30
0
40
2.500
0
CIRCLE
8
HOLD_SUPPORT_MOUNTS
10
238.000
20
150.000
30
0
40
2.500
0
ENDSEC
0
EOF
