0
SECTION
2
HEADER
9
$INSUNITS
70
4
0
ENDSEC
0
SECTION
2
ENTITIES
0
LWPOLYLINE
8
HOLD_CONTROL_BANK_OUTER
90
36
70
1
10
146.000
20
0.000
10
146.975
20
0.096
10
147.913
20
0.381
10
148.778
20
0.843
10
149.536
20
1.464
10
150.157
20
2.222
10
150.619
20
3.087
10
150.904
20
4.025
10
151.000
20
5.000
10
151.000
20
98.000
10
150.904
20
98.975
10
150.619
20
99.913
10
150.157
20
100.778
10
149.536
20
101.536
10
148.778
20
102.157
10
147.913
20
102.619
10
146.975
20
102.904
10
146.000
20
103.000
10
5.000
20
103.000
10
4.025
20
102.904
10
3.087
20
102.619
10
2.222
20
102.157
10
1.464
20
101.536
10
0.843
20
100.778
10
0.381
20
99.913
10
0.096
20
98.975
10
0.000
20
98.000
10
0.000
20
5.000
10
0.096
20
4.025
10
0.381
20
3.087
10
0.843
20
2.222
10
1.464
20
1.464
10
2.222
20
0.843
10
3.087
20
0.381
10
4.025
20
0.096
10
5.000
20
0.000
0
CIRCLE
8
HOLD_SELECTOR_APERTURES
10
16.000
20
75.000
30
0
40
11.250
0
TEXT
8
HOLD_ENGRAVE_LABELS
10
16.000
20
94.000
30
0
40
3.000
1
WIPERS
72
1
73
2
11
16.000
21
94.000
31
0
0
CIRCLE
8
HOLD_SELECTOR_APERTURES
10
56.000
20
75.000
30
0
40
11.250
0
TEXT
8
HOLD_ENGRAVE_LABELS
10
56.000
20
94.000
30
0
40
3.000
1
LIGHTS
72
1
73
2
11
56.000
21
94.000
31
0
0
CIRCLE
8
HOLD_SELECTOR_APERTURES
10
96.000
20
75.000
30
0
40
11.250
0
TEXT
8
HOLD_ENGRAVE_LABELS
10
96.000
20
94.000
30
0
40
3.000
1
SPOTS
72
1
73
2
11
96.000
21
94.000
31
0
0
CIRCLE
8
HOLD_SELECTOR_APERTURES
10
136.000
20
75.000
30
0
40
11.250
0
TEXT
8
HOLD_ENGRAVE_LABELS
10
136.000
20
94.000
30
0
40
3.000
1
AUX.
72
1
73
2
11
136.000
21
94.000
31
0
0
CIRCLE
8
HOLD_SELECTOR_APERTURES
10
16.000
20
17.000
30
0
40
11.250
0
TEXT
8
HOLD_ENGRAVE_LABELS
10
16.000
20
36.000
30
0
40
3.000
1
BLOWER
72
1
73
2
11
16.000
21
36.000
31
0
0
CIRCLE
8
HOLD_SELECTOR_APERTURES
10
56.000
20
17.000
30
0
40
11.250
0
TEXT
8
HOLD_ENGRAVE_LABELS
10
56.000
20
36.000
30
0
40
3.000
1
A/C
72
1
73
2
11
56.000
21
36.000
31
0
0
CIRCLE
8
HOLD_SELECTOR_APERTURES
10
96.000
20
17.000
30
0
40
11.250
0
TEXT
8
HOLD_ENGRAVE_LABELS
10
96.000
20
36.000
30
0
40
3.000
1
ENGINE
72
1
73
2
11
96.000
21
36.000
31
0
0
CIRCLE
8
HOLD_HAZARD_APERTURE
10
136.000
20
17.000
30
0
40
8.000
0
TEXT
8
HOLD_ENGRAVE_LABELS
10
136.000
20
36.000
30
0
40
3.000
1
HAZARD
72
1
73
2
11
136.000
21
36.000
31
0
0
ENDSEC
0
EOF
