0
SECTION
2
HEADER
9
$INSUNITS
70
4
0
ENDSEC
0
SECTION
2
ENTITIES
0
LWPOLYLINE
8
HOLD_CONTROL_BANK_OUTER
90
36
70
1
10
304.000
20
0.000
10
304.975
20
0.096
10
305.913
20
0.381
10
306.778
20
0.843
10
307.536
20
1.464
10
308.157
20
2.222
10
308.619
20
3.087
10
308.904
20
4.025
10
309.000
20
5.000
10
309.000
20
41.000
10
308.904
20
41.975
10
308.619
20
42.913
10
308.157
20
43.778
10
307.536
20
44.536
10
306.778
20
45.157
10
305.913
20
45.619
10
304.975
20
45.904
10
304.000
20
46.000
10
5.000
20
46.000
10
4.025
20
45.904
10
3.087
20
45.619
10
2.222
20
45.157
10
1.464
20
44.536
10
0.843
20
43.778
10
0.381
20
42.913
10
0.096
20
41.975
10
0.000
20
41.000
10
0.000
20
5.000
10
0.096
20
4.025
10
0.381
20
3.087
10
0.843
20
2.222
10
1.464
20
1.464
10
2.222
20
0.843
10
3.087
20
0.381
10
4.025
20
0.096
10
5.000
20
0.000
0
CIRCLE
8
HOLD_SELECTOR_APERTURES
10
18.000
20
20.000
30
0
40
11.250
0
TEXT
8
HOLD_ENGRAVE_LABELS
10
18.000
20
39.000
30
0
40
3.000
1
WIPERS
72
1
73
2
11
18.000
21
39.000
31
0
0
CIRCLE
8
HOLD_SELECTOR_APERTURES
10
57.000
20
20.000
30
0
40
11.250
0
TEXT
8
HOLD_ENGRAVE_LABELS
10
57.000
20
39.000
30
0
40
3.000
1
LIGHTS
72
1
73
2
11
57.000
21
39.000
31
0
0
CIRCLE
8
HOLD_SELECTOR_APERTURES
10
96.000
20
20.000
30
0
40
11.250
0
TEXT
8
HOLD_ENGRAVE_LABELS
10
96.000
20
39.000
30
0
40
3.000
1
SPOTS
72
1
73
2
11
96.000
21
39.000
31
0
0
CIRCLE
8
HOLD_SELECTOR_APERTURES
10
135.000
20
20.000
30
0
40
11.250
0
TEXT
8
HOLD_ENGRAVE_LABELS
10
135.000
20
39.000
30
0
40
3.000
1
AUX
72
1
73
2
11
135.000
21
39.000
31
0
0
CIRCLE
8
HOLD_SELECTOR_APERTURES
10
174.000
20
20.000
30
0
40
11.250
0
TEXT
8
HOLD_ENGRAVE_LABELS
10
174.000
20
39.000
30
0
40
3.000
1
BLOWER
72
1
73
2
11
174.000
21
39.000
31
0
0
CIRCLE
8
HOLD_SELECTOR_APERTURES
10
213.000
20
20.000
30
0
40
11.250
0
TEXT
8
HOLD_ENGRAVE_LABELS
10
213.000
20
39.000
30
0
40
3.000
1
A/C
72
1
73
2
11
213.000
21
39.000
31
0
0
CIRCLE
8
HOLD_SELECTOR_APERTURES
10
252.000
20
20.000
30
0
40
11.250
0
TEXT
8
HOLD_ENGRAVE_LABELS
10
252.000
20
39.000
30
0
40
3.000
1
ENGINE
72
1
73
2
11
252.000
21
39.000
31
0
0
CIRCLE
8
HOLD_HAZARD_APERTURE
10
291.000
20
20.000
30
0
40
8.000
0
TEXT
8
HOLD_ENGRAVE_LABELS
10
291.000
20
39.000
30
0
40
3.000
1
HAZARD
72
1
73
2
11
291.000
21
39.000
31
0
0
ENDSEC
0
EOF
