0
SECTION
2
HEADER
9
$INSUNITS
70
4
0
ENDSEC
0
SECTION
2
ENTITIES
0
LWPOLYLINE
8
HOLD_CONTROL_BANK_OUTER
90
36
70
1
10
174.000
20
0.000
10
174.975
20
0.096
10
175.913
20
0.381
10
176.778
20
0.843
10
177.536
20
1.464
10
178.157
20
2.222
10
178.619
20
3.087
10
178.904
20
4.025
10
179.000
20
5.000
10
179.000
20
108.000
10
178.904
20
108.975
10
178.619
20
109.913
10
178.157
20
110.778
10
177.536
20
111.536
10
176.778
20
112.157
10
175.913
20
112.619
10
174.975
20
112.904
10
174.000
20
113.000
10
5.000
20
113.000
10
4.025
20
112.904
10
3.087
20
112.619
10
2.222
20
112.157
10
1.464
20
111.536
10
0.843
20
110.778
10
0.381
20
109.913
10
0.096
20
108.975
10
0.000
20
108.000
10
0.000
20
5.000
10
0.096
20
4.025
10
0.381
20
3.087
10
0.843
20
2.222
10
1.464
20
1.464
10
2.222
20
0.843
10
3.087
20
0.381
10
4.025
20
0.096
10
5.000
20
0.000
0
CIRCLE
8
HOLD_SELECTOR_APERTURES
10
20.000
20
85.000
30
0
40
11.250
0
TEXT
8
HOLD_ENGRAVE_LABELS
10
20.000
20
104.000
30
0
40
3.000
1
WIPERS
72
1
73
2
11
20.000
21
104.000
31
0
0
CIRCLE
8
HOLD_SELECTOR_APERTURES
10
68.000
20
85.000
30
0
40
11.250
0
TEXT
8
HOLD_ENGRAVE_LABELS
10
68.000
20
104.000
30
0
40
3.000
1
LIGHTS
72
1
73
2
11
68.000
21
104.000
31
0
0
CIRCLE
8
HOLD_SELECTOR_APERTURES
10
116.000
20
85.000
30
0
40
11.250
0
TEXT
8
HOLD_ENGRAVE_LABELS
10
116.000
20
104.000
30
0
40
3.000
1
SPOTS
72
1
73
2
11
116.000
21
104.000
31
0
0
CIRCLE
8
HOLD_SELECTOR_APERTURES
10
164.000
20
85.000
30
0
40
11.250
0
TEXT
8
HOLD_ENGRAVE_LABELS
10
164.000
20
104.000
30
0
40
3.000
1
AUX
72
1
73
2
11
164.000
21
104.000
31
0
0
CIRCLE
8
HOLD_SELECTOR_APERTURES
10
20.000
20
27.000
30
0
40
11.250
0
TEXT
8
HOLD_ENGRAVE_LABELS
10
20.000
20
46.000
30
0
40
3.000
1
BLOWER
72
1
73
2
11
20.000
21
46.000
31
0
0
CIRCLE
8
HOLD_SELECTOR_APERTURES
10
68.000
20
27.000
30
0
40
11.250
0
TEXT
8
HOLD_ENGRAVE_LABELS
10
68.000
20
46.000
30
0
40
3.000
1
A/C
72
1
73
2
11
68.000
21
46.000
31
0
0
CIRCLE
8
HOLD_SELECTOR_APERTURES
10
116.000
20
27.000
30
0
40
11.250
0
TEXT
8
HOLD_ENGRAVE_LABELS
10
116.000
20
46.000
30
0
40
3.000
1
ENGINE
72
1
73
2
11
116.000
21
46.000
31
0
0
CIRCLE
8
HOLD_HAZARD_APERTURE
10
164.000
20
27.000
30
0
40
8.000
0
TEXT
8
HOLD_ENGRAVE_LABELS
10
164.000
20
46.000
30
0
40
3.000
1
HAZARD
72
1
73
2
11
164.000
21
46.000
31
0
0
ENDSEC
0
EOF
