<svg xmlns="http://www.w3.org/2000/svg" width="920" height="620" viewBox="0 0 920 620" role="img">
  <style>
    .background { fill: #f6f7f8; }
    .shadow { fill: #d8dde2; opacity: 0.7; }
    .title { font: 700 26px Arial, sans-serif; fill: #202a33; }
    .subtitle, .label { font: 16px Arial, sans-serif; fill: #4f5d68; }
    .box-top-0 { fill: #c1cbd3; stroke: #38434c; stroke-width: 1.1; }.box-side-0, .box-front-0 { fill: #8d99a4; stroke: #38434c; stroke-width: 1; }<polygon class="box-side-0" points="538.1,26.7 532.3,29.3 532.3,-212.7 538.1,-215.3" />.box-top-1 { fill: #c1cbd3; stroke: #38434c; stroke-width: 1.1; }.box-side-1, .box-front-1 { fill: #8d99a4; stroke: #38434c; stroke-width: 1; }<polygon class="box-side-1" points="325.0,-83.4 304.8,-74.4 304.8,-316.4 325.0,-325.4" />.box-top-2 { fill: #c1cbd3; stroke: #38434c; stroke-width: 1.1; }.box-side-2, .box-front-2 { fill: #8d99a4; stroke: #38434c; stroke-width: 1; }<polygon class="box-side-2" points="561.1,21.6 541.0,30.6 541.0,-211.4 561.1,-220.4" />.box-top-3 { fill: #c1cbd3; stroke: #38434c; stroke-width: 1.1; }.box-side-3, .box-front-3 { fill: #8d99a4; stroke: #38434c; stroke-width: 1; }<polygon class="box-side-3" points="555.4,142.2 535.2,151.2 535.2,142.4 555.4,133.4" />.box-top-4 { fill: #c1cbd3; stroke: #38434c; stroke-width: 1.1; }.box-side-4, .box-front-4 { fill: #8d99a4; stroke: #38434c; stroke-width: 1; }<polygon class="box-side-4" points="551.8,-102.6 535.2,-95.2 535.2,-104.0 551.8,-111.4" />.box-top-5 { fill: #2f3942; stroke: #38434c; stroke-width: 1.1; }.box-side-5, .box-front-5 { fill: #202830; stroke: #38434c; stroke-width: 1; }<polygon class="box-side-5" points="303.0,-72.3 300.8,-71.4 300.8,-313.4 303.0,-314.3" />.box-top-6 { fill: #2f3942; stroke: #38434c; stroke-width: 1.1; }.box-side-6, .box-front-6 { fill: #202830; stroke: #38434c; stroke-width: 1; }<polygon class="box-side-6" points="533.4,30.1 531.2,31.0 531.2,-211.0 533.4,-211.9" />.box-top-7 { fill: #2f3942; stroke: #38434c; stroke-width: 1.1; }.box-side-7, .box-front-7 { fill: #202830; stroke: #38434c; stroke-width: 1; }<polygon class="box-side-7" points="532.0,148.2 529.8,149.2 529.8,144.8 532.0,143.8" />.box-top-8 { fill: #2f3942; stroke: #38434c; stroke-width: 1.1; }.box-side-8, .box-front-8 { fill: #202830; stroke: #38434c; stroke-width: 1; }<polygon class="box-side-8" points="532.0,-89.4 529.8,-88.4 529.8,-92.8 532.0,-93.8" />.box-top-9 { fill: #202a33; stroke: #38434c; stroke-width: 1.1; }.box-side-9, .box-front-9 { fill: #11181e; stroke: #38434c; stroke-width: 1; }<polygon class="box-side-9" points="581.3,1.1 535.2,21.6 535.2,-195.1 581.3,-215.6" />.box-top-10 { fill: #2d3942; stroke: #38434c; stroke-width: 1.1; }.box-side-10, .box-front-10 { fill: #1c252b; stroke: #38434c; stroke-width: 1; }<polygon class="box-side-10" points="583.4,-4.3 577.7,-1.8 577.7,-203.1 583.4,-205.6" />.box-top-11 { fill: #111820; stroke: #38434c; stroke-width: 1.1; }.box-side-11, .box-front-11 { fill: #080c10; stroke: #38434c; stroke-width: 1; }<polygon class="box-side-11" points="498.5,-46.6 492.7,-44.0 492.7,-237.6 498.5,-240.2" />.box-top-12 { fill: #111820; stroke: #38434c; stroke-width: 1.1; }.box-side-12, .box-front-12 { fill: #080c10; stroke: #38434c; stroke-width: 1; }<polygon class="box-side-12" points="581.3,-9.8 575.5,-7.2 575.5,-200.8 581.3,-203.4" />.box-top-13 { fill: #161a1d; stroke: #38434c; stroke-width: 1.1; }.box-side-13, .box-front-13 { fill: #080a0c; stroke: #38434c; stroke-width: 1; }<polygon class="box-side-13" points="424.3,0.4 399.8,11.3 399.8,-26.1 424.3,-37.0" />.box-top-14 { fill: #c51f1f; stroke: #38434c; stroke-width: 1.1; }.box-side-14, .box-front-14 { fill: #8c1515; stroke: #38434c; stroke-width: 1; }<polygon class="box-side-14" points="551.8,69.4 533.0,77.7 533.0,60.1 551.8,51.8" />.box-top-15 { fill: #2b333a; stroke: #38434c; stroke-width: 1.1; }.box-side-15, .box-front-15 { fill: #151a1f; stroke: #38434c; stroke-width: 1; }<polygon class="box-side-15" points="481.2,-157.1 461.0,-148.2 461.0,-180.1 481.2,-189.0" />.box-top-16 { fill: #f4f6f8; stroke: #38434c; stroke-width: 1.1; }.box-side-16, .box-front-16 { fill: #cbd2d8; stroke: #38434c; stroke-width: 1; }<polygon class="box-side-16" points="475.4,-162.7 474.0,-162.1 474.0,-166.5 475.4,-167.1" />.box-top-17 { fill: #2b333a; stroke: #38434c; stroke-width: 1.1; }.box-side-17, .box-front-17 { fill: #151a1f; stroke: #38434c; stroke-width: 1; }<polygon class="box-side-17" points="524.4,-137.9 504.2,-129.0 504.2,-160.9 524.4,-169.8" />.box-top-18 { fill: #f4f6f8; stroke: #38434c; stroke-width: 1.1; }.box-side-18, .box-front-18 { fill: #cbd2d8; stroke: #38434c; stroke-width: 1; }<polygon class="box-side-18" points="518.6,-143.5 517.2,-142.9 517.2,-147.3 518.6,-147.9" />.box-top-19 { fill: #111820; stroke: #38434c; stroke-width: 1.1; }.box-side-19, .box-front-19 { fill: #080c10; stroke: #38434c; stroke-width: 1; }<polygon class="box-side-19" points="598.6,-101.1 587.0,-96.0 587.0,-126.8 598.6,-131.9" />.box-top-20 { fill: #2387d7; stroke: #38434c; stroke-width: 1.1; }.box-side-20, .box-front-20 { fill: #145888; stroke: #38434c; stroke-width: 1; }<polygon class="box-side-20" points="603.2,-109.7 598.2,-107.5 598.2,-120.7 603.2,-122.9" />.box-top-21 { fill: #d4d8dc; stroke: #38434c; stroke-width: 1.1; }.box-side-21, .box-front-21 { fill: #9aa3aa; stroke: #38434c; stroke-width: 1; }<polygon class="box-side-21" points="601.4,-91.9 598.6,-90.7 598.6,-96.2 601.4,-97.4" />.box-top-22 { fill: #2b333a; stroke: #38434c; stroke-width: 1.1; }.box-side-22, .box-front-22 { fill: #151a1f; stroke: #38434c; stroke-width: 1; }<polygon class="box-side-22" points="481.2,-117.5 461.0,-108.6 461.0,-140.5 481.2,-149.4" />.box-top-23 { fill: #f4f6f8; stroke: #38434c; stroke-width: 1.1; }.box-side-23, .box-front-23 { fill: #cbd2d8; stroke: #38434c; stroke-width: 1; }<polygon class="box-side-23" points="475.4,-123.1 474.0,-122.5 474.0,-126.9 475.4,-127.5" />.box-top-24 { fill: #2b333a; stroke: #38434c; stroke-width: 1.1; }.box-side-24, .box-front-24 { fill: #151a1f; stroke: #38434c; stroke-width: 1; }<polygon class="box-side-24" points="524.4,-98.3 504.2,-89.4 504.2,-121.3 524.4,-130.2" />.box-top-25 { fill: #f4f6f8; stroke: #38434c; stroke-width: 1.1; }.box-side-25, .box-front-25 { fill: #cbd2d8; stroke: #38434c; stroke-width: 1; }<polygon class="box-side-25" points="518.6,-103.9 517.2,-103.3 517.2,-107.7 518.6,-108.3" />.box-top-26 { fill: #111820; stroke: #38434c; stroke-width: 1.1; }.box-side-26, .box-front-26 { fill: #080c10; stroke: #38434c; stroke-width: 1; }<polygon class="box-side-26" points="598.6,-61.5 587.0,-56.4 587.0,-87.2 598.6,-92.3" />.box-top-27 { fill: #d43a38; stroke: #38434c; stroke-width: 1.1; }.box-side-27, .box-front-27 { fill: #8f1c1a; stroke: #38434c; stroke-width: 1; }<polygon class="box-side-27" points="603.2,-70.1 598.2,-67.9 598.2,-81.1 603.2,-83.3" />.box-top-28 { fill: #d4d8dc; stroke: #38434c; stroke-width: 1.1; }.box-side-28, .box-front-28 { fill: #9aa3aa; stroke: #38434c; stroke-width: 1; }<polygon class="box-side-28" points="601.4,-52.3 598.6,-51.1 598.6,-56.6 601.4,-57.8" />.box-top-29 { fill: #2b333a; stroke: #38434c; stroke-width: 1.1; }.box-side-29, .box-front-29 { fill: #151a1f; stroke: #38434c; stroke-width: 1; }<polygon class="box-side-29" points="481.2,-77.9 461.0,-69.0 461.0,-100.9 481.2,-109.8" />.box-top-30 { fill: #f4f6f8; stroke: #38434c; stroke-width: 1.1; }.box-side-30, .box-front-30 { fill: #cbd2d8; stroke: #38434c; stroke-width: 1; }<polygon class="box-side-30" points="475.4,-83.5 474.0,-82.9 474.0,-87.3 475.4,-87.9" />.box-top-31 { fill: #2b333a; stroke: #38434c; stroke-width: 1.1; }.box-side-31, .box-front-31 { fill: #151a1f; stroke: #38434c; stroke-width: 1; }<polygon class="box-side-31" points="524.4,-58.7 504.2,-49.8 504.2,-81.7 524.4,-90.6" />.box-top-32 { fill: #f4f6f8; stroke: #38434c; stroke-width: 1.1; }.box-side-32, .box-front-32 { fill: #cbd2d8; stroke: #38434c; stroke-width: 1; }<polygon class="box-side-32" points="518.6,-64.3 517.2,-63.7 517.2,-68.1 518.6,-68.7" />.box-top-33 { fill: #111820; stroke: #38434c; stroke-width: 1.1; }.box-side-33, .box-front-33 { fill: #080c10; stroke: #38434c; stroke-width: 1; }<polygon class="box-side-33" points="598.6,-21.9 587.0,-16.8 587.0,-47.6 598.6,-52.7" />.box-top-34 { fill: #2387d7; stroke: #38434c; stroke-width: 1.1; }.box-side-34, .box-front-34 { fill: #145888; stroke: #38434c; stroke-width: 1; }<polygon class="box-side-34" points="603.2,-30.5 598.2,-28.3 598.2,-41.5 603.2,-43.7" />.box-top-35 { fill: #d4d8dc; stroke: #38434c; stroke-width: 1.1; }.box-side-35, .box-front-35 { fill: #9aa3aa; stroke: #38434c; stroke-width: 1; }<polygon class="box-side-35" points="601.4,-12.7 598.6,-11.5 598.6,-17.0 601.4,-18.2" />.box-top-36 { fill: #2b333a; stroke: #38434c; stroke-width: 1.1; }.box-side-36, .box-front-36 { fill: #151a1f; stroke: #38434c; stroke-width: 1; }<polygon class="box-side-36" points="481.2,-38.3 461.0,-29.4 461.0,-61.3 481.2,-70.2" />.box-top-37 { fill: #f4f6f8; stroke: #38434c; stroke-width: 1.1; }.box-side-37, .box-front-37 { fill: #cbd2d8; stroke: #38434c; stroke-width: 1; }<polygon class="box-side-37" points="475.4,-43.9 474.0,-43.3 474.0,-47.7 475.4,-48.3" />.box-top-38 { fill: #2b333a; stroke: #38434c; stroke-width: 1.1; }.box-side-38, .box-front-38 { fill: #151a1f; stroke: #38434c; stroke-width: 1; }<polygon class="box-side-38" points="524.4,-19.1 504.2,-10.2 504.2,-42.1 524.4,-51.0" />.box-top-39 { fill: #f4f6f8; stroke: #38434c; stroke-width: 1.1; }.box-side-39, .box-front-39 { fill: #cbd2d8; stroke: #38434c; stroke-width: 1; }<polygon class="box-side-39" points="518.6,-24.7 517.2,-24.1 517.2,-28.5 518.6,-29.1" />.box-top-40 { fill: #111820; stroke: #38434c; stroke-width: 1.1; }.box-side-40, .box-front-40 { fill: #080c10; stroke: #38434c; stroke-width: 1; }<polygon class="box-side-40" points="598.6,17.7 587.0,22.8 587.0,-8.0 598.6,-13.1" />.box-top-41 { fill: #dfba21; stroke: #38434c; stroke-width: 1.1; }.box-side-41, .box-front-41 { fill: #9b7e0e; stroke: #38434c; stroke-width: 1; }<polygon class="box-side-41" points="603.2,9.1 598.2,11.3 598.2,-1.9 603.2,-4.1" />.box-top-42 { fill: #d4d8dc; stroke: #38434c; stroke-width: 1.1; }.box-side-42, .box-front-42 { fill: #9aa3aa; stroke: #38434c; stroke-width: 1; }<polygon class="box-side-42" points="601.4,26.9 598.6,28.1 598.6,22.6 601.4,21.4" />.box-top-43 { fill: #2b333a; stroke: #38434c; stroke-width: 1.1; }.box-side-43, .box-front-43 { fill: #151a1f; stroke: #38434c; stroke-width: 1; }<polygon class="box-side-43" points="481.2,1.3 461.0,10.2 461.0,-21.7 481.2,-30.6" />.box-top-44 { fill: #f4f6f8; stroke: #38434c; stroke-width: 1.1; }.box-side-44, .box-front-44 { fill: #cbd2d8; stroke: #38434c; stroke-width: 1; }<polygon class="box-side-44" points="475.4,-4.3 474.0,-3.7 474.0,-8.1 475.4,-8.7" />.box-top-45 { fill: #2b333a; stroke: #38434c; stroke-width: 1.1; }.box-side-45, .box-front-45 { fill: #151a1f; stroke: #38434c; stroke-width: 1; }<polygon class="box-side-45" points="524.4,20.5 504.2,29.4 504.2,-2.5 524.4,-11.4" />.box-top-46 { fill: #f4f6f8; stroke: #38434c; stroke-width: 1.1; }.box-side-46, .box-front-46 { fill: #cbd2d8; stroke: #38434c; stroke-width: 1; }<polygon class="box-side-46" points="518.6,14.9 517.2,15.5 517.2,11.1 518.6,10.5" />.box-top-47 { fill: #111820; stroke: #38434c; stroke-width: 1.1; }.box-side-47, .box-front-47 { fill: #080c10; stroke: #38434c; stroke-width: 1; }<polygon class="box-side-47" points="598.6,57.3 587.0,62.4 587.0,31.6 598.6,26.5" />.box-top-48 { fill: #dfba21; stroke: #38434c; stroke-width: 1.1; }.box-side-48, .box-front-48 { fill: #9b7e0e; stroke: #38434c; stroke-width: 1; }<polygon class="box-side-48" points="603.2,48.7 598.2,50.9 598.2,37.7 603.2,35.5" />.box-top-49 { fill: #d4d8dc; stroke: #38434c; stroke-width: 1.1; }.box-side-49, .box-front-49 { fill: #9aa3aa; stroke: #38434c; stroke-width: 1; }<polygon class="box-side-49" points="601.4,66.5 598.6,67.7 598.6,62.2 601.4,61.0" />.box-top-50 { fill: #c8a451; stroke: #38434c; stroke-width: 1.1; }.box-side-50, .box-front-50 { fill: #8c6d2a; stroke: #38434c; stroke-width: 1; }<polygon class="box-side-50" points="431.2,-180.3 426.1,-178.1 426.1,-200.1 431.2,-202.3" />.box-top-51 { fill: #c8a451; stroke: #38434c; stroke-width: 1.1; }.box-side-51, .box-front-51 { fill: #8c6d2a; stroke: #38434c; stroke-width: 1; }<polygon class="box-side-51" points="431.2,-21.9 426.1,-19.7 426.1,-41.7 431.2,-43.9" />.box-top-52 { fill: #c8a451; stroke: #38434c; stroke-width: 1.1; }.box-side-52, .box-front-52 { fill: #8c6d2a; stroke: #38434c; stroke-width: 1; }<polygon class="box-side-52" points="513.2,-163.6 508.2,-161.4 508.2,-183.4 513.2,-185.6" />.box-top-53 { fill: #c8a451; stroke: #38434c; stroke-width: 1.1; }.box-side-53, .box-front-53 { fill: #8c6d2a; stroke: #38434c; stroke-width: 1; }<polygon class="box-side-53" points="513.2,34.4 508.2,36.6 508.2,14.6 513.2,12.4" />.box-top-54 { fill: #2d3942; stroke: #38434c; stroke-width: 1.1; }.box-side-54, .box-front-54 { fill: #1c252b; stroke: #38434c; stroke-width: 1; }<polygon class="box-side-54" points="502.4,29.8 498.8,31.4 498.8,-172.1 502.4,-173.7" />
  </style>
  <text class="title" x="34" y="46">Relay Mount Rev C</text><text class="subtitle" x="34" y="74">Fallback standalone folded relay-box carrier with rear guard and serviceable loom exit.</text><text class="label" x="34" y="556">Static assembly visual. Open the HTML file for rotate/zoom interaction.</text>
  <rect class="background" width="920" height="620" /><ellipse class="shadow" cx="455" cy="430" rx="330" ry="74" /><polygon class="box-front-0" points="301.9,-73.1 532.3,29.3 532.3,-212.7 301.9,-315.1" /><polygon class="box-top-0" points="307.7,-317.7 538.1,-215.3 532.3,-212.7 301.9,-315.1" /><polygon class="box-front-1" points="299.0,-77.0 304.8,-74.4 304.8,-316.4 299.0,-319.0" /><polygon class="box-top-1" points="319.2,-327.9 325.0,-325.4 304.8,-316.4 299.0,-319.0" /><polygon class="box-front-2" points="535.2,28.0 541.0,30.6 541.0,-211.4 535.2,-214.0" /><polygon class="box-top-2" points="555.4,-223.0 561.1,-220.4 541.0,-211.4 535.2,-214.0" /><polygon class="box-front-3" points="304.8,48.8 535.2,151.2 535.2,142.4 304.8,40.0" /><polygon class="box-top-3" points="325.0,31.0 555.4,133.4 535.2,142.4 304.8,40.0" /><polygon class="box-front-4" points="304.8,-197.6 535.2,-95.2 535.2,-104.0 304.8,-206.4" /><polygon class="box-top-4" points="321.4,-213.8 551.8,-111.4 535.2,-104.0 304.8,-206.4" /><polygon class="box-front-5" points="298.0,-72.6 300.8,-71.4 300.8,-313.4 298.0,-314.6" /><polygon class="box-top-5" points="300.1,-315.6 303.0,-314.3 300.8,-313.4 298.0,-314.6" /><polygon class="box-front-6" points="528.4,29.8 531.2,31.0 531.2,-211.0 528.4,-212.2" /><polygon class="box-top-6" points="530.5,-213.2 533.4,-211.9 531.2,-211.0 528.4,-212.2" /><polygon class="box-front-7" points="299.4,46.8 529.8,149.2 529.8,144.8 299.4,42.4" /><polygon class="box-top-7" points="301.6,41.4 532.0,143.8 529.8,144.8 299.4,42.4" /><polygon class="box-front-8" points="299.4,-190.8 529.8,-88.4 529.8,-92.8 299.4,-195.2" /><polygon class="box-top-8" points="301.6,-196.2 532.0,-93.8 529.8,-92.8 299.4,-195.2" /><polygon class="box-front-9" points="319.2,-74.4 535.2,21.6 535.2,-195.1 319.2,-291.1" /><polygon class="box-top-9" points="365.3,-311.6 581.3,-215.6 535.2,-195.1 319.2,-291.1" /><polygon class="box-front-10" points="371.8,-93.3 577.7,-1.8 577.7,-203.1 371.8,-294.6" /><polygon class="box-top-10" points="377.5,-297.1 583.4,-205.6 577.7,-203.1 371.8,-294.6" /><polygon class="box-front-11" points="400.6,-85.0 492.7,-44.0 492.7,-237.6 400.6,-278.6" /><polygon class="box-top-11" points="406.3,-281.1 498.5,-240.2 492.7,-237.6 400.6,-278.6" /><polygon class="box-front-12" points="533.8,-25.8 575.5,-7.2 575.5,-200.8 533.8,-219.4" /><polygon class="box-top-12" points="539.5,-221.9 581.3,-203.4 575.5,-200.8 533.8,-219.4" /><polygon class="box-front-13" points="366.7,-3.4 399.8,11.3 399.8,-26.1 366.7,-40.8" /><polygon class="box-top-13" points="391.2,-51.7 424.3,-37.0 399.8,-26.1 366.7,-40.8" /><polygon class="box-front-14" points="466.8,48.2 533.0,77.7 533.0,60.1 466.8,30.6" /><polygon class="box-top-14" points="485.5,22.3 551.8,51.8 533.0,60.1 466.8,30.6" /><polygon class="box-front-15" points="422.2,-165.4 461.0,-148.2 461.0,-180.1 422.2,-197.3" /><polygon class="box-top-15" points="442.3,-206.3 481.2,-189.0 461.0,-180.1 422.2,-197.3" /><polygon class="box-front-16" points="451.0,-172.3 474.0,-162.1 474.0,-166.5 451.0,-176.7" /><polygon class="box-top-16" points="452.4,-177.3 475.4,-167.1 474.0,-166.5 451.0,-176.7" /><polygon class="box-front-17" points="465.4,-146.2 504.2,-129.0 504.2,-160.9 465.4,-178.1" /><polygon class="box-top-17" points="485.5,-187.1 524.4,-169.8 504.2,-160.9 465.4,-178.1" /><polygon class="box-front-18" points="494.2,-153.1 517.2,-142.9 517.2,-147.3 494.2,-157.5" /><polygon class="box-top-18" points="495.6,-158.1 518.6,-147.9 517.2,-147.3 494.2,-157.5" /><polygon class="box-front-19" points="555.4,-110.1 587.0,-96.0 587.0,-126.8 555.4,-140.9" /><polygon class="box-top-19" points="566.9,-146.0 598.6,-131.9 587.0,-126.8 555.4,-140.9" /><polygon class="box-front-20" points="573.7,-118.3 598.2,-107.5 598.2,-120.7 573.7,-131.5" /><polygon class="box-top-20" points="578.8,-133.8 603.2,-122.9 598.2,-120.7 573.7,-131.5" /><polygon class="box-front-21" points="575.5,-100.9 598.6,-90.7 598.6,-96.2 575.5,-106.4" /><polygon class="box-top-21" points="578.4,-107.7 601.4,-97.4 598.6,-96.2 575.5,-106.4" /><polygon class="box-front-22" points="422.2,-125.8 461.0,-108.6 461.0,-140.5 422.2,-157.7" /><polygon class="box-top-22" points="442.3,-166.7 481.2,-149.4 461.0,-140.5 422.2,-157.7" /><polygon class="box-front-23" points="451.0,-132.7 474.0,-122.5 474.0,-126.9 451.0,-137.1" /><polygon class="box-top-23" points="452.4,-137.7 475.4,-127.5 474.0,-126.9 451.0,-137.1" /><polygon class="box-front-24" points="465.4,-106.6 504.2,-89.4 504.2,-121.3 465.4,-138.5" /><polygon class="box-top-24" points="485.5,-147.5 524.4,-130.2 504.2,-121.3 465.4,-138.5" /><polygon class="box-front-25" points="494.2,-113.5 517.2,-103.3 517.2,-107.7 494.2,-117.9" /><polygon class="box-top-25" points="495.6,-118.5 518.6,-108.3 517.2,-107.7 494.2,-117.9" /><polygon class="box-front-26" points="555.4,-70.5 587.0,-56.4 587.0,-87.2 555.4,-101.3" /><polygon class="box-top-26" points="566.9,-106.4 598.6,-92.3 587.0,-87.2 555.4,-101.3" /><polygon class="box-front-27" points="573.7,-78.7 598.2,-67.9 598.2,-81.1 573.7,-91.9" /><polygon class="box-top-27" points="578.8,-94.2 603.2,-83.3 598.2,-81.1 573.7,-91.9" /><polygon class="box-front-28" points="575.5,-61.3 598.6,-51.1 598.6,-56.6 575.5,-66.8" /><polygon class="box-top-28" points="578.4,-68.1 601.4,-57.8 598.6,-56.6 575.5,-66.8" /><polygon class="box-front-29" points="422.2,-86.2 461.0,-69.0 461.0,-100.9 422.2,-118.1" /><polygon class="box-top-29" points="442.3,-127.1 481.2,-109.8 461.0,-100.9 422.2,-118.1" /><polygon class="box-front-30" points="451.0,-93.1 474.0,-82.9 474.0,-87.3 451.0,-97.5" /><polygon class="box-top-30" points="452.4,-98.1 475.4,-87.9 474.0,-87.3 451.0,-97.5" /><polygon class="box-front-31" points="465.4,-67.0 504.2,-49.8 504.2,-81.7 465.4,-98.9" /><polygon class="box-top-31" points="485.5,-107.9 524.4,-90.6 504.2,-81.7 465.4,-98.9" /><polygon class="box-front-32" points="494.2,-73.9 517.2,-63.7 517.2,-68.1 494.2,-78.3" /><polygon class="box-top-32" points="495.6,-78.9 518.6,-68.7 517.2,-68.1 494.2,-78.3" /><polygon class="box-front-33" points="555.4,-30.9 587.0,-16.8 587.0,-47.6 555.4,-61.7" /><polygon class="box-top-33" points="566.9,-66.8 598.6,-52.7 587.0,-47.6 555.4,-61.7" /><polygon class="box-front-34" points="573.7,-39.1 598.2,-28.3 598.2,-41.5 573.7,-52.3" /><polygon class="box-top-34" points="578.8,-54.6 603.2,-43.7 598.2,-41.5 573.7,-52.3" /><polygon class="box-front-35" points="575.5,-21.7 598.6,-11.5 598.6,-17.0 575.5,-27.2" /><polygon class="box-top-35" points="578.4,-28.5 601.4,-18.2 598.6,-17.0 575.5,-27.2" /><polygon class="box-front-36" points="422.2,-46.6 461.0,-29.4 461.0,-61.3 422.2,-78.5" /><polygon class="box-top-36" points="442.3,-87.5 481.2,-70.2 461.0,-61.3 422.2,-78.5" /><polygon class="box-front-37" points="451.0,-53.5 474.0,-43.3 474.0,-47.7 451.0,-57.9" /><polygon class="box-top-37" points="452.4,-58.5 475.4,-48.3 474.0,-47.7 451.0,-57.9" /><polygon class="box-front-38" points="465.4,-27.4 504.2,-10.2 504.2,-42.1 465.4,-59.3" /><polygon class="box-top-38" points="485.5,-68.3 524.4,-51.0 504.2,-42.1 465.4,-59.3" /><polygon class="box-front-39" points="494.2,-34.3 517.2,-24.1 517.2,-28.5 494.2,-38.7" /><polygon class="box-top-39" points="495.6,-39.3 518.6,-29.1 517.2,-28.5 494.2,-38.7" /><polygon class="box-front-40" points="555.4,8.7 587.0,22.8 587.0,-8.0 555.4,-22.1" /><polygon class="box-top-40" points="566.9,-27.2 598.6,-13.1 587.0,-8.0 555.4,-22.1" /><polygon class="box-front-41" points="573.7,0.5 598.2,11.3 598.2,-1.9 573.7,-12.7" /><polygon class="box-top-41" points="578.8,-15.0 603.2,-4.1 598.2,-1.9 573.7,-12.7" /><polygon class="box-front-42" points="575.5,17.9 598.6,28.1 598.6,22.6 575.5,12.4" /><polygon class="box-top-42" points="578.4,11.1 601.4,21.4 598.6,22.6 575.5,12.4" /><polygon class="box-front-43" points="422.2,-7.0 461.0,10.2 461.0,-21.7 422.2,-38.9" /><polygon class="box-top-43" points="442.3,-47.9 481.2,-30.6 461.0,-21.7 422.2,-38.9" /><polygon class="box-front-44" points="451.0,-13.9 474.0,-3.7 474.0,-8.1 451.0,-18.3" /><polygon class="box-top-44" points="452.4,-18.9 475.4,-8.7 474.0,-8.1 451.0,-18.3" /><polygon class="box-front-45" points="465.4,12.2 504.2,29.4 504.2,-2.5 465.4,-19.7" /><polygon class="box-top-45" points="485.5,-28.7 524.4,-11.4 504.2,-2.5 465.4,-19.7" /><polygon class="box-front-46" points="494.2,5.3 517.2,15.5 517.2,11.1 494.2,0.9" /><polygon class="box-top-46" points="495.6,0.3 518.6,10.5 517.2,11.1 494.2,0.9" /><polygon class="box-front-47" points="555.4,48.3 587.0,62.4 587.0,31.6 555.4,17.5" /><polygon class="box-top-47" points="566.9,12.4 598.6,26.5 587.0,31.6 555.4,17.5" /><polygon class="box-front-48" points="573.7,40.1 598.2,50.9 598.2,37.7 573.7,26.9" /><polygon class="box-top-48" points="578.8,24.6 603.2,35.5 598.2,37.7 573.7,26.9" /><polygon class="box-front-49" points="575.5,57.5 598.6,67.7 598.6,62.2 575.5,52.0" /><polygon class="box-top-49" points="578.4,50.7 601.4,61.0 598.6,62.2 575.5,52.0" /><polygon class="box-front-50" points="411.7,-184.5 426.1,-178.1 426.1,-200.1 411.7,-206.5" /><polygon class="box-top-50" points="416.8,-208.7 431.2,-202.3 426.1,-200.1 411.7,-206.5" /><polygon class="box-front-51" points="411.7,-26.1 426.1,-19.7 426.1,-41.7 411.7,-48.1" /><polygon class="box-top-51" points="416.8,-50.3 431.2,-43.9 426.1,-41.7 411.7,-48.1" /><polygon class="box-front-52" points="493.8,-167.8 508.2,-161.4 508.2,-183.4 493.8,-189.8" /><polygon class="box-top-52" points="498.8,-192.0 513.2,-185.6 508.2,-183.4 493.8,-189.8" /><polygon class="box-front-53" points="493.8,30.2 508.2,36.6 508.2,14.6 493.8,8.2" /><polygon class="box-top-53" points="498.8,6.0 513.2,12.4 508.2,14.6 493.8,8.2" /><polygon class="box-front-54" points="297.2,-58.2 498.8,31.4 498.8,-172.1 297.2,-261.7" /><polygon class="box-top-54" points="300.8,-263.3 502.4,-173.7 498.8,-172.1 297.2,-261.7" />
</svg>
