<svg xmlns="http://www.w3.org/2000/svg" width="920" height="620" viewBox="0 0 920 620" role="img">
  <style>
    .background { fill: #f6f7f8; }
    .shadow { fill: #d8dde2; opacity: 0.7; }
    .title { font: 700 26px Arial, sans-serif; fill: #202a33; }
    .subtitle, .label { font: 16px Arial, sans-serif; fill: #4f5d68; }
    .box-top-0 { fill: #c1cbd3; stroke: #38434c; stroke-width: 1.1; }.box-side-0, .box-front-0 { fill: #8d99a4; stroke: #38434c; stroke-width: 1; }<polygon class="box-side-0" points="502.1,-42.1 496.3,-39.5 496.3,-391.5 502.1,-394.1" />.box-top-1 { fill: #c1cbd3; stroke: #38434c; stroke-width: 1.1; }.box-side-1, .box-front-1 { fill: #8d99a4; stroke: #38434c; stroke-width: 1; }<polygon class="box-side-1" points="361.0,-120.2 340.8,-111.2 340.8,-463.2 361.0,-472.2" />.box-top-2 { fill: #c1cbd3; stroke: #38434c; stroke-width: 1.1; }.box-side-2, .box-front-2 { fill: #8d99a4; stroke: #38434c; stroke-width: 1; }<polygon class="box-side-2" points="525.1,-47.2 505.0,-38.2 505.0,-390.2 525.1,-399.2" />.box-top-3 { fill: #c1cbd3; stroke: #38434c; stroke-width: 1.1; }.box-side-3, .box-front-3 { fill: #8d99a4; stroke: #38434c; stroke-width: 1; }<polygon class="box-side-3" points="519.4,126.2 499.2,135.2 499.2,126.4 519.4,117.4" />.box-top-4 { fill: #c1cbd3; stroke: #38434c; stroke-width: 1.1; }.box-side-4, .box-front-4 { fill: #8d99a4; stroke: #38434c; stroke-width: 1; }<polygon class="box-side-4" points="515.8,-228.6 499.2,-221.2 499.2,-230.0 515.8,-237.4" />.box-top-5 { fill: #2f3942; stroke: #38434c; stroke-width: 1.1; }.box-side-5, .box-front-5 { fill: #202830; stroke: #38434c; stroke-width: 1; }<polygon class="box-side-5" points="339.0,-109.1 336.8,-108.2 336.8,-460.2 339.0,-461.1" />.box-top-6 { fill: #2f3942; stroke: #38434c; stroke-width: 1.1; }.box-side-6, .box-front-6 { fill: #202830; stroke: #38434c; stroke-width: 1; }<polygon class="box-side-6" points="497.4,-38.7 495.2,-37.8 495.2,-389.8 497.4,-390.7" />.box-top-7 { fill: #2f3942; stroke: #38434c; stroke-width: 1.1; }.box-side-7, .box-front-7 { fill: #202830; stroke: #38434c; stroke-width: 1; }<polygon class="box-side-7" points="496.0,132.2 493.8,133.2 493.8,128.8 496.0,127.8" />.box-top-8 { fill: #2f3942; stroke: #38434c; stroke-width: 1.1; }.box-side-8, .box-front-8 { fill: #202830; stroke: #38434c; stroke-width: 1; }<polygon class="box-side-8" points="496.0,-215.4 493.8,-214.4 493.8,-218.8 496.0,-219.8" />.box-top-9 { fill: #202a33; stroke: #38434c; stroke-width: 1.1; }.box-side-9, .box-front-9 { fill: #11181e; stroke: #38434c; stroke-width: 1; }<polygon class="box-side-9" points="544.2,-68.2 498.1,-47.7 498.1,-377.7 544.2,-398.2" />.box-top-10 { fill: #2d3942; stroke: #38434c; stroke-width: 1.1; }.box-side-10, .box-front-10 { fill: #1c252b; stroke: #38434c; stroke-width: 1; }<polygon class="box-side-10" points="546.4,-73.6 540.6,-71.0 540.6,-385.6 546.4,-388.2" />.box-top-11 { fill: #202a33; stroke: #38434c; stroke-width: 1.1; }.box-side-11, .box-front-11 { fill: #11181e; stroke: #38434c; stroke-width: 1; }<polygon class="box-side-11" points="536.6,-80.8 533.0,-79.2 533.0,-354.2 536.6,-355.8" />.box-top-12 { fill: #c51f1f; stroke: #38434c; stroke-width: 1.1; }.box-side-12, .box-front-12 { fill: #8c1515; stroke: #38434c; stroke-width: 1; }<polygon class="box-side-12" points="492.0,-298.0 461.8,-284.6 461.8,-335.2 492.0,-348.6" />.box-top-13 { fill: #c51f1f; stroke: #38434c; stroke-width: 1.1; }.box-side-13, .box-front-13 { fill: #8c1515; stroke: #38434c; stroke-width: 1; }<polygon class="box-side-13" points="552.5,-271.1 522.2,-257.7 522.2,-308.3 552.5,-321.7" />.box-top-14 { fill: #161a1d; stroke: #38434c; stroke-width: 1.1; }.box-side-14, .box-front-14 { fill: #080a0c; stroke: #38434c; stroke-width: 1; }<polygon class="box-side-14" points="587.8,24.3 570.5,32.0 570.5,-5.4 587.8,-13.1" />.box-top-15 { fill: #161a1d; stroke: #38434c; stroke-width: 1.1; }.box-side-15, .box-front-15 { fill: #080a0c; stroke: #38434c; stroke-width: 1; }<polygon class="box-side-15" points="548.9,-321.1 518.6,-307.7 518.6,-353.9 548.9,-367.3" />.box-top-16 { fill: #2d3942; stroke: #38434c; stroke-width: 1.1; }.box-side-16, .box-front-16 { fill: #1c252b; stroke: #38434c; stroke-width: 1; }<polygon class="box-side-16" points="468.2,-38.2 464.6,-36.6 464.6,-344.6 468.2,-346.2" />
  </style>
  <text class="title" x="34" y="46">Relay Mount Rev C</text><text class="subtitle" x="34" y="74">Fallback standalone folded relay-box carrier with rear guard and serviceable loom exit.</text><text class="label" x="34" y="556">Static assembly visual. Open the HTML file for rotate/zoom interaction.</text>
  <rect class="background" width="920" height="620" /><ellipse class="shadow" cx="455" cy="430" rx="330" ry="74" /><polygon class="box-front-0" points="337.9,-109.9 496.3,-39.5 496.3,-391.5 337.9,-461.9" /><polygon class="box-top-0" points="343.7,-464.5 502.1,-394.1 496.3,-391.5 337.9,-461.9" /><polygon class="box-front-1" points="335.0,-113.8 340.8,-111.2 340.8,-463.2 335.0,-465.8" /><polygon class="box-top-1" points="355.2,-474.7 361.0,-472.2 340.8,-463.2 335.0,-465.8" /><polygon class="box-front-2" points="499.2,-40.8 505.0,-38.2 505.0,-390.2 499.2,-392.8" /><polygon class="box-top-2" points="519.4,-401.8 525.1,-399.2 505.0,-390.2 499.2,-392.8" /><polygon class="box-front-3" points="340.8,64.8 499.2,135.2 499.2,126.4 340.8,56.0" /><polygon class="box-top-3" points="361.0,47.0 519.4,117.4 499.2,126.4 340.8,56.0" /><polygon class="box-front-4" points="340.8,-291.6 499.2,-221.2 499.2,-230.0 340.8,-300.4" /><polygon class="box-top-4" points="357.4,-307.8 515.8,-237.4 499.2,-230.0 340.8,-300.4" /><polygon class="box-front-5" points="334.0,-109.4 336.8,-108.2 336.8,-460.2 334.0,-461.4" /><polygon class="box-top-5" points="336.1,-462.4 339.0,-461.1 336.8,-460.2 334.0,-461.4" /><polygon class="box-front-6" points="492.4,-39.0 495.2,-37.8 495.2,-389.8 492.4,-391.0" /><polygon class="box-top-6" points="494.5,-392.0 497.4,-390.7 495.2,-389.8 492.4,-391.0" /><polygon class="box-front-7" points="335.4,62.8 493.8,133.2 493.8,128.8 335.4,58.4" /><polygon class="box-top-7" points="337.6,57.4 496.0,127.8 493.8,128.8 335.4,58.4" /><polygon class="box-front-8" points="335.4,-284.8 493.8,-214.4 493.8,-218.8 335.4,-289.2" /><polygon class="box-top-8" points="337.6,-290.2 496.0,-219.8 493.8,-218.8 335.4,-289.2" /><polygon class="box-front-9" points="356.3,-110.7 498.1,-47.7 498.1,-377.7 356.3,-440.7" /><polygon class="box-top-9" points="402.4,-461.2 544.2,-398.2 498.1,-377.7 356.3,-440.7" /><polygon class="box-front-10" points="408.8,-129.6 540.6,-71.0 540.6,-385.6 408.8,-444.2" /><polygon class="box-top-10" points="414.6,-446.8 546.4,-388.2 540.6,-385.6 408.8,-444.2" /><polygon class="box-front-11" points="427.2,-126.2 533.0,-79.2 533.0,-354.2 427.2,-401.2" /><polygon class="box-top-11" points="430.8,-402.8 536.6,-355.8 533.0,-354.2 427.2,-401.2" /><polygon class="box-front-12" points="422.9,-301.8 461.8,-284.6 461.8,-335.2 422.9,-352.4" /><polygon class="box-top-12" points="453.1,-365.9 492.0,-348.6 461.8,-335.2 422.9,-352.4" /><polygon class="box-front-13" points="483.4,-275.0 522.2,-257.7 522.2,-308.3 483.4,-325.6" /><polygon class="box-top-13" points="513.6,-339.0 552.5,-321.7 522.2,-308.3 483.4,-325.6" /><polygon class="box-front-14" points="448.1,-22.4 570.5,32.0 570.5,-5.4 448.1,-59.8" /><polygon class="box-top-14" points="465.4,-67.5 587.8,-13.1 570.5,-5.4 448.1,-59.8" /><polygon class="box-front-15" points="426.5,-348.6 518.6,-307.7 518.6,-353.9 426.5,-394.8" /><polygon class="box-top-15" points="456.7,-408.3 548.9,-367.3 518.6,-353.9 426.5,-394.8" /><polygon class="box-front-16" points="331.4,-95.8 464.6,-36.6 464.6,-344.6 331.4,-403.8" /><polygon class="box-top-16" points="335.0,-405.4 468.2,-346.2 464.6,-344.6 331.4,-403.8" />
</svg>
