<svg xmlns="http://www.w3.org/2000/svg" width="920" height="620" viewBox="0 0 920 620" role="img">
  <style>
    .background { fill: #f6f7f8; }
    .shadow { fill: #d8dde2; opacity: 0.7; }
    .title { font: 700 26px Arial, sans-serif; fill: #202a33; }
    .subtitle, .label { font: 16px Arial, sans-serif; fill: #4f5d68; }
    .box-top-0 { fill: #c1cbd3; stroke: #38434c; stroke-width: 1.1; }.box-side-0, .box-front-0 { fill: #8d99a4; stroke: #38434c; stroke-width: 1; }<polygon class="box-side-0" points="614.4,112.7 456.0,183.1 456.0,174.3 614.4,103.9" />.box-top-1 { fill: #c1cbd3; stroke: #38434c; stroke-width: 1.1; }.box-side-1, .box-front-1 { fill: #8d99a4; stroke: #38434c; stroke-width: 1; }<polygon class="box-side-1" points="384.0,33.4 225.6,103.8 225.6,57.6 384.0,-12.8" />.box-top-2 { fill: #c1cbd3; stroke: #38434c; stroke-width: 1.1; }.box-side-2, .box-front-2 { fill: #8d99a4; stroke: #38434c; stroke-width: 1; }<polygon class="box-side-2" points="628.8,142.2 470.4,212.6 470.4,166.4 628.8,96.0" />.box-top-3 { fill: #c1cbd3; stroke: #38434c; stroke-width: 1.1; }.box-side-3, .box-front-3 { fill: #8d99a4; stroke: #38434c; stroke-width: 1; }<polygon class="box-side-3" points="456.0,206.2 441.6,212.6 441.6,166.4 456.0,160.0" />.box-top-4 { fill: #c1cbd3; stroke: #38434c; stroke-width: 1.1; }.box-side-4, .box-front-4 { fill: #8d99a4; stroke: #38434c; stroke-width: 1; }<polygon class="box-side-4" points="625.2,128.8 614.4,133.6 614.4,91.8 625.2,87.0" />.box-top-5 { fill: #2f3942; stroke: #38434c; stroke-width: 1.1; }.box-side-5, .box-front-5 { fill: #202830; stroke: #38434c; stroke-width: 1; }<polygon class="box-side-5" points="385.4,1.0 227.0,71.4 227.0,67.0 385.4,-3.4" />.box-top-6 { fill: #2f3942; stroke: #38434c; stroke-width: 1.1; }.box-side-6, .box-front-6 { fill: #202830; stroke: #38434c; stroke-width: 1; }<polygon class="box-side-6" points="615.8,103.4 457.4,173.8 457.4,169.4 615.8,99.0" />.box-top-7 { fill: #2f3942; stroke: #38434c; stroke-width: 1.1; }.box-side-7, .box-front-7 { fill: #202830; stroke: #38434c; stroke-width: 1; }<polygon class="box-side-7" points="457.4,172.6 454.6,173.8 454.6,169.4 457.4,168.2" />.box-top-8 { fill: #2f3942; stroke: #38434c; stroke-width: 1.1; }.box-side-8, .box-front-8 { fill: #202830; stroke: #38434c; stroke-width: 1; }<polygon class="box-side-8" points="615.8,102.2 613.0,103.4 613.0,99.0 615.8,97.8" />.box-top-9 { fill: #202a33; stroke: #38434c; stroke-width: 1.1; }.box-side-9, .box-front-9 { fill: #11181e; stroke: #38434c; stroke-width: 1; }<polygon class="box-side-9" points="591.0,65.6 468.6,120.0 468.6,51.8 591.0,-2.6" />.box-top-10 { fill: #2d3942; stroke: #38434c; stroke-width: 1.1; }.box-side-10, .box-front-10 { fill: #1c252b; stroke: #38434c; stroke-width: 1; }<polygon class="box-side-10" points="587.4,137.2 454.2,196.4 454.2,190.9 587.4,131.7" />
  </style>
  <text class="title" x="34" y="46">Relay Mount Rev C</text><text class="subtitle" x="34" y="74">Fallback standalone folded relay-box carrier with rear guard and serviceable loom exit.</text><text class="label" x="34" y="556">Static assembly visual. Open the HTML file for rotate/zoom interaction.</text>
  <rect class="background" width="920" height="620" /><ellipse class="shadow" cx="455" cy="430" rx="330" ry="74" /><polygon class="box-front-0" points="225.6,80.7 456.0,183.1 456.0,174.3 225.6,71.9" /><polygon class="box-top-0" points="384.0,1.5 614.4,103.9 456.0,174.3 225.6,71.9" /><polygon class="box-front-1" points="211.2,97.4 225.6,103.8 225.6,57.6 211.2,51.2" /><polygon class="box-top-1" points="369.6,-19.2 384.0,-12.8 225.6,57.6 211.2,51.2" /><polygon class="box-front-2" points="456.0,206.2 470.4,212.6 470.4,166.4 456.0,160.0" /><polygon class="box-top-2" points="614.4,89.6 628.8,96.0 470.4,166.4 456.0,160.0" /><polygon class="box-front-3" points="211.2,110.2 441.6,212.6 441.6,166.4 211.2,64.0" /><polygon class="box-top-3" points="225.6,57.6 456.0,160.0 441.6,166.4 211.2,64.0" /><polygon class="box-front-4" points="384.0,31.2 614.4,133.6 614.4,91.8 384.0,-10.6" /><polygon class="box-top-4" points="394.8,-15.4 625.2,87.0 614.4,91.8 384.0,-10.6" /><polygon class="box-front-5" points="224.2,70.2 227.0,71.4 227.0,67.0 224.2,65.8" /><polygon class="box-top-5" points="382.6,-4.6 385.4,-3.4 227.0,67.0 224.2,65.8" /><polygon class="box-front-6" points="454.6,172.6 457.4,173.8 457.4,169.4 454.6,168.2" /><polygon class="box-top-6" points="613.0,97.8 615.8,99.0 457.4,169.4 454.6,168.2" /><polygon class="box-front-7" points="224.2,71.4 454.6,173.8 454.6,169.4 224.2,67.0" /><polygon class="box-top-7" points="227.0,65.8 457.4,168.2 454.6,169.4 224.2,67.0" /><polygon class="box-front-8" points="382.6,1.0 613.0,103.4 613.0,99.0 382.6,-3.4" /><polygon class="box-top-8" points="385.4,-4.6 615.8,97.8 613.0,99.0 382.6,-3.4" /><polygon class="box-front-9" points="256.2,25.6 468.6,120.0 468.6,51.8 256.2,-42.6" /><polygon class="box-top-9" points="378.6,-97.0 591.0,-2.6 468.6,51.8 256.2,-42.6" /><polygon class="box-front-10" points="252.6,106.8 454.2,196.4 454.2,190.9 252.6,101.3" /><polygon class="box-top-10" points="385.8,42.1 587.4,131.7 454.2,190.9 252.6,101.3" />
</svg>
