<svg xmlns="http://www.w3.org/2000/svg" width="920" height="620" viewBox="0 0 920 620" role="img">
  <style>
    .background { fill: #f6f7f8; }
    .shadow { fill: #d8dde2; opacity: 0.7; }
    .title { font: 700 26px Arial, sans-serif; fill: #202a33; }
    .subtitle, .label { font: 16px Arial, sans-serif; fill: #4f5d68; }
    .box-top-0 { fill: #c1cbd3; stroke: #38434c; stroke-width: 1.1; }.box-side-0, .box-front-0 { fill: #8d99a4; stroke: #38434c; stroke-width: 1; }<polygon class="box-side-0" points="538.1,26.7 532.3,29.3 532.3,-212.7 538.1,-215.3" />.box-top-1 { fill: #c1cbd3; stroke: #38434c; stroke-width: 1.1; }.box-side-1, .box-front-1 { fill: #8d99a4; stroke: #38434c; stroke-width: 1; }<polygon class="box-side-1" points="325.0,-83.4 304.8,-74.4 304.8,-316.4 325.0,-325.4" />.box-top-2 { fill: #c1cbd3; stroke: #38434c; stroke-width: 1.1; }.box-side-2, .box-front-2 { fill: #8d99a4; stroke: #38434c; stroke-width: 1; }<polygon class="box-side-2" points="561.1,21.6 541.0,30.6 541.0,-211.4 561.1,-220.4" />.box-top-3 { fill: #c1cbd3; stroke: #38434c; stroke-width: 1.1; }.box-side-3, .box-front-3 { fill: #8d99a4; stroke: #38434c; stroke-width: 1; }<polygon class="box-side-3" points="555.4,142.2 535.2,151.2 535.2,142.4 555.4,133.4" />.box-top-4 { fill: #c1cbd3; stroke: #38434c; stroke-width: 1.1; }.box-side-4, .box-front-4 { fill: #8d99a4; stroke: #38434c; stroke-width: 1; }<polygon class="box-side-4" points="551.8,-102.6 535.2,-95.2 535.2,-104.0 551.8,-111.4" />.box-top-5 { fill: #2f3942; stroke: #38434c; stroke-width: 1.1; }.box-side-5, .box-front-5 { fill: #202830; stroke: #38434c; stroke-width: 1; }<polygon class="box-side-5" points="303.0,-72.3 300.8,-71.4 300.8,-313.4 303.0,-314.3" />.box-top-6 { fill: #2f3942; stroke: #38434c; stroke-width: 1.1; }.box-side-6, .box-front-6 { fill: #202830; stroke: #38434c; stroke-width: 1; }<polygon class="box-side-6" points="533.4,30.1 531.2,31.0 531.2,-211.0 533.4,-211.9" />.box-top-7 { fill: #2f3942; stroke: #38434c; stroke-width: 1.1; }.box-side-7, .box-front-7 { fill: #202830; stroke: #38434c; stroke-width: 1; }<polygon class="box-side-7" points="532.0,148.2 529.8,149.2 529.8,144.8 532.0,143.8" />.box-top-8 { fill: #2f3942; stroke: #38434c; stroke-width: 1.1; }.box-side-8, .box-front-8 { fill: #202830; stroke: #38434c; stroke-width: 1; }<polygon class="box-side-8" points="532.0,-89.4 529.8,-88.4 529.8,-92.8 532.0,-93.8" />.box-top-9 { fill: #202a33; stroke: #38434c; stroke-width: 1.1; }.box-side-9, .box-front-9 { fill: #11181e; stroke: #38434c; stroke-width: 1; }<polygon class="box-side-9" points="578.8,0.6 534.1,20.5 534.1,-166.5 578.8,-186.4" />.box-top-10 { fill: #2d3942; stroke: #38434c; stroke-width: 1.1; }.box-side-10, .box-front-10 { fill: #1c252b; stroke: #38434c; stroke-width: 1; }<polygon class="box-side-10" points="502.4,29.8 498.8,31.4 498.8,-172.1 502.4,-173.7" />
  </style>
  <text class="title" x="34" y="46">Relay Mount Rev C</text><text class="subtitle" x="34" y="74">Fallback standalone folded relay-box carrier with rear guard and serviceable loom exit.</text><text class="label" x="34" y="556">Static assembly visual. Open the HTML file for rotate/zoom interaction.</text>
  <rect class="background" width="920" height="620" /><ellipse class="shadow" cx="455" cy="430" rx="330" ry="74" /><polygon class="box-front-0" points="301.9,-73.1 532.3,29.3 532.3,-212.7 301.9,-315.1" /><polygon class="box-top-0" points="307.7,-317.7 538.1,-215.3 532.3,-212.7 301.9,-315.1" /><polygon class="box-front-1" points="299.0,-77.0 304.8,-74.4 304.8,-316.4 299.0,-319.0" /><polygon class="box-top-1" points="319.2,-327.9 325.0,-325.4 304.8,-316.4 299.0,-319.0" /><polygon class="box-front-2" points="535.2,28.0 541.0,30.6 541.0,-211.4 535.2,-214.0" /><polygon class="box-top-2" points="555.4,-223.0 561.1,-220.4 541.0,-211.4 535.2,-214.0" /><polygon class="box-front-3" points="304.8,48.8 535.2,151.2 535.2,142.4 304.8,40.0" /><polygon class="box-top-3" points="325.0,31.0 555.4,133.4 535.2,142.4 304.8,40.0" /><polygon class="box-front-4" points="304.8,-197.6 535.2,-95.2 535.2,-104.0 304.8,-206.4" /><polygon class="box-top-4" points="321.4,-213.8 551.8,-111.4 535.2,-104.0 304.8,-206.4" /><polygon class="box-front-5" points="298.0,-72.6 300.8,-71.4 300.8,-313.4 298.0,-314.6" /><polygon class="box-top-5" points="300.1,-315.6 303.0,-314.3 300.8,-313.4 298.0,-314.6" /><polygon class="box-front-6" points="528.4,29.8 531.2,31.0 531.2,-211.0 528.4,-212.2" /><polygon class="box-top-6" points="530.5,-213.2 533.4,-211.9 531.2,-211.0 528.4,-212.2" /><polygon class="box-front-7" points="299.4,46.8 529.8,149.2 529.8,144.8 299.4,42.4" /><polygon class="box-top-7" points="301.6,41.4 532.0,143.8 529.8,144.8 299.4,42.4" /><polygon class="box-front-8" points="299.4,-190.8 529.8,-88.4 529.8,-92.8 299.4,-195.2" /><polygon class="box-top-8" points="301.6,-196.2 532.0,-93.8 529.8,-92.8 299.4,-195.2" /><polygon class="box-front-9" points="321.7,-73.9 534.1,20.5 534.1,-166.5 321.7,-260.9" /><polygon class="box-top-9" points="366.4,-280.8 578.8,-186.4 534.1,-166.5 321.7,-260.9" /><polygon class="box-front-10" points="297.2,-58.2 498.8,31.4 498.8,-172.1 297.2,-261.7" /><polygon class="box-top-10" points="300.8,-263.3 502.4,-173.7 498.8,-172.1 297.2,-261.7" />
</svg>
