0
SECTION
2
HEADER
9
$INSUNITS
70
4
0
ENDSEC
0
SECTION
2
ENTITIES
0
LINE
8
CUT
10
20
20
0
11
340
21
0
0
LINE
8
CUT
10
340
20
0
11
340
21
15
0
LINE
8
CUT
10
340
20
15
11
360
21
15
0
LINE
8
CUT
10
360
20
15
11
360
21
235
0
LINE
8
CUT
10
360
20
235
11
340
21
235
0
LINE
8
CUT
10
340
20
235
11
340
21
255
0
LINE
8
CUT
10
340
20
255
11
20
21
255
0
LINE
8
CUT
10
20
20
255
11
20
21
235
0
LINE
8
CUT
10
20
20
235
11
0
21
235
0
LINE
8
CUT
10
0
20
235
11
0
21
15
0
LINE
8
CUT
10
0
20
15
11
20
21
15
0
LINE
8
CUT
10
20
20
15
11
20
21
0
0
LINE
8
CUT
10
72
20
7.5
11
72.08
21
6.72
0
LINE
8
CUT
10
72.08
20
6.72
11
72.3
21
5.97
0
LINE
8
CUT
10
72.3
20
5.97
11
72.67
21
5.28
0
LINE
8
CUT
10
72.67
20
5.28
11
73.17
21
4.67
0
LINE
8
CUT
10
73.17
20
4.67
11
73.78
21
4.17
0
LINE
8
CUT
10
73.78
20
4.17
11
74.47
21
3.8
0
LINE
8
CUT
10
74.47
20
3.8
11
75.22
21
3.58
0
LINE
8
CUT
10
75.22
20
3.58
11
76
21
3.5
0
LINE
8
CUT
10
76
20
3.5
11
84
21
3.5
0
LINE
8
CUT
10
84
20
3.5
11
84.78
21
3.58
0
LINE
8
CUT
10
84.78
20
3.58
11
85.53
21
3.8
0
LINE
8
CUT
10
85.53
20
3.8
11
86.22
21
4.17
0
LINE
8
CUT
10
86.22
20
4.17
11
86.83
21
4.67
0
LINE
8
CUT
10
86.83
20
4.67
11
87.33
21
5.28
0
LINE
8
CUT
10
87.33
20
5.28
11
87.7
21
5.97
0
LINE
8
CUT
10
87.7
20
5.97
11
87.92
21
6.72
0
LINE
8
CUT
10
87.92
20
6.72
11
88
21
7.5
0
LINE
8
CUT
10
88
20
7.5
11
88
21
7.5
0
LINE
8
CUT
10
88
20
7.5
11
87.92
21
8.28
0
LINE
8
CUT
10
87.92
20
8.28
11
87.7
21
9.03
0
LINE
8
CUT
10
87.7
20
9.03
11
87.33
21
9.72
0
LINE
8
CUT
10
87.33
20
9.72
11
86.83
21
10.33
0
LINE
8
CUT
10
86.83
20
10.33
11
86.22
21
10.83
0
LINE
8
CUT
10
86.22
20
10.83
11
85.53
21
11.2
0
LINE
8
CUT
10
85.53
20
11.2
11
84.78
21
11.42
0
LINE
8
CUT
10
84.78
20
11.42
11
84
21
11.5
0
LINE
8
CUT
10
84
20
11.5
11
76
21
11.5
0
LINE
8
CUT
10
76
20
11.5
11
75.22
21
11.42
0
LINE
8
CUT
10
75.22
20
11.42
11
74.47
21
11.2
0
LINE
8
CUT
10
74.47
20
11.2
11
73.78
21
10.83
0
LINE
8
CUT
10
73.78
20
10.83
11
73.17
21
10.33
0
LINE
8
CUT
10
73.17
20
10.33
11
72.67
21
9.72
0
LINE
8
CUT
10
72.67
20
9.72
11
72.3
21
9.03
0
LINE
8
CUT
10
72.3
20
9.03
11
72.08
21
8.28
0
LINE
8
CUT
10
72.08
20
8.28
11
72
21
7.5
0
LINE
8
CUT
10
72
20
7.5
11
72
21
7.5
0
LINE
8
CUT
10
272
20
7.5
11
272.08
21
6.72
0
LINE
8
CUT
10
272.08
20
6.72
11
272.3
21
5.97
0
LINE
8
CUT
10
272.3
20
5.97
11
272.67
21
5.28
0
LINE
8
CUT
10
272.67
20
5.28
11
273.17
21
4.67
0
LINE
8
CUT
10
273.17
20
4.67
11
273.78
21
4.17
0
LINE
8
CUT
10
273.78
20
4.17
11
274.47
21
3.8
0
LINE
8
CUT
10
274.47
20
3.8
11
275.22
21
3.58
0
LINE
8
CUT
10
275.22
20
3.58
11
276
21
3.5
0
LINE
8
CUT
10
276
20
3.5
11
284
21
3.5
0
LINE
8
CUT
10
284
20
3.5
11
284.78
21
3.58
0
LINE
8
CUT
10
284.78
20
3.58
11
285.53
21
3.8
0
LINE
8
CUT
10
285.53
20
3.8
11
286.22
21
4.17
0
LINE
8
CUT
10
286.22
20
4.17
11
286.83
21
4.67
0
LINE
8
CUT
10
286.83
20
4.67
11
287.33
21
5.28
0
LINE
8
CUT
10
287.33
20
5.28
11
287.7
21
5.97
0
LINE
8
CUT
10
287.7
20
5.97
11
287.92
21
6.72
0
LINE
8
CUT
10
287.92
20
6.72
11
288
21
7.5
0
LINE
8
CUT
10
288
20
7.5
11
288
21
7.5
0
LINE
8
CUT
10
288
20
7.5
11
287.92
21
8.28
0
LINE
8
CUT
10
287.92
20
8.28
11
287.7
21
9.03
0
LINE
8
CUT
10
287.7
20
9.03
11
287.33
21
9.72
0
LINE
8
CUT
10
287.33
20
9.72
11
286.83
21
10.33
0
LINE
8
CUT
10
286.83
20
10.33
11
286.22
21
10.83
0
LINE
8
CUT
10
286.22
20
10.83
11
285.53
21
11.2
0
LINE
8
CUT
10
285.53
20
11.2
11
284.78
21
11.42
0
LINE
8
CUT
10
284.78
20
11.42
11
284
21
11.5
0
LINE
8
CUT
10
284
20
11.5
11
276
21
11.5
0
LINE
8
CUT
10
276
20
11.5
11
275.22
21
11.42
0
LINE
8
CUT
10
275.22
20
11.42
11
274.47
21
11.2
0
LINE
8
CUT
10
274.47
20
11.2
11
273.78
21
10.83
0
LINE
8
CUT
10
273.78
20
10.83
11
273.17
21
10.33
0
LINE
8
CUT
10
273.17
20
10.33
11
272.67
21
9.72
0
LINE
8
CUT
10
272.67
20
9.72
11
272.3
21
9.03
0
LINE
8
CUT
10
272.3
20
9.03
11
272.08
21
8.28
0
LINE
8
CUT
10
272.08
20
8.28
11
272
21
7.5
0
LINE
8
CUT
10
272
20
7.5
11
272
21
7.5
0
LINE
8
CUT
10
72
20
247.5
11
72.08
21
246.72
0
LINE
8
CUT
10
72.08
20
246.72
11
72.3
21
245.97
0
LINE
8
CUT
10
72.3
20
245.97
11
72.67
21
245.28
0
LINE
8
CUT
10
72.67
20
245.28
11
73.17
21
244.67
0
LINE
8
CUT
10
73.17
20
244.67
11
73.78
21
244.17
0
LINE
8
CUT
10
73.78
20
244.17
11
74.47
21
243.8
0
LINE
8
CUT
10
74.47
20
243.8
11
75.22
21
243.58
0
LINE
8
CUT
10
75.22
20
243.58
11
76
21
243.5
0
LINE
8
CUT
10
76
20
243.5
11
84
21
243.5
0
LINE
8
CUT
10
84
20
243.5
11
84.78
21
243.58
0
LINE
8
CUT
10
84.78
20
243.58
11
85.53
21
243.8
0
LINE
8
CUT
10
85.53
20
243.8
11
86.22
21
244.17
0
LINE
8
CUT
10
86.22
20
244.17
11
86.83
21
244.67
0
LINE
8
CUT
10
86.83
20
244.67
11
87.33
21
245.28
0
LINE
8
CUT
10
87.33
20
245.28
11
87.7
21
245.97
0
LINE
8
CUT
10
87.7
20
245.97
11
87.92
21
246.72
0
LINE
8
CUT
10
87.92
20
246.72
11
88
21
247.5
0
LINE
8
CUT
10
88
20
247.5
11
88
21
247.5
0
LINE
8
CUT
10
88
20
247.5
11
87.92
21
248.28
0
LINE
8
CUT
10
87.92
20
248.28
11
87.7
21
249.03
0
LINE
8
CUT
10
87.7
20
249.03
11
87.33
21
249.72
0
LINE
8
CUT
10
87.33
20
249.72
11
86.83
21
250.33
0
LINE
8
CUT
10
86.83
20
250.33
11
86.22
21
250.83
0
LINE
8
CUT
10
86.22
20
250.83
11
85.53
21
251.2
0
LINE
8
CUT
10
85.53
20
251.2
11
84.78
21
251.42
0
LINE
8
CUT
10
84.78
20
251.42
11
84
21
251.5
0
LINE
8
CUT
10
84
20
251.5
11
76
21
251.5
0
LINE
8
CUT
10
76
20
251.5
11
75.22
21
251.42
0
LINE
8
CUT
10
75.22
20
251.42
11
74.47
21
251.2
0
LINE
8
CUT
10
74.47
20
251.2
11
73.78
21
250.83
0
LINE
8
CUT
10
73.78
20
250.83
11
73.17
21
250.33
0
LINE
8
CUT
10
73.17
20
250.33
11
72.67
21
249.72
0
LINE
8
CUT
10
72.67
20
249.72
11
72.3
21
249.03
0
LINE
8
CUT
10
72.3
20
249.03
11
72.08
21
248.28
0
LINE
8
CUT
10
72.08
20
248.28
11
72
21
247.5
0
LINE
8
CUT
10
72
20
247.5
11
72
21
247.5
0
LINE
8
CUT
10
272
20
247.5
11
272.08
21
246.72
0
LINE
8
CUT
10
272.08
20
246.72
11
272.3
21
245.97
0
LINE
8
CUT
10
272.3
20
245.97
11
272.67
21
245.28
0
LINE
8
CUT
10
272.67
20
245.28
11
273.17
21
244.67
0
LINE
8
CUT
10
273.17
20
244.67
11
273.78
21
244.17
0
LINE
8
CUT
10
273.78
20
244.17
11
274.47
21
243.8
0
LINE
8
CUT
10
274.47
20
243.8
11
275.22
21
243.58
0
LINE
8
CUT
10
275.22
20
243.58
11
276
21
243.5
0
LINE
8
CUT
10
276
20
243.5
11
284
21
243.5
0
LINE
8
CUT
10
284
20
243.5
11
284.78
21
243.58
0
LINE
8
CUT
10
284.78
20
243.58
11
285.53
21
243.8
0
LINE
8
CUT
10
285.53
20
243.8
11
286.22
21
244.17
0
LINE
8
CUT
10
286.22
20
244.17
11
286.83
21
244.67
0
LINE
8
CUT
10
286.83
20
244.67
11
287.33
21
245.28
0
LINE
8
CUT
10
287.33
20
245.28
11
287.7
21
245.97
0
LINE
8
CUT
10
287.7
20
245.97
11
287.92
21
246.72
0
LINE
8
CUT
10
287.92
20
246.72
11
288
21
247.5
0
LINE
8
CUT
10
288
20
247.5
11
288
21
247.5
0
LINE
8
CUT
10
288
20
247.5
11
287.92
21
248.28
0
LINE
8
CUT
10
287.92
20
248.28
11
287.7
21
249.03
0
LINE
8
CUT
10
287.7
20
249.03
11
287.33
21
249.72
0
LINE
8
CUT
10
287.33
20
249.72
11
286.83
21
250.33
0
LINE
8
CUT
10
286.83
20
250.33
11
286.22
21
250.83
0
LINE
8
CUT
10
286.22
20
250.83
11
285.53
21
251.2
0
LINE
8
CUT
10
285.53
20
251.2
11
284.78
21
251.42
0
LINE
8
CUT
10
284.78
20
251.42
11
284
21
251.5
0
LINE
8
CUT
10
284
20
251.5
11
276
21
251.5
0
LINE
8
CUT
10
276
20
251.5
11
275.22
21
251.42
0
LINE
8
CUT
10
275.22
20
251.42
11
274.47
21
251.2
0
LINE
8
CUT
10
274.47
20
251.2
11
273.78
21
250.83
0
LINE
8
CUT
10
273.78
20
250.83
11
273.17
21
250.33
0
LINE
8
CUT
10
273.17
20
250.33
11
272.67
21
249.72
0
LINE
8
CUT
10
272.67
20
249.72
11
272.3
21
249.03
0
LINE
8
CUT
10
272.3
20
249.03
11
272.08
21
248.28
0
LINE
8
CUT
10
272.08
20
248.28
11
272
21
247.5
0
LINE
8
CUT
10
272
20
247.5
11
272
21
247.5
0
LINE
8
CUT
10
6
20
122
11
6.08
21
121.22
0
LINE
8
CUT
10
6.08
20
121.22
11
6.3
21
120.47
0
LINE
8
CUT
10
6.3
20
120.47
11
6.67
21
119.78
0
LINE
8
CUT
10
6.67
20
119.78
11
7.17
21
119.17
0
LINE
8
CUT
10
7.17
20
119.17
11
7.78
21
118.67
0
LINE
8
CUT
10
7.78
20
118.67
11
8.47
21
118.3
0
LINE
8
CUT
10
8.47
20
118.3
11
9.22
21
118.08
0
LINE
8
CUT
10
9.22
20
118.08
11
10
21
118
0
LINE
8
CUT
10
10
20
118
11
10
21
118
0
LINE
8
CUT
10
10
20
118
11
10.78
21
118.08
0
LINE
8
CUT
10
10.78
20
118.08
11
11.53
21
118.3
0
LINE
8
CUT
10
11.53
20
118.3
11
12.22
21
118.67
0
LINE
8
CUT
10
12.22
20
118.67
11
12.83
21
119.17
0
LINE
8
CUT
10
12.83
20
119.17
11
13.33
21
119.78
0
LINE
8
CUT
10
13.33
20
119.78
11
13.7
21
120.47
0
LINE
8
CUT
10
13.7
20
120.47
11
13.92
21
121.22
0
LINE
8
CUT
10
13.92
20
121.22
11
14
21
122
0
LINE
8
CUT
10
14
20
122
11
14
21
130
0
LINE
8
CUT
10
14
20
130
11
13.92
21
130.78
0
LINE
8
CUT
10
13.92
20
130.78
11
13.7
21
131.53
0
LINE
8
CUT
10
13.7
20
131.53
11
13.33
21
132.22
0
LINE
8
CUT
10
13.33
20
132.22
11
12.83
21
132.83
0
LINE
8
CUT
10
12.83
20
132.83
11
12.22
21
133.33
0
LINE
8
CUT
10
12.22
20
133.33
11
11.53
21
133.7
0
LINE
8
CUT
10
11.53
20
133.7
11
10.78
21
133.92
0
LINE
8
CUT
10
10.78
20
133.92
11
10
21
134
0
LINE
8
CUT
10
10
20
134
11
10
21
134
0
LINE
8
CUT
10
10
20
134
11
9.22
21
133.92
0
LINE
8
CUT
10
9.22
20
133.92
11
8.47
21
133.7
0
LINE
8
CUT
10
8.47
20
133.7
11
7.78
21
133.33
0
LINE
8
CUT
10
7.78
20
133.33
11
7.17
21
132.83
0
LINE
8
CUT
10
7.17
20
132.83
11
6.67
21
132.22
0
LINE
8
CUT
10
6.67
20
132.22
11
6.3
21
131.53
0
LINE
8
CUT
10
6.3
20
131.53
11
6.08
21
130.78
0
LINE
8
CUT
10
6.08
20
130.78
11
6
21
130
0
LINE
8
CUT
10
6
20
130
11
6
21
122
0
LINE
8
CUT
10
346
20
122
11
346.08
21
121.22
0
LINE
8
CUT
10
346.08
20
121.22
11
346.3
21
120.47
0
LINE
8
CUT
10
346.3
20
120.47
11
346.67
21
119.78
0
LINE
8
CUT
10
346.67
20
119.78
11
347.17
21
119.17
0
LINE
8
CUT
10
347.17
20
119.17
11
347.78
21
118.67
0
LINE
8
CUT
10
347.78
20
118.67
11
348.47
21
118.3
0
LINE
8
CUT
10
348.47
20
118.3
11
349.22
21
118.08
0
LINE
8
CUT
10
349.22
20
118.08
11
350
21
118
0
LINE
8
CUT
10
350
20
118
11
350
21
118
0
LINE
8
CUT
10
350
20
118
11
350.78
21
118.08
0
LINE
8
CUT
10
350.78
20
118.08
11
351.53
21
118.3
0
LINE
8
CUT
10
351.53
20
118.3
11
352.22
21
118.67
0
LINE
8
CUT
10
352.22
20
118.67
11
352.83
21
119.17
0
LINE
8
CUT
10
352.83
20
119.17
11
353.33
21
119.78
0
LINE
8
CUT
10
353.33
20
119.78
11
353.7
21
120.47
0
LINE
8
CUT
10
353.7
20
120.47
11
353.92
21
121.22
0
LINE
8
CUT
10
353.92
20
121.22
11
354
21
122
0
LINE
8
CUT
10
354
20
122
11
354
21
130
0
LINE
8
CUT
10
354
20
130
11
353.92
21
130.78
0
LINE
8
CUT
10
353.92
20
130.78
11
353.7
21
131.53
0
LINE
8
CUT
10
353.7
20
131.53
11
353.33
21
132.22
0
LINE
8
CUT
10
353.33
20
132.22
11
352.83
21
132.83
0
LINE
8
CUT
10
352.83
20
132.83
11
352.22
21
133.33
0
LINE
8
CUT
10
352.22
20
133.33
11
351.53
21
133.7
0
LINE
8
CUT
10
351.53
20
133.7
11
350.78
21
133.92
0
LINE
8
CUT
10
350.78
20
133.92
11
350
21
134
0
LINE
8
CUT
10
350
20
134
11
350
21
134
0
LINE
8
CUT
10
350
20
134
11
349.22
21
133.92
0
LINE
8
CUT
10
349.22
20
133.92
11
348.47
21
133.7
0
LINE
8
CUT
10
348.47
20
133.7
11
347.78
21
133.33
0
LINE
8
CUT
10
347.78
20
133.33
11
347.17
21
132.83
0
LINE
8
CUT
10
347.17
20
132.83
11
346.67
21
132.22
0
LINE
8
CUT
10
346.67
20
132.22
11
346.3
21
131.53
0
LINE
8
CUT
10
346.3
20
131.53
11
346.08
21
130.78
0
LINE
8
CUT
10
346.08
20
130.78
11
346
21
130
0
LINE
8
CUT
10
346
20
130
11
346
21
122
0
LINE
8
CUT
10
34
20
44
11
34.09
21
43.12
0
LINE
8
CUT
10
34.09
20
43.12
11
34.34
21
42.28
0
LINE
8
CUT
10
34.34
20
42.28
11
34.76
21
41.5
0
LINE
8
CUT
10
34.76
20
41.5
11
35.32
21
40.82
0
LINE
8
CUT
10
35.32
20
40.82
11
36
21
40.26
0
LINE
8
CUT
10
36
20
40.26
11
36.78
21
39.84
0
LINE
8
CUT
10
36.78
20
39.84
11
37.62
21
39.59
0
LINE
8
CUT
10
37.62
20
39.59
11
38.5
21
39.5
0
LINE
8
CUT
10
38.5
20
39.5
11
47.5
21
39.5
0
LINE
8
CUT
10
47.5
20
39.5
11
48.38
21
39.59
0
LINE
8
CUT
10
48.38
20
39.59
11
49.22
21
39.84
0
LINE
8
CUT
10
49.22
20
39.84
11
50
21
40.26
0
LINE
8
CUT
10
50
20
40.26
11
50.68
21
40.82
0
LINE
8
CUT
10
50.68
20
40.82
11
51.24
21
41.5
0
LINE
8
CUT
10
51.24
20
41.5
11
51.66
21
42.28
0
LINE
8
CUT
10
51.66
20
42.28
11
51.91
21
43.12
0
LINE
8
CUT
10
51.91
20
43.12
11
52
21
44
0
LINE
8
CUT
10
52
20
44
11
52
21
44
0
LINE
8
CUT
10
52
20
44
11
51.91
21
44.88
0
LINE
8
CUT
10
51.91
20
44.88
11
51.66
21
45.72
0
LINE
8
CUT
10
51.66
20
45.72
11
51.24
21
46.5
0
LINE
8
CUT
10
51.24
20
46.5
11
50.68
21
47.18
0
LINE
8
CUT
10
50.68
20
47.18
11
50
21
47.74
0
LINE
8
CUT
10
50
20
47.74
11
49.22
21
48.16
0
LINE
8
CUT
10
49.22
20
48.16
11
48.38
21
48.41
0
LINE
8
CUT
10
48.38
20
48.41
11
47.5
21
48.5
0
LINE
8
CUT
10
47.5
20
48.5
11
38.5
21
48.5
0
LINE
8
CUT
10
38.5
20
48.5
11
37.62
21
48.41
0
LINE
8
CUT
10
37.62
20
48.41
11
36.78
21
48.16
0
LINE
8
CUT
10
36.78
20
48.16
11
36
21
47.74
0
LINE
8
CUT
10
36
20
47.74
11
35.32
21
47.18
0
LINE
8
CUT
10
35.32
20
47.18
11
34.76
21
46.5
0
LINE
8
CUT
10
34.76
20
46.5
11
34.34
21
45.72
0
LINE
8
CUT
10
34.34
20
45.72
11
34.09
21
44.88
0
LINE
8
CUT
10
34.09
20
44.88
11
34
21
44
0
LINE
8
CUT
10
34
20
44
11
34
21
44
0
LINE
8
CUT
10
308
20
44
11
308.09
21
43.12
0
LINE
8
CUT
10
308.09
20
43.12
11
308.34
21
42.28
0
LINE
8
CUT
10
308.34
20
42.28
11
308.76
21
41.5
0
LINE
8
CUT
10
308.76
20
41.5
11
309.32
21
40.82
0
LINE
8
CUT
10
309.32
20
40.82
11
310
21
40.26
0
LINE
8
CUT
10
310
20
40.26
11
310.78
21
39.84
0
LINE
8
CUT
10
310.78
20
39.84
11
311.62
21
39.59
0
LINE
8
CUT
10
311.62
20
39.59
11
312.5
21
39.5
0
LINE
8
CUT
10
312.5
20
39.5
11
321.5
21
39.5
0
LINE
8
CUT
10
321.5
20
39.5
11
322.38
21
39.59
0
LINE
8
CUT
10
322.38
20
39.59
11
323.22
21
39.84
0
LINE
8
CUT
10
323.22
20
39.84
11
324
21
40.26
0
LINE
8
CUT
10
324
20
40.26
11
324.68
21
40.82
0
LINE
8
CUT
10
324.68
20
40.82
11
325.24
21
41.5
0
LINE
8
CUT
10
325.24
20
41.5
11
325.66
21
42.28
0
LINE
8
CUT
10
325.66
20
42.28
11
325.91
21
43.12
0
LINE
8
CUT
10
325.91
20
43.12
11
326
21
44
0
LINE
8
CUT
10
326
20
44
11
326
21
44
0
LINE
8
CUT
10
326
20
44
11
325.91
21
44.88
0
LINE
8
CUT
10
325.91
20
44.88
11
325.66
21
45.72
0
LINE
8
CUT
10
325.66
20
45.72
11
325.24
21
46.5
0
LINE
8
CUT
10
325.24
20
46.5
11
324.68
21
47.18
0
LINE
8
CUT
10
324.68
20
47.18
11
324
21
47.74
0
LINE
8
CUT
10
324
20
47.74
11
323.22
21
48.16
0
LINE
8
CUT
10
323.22
20
48.16
11
322.38
21
48.41
0
LINE
8
CUT
10
322.38
20
48.41
11
321.5
21
48.5
0
LINE
8
CUT
10
321.5
20
48.5
11
312.5
21
48.5
0
LINE
8
CUT
10
312.5
20
48.5
11
311.62
21
48.41
0
LINE
8
CUT
10
311.62
20
48.41
11
310.78
21
48.16
0
LINE
8
CUT
10
310.78
20
48.16
11
310
21
47.74
0
LINE
8
CUT
10
310
20
47.74
11
309.32
21
47.18
0
LINE
8
CUT
10
309.32
20
47.18
11
308.76
21
46.5
0
LINE
8
CUT
10
308.76
20
46.5
11
308.34
21
45.72
0
LINE
8
CUT
10
308.34
20
45.72
11
308.09
21
44.88
0
LINE
8
CUT
10
308.09
20
44.88
11
308
21
44
0
LINE
8
CUT
10
308
20
44
11
308
21
44
0
LINE
8
CUT
10
34
20
211
11
34.09
21
210.12
0
LINE
8
CUT
10
34.09
20
210.12
11
34.34
21
209.28
0
LINE
8
CUT
10
34.34
20
209.28
11
34.76
21
208.5
0
LINE
8
CUT
10
34.76
20
208.5
11
35.32
21
207.82
0
LINE
8
CUT
10
35.32
20
207.82
11
36
21
207.26
0
LINE
8
CUT
10
36
20
207.26
11
36.78
21
206.84
0
LINE
8
CUT
10
36.78
20
206.84
11
37.62
21
206.59
0
LINE
8
CUT
10
37.62
20
206.59
11
38.5
21
206.5
0
LINE
8
CUT
10
38.5
20
206.5
11
47.5
21
206.5
0
LINE
8
CUT
10
47.5
20
206.5
11
48.38
21
206.59
0
LINE
8
CUT
10
48.38
20
206.59
11
49.22
21
206.84
0
LINE
8
CUT
10
49.22
20
206.84
11
50
21
207.26
0
LINE
8
CUT
10
50
20
207.26
11
50.68
21
207.82
0
LINE
8
CUT
10
50.68
20
207.82
11
51.24
21
208.5
0
LINE
8
CUT
10
51.24
20
208.5
11
51.66
21
209.28
0
LINE
8
CUT
10
51.66
20
209.28
11
51.91
21
210.12
0
LINE
8
CUT
10
51.91
20
210.12
11
52
21
211
0
LINE
8
CUT
10
52
20
211
11
52
21
211
0
LINE
8
CUT
10
52
20
211
11
51.91
21
211.88
0
LINE
8
CUT
10
51.91
20
211.88
11
51.66
21
212.72
0
LINE
8
CUT
10
51.66
20
212.72
11
51.24
21
213.5
0
LINE
8
CUT
10
51.24
20
213.5
11
50.68
21
214.18
0
LINE
8
CUT
10
50.68
20
214.18
11
50
21
214.74
0
LINE
8
CUT
10
50
20
214.74
11
49.22
21
215.16
0
LINE
8
CUT
10
49.22
20
215.16
11
48.38
21
215.41
0
LINE
8
CUT
10
48.38
20
215.41
11
47.5
21
215.5
0
LINE
8
CUT
10
47.5
20
215.5
11
38.5
21
215.5
0
LINE
8
CUT
10
38.5
20
215.5
11
37.62
21
215.41
0
LINE
8
CUT
10
37.62
20
215.41
11
36.78
21
215.16
0
LINE
8
CUT
10
36.78
20
215.16
11
36
21
214.74
0
LINE
8
CUT
10
36
20
214.74
11
35.32
21
214.18
0
LINE
8
CUT
10
35.32
20
214.18
11
34.76
21
213.5
0
LINE
8
CUT
10
34.76
20
213.5
11
34.34
21
212.72
0
LINE
8
CUT
10
34.34
20
212.72
11
34.09
21
211.88
0
LINE
8
CUT
10
34.09
20
211.88
11
34
21
211
0
LINE
8
CUT
10
34
20
211
11
34
21
211
0
LINE
8
CUT
10
308
20
211
11
308.09
21
210.12
0
LINE
8
CUT
10
308.09
20
210.12
11
308.34
21
209.28
0
LINE
8
CUT
10
308.34
20
209.28
11
308.76
21
208.5
0
LINE
8
CUT
10
308.76
20
208.5
11
309.32
21
207.82
0
LINE
8
CUT
10
309.32
20
207.82
11
310
21
207.26
0
LINE
8
CUT
10
310
20
207.26
11
310.78
21
206.84
0
LINE
8
CUT
10
310.78
20
206.84
11
311.62
21
206.59
0
LINE
8
CUT
10
311.62
20
206.59
11
312.5
21
206.5
0
LINE
8
CUT
10
312.5
20
206.5
11
321.5
21
206.5
0
LINE
8
CUT
10
321.5
20
206.5
11
322.38
21
206.59
0
LINE
8
CUT
10
322.38
20
206.59
11
323.22
21
206.84
0
LINE
8
CUT
10
323.22
20
206.84
11
324
21
207.26
0
LINE
8
CUT
10
324
20
207.26
11
324.68
21
207.82
0
LINE
8
CUT
10
324.68
20
207.82
11
325.24
21
208.5
0
LINE
8
CUT
10
325.24
20
208.5
11
325.66
21
209.28
0
LINE
8
CUT
10
325.66
20
209.28
11
325.91
21
210.12
0
LINE
8
CUT
10
325.91
20
210.12
11
326
21
211
0
LINE
8
CUT
10
326
20
211
11
326
21
211
0
LINE
8
CUT
10
326
20
211
11
325.91
21
211.88
0
LINE
8
CUT
10
325.91
20
211.88
11
325.66
21
212.72
0
LINE
8
CUT
10
325.66
20
212.72
11
325.24
21
213.5
0
LINE
8
CUT
10
325.24
20
213.5
11
324.68
21
214.18
0
LINE
8
CUT
10
324.68
20
214.18
11
324
21
214.74
0
LINE
8
CUT
10
324
20
214.74
11
323.22
21
215.16
0
LINE
8
CUT
10
323.22
20
215.16
11
322.38
21
215.41
0
LINE
8
CUT
10
322.38
20
215.41
11
321.5
21
215.5
0
LINE
8
CUT
10
321.5
20
215.5
11
312.5
21
215.5
0
LINE
8
CUT
10
312.5
20
215.5
11
311.62
21
215.41
0
LINE
8
CUT
10
311.62
20
215.41
11
310.78
21
215.16
0
LINE
8
CUT
10
310.78
20
215.16
11
310
21
214.74
0
LINE
8
CUT
10
310
20
214.74
11
309.32
21
214.18
0
LINE
8
CUT
10
309.32
20
214.18
11
308.76
21
213.5
0
LINE
8
CUT
10
308.76
20
213.5
11
308.34
21
212.72
0
LINE
8
CUT
10
308.34
20
212.72
11
308.09
21
211.88
0
LINE
8
CUT
10
308.09
20
211.88
11
308
21
211
0
LINE
8
CUT
10
308
20
211
11
308
21
211
0
LINE
8
CUT
10
100
20
206
11
100.25
21
203.46
0
LINE
8
CUT
10
100.25
20
203.46
11
100.99
21
201.03
0
LINE
8
CUT
10
100.99
20
201.03
11
102.19
21
198.78
0
LINE
8
CUT
10
102.19
20
198.78
11
103.81
21
196.81
0
LINE
8
CUT
10
103.81
20
196.81
11
105.78
21
195.19
0
LINE
8
CUT
10
105.78
20
195.19
11
108.03
21
193.99
0
LINE
8
CUT
10
108.03
20
193.99
11
110.46
21
193.25
0
LINE
8
CUT
10
110.46
20
193.25
11
113
21
193
0
LINE
8
CUT
10
113
20
193
11
227
21
193
0
LINE
8
CUT
10
227
20
193
11
229.54
21
193.25
0
LINE
8
CUT
10
229.54
20
193.25
11
231.97
21
193.99
0
LINE
8
CUT
10
231.97
20
193.99
11
234.22
21
195.19
0
LINE
8
CUT
10
234.22
20
195.19
11
236.19
21
196.81
0
LINE
8
CUT
10
236.19
20
196.81
11
237.81
21
198.78
0
LINE
8
CUT
10
237.81
20
198.78
11
239.01
21
201.03
0
LINE
8
CUT
10
239.01
20
201.03
11
239.75
21
203.46
0
LINE
8
CUT
10
239.75
20
203.46
11
240
21
206
0
LINE
8
CUT
10
240
20
206
11
240
21
206
0
LINE
8
CUT
10
240
20
206
11
239.75
21
208.54
0
LINE
8
CUT
10
239.75
20
208.54
11
239.01
21
210.97
0
LINE
8
CUT
10
239.01
20
210.97
11
237.81
21
213.22
0
LINE
8
CUT
10
237.81
20
213.22
11
236.19
21
215.19
0
LINE
8
CUT
10
236.19
20
215.19
11
234.22
21
216.81
0
LINE
8
CUT
10
234.22
20
216.81
11
231.97
21
218.01
0
LINE
8
CUT
10
231.97
20
218.01
11
229.54
21
218.75
0
LINE
8
CUT
10
229.54
20
218.75
11
227
21
219
0
LINE
8
CUT
10
227
20
219
11
113
21
219
0
LINE
8
CUT
10
113
20
219
11
110.46
21
218.75
0
LINE
8
CUT
10
110.46
20
218.75
11
108.03
21
218.01
0
LINE
8
CUT
10
108.03
20
218.01
11
105.78
21
216.81
0
LINE
8
CUT
10
105.78
20
216.81
11
103.81
21
215.19
0
LINE
8
CUT
10
103.81
20
215.19
11
102.19
21
213.22
0
LINE
8
CUT
10
102.19
20
213.22
11
100.99
21
210.97
0
LINE
8
CUT
10
100.99
20
210.97
11
100.25
21
208.54
0
LINE
8
CUT
10
100.25
20
208.54
11
100
21
206
0
LINE
8
CUT
10
100
20
206
11
100
21
206
0
CIRCLE
8
CUT
10
55
20
55
40
2.75
0
CIRCLE
8
CUT
10
160
20
55
40
2.75
0
CIRCLE
8
CUT
10
265
20
55
40
2.75
0
CIRCLE
8
CUT
10
55
20
175
40
2.75
0
CIRCLE
8
CUT
10
160
20
175
40
2.75
0
CIRCLE
8
CUT
10
265
20
175
40
2.75
0
LINE
8
BEND
10
20
20
15
11
340
21
15
0
LINE
8
BEND
10
20
20
235
11
340
21
235
0
LINE
8
BEND
10
20
20
15
11
20
21
235
0
LINE
8
BEND
10
340
20
15
11
340
21
235
0
ENDSEC
0
EOF
