<svg xmlns="http://www.w3.org/2000/svg" width="920" height="620" viewBox="0 0 920 620" role="img">
  <style>
    .background { fill: #f6f7f8; }
    .shadow { fill: #d8dde2; opacity: 0.7; }
    .title { font: 700 26px Arial, sans-serif; fill: #202a33; }
    .subtitle, .label { font: 16px Arial, sans-serif; fill: #4f5d68; }
    .box-top-0 { fill: #c1cbd3; stroke: #38434c; stroke-width: 1.1; }.box-side-0, .box-front-0 { fill: #8d99a4; stroke: #38434c; stroke-width: 1; }<polygon class="box-side-0" points="614.4,112.7 456.0,183.1 456.0,174.3 614.4,103.9" />.box-top-1 { fill: #717b84; stroke: #38434c; stroke-width: 1.1; }.box-side-1, .box-front-1 { fill: #535d66; stroke: #38434c; stroke-width: 1; }<polygon class="box-side-1" points="384.0,33.4 225.6,103.8 225.6,57.6 384.0,-12.8" />.box-top-2 { fill: #717b84; stroke: #38434c; stroke-width: 1.1; }.box-side-2, .box-front-2 { fill: #535d66; stroke: #38434c; stroke-width: 1; }<polygon class="box-side-2" points="628.8,142.2 470.4,212.6 470.4,166.4 628.8,96.0" />.box-top-3 { fill: #717b84; stroke: #38434c; stroke-width: 1.1; }.box-side-3, .box-front-3 { fill: #535d66; stroke: #38434c; stroke-width: 1; }<polygon class="box-side-3" points="456.0,206.2 441.6,212.6 441.6,166.4 456.0,160.0" />.box-top-4 { fill: #202a33; stroke: #38434c; stroke-width: 1.1; }.box-side-4, .box-front-4 { fill: #11181e; stroke: #38434c; stroke-width: 1; }<polygon class="box-side-4" points="591.0,65.6 468.6,120.0 468.6,51.8 591.0,-2.6" />.box-top-5 { fill: #2d3942; stroke: #38434c; stroke-width: 1.1; }.box-side-5, .box-front-5 { fill: #1c252b; stroke: #38434c; stroke-width: 1; }<polygon class="box-side-5" points="587.4,137.2 454.2,196.4 454.2,190.9 587.4,131.7" />
  </style>
  <text class="title" x="34" y="46">Relay Mount Rev C</text><text class="subtitle" x="34" y="74">Fallback standalone relay-box carrier with rear guard and serviceable loom exit.</text><text class="label" x="34" y="556">Static assembly visual. Open the HTML file for rotate/zoom interaction.</text>
  <rect class="background" width="920" height="620" /><ellipse class="shadow" cx="455" cy="430" rx="330" ry="74" /><polygon class="box-front-0" points="225.6,80.7 456.0,183.1 456.0,174.3 225.6,71.9" /><polygon class="box-top-0" points="384.0,1.5 614.4,103.9 456.0,174.3 225.6,71.9" /><polygon class="box-front-1" points="211.2,97.4 225.6,103.8 225.6,57.6 211.2,51.2" /><polygon class="box-top-1" points="369.6,-19.2 384.0,-12.8 225.6,57.6 211.2,51.2" /><polygon class="box-front-2" points="456.0,206.2 470.4,212.6 470.4,166.4 456.0,160.0" /><polygon class="box-top-2" points="614.4,89.6 628.8,96.0 470.4,166.4 456.0,160.0" /><polygon class="box-front-3" points="211.2,110.2 441.6,212.6 441.6,166.4 211.2,64.0" /><polygon class="box-top-3" points="225.6,57.6 456.0,160.0 441.6,166.4 211.2,64.0" /><polygon class="box-front-4" points="256.2,25.6 468.6,120.0 468.6,51.8 256.2,-42.6" /><polygon class="box-top-4" points="378.6,-97.0 591.0,-2.6 468.6,51.8 256.2,-42.6" /><polygon class="box-front-5" points="252.6,106.8 454.2,196.4 454.2,190.9 252.6,101.3" /><polygon class="box-top-5" points="385.8,42.1 587.4,131.7 454.2,190.9 252.6,101.3" />
</svg>
