0
SECTION
2
HEADER
9
$INSUNITS
70
4
0
ENDSEC
0
SECTION
2
ENTITIES
0
LWPOLYLINE
8
HOLD_VEHICLE_TEMPLATE
90
36
70
1
10
269.000
20
0.000
10
270.171
20
0.115
10
271.296
20
0.457
10
272.333
20
1.011
10
273.243
20
1.757
10
273.989
20
2.667
10
274.543
20
3.704
10
274.885
20
4.829
10
275.000
20
6.000
10
275.000
20
214.000
10
274.885
20
215.171
10
274.543
20
216.296
10
273.989
20
217.333
10
273.243
20
218.243
10
272.333
20
218.989
10
271.296
20
219.543
10
270.171
20
219.885
10
269.000
20
220.000
10
6.000
20
220.000
10
4.829
20
219.885
10
3.704
20
219.543
10
2.667
20
218.989
10
1.757
20
218.243
10
1.011
20
217.333
10
0.457
20
216.296
10
0.115
20
215.171
10
0.000
20
214.000
10
0.000
20
6.000
10
0.115
20
4.829
10
0.457
20
3.704
10
1.011
20
2.667
10
1.757
20
1.757
10
2.667
20
1.011
10
3.704
20
0.457
10
4.829
20
0.115
10
6.000
20
0.000
0
LWPOLYLINE
8
HOLD_LCD_APERTURE
90
36
70
1
10
249.500
20
72.000
10
250.085
20
72.058
10
250.648
20
72.228
10
251.167
20
72.506
10
251.621
20
72.879
10
251.994
20
73.333
10
252.272
20
73.852
10
252.442
20
74.415
10
252.500
20
75.000
10
252.500
20
201.000
10
252.442
20
201.585
10
252.272
20
202.148
10
251.994
20
202.667
10
251.621
20
203.121
10
251.167
20
203.494
10
250.648
20
203.772
10
250.085
20
203.942
10
249.500
20
204.000
10
25.500
20
204.000
10
24.915
20
203.942
10
24.352
20
203.772
10
23.833
20
203.494
10
23.379
20
203.121
10
23.006
20
202.667
10
22.728
20
202.148
10
22.558
20
201.585
10
22.500
20
201.000
10
22.500
20
75.000
10
22.558
20
74.415
10
22.728
20
73.852
10
23.006
20
73.333
10
23.379
20
72.879
10
23.833
20
72.506
10
24.352
20
72.228
10
24.915
20
72.058
10
25.500
20
72.000
0
LWPOLYLINE
8
CUT_CONTROL_STRIP_APERTURE
90
36
70
1
10
249.500
20
20.000
10
250.085
20
20.058
10
250.648
20
20.228
10
251.167
20
20.506
10
251.621
20
20.879
10
251.994
20
21.333
10
252.272
20
21.852
10
252.442
20
22.415
10
252.500
20
23.000
10
252.500
20
51.000
10
252.442
20
51.585
10
252.272
20
52.148
10
251.994
20
52.667
10
251.621
20
53.121
10
251.167
20
53.494
10
250.648
20
53.772
10
250.085
20
53.942
10
249.500
20
54.000
10
25.500
20
54.000
10
24.915
20
53.942
10
24.352
20
53.772
10
23.833
20
53.494
10
23.379
20
53.121
10
23.006
20
52.667
10
22.728
20
52.148
10
22.558
20
51.585
10
22.500
20
51.000
10
22.500
20
23.000
10
22.558
20
22.415
10
22.728
20
21.852
10
23.006
20
21.333
10
23.379
20
20.879
10
23.833
20
20.506
10
24.352
20
20.228
10
24.915
20
20.058
10
25.500
20
20.000
0
CIRCLE
8
HOLD_VEHICLE_TEMPLATE
10
8.000
20
8.000
30
0
40
2.250
0
CIRCLE
8
HOLD_VEHICLE_TEMPLATE
10
137.500
20
8.000
30
0
40
2.250
0
CIRCLE
8
HOLD_VEHICLE_TEMPLATE
10
267.000
20
8.000
30
0
40
2.250
0
CIRCLE
8
HOLD_VEHICLE_TEMPLATE
10
8.000
20
212.000
30
0
40
2.250
0
CIRCLE
8
HOLD_VEHICLE_TEMPLATE
10
137.500
20
212.000
30
0
40
2.250
0
CIRCLE
8
HOLD_VEHICLE_TEMPLATE
10
267.000
20
212.000
30
0
40
2.250
0
ENDSEC
0
EOF
