0
SECTION
2
HEADER
9
$INSUNITS
70
4
0
ENDSEC
0
SECTION
2
ENTITIES
0
LWPOLYLINE
8
CUT
90
36
70
1
10
227.000
20
0.000
10
227.585
20
0.058
10
228.148
20
0.228
10
228.667
20
0.506
10
229.121
20
0.879
10
229.494
20
1.333
10
229.772
20
1.852
10
229.942
20
2.415
10
230.000
20
3.000
10
230.000
20
31.000
10
229.942
20
31.585
10
229.772
20
32.148
10
229.494
20
32.667
10
229.121
20
33.121
10
228.667
20
33.494
10
228.148
20
33.772
10
227.585
20
33.942
10
227.000
20
34.000
10
3.000
20
34.000
10
2.415
20
33.942
10
1.852
20
33.772
10
1.333
20
33.494
10
0.879
20
33.121
10
0.506
20
32.667
10
0.228
20
32.148
10
0.058
20
31.585
10
0.000
20
31.000
10
0.000
20
3.000
10
0.058
20
2.415
10
0.228
20
1.852
10
0.506
20
1.333
10
0.879
20
0.879
10
1.333
20
0.506
10
1.852
20
0.228
10
2.415
20
0.058
10
3.000
20
0.000
0
CIRCLE
8
HOLD_SWITCH_APERTURES
10
40.000
20
17.000
30
0
40
8.100
0
CIRCLE
8
HOLD_SWITCH_APERTURES
10
90.000
20
17.000
30
0
40
8.100
0
CIRCLE
8
HOLD_SWITCH_APERTURES
10
140.000
20
17.000
30
0
40
8.100
0
CIRCLE
8
HOLD_SWITCH_APERTURES
10
190.000
20
17.000
30
0
40
8.100
0
CIRCLE
8
CUT
10
6.000
20
17.000
30
0
40
2.250
0
CIRCLE
8
CUT
10
224.000
20
17.000
30
0
40
2.250
0
ENDSEC
0
EOF
