0
SECTION
2
HEADER
9
$INSUNITS
70
4
0
ENDSEC
0
SECTION
2
ENTITIES
0
LWPOLYLINE
8
CUT
90
36
70
1
10
77.000
20
0.000
10
77.975
20
0.096
10
78.913
20
0.381
10
79.778
20
0.843
10
80.536
20
1.464
10
81.157
20
2.222
10
81.619
20
3.087
10
81.904
20
4.025
10
82.000
20
5.000
10
82.000
20
77.000
10
81.904
20
77.975
10
81.619
20
78.913
10
81.157
20
79.778
10
80.536
20
80.536
10
79.778
20
81.157
10
78.913
20
81.619
10
77.975
20
81.904
10
77.000
20
82.000
10
5.000
20
82.000
10
4.025
20
81.904
10
3.087
20
81.619
10
2.222
20
81.157
10
1.464
20
80.536
10
0.843
20
79.778
10
0.381
20
78.913
10
0.096
20
77.975
10
0.000
20
77.000
10
0.000
20
5.000
10
0.096
20
4.025
10
0.381
20
3.087
10
0.843
20
2.222
10
1.464
20
1.464
10
2.222
20
0.843
10
3.087
20
0.381
10
4.025
20
0.096
10
5.000
20
0.000
0
CIRCLE
8
HOLD_VENT_APERTURE
10
41.000
20
41.000
30
0
40
31.750
0
CIRCLE
8
CUT
10
8.000
20
8.000
30
0
40
2.250
0
CIRCLE
8
CUT
10
74.000
20
8.000
30
0
40
2.250
0
ENDSEC
0
EOF
