0
SECTION
2
HEADER
9
$INSUNITS
70
4
0
ENDSEC
0
SECTION
2
ENTITIES
0
LINE
8
CUT
10
0
20
0
11
48
21
0
0
LINE
8
CUT
10
48
20
0
11
48
21
618
0
LINE
8
CUT
10
48
20
618
11
0
21
618
0
LINE
8
CUT
10
0
20
618
11
0
21
0
0
LINE
8
CUT
10
17
20
25
11
17.13
21
23.63
0
LINE
8
CUT
10
17.13
20
23.63
11
17.53
21
22.32
0
LINE
8
CUT
10
17.53
20
22.32
11
18.18
21
21.11
0
LINE
8
CUT
10
18.18
20
21.11
11
19.05
21
20.05
0
LINE
8
CUT
10
19.05
20
20.05
11
20.11
21
19.18
0
LINE
8
CUT
10
20.11
20
19.18
11
21.32
21
18.53
0
LINE
8
CUT
10
21.32
20
18.53
11
22.63
21
18.13
0
LINE
8
CUT
10
22.63
20
18.13
11
24
21
18
0
LINE
8
CUT
10
24
20
18
11
24
21
18
0
LINE
8
CUT
10
24
20
18
11
25.37
21
18.13
0
LINE
8
CUT
10
25.37
20
18.13
11
26.68
21
18.53
0
LINE
8
CUT
10
26.68
20
18.53
11
27.89
21
19.18
0
LINE
8
CUT
10
27.89
20
19.18
11
28.95
21
20.05
0
LINE
8
CUT
10
28.95
20
20.05
11
29.82
21
21.11
0
LINE
8
CUT
10
29.82
20
21.11
11
30.47
21
22.32
0
LINE
8
CUT
10
30.47
20
22.32
11
30.87
21
23.63
0
LINE
8
CUT
10
30.87
20
23.63
11
31
21
25
0
LINE
8
CUT
10
31
20
25
11
31
21
43
0
LINE
8
CUT
10
31
20
43
11
30.87
21
44.37
0
LINE
8
CUT
10
30.87
20
44.37
11
30.47
21
45.68
0
LINE
8
CUT
10
30.47
20
45.68
11
29.82
21
46.89
0
LINE
8
CUT
10
29.82
20
46.89
11
28.95
21
47.95
0
LINE
8
CUT
10
28.95
20
47.95
11
27.89
21
48.82
0
LINE
8
CUT
10
27.89
20
48.82
11
26.68
21
49.47
0
LINE
8
CUT
10
26.68
20
49.47
11
25.37
21
49.87
0
LINE
8
CUT
10
25.37
20
49.87
11
24
21
50
0
LINE
8
CUT
10
24
20
50
11
24
21
50
0
LINE
8
CUT
10
24
20
50
11
22.63
21
49.87
0
LINE
8
CUT
10
22.63
20
49.87
11
21.32
21
49.47
0
LINE
8
CUT
10
21.32
20
49.47
11
20.11
21
48.82
0
LINE
8
CUT
10
20.11
20
48.82
11
19.05
21
47.95
0
LINE
8
CUT
10
19.05
20
47.95
11
18.18
21
46.89
0
LINE
8
CUT
10
18.18
20
46.89
11
17.53
21
45.68
0
LINE
8
CUT
10
17.53
20
45.68
11
17.13
21
44.37
0
LINE
8
CUT
10
17.13
20
44.37
11
17
21
43
0
LINE
8
CUT
10
17
20
43
11
17
21
25
0
LINE
8
CUT
10
14
20
428
11
14.19
21
426.05
0
LINE
8
CUT
10
14.19
20
426.05
11
14.76
21
424.17
0
LINE
8
CUT
10
14.76
20
424.17
11
15.69
21
422.44
0
LINE
8
CUT
10
15.69
20
422.44
11
16.93
21
420.93
0
LINE
8
CUT
10
16.93
20
420.93
11
18.44
21
419.69
0
LINE
8
CUT
10
18.44
20
419.69
11
20.17
21
418.76
0
LINE
8
CUT
10
20.17
20
418.76
11
22.05
21
418.19
0
LINE
8
CUT
10
22.05
20
418.19
11
24
21
418
0
LINE
8
CUT
10
24
20
418
11
24
21
418
0
LINE
8
CUT
10
24
20
418
11
25.95
21
418.19
0
LINE
8
CUT
10
25.95
20
418.19
11
27.83
21
418.76
0
LINE
8
CUT
10
27.83
20
418.76
11
29.56
21
419.69
0
LINE
8
CUT
10
29.56
20
419.69
11
31.07
21
420.93
0
LINE
8
CUT
10
31.07
20
420.93
11
32.31
21
422.44
0
LINE
8
CUT
10
32.31
20
422.44
11
33.24
21
424.17
0
LINE
8
CUT
10
33.24
20
424.17
11
33.81
21
426.05
0
LINE
8
CUT
10
33.81
20
426.05
11
34
21
428
0
LINE
8
CUT
10
34
20
428
11
34
21
442
0
LINE
8
CUT
10
34
20
442
11
33.81
21
443.95
0
LINE
8
CUT
10
33.81
20
443.95
11
33.24
21
445.83
0
LINE
8
CUT
10
33.24
20
445.83
11
32.31
21
447.56
0
LINE
8
CUT
10
32.31
20
447.56
11
31.07
21
449.07
0
LINE
8
CUT
10
31.07
20
449.07
11
29.56
21
450.31
0
LINE
8
CUT
10
29.56
20
450.31
11
27.83
21
451.24
0
LINE
8
CUT
10
27.83
20
451.24
11
25.95
21
451.81
0
LINE
8
CUT
10
25.95
20
451.81
11
24
21
452
0
LINE
8
CUT
10
24
20
452
11
24
21
452
0
LINE
8
CUT
10
24
20
452
11
22.05
21
451.81
0
LINE
8
CUT
10
22.05
20
451.81
11
20.17
21
451.24
0
LINE
8
CUT
10
20.17
20
451.24
11
18.44
21
450.31
0
LINE
8
CUT
10
18.44
20
450.31
11
16.93
21
449.07
0
LINE
8
CUT
10
16.93
20
449.07
11
15.69
21
447.56
0
LINE
8
CUT
10
15.69
20
447.56
11
14.76
21
445.83
0
LINE
8
CUT
10
14.76
20
445.83
11
14.19
21
443.95
0
LINE
8
CUT
10
14.19
20
443.95
11
14
21
442
0
LINE
8
CUT
10
14
20
442
11
14
21
428
0
LINE
8
CUT
10
14
20
573
11
14.19
21
571.05
0
LINE
8
CUT
10
14.19
20
571.05
11
14.76
21
569.17
0
LINE
8
CUT
10
14.76
20
569.17
11
15.69
21
567.44
0
LINE
8
CUT
10
15.69
20
567.44
11
16.93
21
565.93
0
LINE
8
CUT
10
16.93
20
565.93
11
18.44
21
564.69
0
LINE
8
CUT
10
18.44
20
564.69
11
20.17
21
563.76
0
LINE
8
CUT
10
20.17
20
563.76
11
22.05
21
563.19
0
LINE
8
CUT
10
22.05
20
563.19
11
24
21
563
0
LINE
8
CUT
10
24
20
563
11
24
21
563
0
LINE
8
CUT
10
24
20
563
11
25.95
21
563.19
0
LINE
8
CUT
10
25.95
20
563.19
11
27.83
21
563.76
0
LINE
8
CUT
10
27.83
20
563.76
11
29.56
21
564.69
0
LINE
8
CUT
10
29.56
20
564.69
11
31.07
21
565.93
0
LINE
8
CUT
10
31.07
20
565.93
11
32.31
21
567.44
0
LINE
8
CUT
10
32.31
20
567.44
11
33.24
21
569.17
0
LINE
8
CUT
10
33.24
20
569.17
11
33.81
21
571.05
0
LINE
8
CUT
10
33.81
20
571.05
11
34
21
573
0
LINE
8
CUT
10
34
20
573
11
34
21
587
0
LINE
8
CUT
10
34
20
587
11
33.81
21
588.95
0
LINE
8
CUT
10
33.81
20
588.95
11
33.24
21
590.83
0
LINE
8
CUT
10
33.24
20
590.83
11
32.31
21
592.56
0
LINE
8
CUT
10
32.31
20
592.56
11
31.07
21
594.07
0
LINE
8
CUT
10
31.07
20
594.07
11
29.56
21
595.31
0
LINE
8
CUT
10
29.56
20
595.31
11
27.83
21
596.24
0
LINE
8
CUT
10
27.83
20
596.24
11
25.95
21
596.81
0
LINE
8
CUT
10
25.95
20
596.81
11
24
21
597
0
LINE
8
CUT
10
24
20
597
11
24
21
597
0
LINE
8
CUT
10
24
20
597
11
22.05
21
596.81
0
LINE
8
CUT
10
22.05
20
596.81
11
20.17
21
596.24
0
LINE
8
CUT
10
20.17
20
596.24
11
18.44
21
595.31
0
LINE
8
CUT
10
18.44
20
595.31
11
16.93
21
594.07
0
LINE
8
CUT
10
16.93
20
594.07
11
15.69
21
592.56
0
LINE
8
CUT
10
15.69
20
592.56
11
14.76
21
590.83
0
LINE
8
CUT
10
14.76
20
590.83
11
14.19
21
588.95
0
LINE
8
CUT
10
14.19
20
588.95
11
14
21
587
0
LINE
8
CUT
10
14
20
587
11
14
21
573
0
LINE
8
BEND
10
0
20
58
11
48
21
58
0
LINE
8
BEND
10
0
20
468
11
48
21
468
0
LINE
8
BEND
10
0
20
538
11
48
21
538
0
ENDSEC
0
EOF
