<svg xmlns="http://www.w3.org/2000/svg" width="920" height="620" viewBox="0 0 920 620" role="img">
  <style>
    .background { fill: #f6f7f8; }
    .shadow { fill: #d8dde2; opacity: 0.7; }
    .title { font: 700 26px Arial, sans-serif; fill: #202a33; }
    .subtitle, .label { font: 16px Arial, sans-serif; fill: #4f5d68; }
    .box-top-0 { fill: #c1cbd3; stroke: #38434c; stroke-width: 1.1; }.box-side-0, .box-front-0 { fill: #8d99a4; stroke: #38434c; stroke-width: 1; }<polygon class="box-side-0" points="506.4,64.7 348.0,135.1 348.0,126.3 506.4,55.9" />.box-top-1 { fill: #c1cbd3; stroke: #38434c; stroke-width: 1.1; }.box-side-1, .box-front-1 { fill: #8d99a4; stroke: #38434c; stroke-width: 1; }<polygon class="box-side-1" points="276.0,-14.6 117.6,55.8 117.6,9.6 276.0,-60.8" />.box-top-2 { fill: #c1cbd3; stroke: #38434c; stroke-width: 1.1; }.box-side-2, .box-front-2 { fill: #8d99a4; stroke: #38434c; stroke-width: 1; }<polygon class="box-side-2" points="520.8,94.2 362.4,164.6 362.4,118.4 520.8,48.0" />.box-top-3 { fill: #c1cbd3; stroke: #38434c; stroke-width: 1.1; }.box-side-3, .box-front-3 { fill: #8d99a4; stroke: #38434c; stroke-width: 1; }<polygon class="box-side-3" points="348.0,158.2 333.6,164.6 333.6,118.4 348.0,112.0" />.box-top-4 { fill: #c1cbd3; stroke: #38434c; stroke-width: 1.1; }.box-side-4, .box-front-4 { fill: #8d99a4; stroke: #38434c; stroke-width: 1; }<polygon class="box-side-4" points="520.8,81.4 506.4,87.8 506.4,41.6 520.8,35.2" />.box-top-5 { fill: #2f3942; stroke: #38434c; stroke-width: 1.1; }.box-side-5, .box-front-5 { fill: #202830; stroke: #38434c; stroke-width: 1; }<polygon class="box-side-5" points="277.4,-47.0 119.0,23.4 119.0,19.0 277.4,-51.4" />.box-top-6 { fill: #2f3942; stroke: #38434c; stroke-width: 1.1; }.box-side-6, .box-front-6 { fill: #202830; stroke: #38434c; stroke-width: 1; }<polygon class="box-side-6" points="507.8,55.4 349.4,125.8 349.4,121.4 507.8,51.0" />.box-top-7 { fill: #2f3942; stroke: #38434c; stroke-width: 1.1; }.box-side-7, .box-front-7 { fill: #202830; stroke: #38434c; stroke-width: 1; }<polygon class="box-side-7" points="349.4,124.6 346.6,125.8 346.6,121.4 349.4,120.2" />.box-top-8 { fill: #2f3942; stroke: #38434c; stroke-width: 1.1; }.box-side-8, .box-front-8 { fill: #202830; stroke: #38434c; stroke-width: 1; }<polygon class="box-side-8" points="507.8,54.2 505.0,55.4 505.0,51.0 507.8,49.8" />.box-top-9 { fill: #202a33; stroke: #38434c; stroke-width: 1.1; }.box-side-9, .box-front-9 { fill: #11181e; stroke: #38434c; stroke-width: 1; }<polygon class="box-side-9" points="456.0,13.0 348.0,61.0 348.0,-9.4 456.0,-57.4" />.box-top-10 { fill: #c1cbd3; stroke: #38434c; stroke-width: 1.1; }.box-side-10, .box-front-10 { fill: #8d99a4; stroke: #38434c; stroke-width: 1; }<polygon class="box-side-10" points="664.8,160.7 564.0,205.5 564.0,196.7 664.8,151.9" />.box-top-11 { fill: #c1cbd3; stroke: #38434c; stroke-width: 1.1; }.box-side-11, .box-front-11 { fill: #8d99a4; stroke: #38434c; stroke-width: 1; }<polygon class="box-side-11" points="506.4,113.4 405.6,158.2 405.6,112.0 506.4,67.2" />.box-top-12 { fill: #c1cbd3; stroke: #38434c; stroke-width: 1.1; }.box-side-12, .box-front-12 { fill: #8d99a4; stroke: #38434c; stroke-width: 1; }<polygon class="box-side-12" points="679.2,190.2 578.4,235.0 578.4,188.8 679.2,144.0" />.box-top-13 { fill: #c1cbd3; stroke: #38434c; stroke-width: 1.1; }.box-side-13, .box-front-13 { fill: #8d99a4; stroke: #38434c; stroke-width: 1; }<polygon class="box-side-13" points="564.0,228.6 549.6,235.0 549.6,188.8 564.0,182.4" />.box-top-14 { fill: #c1cbd3; stroke: #38434c; stroke-width: 1.1; }.box-side-14, .box-front-14 { fill: #8d99a4; stroke: #38434c; stroke-width: 1; }<polygon class="box-side-14" points="679.2,177.4 664.8,183.8 664.8,137.6 679.2,131.2" />.box-top-15 { fill: #2f3942; stroke: #38434c; stroke-width: 1.1; }.box-side-15, .box-front-15 { fill: #202830; stroke: #38434c; stroke-width: 1; }<polygon class="box-side-15" points="507.8,81.0 407.0,125.8 407.0,121.4 507.8,76.6" />.box-top-16 { fill: #2f3942; stroke: #38434c; stroke-width: 1.1; }.box-side-16, .box-front-16 { fill: #202830; stroke: #38434c; stroke-width: 1; }<polygon class="box-side-16" points="666.2,151.4 565.4,196.2 565.4,191.8 666.2,147.0" />.box-top-17 { fill: #2f3942; stroke: #38434c; stroke-width: 1.1; }.box-side-17, .box-front-17 { fill: #202830; stroke: #38434c; stroke-width: 1; }<polygon class="box-side-17" points="565.4,195.0 562.6,196.2 562.6,191.8 565.4,190.6" />.box-top-18 { fill: #2f3942; stroke: #38434c; stroke-width: 1.1; }.box-side-18, .box-front-18 { fill: #202830; stroke: #38434c; stroke-width: 1; }<polygon class="box-side-18" points="666.2,150.2 663.4,151.4 663.4,147.0 666.2,145.8" />.box-top-19 { fill: #b7302a; stroke: #38434c; stroke-width: 1.1; }.box-side-19, .box-front-19 { fill: #7e1e1a; stroke: #38434c; stroke-width: 1; }<polygon class="box-side-19" points="632.4,116.2 560.4,148.2 560.4,87.7 632.4,55.7" />.box-top-20 { fill: #2d3942; stroke: #38434c; stroke-width: 1.1; }.box-side-20, .box-front-20 { fill: #1c252b; stroke: #38434c; stroke-width: 1; }<polygon class="box-side-20" points="657.6,183.8 564.0,225.4 564.0,219.9 657.6,178.3" />
  </style>
  <text class="title" x="34" y="46">Electrical Modules Rev A</text><text class="subtitle" x="34" y="74">Earlier reference route with folded relay tray, folded power module box, and rear insulator.</text><text class="label" x="34" y="556">Static assembly visual. Open the HTML file for rotate/zoom interaction.</text>
  <rect class="background" width="920" height="620" /><ellipse class="shadow" cx="455" cy="430" rx="330" ry="74" /><polygon class="box-front-0" points="117.6,32.7 348.0,135.1 348.0,126.3 117.6,23.9" /><polygon class="box-top-0" points="276.0,-46.5 506.4,55.9 348.0,126.3 117.6,23.9" /><polygon class="box-front-1" points="103.2,49.4 117.6,55.8 117.6,9.6 103.2,3.2" /><polygon class="box-top-1" points="261.6,-67.2 276.0,-60.8 117.6,9.6 103.2,3.2" /><polygon class="box-front-2" points="348.0,158.2 362.4,164.6 362.4,118.4 348.0,112.0" /><polygon class="box-top-2" points="506.4,41.6 520.8,48.0 362.4,118.4 348.0,112.0" /><polygon class="box-front-3" points="103.2,62.2 333.6,164.6 333.6,118.4 103.2,16.0" /><polygon class="box-top-3" points="117.6,9.6 348.0,112.0 333.6,118.4 103.2,16.0" /><polygon class="box-front-4" points="276.0,-14.6 506.4,87.8 506.4,41.6 276.0,-60.8" /><polygon class="box-top-4" points="290.4,-67.2 520.8,35.2 506.4,41.6 276.0,-60.8" /><polygon class="box-front-5" points="116.2,22.2 119.0,23.4 119.0,19.0 116.2,17.8" /><polygon class="box-top-5" points="274.6,-52.6 277.4,-51.4 119.0,19.0 116.2,17.8" /><polygon class="box-front-6" points="346.6,124.6 349.4,125.8 349.4,121.4 346.6,120.2" /><polygon class="box-top-6" points="505.0,49.8 507.8,51.0 349.4,121.4 346.6,120.2" /><polygon class="box-front-7" points="116.2,23.4 346.6,125.8 346.6,121.4 116.2,19.0" /><polygon class="box-top-7" points="119.0,17.8 349.4,120.2 346.6,121.4 116.2,19.0" /><polygon class="box-front-8" points="274.6,-47.0 505.0,55.4 505.0,51.0 274.6,-51.4" /><polygon class="box-top-8" points="277.4,-52.6 507.8,49.8 505.0,51.0 274.6,-51.4" /><polygon class="box-front-9" points="168.0,-19.0 348.0,61.0 348.0,-9.4 168.0,-89.4" /><polygon class="box-top-9" points="276.0,-137.4 456.0,-57.4 348.0,-9.4 168.0,-89.4" /><polygon class="box-front-10" points="405.6,135.1 564.0,205.5 564.0,196.7 405.6,126.3" /><polygon class="box-top-10" points="506.4,81.5 664.8,151.9 564.0,196.7 405.6,126.3" /><polygon class="box-front-11" points="391.2,151.8 405.6,158.2 405.6,112.0 391.2,105.6" /><polygon class="box-top-11" points="492.0,60.8 506.4,67.2 405.6,112.0 391.2,105.6" /><polygon class="box-front-12" points="564.0,228.6 578.4,235.0 578.4,188.8 564.0,182.4" /><polygon class="box-top-12" points="664.8,137.6 679.2,144.0 578.4,188.8 564.0,182.4" /><polygon class="box-front-13" points="391.2,164.6 549.6,235.0 549.6,188.8 391.2,118.4" /><polygon class="box-top-13" points="405.6,112.0 564.0,182.4 549.6,188.8 391.2,118.4" /><polygon class="box-front-14" points="506.4,113.4 664.8,183.8 664.8,137.6 506.4,67.2" /><polygon class="box-top-14" points="520.8,60.8 679.2,131.2 664.8,137.6 506.4,67.2" /><polygon class="box-front-15" points="404.2,124.6 407.0,125.8 407.0,121.4 404.2,120.2" /><polygon class="box-top-15" points="505.0,75.4 507.8,76.6 407.0,121.4 404.2,120.2" /><polygon class="box-front-16" points="562.6,195.0 565.4,196.2 565.4,191.8 562.6,190.6" /><polygon class="box-top-16" points="663.4,145.8 666.2,147.0 565.4,191.8 562.6,190.6" /><polygon class="box-front-17" points="404.2,125.8 562.6,196.2 562.6,191.8 404.2,121.4" /><polygon class="box-top-17" points="407.0,120.2 565.4,190.6 562.6,191.8 404.2,121.4" /><polygon class="box-front-18" points="505.0,81.0 663.4,151.4 663.4,147.0 505.0,76.6" /><polygon class="box-top-18" points="507.8,75.4 666.2,145.8 663.4,147.0 505.0,76.6" /><polygon class="box-front-19" points="438.0,93.8 560.4,148.2 560.4,87.7 438.0,33.3" /><polygon class="box-top-19" points="510.0,1.3 632.4,55.7 560.4,87.7 438.0,33.3" /><polygon class="box-front-20" points="412.8,158.2 564.0,225.4 564.0,219.9 412.8,152.7" /><polygon class="box-top-20" points="506.4,111.1 657.6,178.3 564.0,219.9 412.8,152.7" />
</svg>
