<svg xmlns="http://www.w3.org/2000/svg" width="920" height="620" viewBox="0 0 920 620" role="img">
  <style>
    .background { fill: #f6f7f8; }
    .shadow { fill: #d8dde2; opacity: 0.7; }
    .title { font: 700 26px Arial, sans-serif; fill: #202a33; }
    .subtitle, .label { font: 16px Arial, sans-serif; fill: #4f5d68; }
    .box-top-0 { fill: #c1cbd3; stroke: #38434c; stroke-width: 1.1; }.box-side-0, .box-front-0 { fill: #8d99a4; stroke: #38434c; stroke-width: 1; }<polygon class="box-side-0" points="506.4,64.7 348.0,135.1 348.0,126.3 506.4,55.9" />.box-top-1 { fill: #c1cbd3; stroke: #38434c; stroke-width: 1.1; }.box-side-1, .box-front-1 { fill: #8d99a4; stroke: #38434c; stroke-width: 1; }<polygon class="box-side-1" points="276.0,-14.6 117.6,55.8 117.6,9.6 276.0,-60.8" />.box-top-2 { fill: #c1cbd3; stroke: #38434c; stroke-width: 1.1; }.box-side-2, .box-front-2 { fill: #8d99a4; stroke: #38434c; stroke-width: 1; }<polygon class="box-side-2" points="520.8,94.2 362.4,164.6 362.4,118.4 520.8,48.0" />.box-top-3 { fill: #c1cbd3; stroke: #38434c; stroke-width: 1.1; }.box-side-3, .box-front-3 { fill: #8d99a4; stroke: #38434c; stroke-width: 1; }<polygon class="box-side-3" points="348.0,158.2 333.6,164.6 333.6,118.4 348.0,112.0" />.box-top-4 { fill: #c1cbd3; stroke: #38434c; stroke-width: 1.1; }.box-side-4, .box-front-4 { fill: #8d99a4; stroke: #38434c; stroke-width: 1; }<polygon class="box-side-4" points="520.8,81.4 506.4,87.8 506.4,41.6 520.8,35.2" />.box-top-5 { fill: #2f3942; stroke: #38434c; stroke-width: 1.1; }.box-side-5, .box-front-5 { fill: #202830; stroke: #38434c; stroke-width: 1; }<polygon class="box-side-5" points="277.4,-47.0 119.0,23.4 119.0,19.0 277.4,-51.4" />.box-top-6 { fill: #2f3942; stroke: #38434c; stroke-width: 1.1; }.box-side-6, .box-front-6 { fill: #202830; stroke: #38434c; stroke-width: 1; }<polygon class="box-side-6" points="507.8,55.4 349.4,125.8 349.4,121.4 507.8,51.0" />.box-top-7 { fill: #2f3942; stroke: #38434c; stroke-width: 1.1; }.box-side-7, .box-front-7 { fill: #202830; stroke: #38434c; stroke-width: 1; }<polygon class="box-side-7" points="349.4,124.6 346.6,125.8 346.6,121.4 349.4,120.2" />.box-top-8 { fill: #2f3942; stroke: #38434c; stroke-width: 1.1; }.box-side-8, .box-front-8 { fill: #202830; stroke: #38434c; stroke-width: 1; }<polygon class="box-side-8" points="507.8,54.2 505.0,55.4 505.0,51.0 507.8,49.8" />.box-top-9 { fill: #202a33; stroke: #38434c; stroke-width: 1.1; }.box-side-9, .box-front-9 { fill: #11181e; stroke: #38434c; stroke-width: 1; }<polygon class="box-side-9" points="456.0,-32.6 409.9,-12.1 409.9,-228.8 456.0,-249.3" />.box-top-10 { fill: #2d3942; stroke: #38434c; stroke-width: 1.1; }.box-side-10, .box-front-10 { fill: #1c252b; stroke: #38434c; stroke-width: 1; }<polygon class="box-side-10" points="458.2,-38.0 452.4,-35.5 452.4,-236.8 458.2,-239.3" />.box-top-11 { fill: #111820; stroke: #38434c; stroke-width: 1.1; }.box-side-11, .box-front-11 { fill: #080c10; stroke: #38434c; stroke-width: 1; }<polygon class="box-side-11" points="373.2,-80.3 367.4,-77.7 367.4,-271.3 373.2,-273.9" />.box-top-12 { fill: #111820; stroke: #38434c; stroke-width: 1.1; }.box-side-12, .box-front-12 { fill: #080c10; stroke: #38434c; stroke-width: 1; }<polygon class="box-side-12" points="456.0,-43.5 450.2,-40.9 450.2,-234.5 456.0,-237.1" />.box-top-13 { fill: #161a1d; stroke: #38434c; stroke-width: 1.1; }.box-side-13, .box-front-13 { fill: #080a0c; stroke: #38434c; stroke-width: 1; }<polygon class="box-side-13" points="299.0,-33.3 274.6,-22.4 274.6,-59.8 299.0,-70.7" />.box-top-14 { fill: #c51f1f; stroke: #38434c; stroke-width: 1.1; }.box-side-14, .box-front-14 { fill: #8c1515; stroke: #38434c; stroke-width: 1; }<polygon class="box-side-14" points="426.5,35.6 407.8,44.0 407.8,26.4 426.5,18.0" />.box-top-15 { fill: #2b333a; stroke: #38434c; stroke-width: 1.1; }.box-side-15, .box-front-15 { fill: #151a1f; stroke: #38434c; stroke-width: 1; }<polygon class="box-side-15" points="355.9,-190.8 335.8,-181.9 335.8,-213.8 355.9,-222.7" />.box-top-16 { fill: #f4f6f8; stroke: #38434c; stroke-width: 1.1; }.box-side-16, .box-front-16 { fill: #cbd2d8; stroke: #38434c; stroke-width: 1; }<polygon class="box-side-16" points="350.2,-196.4 348.7,-195.8 348.7,-200.2 350.2,-200.8" />.box-top-17 { fill: #2b333a; stroke: #38434c; stroke-width: 1.1; }.box-side-17, .box-front-17 { fill: #151a1f; stroke: #38434c; stroke-width: 1; }<polygon class="box-side-17" points="399.1,-171.6 379.0,-162.7 379.0,-194.6 399.1,-203.5" />.box-top-18 { fill: #f4f6f8; stroke: #38434c; stroke-width: 1.1; }.box-side-18, .box-front-18 { fill: #cbd2d8; stroke: #38434c; stroke-width: 1; }<polygon class="box-side-18" points="393.4,-177.2 391.9,-176.6 391.9,-181.0 393.4,-181.6" />.box-top-19 { fill: #111820; stroke: #38434c; stroke-width: 1.1; }.box-side-19, .box-front-19 { fill: #080c10; stroke: #38434c; stroke-width: 1; }<polygon class="box-side-19" points="473.3,-134.8 461.8,-129.7 461.8,-160.5 473.3,-165.6" />.box-top-20 { fill: #2387d7; stroke: #38434c; stroke-width: 1.1; }.box-side-20, .box-front-20 { fill: #145888; stroke: #38434c; stroke-width: 1; }<polygon class="box-side-20" points="478.0,-143.4 472.9,-141.2 472.9,-154.4 478.0,-156.6" />.box-top-21 { fill: #d4d8dc; stroke: #38434c; stroke-width: 1.1; }.box-side-21, .box-front-21 { fill: #9aa3aa; stroke: #38434c; stroke-width: 1; }<polygon class="box-side-21" points="476.2,-125.7 473.3,-124.4 473.3,-129.9 476.2,-131.2" />.box-top-22 { fill: #2b333a; stroke: #38434c; stroke-width: 1.1; }.box-side-22, .box-front-22 { fill: #151a1f; stroke: #38434c; stroke-width: 1; }<polygon class="box-side-22" points="355.9,-151.2 335.8,-142.3 335.8,-174.2 355.9,-183.1" />.box-top-23 { fill: #f4f6f8; stroke: #38434c; stroke-width: 1.1; }.box-side-23, .box-front-23 { fill: #cbd2d8; stroke: #38434c; stroke-width: 1; }<polygon class="box-side-23" points="350.2,-156.8 348.7,-156.2 348.7,-160.6 350.2,-161.2" />.box-top-24 { fill: #2b333a; stroke: #38434c; stroke-width: 1.1; }.box-side-24, .box-front-24 { fill: #151a1f; stroke: #38434c; stroke-width: 1; }<polygon class="box-side-24" points="399.1,-132.0 379.0,-123.1 379.0,-155.0 399.1,-163.9" />.box-top-25 { fill: #f4f6f8; stroke: #38434c; stroke-width: 1.1; }.box-side-25, .box-front-25 { fill: #cbd2d8; stroke: #38434c; stroke-width: 1; }<polygon class="box-side-25" points="393.4,-137.6 391.9,-137.0 391.9,-141.4 393.4,-142.0" />.box-top-26 { fill: #111820; stroke: #38434c; stroke-width: 1.1; }.box-side-26, .box-front-26 { fill: #080c10; stroke: #38434c; stroke-width: 1; }<polygon class="box-side-26" points="473.3,-95.2 461.8,-90.1 461.8,-120.9 473.3,-126.0" />.box-top-27 { fill: #d43a38; stroke: #38434c; stroke-width: 1.1; }.box-side-27, .box-front-27 { fill: #8f1c1a; stroke: #38434c; stroke-width: 1; }<polygon class="box-side-27" points="478.0,-103.8 472.9,-101.6 472.9,-114.8 478.0,-117.0" />.box-top-28 { fill: #d4d8dc; stroke: #38434c; stroke-width: 1.1; }.box-side-28, .box-front-28 { fill: #9aa3aa; stroke: #38434c; stroke-width: 1; }<polygon class="box-side-28" points="476.2,-86.1 473.3,-84.8 473.3,-90.3 476.2,-91.6" />.box-top-29 { fill: #2b333a; stroke: #38434c; stroke-width: 1.1; }.box-side-29, .box-front-29 { fill: #151a1f; stroke: #38434c; stroke-width: 1; }<polygon class="box-side-29" points="355.9,-111.6 335.8,-102.7 335.8,-134.6 355.9,-143.5" />.box-top-30 { fill: #f4f6f8; stroke: #38434c; stroke-width: 1.1; }.box-side-30, .box-front-30 { fill: #cbd2d8; stroke: #38434c; stroke-width: 1; }<polygon class="box-side-30" points="350.2,-117.2 348.7,-116.6 348.7,-121.0 350.2,-121.6" />.box-top-31 { fill: #2b333a; stroke: #38434c; stroke-width: 1.1; }.box-side-31, .box-front-31 { fill: #151a1f; stroke: #38434c; stroke-width: 1; }<polygon class="box-side-31" points="399.1,-92.4 379.0,-83.5 379.0,-115.4 399.1,-124.3" />.box-top-32 { fill: #f4f6f8; stroke: #38434c; stroke-width: 1.1; }.box-side-32, .box-front-32 { fill: #cbd2d8; stroke: #38434c; stroke-width: 1; }<polygon class="box-side-32" points="393.4,-98.0 391.9,-97.4 391.9,-101.8 393.4,-102.4" />.box-top-33 { fill: #111820; stroke: #38434c; stroke-width: 1.1; }.box-side-33, .box-front-33 { fill: #080c10; stroke: #38434c; stroke-width: 1; }<polygon class="box-side-33" points="473.3,-55.6 461.8,-50.5 461.8,-81.3 473.3,-86.4" />.box-top-34 { fill: #2387d7; stroke: #38434c; stroke-width: 1.1; }.box-side-34, .box-front-34 { fill: #145888; stroke: #38434c; stroke-width: 1; }<polygon class="box-side-34" points="478.0,-64.2 472.9,-62.0 472.9,-75.2 478.0,-77.4" />.box-top-35 { fill: #d4d8dc; stroke: #38434c; stroke-width: 1.1; }.box-side-35, .box-front-35 { fill: #9aa3aa; stroke: #38434c; stroke-width: 1; }<polygon class="box-side-35" points="476.2,-46.5 473.3,-45.2 473.3,-50.7 476.2,-52.0" />.box-top-36 { fill: #2b333a; stroke: #38434c; stroke-width: 1.1; }.box-side-36, .box-front-36 { fill: #151a1f; stroke: #38434c; stroke-width: 1; }<polygon class="box-side-36" points="355.9,-72.0 335.8,-63.1 335.8,-95.0 355.9,-103.9" />.box-top-37 { fill: #f4f6f8; stroke: #38434c; stroke-width: 1.1; }.box-side-37, .box-front-37 { fill: #cbd2d8; stroke: #38434c; stroke-width: 1; }<polygon class="box-side-37" points="350.2,-77.6 348.7,-77.0 348.7,-81.4 350.2,-82.0" />.box-top-38 { fill: #2b333a; stroke: #38434c; stroke-width: 1.1; }.box-side-38, .box-front-38 { fill: #151a1f; stroke: #38434c; stroke-width: 1; }<polygon class="box-side-38" points="399.1,-52.8 379.0,-43.9 379.0,-75.8 399.1,-84.7" />.box-top-39 { fill: #f4f6f8; stroke: #38434c; stroke-width: 1.1; }.box-side-39, .box-front-39 { fill: #cbd2d8; stroke: #38434c; stroke-width: 1; }<polygon class="box-side-39" points="393.4,-58.4 391.9,-57.8 391.9,-62.2 393.4,-62.8" />.box-top-40 { fill: #111820; stroke: #38434c; stroke-width: 1.1; }.box-side-40, .box-front-40 { fill: #080c10; stroke: #38434c; stroke-width: 1; }<polygon class="box-side-40" points="473.3,-16.0 461.8,-10.9 461.8,-41.7 473.3,-46.8" />.box-top-41 { fill: #dfba21; stroke: #38434c; stroke-width: 1.1; }.box-side-41, .box-front-41 { fill: #9b7e0e; stroke: #38434c; stroke-width: 1; }<polygon class="box-side-41" points="478.0,-24.6 472.9,-22.4 472.9,-35.6 478.0,-37.8" />.box-top-42 { fill: #d4d8dc; stroke: #38434c; stroke-width: 1.1; }.box-side-42, .box-front-42 { fill: #9aa3aa; stroke: #38434c; stroke-width: 1; }<polygon class="box-side-42" points="476.2,-6.9 473.3,-5.6 473.3,-11.1 476.2,-12.4" />.box-top-43 { fill: #2b333a; stroke: #38434c; stroke-width: 1.1; }.box-side-43, .box-front-43 { fill: #151a1f; stroke: #38434c; stroke-width: 1; }<polygon class="box-side-43" points="355.9,-32.4 335.8,-23.5 335.8,-55.4 355.9,-64.3" />.box-top-44 { fill: #f4f6f8; stroke: #38434c; stroke-width: 1.1; }.box-side-44, .box-front-44 { fill: #cbd2d8; stroke: #38434c; stroke-width: 1; }<polygon class="box-side-44" points="350.2,-38.0 348.7,-37.4 348.7,-41.8 350.2,-42.4" />.box-top-45 { fill: #2b333a; stroke: #38434c; stroke-width: 1.1; }.box-side-45, .box-front-45 { fill: #151a1f; stroke: #38434c; stroke-width: 1; }<polygon class="box-side-45" points="399.1,-13.2 379.0,-4.3 379.0,-36.2 399.1,-45.1" />.box-top-46 { fill: #f4f6f8; stroke: #38434c; stroke-width: 1.1; }.box-side-46, .box-front-46 { fill: #cbd2d8; stroke: #38434c; stroke-width: 1; }<polygon class="box-side-46" points="393.4,-18.8 391.9,-18.2 391.9,-22.6 393.4,-23.2" />.box-top-47 { fill: #111820; stroke: #38434c; stroke-width: 1.1; }.box-side-47, .box-front-47 { fill: #080c10; stroke: #38434c; stroke-width: 1; }<polygon class="box-side-47" points="473.3,23.6 461.8,28.7 461.8,-2.1 473.3,-7.2" />.box-top-48 { fill: #dfba21; stroke: #38434c; stroke-width: 1.1; }.box-side-48, .box-front-48 { fill: #9b7e0e; stroke: #38434c; stroke-width: 1; }<polygon class="box-side-48" points="478.0,15.0 472.9,17.2 472.9,4.0 478.0,1.8" />.box-top-49 { fill: #d4d8dc; stroke: #38434c; stroke-width: 1.1; }.box-side-49, .box-front-49 { fill: #9aa3aa; stroke: #38434c; stroke-width: 1; }<polygon class="box-side-49" points="476.2,32.7 473.3,34.0 473.3,28.5 476.2,27.2" />.box-top-50 { fill: #c8a451; stroke: #38434c; stroke-width: 1.1; }.box-side-50, .box-front-50 { fill: #8c6d2a; stroke: #38434c; stroke-width: 1; }<polygon class="box-side-50" points="305.9,-214.0 300.8,-211.8 300.8,-233.8 305.9,-236.0" />.box-top-51 { fill: #c8a451; stroke: #38434c; stroke-width: 1.1; }.box-side-51, .box-front-51 { fill: #8c6d2a; stroke: #38434c; stroke-width: 1; }<polygon class="box-side-51" points="305.9,-55.6 300.8,-53.4 300.8,-75.4 305.9,-77.6" />.box-top-52 { fill: #c8a451; stroke: #38434c; stroke-width: 1.1; }.box-side-52, .box-front-52 { fill: #8c6d2a; stroke: #38434c; stroke-width: 1; }<polygon class="box-side-52" points="388.0,-197.4 382.9,-195.1 382.9,-217.1 388.0,-219.4" />.box-top-53 { fill: #c8a451; stroke: #38434c; stroke-width: 1.1; }.box-side-53, .box-front-53 { fill: #8c6d2a; stroke: #38434c; stroke-width: 1; }<polygon class="box-side-53" points="388.0,0.6 382.9,2.9 382.9,-19.1 388.0,-21.4" />.box-top-54 { fill: #c1cbd3; stroke: #38434c; stroke-width: 1.1; }.box-side-54, .box-front-54 { fill: #8d99a4; stroke: #38434c; stroke-width: 1; }<polygon class="box-side-54" points="664.8,160.7 564.0,205.5 564.0,196.7 664.8,151.9" />.box-top-55 { fill: #c1cbd3; stroke: #38434c; stroke-width: 1.1; }.box-side-55, .box-front-55 { fill: #8d99a4; stroke: #38434c; stroke-width: 1; }<polygon class="box-side-55" points="506.4,113.4 405.6,158.2 405.6,112.0 506.4,67.2" />.box-top-56 { fill: #c1cbd3; stroke: #38434c; stroke-width: 1.1; }.box-side-56, .box-front-56 { fill: #8d99a4; stroke: #38434c; stroke-width: 1; }<polygon class="box-side-56" points="679.2,190.2 578.4,235.0 578.4,188.8 679.2,144.0" />.box-top-57 { fill: #c1cbd3; stroke: #38434c; stroke-width: 1.1; }.box-side-57, .box-front-57 { fill: #8d99a4; stroke: #38434c; stroke-width: 1; }<polygon class="box-side-57" points="564.0,228.6 549.6,235.0 549.6,188.8 564.0,182.4" />.box-top-58 { fill: #c1cbd3; stroke: #38434c; stroke-width: 1.1; }.box-side-58, .box-front-58 { fill: #8d99a4; stroke: #38434c; stroke-width: 1; }<polygon class="box-side-58" points="679.2,177.4 664.8,183.8 664.8,137.6 679.2,131.2" />.box-top-59 { fill: #2f3942; stroke: #38434c; stroke-width: 1.1; }.box-side-59, .box-front-59 { fill: #202830; stroke: #38434c; stroke-width: 1; }<polygon class="box-side-59" points="507.8,81.0 407.0,125.8 407.0,121.4 507.8,76.6" />.box-top-60 { fill: #2f3942; stroke: #38434c; stroke-width: 1.1; }.box-side-60, .box-front-60 { fill: #202830; stroke: #38434c; stroke-width: 1; }<polygon class="box-side-60" points="666.2,151.4 565.4,196.2 565.4,191.8 666.2,147.0" />.box-top-61 { fill: #2f3942; stroke: #38434c; stroke-width: 1.1; }.box-side-61, .box-front-61 { fill: #202830; stroke: #38434c; stroke-width: 1; }<polygon class="box-side-61" points="565.4,195.0 562.6,196.2 562.6,191.8 565.4,190.6" />.box-top-62 { fill: #2f3942; stroke: #38434c; stroke-width: 1.1; }.box-side-62, .box-front-62 { fill: #202830; stroke: #38434c; stroke-width: 1; }<polygon class="box-side-62" points="666.2,150.2 663.4,151.4 663.4,147.0 666.2,145.8" />.box-top-63 { fill: #c1cbd3; stroke: #38434c; stroke-width: 1.1; }.box-side-63, .box-front-63 { fill: #8d99a4; stroke: #38434c; stroke-width: 1; }<polygon class="box-side-63" points="663.4,123.3 584.2,158.5 584.2,151.9 663.4,116.7" />.box-top-64 { fill: #c1cbd3; stroke: #38434c; stroke-width: 1.1; }.box-side-64, .box-front-64 { fill: #8d99a4; stroke: #38434c; stroke-width: 1; }<polygon class="box-side-64" points="541.0,53.5 461.8,88.7 461.8,57.9 541.0,22.7" />.box-top-65 { fill: #c1cbd3; stroke: #38434c; stroke-width: 1.1; }.box-side-65, .box-front-65 { fill: #8d99a4; stroke: #38434c; stroke-width: 1; }<polygon class="box-side-65" points="669.1,110.5 589.9,145.7 589.9,114.9 669.1,79.7" />.box-top-66 { fill: #202a33; stroke: #38434c; stroke-width: 1.1; }.box-side-66, .box-front-66 { fill: #11181e; stroke: #38434c; stroke-width: 1; }<polygon class="box-side-66" points="612.2,91.5 571.9,109.4 571.9,72.0 612.2,54.1" />.box-top-67 { fill: #2d3942; stroke: #38434c; stroke-width: 1.1; }.box-side-67, .box-front-67 { fill: #1c252b; stroke: #38434c; stroke-width: 1; }<polygon class="box-side-67" points="604.3,68.7 572.6,82.8 572.6,75.1 604.3,61.0" />.box-top-68 { fill: #b7302a; stroke: #38434c; stroke-width: 1.1; }.box-side-68, .box-front-68 { fill: #7e1e1a; stroke: #38434c; stroke-width: 1; }<polygon class="box-side-68" points="572.6,58.0 565.4,61.2 565.4,53.5 572.6,50.3" />.box-top-69 { fill: #b7302a; stroke: #38434c; stroke-width: 1.1; }.box-side-69, .box-front-69 { fill: #7e1e1a; stroke: #38434c; stroke-width: 1; }<polygon class="box-side-69" points="603.6,57.7 597.1,60.6 597.1,55.1 603.6,52.2" />.box-top-70 { fill: #d4d8dc; stroke: #38434c; stroke-width: 1.1; }.box-side-70, .box-front-70 { fill: #9aa3aa; stroke: #38434c; stroke-width: 1; }<polygon class="box-side-70" points="574.8,38.6 561.8,44.3 561.8,39.9 574.8,34.2" />.box-top-71 { fill: #d4d8dc; stroke: #38434c; stroke-width: 1.1; }.box-side-71, .box-front-71 { fill: #9aa3aa; stroke: #38434c; stroke-width: 1; }<polygon class="box-side-71" points="582.0,81.5 569.0,87.2 569.0,82.8 582.0,77.1" />.box-top-72 { fill: #c51f1f; stroke: #38434c; stroke-width: 1.1; }.box-side-72, .box-front-72 { fill: #8c1515; stroke: #38434c; stroke-width: 1; }<polygon class="box-side-72" points="568.3,46.7 553.9,53.1 553.9,33.3 568.3,26.9" />.box-top-73 { fill: #161a1d; stroke: #38434c; stroke-width: 1.1; }.box-side-73, .box-front-73 { fill: #080a0c; stroke: #38434c; stroke-width: 1; }<polygon class="box-side-73" points="597.1,113.3 582.7,119.7 582.7,99.9 597.1,93.5" />.box-top-74 { fill: #111820; stroke: #38434c; stroke-width: 1.1; }.box-side-74, .box-front-74 { fill: #080c10; stroke: #38434c; stroke-width: 1; }<polygon class="box-side-74" points="586.0,155.8 524.8,183.0 524.8,169.8 586.0,142.6" />.box-top-75 { fill: #111820; stroke: #38434c; stroke-width: 1.1; }.box-side-75, .box-front-75 { fill: #080c10; stroke: #38434c; stroke-width: 1; }<polygon class="box-side-75" points="504.6,105.2 445.6,131.5 445.6,111.7 504.6,85.4" />.box-top-76 { fill: #b7302a; stroke: #38434c; stroke-width: 1.1; }.box-side-76, .box-front-76 { fill: #7e1e1a; stroke: #38434c; stroke-width: 1; }<polygon class="box-side-76" points="500.6,84.7 448.8,107.7 448.8,79.1 500.6,56.1" />.box-top-77 { fill: #111820; stroke: #38434c; stroke-width: 1.1; }.box-side-77, .box-front-77 { fill: #080c10; stroke: #38434c; stroke-width: 1; }<polygon class="box-side-77" points="490.6,69.1 484.1,72.0 484.1,67.6 490.6,64.7" />.box-top-78 { fill: #111820; stroke: #38434c; stroke-width: 1.1; }.box-side-78, .box-front-78 { fill: #080c10; stroke: #38434c; stroke-width: 1; }<polygon class="box-side-78" points="457.4,83.9 451.0,86.7 451.0,82.3 457.4,79.5" />.box-top-79 { fill: #111820; stroke: #38434c; stroke-width: 1.1; }.box-side-79, .box-front-79 { fill: #080c10; stroke: #38434c; stroke-width: 1; }<polygon class="box-side-79" points="494.9,100.0 481.9,105.8 481.9,97.0 494.9,91.2" />.box-top-80 { fill: #111820; stroke: #38434c; stroke-width: 1.1; }.box-side-80, .box-front-80 { fill: #080c10; stroke: #38434c; stroke-width: 1; }<polygon class="box-side-80" points="458.9,137.8 445.9,143.5 445.9,134.7 458.9,129.0" />.box-top-81 { fill: #111820; stroke: #38434c; stroke-width: 1.1; }.box-side-81, .box-front-81 { fill: #080c10; stroke: #38434c; stroke-width: 1; }<polygon class="box-side-81" points="524.0,113.9 465.0,140.1 465.0,120.3 524.0,94.1" />.box-top-82 { fill: #b7302a; stroke: #38434c; stroke-width: 1.1; }.box-side-82, .box-front-82 { fill: #7e1e1a; stroke: #38434c; stroke-width: 1; }<polygon class="box-side-82" points="520.1,93.3 468.2,116.4 468.2,87.8 520.1,64.7" />.box-top-83 { fill: #111820; stroke: #38434c; stroke-width: 1.1; }.box-side-83, .box-front-83 { fill: #080c10; stroke: #38434c; stroke-width: 1; }<polygon class="box-side-83" points="510.0,77.8 503.5,80.7 503.5,76.3 510.0,73.4" />.box-top-84 { fill: #111820; stroke: #38434c; stroke-width: 1.1; }.box-side-84, .box-front-84 { fill: #080c10; stroke: #38434c; stroke-width: 1; }<polygon class="box-side-84" points="476.9,92.5 470.4,95.4 470.4,91.0 476.9,88.1" />.box-top-85 { fill: #111820; stroke: #38434c; stroke-width: 1.1; }.box-side-85, .box-front-85 { fill: #080c10; stroke: #38434c; stroke-width: 1; }<polygon class="box-side-85" points="514.3,108.7 501.4,114.4 501.4,105.6 514.3,99.9" />.box-top-86 { fill: #111820; stroke: #38434c; stroke-width: 1.1; }.box-side-86, .box-front-86 { fill: #080c10; stroke: #38434c; stroke-width: 1; }<polygon class="box-side-86" points="478.3,146.4 465.4,152.2 465.4,143.4 478.3,137.6" />.box-top-87 { fill: #111820; stroke: #38434c; stroke-width: 1.1; }.box-side-87, .box-front-87 { fill: #080c10; stroke: #38434c; stroke-width: 1; }<polygon class="box-side-87" points="543.5,122.5 484.4,148.8 484.4,129.0 543.5,102.7" />.box-top-88 { fill: #b7302a; stroke: #38434c; stroke-width: 1.1; }.box-side-88, .box-front-88 { fill: #7e1e1a; stroke: #38434c; stroke-width: 1; }<polygon class="box-side-88" points="539.5,102.0 487.7,125.0 487.7,96.4 539.5,73.4" />.box-top-89 { fill: #111820; stroke: #38434c; stroke-width: 1.1; }.box-side-89, .box-front-89 { fill: #080c10; stroke: #38434c; stroke-width: 1; }<polygon class="box-side-89" points="529.4,86.4 523.0,89.3 523.0,84.9 529.4,82.0" />.box-top-90 { fill: #111820; stroke: #38434c; stroke-width: 1.1; }.box-side-90, .box-front-90 { fill: #080c10; stroke: #38434c; stroke-width: 1; }<polygon class="box-side-90" points="496.3,101.1 489.8,104.0 489.8,99.6 496.3,96.7" />.box-top-91 { fill: #111820; stroke: #38434c; stroke-width: 1.1; }.box-side-91, .box-front-91 { fill: #080c10; stroke: #38434c; stroke-width: 1; }<polygon class="box-side-91" points="533.8,117.3 520.8,123.1 520.8,114.3 533.8,108.5" />.box-top-92 { fill: #111820; stroke: #38434c; stroke-width: 1.1; }.box-side-92, .box-front-92 { fill: #080c10; stroke: #38434c; stroke-width: 1; }<polygon class="box-side-92" points="497.8,155.1 484.8,160.8 484.8,152.0 497.8,146.3" />.box-top-93 { fill: #111820; stroke: #38434c; stroke-width: 1.1; }.box-side-93, .box-front-93 { fill: #080c10; stroke: #38434c; stroke-width: 1; }<polygon class="box-side-93" points="562.9,131.2 503.9,157.4 503.9,137.6 562.9,111.4" />.box-top-94 { fill: #b7302a; stroke: #38434c; stroke-width: 1.1; }.box-side-94, .box-front-94 { fill: #7e1e1a; stroke: #38434c; stroke-width: 1; }<polygon class="box-side-94" points="559.0,110.6 507.1,133.6 507.1,105.0 559.0,82.0" />.box-top-95 { fill: #111820; stroke: #38434c; stroke-width: 1.1; }.box-side-95, .box-front-95 { fill: #080c10; stroke: #38434c; stroke-width: 1; }<polygon class="box-side-95" points="548.9,95.1 542.4,97.9 542.4,93.5 548.9,90.7" />.box-top-96 { fill: #111820; stroke: #38434c; stroke-width: 1.1; }.box-side-96, .box-front-96 { fill: #080c10; stroke: #38434c; stroke-width: 1; }<polygon class="box-side-96" points="515.8,109.8 509.3,112.7 509.3,108.3 515.8,105.4" />.box-top-97 { fill: #111820; stroke: #38434c; stroke-width: 1.1; }.box-side-97, .box-front-97 { fill: #080c10; stroke: #38434c; stroke-width: 1; }<polygon class="box-side-97" points="553.2,125.9 540.2,131.7 540.2,122.9 553.2,117.1" />.box-top-98 { fill: #111820; stroke: #38434c; stroke-width: 1.1; }.box-side-98, .box-front-98 { fill: #080c10; stroke: #38434c; stroke-width: 1; }<polygon class="box-side-98" points="517.2,163.7 504.2,169.5 504.2,160.7 517.2,154.9" />.box-top-99 { fill: #111820; stroke: #38434c; stroke-width: 1.1; }.box-side-99, .box-front-99 { fill: #080c10; stroke: #38434c; stroke-width: 1; }<polygon class="box-side-99" points="582.4,139.8 523.3,166.0 523.3,146.2 582.4,120.0" />.box-top-100 { fill: #b7302a; stroke: #38434c; stroke-width: 1.1; }.box-side-100, .box-front-100 { fill: #7e1e1a; stroke: #38434c; stroke-width: 1; }<polygon class="box-side-100" points="578.4,119.2 526.6,142.3 526.6,113.7 578.4,90.6" />.box-top-101 { fill: #111820; stroke: #38434c; stroke-width: 1.1; }.box-side-101, .box-front-101 { fill: #080c10; stroke: #38434c; stroke-width: 1; }<polygon class="box-side-101" points="568.3,103.7 561.8,106.6 561.8,102.2 568.3,99.3" />.box-top-102 { fill: #111820; stroke: #38434c; stroke-width: 1.1; }.box-side-102, .box-front-102 { fill: #080c10; stroke: #38434c; stroke-width: 1; }<polygon class="box-side-102" points="535.2,118.4 528.7,121.3 528.7,116.9 535.2,114.0" />.box-top-103 { fill: #111820; stroke: #38434c; stroke-width: 1.1; }.box-side-103, .box-front-103 { fill: #080c10; stroke: #38434c; stroke-width: 1; }<polygon class="box-side-103" points="572.6,134.6 559.7,140.3 559.7,131.5 572.6,125.8" />.box-top-104 { fill: #111820; stroke: #38434c; stroke-width: 1.1; }.box-side-104, .box-front-104 { fill: #080c10; stroke: #38434c; stroke-width: 1; }<polygon class="box-side-104" points="536.6,172.3 523.7,178.1 523.7,169.3 536.6,163.5" />.box-top-105 { fill: #2d3942; stroke: #38434c; stroke-width: 1.1; }.box-side-105, .box-front-105 { fill: #1c252b; stroke: #38434c; stroke-width: 1; }<polygon class="box-side-105" points="657.6,183.8 564.0,225.4 564.0,219.9 657.6,178.3" />
  </style>
  <text class="title" x="34" y="46">Electrical Modules Rev A</text><text class="subtitle" x="34" y="74">Earlier reference route with folded relay tray, folded power module box, and rear insulator.</text><text class="label" x="34" y="556">Static assembly visual. Open the HTML file for rotate/zoom interaction.</text>
  <rect class="background" width="920" height="620" /><ellipse class="shadow" cx="455" cy="430" rx="330" ry="74" /><polygon class="box-front-0" points="117.6,32.7 348.0,135.1 348.0,126.3 117.6,23.9" /><polygon class="box-top-0" points="276.0,-46.5 506.4,55.9 348.0,126.3 117.6,23.9" /><polygon class="box-front-1" points="103.2,49.4 117.6,55.8 117.6,9.6 103.2,3.2" /><polygon class="box-top-1" points="261.6,-67.2 276.0,-60.8 117.6,9.6 103.2,3.2" /><polygon class="box-front-2" points="348.0,158.2 362.4,164.6 362.4,118.4 348.0,112.0" /><polygon class="box-top-2" points="506.4,41.6 520.8,48.0 362.4,118.4 348.0,112.0" /><polygon class="box-front-3" points="103.2,62.2 333.6,164.6 333.6,118.4 103.2,16.0" /><polygon class="box-top-3" points="117.6,9.6 348.0,112.0 333.6,118.4 103.2,16.0" /><polygon class="box-front-4" points="276.0,-14.6 506.4,87.8 506.4,41.6 276.0,-60.8" /><polygon class="box-top-4" points="290.4,-67.2 520.8,35.2 506.4,41.6 276.0,-60.8" /><polygon class="box-front-5" points="116.2,22.2 119.0,23.4 119.0,19.0 116.2,17.8" /><polygon class="box-top-5" points="274.6,-52.6 277.4,-51.4 119.0,19.0 116.2,17.8" /><polygon class="box-front-6" points="346.6,124.6 349.4,125.8 349.4,121.4 346.6,120.2" /><polygon class="box-top-6" points="505.0,49.8 507.8,51.0 349.4,121.4 346.6,120.2" /><polygon class="box-front-7" points="116.2,23.4 346.6,125.8 346.6,121.4 116.2,19.0" /><polygon class="box-top-7" points="119.0,17.8 349.4,120.2 346.6,121.4 116.2,19.0" /><polygon class="box-front-8" points="274.6,-47.0 505.0,55.4 505.0,51.0 274.6,-51.4" /><polygon class="box-top-8" points="277.4,-52.6 507.8,49.8 505.0,51.0 274.6,-51.4" /><polygon class="box-front-9" points="193.9,-108.1 409.9,-12.1 409.9,-228.8 193.9,-324.8" /><polygon class="box-top-9" points="240.0,-345.3 456.0,-249.3 409.9,-228.8 193.9,-324.8" /><polygon class="box-front-10" points="246.5,-127.0 452.4,-35.5 452.4,-236.8 246.5,-328.3" /><polygon class="box-top-10" points="252.2,-330.9 458.2,-239.3 452.4,-236.8 246.5,-328.3" /><polygon class="box-front-11" points="275.3,-118.7 367.4,-77.7 367.4,-271.3 275.3,-312.3" /><polygon class="box-top-11" points="281.0,-314.8 373.2,-273.9 367.4,-271.3 275.3,-312.3" /><polygon class="box-front-12" points="408.5,-59.5 450.2,-40.9 450.2,-234.5 408.5,-253.1" /><polygon class="box-top-12" points="414.2,-255.6 456.0,-237.1 450.2,-234.5 408.5,-253.1" /><polygon class="box-front-13" points="241.4,-37.1 274.6,-22.4 274.6,-59.8 241.4,-74.5" /><polygon class="box-top-13" points="265.9,-85.4 299.0,-70.7 274.6,-59.8 241.4,-74.5" /><polygon class="box-front-14" points="341.5,14.5 407.8,44.0 407.8,26.4 341.5,-3.1" /><polygon class="box-top-14" points="360.2,-11.4 426.5,18.0 407.8,26.4 341.5,-3.1" /><polygon class="box-front-15" points="296.9,-199.2 335.8,-181.9 335.8,-213.8 296.9,-231.1" /><polygon class="box-top-15" points="317.0,-240.0 355.9,-222.7 335.8,-213.8 296.9,-231.1" /><polygon class="box-front-16" points="325.7,-206.0 348.7,-195.8 348.7,-200.2 325.7,-210.4" /><polygon class="box-top-16" points="327.1,-211.1 350.2,-200.8 348.7,-200.2 325.7,-210.4" /><polygon class="box-front-17" points="340.1,-180.0 379.0,-162.7 379.0,-194.6 340.1,-211.9" /><polygon class="box-top-17" points="360.2,-220.8 399.1,-203.5 379.0,-194.6 340.1,-211.9" /><polygon class="box-front-18" points="368.9,-186.8 391.9,-176.6 391.9,-181.0 368.9,-191.2" /><polygon class="box-top-18" points="370.3,-191.9 393.4,-181.6 391.9,-181.0 368.9,-191.2" /><polygon class="box-front-19" points="430.1,-143.8 461.8,-129.7 461.8,-160.5 430.1,-174.6" /><polygon class="box-top-19" points="441.6,-179.7 473.3,-165.6 461.8,-160.5 430.1,-174.6" /><polygon class="box-front-20" points="448.4,-152.1 472.9,-141.2 472.9,-154.4 448.4,-165.3" /><polygon class="box-top-20" points="453.5,-167.5 478.0,-156.6 472.9,-154.4 448.4,-165.3" /><polygon class="box-front-21" points="450.2,-134.6 473.3,-124.4 473.3,-129.9 450.2,-140.1" /><polygon class="box-top-21" points="453.1,-141.4 476.2,-131.2 473.3,-129.9 450.2,-140.1" /><polygon class="box-front-22" points="296.9,-159.6 335.8,-142.3 335.8,-174.2 296.9,-191.5" /><polygon class="box-top-22" points="317.0,-200.4 355.9,-183.1 335.8,-174.2 296.9,-191.5" /><polygon class="box-front-23" points="325.7,-166.4 348.7,-156.2 348.7,-160.6 325.7,-170.8" /><polygon class="box-top-23" points="327.1,-171.5 350.2,-161.2 348.7,-160.6 325.7,-170.8" /><polygon class="box-front-24" points="340.1,-140.4 379.0,-123.1 379.0,-155.0 340.1,-172.3" /><polygon class="box-top-24" points="360.2,-181.2 399.1,-163.9 379.0,-155.0 340.1,-172.3" /><polygon class="box-front-25" points="368.9,-147.2 391.9,-137.0 391.9,-141.4 368.9,-151.6" /><polygon class="box-top-25" points="370.3,-152.3 393.4,-142.0 391.9,-141.4 368.9,-151.6" /><polygon class="box-front-26" points="430.1,-104.2 461.8,-90.1 461.8,-120.9 430.1,-135.0" /><polygon class="box-top-26" points="441.6,-140.1 473.3,-126.0 461.8,-120.9 430.1,-135.0" /><polygon class="box-front-27" points="448.4,-112.5 472.9,-101.6 472.9,-114.8 448.4,-125.7" /><polygon class="box-top-27" points="453.5,-127.9 478.0,-117.0 472.9,-114.8 448.4,-125.7" /><polygon class="box-front-28" points="450.2,-95.0 473.3,-84.8 473.3,-90.3 450.2,-100.5" /><polygon class="box-top-28" points="453.1,-101.8 476.2,-91.6 473.3,-90.3 450.2,-100.5" /><polygon class="box-front-29" points="296.9,-120.0 335.8,-102.7 335.8,-134.6 296.9,-151.9" /><polygon class="box-top-29" points="317.0,-160.8 355.9,-143.5 335.8,-134.6 296.9,-151.9" /><polygon class="box-front-30" points="325.7,-126.8 348.7,-116.6 348.7,-121.0 325.7,-131.2" /><polygon class="box-top-30" points="327.1,-131.9 350.2,-121.6 348.7,-121.0 325.7,-131.2" /><polygon class="box-front-31" points="340.1,-100.8 379.0,-83.5 379.0,-115.4 340.1,-132.7" /><polygon class="box-top-31" points="360.2,-141.6 399.1,-124.3 379.0,-115.4 340.1,-132.7" /><polygon class="box-front-32" points="368.9,-107.6 391.9,-97.4 391.9,-101.8 368.9,-112.0" /><polygon class="box-top-32" points="370.3,-112.7 393.4,-102.4 391.9,-101.8 368.9,-112.0" /><polygon class="box-front-33" points="430.1,-64.6 461.8,-50.5 461.8,-81.3 430.1,-95.4" /><polygon class="box-top-33" points="441.6,-100.5 473.3,-86.4 461.8,-81.3 430.1,-95.4" /><polygon class="box-front-34" points="448.4,-72.9 472.9,-62.0 472.9,-75.2 448.4,-86.1" /><polygon class="box-top-34" points="453.5,-88.3 478.0,-77.4 472.9,-75.2 448.4,-86.1" /><polygon class="box-front-35" points="450.2,-55.4 473.3,-45.2 473.3,-50.7 450.2,-60.9" /><polygon class="box-top-35" points="453.1,-62.2 476.2,-52.0 473.3,-50.7 450.2,-60.9" /><polygon class="box-front-36" points="296.9,-80.4 335.8,-63.1 335.8,-95.0 296.9,-112.3" /><polygon class="box-top-36" points="317.0,-121.2 355.9,-103.9 335.8,-95.0 296.9,-112.3" /><polygon class="box-front-37" points="325.7,-87.2 348.7,-77.0 348.7,-81.4 325.7,-91.6" /><polygon class="box-top-37" points="327.1,-92.3 350.2,-82.0 348.7,-81.4 325.7,-91.6" /><polygon class="box-front-38" points="340.1,-61.2 379.0,-43.9 379.0,-75.8 340.1,-93.1" /><polygon class="box-top-38" points="360.2,-102.0 399.1,-84.7 379.0,-75.8 340.1,-93.1" /><polygon class="box-front-39" points="368.9,-68.0 391.9,-57.8 391.9,-62.2 368.9,-72.4" /><polygon class="box-top-39" points="370.3,-73.1 393.4,-62.8 391.9,-62.2 368.9,-72.4" /><polygon class="box-front-40" points="430.1,-25.0 461.8,-10.9 461.8,-41.7 430.1,-55.8" /><polygon class="box-top-40" points="441.6,-60.9 473.3,-46.8 461.8,-41.7 430.1,-55.8" /><polygon class="box-front-41" points="448.4,-33.3 472.9,-22.4 472.9,-35.6 448.4,-46.5" /><polygon class="box-top-41" points="453.5,-48.7 478.0,-37.8 472.9,-35.6 448.4,-46.5" /><polygon class="box-front-42" points="450.2,-15.8 473.3,-5.6 473.3,-11.1 450.2,-21.3" /><polygon class="box-top-42" points="453.1,-22.6 476.2,-12.4 473.3,-11.1 450.2,-21.3" /><polygon class="box-front-43" points="296.9,-40.8 335.8,-23.5 335.8,-55.4 296.9,-72.7" /><polygon class="box-top-43" points="317.0,-81.6 355.9,-64.3 335.8,-55.4 296.9,-72.7" /><polygon class="box-front-44" points="325.7,-47.6 348.7,-37.4 348.7,-41.8 325.7,-52.0" /><polygon class="box-top-44" points="327.1,-52.7 350.2,-42.4 348.7,-41.8 325.7,-52.0" /><polygon class="box-front-45" points="340.1,-21.6 379.0,-4.3 379.0,-36.2 340.1,-53.5" /><polygon class="box-top-45" points="360.2,-62.4 399.1,-45.1 379.0,-36.2 340.1,-53.5" /><polygon class="box-front-46" points="368.9,-28.4 391.9,-18.2 391.9,-22.6 368.9,-32.8" /><polygon class="box-top-46" points="370.3,-33.5 393.4,-23.2 391.9,-22.6 368.9,-32.8" /><polygon class="box-front-47" points="430.1,14.6 461.8,28.7 461.8,-2.1 430.1,-16.2" /><polygon class="box-top-47" points="441.6,-21.3 473.3,-7.2 461.8,-2.1 430.1,-16.2" /><polygon class="box-front-48" points="448.4,6.3 472.9,17.2 472.9,4.0 448.4,-6.9" /><polygon class="box-top-48" points="453.5,-9.1 478.0,1.8 472.9,4.0 448.4,-6.9" /><polygon class="box-front-49" points="450.2,23.8 473.3,34.0 473.3,28.5 450.2,18.3" /><polygon class="box-top-49" points="453.1,17.0 476.2,27.2 473.3,28.5 450.2,18.3" /><polygon class="box-front-50" points="286.4,-218.2 300.8,-211.8 300.8,-233.8 286.4,-240.2" /><polygon class="box-top-50" points="291.5,-242.4 305.9,-236.0 300.8,-233.8 286.4,-240.2" /><polygon class="box-front-51" points="286.4,-59.8 300.8,-53.4 300.8,-75.4 286.4,-81.8" /><polygon class="box-top-51" points="291.5,-84.0 305.9,-77.6 300.8,-75.4 286.4,-81.8" /><polygon class="box-front-52" points="368.5,-201.5 382.9,-195.1 382.9,-217.1 368.5,-223.5" /><polygon class="box-top-52" points="373.6,-225.8 388.0,-219.4 382.9,-217.1 368.5,-223.5" /><polygon class="box-front-53" points="368.5,-3.5 382.9,2.9 382.9,-19.1 368.5,-25.5" /><polygon class="box-top-53" points="373.6,-27.8 388.0,-21.4 382.9,-19.1 368.5,-25.5" /><polygon class="box-front-54" points="405.6,135.1 564.0,205.5 564.0,196.7 405.6,126.3" /><polygon class="box-top-54" points="506.4,81.5 664.8,151.9 564.0,196.7 405.6,126.3" /><polygon class="box-front-55" points="391.2,151.8 405.6,158.2 405.6,112.0 391.2,105.6" /><polygon class="box-top-55" points="492.0,60.8 506.4,67.2 405.6,112.0 391.2,105.6" /><polygon class="box-front-56" points="564.0,228.6 578.4,235.0 578.4,188.8 564.0,182.4" /><polygon class="box-top-56" points="664.8,137.6 679.2,144.0 578.4,188.8 564.0,182.4" /><polygon class="box-front-57" points="391.2,164.6 549.6,235.0 549.6,188.8 391.2,118.4" /><polygon class="box-top-57" points="405.6,112.0 564.0,182.4 549.6,188.8 391.2,118.4" /><polygon class="box-front-58" points="506.4,113.4 664.8,183.8 664.8,137.6 506.4,67.2" /><polygon class="box-top-58" points="520.8,60.8 679.2,131.2 664.8,137.6 506.4,67.2" /><polygon class="box-front-59" points="404.2,124.6 407.0,125.8 407.0,121.4 404.2,120.2" /><polygon class="box-top-59" points="505.0,75.4 507.8,76.6 407.0,121.4 404.2,120.2" /><polygon class="box-front-60" points="562.6,195.0 565.4,196.2 565.4,191.8 562.6,190.6" /><polygon class="box-top-60" points="663.4,145.8 666.2,147.0 565.4,191.8 562.6,190.6" /><polygon class="box-front-61" points="404.2,125.8 562.6,196.2 562.6,191.8 404.2,121.4" /><polygon class="box-top-61" points="407.0,120.2 565.4,190.6 562.6,191.8 404.2,121.4" /><polygon class="box-front-62" points="505.0,81.0 663.4,151.4 663.4,147.0 505.0,76.6" /><polygon class="box-top-62" points="507.8,75.4 666.2,145.8 663.4,147.0 505.0,76.6" /><polygon class="box-front-63" points="461.8,104.1 584.2,158.5 584.2,151.9 461.8,97.5" /><polygon class="box-top-63" points="541.0,62.3 663.4,116.7 584.2,151.9 461.8,97.5" /><polygon class="box-front-64" points="456.0,86.2 461.8,88.7 461.8,57.9 456.0,55.4" /><polygon class="box-top-64" points="535.2,20.2 541.0,22.7 461.8,57.9 456.0,55.4" /><polygon class="box-front-65" points="584.2,143.1 589.9,145.7 589.9,114.9 584.2,112.3" /><polygon class="box-top-65" points="663.4,77.1 669.1,79.7 589.9,114.9 584.2,112.3" /><polygon class="box-front-66" points="512.9,83.2 571.9,109.4 571.9,72.0 512.9,45.8" /><polygon class="box-top-66" points="553.2,27.9 612.2,54.1 571.9,72.0 512.9,45.8" /><polygon class="box-front-67" points="520.8,59.8 572.6,82.8 572.6,75.1 520.8,52.1" /><polygon class="box-top-67" points="552.5,38.0 604.3,61.0 572.6,75.1 520.8,52.1" /><polygon class="box-front-68" points="532.3,46.5 565.4,61.2 565.4,53.5 532.3,38.8" /><polygon class="box-top-68" points="539.5,35.6 572.6,50.3 565.4,53.5 532.3,38.8" /><polygon class="box-front-69" points="586.3,55.8 597.1,60.6 597.1,55.1 586.3,50.3" /><polygon class="box-top-69" points="592.8,47.4 603.6,52.2 597.1,55.1 586.3,50.3" /><polygon class="box-front-70" points="543.1,36.0 561.8,44.3 561.8,39.9 543.1,31.6" /><polygon class="box-top-70" points="556.1,25.9 574.8,34.2 561.8,39.9 543.1,31.6" /><polygon class="box-front-71" points="550.3,78.9 569.0,87.2 569.0,82.8 550.3,74.5" /><polygon class="box-top-71" points="563.3,68.7 582.0,77.1 569.0,82.8 550.3,74.5" /><polygon class="box-front-72" points="528.0,41.6 553.9,53.1 553.9,33.3 528.0,21.8" /><polygon class="box-top-72" points="542.4,15.4 568.3,26.9 553.9,33.3 528.0,21.8" /><polygon class="box-front-73" points="556.8,108.2 582.7,119.7 582.7,99.9 556.8,88.4" /><polygon class="box-top-73" points="571.2,82.0 597.1,93.5 582.7,99.9 556.8,88.4" /><polygon class="box-front-74" points="424.0,138.2 524.8,183.0 524.8,169.8 424.0,125.0" /><polygon class="box-top-74" points="485.2,97.8 586.0,142.6 524.8,169.8 424.0,125.0" /><polygon class="box-front-75" points="427.6,123.5 445.6,131.5 445.6,111.7 427.6,103.7" /><polygon class="box-top-75" points="486.6,77.4 504.6,85.4 445.6,111.7 427.6,103.7" /><polygon class="box-front-76" points="431.5,100.0 448.8,107.7 448.8,79.1 431.5,71.4" /><polygon class="box-top-76" points="483.4,48.4 500.6,56.1 448.8,79.1 431.5,71.4" /><polygon class="box-front-77" points="474.7,67.9 484.1,72.0 484.1,67.6 474.7,63.5" /><polygon class="box-top-77" points="481.2,60.6 490.6,64.7 484.1,67.6 474.7,63.5" /><polygon class="box-front-78" points="441.6,82.6 451.0,86.7 451.0,82.3 441.6,78.2" /><polygon class="box-top-78" points="448.1,75.3 457.4,79.5 451.0,82.3 441.6,78.2" /><polygon class="box-front-79" points="473.3,101.9 481.9,105.8 481.9,97.0 473.3,93.1" /><polygon class="box-top-79" points="486.2,87.4 494.9,91.2 481.9,97.0 473.3,93.1" /><polygon class="box-front-80" points="437.3,139.7 445.9,143.5 445.9,134.7 437.3,130.9" /><polygon class="box-top-80" points="450.2,125.1 458.9,129.0 445.9,134.7 437.3,130.9" /><polygon class="box-front-81" points="447.0,132.1 465.0,140.1 465.0,120.3 447.0,112.3" /><polygon class="box-top-81" points="506.0,86.1 524.0,94.1 465.0,120.3 447.0,112.3" /><polygon class="box-front-82" points="451.0,108.7 468.2,116.4 468.2,87.8 451.0,80.1" /><polygon class="box-top-82" points="502.8,57.0 520.1,64.7 468.2,87.8 451.0,80.1" /><polygon class="box-front-83" points="494.2,76.5 503.5,80.7 503.5,76.3 494.2,72.1" /><polygon class="box-top-83" points="500.6,69.2 510.0,73.4 503.5,76.3 494.2,72.1" /><polygon class="box-front-84" points="461.0,91.2 470.4,95.4 470.4,91.0 461.0,86.8" /><polygon class="box-top-84" points="467.5,83.9 476.9,88.1 470.4,91.0 461.0,86.8" /><polygon class="box-front-85" points="492.7,110.6 501.4,114.4 501.4,105.6 492.7,101.8" /><polygon class="box-top-85" points="505.7,96.0 514.3,99.9 501.4,105.6 492.7,101.8" /><polygon class="box-front-86" points="456.7,148.3 465.4,152.2 465.4,143.4 456.7,139.5" /><polygon class="box-top-86" points="469.7,133.8 478.3,137.6 465.4,143.4 456.7,139.5" /><polygon class="box-front-87" points="466.4,140.8 484.4,148.8 484.4,129.0 466.4,121.0" /><polygon class="box-top-87" points="525.5,94.7 543.5,102.7 484.4,129.0 466.4,121.0" /><polygon class="box-front-88" points="470.4,117.3 487.7,125.0 487.7,96.4 470.4,88.7" /><polygon class="box-top-88" points="522.2,65.7 539.5,73.4 487.7,96.4 470.4,88.7" /><polygon class="box-front-89" points="513.6,85.1 523.0,89.3 523.0,84.9 513.6,80.7" /><polygon class="box-top-89" points="520.1,77.9 529.4,82.0 523.0,84.9 513.6,80.7" /><polygon class="box-front-90" points="480.5,99.9 489.8,104.0 489.8,99.6 480.5,95.5" /><polygon class="box-top-90" points="487.0,92.6 496.3,96.7 489.8,99.6 480.5,95.5" /><polygon class="box-front-91" points="512.2,119.2 520.8,123.1 520.8,114.3 512.2,110.4" /><polygon class="box-top-91" points="525.1,104.7 533.8,108.5 520.8,114.3 512.2,110.4" /><polygon class="box-front-92" points="476.2,157.0 484.8,160.8 484.8,152.0 476.2,148.2" /><polygon class="box-top-92" points="489.1,142.4 497.8,146.3 484.8,152.0 476.2,148.2" /><polygon class="box-front-93" points="485.9,149.4 503.9,157.4 503.9,137.6 485.9,129.6" /><polygon class="box-top-93" points="544.9,103.4 562.9,111.4 503.9,137.6 485.9,129.6" /><polygon class="box-front-94" points="489.8,126.0 507.1,133.6 507.1,105.0 489.8,97.4" /><polygon class="box-top-94" points="541.7,74.3 559.0,82.0 507.1,105.0 489.8,97.4" /><polygon class="box-front-95" points="533.0,93.8 542.4,97.9 542.4,93.5 533.0,89.4" /><polygon class="box-top-95" points="539.5,86.5 548.9,90.7 542.4,93.5 533.0,89.4" /><polygon class="box-front-96" points="499.9,108.5 509.3,112.7 509.3,108.3 499.9,104.1" /><polygon class="box-top-96" points="506.4,101.2 515.8,105.4 509.3,108.3 499.9,104.1" /><polygon class="box-front-97" points="531.6,127.9 540.2,131.7 540.2,122.9 531.6,119.1" /><polygon class="box-top-97" points="544.6,113.3 553.2,117.1 540.2,122.9 531.6,119.1" /><polygon class="box-front-98" points="495.6,165.6 504.2,169.5 504.2,160.7 495.6,156.8" /><polygon class="box-top-98" points="508.6,151.1 517.2,154.9 504.2,160.7 495.6,156.8" /><polygon class="box-front-99" points="505.3,158.0 523.3,166.0 523.3,146.2 505.3,138.2" /><polygon class="box-top-99" points="564.4,112.0 582.4,120.0 523.3,146.2 505.3,138.2" /><polygon class="box-front-100" points="509.3,134.6 526.6,142.3 526.6,113.7 509.3,106.0" /><polygon class="box-top-100" points="561.1,83.0 578.4,90.6 526.6,113.7 509.3,106.0" /><polygon class="box-front-101" points="552.5,102.4 561.8,106.6 561.8,102.2 552.5,98.0" /><polygon class="box-top-101" points="559.0,95.1 568.3,99.3 561.8,102.2 552.5,98.0" /><polygon class="box-front-102" points="519.4,117.1 528.7,121.3 528.7,116.9 519.4,112.7" /><polygon class="box-top-102" points="525.8,109.9 535.2,114.0 528.7,116.9 519.4,112.7" /><polygon class="box-front-103" points="551.0,136.5 559.7,140.3 559.7,131.5 551.0,127.7" /><polygon class="box-top-103" points="564.0,121.9 572.6,125.8 559.7,131.5 551.0,127.7" /><polygon class="box-front-104" points="515.0,174.3 523.7,178.1 523.7,169.3 515.0,165.5" /><polygon class="box-top-104" points="528.0,159.7 536.6,163.5 523.7,169.3 515.0,165.5" /><polygon class="box-front-105" points="412.8,158.2 564.0,225.4 564.0,219.9 412.8,152.7" /><polygon class="box-top-105" points="506.4,111.1 657.6,178.3 564.0,219.9 412.8,152.7" />
</svg>
