<svg xmlns="http://www.w3.org/2000/svg" width="920" height="620" viewBox="0 0 920 620" role="img">
  <style>
    .background { fill: #f6f7f8; }
    .shadow { fill: #d8dde2; opacity: 0.7; }
    .title { font: 700 26px Arial, sans-serif; fill: #202a33; }
    .subtitle, .label { font: 16px Arial, sans-serif; fill: #4f5d68; }
    .box-top-0 { fill: #c1cbd3; stroke: #38434c; stroke-width: 1.1; }.box-side-0, .box-front-0 { fill: #8d99a4; stroke: #38434c; stroke-width: 1; }<polygon class="box-side-0" points="506.4,64.7 348.0,135.1 348.0,126.3 506.4,55.9" />.box-top-1 { fill: #202a33; stroke: #38434c; stroke-width: 1.1; }.box-side-1, .box-front-1 { fill: #11181e; stroke: #38434c; stroke-width: 1; }<polygon class="box-side-1" points="456.0,13.0 348.0,61.0 348.0,-9.4 456.0,-57.4" />.box-top-2 { fill: #c1cbd3; stroke: #38434c; stroke-width: 1.1; }.box-side-2, .box-front-2 { fill: #8d99a4; stroke: #38434c; stroke-width: 1; }<polygon class="box-side-2" points="664.8,160.7 564.0,205.5 564.0,196.7 664.8,151.9" />.box-top-3 { fill: #b7302a; stroke: #38434c; stroke-width: 1.1; }.box-side-3, .box-front-3 { fill: #7e1e1a; stroke: #38434c; stroke-width: 1; }<polygon class="box-side-3" points="632.4,116.2 560.4,148.2 560.4,87.7 632.4,55.7" />.box-top-4 { fill: #2d3942; stroke: #38434c; stroke-width: 1.1; }.box-side-4, .box-front-4 { fill: #1c252b; stroke: #38434c; stroke-width: 1; }<polygon class="box-side-4" points="657.6,183.8 564.0,225.4 564.0,219.9 657.6,178.3" />
  </style>
  <text class="title" x="34" y="46">Electrical Modules Rev A</text><text class="subtitle" x="34" y="74">Earlier reference route with relay tray, power module box, and rear insulator.</text><text class="label" x="34" y="556">Static assembly visual. Open the HTML file for rotate/zoom interaction.</text>
  <rect class="background" width="920" height="620" /><ellipse class="shadow" cx="455" cy="430" rx="330" ry="74" /><polygon class="box-front-0" points="117.6,32.7 348.0,135.1 348.0,126.3 117.6,23.9" /><polygon class="box-top-0" points="276.0,-46.5 506.4,55.9 348.0,126.3 117.6,23.9" /><polygon class="box-front-1" points="168.0,-19.0 348.0,61.0 348.0,-9.4 168.0,-89.4" /><polygon class="box-top-1" points="276.0,-137.4 456.0,-57.4 348.0,-9.4 168.0,-89.4" /><polygon class="box-front-2" points="405.6,135.1 564.0,205.5 564.0,196.7 405.6,126.3" /><polygon class="box-top-2" points="506.4,81.5 664.8,151.9 564.0,196.7 405.6,126.3" /><polygon class="box-front-3" points="438.0,93.8 560.4,148.2 560.4,87.7 438.0,33.3" /><polygon class="box-top-3" points="510.0,1.3 632.4,55.7 560.4,87.7 438.0,33.3" /><polygon class="box-front-4" points="412.8,158.2 564.0,225.4 564.0,219.9 412.8,152.7" /><polygon class="box-top-4" points="506.4,111.1 657.6,178.3 564.0,219.9 412.8,152.7" />
</svg>
