0
SECTION
2
HEADER
9
$INSUNITS
70
4
0
ENDSEC
0
SECTION
2
ENTITIES
0
LINE
8
CUT
10
20
20
0
11
240
21
0
0
LINE
8
CUT
10
240
20
0
11
240
21
20
0
LINE
8
CUT
10
240
20
20
11
260
21
20
0
LINE
8
CUT
10
260
20
20
11
260
21
160
0
LINE
8
CUT
10
260
20
160
11
240
21
160
0
LINE
8
CUT
10
240
20
160
11
240
21
180
0
LINE
8
CUT
10
240
20
180
11
20
21
180
0
LINE
8
CUT
10
20
20
180
11
20
21
160
0
LINE
8
CUT
10
20
20
160
11
0
21
160
0
LINE
8
CUT
10
0
20
160
11
0
21
20
0
LINE
8
CUT
10
0
20
20
11
20
21
20
0
LINE
8
CUT
10
20
20
20
11
20
21
0
0
LINE
8
CUT
10
25
20
51
11
25.06
21
50.41
0
LINE
8
CUT
10
25.06
20
50.41
11
25.23
21
49.85
0
LINE
8
CUT
10
25.23
20
49.85
11
25.51
21
49.33
0
LINE
8
CUT
10
25.51
20
49.33
11
25.88
21
48.88
0
LINE
8
CUT
10
25.88
20
48.88
11
26.33
21
48.51
0
LINE
8
CUT
10
26.33
20
48.51
11
26.85
21
48.23
0
LINE
8
CUT
10
26.85
20
48.23
11
27.41
21
48.06
0
LINE
8
CUT
10
27.41
20
48.06
11
28
21
48
0
LINE
8
CUT
10
28
20
48
11
152
21
48
0
LINE
8
CUT
10
152
20
48
11
152.59
21
48.06
0
LINE
8
CUT
10
152.59
20
48.06
11
153.15
21
48.23
0
LINE
8
CUT
10
153.15
20
48.23
11
153.67
21
48.51
0
LINE
8
CUT
10
153.67
20
48.51
11
154.12
21
48.88
0
LINE
8
CUT
10
154.12
20
48.88
11
154.49
21
49.33
0
LINE
8
CUT
10
154.49
20
49.33
11
154.77
21
49.85
0
LINE
8
CUT
10
154.77
20
49.85
11
154.94
21
50.41
0
LINE
8
CUT
10
154.94
20
50.41
11
155
21
51
0
LINE
8
CUT
10
155
20
51
11
155
21
51
0
LINE
8
CUT
10
155
20
51
11
154.94
21
51.59
0
LINE
8
CUT
10
154.94
20
51.59
11
154.77
21
52.15
0
LINE
8
CUT
10
154.77
20
52.15
11
154.49
21
52.67
0
LINE
8
CUT
10
154.49
20
52.67
11
154.12
21
53.12
0
LINE
8
CUT
10
154.12
20
53.12
11
153.67
21
53.49
0
LINE
8
CUT
10
153.67
20
53.49
11
153.15
21
53.77
0
LINE
8
CUT
10
153.15
20
53.77
11
152.59
21
53.94
0
LINE
8
CUT
10
152.59
20
53.94
11
152
21
54
0
LINE
8
CUT
10
152
20
54
11
28
21
54
0
LINE
8
CUT
10
28
20
54
11
27.41
21
53.94
0
LINE
8
CUT
10
27.41
20
53.94
11
26.85
21
53.77
0
LINE
8
CUT
10
26.85
20
53.77
11
26.33
21
53.49
0
LINE
8
CUT
10
26.33
20
53.49
11
25.88
21
53.12
0
LINE
8
CUT
10
25.88
20
53.12
11
25.51
21
52.67
0
LINE
8
CUT
10
25.51
20
52.67
11
25.23
21
52.15
0
LINE
8
CUT
10
25.23
20
52.15
11
25.06
21
51.59
0
LINE
8
CUT
10
25.06
20
51.59
11
25
21
51
0
LINE
8
CUT
10
25
20
51
11
25
21
51
0
LINE
8
CUT
10
25
20
105
11
25.06
21
104.41
0
LINE
8
CUT
10
25.06
20
104.41
11
25.23
21
103.85
0
LINE
8
CUT
10
25.23
20
103.85
11
25.51
21
103.33
0
LINE
8
CUT
10
25.51
20
103.33
11
25.88
21
102.88
0
LINE
8
CUT
10
25.88
20
102.88
11
26.33
21
102.51
0
LINE
8
CUT
10
26.33
20
102.51
11
26.85
21
102.23
0
LINE
8
CUT
10
26.85
20
102.23
11
27.41
21
102.06
0
LINE
8
CUT
10
27.41
20
102.06
11
28
21
102
0
LINE
8
CUT
10
28
20
102
11
152
21
102
0
LINE
8
CUT
10
152
20
102
11
152.59
21
102.06
0
LINE
8
CUT
10
152.59
20
102.06
11
153.15
21
102.23
0
LINE
8
CUT
10
153.15
20
102.23
11
153.67
21
102.51
0
LINE
8
CUT
10
153.67
20
102.51
11
154.12
21
102.88
0
LINE
8
CUT
10
154.12
20
102.88
11
154.49
21
103.33
0
LINE
8
CUT
10
154.49
20
103.33
11
154.77
21
103.85
0
LINE
8
CUT
10
154.77
20
103.85
11
154.94
21
104.41
0
LINE
8
CUT
10
154.94
20
104.41
11
155
21
105
0
LINE
8
CUT
10
155
20
105
11
155
21
105
0
LINE
8
CUT
10
155
20
105
11
154.94
21
105.59
0
LINE
8
CUT
10
154.94
20
105.59
11
154.77
21
106.15
0
LINE
8
CUT
10
154.77
20
106.15
11
154.49
21
106.67
0
LINE
8
CUT
10
154.49
20
106.67
11
154.12
21
107.12
0
LINE
8
CUT
10
154.12
20
107.12
11
153.67
21
107.49
0
LINE
8
CUT
10
153.67
20
107.49
11
153.15
21
107.77
0
LINE
8
CUT
10
153.15
20
107.77
11
152.59
21
107.94
0
LINE
8
CUT
10
152.59
20
107.94
11
152
21
108
0
LINE
8
CUT
10
152
20
108
11
28
21
108
0
LINE
8
CUT
10
28
20
108
11
27.41
21
107.94
0
LINE
8
CUT
10
27.41
20
107.94
11
26.85
21
107.77
0
LINE
8
CUT
10
26.85
20
107.77
11
26.33
21
107.49
0
LINE
8
CUT
10
26.33
20
107.49
11
25.88
21
107.12
0
LINE
8
CUT
10
25.88
20
107.12
11
25.51
21
106.67
0
LINE
8
CUT
10
25.51
20
106.67
11
25.23
21
106.15
0
LINE
8
CUT
10
25.23
20
106.15
11
25.06
21
105.59
0
LINE
8
CUT
10
25.06
20
105.59
11
25
21
105
0
LINE
8
CUT
10
25
20
105
11
25
21
105
0
LINE
8
CUT
10
176.5
20
45.5
11
176.57
21
44.82
0
LINE
8
CUT
10
176.57
20
44.82
11
176.77
21
44.16
0
LINE
8
CUT
10
176.77
20
44.16
11
177.09
21
43.56
0
LINE
8
CUT
10
177.09
20
43.56
11
177.53
21
43.03
0
LINE
8
CUT
10
177.53
20
43.03
11
178.06
21
42.59
0
LINE
8
CUT
10
178.06
20
42.59
11
178.66
21
42.27
0
LINE
8
CUT
10
178.66
20
42.27
11
179.32
21
42.07
0
LINE
8
CUT
10
179.32
20
42.07
11
180
21
42
0
LINE
8
CUT
10
180
20
42
11
180
21
42
0
LINE
8
CUT
10
180
20
42
11
180.68
21
42.07
0
LINE
8
CUT
10
180.68
20
42.07
11
181.34
21
42.27
0
LINE
8
CUT
10
181.34
20
42.27
11
181.94
21
42.59
0
LINE
8
CUT
10
181.94
20
42.59
11
182.47
21
43.03
0
LINE
8
CUT
10
182.47
20
43.03
11
182.91
21
43.56
0
LINE
8
CUT
10
182.91
20
43.56
11
183.23
21
44.16
0
LINE
8
CUT
10
183.23
20
44.16
11
183.43
21
44.82
0
LINE
8
CUT
10
183.43
20
44.82
11
183.5
21
45.5
0
LINE
8
CUT
10
183.5
20
45.5
11
183.5
21
64.5
0
LINE
8
CUT
10
183.5
20
64.5
11
183.43
21
65.18
0
LINE
8
CUT
10
183.43
20
65.18
11
183.23
21
65.84
0
LINE
8
CUT
10
183.23
20
65.84
11
182.91
21
66.44
0
LINE
8
CUT
10
182.91
20
66.44
11
182.47
21
66.97
0
LINE
8
CUT
10
182.47
20
66.97
11
181.94
21
67.41
0
LINE
8
CUT
10
181.94
20
67.41
11
181.34
21
67.73
0
LINE
8
CUT
10
181.34
20
67.73
11
180.68
21
67.93
0
LINE
8
CUT
10
180.68
20
67.93
11
180
21
68
0
LINE
8
CUT
10
180
20
68
11
180
21
68
0
LINE
8
CUT
10
180
20
68
11
179.32
21
67.93
0
LINE
8
CUT
10
179.32
20
67.93
11
178.66
21
67.73
0
LINE
8
CUT
10
178.66
20
67.73
11
178.06
21
67.41
0
LINE
8
CUT
10
178.06
20
67.41
11
177.53
21
66.97
0
LINE
8
CUT
10
177.53
20
66.97
11
177.09
21
66.44
0
LINE
8
CUT
10
177.09
20
66.44
11
176.77
21
65.84
0
LINE
8
CUT
10
176.77
20
65.84
11
176.57
21
65.18
0
LINE
8
CUT
10
176.57
20
65.18
11
176.5
21
64.5
0
LINE
8
CUT
10
176.5
20
64.5
11
176.5
21
45.5
0
LINE
8
CUT
10
176.5
20
95.5
11
176.57
21
94.82
0
LINE
8
CUT
10
176.57
20
94.82
11
176.77
21
94.16
0
LINE
8
CUT
10
176.77
20
94.16
11
177.09
21
93.56
0
LINE
8
CUT
10
177.09
20
93.56
11
177.53
21
93.03
0
LINE
8
CUT
10
177.53
20
93.03
11
178.06
21
92.59
0
LINE
8
CUT
10
178.06
20
92.59
11
178.66
21
92.27
0
LINE
8
CUT
10
178.66
20
92.27
11
179.32
21
92.07
0
LINE
8
CUT
10
179.32
20
92.07
11
180
21
92
0
LINE
8
CUT
10
180
20
92
11
180
21
92
0
LINE
8
CUT
10
180
20
92
11
180.68
21
92.07
0
LINE
8
CUT
10
180.68
20
92.07
11
181.34
21
92.27
0
LINE
8
CUT
10
181.34
20
92.27
11
181.94
21
92.59
0
LINE
8
CUT
10
181.94
20
92.59
11
182.47
21
93.03
0
LINE
8
CUT
10
182.47
20
93.03
11
182.91
21
93.56
0
LINE
8
CUT
10
182.91
20
93.56
11
183.23
21
94.16
0
LINE
8
CUT
10
183.23
20
94.16
11
183.43
21
94.82
0
LINE
8
CUT
10
183.43
20
94.82
11
183.5
21
95.5
0
LINE
8
CUT
10
183.5
20
95.5
11
183.5
21
114.5
0
LINE
8
CUT
10
183.5
20
114.5
11
183.43
21
115.18
0
LINE
8
CUT
10
183.43
20
115.18
11
183.23
21
115.84
0
LINE
8
CUT
10
183.23
20
115.84
11
182.91
21
116.44
0
LINE
8
CUT
10
182.91
20
116.44
11
182.47
21
116.97
0
LINE
8
CUT
10
182.47
20
116.97
11
181.94
21
117.41
0
LINE
8
CUT
10
181.94
20
117.41
11
181.34
21
117.73
0
LINE
8
CUT
10
181.34
20
117.73
11
180.68
21
117.93
0
LINE
8
CUT
10
180.68
20
117.93
11
180
21
118
0
LINE
8
CUT
10
180
20
118
11
180
21
118
0
LINE
8
CUT
10
180
20
118
11
179.32
21
117.93
0
LINE
8
CUT
10
179.32
20
117.93
11
178.66
21
117.73
0
LINE
8
CUT
10
178.66
20
117.73
11
178.06
21
117.41
0
LINE
8
CUT
10
178.06
20
117.41
11
177.53
21
116.97
0
LINE
8
CUT
10
177.53
20
116.97
11
177.09
21
116.44
0
LINE
8
CUT
10
177.09
20
116.44
11
176.77
21
115.84
0
LINE
8
CUT
10
176.77
20
115.84
11
176.57
21
115.18
0
LINE
8
CUT
10
176.57
20
115.18
11
176.5
21
114.5
0
LINE
8
CUT
10
176.5
20
114.5
11
176.5
21
95.5
0
LINE
8
CUT
10
62
20
10
11
62.08
21
9.22
0
LINE
8
CUT
10
62.08
20
9.22
11
62.3
21
8.47
0
LINE
8
CUT
10
62.3
20
8.47
11
62.67
21
7.78
0
LINE
8
CUT
10
62.67
20
7.78
11
63.17
21
7.17
0
LINE
8
CUT
10
63.17
20
7.17
11
63.78
21
6.67
0
LINE
8
CUT
10
63.78
20
6.67
11
64.47
21
6.3
0
LINE
8
CUT
10
64.47
20
6.3
11
65.22
21
6.08
0
LINE
8
CUT
10
65.22
20
6.08
11
66
21
6
0
LINE
8
CUT
10
66
20
6
11
74
21
6
0
LINE
8
CUT
10
74
20
6
11
74.78
21
6.08
0
LINE
8
CUT
10
74.78
20
6.08
11
75.53
21
6.3
0
LINE
8
CUT
10
75.53
20
6.3
11
76.22
21
6.67
0
LINE
8
CUT
10
76.22
20
6.67
11
76.83
21
7.17
0
LINE
8
CUT
10
76.83
20
7.17
11
77.33
21
7.78
0
LINE
8
CUT
10
77.33
20
7.78
11
77.7
21
8.47
0
LINE
8
CUT
10
77.7
20
8.47
11
77.92
21
9.22
0
LINE
8
CUT
10
77.92
20
9.22
11
78
21
10
0
LINE
8
CUT
10
78
20
10
11
78
21
10
0
LINE
8
CUT
10
78
20
10
11
77.92
21
10.78
0
LINE
8
CUT
10
77.92
20
10.78
11
77.7
21
11.53
0
LINE
8
CUT
10
77.7
20
11.53
11
77.33
21
12.22
0
LINE
8
CUT
10
77.33
20
12.22
11
76.83
21
12.83
0
LINE
8
CUT
10
76.83
20
12.83
11
76.22
21
13.33
0
LINE
8
CUT
10
76.22
20
13.33
11
75.53
21
13.7
0
LINE
8
CUT
10
75.53
20
13.7
11
74.78
21
13.92
0
LINE
8
CUT
10
74.78
20
13.92
11
74
21
14
0
LINE
8
CUT
10
74
20
14
11
66
21
14
0
LINE
8
CUT
10
66
20
14
11
65.22
21
13.92
0
LINE
8
CUT
10
65.22
20
13.92
11
64.47
21
13.7
0
LINE
8
CUT
10
64.47
20
13.7
11
63.78
21
13.33
0
LINE
8
CUT
10
63.78
20
13.33
11
63.17
21
12.83
0
LINE
8
CUT
10
63.17
20
12.83
11
62.67
21
12.22
0
LINE
8
CUT
10
62.67
20
12.22
11
62.3
21
11.53
0
LINE
8
CUT
10
62.3
20
11.53
11
62.08
21
10.78
0
LINE
8
CUT
10
62.08
20
10.78
11
62
21
10
0
LINE
8
CUT
10
62
20
10
11
62
21
10
0
LINE
8
CUT
10
182
20
10
11
182.08
21
9.22
0
LINE
8
CUT
10
182.08
20
9.22
11
182.3
21
8.47
0
LINE
8
CUT
10
182.3
20
8.47
11
182.67
21
7.78
0
LINE
8
CUT
10
182.67
20
7.78
11
183.17
21
7.17
0
LINE
8
CUT
10
183.17
20
7.17
11
183.78
21
6.67
0
LINE
8
CUT
10
183.78
20
6.67
11
184.47
21
6.3
0
LINE
8
CUT
10
184.47
20
6.3
11
185.22
21
6.08
0
LINE
8
CUT
10
185.22
20
6.08
11
186
21
6
0
LINE
8
CUT
10
186
20
6
11
194
21
6
0
LINE
8
CUT
10
194
20
6
11
194.78
21
6.08
0
LINE
8
CUT
10
194.78
20
6.08
11
195.53
21
6.3
0
LINE
8
CUT
10
195.53
20
6.3
11
196.22
21
6.67
0
LINE
8
CUT
10
196.22
20
6.67
11
196.83
21
7.17
0
LINE
8
CUT
10
196.83
20
7.17
11
197.33
21
7.78
0
LINE
8
CUT
10
197.33
20
7.78
11
197.7
21
8.47
0
LINE
8
CUT
10
197.7
20
8.47
11
197.92
21
9.22
0
LINE
8
CUT
10
197.92
20
9.22
11
198
21
10
0
LINE
8
CUT
10
198
20
10
11
198
21
10
0
LINE
8
CUT
10
198
20
10
11
197.92
21
10.78
0
LINE
8
CUT
10
197.92
20
10.78
11
197.7
21
11.53
0
LINE
8
CUT
10
197.7
20
11.53
11
197.33
21
12.22
0
LINE
8
CUT
10
197.33
20
12.22
11
196.83
21
12.83
0
LINE
8
CUT
10
196.83
20
12.83
11
196.22
21
13.33
0
LINE
8
CUT
10
196.22
20
13.33
11
195.53
21
13.7
0
LINE
8
CUT
10
195.53
20
13.7
11
194.78
21
13.92
0
LINE
8
CUT
10
194.78
20
13.92
11
194
21
14
0
LINE
8
CUT
10
194
20
14
11
186
21
14
0
LINE
8
CUT
10
186
20
14
11
185.22
21
13.92
0
LINE
8
CUT
10
185.22
20
13.92
11
184.47
21
13.7
0
LINE
8
CUT
10
184.47
20
13.7
11
183.78
21
13.33
0
LINE
8
CUT
10
183.78
20
13.33
11
183.17
21
12.83
0
LINE
8
CUT
10
183.17
20
12.83
11
182.67
21
12.22
0
LINE
8
CUT
10
182.67
20
12.22
11
182.3
21
11.53
0
LINE
8
CUT
10
182.3
20
11.53
11
182.08
21
10.78
0
LINE
8
CUT
10
182.08
20
10.78
11
182
21
10
0
LINE
8
CUT
10
182
20
10
11
182
21
10
0
LINE
8
CUT
10
62
20
170
11
62.08
21
169.22
0
LINE
8
CUT
10
62.08
20
169.22
11
62.3
21
168.47
0
LINE
8
CUT
10
62.3
20
168.47
11
62.67
21
167.78
0
LINE
8
CUT
10
62.67
20
167.78
11
63.17
21
167.17
0
LINE
8
CUT
10
63.17
20
167.17
11
63.78
21
166.67
0
LINE
8
CUT
10
63.78
20
166.67
11
64.47
21
166.3
0
LINE
8
CUT
10
64.47
20
166.3
11
65.22
21
166.08
0
LINE
8
CUT
10
65.22
20
166.08
11
66
21
166
0
LINE
8
CUT
10
66
20
166
11
74
21
166
0
LINE
8
CUT
10
74
20
166
11
74.78
21
166.08
0
LINE
8
CUT
10
74.78
20
166.08
11
75.53
21
166.3
0
LINE
8
CUT
10
75.53
20
166.3
11
76.22
21
166.67
0
LINE
8
CUT
10
76.22
20
166.67
11
76.83
21
167.17
0
LINE
8
CUT
10
76.83
20
167.17
11
77.33
21
167.78
0
LINE
8
CUT
10
77.33
20
167.78
11
77.7
21
168.47
0
LINE
8
CUT
10
77.7
20
168.47
11
77.92
21
169.22
0
LINE
8
CUT
10
77.92
20
169.22
11
78
21
170
0
LINE
8
CUT
10
78
20
170
11
78
21
170
0
LINE
8
CUT
10
78
20
170
11
77.92
21
170.78
0
LINE
8
CUT
10
77.92
20
170.78
11
77.7
21
171.53
0
LINE
8
CUT
10
77.7
20
171.53
11
77.33
21
172.22
0
LINE
8
CUT
10
77.33
20
172.22
11
76.83
21
172.83
0
LINE
8
CUT
10
76.83
20
172.83
11
76.22
21
173.33
0
LINE
8
CUT
10
76.22
20
173.33
11
75.53
21
173.7
0
LINE
8
CUT
10
75.53
20
173.7
11
74.78
21
173.92
0
LINE
8
CUT
10
74.78
20
173.92
11
74
21
174
0
LINE
8
CUT
10
74
20
174
11
66
21
174
0
LINE
8
CUT
10
66
20
174
11
65.22
21
173.92
0
LINE
8
CUT
10
65.22
20
173.92
11
64.47
21
173.7
0
LINE
8
CUT
10
64.47
20
173.7
11
63.78
21
173.33
0
LINE
8
CUT
10
63.78
20
173.33
11
63.17
21
172.83
0
LINE
8
CUT
10
63.17
20
172.83
11
62.67
21
172.22
0
LINE
8
CUT
10
62.67
20
172.22
11
62.3
21
171.53
0
LINE
8
CUT
10
62.3
20
171.53
11
62.08
21
170.78
0
LINE
8
CUT
10
62.08
20
170.78
11
62
21
170
0
LINE
8
CUT
10
62
20
170
11
62
21
170
0
LINE
8
CUT
10
182
20
170
11
182.08
21
169.22
0
LINE
8
CUT
10
182.08
20
169.22
11
182.3
21
168.47
0
LINE
8
CUT
10
182.3
20
168.47
11
182.67
21
167.78
0
LINE
8
CUT
10
182.67
20
167.78
11
183.17
21
167.17
0
LINE
8
CUT
10
183.17
20
167.17
11
183.78
21
166.67
0
LINE
8
CUT
10
183.78
20
166.67
11
184.47
21
166.3
0
LINE
8
CUT
10
184.47
20
166.3
11
185.22
21
166.08
0
LINE
8
CUT
10
185.22
20
166.08
11
186
21
166
0
LINE
8
CUT
10
186
20
166
11
194
21
166
0
LINE
8
CUT
10
194
20
166
11
194.78
21
166.08
0
LINE
8
CUT
10
194.78
20
166.08
11
195.53
21
166.3
0
LINE
8
CUT
10
195.53
20
166.3
11
196.22
21
166.67
0
LINE
8
CUT
10
196.22
20
166.67
11
196.83
21
167.17
0
LINE
8
CUT
10
196.83
20
167.17
11
197.33
21
167.78
0
LINE
8
CUT
10
197.33
20
167.78
11
197.7
21
168.47
0
LINE
8
CUT
10
197.7
20
168.47
11
197.92
21
169.22
0
LINE
8
CUT
10
197.92
20
169.22
11
198
21
170
0
LINE
8
CUT
10
198
20
170
11
198
21
170
0
LINE
8
CUT
10
198
20
170
11
197.92
21
170.78
0
LINE
8
CUT
10
197.92
20
170.78
11
197.7
21
171.53
0
LINE
8
CUT
10
197.7
20
171.53
11
197.33
21
172.22
0
LINE
8
CUT
10
197.33
20
172.22
11
196.83
21
172.83
0
LINE
8
CUT
10
196.83
20
172.83
11
196.22
21
173.33
0
LINE
8
CUT
10
196.22
20
173.33
11
195.53
21
173.7
0
LINE
8
CUT
10
195.53
20
173.7
11
194.78
21
173.92
0
LINE
8
CUT
10
194.78
20
173.92
11
194
21
174
0
LINE
8
CUT
10
194
20
174
11
186
21
174
0
LINE
8
CUT
10
186
20
174
11
185.22
21
173.92
0
LINE
8
CUT
10
185.22
20
173.92
11
184.47
21
173.7
0
LINE
8
CUT
10
184.47
20
173.7
11
183.78
21
173.33
0
LINE
8
CUT
10
183.78
20
173.33
11
183.17
21
172.83
0
LINE
8
CUT
10
183.17
20
172.83
11
182.67
21
172.22
0
LINE
8
CUT
10
182.67
20
172.22
11
182.3
21
171.53
0
LINE
8
CUT
10
182.3
20
171.53
11
182.08
21
170.78
0
LINE
8
CUT
10
182.08
20
170.78
11
182
21
170
0
LINE
8
CUT
10
182
20
170
11
182
21
170
0
LINE
8
CUT
10
6
20
86
11
6.08
21
85.22
0
LINE
8
CUT
10
6.08
20
85.22
11
6.3
21
84.47
0
LINE
8
CUT
10
6.3
20
84.47
11
6.67
21
83.78
0
LINE
8
CUT
10
6.67
20
83.78
11
7.17
21
83.17
0
LINE
8
CUT
10
7.17
20
83.17
11
7.78
21
82.67
0
LINE
8
CUT
10
7.78
20
82.67
11
8.47
21
82.3
0
LINE
8
CUT
10
8.47
20
82.3
11
9.22
21
82.08
0
LINE
8
CUT
10
9.22
20
82.08
11
10
21
82
0
LINE
8
CUT
10
10
20
82
11
10
21
82
0
LINE
8
CUT
10
10
20
82
11
10.78
21
82.08
0
LINE
8
CUT
10
10.78
20
82.08
11
11.53
21
82.3
0
LINE
8
CUT
10
11.53
20
82.3
11
12.22
21
82.67
0
LINE
8
CUT
10
12.22
20
82.67
11
12.83
21
83.17
0
LINE
8
CUT
10
12.83
20
83.17
11
13.33
21
83.78
0
LINE
8
CUT
10
13.33
20
83.78
11
13.7
21
84.47
0
LINE
8
CUT
10
13.7
20
84.47
11
13.92
21
85.22
0
LINE
8
CUT
10
13.92
20
85.22
11
14
21
86
0
LINE
8
CUT
10
14
20
86
11
14
21
94
0
LINE
8
CUT
10
14
20
94
11
13.92
21
94.78
0
LINE
8
CUT
10
13.92
20
94.78
11
13.7
21
95.53
0
LINE
8
CUT
10
13.7
20
95.53
11
13.33
21
96.22
0
LINE
8
CUT
10
13.33
20
96.22
11
12.83
21
96.83
0
LINE
8
CUT
10
12.83
20
96.83
11
12.22
21
97.33
0
LINE
8
CUT
10
12.22
20
97.33
11
11.53
21
97.7
0
LINE
8
CUT
10
11.53
20
97.7
11
10.78
21
97.92
0
LINE
8
CUT
10
10.78
20
97.92
11
10
21
98
0
LINE
8
CUT
10
10
20
98
11
10
21
98
0
LINE
8
CUT
10
10
20
98
11
9.22
21
97.92
0
LINE
8
CUT
10
9.22
20
97.92
11
8.47
21
97.7
0
LINE
8
CUT
10
8.47
20
97.7
11
7.78
21
97.33
0
LINE
8
CUT
10
7.78
20
97.33
11
7.17
21
96.83
0
LINE
8
CUT
10
7.17
20
96.83
11
6.67
21
96.22
0
LINE
8
CUT
10
6.67
20
96.22
11
6.3
21
95.53
0
LINE
8
CUT
10
6.3
20
95.53
11
6.08
21
94.78
0
LINE
8
CUT
10
6.08
20
94.78
11
6
21
94
0
LINE
8
CUT
10
6
20
94
11
6
21
86
0
LINE
8
CUT
10
246
20
86
11
246.08
21
85.22
0
LINE
8
CUT
10
246.08
20
85.22
11
246.3
21
84.47
0
LINE
8
CUT
10
246.3
20
84.47
11
246.67
21
83.78
0
LINE
8
CUT
10
246.67
20
83.78
11
247.17
21
83.17
0
LINE
8
CUT
10
247.17
20
83.17
11
247.78
21
82.67
0
LINE
8
CUT
10
247.78
20
82.67
11
248.47
21
82.3
0
LINE
8
CUT
10
248.47
20
82.3
11
249.22
21
82.08
0
LINE
8
CUT
10
249.22
20
82.08
11
250
21
82
0
LINE
8
CUT
10
250
20
82
11
250
21
82
0
LINE
8
CUT
10
250
20
82
11
250.78
21
82.08
0
LINE
8
CUT
10
250.78
20
82.08
11
251.53
21
82.3
0
LINE
8
CUT
10
251.53
20
82.3
11
252.22
21
82.67
0
LINE
8
CUT
10
252.22
20
82.67
11
252.83
21
83.17
0
LINE
8
CUT
10
252.83
20
83.17
11
253.33
21
83.78
0
LINE
8
CUT
10
253.33
20
83.78
11
253.7
21
84.47
0
LINE
8
CUT
10
253.7
20
84.47
11
253.92
21
85.22
0
LINE
8
CUT
10
253.92
20
85.22
11
254
21
86
0
LINE
8
CUT
10
254
20
86
11
254
21
94
0
LINE
8
CUT
10
254
20
94
11
253.92
21
94.78
0
LINE
8
CUT
10
253.92
20
94.78
11
253.7
21
95.53
0
LINE
8
CUT
10
253.7
20
95.53
11
253.33
21
96.22
0
LINE
8
CUT
10
253.33
20
96.22
11
252.83
21
96.83
0
LINE
8
CUT
10
252.83
20
96.83
11
252.22
21
97.33
0
LINE
8
CUT
10
252.22
20
97.33
11
251.53
21
97.7
0
LINE
8
CUT
10
251.53
20
97.7
11
250.78
21
97.92
0
LINE
8
CUT
10
250.78
20
97.92
11
250
21
98
0
LINE
8
CUT
10
250
20
98
11
250
21
98
0
LINE
8
CUT
10
250
20
98
11
249.22
21
97.92
0
LINE
8
CUT
10
249.22
20
97.92
11
248.47
21
97.7
0
LINE
8
CUT
10
248.47
20
97.7
11
247.78
21
97.33
0
LINE
8
CUT
10
247.78
20
97.33
11
247.17
21
96.83
0
LINE
8
CUT
10
247.17
20
96.83
11
246.67
21
96.22
0
LINE
8
CUT
10
246.67
20
96.22
11
246.3
21
95.53
0
LINE
8
CUT
10
246.3
20
95.53
11
246.08
21
94.78
0
LINE
8
CUT
10
246.08
20
94.78
11
246
21
94
0
LINE
8
CUT
10
246
20
94
11
246
21
86
0
CIRCLE
8
CUT
10
60
20
10
40
2.25
0
CIRCLE
8
CUT
10
200
20
10
40
2.25
0
CIRCLE
8
CUT
10
60
20
170
40
2.25
0
CIRCLE
8
CUT
10
200
20
170
40
2.25
0
CIRCLE
8
CUT
10
10
20
90
40
2.25
0
CIRCLE
8
CUT
10
250
20
90
40
2.25
0
LINE
8
BEND
10
20
20
20
11
240
21
20
0
LINE
8
BEND
10
20
20
160
11
240
21
160
0
LINE
8
BEND
10
20
20
20
11
20
21
160
0
LINE
8
BEND
10
240
20
20
11
240
21
160
0
ENDSEC
0
EOF
