0
SECTION
2
HEADER
9
$INSUNITS
70
4
0
ENDSEC
0
SECTION
2
ENTITIES
0
LINE
8
CUT
10
0
20
0
11
210
21
0
0
LINE
8
CUT
10
210
20
0
11
210
21
130
0
LINE
8
CUT
10
210
20
130
11
0
21
130
0
LINE
8
CUT
10
0
20
130
11
0
21
0
0
LINE
8
CUT
10
42
20
120
11
42.08
21
119.22
0
LINE
8
CUT
10
42.08
20
119.22
11
42.3
21
118.47
0
LINE
8
CUT
10
42.3
20
118.47
11
42.67
21
117.78
0
LINE
8
CUT
10
42.67
20
117.78
11
43.17
21
117.17
0
LINE
8
CUT
10
43.17
20
117.17
11
43.78
21
116.67
0
LINE
8
CUT
10
43.78
20
116.67
11
44.47
21
116.3
0
LINE
8
CUT
10
44.47
20
116.3
11
45.22
21
116.08
0
LINE
8
CUT
10
45.22
20
116.08
11
46
21
116
0
LINE
8
CUT
10
46
20
116
11
66
21
116
0
LINE
8
CUT
10
66
20
116
11
66.78
21
116.08
0
LINE
8
CUT
10
66.78
20
116.08
11
67.53
21
116.3
0
LINE
8
CUT
10
67.53
20
116.3
11
68.22
21
116.67
0
LINE
8
CUT
10
68.22
20
116.67
11
68.83
21
117.17
0
LINE
8
CUT
10
68.83
20
117.17
11
69.33
21
117.78
0
LINE
8
CUT
10
69.33
20
117.78
11
69.7
21
118.47
0
LINE
8
CUT
10
69.7
20
118.47
11
69.92
21
119.22
0
LINE
8
CUT
10
69.92
20
119.22
11
70
21
120
0
LINE
8
CUT
10
70
20
120
11
70
21
120
0
LINE
8
CUT
10
70
20
120
11
69.92
21
120.78
0
LINE
8
CUT
10
69.92
20
120.78
11
69.7
21
121.53
0
LINE
8
CUT
10
69.7
20
121.53
11
69.33
21
122.22
0
LINE
8
CUT
10
69.33
20
122.22
11
68.83
21
122.83
0
LINE
8
CUT
10
68.83
20
122.83
11
68.22
21
123.33
0
LINE
8
CUT
10
68.22
20
123.33
11
67.53
21
123.7
0
LINE
8
CUT
10
67.53
20
123.7
11
66.78
21
123.92
0
LINE
8
CUT
10
66.78
20
123.92
11
66
21
124
0
LINE
8
CUT
10
66
20
124
11
46
21
124
0
LINE
8
CUT
10
46
20
124
11
45.22
21
123.92
0
LINE
8
CUT
10
45.22
20
123.92
11
44.47
21
123.7
0
LINE
8
CUT
10
44.47
20
123.7
11
43.78
21
123.33
0
LINE
8
CUT
10
43.78
20
123.33
11
43.17
21
122.83
0
LINE
8
CUT
10
43.17
20
122.83
11
42.67
21
122.22
0
LINE
8
CUT
10
42.67
20
122.22
11
42.3
21
121.53
0
LINE
8
CUT
10
42.3
20
121.53
11
42.08
21
120.78
0
LINE
8
CUT
10
42.08
20
120.78
11
42
21
120
0
LINE
8
CUT
10
42
20
120
11
42
21
120
0
LINE
8
CUT
10
140
20
120
11
140.08
21
119.22
0
LINE
8
CUT
10
140.08
20
119.22
11
140.3
21
118.47
0
LINE
8
CUT
10
140.3
20
118.47
11
140.67
21
117.78
0
LINE
8
CUT
10
140.67
20
117.78
11
141.17
21
117.17
0
LINE
8
CUT
10
141.17
20
117.17
11
141.78
21
116.67
0
LINE
8
CUT
10
141.78
20
116.67
11
142.47
21
116.3
0
LINE
8
CUT
10
142.47
20
116.3
11
143.22
21
116.08
0
LINE
8
CUT
10
143.22
20
116.08
11
144
21
116
0
LINE
8
CUT
10
144
20
116
11
164
21
116
0
LINE
8
CUT
10
164
20
116
11
164.78
21
116.08
0
LINE
8
CUT
10
164.78
20
116.08
11
165.53
21
116.3
0
LINE
8
CUT
10
165.53
20
116.3
11
166.22
21
116.67
0
LINE
8
CUT
10
166.22
20
116.67
11
166.83
21
117.17
0
LINE
8
CUT
10
166.83
20
117.17
11
167.33
21
117.78
0
LINE
8
CUT
10
167.33
20
117.78
11
167.7
21
118.47
0
LINE
8
CUT
10
167.7
20
118.47
11
167.92
21
119.22
0
LINE
8
CUT
10
167.92
20
119.22
11
168
21
120
0
LINE
8
CUT
10
168
20
120
11
168
21
120
0
LINE
8
CUT
10
168
20
120
11
167.92
21
120.78
0
LINE
8
CUT
10
167.92
20
120.78
11
167.7
21
121.53
0
LINE
8
CUT
10
167.7
20
121.53
11
167.33
21
122.22
0
LINE
8
CUT
10
167.33
20
122.22
11
166.83
21
122.83
0
LINE
8
CUT
10
166.83
20
122.83
11
166.22
21
123.33
0
LINE
8
CUT
10
166.22
20
123.33
11
165.53
21
123.7
0
LINE
8
CUT
10
165.53
20
123.7
11
164.78
21
123.92
0
LINE
8
CUT
10
164.78
20
123.92
11
164
21
124
0
LINE
8
CUT
10
164
20
124
11
144
21
124
0
LINE
8
CUT
10
144
20
124
11
143.22
21
123.92
0
LINE
8
CUT
10
143.22
20
123.92
11
142.47
21
123.7
0
LINE
8
CUT
10
142.47
20
123.7
11
141.78
21
123.33
0
LINE
8
CUT
10
141.78
20
123.33
11
141.17
21
122.83
0
LINE
8
CUT
10
141.17
20
122.83
11
140.67
21
122.22
0
LINE
8
CUT
10
140.67
20
122.22
11
140.3
21
121.53
0
LINE
8
CUT
10
140.3
20
121.53
11
140.08
21
120.78
0
LINE
8
CUT
10
140.08
20
120.78
11
140
21
120
0
LINE
8
CUT
10
140
20
120
11
140
21
120
0
CIRCLE
8
CUT
10
35
20
5
40
2.25
0
CIRCLE
8
CUT
10
175
20
5
40
2.25
0
CIRCLE
8
CUT
10
35
20
125
40
2.25
0
CIRCLE
8
CUT
10
175
20
125
40
2.25
0
CIRCLE
8
CUT
10
5
20
65
40
2.25
0
CIRCLE
8
CUT
10
205
20
65
40
2.25
0
ENDSEC
0
EOF
