0
SECTION
2
HEADER
9
$INSUNITS
70
4
0
ENDSEC
0
SECTION
2
ENTITIES
0
LINE
8
CUT
10
20
20
0
11
340
21
0
0
LINE
8
CUT
10
340
20
0
11
340
21
20
0
LINE
8
CUT
10
340
20
20
11
360
21
20
0
LINE
8
CUT
10
360
20
20
11
360
21
240
0
LINE
8
CUT
10
360
20
240
11
340
21
240
0
LINE
8
CUT
10
340
20
240
11
340
21
260
0
LINE
8
CUT
10
340
20
260
11
20
21
260
0
LINE
8
CUT
10
20
20
260
11
20
21
240
0
LINE
8
CUT
10
20
20
240
11
0
21
240
0
LINE
8
CUT
10
0
20
240
11
0
21
20
0
LINE
8
CUT
10
0
20
20
11
20
21
20
0
LINE
8
CUT
10
20
20
20
11
20
21
0
0
LINE
8
CUT
10
34
20
46.5
11
34.09
21
45.62
0
LINE
8
CUT
10
34.09
20
45.62
11
34.34
21
44.78
0
LINE
8
CUT
10
34.34
20
44.78
11
34.76
21
44
0
LINE
8
CUT
10
34.76
20
44
11
35.32
21
43.32
0
LINE
8
CUT
10
35.32
20
43.32
11
36
21
42.76
0
LINE
8
CUT
10
36
20
42.76
11
36.78
21
42.34
0
LINE
8
CUT
10
36.78
20
42.34
11
37.62
21
42.09
0
LINE
8
CUT
10
37.62
20
42.09
11
38.5
21
42
0
LINE
8
CUT
10
38.5
20
42
11
47.5
21
42
0
LINE
8
CUT
10
47.5
20
42
11
48.38
21
42.09
0
LINE
8
CUT
10
48.38
20
42.09
11
49.22
21
42.34
0
LINE
8
CUT
10
49.22
20
42.34
11
50
21
42.76
0
LINE
8
CUT
10
50
20
42.76
11
50.68
21
43.32
0
LINE
8
CUT
10
50.68
20
43.32
11
51.24
21
44
0
LINE
8
CUT
10
51.24
20
44
11
51.66
21
44.78
0
LINE
8
CUT
10
51.66
20
44.78
11
51.91
21
45.62
0
LINE
8
CUT
10
51.91
20
45.62
11
52
21
46.5
0
LINE
8
CUT
10
52
20
46.5
11
52
21
46.5
0
LINE
8
CUT
10
52
20
46.5
11
51.91
21
47.38
0
LINE
8
CUT
10
51.91
20
47.38
11
51.66
21
48.22
0
LINE
8
CUT
10
51.66
20
48.22
11
51.24
21
49
0
LINE
8
CUT
10
51.24
20
49
11
50.68
21
49.68
0
LINE
8
CUT
10
50.68
20
49.68
11
50
21
50.24
0
LINE
8
CUT
10
50
20
50.24
11
49.22
21
50.66
0
LINE
8
CUT
10
49.22
20
50.66
11
48.38
21
50.91
0
LINE
8
CUT
10
48.38
20
50.91
11
47.5
21
51
0
LINE
8
CUT
10
47.5
20
51
11
38.5
21
51
0
LINE
8
CUT
10
38.5
20
51
11
37.62
21
50.91
0
LINE
8
CUT
10
37.62
20
50.91
11
36.78
21
50.66
0
LINE
8
CUT
10
36.78
20
50.66
11
36
21
50.24
0
LINE
8
CUT
10
36
20
50.24
11
35.32
21
49.68
0
LINE
8
CUT
10
35.32
20
49.68
11
34.76
21
49
0
LINE
8
CUT
10
34.76
20
49
11
34.34
21
48.22
0
LINE
8
CUT
10
34.34
20
48.22
11
34.09
21
47.38
0
LINE
8
CUT
10
34.09
20
47.38
11
34
21
46.5
0
LINE
8
CUT
10
34
20
46.5
11
34
21
46.5
0
LINE
8
CUT
10
308
20
46.5
11
308.09
21
45.62
0
LINE
8
CUT
10
308.09
20
45.62
11
308.34
21
44.78
0
LINE
8
CUT
10
308.34
20
44.78
11
308.76
21
44
0
LINE
8
CUT
10
308.76
20
44
11
309.32
21
43.32
0
LINE
8
CUT
10
309.32
20
43.32
11
310
21
42.76
0
LINE
8
CUT
10
310
20
42.76
11
310.78
21
42.34
0
LINE
8
CUT
10
310.78
20
42.34
11
311.62
21
42.09
0
LINE
8
CUT
10
311.62
20
42.09
11
312.5
21
42
0
LINE
8
CUT
10
312.5
20
42
11
321.5
21
42
0
LINE
8
CUT
10
321.5
20
42
11
322.38
21
42.09
0
LINE
8
CUT
10
322.38
20
42.09
11
323.22
21
42.34
0
LINE
8
CUT
10
323.22
20
42.34
11
324
21
42.76
0
LINE
8
CUT
10
324
20
42.76
11
324.68
21
43.32
0
LINE
8
CUT
10
324.68
20
43.32
11
325.24
21
44
0
LINE
8
CUT
10
325.24
20
44
11
325.66
21
44.78
0
LINE
8
CUT
10
325.66
20
44.78
11
325.91
21
45.62
0
LINE
8
CUT
10
325.91
20
45.62
11
326
21
46.5
0
LINE
8
CUT
10
326
20
46.5
11
326
21
46.5
0
LINE
8
CUT
10
326
20
46.5
11
325.91
21
47.38
0
LINE
8
CUT
10
325.91
20
47.38
11
325.66
21
48.22
0
LINE
8
CUT
10
325.66
20
48.22
11
325.24
21
49
0
LINE
8
CUT
10
325.24
20
49
11
324.68
21
49.68
0
LINE
8
CUT
10
324.68
20
49.68
11
324
21
50.24
0
LINE
8
CUT
10
324
20
50.24
11
323.22
21
50.66
0
LINE
8
CUT
10
323.22
20
50.66
11
322.38
21
50.91
0
LINE
8
CUT
10
322.38
20
50.91
11
321.5
21
51
0
LINE
8
CUT
10
321.5
20
51
11
312.5
21
51
0
LINE
8
CUT
10
312.5
20
51
11
311.62
21
50.91
0
LINE
8
CUT
10
311.62
20
50.91
11
310.78
21
50.66
0
LINE
8
CUT
10
310.78
20
50.66
11
310
21
50.24
0
LINE
8
CUT
10
310
20
50.24
11
309.32
21
49.68
0
LINE
8
CUT
10
309.32
20
49.68
11
308.76
21
49
0
LINE
8
CUT
10
308.76
20
49
11
308.34
21
48.22
0
LINE
8
CUT
10
308.34
20
48.22
11
308.09
21
47.38
0
LINE
8
CUT
10
308.09
20
47.38
11
308
21
46.5
0
LINE
8
CUT
10
308
20
46.5
11
308
21
46.5
0
LINE
8
CUT
10
34
20
213.5
11
34.09
21
212.62
0
LINE
8
CUT
10
34.09
20
212.62
11
34.34
21
211.78
0
LINE
8
CUT
10
34.34
20
211.78
11
34.76
21
211
0
LINE
8
CUT
10
34.76
20
211
11
35.32
21
210.32
0
LINE
8
CUT
10
35.32
20
210.32
11
36
21
209.76
0
LINE
8
CUT
10
36
20
209.76
11
36.78
21
209.34
0
LINE
8
CUT
10
36.78
20
209.34
11
37.62
21
209.09
0
LINE
8
CUT
10
37.62
20
209.09
11
38.5
21
209
0
LINE
8
CUT
10
38.5
20
209
11
47.5
21
209
0
LINE
8
CUT
10
47.5
20
209
11
48.38
21
209.09
0
LINE
8
CUT
10
48.38
20
209.09
11
49.22
21
209.34
0
LINE
8
CUT
10
49.22
20
209.34
11
50
21
209.76
0
LINE
8
CUT
10
50
20
209.76
11
50.68
21
210.32
0
LINE
8
CUT
10
50.68
20
210.32
11
51.24
21
211
0
LINE
8
CUT
10
51.24
20
211
11
51.66
21
211.78
0
LINE
8
CUT
10
51.66
20
211.78
11
51.91
21
212.62
0
LINE
8
CUT
10
51.91
20
212.62
11
52
21
213.5
0
LINE
8
CUT
10
52
20
213.5
11
52
21
213.5
0
LINE
8
CUT
10
52
20
213.5
11
51.91
21
214.38
0
LINE
8
CUT
10
51.91
20
214.38
11
51.66
21
215.22
0
LINE
8
CUT
10
51.66
20
215.22
11
51.24
21
216
0
LINE
8
CUT
10
51.24
20
216
11
50.68
21
216.68
0
LINE
8
CUT
10
50.68
20
216.68
11
50
21
217.24
0
LINE
8
CUT
10
50
20
217.24
11
49.22
21
217.66
0
LINE
8
CUT
10
49.22
20
217.66
11
48.38
21
217.91
0
LINE
8
CUT
10
48.38
20
217.91
11
47.5
21
218
0
LINE
8
CUT
10
47.5
20
218
11
38.5
21
218
0
LINE
8
CUT
10
38.5
20
218
11
37.62
21
217.91
0
LINE
8
CUT
10
37.62
20
217.91
11
36.78
21
217.66
0
LINE
8
CUT
10
36.78
20
217.66
11
36
21
217.24
0
LINE
8
CUT
10
36
20
217.24
11
35.32
21
216.68
0
LINE
8
CUT
10
35.32
20
216.68
11
34.76
21
216
0
LINE
8
CUT
10
34.76
20
216
11
34.34
21
215.22
0
LINE
8
CUT
10
34.34
20
215.22
11
34.09
21
214.38
0
LINE
8
CUT
10
34.09
20
214.38
11
34
21
213.5
0
LINE
8
CUT
10
34
20
213.5
11
34
21
213.5
0
LINE
8
CUT
10
308
20
213.5
11
308.09
21
212.62
0
LINE
8
CUT
10
308.09
20
212.62
11
308.34
21
211.78
0
LINE
8
CUT
10
308.34
20
211.78
11
308.76
21
211
0
LINE
8
CUT
10
308.76
20
211
11
309.32
21
210.32
0
LINE
8
CUT
10
309.32
20
210.32
11
310
21
209.76
0
LINE
8
CUT
10
310
20
209.76
11
310.78
21
209.34
0
LINE
8
CUT
10
310.78
20
209.34
11
311.62
21
209.09
0
LINE
8
CUT
10
311.62
20
209.09
11
312.5
21
209
0
LINE
8
CUT
10
312.5
20
209
11
321.5
21
209
0
LINE
8
CUT
10
321.5
20
209
11
322.38
21
209.09
0
LINE
8
CUT
10
322.38
20
209.09
11
323.22
21
209.34
0
LINE
8
CUT
10
323.22
20
209.34
11
324
21
209.76
0
LINE
8
CUT
10
324
20
209.76
11
324.68
21
210.32
0
LINE
8
CUT
10
324.68
20
210.32
11
325.24
21
211
0
LINE
8
CUT
10
325.24
20
211
11
325.66
21
211.78
0
LINE
8
CUT
10
325.66
20
211.78
11
325.91
21
212.62
0
LINE
8
CUT
10
325.91
20
212.62
11
326
21
213.5
0
LINE
8
CUT
10
326
20
213.5
11
326
21
213.5
0
LINE
8
CUT
10
326
20
213.5
11
325.91
21
214.38
0
LINE
8
CUT
10
325.91
20
214.38
11
325.66
21
215.22
0
LINE
8
CUT
10
325.66
20
215.22
11
325.24
21
216
0
LINE
8
CUT
10
325.24
20
216
11
324.68
21
216.68
0
LINE
8
CUT
10
324.68
20
216.68
11
324
21
217.24
0
LINE
8
CUT
10
324
20
217.24
11
323.22
21
217.66
0
LINE
8
CUT
10
323.22
20
217.66
11
322.38
21
217.91
0
LINE
8
CUT
10
322.38
20
217.91
11
321.5
21
218
0
LINE
8
CUT
10
321.5
20
218
11
312.5
21
218
0
LINE
8
CUT
10
312.5
20
218
11
311.62
21
217.91
0
LINE
8
CUT
10
311.62
20
217.91
11
310.78
21
217.66
0
LINE
8
CUT
10
310.78
20
217.66
11
310
21
217.24
0
LINE
8
CUT
10
310
20
217.24
11
309.32
21
216.68
0
LINE
8
CUT
10
309.32
20
216.68
11
308.76
21
216
0
LINE
8
CUT
10
308.76
20
216
11
308.34
21
215.22
0
LINE
8
CUT
10
308.34
20
215.22
11
308.09
21
214.38
0
LINE
8
CUT
10
308.09
20
214.38
11
308
21
213.5
0
LINE
8
CUT
10
308
20
213.5
11
308
21
213.5
0
LINE
8
CUT
10
90
20
130
11
90.29
21
127.07
0
LINE
8
CUT
10
90.29
20
127.07
11
91.14
21
124.26
0
LINE
8
CUT
10
91.14
20
124.26
11
92.53
21
121.67
0
LINE
8
CUT
10
92.53
20
121.67
11
94.39
21
119.39
0
LINE
8
CUT
10
94.39
20
119.39
11
96.67
21
117.53
0
LINE
8
CUT
10
96.67
20
117.53
11
99.26
21
116.14
0
LINE
8
CUT
10
99.26
20
116.14
11
102.07
21
115.29
0
LINE
8
CUT
10
102.07
20
115.29
11
105
21
115
0
LINE
8
CUT
10
105
20
115
11
255
21
115
0
LINE
8
CUT
10
255
20
115
11
257.93
21
115.29
0
LINE
8
CUT
10
257.93
20
115.29
11
260.74
21
116.14
0
LINE
8
CUT
10
260.74
20
116.14
11
263.33
21
117.53
0
LINE
8
CUT
10
263.33
20
117.53
11
265.61
21
119.39
0
LINE
8
CUT
10
265.61
20
119.39
11
267.47
21
121.67
0
LINE
8
CUT
10
267.47
20
121.67
11
268.86
21
124.26
0
LINE
8
CUT
10
268.86
20
124.26
11
269.71
21
127.07
0
LINE
8
CUT
10
269.71
20
127.07
11
270
21
130
0
LINE
8
CUT
10
270
20
130
11
270
21
130
0
LINE
8
CUT
10
270
20
130
11
269.71
21
132.93
0
LINE
8
CUT
10
269.71
20
132.93
11
268.86
21
135.74
0
LINE
8
CUT
10
268.86
20
135.74
11
267.47
21
138.33
0
LINE
8
CUT
10
267.47
20
138.33
11
265.61
21
140.61
0
LINE
8
CUT
10
265.61
20
140.61
11
263.33
21
142.47
0
LINE
8
CUT
10
263.33
20
142.47
11
260.74
21
143.86
0
LINE
8
CUT
10
260.74
20
143.86
11
257.93
21
144.71
0
LINE
8
CUT
10
257.93
20
144.71
11
255
21
145
0
LINE
8
CUT
10
255
20
145
11
105
21
145
0
LINE
8
CUT
10
105
20
145
11
102.07
21
144.71
0
LINE
8
CUT
10
102.07
20
144.71
11
99.26
21
143.86
0
LINE
8
CUT
10
99.26
20
143.86
11
96.67
21
142.47
0
LINE
8
CUT
10
96.67
20
142.47
11
94.39
21
140.61
0
LINE
8
CUT
10
94.39
20
140.61
11
92.53
21
138.33
0
LINE
8
CUT
10
92.53
20
138.33
11
91.14
21
135.74
0
LINE
8
CUT
10
91.14
20
135.74
11
90.29
21
132.93
0
LINE
8
CUT
10
90.29
20
132.93
11
90
21
130
0
LINE
8
CUT
10
90
20
130
11
90
21
130
0
LINE
8
CUT
10
72
20
10
11
72.08
21
9.22
0
LINE
8
CUT
10
72.08
20
9.22
11
72.3
21
8.47
0
LINE
8
CUT
10
72.3
20
8.47
11
72.67
21
7.78
0
LINE
8
CUT
10
72.67
20
7.78
11
73.17
21
7.17
0
LINE
8
CUT
10
73.17
20
7.17
11
73.78
21
6.67
0
LINE
8
CUT
10
73.78
20
6.67
11
74.47
21
6.3
0
LINE
8
CUT
10
74.47
20
6.3
11
75.22
21
6.08
0
LINE
8
CUT
10
75.22
20
6.08
11
76
21
6
0
LINE
8
CUT
10
76
20
6
11
84
21
6
0
LINE
8
CUT
10
84
20
6
11
84.78
21
6.08
0
LINE
8
CUT
10
84.78
20
6.08
11
85.53
21
6.3
0
LINE
8
CUT
10
85.53
20
6.3
11
86.22
21
6.67
0
LINE
8
CUT
10
86.22
20
6.67
11
86.83
21
7.17
0
LINE
8
CUT
10
86.83
20
7.17
11
87.33
21
7.78
0
LINE
8
CUT
10
87.33
20
7.78
11
87.7
21
8.47
0
LINE
8
CUT
10
87.7
20
8.47
11
87.92
21
9.22
0
LINE
8
CUT
10
87.92
20
9.22
11
88
21
10
0
LINE
8
CUT
10
88
20
10
11
88
21
10
0
LINE
8
CUT
10
88
20
10
11
87.92
21
10.78
0
LINE
8
CUT
10
87.92
20
10.78
11
87.7
21
11.53
0
LINE
8
CUT
10
87.7
20
11.53
11
87.33
21
12.22
0
LINE
8
CUT
10
87.33
20
12.22
11
86.83
21
12.83
0
LINE
8
CUT
10
86.83
20
12.83
11
86.22
21
13.33
0
LINE
8
CUT
10
86.22
20
13.33
11
85.53
21
13.7
0
LINE
8
CUT
10
85.53
20
13.7
11
84.78
21
13.92
0
LINE
8
CUT
10
84.78
20
13.92
11
84
21
14
0
LINE
8
CUT
10
84
20
14
11
76
21
14
0
LINE
8
CUT
10
76
20
14
11
75.22
21
13.92
0
LINE
8
CUT
10
75.22
20
13.92
11
74.47
21
13.7
0
LINE
8
CUT
10
74.47
20
13.7
11
73.78
21
13.33
0
LINE
8
CUT
10
73.78
20
13.33
11
73.17
21
12.83
0
LINE
8
CUT
10
73.17
20
12.83
11
72.67
21
12.22
0
LINE
8
CUT
10
72.67
20
12.22
11
72.3
21
11.53
0
LINE
8
CUT
10
72.3
20
11.53
11
72.08
21
10.78
0
LINE
8
CUT
10
72.08
20
10.78
11
72
21
10
0
LINE
8
CUT
10
72
20
10
11
72
21
10
0
LINE
8
CUT
10
272
20
10
11
272.08
21
9.22
0
LINE
8
CUT
10
272.08
20
9.22
11
272.3
21
8.47
0
LINE
8
CUT
10
272.3
20
8.47
11
272.67
21
7.78
0
LINE
8
CUT
10
272.67
20
7.78
11
273.17
21
7.17
0
LINE
8
CUT
10
273.17
20
7.17
11
273.78
21
6.67
0
LINE
8
CUT
10
273.78
20
6.67
11
274.47
21
6.3
0
LINE
8
CUT
10
274.47
20
6.3
11
275.22
21
6.08
0
LINE
8
CUT
10
275.22
20
6.08
11
276
21
6
0
LINE
8
CUT
10
276
20
6
11
284
21
6
0
LINE
8
CUT
10
284
20
6
11
284.78
21
6.08
0
LINE
8
CUT
10
284.78
20
6.08
11
285.53
21
6.3
0
LINE
8
CUT
10
285.53
20
6.3
11
286.22
21
6.67
0
LINE
8
CUT
10
286.22
20
6.67
11
286.83
21
7.17
0
LINE
8
CUT
10
286.83
20
7.17
11
287.33
21
7.78
0
LINE
8
CUT
10
287.33
20
7.78
11
287.7
21
8.47
0
LINE
8
CUT
10
287.7
20
8.47
11
287.92
21
9.22
0
LINE
8
CUT
10
287.92
20
9.22
11
288
21
10
0
LINE
8
CUT
10
288
20
10
11
288
21
10
0
LINE
8
CUT
10
288
20
10
11
287.92
21
10.78
0
LINE
8
CUT
10
287.92
20
10.78
11
287.7
21
11.53
0
LINE
8
CUT
10
287.7
20
11.53
11
287.33
21
12.22
0
LINE
8
CUT
10
287.33
20
12.22
11
286.83
21
12.83
0
LINE
8
CUT
10
286.83
20
12.83
11
286.22
21
13.33
0
LINE
8
CUT
10
286.22
20
13.33
11
285.53
21
13.7
0
LINE
8
CUT
10
285.53
20
13.7
11
284.78
21
13.92
0
LINE
8
CUT
10
284.78
20
13.92
11
284
21
14
0
LINE
8
CUT
10
284
20
14
11
276
21
14
0
LINE
8
CUT
10
276
20
14
11
275.22
21
13.92
0
LINE
8
CUT
10
275.22
20
13.92
11
274.47
21
13.7
0
LINE
8
CUT
10
274.47
20
13.7
11
273.78
21
13.33
0
LINE
8
CUT
10
273.78
20
13.33
11
273.17
21
12.83
0
LINE
8
CUT
10
273.17
20
12.83
11
272.67
21
12.22
0
LINE
8
CUT
10
272.67
20
12.22
11
272.3
21
11.53
0
LINE
8
CUT
10
272.3
20
11.53
11
272.08
21
10.78
0
LINE
8
CUT
10
272.08
20
10.78
11
272
21
10
0
LINE
8
CUT
10
272
20
10
11
272
21
10
0
LINE
8
CUT
10
72
20
250
11
72.08
21
249.22
0
LINE
8
CUT
10
72.08
20
249.22
11
72.3
21
248.47
0
LINE
8
CUT
10
72.3
20
248.47
11
72.67
21
247.78
0
LINE
8
CUT
10
72.67
20
247.78
11
73.17
21
247.17
0
LINE
8
CUT
10
73.17
20
247.17
11
73.78
21
246.67
0
LINE
8
CUT
10
73.78
20
246.67
11
74.47
21
246.3
0
LINE
8
CUT
10
74.47
20
246.3
11
75.22
21
246.08
0
LINE
8
CUT
10
75.22
20
246.08
11
76
21
246
0
LINE
8
CUT
10
76
20
246
11
84
21
246
0
LINE
8
CUT
10
84
20
246
11
84.78
21
246.08
0
LINE
8
CUT
10
84.78
20
246.08
11
85.53
21
246.3
0
LINE
8
CUT
10
85.53
20
246.3
11
86.22
21
246.67
0
LINE
8
CUT
10
86.22
20
246.67
11
86.83
21
247.17
0
LINE
8
CUT
10
86.83
20
247.17
11
87.33
21
247.78
0
LINE
8
CUT
10
87.33
20
247.78
11
87.7
21
248.47
0
LINE
8
CUT
10
87.7
20
248.47
11
87.92
21
249.22
0
LINE
8
CUT
10
87.92
20
249.22
11
88
21
250
0
LINE
8
CUT
10
88
20
250
11
88
21
250
0
LINE
8
CUT
10
88
20
250
11
87.92
21
250.78
0
LINE
8
CUT
10
87.92
20
250.78
11
87.7
21
251.53
0
LINE
8
CUT
10
87.7
20
251.53
11
87.33
21
252.22
0
LINE
8
CUT
10
87.33
20
252.22
11
86.83
21
252.83
0
LINE
8
CUT
10
86.83
20
252.83
11
86.22
21
253.33
0
LINE
8
CUT
10
86.22
20
253.33
11
85.53
21
253.7
0
LINE
8
CUT
10
85.53
20
253.7
11
84.78
21
253.92
0
LINE
8
CUT
10
84.78
20
253.92
11
84
21
254
0
LINE
8
CUT
10
84
20
254
11
76
21
254
0
LINE
8
CUT
10
76
20
254
11
75.22
21
253.92
0
LINE
8
CUT
10
75.22
20
253.92
11
74.47
21
253.7
0
LINE
8
CUT
10
74.47
20
253.7
11
73.78
21
253.33
0
LINE
8
CUT
10
73.78
20
253.33
11
73.17
21
252.83
0
LINE
8
CUT
10
73.17
20
252.83
11
72.67
21
252.22
0
LINE
8
CUT
10
72.67
20
252.22
11
72.3
21
251.53
0
LINE
8
CUT
10
72.3
20
251.53
11
72.08
21
250.78
0
LINE
8
CUT
10
72.08
20
250.78
11
72
21
250
0
LINE
8
CUT
10
72
20
250
11
72
21
250
0
LINE
8
CUT
10
272
20
250
11
272.08
21
249.22
0
LINE
8
CUT
10
272.08
20
249.22
11
272.3
21
248.47
0
LINE
8
CUT
10
272.3
20
248.47
11
272.67
21
247.78
0
LINE
8
CUT
10
272.67
20
247.78
11
273.17
21
247.17
0
LINE
8
CUT
10
273.17
20
247.17
11
273.78
21
246.67
0
LINE
8
CUT
10
273.78
20
246.67
11
274.47
21
246.3
0
LINE
8
CUT
10
274.47
20
246.3
11
275.22
21
246.08
0
LINE
8
CUT
10
275.22
20
246.08
11
276
21
246
0
LINE
8
CUT
10
276
20
246
11
284
21
246
0
LINE
8
CUT
10
284
20
246
11
284.78
21
246.08
0
LINE
8
CUT
10
284.78
20
246.08
11
285.53
21
246.3
0
LINE
8
CUT
10
285.53
20
246.3
11
286.22
21
246.67
0
LINE
8
CUT
10
286.22
20
246.67
11
286.83
21
247.17
0
LINE
8
CUT
10
286.83
20
247.17
11
287.33
21
247.78
0
LINE
8
CUT
10
287.33
20
247.78
11
287.7
21
248.47
0
LINE
8
CUT
10
287.7
20
248.47
11
287.92
21
249.22
0
LINE
8
CUT
10
287.92
20
249.22
11
288
21
250
0
LINE
8
CUT
10
288
20
250
11
288
21
250
0
LINE
8
CUT
10
288
20
250
11
287.92
21
250.78
0
LINE
8
CUT
10
287.92
20
250.78
11
287.7
21
251.53
0
LINE
8
CUT
10
287.7
20
251.53
11
287.33
21
252.22
0
LINE
8
CUT
10
287.33
20
252.22
11
286.83
21
252.83
0
LINE
8
CUT
10
286.83
20
252.83
11
286.22
21
253.33
0
LINE
8
CUT
10
286.22
20
253.33
11
285.53
21
253.7
0
LINE
8
CUT
10
285.53
20
253.7
11
284.78
21
253.92
0
LINE
8
CUT
10
284.78
20
253.92
11
284
21
254
0
LINE
8
CUT
10
284
20
254
11
276
21
254
0
LINE
8
CUT
10
276
20
254
11
275.22
21
253.92
0
LINE
8
CUT
10
275.22
20
253.92
11
274.47
21
253.7
0
LINE
8
CUT
10
274.47
20
253.7
11
273.78
21
253.33
0
LINE
8
CUT
10
273.78
20
253.33
11
273.17
21
252.83
0
LINE
8
CUT
10
273.17
20
252.83
11
272.67
21
252.22
0
LINE
8
CUT
10
272.67
20
252.22
11
272.3
21
251.53
0
LINE
8
CUT
10
272.3
20
251.53
11
272.08
21
250.78
0
LINE
8
CUT
10
272.08
20
250.78
11
272
21
250
0
LINE
8
CUT
10
272
20
250
11
272
21
250
0
LINE
8
CUT
10
6
20
126
11
6.08
21
125.22
0
LINE
8
CUT
10
6.08
20
125.22
11
6.3
21
124.47
0
LINE
8
CUT
10
6.3
20
124.47
11
6.67
21
123.78
0
LINE
8
CUT
10
6.67
20
123.78
11
7.17
21
123.17
0
LINE
8
CUT
10
7.17
20
123.17
11
7.78
21
122.67
0
LINE
8
CUT
10
7.78
20
122.67
11
8.47
21
122.3
0
LINE
8
CUT
10
8.47
20
122.3
11
9.22
21
122.08
0
LINE
8
CUT
10
9.22
20
122.08
11
10
21
122
0
LINE
8
CUT
10
10
20
122
11
10
21
122
0
LINE
8
CUT
10
10
20
122
11
10.78
21
122.08
0
LINE
8
CUT
10
10.78
20
122.08
11
11.53
21
122.3
0
LINE
8
CUT
10
11.53
20
122.3
11
12.22
21
122.67
0
LINE
8
CUT
10
12.22
20
122.67
11
12.83
21
123.17
0
LINE
8
CUT
10
12.83
20
123.17
11
13.33
21
123.78
0
LINE
8
CUT
10
13.33
20
123.78
11
13.7
21
124.47
0
LINE
8
CUT
10
13.7
20
124.47
11
13.92
21
125.22
0
LINE
8
CUT
10
13.92
20
125.22
11
14
21
126
0
LINE
8
CUT
10
14
20
126
11
14
21
134
0
LINE
8
CUT
10
14
20
134
11
13.92
21
134.78
0
LINE
8
CUT
10
13.92
20
134.78
11
13.7
21
135.53
0
LINE
8
CUT
10
13.7
20
135.53
11
13.33
21
136.22
0
LINE
8
CUT
10
13.33
20
136.22
11
12.83
21
136.83
0
LINE
8
CUT
10
12.83
20
136.83
11
12.22
21
137.33
0
LINE
8
CUT
10
12.22
20
137.33
11
11.53
21
137.7
0
LINE
8
CUT
10
11.53
20
137.7
11
10.78
21
137.92
0
LINE
8
CUT
10
10.78
20
137.92
11
10
21
138
0
LINE
8
CUT
10
10
20
138
11
10
21
138
0
LINE
8
CUT
10
10
20
138
11
9.22
21
137.92
0
LINE
8
CUT
10
9.22
20
137.92
11
8.47
21
137.7
0
LINE
8
CUT
10
8.47
20
137.7
11
7.78
21
137.33
0
LINE
8
CUT
10
7.78
20
137.33
11
7.17
21
136.83
0
LINE
8
CUT
10
7.17
20
136.83
11
6.67
21
136.22
0
LINE
8
CUT
10
6.67
20
136.22
11
6.3
21
135.53
0
LINE
8
CUT
10
6.3
20
135.53
11
6.08
21
134.78
0
LINE
8
CUT
10
6.08
20
134.78
11
6
21
134
0
LINE
8
CUT
10
6
20
134
11
6
21
126
0
LINE
8
CUT
10
346
20
126
11
346.08
21
125.22
0
LINE
8
CUT
10
346.08
20
125.22
11
346.3
21
124.47
0
LINE
8
CUT
10
346.3
20
124.47
11
346.67
21
123.78
0
LINE
8
CUT
10
346.67
20
123.78
11
347.17
21
123.17
0
LINE
8
CUT
10
347.17
20
123.17
11
347.78
21
122.67
0
LINE
8
CUT
10
347.78
20
122.67
11
348.47
21
122.3
0
LINE
8
CUT
10
348.47
20
122.3
11
349.22
21
122.08
0
LINE
8
CUT
10
349.22
20
122.08
11
350
21
122
0
LINE
8
CUT
10
350
20
122
11
350
21
122
0
LINE
8
CUT
10
350
20
122
11
350.78
21
122.08
0
LINE
8
CUT
10
350.78
20
122.08
11
351.53
21
122.3
0
LINE
8
CUT
10
351.53
20
122.3
11
352.22
21
122.67
0
LINE
8
CUT
10
352.22
20
122.67
11
352.83
21
123.17
0
LINE
8
CUT
10
352.83
20
123.17
11
353.33
21
123.78
0
LINE
8
CUT
10
353.33
20
123.78
11
353.7
21
124.47
0
LINE
8
CUT
10
353.7
20
124.47
11
353.92
21
125.22
0
LINE
8
CUT
10
353.92
20
125.22
11
354
21
126
0
LINE
8
CUT
10
354
20
126
11
354
21
134
0
LINE
8
CUT
10
354
20
134
11
353.92
21
134.78
0
LINE
8
CUT
10
353.92
20
134.78
11
353.7
21
135.53
0
LINE
8
CUT
10
353.7
20
135.53
11
353.33
21
136.22
0
LINE
8
CUT
10
353.33
20
136.22
11
352.83
21
136.83
0
LINE
8
CUT
10
352.83
20
136.83
11
352.22
21
137.33
0
LINE
8
CUT
10
352.22
20
137.33
11
351.53
21
137.7
0
LINE
8
CUT
10
351.53
20
137.7
11
350.78
21
137.92
0
LINE
8
CUT
10
350.78
20
137.92
11
350
21
138
0
LINE
8
CUT
10
350
20
138
11
350
21
138
0
LINE
8
CUT
10
350
20
138
11
349.22
21
137.92
0
LINE
8
CUT
10
349.22
20
137.92
11
348.47
21
137.7
0
LINE
8
CUT
10
348.47
20
137.7
11
347.78
21
137.33
0
LINE
8
CUT
10
347.78
20
137.33
11
347.17
21
136.83
0
LINE
8
CUT
10
347.17
20
136.83
11
346.67
21
136.22
0
LINE
8
CUT
10
346.67
20
136.22
11
346.3
21
135.53
0
LINE
8
CUT
10
346.3
20
135.53
11
346.08
21
134.78
0
LINE
8
CUT
10
346.08
20
134.78
11
346
21
134
0
LINE
8
CUT
10
346
20
134
11
346
21
126
0
LINE
8
BEND
10
20
20
20
11
340
21
20
0
LINE
8
BEND
10
20
20
240
11
340
21
240
0
LINE
8
BEND
10
20
20
20
11
20
21
240
0
LINE
8
BEND
10
340
20
20
11
340
21
240
0
ENDSEC
0
EOF
