0
SECTION
2
HEADER
9
$INSUNITS
70
4
0
ENDSEC
0
SECTION
2
ENTITIES
0
LINE
8
CUT
10
0
20
0
11
190
21
0
0
LINE
8
CUT
10
190
20
0
11
190
21
150
0
LINE
8
CUT
10
190
20
150
11
0
21
150
0
LINE
8
CUT
10
0
20
150
11
0
21
0
0
LINE
8
CUT
10
10
20
14
11
10.08
21
13.22
0
LINE
8
CUT
10
10.08
20
13.22
11
10.3
21
12.47
0
LINE
8
CUT
10
10.3
20
12.47
11
10.67
21
11.78
0
LINE
8
CUT
10
10.67
20
11.78
11
11.17
21
11.17
0
LINE
8
CUT
10
11.17
20
11.17
11
11.78
21
10.67
0
LINE
8
CUT
10
11.78
20
10.67
11
12.47
21
10.3
0
LINE
8
CUT
10
12.47
20
10.3
11
13.22
21
10.08
0
LINE
8
CUT
10
13.22
20
10.08
11
14
21
10
0
LINE
8
CUT
10
14
20
10
11
24
21
10
0
LINE
8
CUT
10
24
20
10
11
24.78
21
10.08
0
LINE
8
CUT
10
24.78
20
10.08
11
25.53
21
10.3
0
LINE
8
CUT
10
25.53
20
10.3
11
26.22
21
10.67
0
LINE
8
CUT
10
26.22
20
10.67
11
26.83
21
11.17
0
LINE
8
CUT
10
26.83
20
11.17
11
27.33
21
11.78
0
LINE
8
CUT
10
27.33
20
11.78
11
27.7
21
12.47
0
LINE
8
CUT
10
27.7
20
12.47
11
27.92
21
13.22
0
LINE
8
CUT
10
27.92
20
13.22
11
28
21
14
0
LINE
8
CUT
10
28
20
14
11
28
21
14
0
LINE
8
CUT
10
28
20
14
11
27.92
21
14.78
0
LINE
8
CUT
10
27.92
20
14.78
11
27.7
21
15.53
0
LINE
8
CUT
10
27.7
20
15.53
11
27.33
21
16.22
0
LINE
8
CUT
10
27.33
20
16.22
11
26.83
21
16.83
0
LINE
8
CUT
10
26.83
20
16.83
11
26.22
21
17.33
0
LINE
8
CUT
10
26.22
20
17.33
11
25.53
21
17.7
0
LINE
8
CUT
10
25.53
20
17.7
11
24.78
21
17.92
0
LINE
8
CUT
10
24.78
20
17.92
11
24
21
18
0
LINE
8
CUT
10
24
20
18
11
14
21
18
0
LINE
8
CUT
10
14
20
18
11
13.22
21
17.92
0
LINE
8
CUT
10
13.22
20
17.92
11
12.47
21
17.7
0
LINE
8
CUT
10
12.47
20
17.7
11
11.78
21
17.33
0
LINE
8
CUT
10
11.78
20
17.33
11
11.17
21
16.83
0
LINE
8
CUT
10
11.17
20
16.83
11
10.67
21
16.22
0
LINE
8
CUT
10
10.67
20
16.22
11
10.3
21
15.53
0
LINE
8
CUT
10
10.3
20
15.53
11
10.08
21
14.78
0
LINE
8
CUT
10
10.08
20
14.78
11
10
21
14
0
LINE
8
CUT
10
10
20
14
11
10
21
14
0
LINE
8
CUT
10
162
20
14
11
162.08
21
13.22
0
LINE
8
CUT
10
162.08
20
13.22
11
162.3
21
12.47
0
LINE
8
CUT
10
162.3
20
12.47
11
162.67
21
11.78
0
LINE
8
CUT
10
162.67
20
11.78
11
163.17
21
11.17
0
LINE
8
CUT
10
163.17
20
11.17
11
163.78
21
10.67
0
LINE
8
CUT
10
163.78
20
10.67
11
164.47
21
10.3
0
LINE
8
CUT
10
164.47
20
10.3
11
165.22
21
10.08
0
LINE
8
CUT
10
165.22
20
10.08
11
166
21
10
0
LINE
8
CUT
10
166
20
10
11
176
21
10
0
LINE
8
CUT
10
176
20
10
11
176.78
21
10.08
0
LINE
8
CUT
10
176.78
20
10.08
11
177.53
21
10.3
0
LINE
8
CUT
10
177.53
20
10.3
11
178.22
21
10.67
0
LINE
8
CUT
10
178.22
20
10.67
11
178.83
21
11.17
0
LINE
8
CUT
10
178.83
20
11.17
11
179.33
21
11.78
0
LINE
8
CUT
10
179.33
20
11.78
11
179.7
21
12.47
0
LINE
8
CUT
10
179.7
20
12.47
11
179.92
21
13.22
0
LINE
8
CUT
10
179.92
20
13.22
11
180
21
14
0
LINE
8
CUT
10
180
20
14
11
180
21
14
0
LINE
8
CUT
10
180
20
14
11
179.92
21
14.78
0
LINE
8
CUT
10
179.92
20
14.78
11
179.7
21
15.53
0
LINE
8
CUT
10
179.7
20
15.53
11
179.33
21
16.22
0
LINE
8
CUT
10
179.33
20
16.22
11
178.83
21
16.83
0
LINE
8
CUT
10
178.83
20
16.83
11
178.22
21
17.33
0
LINE
8
CUT
10
178.22
20
17.33
11
177.53
21
17.7
0
LINE
8
CUT
10
177.53
20
17.7
11
176.78
21
17.92
0
LINE
8
CUT
10
176.78
20
17.92
11
176
21
18
0
LINE
8
CUT
10
176
20
18
11
166
21
18
0
LINE
8
CUT
10
166
20
18
11
165.22
21
17.92
0
LINE
8
CUT
10
165.22
20
17.92
11
164.47
21
17.7
0
LINE
8
CUT
10
164.47
20
17.7
11
163.78
21
17.33
0
LINE
8
CUT
10
163.78
20
17.33
11
163.17
21
16.83
0
LINE
8
CUT
10
163.17
20
16.83
11
162.67
21
16.22
0
LINE
8
CUT
10
162.67
20
16.22
11
162.3
21
15.53
0
LINE
8
CUT
10
162.3
20
15.53
11
162.08
21
14.78
0
LINE
8
CUT
10
162.08
20
14.78
11
162
21
14
0
LINE
8
CUT
10
162
20
14
11
162
21
14
0
LINE
8
CUT
10
10
20
136
11
10.08
21
135.22
0
LINE
8
CUT
10
10.08
20
135.22
11
10.3
21
134.47
0
LINE
8
CUT
10
10.3
20
134.47
11
10.67
21
133.78
0
LINE
8
CUT
10
10.67
20
133.78
11
11.17
21
133.17
0
LINE
8
CUT
10
11.17
20
133.17
11
11.78
21
132.67
0
LINE
8
CUT
10
11.78
20
132.67
11
12.47
21
132.3
0
LINE
8
CUT
10
12.47
20
132.3
11
13.22
21
132.08
0
LINE
8
CUT
10
13.22
20
132.08
11
14
21
132
0
LINE
8
CUT
10
14
20
132
11
24
21
132
0
LINE
8
CUT
10
24
20
132
11
24.78
21
132.08
0
LINE
8
CUT
10
24.78
20
132.08
11
25.53
21
132.3
0
LINE
8
CUT
10
25.53
20
132.3
11
26.22
21
132.67
0
LINE
8
CUT
10
26.22
20
132.67
11
26.83
21
133.17
0
LINE
8
CUT
10
26.83
20
133.17
11
27.33
21
133.78
0
LINE
8
CUT
10
27.33
20
133.78
11
27.7
21
134.47
0
LINE
8
CUT
10
27.7
20
134.47
11
27.92
21
135.22
0
LINE
8
CUT
10
27.92
20
135.22
11
28
21
136
0
LINE
8
CUT
10
28
20
136
11
28
21
136
0
LINE
8
CUT
10
28
20
136
11
27.92
21
136.78
0
LINE
8
CUT
10
27.92
20
136.78
11
27.7
21
137.53
0
LINE
8
CUT
10
27.7
20
137.53
11
27.33
21
138.22
0
LINE
8
CUT
10
27.33
20
138.22
11
26.83
21
138.83
0
LINE
8
CUT
10
26.83
20
138.83
11
26.22
21
139.33
0
LINE
8
CUT
10
26.22
20
139.33
11
25.53
21
139.7
0
LINE
8
CUT
10
25.53
20
139.7
11
24.78
21
139.92
0
LINE
8
CUT
10
24.78
20
139.92
11
24
21
140
0
LINE
8
CUT
10
24
20
140
11
14
21
140
0
LINE
8
CUT
10
14
20
140
11
13.22
21
139.92
0
LINE
8
CUT
10
13.22
20
139.92
11
12.47
21
139.7
0
LINE
8
CUT
10
12.47
20
139.7
11
11.78
21
139.33
0
LINE
8
CUT
10
11.78
20
139.33
11
11.17
21
138.83
0
LINE
8
CUT
10
11.17
20
138.83
11
10.67
21
138.22
0
LINE
8
CUT
10
10.67
20
138.22
11
10.3
21
137.53
0
LINE
8
CUT
10
10.3
20
137.53
11
10.08
21
136.78
0
LINE
8
CUT
10
10.08
20
136.78
11
10
21
136
0
LINE
8
CUT
10
10
20
136
11
10
21
136
0
LINE
8
CUT
10
162
20
136
11
162.08
21
135.22
0
LINE
8
CUT
10
162.08
20
135.22
11
162.3
21
134.47
0
LINE
8
CUT
10
162.3
20
134.47
11
162.67
21
133.78
0
LINE
8
CUT
10
162.67
20
133.78
11
163.17
21
133.17
0
LINE
8
CUT
10
163.17
20
133.17
11
163.78
21
132.67
0
LINE
8
CUT
10
163.78
20
132.67
11
164.47
21
132.3
0
LINE
8
CUT
10
164.47
20
132.3
11
165.22
21
132.08
0
LINE
8
CUT
10
165.22
20
132.08
11
166
21
132
0
LINE
8
CUT
10
166
20
132
11
176
21
132
0
LINE
8
CUT
10
176
20
132
11
176.78
21
132.08
0
LINE
8
CUT
10
176.78
20
132.08
11
177.53
21
132.3
0
LINE
8
CUT
10
177.53
20
132.3
11
178.22
21
132.67
0
LINE
8
CUT
10
178.22
20
132.67
11
178.83
21
133.17
0
LINE
8
CUT
10
178.83
20
133.17
11
179.33
21
133.78
0
LINE
8
CUT
10
179.33
20
133.78
11
179.7
21
134.47
0
LINE
8
CUT
10
179.7
20
134.47
11
179.92
21
135.22
0
LINE
8
CUT
10
179.92
20
135.22
11
180
21
136
0
LINE
8
CUT
10
180
20
136
11
180
21
136
0
LINE
8
CUT
10
180
20
136
11
179.92
21
136.78
0
LINE
8
CUT
10
179.92
20
136.78
11
179.7
21
137.53
0
LINE
8
CUT
10
179.7
20
137.53
11
179.33
21
138.22
0
LINE
8
CUT
10
179.33
20
138.22
11
178.83
21
138.83
0
LINE
8
CUT
10
178.83
20
138.83
11
178.22
21
139.33
0
LINE
8
CUT
10
178.22
20
139.33
11
177.53
21
139.7
0
LINE
8
CUT
10
177.53
20
139.7
11
176.78
21
139.92
0
LINE
8
CUT
10
176.78
20
139.92
11
176
21
140
0
LINE
8
CUT
10
176
20
140
11
166
21
140
0
LINE
8
CUT
10
166
20
140
11
165.22
21
139.92
0
LINE
8
CUT
10
165.22
20
139.92
11
164.47
21
139.7
0
LINE
8
CUT
10
164.47
20
139.7
11
163.78
21
139.33
0
LINE
8
CUT
10
163.78
20
139.33
11
163.17
21
138.83
0
LINE
8
CUT
10
163.17
20
138.83
11
162.67
21
138.22
0
LINE
8
CUT
10
162.67
20
138.22
11
162.3
21
137.53
0
LINE
8
CUT
10
162.3
20
137.53
11
162.08
21
136.78
0
LINE
8
CUT
10
162.08
20
136.78
11
162
21
136
0
LINE
8
CUT
10
162
20
136
11
162
21
136
0
CIRCLE
8
CUT
10
32.5
20
37.5
40
2.75
0
CIRCLE
8
CUT
10
95
20
37.5
40
2.75
0
CIRCLE
8
CUT
10
157.5
20
37.5
40
2.75
0
CIRCLE
8
CUT
10
32.5
20
112.5
40
2.75
0
CIRCLE
8
CUT
10
95
20
112.5
40
2.75
0
CIRCLE
8
CUT
10
157.5
20
112.5
40
2.75
0
CIRCLE
8
CUT
10
18
20
30
40
3.25
0
CIRCLE
8
CUT
10
18
20
70
40
3.25
0
CIRCLE
8
CUT
10
18
20
110
40
3.25
0
CIRCLE
8
CUT
10
172
20
35
40
3.25
0
CIRCLE
8
CUT
10
172
20
115
40
3.25
0
ENDSEC
0
EOF
