<svg xmlns="http://www.w3.org/2000/svg" width="920" height="620" viewBox="0 0 920 620" role="img">
  <style>
    .background { fill: #f6f7f8; }
    .shadow { fill: #d8dde2; opacity: 0.7; }
    .title { font: 700 26px Arial, sans-serif; fill: #202a33; }
    .subtitle, .label { font: 16px Arial, sans-serif; fill: #4f5d68; }
    .box-top-0 { fill: #c1cbd3; stroke: #38434c; stroke-width: 1.1; }.box-side-0, .box-front-0 { fill: #8d99a4; stroke: #38434c; stroke-width: 1; }<polygon class="box-side-0" points="542.4,103.1 434.4,151.1 434.4,144.5 542.4,96.5" />.box-top-1 { fill: #202a33; stroke: #38434c; stroke-width: 1.1; }.box-side-1, .box-front-1 { fill: #11181e; stroke: #38434c; stroke-width: 1; }<polygon class="box-side-1" points="501.0,92.3 439.8,119.5 439.8,108.5 501.0,81.3" />.box-top-2 { fill: #b7302a; stroke: #38434c; stroke-width: 1.1; }.box-side-2, .box-front-2 { fill: #7e1e1a; stroke: #38434c; stroke-width: 1; }<polygon class="box-side-2" points="410.6,37.5 366.0,57.3 366.0,28.7 410.6,8.9" />.box-top-3 { fill: #b7302a; stroke: #38434c; stroke-width: 1.1; }.box-side-3, .box-front-3 { fill: #7e1e1a; stroke: #38434c; stroke-width: 1; }<polygon class="box-side-3" points="430.1,46.1 385.4,66.0 385.4,37.4 430.1,17.5" />.box-top-4 { fill: #b7302a; stroke: #38434c; stroke-width: 1.1; }.box-side-4, .box-front-4 { fill: #7e1e1a; stroke: #38434c; stroke-width: 1; }<polygon class="box-side-4" points="449.5,54.8 404.9,74.6 404.9,46.0 449.5,26.2" />.box-top-5 { fill: #b7302a; stroke: #38434c; stroke-width: 1.1; }.box-side-5, .box-front-5 { fill: #7e1e1a; stroke: #38434c; stroke-width: 1; }<polygon class="box-side-5" points="469.0,63.4 424.3,83.3 424.3,54.7 469.0,34.8" />.box-top-6 { fill: #b7302a; stroke: #38434c; stroke-width: 1.1; }.box-side-6, .box-front-6 { fill: #7e1e1a; stroke: #38434c; stroke-width: 1; }<polygon class="box-side-6" points="488.4,72.1 443.8,91.9 443.8,63.3 488.4,43.5" />
  </style>
  <text class="title" x="34" y="46">MIDI 5-Way Plate Mount Rev C</text><text class="subtitle" x="34" y="74">Open aluminium MIDI holder plate with insulated subplate and five fuse holders.</text><text class="label" x="34" y="556">Static assembly visual. Open the HTML file for rotate/zoom interaction.</text>
  <rect class="background" width="920" height="620" /><ellipse class="shadow" cx="455" cy="430" rx="330" ry="74" /><polygon class="box-front-0" points="297.6,90.3 434.4,151.1 434.4,144.5 297.6,83.7" /><polygon class="box-top-0" points="405.6,35.7 542.4,96.5 434.4,144.5 297.6,83.7" /><polygon class="box-front-1" points="339.0,74.7 439.8,119.5 439.8,108.5 339.0,63.7" /><polygon class="box-top-1" points="400.2,36.5 501.0,81.3 439.8,108.5 339.0,63.7" /><polygon class="box-front-2" points="351.6,50.9 366.0,57.3 366.0,28.7 351.6,22.3" /><polygon class="box-top-2" points="396.2,2.5 410.6,8.9 366.0,28.7 351.6,22.3" /><polygon class="box-front-3" points="371.0,59.6 385.4,66.0 385.4,37.4 371.0,31.0" /><polygon class="box-top-3" points="415.7,11.1 430.1,17.5 385.4,37.4 371.0,31.0" /><polygon class="box-front-4" points="390.5,68.2 404.9,74.6 404.9,46.0 390.5,39.6" /><polygon class="box-top-4" points="435.1,19.8 449.5,26.2 404.9,46.0 390.5,39.6" /><polygon class="box-front-5" points="409.9,76.9 424.3,83.3 424.3,54.7 409.9,48.3" /><polygon class="box-top-5" points="454.6,28.4 469.0,34.8 424.3,54.7 409.9,48.3" /><polygon class="box-front-6" points="429.4,85.5 443.8,91.9 443.8,63.3 429.4,56.9" /><polygon class="box-top-6" points="474.0,37.1 488.4,43.5 443.8,63.3 429.4,56.9" />
</svg>
