<svg xmlns="http://www.w3.org/2000/svg" width="920" height="620" viewBox="0 0 920 620" role="img">
  <style>
    .background { fill: #f6f7f8; }
    .shadow { fill: #d8dde2; opacity: 0.7; }
    .title { font: 700 26px Arial, sans-serif; fill: #202a33; }
    .subtitle, .label { font: 16px Arial, sans-serif; fill: #4f5d68; }
    .box-top-0 { fill: #c1cbd3; stroke: #38434c; stroke-width: 1.1; }.box-side-0, .box-front-0 { fill: #8d99a4; stroke: #38434c; stroke-width: 1; }<polygon class="box-side-0" points="542.4,103.1 434.4,151.1 434.4,144.5 542.4,96.5" />.box-top-1 { fill: #111820; stroke: #38434c; stroke-width: 1.1; }.box-side-1, .box-front-1 { fill: #080c10; stroke: #38434c; stroke-width: 1; }<polygon class="box-side-1" points="501.0,93.4 439.8,120.6 439.8,107.4 501.0,80.2" />.box-top-2 { fill: #111820; stroke: #38434c; stroke-width: 1.1; }.box-side-2, .box-front-2 { fill: #080c10; stroke: #38434c; stroke-width: 1; }<polygon class="box-side-2" points="419.6,42.8 360.6,69.0 360.6,49.2 419.6,23.0" />.box-top-3 { fill: #b7302a; stroke: #38434c; stroke-width: 1.1; }.box-side-3, .box-front-3 { fill: #7e1e1a; stroke: #38434c; stroke-width: 1; }<polygon class="box-side-3" points="415.7,22.2 363.8,45.3 363.8,16.7 415.7,-6.4" />.box-top-4 { fill: #111820; stroke: #38434c; stroke-width: 1.1; }.box-side-4, .box-front-4 { fill: #080c10; stroke: #38434c; stroke-width: 1; }<polygon class="box-side-4" points="405.6,6.7 399.1,9.6 399.1,5.2 405.6,2.3" />.box-top-5 { fill: #111820; stroke: #38434c; stroke-width: 1.1; }.box-side-5, .box-front-5 { fill: #080c10; stroke: #38434c; stroke-width: 1; }<polygon class="box-side-5" points="372.5,21.4 366.0,24.3 366.0,19.9 372.5,17.0" />.box-top-6 { fill: #111820; stroke: #38434c; stroke-width: 1.1; }.box-side-6, .box-front-6 { fill: #080c10; stroke: #38434c; stroke-width: 1; }<polygon class="box-side-6" points="409.9,37.6 397.0,43.3 397.0,34.5 409.9,28.8" />.box-top-7 { fill: #111820; stroke: #38434c; stroke-width: 1.1; }.box-side-7, .box-front-7 { fill: #080c10; stroke: #38434c; stroke-width: 1; }<polygon class="box-side-7" points="373.9,75.3 361.0,81.1 361.0,72.3 373.9,66.5" />.box-top-8 { fill: #111820; stroke: #38434c; stroke-width: 1.1; }.box-side-8, .box-front-8 { fill: #080c10; stroke: #38434c; stroke-width: 1; }<polygon class="box-side-8" points="439.1,51.4 380.0,77.7 380.0,57.9 439.1,31.6" />.box-top-9 { fill: #b7302a; stroke: #38434c; stroke-width: 1.1; }.box-side-9, .box-front-9 { fill: #7e1e1a; stroke: #38434c; stroke-width: 1; }<polygon class="box-side-9" points="435.1,30.9 383.3,53.9 383.3,25.3 435.1,2.3" />.box-top-10 { fill: #111820; stroke: #38434c; stroke-width: 1.1; }.box-side-10, .box-front-10 { fill: #080c10; stroke: #38434c; stroke-width: 1; }<polygon class="box-side-10" points="425.0,15.3 418.6,18.2 418.6,13.8 425.0,10.9" />.box-top-11 { fill: #111820; stroke: #38434c; stroke-width: 1.1; }.box-side-11, .box-front-11 { fill: #080c10; stroke: #38434c; stroke-width: 1; }<polygon class="box-side-11" points="391.9,30.1 385.4,32.9 385.4,28.5 391.9,25.7" />.box-top-12 { fill: #111820; stroke: #38434c; stroke-width: 1.1; }.box-side-12, .box-front-12 { fill: #080c10; stroke: #38434c; stroke-width: 1; }<polygon class="box-side-12" points="429.4,46.2 416.4,52.0 416.4,43.2 429.4,37.4" />.box-top-13 { fill: #111820; stroke: #38434c; stroke-width: 1.1; }.box-side-13, .box-front-13 { fill: #080c10; stroke: #38434c; stroke-width: 1; }<polygon class="box-side-13" points="393.4,84.0 380.4,89.7 380.4,80.9 393.4,75.2" />.box-top-14 { fill: #111820; stroke: #38434c; stroke-width: 1.1; }.box-side-14, .box-front-14 { fill: #080c10; stroke: #38434c; stroke-width: 1; }<polygon class="box-side-14" points="458.5,60.1 399.5,86.3 399.5,66.5 458.5,40.3" />.box-top-15 { fill: #b7302a; stroke: #38434c; stroke-width: 1.1; }.box-side-15, .box-front-15 { fill: #7e1e1a; stroke: #38434c; stroke-width: 1; }<polygon class="box-side-15" points="454.6,39.5 402.7,62.6 402.7,34.0 454.6,10.9" />.box-top-16 { fill: #111820; stroke: #38434c; stroke-width: 1.1; }.box-side-16, .box-front-16 { fill: #080c10; stroke: #38434c; stroke-width: 1; }<polygon class="box-side-16" points="444.5,24.0 438.0,26.9 438.0,22.5 444.5,19.6" />.box-top-17 { fill: #111820; stroke: #38434c; stroke-width: 1.1; }.box-side-17, .box-front-17 { fill: #080c10; stroke: #38434c; stroke-width: 1; }<polygon class="box-side-17" points="411.4,38.7 404.9,41.6 404.9,37.2 411.4,34.3" />.box-top-18 { fill: #111820; stroke: #38434c; stroke-width: 1.1; }.box-side-18, .box-front-18 { fill: #080c10; stroke: #38434c; stroke-width: 1; }<polygon class="box-side-18" points="448.8,54.9 435.8,60.6 435.8,51.8 448.8,46.1" />.box-top-19 { fill: #111820; stroke: #38434c; stroke-width: 1.1; }.box-side-19, .box-front-19 { fill: #080c10; stroke: #38434c; stroke-width: 1; }<polygon class="box-side-19" points="412.8,92.6 399.8,98.4 399.8,89.6 412.8,83.8" />.box-top-20 { fill: #111820; stroke: #38434c; stroke-width: 1.1; }.box-side-20, .box-front-20 { fill: #080c10; stroke: #38434c; stroke-width: 1; }<polygon class="box-side-20" points="478.0,68.7 418.9,95.0 418.9,75.2 478.0,48.9" />.box-top-21 { fill: #b7302a; stroke: #38434c; stroke-width: 1.1; }.box-side-21, .box-front-21 { fill: #7e1e1a; stroke: #38434c; stroke-width: 1; }<polygon class="box-side-21" points="474.0,48.2 422.2,71.2 422.2,42.6 474.0,19.6" />.box-top-22 { fill: #111820; stroke: #38434c; stroke-width: 1.1; }.box-side-22, .box-front-22 { fill: #080c10; stroke: #38434c; stroke-width: 1; }<polygon class="box-side-22" points="463.9,32.6 457.4,35.5 457.4,31.1 463.9,28.2" />.box-top-23 { fill: #111820; stroke: #38434c; stroke-width: 1.1; }.box-side-23, .box-front-23 { fill: #080c10; stroke: #38434c; stroke-width: 1; }<polygon class="box-side-23" points="430.8,47.3 424.3,50.2 424.3,45.8 430.8,42.9" />.box-top-24 { fill: #111820; stroke: #38434c; stroke-width: 1.1; }.box-side-24, .box-front-24 { fill: #080c10; stroke: #38434c; stroke-width: 1; }<polygon class="box-side-24" points="468.2,63.5 455.3,69.3 455.3,60.5 468.2,54.7" />.box-top-25 { fill: #111820; stroke: #38434c; stroke-width: 1.1; }.box-side-25, .box-front-25 { fill: #080c10; stroke: #38434c; stroke-width: 1; }<polygon class="box-side-25" points="432.2,101.3 419.3,107.0 419.3,98.2 432.2,92.5" />.box-top-26 { fill: #111820; stroke: #38434c; stroke-width: 1.1; }.box-side-26, .box-front-26 { fill: #080c10; stroke: #38434c; stroke-width: 1; }<polygon class="box-side-26" points="497.4,77.4 438.4,103.6 438.4,83.8 497.4,57.6" />.box-top-27 { fill: #b7302a; stroke: #38434c; stroke-width: 1.1; }.box-side-27, .box-front-27 { fill: #7e1e1a; stroke: #38434c; stroke-width: 1; }<polygon class="box-side-27" points="493.4,56.8 441.6,79.8 441.6,51.2 493.4,28.2" />.box-top-28 { fill: #111820; stroke: #38434c; stroke-width: 1.1; }.box-side-28, .box-front-28 { fill: #080c10; stroke: #38434c; stroke-width: 1; }<polygon class="box-side-28" points="483.4,41.3 476.9,44.1 476.9,39.7 483.4,36.9" />.box-top-29 { fill: #111820; stroke: #38434c; stroke-width: 1.1; }.box-side-29, .box-front-29 { fill: #080c10; stroke: #38434c; stroke-width: 1; }<polygon class="box-side-29" points="450.2,56.0 443.8,58.9 443.8,54.5 450.2,51.6" />.box-top-30 { fill: #111820; stroke: #38434c; stroke-width: 1.1; }.box-side-30, .box-front-30 { fill: #080c10; stroke: #38434c; stroke-width: 1; }<polygon class="box-side-30" points="487.7,72.1 474.7,77.9 474.7,69.1 487.7,63.3" />.box-top-31 { fill: #111820; stroke: #38434c; stroke-width: 1.1; }.box-side-31, .box-front-31 { fill: #080c10; stroke: #38434c; stroke-width: 1; }<polygon class="box-side-31" points="451.7,109.9 438.7,115.7 438.7,106.9 451.7,101.1" />
  </style>
  <text class="title" x="34" y="46">MIDI 5-Way Plate Mount Rev C</text><text class="subtitle" x="34" y="74">Open aluminium MIDI holder plate with insulated subplate and photo-derived red covered MIDI holder bank.</text><text class="label" x="34" y="556">Static assembly visual. Open the HTML file for rotate/zoom interaction.</text>
  <rect class="background" width="920" height="620" /><ellipse class="shadow" cx="455" cy="430" rx="330" ry="74" /><polygon class="box-front-0" points="297.6,90.3 434.4,151.1 434.4,144.5 297.6,83.7" /><polygon class="box-top-0" points="405.6,35.7 542.4,96.5 434.4,144.5 297.6,83.7" /><polygon class="box-front-1" points="339.0,75.8 439.8,120.6 439.8,107.4 339.0,62.6" /><polygon class="box-top-1" points="400.2,35.4 501.0,80.2 439.8,107.4 339.0,62.6" /><polygon class="box-front-2" points="342.6,61.0 360.6,69.0 360.6,49.2 342.6,41.2" /><polygon class="box-top-2" points="401.6,15.0 419.6,23.0 360.6,49.2 342.6,41.2" /><polygon class="box-front-3" points="346.6,37.6 363.8,45.3 363.8,16.7 346.6,9.0" /><polygon class="box-top-3" points="398.4,-14.0 415.7,-6.4 363.8,16.7 346.6,9.0" /><polygon class="box-front-4" points="389.8,5.4 399.1,9.6 399.1,5.2 389.8,1.0" /><polygon class="box-top-4" points="396.2,-1.9 405.6,2.3 399.1,5.2 389.8,1.0" /><polygon class="box-front-5" points="356.6,20.1 366.0,24.3 366.0,19.9 356.6,15.7" /><polygon class="box-top-5" points="363.1,12.9 372.5,17.0 366.0,19.9 356.6,15.7" /><polygon class="box-front-6" points="388.3,39.5 397.0,43.3 397.0,34.5 388.3,30.7" /><polygon class="box-top-6" points="401.3,24.9 409.9,28.8 397.0,34.5 388.3,30.7" /><polygon class="box-front-7" points="352.3,77.3 361.0,81.1 361.0,72.3 352.3,68.5" /><polygon class="box-top-7" points="365.3,62.7 373.9,66.5 361.0,72.3 352.3,68.5" /><polygon class="box-front-8" points="362.0,69.7 380.0,77.7 380.0,57.9 362.0,49.9" /><polygon class="box-top-8" points="421.1,23.6 439.1,31.6 380.0,57.9 362.0,49.9" /><polygon class="box-front-9" points="366.0,46.2 383.3,53.9 383.3,25.3 366.0,17.6" /><polygon class="box-top-9" points="417.8,-5.4 435.1,2.3 383.3,25.3 366.0,17.6" /><polygon class="box-front-10" points="409.2,14.1 418.6,18.2 418.6,13.8 409.2,9.7" /><polygon class="box-top-10" points="415.7,6.8 425.0,10.9 418.6,13.8 409.2,9.7" /><polygon class="box-front-11" points="376.1,28.8 385.4,32.9 385.4,28.5 376.1,24.4" /><polygon class="box-top-11" points="382.6,21.5 391.9,25.7 385.4,28.5 376.1,24.4" /><polygon class="box-front-12" points="407.8,48.1 416.4,52.0 416.4,43.2 407.8,39.3" /><polygon class="box-top-12" points="420.7,33.6 429.4,37.4 416.4,43.2 407.8,39.3" /><polygon class="box-front-13" points="371.8,85.9 380.4,89.7 380.4,80.9 371.8,77.1" /><polygon class="box-top-13" points="384.7,71.3 393.4,75.2 380.4,80.9 371.8,77.1" /><polygon class="box-front-14" points="381.5,78.3 399.5,86.3 399.5,66.5 381.5,58.5" /><polygon class="box-top-14" points="440.5,32.3 458.5,40.3 399.5,66.5 381.5,58.5" /><polygon class="box-front-15" points="385.4,54.9 402.7,62.6 402.7,34.0 385.4,26.3" /><polygon class="box-top-15" points="437.3,3.2 454.6,10.9 402.7,34.0 385.4,26.3" /><polygon class="box-front-16" points="428.6,22.7 438.0,26.9 438.0,22.5 428.6,18.3" /><polygon class="box-top-16" points="435.1,15.4 444.5,19.6 438.0,22.5 428.6,18.3" /><polygon class="box-front-17" points="395.5,37.4 404.9,41.6 404.9,37.2 395.5,33.0" /><polygon class="box-top-17" points="402.0,30.1 411.4,34.3 404.9,37.2 395.5,33.0" /><polygon class="box-front-18" points="427.2,56.8 435.8,60.6 435.8,51.8 427.2,48.0" /><polygon class="box-top-18" points="440.2,42.2 448.8,46.1 435.8,51.8 427.2,48.0" /><polygon class="box-front-19" points="391.2,94.5 399.8,98.4 399.8,89.6 391.2,85.7" /><polygon class="box-top-19" points="404.2,80.0 412.8,83.8 399.8,89.6 391.2,85.7" /><polygon class="box-front-20" points="400.9,87.0 418.9,95.0 418.9,75.2 400.9,67.2" /><polygon class="box-top-20" points="460.0,40.9 478.0,48.9 418.9,75.2 400.9,67.2" /><polygon class="box-front-21" points="404.9,63.5 422.2,71.2 422.2,42.6 404.9,34.9" /><polygon class="box-top-21" points="456.7,11.9 474.0,19.6 422.2,42.6 404.9,34.9" /><polygon class="box-front-22" points="448.1,31.3 457.4,35.5 457.4,31.1 448.1,26.9" /><polygon class="box-top-22" points="454.6,24.1 463.9,28.2 457.4,31.1 448.1,26.9" /><polygon class="box-front-23" points="415.0,46.1 424.3,50.2 424.3,45.8 415.0,41.7" /><polygon class="box-top-23" points="421.4,38.8 430.8,42.9 424.3,45.8 415.0,41.7" /><polygon class="box-front-24" points="446.6,65.4 455.3,69.3 455.3,60.5 446.6,56.6" /><polygon class="box-top-24" points="459.6,50.9 468.2,54.7 455.3,60.5 446.6,56.6" /><polygon class="box-front-25" points="410.6,103.2 419.3,107.0 419.3,98.2 410.6,94.4" /><polygon class="box-top-25" points="423.6,88.6 432.2,92.5 419.3,98.2 410.6,94.4" /><polygon class="box-front-26" points="420.4,95.6 438.4,103.6 438.4,83.8 420.4,75.8" /><polygon class="box-top-26" points="479.4,49.6 497.4,57.6 438.4,83.8 420.4,75.8" /><polygon class="box-front-27" points="424.3,72.2 441.6,79.8 441.6,51.2 424.3,43.6" /><polygon class="box-top-27" points="476.2,20.5 493.4,28.2 441.6,51.2 424.3,43.6" /><polygon class="box-front-28" points="467.5,40.0 476.9,44.1 476.9,39.7 467.5,35.6" /><polygon class="box-top-28" points="474.0,32.7 483.4,36.9 476.9,39.7 467.5,35.6" /><polygon class="box-front-29" points="434.4,54.7 443.8,58.9 443.8,54.5 434.4,50.3" /><polygon class="box-top-29" points="440.9,47.4 450.2,51.6 443.8,54.5 434.4,50.3" /><polygon class="box-front-30" points="466.1,74.1 474.7,77.9 474.7,69.1 466.1,65.3" /><polygon class="box-top-30" points="479.0,59.5 487.7,63.3 474.7,69.1 466.1,65.3" /><polygon class="box-front-31" points="430.1,111.8 438.7,115.7 438.7,106.9 430.1,103.0" /><polygon class="box-top-31" points="443.0,97.3 451.7,101.1 438.7,106.9 430.1,103.0" />
</svg>
