0
SECTION
2
HEADER
9
$INSUNITS
70
4
0
ENDSEC
0
SECTION
2
ENTITIES
0
LWPOLYLINE
8
HOLD_FASCIA_OUTER
90
34
70
1
10
0.000
20
280.000
10
1260.000
20
280.000
10
1260.000
20
65.000
10
1248.000
20
65.000
10
1245.000
20
45.000
10
1235.000
20
23.000
10
1220.000
20
8.000
10
1205.000
20
2.000
10
1185.000
20
2.000
10
1170.000
20
8.000
10
1155.000
20
23.000
10
1145.000
20
45.000
10
1142.000
20
65.000
10
780.000
20
65.000
10
775.000
20
42.000
10
763.000
20
20.000
10
744.000
20
6.000
10
722.000
20
1.000
10
538.000
20
1.000
10
516.000
20
6.000
10
497.000
20
20.000
10
485.000
20
42.000
10
480.000
20
65.000
10
118.000
20
65.000
10
115.000
20
45.000
10
105.000
20
23.000
10
90.000
20
8.000
10
75.000
20
2.000
10
55.000
20
2.000
10
40.000
20
8.000
10
25.000
20
23.000
10
15.000
20
45.000
10
12.000
20
65.000
10
0.000
20
65.000
0
LINE
8
HOLD_MAIN_LOWER_DATUM
10
0.000
20
65.000
30
0
11
1260.000
21
65.000
31
0
0
LINE
8
HOLD_CENTRELINES
10
630.000
20
0.000
30
0
11
630.000
21
280.000
31
0
0
LWPOLYLINE
8
HOLD_LCD_BEZEL_ENVELOPE
90
36
70
1
10
738.000
20
116.000
10
738.780
20
116.077
10
739.531
20
116.304
10
740.222
20
116.674
10
740.828
20
117.172
10
741.326
20
117.778
10
741.696
20
118.469
10
741.923
20
119.220
10
742.000
20
120.000
10
742.000
20
248.000
10
741.923
20
248.780
10
741.696
20
249.531
10
741.326
20
250.222
10
740.828
20
250.828
10
740.222
20
251.326
10
739.531
20
251.696
10
738.780
20
251.923
10
738.000
20
252.000
10
522.000
20
252.000
10
521.220
20
251.923
10
520.469
20
251.696
10
519.778
20
251.326
10
519.172
20
250.828
10
518.674
20
250.222
10
518.304
20
249.531
10
518.077
20
248.780
10
518.000
20
248.000
10
518.000
20
120.000
10
518.077
20
119.220
10
518.304
20
118.469
10
518.674
20
117.778
10
519.172
20
117.172
10
519.778
20
116.674
10
520.469
20
116.304
10
521.220
20
116.077
10
522.000
20
116.000
0
LWPOLYLINE
8
HOLD_LCD_APERTURE
90
36
70
1
10
728.000
20
126.500
10
728.585
20
126.558
10
729.148
20
126.728
10
729.667
20
127.006
10
730.121
20
127.379
10
730.494
20
127.833
10
730.772
20
128.352
10
730.942
20
128.915
10
731.000
20
129.500
10
731.000
20
238.500
10
730.942
20
239.085
10
730.772
20
239.648
10
730.494
20
240.167
10
730.121
20
240.621
10
729.667
20
240.994
10
729.148
20
241.272
10
728.585
20
241.442
10
728.000
20
241.500
10
532.000
20
241.500
10
531.415
20
241.442
10
530.852
20
241.272
10
530.333
20
240.994
10
529.879
20
240.621
10
529.506
20
240.167
10
529.228
20
239.648
10
529.058
20
239.085
10
529.000
20
238.500
10
529.000
20
129.500
10
529.058
20
128.915
10
529.228
20
128.352
10
529.506
20
127.833
10
529.879
20
127.379
10
530.333
20
127.006
10
530.852
20
126.728
10
531.415
20
126.558
10
532.000
20
126.500
0
LWPOLYLINE
8
HOLD_LCD_ACTIVE_REFERENCE
90
36
70
1
10
727.600
20
127.950
10
727.990
20
127.988
10
728.365
20
128.102
10
728.711
20
128.287
10
729.014
20
128.536
10
729.263
20
128.839
10
729.448
20
129.185
10
729.562
20
129.560
10
729.600
20
129.950
10
729.600
20
238.050
10
729.562
20
238.440
10
729.448
20
238.815
10
729.263
20
239.161
10
729.014
20
239.464
10
728.711
20
239.713
10
728.365
20
239.898
10
727.990
20
240.012
10
727.600
20
240.050
10
532.400
20
240.050
10
532.010
20
240.012
10
531.635
20
239.898
10
531.289
20
239.713
10
530.986
20
239.464
10
530.737
20
239.161
10
530.552
20
238.815
10
530.438
20
238.440
10
530.400
20
238.050
10
530.400
20
129.950
10
530.438
20
129.560
10
530.552
20
129.185
10
530.737
20
128.839
10
530.986
20
128.536
10
531.289
20
128.287
10
531.635
20
128.102
10
532.010
20
127.988
10
532.400
20
127.950
0
CIRCLE
8
HOLD_VENT_FACE_ENVELOPE
10
65.000
20
50.000
30
0
40
43.500
0
CIRCLE
8
HOLD_VENT_NECK_CUTOUT
10
65.000
20
50.000
30
0
40
37.500
0
LINE
8
HOLD_CENTRELINES
10
59.000
20
50.000
30
0
11
71.000
21
50.000
31
0
0
LINE
8
HOLD_CENTRELINES
10
65.000
20
44.000
30
0
11
65.000
21
56.000
31
0
0
CIRCLE
8
HOLD_VENT_FACE_ENVELOPE
10
555.000
20
50.000
30
0
40
43.500
0
CIRCLE
8
HOLD_VENT_NECK_CUTOUT
10
555.000
20
50.000
30
0
40
37.500
0
LINE
8
HOLD_CENTRELINES
10
549.000
20
50.000
30
0
11
561.000
21
50.000
31
0
0
LINE
8
HOLD_CENTRELINES
10
555.000
20
44.000
30
0
11
555.000
21
56.000
31
0
0
CIRCLE
8
HOLD_VENT_FACE_ENVELOPE
10
705.000
20
50.000
30
0
40
43.500
0
CIRCLE
8
HOLD_VENT_NECK_CUTOUT
10
705.000
20
50.000
30
0
40
37.500
0
LINE
8
HOLD_CENTRELINES
10
699.000
20
50.000
30
0
11
711.000
21
50.000
31
0
0
LINE
8
HOLD_CENTRELINES
10
705.000
20
44.000
30
0
11
705.000
21
56.000
31
0
0
CIRCLE
8
HOLD_VENT_FACE_ENVELOPE
10
1195.000
20
50.000
30
0
40
43.500
0
CIRCLE
8
HOLD_VENT_NECK_CUTOUT
10
1195.000
20
50.000
30
0
40
37.500
0
LINE
8
HOLD_CENTRELINES
10
1189.000
20
50.000
30
0
11
1201.000
21
50.000
31
0
0
LINE
8
HOLD_CENTRELINES
10
1195.000
20
44.000
30
0
11
1195.000
21
56.000
31
0
0
LWPOLYLINE
8
HOLD_GLOVEBOX_TRANSFER_ENVELOPE
90
8
70
1
10
125.000
20
112.000
10
135.000
20
98.000
10
418.000
20
98.000
10
438.000
20
114.000
10
438.000
20
232.000
10
421.000
20
252.000
10
145.000
20
255.000
10
125.000
20
238.000
0
LWPOLYLINE
8
HOLD_SPEEDOMETER_TRANSFER_ENVELOPE
90
36
70
1
10
1003.000
20
98.000
10
1005.341
20
98.231
10
1007.592
20
98.913
10
1009.667
20
100.022
10
1011.485
20
101.515
10
1012.978
20
103.333
10
1014.087
20
105.408
10
1014.769
20
107.659
10
1015.000
20
110.000
10
1015.000
20
243.000
10
1014.769
20
245.341
10
1014.087
20
247.592
10
1012.978
20
249.667
10
1011.485
20
251.485
10
1009.667
20
252.978
10
1007.592
20
254.087
10
1005.341
20
254.769
10
1003.000
20
255.000
10
817.000
20
255.000
10
814.659
20
254.769
10
812.408
20
254.087
10
810.333
20
252.978
10
808.515
20
251.485
10
807.022
20
249.667
10
805.913
20
247.592
10
805.231
20
245.341
10
805.000
20
243.000
10
805.000
20
110.000
10
805.231
20
107.659
10
805.913
20
105.408
10
807.022
20
103.333
10
808.515
20
101.515
10
810.333
20
100.022
10
812.408
20
98.913
10
814.659
20
98.231
10
817.000
20
98.000
0
LWPOLYLINE
8
HOLD_CONTROL_BANK_ENVELOPE
90
36
70
1
10
1250.000
20
145.000
10
1250.975
20
145.096
10
1251.913
20
145.381
10
1252.778
20
145.843
10
1253.536
20
146.464
10
1254.157
20
147.222
10
1254.619
20
148.087
10
1254.904
20
149.025
10
1255.000
20
150.000
10
1255.000
20
240.000
10
1254.904
20
240.975
10
1254.619
20
241.913
10
1254.157
20
242.778
10
1253.536
20
243.536
10
1252.778
20
244.157
10
1251.913
20
244.619
10
1250.975
20
244.904
10
1250.000
20
245.000
10
1045.000
20
245.000
10
1044.025
20
244.904
10
1043.087
20
244.619
10
1042.222
20
244.157
10
1041.464
20
243.536
10
1040.843
20
242.778
10
1040.381
20
241.913
10
1040.096
20
240.975
10
1040.000
20
240.000
10
1040.000
20
150.000
10
1040.096
20
149.025
10
1040.381
20
148.087
10
1040.843
20
147.222
10
1041.464
20
146.464
10
1042.222
20
145.843
10
1043.087
20
145.381
10
1044.025
20
145.096
10
1045.000
20
145.000
0
CIRCLE
8
HOLD_SELECTOR_APERTURES
10
1068.000
20
214.000
30
0
40
11.250
0
LINE
8
HOLD_CENTRELINES
10
1064.000
20
214.000
30
0
11
1072.000
21
214.000
31
0
0
LINE
8
HOLD_CENTRELINES
10
1068.000
20
210.000
30
0
11
1068.000
21
218.000
31
0
0
TEXT
8
HOLD_ENGRAVE_LABELS
10
1068.000
20
235.000
30
0
40
3.000
1
WIPERS
72
1
73
2
11
1068.000
21
235.000
31
0
0
CIRCLE
8
HOLD_SELECTOR_APERTURES
10
1121.000
20
214.000
30
0
40
11.250
0
LINE
8
HOLD_CENTRELINES
10
1117.000
20
214.000
30
0
11
1125.000
21
214.000
31
0
0
LINE
8
HOLD_CENTRELINES
10
1121.000
20
210.000
30
0
11
1121.000
21
218.000
31
0
0
TEXT
8
HOLD_ENGRAVE_LABELS
10
1121.000
20
235.000
30
0
40
3.000
1
LIGHTS
72
1
73
2
11
1121.000
21
235.000
31
0
0
CIRCLE
8
HOLD_SELECTOR_APERTURES
10
1174.000
20
214.000
30
0
40
11.250
0
LINE
8
HOLD_CENTRELINES
10
1170.000
20
214.000
30
0
11
1178.000
21
214.000
31
0
0
LINE
8
HOLD_CENTRELINES
10
1174.000
20
210.000
30
0
11
1174.000
21
218.000
31
0
0
TEXT
8
HOLD_ENGRAVE_LABELS
10
1174.000
20
235.000
30
0
40
3.000
1
SPOTS
72
1
73
2
11
1174.000
21
235.000
31
0
0
CIRCLE
8
HOLD_SELECTOR_APERTURES
10
1227.000
20
214.000
30
0
40
11.250
0
LINE
8
HOLD_CENTRELINES
10
1223.000
20
214.000
30
0
11
1231.000
21
214.000
31
0
0
LINE
8
HOLD_CENTRELINES
10
1227.000
20
210.000
30
0
11
1227.000
21
218.000
31
0
0
TEXT
8
HOLD_ENGRAVE_LABELS
10
1227.000
20
235.000
30
0
40
3.000
1
AUX
72
1
73
2
11
1227.000
21
235.000
31
0
0
CIRCLE
8
HOLD_SELECTOR_APERTURES
10
1068.000
20
170.000
30
0
40
11.250
0
LINE
8
HOLD_CENTRELINES
10
1064.000
20
170.000
30
0
11
1072.000
21
170.000
31
0
0
LINE
8
HOLD_CENTRELINES
10
1068.000
20
166.000
30
0
11
1068.000
21
174.000
31
0
0
TEXT
8
HOLD_ENGRAVE_LABELS
10
1068.000
20
190.000
30
0
40
3.000
1
BLOWER
72
1
73
2
11
1068.000
21
190.000
31
0
0
CIRCLE
8
HOLD_SELECTOR_APERTURES
10
1121.000
20
170.000
30
0
40
11.250
0
LINE
8
HOLD_CENTRELINES
10
1117.000
20
170.000
30
0
11
1125.000
21
170.000
31
0
0
LINE
8
HOLD_CENTRELINES
10
1121.000
20
166.000
30
0
11
1121.000
21
174.000
31
0
0
TEXT
8
HOLD_ENGRAVE_LABELS
10
1121.000
20
190.000
30
0
40
3.000
1
A/C
72
1
73
2
11
1121.000
21
190.000
31
0
0
CIRCLE
8
HOLD_SELECTOR_APERTURES
10
1174.000
20
170.000
30
0
40
11.250
0
LINE
8
HOLD_CENTRELINES
10
1170.000
20
170.000
30
0
11
1178.000
21
170.000
31
0
0
LINE
8
HOLD_CENTRELINES
10
1174.000
20
166.000
30
0
11
1174.000
21
174.000
31
0
0
TEXT
8
HOLD_ENGRAVE_LABELS
10
1174.000
20
190.000
30
0
40
3.000
1
ENGINE
72
1
73
2
11
1174.000
21
190.000
31
0
0
CIRCLE
8
HOLD_HAZARD_APERTURE
10
1227.000
20
170.000
30
0
40
8.000
0
LINE
8
HOLD_CENTRELINES
10
1223.000
20
170.000
30
0
11
1231.000
21
170.000
31
0
0
LINE
8
HOLD_CENTRELINES
10
1227.000
20
166.000
30
0
11
1227.000
21
174.000
31
0
0
TEXT
8
HOLD_ENGRAVE_LABELS
10
1227.000
20
190.000
30
0
40
3.000
1
HAZARD
72
1
73
2
11
1227.000
21
190.000
31
0
0
ENDSEC
0
EOF
