0
SECTION
2
HEADER
9
$INSUNITS
70
4
0
ENDSEC
0
SECTION
2
ENTITIES
0
LWPOLYLINE
8
HOLD_CONTROL_BANK_OUTER
90
36
70
1
10
210.000
20
0.000
10
210.975
20
0.096
10
211.913
20
0.381
10
212.778
20
0.843
10
213.536
20
1.464
10
214.157
20
2.222
10
214.619
20
3.087
10
214.904
20
4.025
10
215.000
20
5.000
10
215.000
20
95.000
10
214.904
20
95.975
10
214.619
20
96.913
10
214.157
20
97.778
10
213.536
20
98.536
10
212.778
20
99.157
10
211.913
20
99.619
10
210.975
20
99.904
10
210.000
20
100.000
10
5.000
20
100.000
10
4.025
20
99.904
10
3.087
20
99.619
10
2.222
20
99.157
10
1.464
20
98.536
10
0.843
20
97.778
10
0.381
20
96.913
10
0.096
20
95.975
10
0.000
20
95.000
10
0.000
20
5.000
10
0.096
20
4.025
10
0.381
20
3.087
10
0.843
20
2.222
10
1.464
20
1.464
10
2.222
20
0.843
10
3.087
20
0.381
10
4.025
20
0.096
10
5.000
20
0.000
0
CIRCLE
8
HOLD_SELECTOR_APERTURES
10
28.000
20
69.000
30
0
40
11.250
0
TEXT
8
HOLD_ENGRAVE_LABELS
10
28.000
20
90.000
30
0
40
3.000
1
WIPERS
72
1
73
2
11
28.000
21
90.000
31
0
0
CIRCLE
8
HOLD_SELECTOR_APERTURES
10
81.000
20
69.000
30
0
40
11.250
0
TEXT
8
HOLD_ENGRAVE_LABELS
10
81.000
20
90.000
30
0
40
3.000
1
LIGHTS
72
1
73
2
11
81.000
21
90.000
31
0
0
CIRCLE
8
HOLD_SELECTOR_APERTURES
10
134.000
20
69.000
30
0
40
11.250
0
TEXT
8
HOLD_ENGRAVE_LABELS
10
134.000
20
90.000
30
0
40
3.000
1
SPOTS
72
1
73
2
11
134.000
21
90.000
31
0
0
CIRCLE
8
HOLD_SELECTOR_APERTURES
10
187.000
20
69.000
30
0
40
11.250
0
TEXT
8
HOLD_ENGRAVE_LABELS
10
187.000
20
90.000
30
0
40
3.000
1
AUX
72
1
73
2
11
187.000
21
90.000
31
0
0
CIRCLE
8
HOLD_SELECTOR_APERTURES
10
28.000
20
25.000
30
0
40
11.250
0
TEXT
8
HOLD_ENGRAVE_LABELS
10
28.000
20
45.000
30
0
40
3.000
1
BLOWER
72
1
73
2
11
28.000
21
45.000
31
0
0
CIRCLE
8
HOLD_SELECTOR_APERTURES
10
81.000
20
25.000
30
0
40
11.250
0
TEXT
8
HOLD_ENGRAVE_LABELS
10
81.000
20
45.000
30
0
40
3.000
1
A/C
72
1
73
2
11
81.000
21
45.000
31
0
0
CIRCLE
8
HOLD_SELECTOR_APERTURES
10
134.000
20
25.000
30
0
40
11.250
0
TEXT
8
HOLD_ENGRAVE_LABELS
10
134.000
20
45.000
30
0
40
3.000
1
ENGINE
72
1
73
2
11
134.000
21
45.000
31
0
0
CIRCLE
8
HOLD_HAZARD_APERTURE
10
187.000
20
25.000
30
0
40
8.000
0
TEXT
8
HOLD_ENGRAVE_LABELS
10
187.000
20
45.000
30
0
40
3.000
1
HAZARD
72
1
73
2
11
187.000
21
45.000
31
0
0
ENDSEC
0
EOF
