0
SECTION
2
HEADER
9
$INSUNITS
70
4
0
ENDSEC
0
SECTION
2
ENTITIES
0
LWPOLYLINE
8
CUT_FASCIA_OUTER
90
36
70
1
10
404.000
20
0.000
10
405.171
20
0.115
10
406.296
20
0.457
10
407.333
20
1.011
10
408.243
20
1.757
10
408.989
20
2.667
10
409.543
20
3.704
10
409.885
20
4.829
10
410.000
20
6.000
10
410.000
20
142.000
10
409.885
20
143.171
10
409.543
20
144.296
10
408.989
20
145.333
10
408.243
20
146.243
10
407.333
20
146.989
10
406.296
20
147.543
10
405.171
20
147.885
10
404.000
20
148.000
10
6.000
20
148.000
10
4.829
20
147.885
10
3.704
20
147.543
10
2.667
20
146.989
10
1.757
20
146.243
10
1.011
20
145.333
10
0.457
20
144.296
10
0.115
20
143.171
10
0.000
20
142.000
10
0.000
20
6.000
10
0.115
20
4.829
10
0.457
20
3.704
10
1.011
20
2.667
10
1.757
20
1.757
10
2.667
20
1.011
10
3.704
20
0.457
10
4.829
20
0.115
10
6.000
20
0.000
0
LWPOLYLINE
8
HOLD_VEHICLE_OPENING
90
36
70
1
10
389.000
20
12.000
10
389.585
20
12.058
10
390.148
20
12.228
10
390.667
20
12.506
10
391.121
20
12.879
10
391.494
20
13.333
10
391.772
20
13.852
10
391.942
20
14.415
10
392.000
20
15.000
10
392.000
20
133.000
10
391.942
20
133.585
10
391.772
20
134.148
10
391.494
20
134.667
10
391.121
20
135.121
10
390.667
20
135.494
10
390.148
20
135.772
10
389.585
20
135.942
10
389.000
20
136.000
10
21.000
20
136.000
10
20.415
20
135.942
10
19.852
20
135.772
10
19.333
20
135.494
10
18.879
20
135.121
10
18.506
20
134.667
10
18.228
20
134.148
10
18.058
20
133.585
10
18.000
20
133.000
10
18.000
20
15.000
10
18.058
20
14.415
10
18.228
20
13.852
10
18.506
20
13.333
10
18.879
20
12.879
10
19.333
20
12.506
10
19.852
20
12.228
10
20.415
20
12.058
10
21.000
20
12.000
0
LWPOLYLINE
8
HOLD_LCD_BEZEL_ENVELOPE
90
36
70
1
10
311.000
20
10.000
10
311.585
20
10.058
10
312.148
20
10.228
10
312.667
20
10.506
10
313.121
20
10.879
10
313.494
20
11.333
10
313.772
20
11.852
10
313.942
20
12.415
10
314.000
20
13.000
10
314.000
20
135.000
10
313.942
20
135.585
10
313.772
20
136.148
10
313.494
20
136.667
10
313.121
20
137.121
10
312.667
20
137.494
10
312.148
20
137.772
10
311.585
20
137.942
10
311.000
20
138.000
10
99.000
20
138.000
10
98.415
20
137.942
10
97.852
20
137.772
10
97.333
20
137.494
10
96.879
20
137.121
10
96.506
20
136.667
10
96.228
20
136.148
10
96.058
20
135.585
10
96.000
20
135.000
10
96.000
20
13.000
10
96.058
20
12.415
10
96.228
20
11.852
10
96.506
20
11.333
10
96.879
20
10.879
10
97.333
20
10.506
10
97.852
20
10.228
10
98.415
20
10.058
10
99.000
20
10.000
0
LWPOLYLINE
8
HOLD_LCD_APERTURE
90
36
70
1
10
303.000
20
16.500
10
303.585
20
16.558
10
304.148
20
16.728
10
304.667
20
17.006
10
305.121
20
17.379
10
305.494
20
17.833
10
305.772
20
18.352
10
305.942
20
18.915
10
306.000
20
19.500
10
306.000
20
128.500
10
305.942
20
129.085
10
305.772
20
129.648
10
305.494
20
130.167
10
305.121
20
130.621
10
304.667
20
130.994
10
304.148
20
131.272
10
303.585
20
131.442
10
303.000
20
131.500
10
107.000
20
131.500
10
106.415
20
131.442
10
105.852
20
131.272
10
105.333
20
130.994
10
104.879
20
130.621
10
104.506
20
130.167
10
104.228
20
129.648
10
104.058
20
129.085
10
104.000
20
128.500
10
104.000
20
19.500
10
104.058
20
18.915
10
104.228
20
18.352
10
104.506
20
17.833
10
104.879
20
17.379
10
105.333
20
17.006
10
105.852
20
16.728
10
106.415
20
16.558
10
107.000
20
16.500
0
CIRCLE
8
HOLD_VENT_FACE_ENVELOPE
10
49.000
20
74.000
30
0
40
41.000
0
CIRCLE
8
HOLD_VENT_NECK_CUTOUT
10
49.000
20
74.000
30
0
40
33.000
0
LINE
8
HOLD_CENTRELINES
10
44.000
20
74.000
30
0
11
54.000
21
74.000
31
0
0
LINE
8
HOLD_CENTRELINES
10
49.000
20
69.000
30
0
11
49.000
21
79.000
31
0
0
CIRCLE
8
HOLD_VENT_FACE_ENVELOPE
10
361.000
20
74.000
30
0
40
41.000
0
CIRCLE
8
HOLD_VENT_NECK_CUTOUT
10
361.000
20
74.000
30
0
40
33.000
0
LINE
8
HOLD_CENTRELINES
10
356.000
20
74.000
30
0
11
366.000
21
74.000
31
0
0
LINE
8
HOLD_CENTRELINES
10
361.000
20
69.000
30
0
11
361.000
21
79.000
31
0
0
CIRCLE
8
HOLD_MOUNTING_HOLES
10
9.000
20
9.000
30
0
40
2.250
0
CIRCLE
8
HOLD_MOUNTING_HOLES
10
205.000
20
9.000
30
0
40
2.250
0
CIRCLE
8
HOLD_MOUNTING_HOLES
10
401.000
20
9.000
30
0
40
2.250
0
CIRCLE
8
HOLD_MOUNTING_HOLES
10
9.000
20
139.000
30
0
40
2.250
0
CIRCLE
8
HOLD_MOUNTING_HOLES
10
205.000
20
139.000
30
0
40
2.250
0
CIRCLE
8
HOLD_MOUNTING_HOLES
10
401.000
20
139.000
30
0
40
2.250
0
ENDSEC
0
EOF
