0
SECTION
2
HEADER
9
$INSUNITS
70
4
0
ENDSEC
0
SECTION
2
ENTITIES
0
LWPOLYLINE
8
HOLD_CLAMP_OUTER
90
36
70
1
10
235.000
20
0.000
10
235.585
20
0.058
10
236.148
20
0.228
10
236.667
20
0.506
10
237.121
20
0.879
10
237.494
20
1.333
10
237.772
20
1.852
10
237.942
20
2.415
10
238.000
20
3.000
10
238.000
20
137.000
10
237.942
20
137.585
10
237.772
20
138.148
10
237.494
20
138.667
10
237.121
20
139.121
10
236.667
20
139.494
10
236.148
20
139.772
10
235.585
20
139.942
10
235.000
20
140.000
10
3.000
20
140.000
10
2.415
20
139.942
10
1.852
20
139.772
10
1.333
20
139.494
10
0.879
20
139.121
10
0.506
20
138.667
10
0.228
20
138.148
10
0.058
20
137.585
10
0.000
20
137.000
10
0.000
20
3.000
10
0.058
20
2.415
10
0.228
20
1.852
10
0.506
20
1.333
10
0.879
20
0.879
10
1.333
20
0.506
10
1.852
20
0.228
10
2.415
20
0.058
10
3.000
20
0.000
0
LWPOLYLINE
8
HOLD_LCD_REAR_BODY
90
36
70
1
10
231.000
20
5.000
10
231.390
20
5.038
10
231.765
20
5.152
10
232.111
20
5.337
10
232.414
20
5.586
10
232.663
20
5.889
10
232.848
20
6.235
10
232.962
20
6.610
10
233.000
20
7.000
10
233.000
20
133.000
10
232.962
20
133.390
10
232.848
20
133.765
10
232.663
20
134.111
10
232.414
20
134.414
10
232.111
20
134.663
10
231.765
20
134.848
10
231.390
20
134.962
10
231.000
20
135.000
10
7.000
20
135.000
10
6.610
20
134.962
10
6.235
20
134.848
10
5.889
20
134.663
10
5.586
20
134.414
10
5.337
20
134.111
10
5.152
20
133.765
10
5.038
20
133.390
10
5.000
20
133.000
10
5.000
20
7.000
10
5.038
20
6.610
10
5.152
20
6.235
10
5.337
20
5.889
10
5.586
20
5.586
10
5.889
20
5.337
10
6.235
20
5.152
10
6.610
20
5.038
10
7.000
20
5.000
0
CIRCLE
8
HOLD_CLAMP_MOUNTS
10
6.000
20
6.000
30
0
40
2.250
0
CIRCLE
8
HOLD_CLAMP_MOUNTS
10
232.000
20
6.000
30
0
40
2.250
0
CIRCLE
8
HOLD_CLAMP_MOUNTS
10
6.000
20
134.000
30
0
40
2.250
0
CIRCLE
8
HOLD_CLAMP_MOUNTS
10
232.000
20
134.000
30
0
40
2.250
0
ENDSEC
0
EOF
