0
SECTION
2
HEADER
9
$INSUNITS
70
4
0
ENDSEC
0
SECTION
2
ENTITIES
0
LWPOLYLINE
8
CUT_TEMPLATE_OUTER
90
36
70
1
10
97.000
20
0.000
10
97.585
20
0.058
10
98.148
20
0.228
10
98.667
20
0.506
10
99.121
20
0.879
10
99.494
20
1.333
10
99.772
20
1.852
10
99.942
20
2.415
10
100.000
20
3.000
10
100.000
20
97.000
10
99.942
20
97.585
10
99.772
20
98.148
10
99.494
20
98.667
10
99.121
20
99.121
10
98.667
20
99.494
10
98.148
20
99.772
10
97.585
20
99.942
10
97.000
20
100.000
10
3.000
20
100.000
10
2.415
20
99.942
10
1.852
20
99.772
10
1.333
20
99.494
10
0.879
20
99.121
10
0.506
20
98.667
10
0.228
20
98.148
10
0.058
20
97.585
10
0.000
20
97.000
10
0.000
20
3.000
10
0.058
20
2.415
10
0.228
20
1.852
10
0.506
20
1.333
10
0.879
20
0.879
10
1.333
20
0.506
10
1.852
20
0.228
10
2.415
20
0.058
10
3.000
20
0.000
0
CIRCLE
8
HOLD_VENT_FACE_ENVELOPE
10
50.000
20
50.000
30
0
40
41.000
0
CIRCLE
8
HOLD_VENT_NECK_CUTOUT
10
50.000
20
50.000
30
0
40
33.000
0
LINE
8
HOLD_CENTRELINES
10
45.000
20
50.000
30
0
11
55.000
21
50.000
31
0
0
LINE
8
HOLD_CENTRELINES
10
50.000
20
45.000
30
0
11
50.000
21
55.000
31
0
0
TEXT
8
MARK_TEMPLATE_ID
10
50.000
20
5.500
30
0
40
3.000
1
OUTER LEFT
72
1
73
2
11
50.000
21
5.500
31
0
0
LWPOLYLINE
8
CUT_TEMPLATE_OUTER
90
36
70
1
10
217.000
20
0.000
10
217.585
20
0.058
10
218.148
20
0.228
10
218.667
20
0.506
10
219.121
20
0.879
10
219.494
20
1.333
10
219.772
20
1.852
10
219.942
20
2.415
10
220.000
20
3.000
10
220.000
20
97.000
10
219.942
20
97.585
10
219.772
20
98.148
10
219.494
20
98.667
10
219.121
20
99.121
10
218.667
20
99.494
10
218.148
20
99.772
10
217.585
20
99.942
10
217.000
20
100.000
10
123.000
20
100.000
10
122.415
20
99.942
10
121.852
20
99.772
10
121.333
20
99.494
10
120.879
20
99.121
10
120.506
20
98.667
10
120.228
20
98.148
10
120.058
20
97.585
10
120.000
20
97.000
10
120.000
20
3.000
10
120.058
20
2.415
10
120.228
20
1.852
10
120.506
20
1.333
10
120.879
20
0.879
10
121.333
20
0.506
10
121.852
20
0.228
10
122.415
20
0.058
10
123.000
20
0.000
0
CIRCLE
8
HOLD_VENT_FACE_ENVELOPE
10
170.000
20
50.000
30
0
40
41.000
0
CIRCLE
8
HOLD_VENT_NECK_CUTOUT
10
170.000
20
50.000
30
0
40
33.000
0
LINE
8
HOLD_CENTRELINES
10
165.000
20
50.000
30
0
11
175.000
21
50.000
31
0
0
LINE
8
HOLD_CENTRELINES
10
170.000
20
45.000
30
0
11
170.000
21
55.000
31
0
0
TEXT
8
MARK_TEMPLATE_ID
10
170.000
20
5.500
30
0
40
3.000
1
OUTER RIGHT
72
1
73
2
11
170.000
21
5.500
31
0
0
ENDSEC
0
EOF
