0
SECTION
2
HEADER
9
$INSUNITS
70
4
0
ENDSEC
0
SECTION
2
ENTITIES
0
LWPOLYLINE
8
HOLD_CONTROL_BANK_OUTER
90
36
70
1
10
187.000
20
0.000
10
187.585
20
0.058
10
188.148
20
0.228
10
188.667
20
0.506
10
189.121
20
0.879
10
189.494
20
1.333
10
189.772
20
1.852
10
189.942
20
2.415
10
190.000
20
3.000
10
190.000
20
85.000
10
189.942
20
85.585
10
189.772
20
86.148
10
189.494
20
86.667
10
189.121
20
87.121
10
188.667
20
87.494
10
188.148
20
87.772
10
187.585
20
87.942
10
187.000
20
88.000
10
3.000
20
88.000
10
2.415
20
87.942
10
1.852
20
87.772
10
1.333
20
87.494
10
0.879
20
87.121
10
0.506
20
86.667
10
0.228
20
86.148
10
0.058
20
85.585
10
0.000
20
85.000
10
0.000
20
3.000
10
0.058
20
2.415
10
0.228
20
1.852
10
0.506
20
1.333
10
0.879
20
0.879
10
1.333
20
0.506
10
1.852
20
0.228
10
2.415
20
0.058
10
3.000
20
0.000
0
CIRCLE
8
HOLD_SELECTOR_APERTURES
10
24.000
20
64.000
30
0
40
11.150
0
LINE
8
HOLD_CENTRELINES
10
20.000
20
64.000
30
0
11
28.000
21
64.000
31
0
0
LINE
8
HOLD_CENTRELINES
10
24.000
20
60.000
30
0
11
24.000
21
68.000
31
0
0
TEXT
8
HOLD_ENGRAVE_LABELS
10
24.000
20
45.000
30
0
40
3.000
1
WIPERS
72
1
73
2
11
24.000
21
45.000
31
0
0
CIRCLE
8
HOLD_SELECTOR_APERTURES
10
71.000
20
64.000
30
0
40
11.150
0
LINE
8
HOLD_CENTRELINES
10
67.000
20
64.000
30
0
11
75.000
21
64.000
31
0
0
LINE
8
HOLD_CENTRELINES
10
71.000
20
60.000
30
0
11
71.000
21
68.000
31
0
0
TEXT
8
HOLD_ENGRAVE_LABELS
10
71.000
20
45.000
30
0
40
3.000
1
LIGHTS
72
1
73
2
11
71.000
21
45.000
31
0
0
CIRCLE
8
HOLD_SELECTOR_APERTURES
10
118.000
20
64.000
30
0
40
11.150
0
LINE
8
HOLD_CENTRELINES
10
114.000
20
64.000
30
0
11
122.000
21
64.000
31
0
0
LINE
8
HOLD_CENTRELINES
10
118.000
20
60.000
30
0
11
118.000
21
68.000
31
0
0
TEXT
8
HOLD_ENGRAVE_LABELS
10
118.000
20
45.000
30
0
40
3.000
1
SPOTS
72
1
73
2
11
118.000
21
45.000
31
0
0
CIRCLE
8
HOLD_SELECTOR_APERTURES
10
165.000
20
64.000
30
0
40
11.150
0
LINE
8
HOLD_CENTRELINES
10
161.000
20
64.000
30
0
11
169.000
21
64.000
31
0
0
LINE
8
HOLD_CENTRELINES
10
165.000
20
60.000
30
0
11
165.000
21
68.000
31
0
0
TEXT
8
HOLD_ENGRAVE_LABELS
10
165.000
20
45.000
30
0
40
3.000
1
AUX
72
1
73
2
11
165.000
21
45.000
31
0
0
CIRCLE
8
HOLD_SELECTOR_APERTURES
10
24.000
20
24.000
30
0
40
11.150
0
LINE
8
HOLD_CENTRELINES
10
20.000
20
24.000
30
0
11
28.000
21
24.000
31
0
0
LINE
8
HOLD_CENTRELINES
10
24.000
20
20.000
30
0
11
24.000
21
28.000
31
0
0
TEXT
8
HOLD_ENGRAVE_LABELS
10
24.000
20
5.500
30
0
40
3.000
1
BLOWER
72
1
73
2
11
24.000
21
5.500
31
0
0
CIRCLE
8
HOLD_SELECTOR_APERTURES
10
71.000
20
24.000
30
0
40
11.150
0
LINE
8
HOLD_CENTRELINES
10
67.000
20
24.000
30
0
11
75.000
21
24.000
31
0
0
LINE
8
HOLD_CENTRELINES
10
71.000
20
20.000
30
0
11
71.000
21
28.000
31
0
0
TEXT
8
HOLD_ENGRAVE_LABELS
10
71.000
20
5.500
30
0
40
3.000
1
A/C
72
1
73
2
11
71.000
21
5.500
31
0
0
CIRCLE
8
HOLD_SELECTOR_APERTURES
10
118.000
20
24.000
30
0
40
11.150
0
LINE
8
HOLD_CENTRELINES
10
114.000
20
24.000
30
0
11
122.000
21
24.000
31
0
0
LINE
8
HOLD_CENTRELINES
10
118.000
20
20.000
30
0
11
118.000
21
28.000
31
0
0
TEXT
8
HOLD_ENGRAVE_LABELS
10
118.000
20
5.500
30
0
40
3.000
1
FUEL STOP
72
1
73
2
11
118.000
21
5.500
31
0
0
CIRCLE
8
HOLD_HAZARD_APERTURE
10
165.000
20
24.000
30
0
40
8.000
0
LINE
8
HOLD_CENTRELINES
10
161.000
20
24.000
30
0
11
169.000
21
24.000
31
0
0
LINE
8
HOLD_CENTRELINES
10
165.000
20
20.000
30
0
11
165.000
21
28.000
31
0
0
TEXT
8
HOLD_ENGRAVE_LABELS
10
165.000
20
5.500
30
0
40
3.000
1
HAZARD
72
1
73
2
11
165.000
21
5.500
31
0
0
ENDSEC
0
EOF
