0
SECTION
2
HEADER
9
$INSUNITS
70
4
0
ENDSEC
0
SECTION
2
ENTITIES
0
LWPOLYLINE
8
CUT
90
36
70
1
10
237.000
20
0.000
10
237.585
20
0.058
10
238.148
20
0.228
10
238.667
20
0.506
10
239.121
20
0.879
10
239.494
20
1.333
10
239.772
20
1.852
10
239.942
20
2.415
10
240.000
20
3.000
10
240.000
20
37.000
10
239.942
20
37.585
10
239.772
20
38.148
10
239.494
20
38.667
10
239.121
20
39.121
10
238.667
20
39.494
10
238.148
20
39.772
10
237.585
20
39.942
10
237.000
20
40.000
10
3.000
20
40.000
10
2.415
20
39.942
10
1.852
20
39.772
10
1.333
20
39.494
10
0.879
20
39.121
10
0.506
20
38.667
10
0.228
20
38.148
10
0.058
20
37.585
10
0.000
20
37.000
10
0.000
20
3.000
10
0.058
20
2.415
10
0.228
20
1.852
10
0.506
20
1.333
10
0.879
20
0.879
10
1.333
20
0.506
10
1.852
20
0.228
10
2.415
20
0.058
10
3.000
20
0.000
0
CIRCLE
8
HOLD_SELECTOR_APERTURES
10
35.000
20
20.000
30
0
40
11.150
0
CIRCLE
8
HOLD_SELECTOR_APERTURES
10
100.000
20
20.000
30
0
40
11.150
0
CIRCLE
8
HOLD_SELECTOR_APERTURES
10
165.000
20
20.000
30
0
40
11.150
0
CIRCLE
8
HOLD_HAZARD_APERTURE
10
215.000
20
20.000
30
0
40
8.000
0
CIRCLE
8
CUT
10
6.000
20
20.000
30
0
40
2.250
0
CIRCLE
8
CUT
10
234.000
20
20.000
30
0
40
2.250
0
ENDSEC
0
EOF
