0
SECTION
2
HEADER
9
$INSUNITS
70
4
0
ENDSEC
0
SECTION
2
ENTITIES
0
LWPOLYLINE
8
HOLD_VEHICLE_TEMPLATE
90
36
70
1
10
269.000
20
0.000
10
270.171
20
0.115
10
271.296
20
0.457
10
272.333
20
1.011
10
273.243
20
1.757
10
273.989
20
2.667
10
274.543
20
3.704
10
274.885
20
4.829
10
275.000
20
6.000
10
275.000
20
219.000
10
274.885
20
220.171
10
274.543
20
221.296
10
273.989
20
222.333
10
273.243
20
223.243
10
272.333
20
223.989
10
271.296
20
224.543
10
270.171
20
224.885
10
269.000
20
225.000
10
6.000
20
225.000
10
4.829
20
224.885
10
3.704
20
224.543
10
2.667
20
223.989
10
1.757
20
223.243
10
1.011
20
222.333
10
0.457
20
221.296
10
0.115
20
220.171
10
0.000
20
219.000
10
0.000
20
6.000
10
0.115
20
4.829
10
0.457
20
3.704
10
1.011
20
2.667
10
1.757
20
1.757
10
2.667
20
1.011
10
3.704
20
0.457
10
4.829
20
0.115
10
6.000
20
0.000
0
LWPOLYLINE
8
HOLD_LCD_BEZEL_ENVELOPE
90
36
70
1
10
249.500
20
72.000
10
250.085
20
72.058
10
250.648
20
72.228
10
251.167
20
72.506
10
251.621
20
72.879
10
251.994
20
73.333
10
252.272
20
73.852
10
252.442
20
74.415
10
252.500
20
75.000
10
252.500
20
201.000
10
252.442
20
201.585
10
252.272
20
202.148
10
251.994
20
202.667
10
251.621
20
203.121
10
251.167
20
203.494
10
250.648
20
203.772
10
250.085
20
203.942
10
249.500
20
204.000
10
25.500
20
204.000
10
24.915
20
203.942
10
24.352
20
203.772
10
23.833
20
203.494
10
23.379
20
203.121
10
23.006
20
202.667
10
22.728
20
202.148
10
22.558
20
201.585
10
22.500
20
201.000
10
22.500
20
75.000
10
22.558
20
74.415
10
22.728
20
73.852
10
23.006
20
73.333
10
23.379
20
72.879
10
23.833
20
72.506
10
24.352
20
72.228
10
24.915
20
72.058
10
25.500
20
72.000
0
LWPOLYLINE
8
HOLD_LCD_APERTURE
90
36
70
1
10
235.500
20
80.500
10
236.085
20
80.558
10
236.648
20
80.728
10
237.167
20
81.006
10
237.621
20
81.379
10
237.994
20
81.833
10
238.272
20
82.352
10
238.442
20
82.915
10
238.500
20
83.500
10
238.500
20
192.500
10
238.442
20
193.085
10
238.272
20
193.648
10
237.994
20
194.167
10
237.621
20
194.621
10
237.167
20
194.994
10
236.648
20
195.272
10
236.085
20
195.442
10
235.500
20
195.500
10
39.500
20
195.500
10
38.915
20
195.442
10
38.352
20
195.272
10
37.833
20
194.994
10
37.379
20
194.621
10
37.006
20
194.167
10
36.728
20
193.648
10
36.558
20
193.085
10
36.500
20
192.500
10
36.500
20
83.500
10
36.558
20
82.915
10
36.728
20
82.352
10
37.006
20
81.833
10
37.379
20
81.379
10
37.833
20
81.006
10
38.352
20
80.728
10
38.915
20
80.558
10
39.500
20
80.500
0
LWPOLYLINE
8
CUT_CONTROL_STRIP_APERTURE
90
36
70
1
10
254.500
20
20.000
10
255.085
20
20.058
10
255.648
20
20.228
10
256.167
20
20.506
10
256.621
20
20.879
10
256.994
20
21.333
10
257.272
20
21.852
10
257.442
20
22.415
10
257.500
20
23.000
10
257.500
20
57.000
10
257.442
20
57.585
10
257.272
20
58.148
10
256.994
20
58.667
10
256.621
20
59.121
10
256.167
20
59.494
10
255.648
20
59.772
10
255.085
20
59.942
10
254.500
20
60.000
10
20.500
20
60.000
10
19.915
20
59.942
10
19.352
20
59.772
10
18.833
20
59.494
10
18.379
20
59.121
10
18.006
20
58.667
10
17.728
20
58.148
10
17.558
20
57.585
10
17.500
20
57.000
10
17.500
20
23.000
10
17.558
20
22.415
10
17.728
20
21.852
10
18.006
20
21.333
10
18.379
20
20.879
10
18.833
20
20.506
10
19.352
20
20.228
10
19.915
20
20.058
10
20.500
20
20.000
0
CIRCLE
8
HOLD_VEHICLE_TEMPLATE
10
8.000
20
8.000
30
0
40
2.250
0
CIRCLE
8
HOLD_VEHICLE_TEMPLATE
10
137.500
20
8.000
30
0
40
2.250
0
CIRCLE
8
HOLD_VEHICLE_TEMPLATE
10
267.000
20
8.000
30
0
40
2.250
0
CIRCLE
8
HOLD_VEHICLE_TEMPLATE
10
8.000
20
212.000
30
0
40
2.250
0
CIRCLE
8
HOLD_VEHICLE_TEMPLATE
10
137.500
20
212.000
30
0
40
2.250
0
CIRCLE
8
HOLD_VEHICLE_TEMPLATE
10
267.000
20
212.000
30
0
40
2.250
0
ENDSEC
0
EOF
