<svg xmlns="http://www.w3.org/2000/svg" width="1180" height="760" viewBox="0 0 1180 760">
<style>.cut{fill:none;stroke:#111;stroke-width:2}.hold{fill:#fff4df;stroke:#a85f00;stroke-width:2;stroke-dasharray:7 5}.txt{font:15px Arial;fill:#20262b}.bold{font:700 18px Arial;fill:#20262b}.small{font:13px Arial;fill:#53606a}.label{font:700 9px Arial;fill:#20262b}.dim{stroke:#aa2020;stroke-width:1.5}</style>
<rect width="1180" height="760" fill="#f7f8f9"/><text x="55" y="44" class="bold">J40 RHD CENTRE LCD FASCIA - REV D</text><text x="55" y="70" class="small">Delete the entire ashtray and radio face; install one flat panel. Glovebox and speedometer pressing remain original.</text>
<rect x="85.0" y="130.0" width="591.25" height="483.75" rx="12.899999999999999" fill="#e8e2cc" stroke="#a85f00" stroke-width="2" stroke-dasharray="7 5"/>
<rect x="133.375" y="175.15" width="494.5" height="283.8" rx="7" fill="#11161a" stroke="#a85f00" stroke-width="2" stroke-dasharray="7 5"/>
<rect x="163.475" y="193.425" width="434.29999999999995" height="247.25" rx="5" fill="#253846" stroke="#e8edf0" stroke-width="1"/>
<rect x="122.625" y="484.75" width="516.0" height="86.0" rx="6" fill="#e8e2cc" stroke="#111" stroke-width="2"/><circle cx="197.875" cy="521.3" r="16" fill="#b8bec2" stroke="#161b1f" stroke-width="2"/><line x1="190.875" y1="528.3" x2="208.875" y2="510.29999999999995" stroke="#111" stroke-width="7" stroke-linecap="round"/><circle cx="337.625" cy="521.3" r="16" fill="#b8bec2" stroke="#161b1f" stroke-width="2"/><line x1="330.625" y1="528.3" x2="348.625" y2="510.29999999999995" stroke="#111" stroke-width="7" stroke-linecap="round"/><circle cx="477.375" cy="521.3" r="16" fill="#b8bec2" stroke="#161b1f" stroke-width="2"/><line x1="470.375" y1="528.3" x2="488.375" y2="510.29999999999995" stroke="#111" stroke-width="7" stroke-linecap="round"/><text x="197.875" y="560.0" text-anchor="middle" class="label">BLOWER</text><text x="337.625" y="560.0" text-anchor="middle" class="label">A/C REQUEST</text><text x="477.375" y="560.0" text-anchor="middle" class="label">FUEL STOP / CONTROL</text><circle cx="584.875" cy="521.3" r="11" fill="#b51e23" stroke="#161b1f" stroke-width="2"/><text x="584.875" y="560.0" text-anchor="middle" class="label">HAZARD</text><circle cx="102.2" cy="596.55" r="5" class="hold"/><circle cx="380.625" cy="596.55" r="5" class="hold"/><circle cx="659.05" cy="596.55" r="5" class="hold"/><circle cx="102.2" cy="157.95" r="5" class="hold"/><circle cx="380.625" cy="157.95" r="5" class="hold"/><circle cx="659.05" cy="157.95" r="5" class="hold"/>
<line x1="85.0" y1="651.75" x2="676.25" y2="651.75" class="dim"/><text x="325.79999999999995" y="675.75" class="bold">275 nominal</text>
<line x1="711.25" y1="130.0" x2="711.25" y2="613.75" class="dim"/><text x="724.25" y="388.0" class="bold">225 nominal</text>
<text x="207.55" y="319.2" fill="#fff" font-family="Arial" font-size="16">9-inch active image 199.2 x 112.1; 230 x 132 bezel envelope</text>
<rect x="750" y="105" width="390" height="535" rx="8" fill="#fff" stroke="#cbd2d7"/><text x="775" y="140" class="bold">FLAT-FACE SCOPE</text>
<text x="775" y="174" class="txt">Remove ashtray door, body, lip and seam.</text><text x="775" y="202" class="txt">Remove/cover the radio openings and surround.</text><text x="775" y="230" class="txt">One continuous flat body-colour face remains.</text><text x="775" y="258" class="txt">No ashtray feature survives in the finished face.</text>
<text x="775" y="302" class="bold">RIGHT OF SPEEDOMETER - 2 x 2</text>
<text x="790" y="337" class="small">UPPER LEFT</text><text x="970" y="337" class="small">UPPER RIGHT</text><text x="790" y="361" class="txt">WIPERS</text><text x="970" y="361" class="txt">LIGHTS</text>
<text x="790" y="401" class="small">LOWER LEFT</text><text x="970" y="401" class="small">LOWER RIGHT</text><text x="790" y="425" class="txt">SPOTS</text><text x="970" y="425" class="txt">AUX</text>
<text x="775" y="474" class="bold">UNDER LCD - LEFT TO RIGHT</text><text x="775" y="506" class="txt">BLOWER | A/C REQUEST | FUEL STOP / CONTROL</text><text x="775" y="532" class="small">Fuel-stop/control label is provisional pending live proof.</text>
<text x="775" y="576" class="bold">HVAC</text><text x="775" y="606" class="small">2 under-dash eyeball outlets; 63.5 mm hose target.</text>
<text x="55" y="710" class="small">Finish intent: body-colour cream, low gloss. DXF layers named HOLD are not production cut paths.</text></svg>